<svg xmlns="http://www.w3.org/2000/svg" viewBox="0 0 302.37 131.86"><defs><style>.cls-1{fill:#aa9260;}</style></defs><title>camron_vick_design</title><g id="Layer_2" data-name="Layer 2"><g id="Layer_1-2" data-name="Layer 1"><path class="cls-1" d="M233.57,2.1H179.28L147.75,94l-8.69-25.49c-1.64-4.24-9.69-24.9-14.46-34.33-6.66-13.32-18.37-27-38.71-32.11A73,73,0,0,0,68,0C29.81,0,0,26.56,0,65.93c0,39.18,29.81,65.93,68,65.93,17.35,0,30.18-5.32,39.59-12.83l-4.41-11.71L97.52,92.19l-2.19-5.83A31,31,0,0,1,68,102.81c-19.87,0-34.59-16.05-34.59-36.88S48.16,29,68,29A31.07,31.07,0,0,1,93,41.8,28.48,28.48,0,0,1,96,47l17,45.23,5.69,15.13,8.37,22.24h41.28l37.33-98.8h27.86c23.31,0,35.16,15.29,35.16,35,0,18.92-13,35.16-35.35,35.16H212.75V57.22l-27.33,72.35h48.16c39.94,0,68.8-24.27,68.8-63.83S273.6,2.18,233.57,2.1Z"/><path class="cls-1" d="M233.38,2.1h0Z"/></g></g></svg>