<svg xmlns="http://www.w3.org/2000/svg" viewBox="0 0 1492.52 343.56"><defs><style>.cls-1{fill:#aa9260;}.cls-2,.cls-3{fill:#fff;}.cls-2{stroke:#231f20;stroke-width:15px;}.cls-2,.cls-4{stroke-miterlimit:10;}.cls-4{fill:none;stroke:#fff;stroke-width:5.7px;}</style></defs><title>camron_vick_title</title><g id="Layer_2" data-name="Layer 2"><g id="Layer_1-2" data-name="Layer 1"><polygon class="cls-1" points="817.8 236.37 0 236.37 0 221.37 811.55 221.37 921.44 110.58 932.09 121.14 817.8 236.37"/><polygon class="cls-1" points="924.99 343.56 914.39 332.96 1025.98 221.37 1492.52 221.37 1492.52 236.37 1032.19 236.37 924.99 343.56"/><path class="cls-2" d="M1101.33,107.61"/><polygon class="cls-1" points="871.16 289.73 860.56 279.13 975.25 164.43 1034.39 223.56 1023.78 234.17 975.25 185.64 871.16 289.73"/><path class="cls-3" d="M131.27,131.41v27.34c0,32.93-16.46,51.74-48.21,51.74s-48.21-18.82-48.21-51.74v-107C34.84,18.82,51.31,0,83.06,0s48.21,18.82,48.21,51.74v20H100.7v-22c0-14.7-6.47-20.29-16.76-20.29S67.18,35,67.18,49.68V160.81c0,14.7,6.47,20,16.76,20s16.76-5.29,16.76-20v-29.4Z"/><path class="cls-3" d="M255.63,208.15H223l-5.59-37.34H177.72l-5.59,37.34H142.44L175.37,2.35H222.7Zm-73.79-65.27H213L197.42,38.81Z"/><path class="cls-3" d="M339.12,148.47l22-146.11h45V208.15H375.58V60.56L353.23,208.15H322.66L298.55,62.62V208.15H270.33V2.35h45Z"/><path class="cls-3" d="M497.29,208.15c-1.76-5.29-2.94-8.53-2.94-25.28V150.52c0-19.11-6.47-26.17-21.17-26.17H462v83.79H429.67V2.35h48.8c33.52,0,47.92,15.58,47.92,47.33V65.85c0,21.17-6.76,35-21.17,41.75,16.17,6.76,21.46,22.34,21.46,43.8v31.75c0,10,.29,17.35,3.53,25ZM462,31.75V95h12.64c12.05,0,19.4-5.29,19.4-21.75V52.92c0-14.7-5-21.17-16.46-21.17Z"/><path class="cls-3" d="M545.21,51.74C545.21,18.82,562.56,0,594.31,0s49.1,18.82,49.1,51.74v107c0,32.93-17.35,51.74-49.1,51.74s-49.1-18.82-49.1-51.74Zm32.34,109.07c0,14.7,6.47,20.29,16.76,20.29s16.76-5.59,16.76-20.29V49.68c0-14.7-6.47-20.29-16.76-20.29S577.55,35,577.55,49.68Z"/><path class="cls-3" d="M693.09,59.09V208.15H664V2.35h40.57l33.22,123.18V2.35h28.81V208.15H733.37Z"/><path class="cls-3" d="M1105.88,170.22l24.7-167.87h29.69l-31.75,205.79H1080.3L1048.55,2.35h32.63Z"/><path class="cls-3" d="M1175.26,2.35h32.34V208.15h-32.34Z"/><path class="cls-3" d="M1324.9,131.41v27.34c0,32.93-16.46,51.74-48.21,51.74s-48.21-18.82-48.21-51.74v-107c0-32.93,16.46-51.74,48.21-51.74s48.21,18.82,48.21,51.74v20h-30.58v-22c0-14.7-6.47-20.29-16.76-20.29s-16.76,5.59-16.76,20.29V160.81c0,14.7,6.47,20,16.76,20s16.76-5.29,16.76-20v-29.4Z"/><path class="cls-3" d="M1386.93,126.12l-10,18.82v63.21H1344.6V2.35h32.34V92l42.33-89.67h32.34l-45,91.73,45,114.07h-33.22Z"/><path class="cls-3" d="M1095.82,250.25c13.78,0,19.14,8.68,19.14,21.69v9.7c0,14.16-6.51,21.18-20.67,21.18h-11.1v36.75h-5.87V250.25Zm-1.53,47.21c10.34,0,14.8-4.59,14.8-15.44V271.56c0-9.7-3.32-15.95-13.27-15.95h-12.63v41.85Z"/><path class="cls-3" d="M1123.64,272.07c0-13,6-22.58,19.52-22.58,13.78,0,19.78,9.57,19.78,22.58v45.68c0,13-6,22.58-19.78,22.58-13.53,0-19.52-9.57-19.52-22.58Zm5.87,46.06c0,9.7,3.83,16.84,13.65,16.84s13.91-7.15,13.91-16.84V271.69c0-9.7-4-16.84-13.91-16.84s-13.65,7.14-13.65,16.84Z"/><path class="cls-3" d="M1191.27,250.25c13.65,0,19.14,7.53,19.14,20.16v7.78c0,10.46-4.08,16.46-12.89,18.5,9.19,2,12.89,8.55,12.89,18.25v13.91c0,3.7.26,7.78,2.17,10.72h-6.12c-1.53-2.68-1.91-5.87-1.91-10.72v-14c0-11.87-6.51-15.18-16.71-15.18h-9.31v39.94h-5.87V250.25Zm-3.32,44c10.46,0,16.59-2.93,16.59-14.93v-8.42c0-9.57-3.7-15.31-13.4-15.31h-12.63v38.66Z"/><path class="cls-3" d="M1236.94,339.57v-84h-18.12v-5.36h42.23v5.36h-18.25v84Z"/><path class="cls-3" d="M1297.29,293.76v5.36H1274.2v40.45h-5.87V250.25h33.94v5.36H1274.2v38.15Z"/><path class="cls-3" d="M1310.82,272.07c0-13,6-22.58,19.52-22.58,13.78,0,19.78,9.57,19.78,22.58v45.68c0,13-6,22.58-19.78,22.58-13.53,0-19.52-9.57-19.52-22.58Zm5.87,46.06c0,9.7,3.83,16.84,13.65,16.84s13.91-7.15,13.91-16.84V271.69c0-9.7-4-16.84-13.91-16.84s-13.65,7.14-13.65,16.84Z"/><path class="cls-3" d="M1359.82,339.57V250.25h5.87v84h28.07v5.36Z"/><path class="cls-3" d="M1408.43,250.25v89.32h-5.87V250.25Z"/><path class="cls-3" d="M1418.25,272.07c0-13,6-22.58,19.52-22.58,13.78,0,19.78,9.57,19.78,22.58v45.68c0,13-6,22.58-19.78,22.58-13.53,0-19.52-9.57-19.52-22.58Zm5.87,46.06c0,9.7,3.83,16.84,13.65,16.84s13.91-7.15,13.91-16.84V271.69c0-9.7-4-16.84-13.91-16.84s-13.65,7.14-13.65,16.84Z"/><path class="cls-3" d="M131.3,272.07v6.63h-5.61v-7c0-9.57-3.7-16.84-13.52-16.84s-13.52,7.27-13.52,16.84v46.44c0,9.57,3.7,16.71,13.52,16.71s13.52-7.14,13.52-16.71V298.87H113.82v-5.36H131.3v24.24c0,12.89-5.61,22.58-19.27,22.58s-19.27-9.7-19.27-22.58V272.07c0-12.89,5.61-22.58,19.27-22.58S131.3,259.19,131.3,272.07Z"/><path class="cls-3" d="M159.75,250.25c13.65,0,19.14,7.53,19.14,20.16v7.78c0,10.46-4.08,16.46-12.89,18.5,9.19,2,12.89,8.55,12.89,18.25v13.91c0,3.7.25,7.78,2.17,10.72h-6.12c-1.53-2.68-1.91-5.87-1.91-10.72v-14c0-11.87-6.51-15.18-16.71-15.18H147v39.94h-5.87V250.25Zm-3.32,44c10.46,0,16.59-2.93,16.59-14.93v-8.42c0-9.57-3.7-15.31-13.4-15.31H147v38.66Z"/><path class="cls-3" d="M198.92,319.79l-4.47,19.78H189.1l19.52-89.44h8.55l19.9,89.44H231.2l-4.47-19.78Zm.89-5.1h26l-13.14-57.8Z"/><path class="cls-3" d="M264.5,250.25c13.78,0,19.14,8.68,19.14,21.69v9.7c0,14.16-6.51,21.18-20.67,21.18h-11.1v36.75H246V250.25ZM263,297.46c10.33,0,14.8-4.59,14.8-15.44V271.56c0-9.7-3.32-15.95-13.27-15.95H251.87v41.85Z"/><path class="cls-3" d="M298.32,297.59v42h-5.87V250.25h5.87v42h27.82v-42h6v89.32h-6v-42Z"/><path class="cls-3" d="M348.21,250.25v89.32h-5.87V250.25Z"/><path class="cls-3" d="M396.56,272.07v7.4h-5.61v-7.78c0-9.57-3.7-16.84-13.53-16.84s-13.53,7.27-13.53,16.84v46.44c0,9.57,3.7,16.71,13.53,16.71s13.53-7.14,13.53-16.71V307.54h5.61v10.21c0,12.89-5.61,22.58-19.27,22.58S358,330.64,358,317.75V272.07c0-12.89,5.61-22.58,19.27-22.58S396.56,259.19,396.56,272.07Z"/><path class="cls-3" d="M488.14,250.25c13.78,0,19.78,9.06,19.78,22.2v44.91c0,13.14-6,22.2-19.78,22.2H468.49V250.25Zm-.13,84c10,0,14-6.76,14-16.59V272.2c0-9.82-4.21-16.59-14-16.59H474.36v78.6Z"/><path class="cls-3" d="M547.85,291.6V297H523.48v37.26h29.35v5.36H517.61V250.25h35.22v5.36H523.48v36Z"/><path class="cls-3" d="M600,271.82v1.91h-5.61v-2.3c0-9.44-3.57-16.59-13.27-16.59s-13.27,7-13.27,16.46c0,21.69,32.28,22.07,32.28,46.7,0,12.89-5.61,22.33-19.27,22.33s-19.27-9.44-19.27-22.33v-4.59h5.61v5c0,9.57,3.7,16.46,13.53,16.46s13.52-6.89,13.52-16.46c0-21.44-32.28-21.82-32.28-46.7,0-13.4,5.87-22.07,19-22.2C594.55,249.49,600,258.93,600,271.82Z"/><path class="cls-3" d="M615.48,250.25v89.32h-5.87V250.25Z"/><path class="cls-3" d="M663.83,272.07v6.63h-5.61v-7c0-9.57-3.7-16.84-13.53-16.84s-13.53,7.27-13.53,16.84v46.44c0,9.57,3.7,16.71,13.53,16.71s13.53-7.14,13.53-16.71V298.87H646.35v-5.36h17.48v24.24c0,12.89-5.61,22.58-19.27,22.58s-19.27-9.7-19.27-22.58V272.07c0-12.89,5.61-22.58,19.27-22.58S663.83,259.19,663.83,272.07Z"/><path class="cls-3" d="M679,339.57h-5.36V250.25h7.66l26.79,75.41V250.25h5.36v89.32H707L679,260Z"/><rect class="cls-4" x="420.63" y="283.85" width="20.08" height="20.08" transform="translate(333.95 -218.45) rotate(45)"/></g></g></svg>