<svg xmlns="http://www.w3.org/2000/svg" viewBox="0 0 40.05 139.57"><defs><style>.cls-1{fill:#848484;}</style></defs><title>Asset 1</title><g id="Layer_2" data-name="Layer 2"><g id="Layer_1-2" data-name="Layer 1"><path class="cls-1" d="M26.23,86.14l-2.9-3.64,2.9-3.64,2.9,3.64Zm-2.17-3.64,2.17,2.72,2.17-2.72-2.17-2.72Z"/><path class="cls-1" d="M28.77,83l-2.9-3.64,2.9-3.64,2.9,3.64ZM26.6,79.31,28.77,82l2.17-2.72-2.17-2.72Z"/><path class="cls-1" d="M23.7,83l-2.9-3.64,2.9-3.64,2.9,3.64Zm-2.17-3.64L23.7,82l2.17-2.72L23.7,76.59Z"/><path class="cls-1" d="M26.23,79.77l-2.9-3.64,2.9-3.64,2.9,3.64Zm-2.17-3.64,2.17,2.72,2.17-2.72L26.23,73.4Z"/><path class="cls-1" d="M28.77,76.59l-2.9-3.64,2.9-3.64,2.9,3.64ZM26.6,72.94l2.17,2.72,2.17-2.72-2.17-2.72Z"/><path class="cls-1" d="M26.23,73.4l-2.9-3.64,2.9-3.64,2.9,3.64Zm-2.17-3.64,2.17,2.72,2.17-2.72L26.23,67Z"/><path class="cls-1" d="M31.31,79.77l-2.9-3.64,2.9-3.64,2.9,3.64Zm-2.17-3.64,2.17,2.72,2.17-2.72L31.31,73.4Z"/><path class="cls-1" d="M23.7,76.59l-2.9-3.64,2.9-3.64,2.9,3.64Zm-2.17-3.64,2.17,2.72,2.17-2.72L23.7,70.22Z"/><path class="cls-1" d="M21.16,79.77l-2.9-3.64,2.9-3.64,2.9,3.64ZM19,76.12l2.17,2.72,2.17-2.72L21.16,73.4Z"/><path class="cls-1" d="M26.23,60.66,23.33,57l2.9-3.64L29.14,57ZM24.06,57l2.17,2.72L28.41,57,26.23,54.3Z"/><path class="cls-1" d="M23.7,63.85l-2.9-3.64,2.9-3.64,2.9,3.64ZM21.53,60.2l2.17,2.72,2.17-2.72L23.7,57.48Z"/><path class="cls-1" d="M28.77,63.85l-2.9-3.64,2.9-3.64,2.9,3.64ZM26.6,60.2l2.17,2.72,2.17-2.72-2.17-2.72Z"/><path class="cls-1" d="M26.23,67l-2.9-3.64,2.9-3.64,2.9,3.64Zm-2.17-3.64,2.17,2.72,2.17-2.72-2.17-2.72Z"/><path class="cls-1" d="M23.7,70.22l-2.9-3.64,2.9-3.64,2.9,3.64Zm-2.17-3.64L23.7,69.3l2.17-2.72L23.7,63.85Z"/><path class="cls-1" d="M21.16,73.4l-2.9-3.64,2.9-3.64,2.9,3.64ZM19,69.76l2.17,2.72,2.17-2.72L21.16,67Z"/><path class="cls-1" d="M21.16,67l-2.9-3.64,2.9-3.64,2.9,3.64ZM19,63.39l2.17,2.72,2.17-2.72-2.17-2.72Z"/><path class="cls-1" d="M28.77,70.22l-2.9-3.64,2.9-3.64,2.9,3.64ZM26.6,66.57l2.17,2.72,2.17-2.72-2.17-2.72Z"/><path class="cls-1" d="M31.31,73.4l-2.9-3.64,2.9-3.64,2.9,3.64Zm-2.17-3.64,2.17,2.72,2.17-2.72L31.31,67Z"/><path class="cls-1" d="M31.31,67l-2.9-3.64,2.9-3.64,2.9,3.64Zm-2.17-3.64,2.17,2.72,2.17-2.72-2.17-2.72Z"/><path class="cls-1" d="M7.17,89.13l-.48-.32c0-.07,4.31-6.67,2.63-13.87C8.26,70.44,5.13,66.63,0,63.64l.29-.5c5.27,3.08,8.5,7,9.59,11.68C11.62,82.27,7.22,89.07,7.17,89.13Z"/><path class="cls-1" d="M28,132.67l-.57-.08c0-.18.52-4.56-6.18-7.48-3.71-1.62-7.24-3.54-8-6.67-.55-2.37.59-5.18,3.48-8.59,6.78-8-3.85-23.86-4-24l.47-.32a47.77,47.77,0,0,1,4.63,9.15c2.47,6.72,2.23,12.1-.71,15.56-2.77,3.26-3.87,5.9-3.36,8.08.67,2.89,4.24,4.79,7.64,6.27C28.62,127.69,28,132.47,28,132.67Z"/><path class="cls-1" d="M32.7,128.73l-.22-1.07a23.44,23.44,0,0,0-4.09-9.84,7.08,7.08,0,0,1-.32.75c-1.17,2.34-4.5,3.29-7.05,2.86a4.5,4.5,0,0,1-4.08-3.87c-.25-2,1.29-3.66,3.67-4.06s5.15.53,7.5,3.1c.21-1.73-.67-3.28-2-5.64-.67-1.17-1.43-2.51-2.23-4.15-2.34-4.82-1.48-7.42-.56-10.17A25.38,25.38,0,0,0,24,94.15c.84-3.75-3.75-7.35-3.8-7.39l.35-.45c.2.16,4.93,3.87,4,8a25.76,25.76,0,0,1-.75,2.55c-.92,2.75-1.71,5.12.53,9.74.79,1.63,1.55,3,2.21,4.12,1.49,2.61,2.5,4.36,2,6.48a22.88,22.88,0,0,1,4.21,9.27c.89-3.37,3.27-14.05.77-24.41-1.66-6.87-3.77-9.16-5.31-10.84a6.75,6.75,0,0,1-2.31-5.5h.57a6.22,6.22,0,0,0,2.16,5.11c1.58,1.72,3.75,4.08,5.44,11.09,3,12.6-1,25.67-1.09,25.8ZM21.61,114a5.46,5.46,0,0,0-.91.07c-2.07.35-3.41,1.79-3.2,3.42a4,4,0,0,0,3.61,3.38c2.62.44,5.52-.7,6.44-2.55a5.91,5.91,0,0,0,.4-1A8.58,8.58,0,0,0,21.61,114Z"/><path class="cls-1" d="M28,139.57h-.26V139a9.49,9.49,0,0,0,9.2-5.5c2.35-4.66,1.94-11.47-.92-15.19-4.8-6.24-8.42-22.18-8.57-22.86l.56-.13c0,.16,3.75,16.5,8.47,22.63,3,3.94,3.46,10.87,1,15.79A10.15,10.15,0,0,1,28,139.57Z"/><path class="cls-1" d="M38.73,115.59l-.11,0c-.25-.1-.2-.29-.08-.7,2-7.5.7-14.5-3.79-19.73-2.36-2.75-3.34-5.52-2.91-8.25.66-4.17,4.38-6.95,5.69-7.81v0l.33-.17.41.09-.12.4h0c-.84.51-5,3.29-5.73,7.6-.4,2.55.53,5.17,2.78,7.78,4.62,5.38,6,12.57,3.9,20.26,0,.15-.07.25-.08.3l-.14,0,.16.08C38.93,115.54,38.82,115.59,38.73,115.59Z"/><path class="cls-1" d="M.29,76.43,0,75.93c5.13-3,8.27-6.81,9.32-11.32C11,57.41,6.74,50.82,6.69,50.75l.48-.32c0,.07,4.45,6.87,2.71,14.31C8.79,69.42,5.56,73.35.29,76.43Z"/><path class="cls-1" d="M13.3,54.05l-.47-.32c.11-.16,10.74-16,4-24-2.89-3.4-4-6.21-3.48-8.59.72-3.13,4.26-5.05,8-6.67,6.7-2.92,6.2-7.3,6.18-7.48L28,6.9c0,.2.6,5-6.52,8.09-3.4,1.48-7,3.39-7.64,6.27-.51,2.18.59,4.83,3.36,8.08,2.94,3.45,3.18,8.83.71,15.56A47.77,47.77,0,0,1,13.3,54.05Z"/><path class="cls-1" d="M26.52,53.89h-.57a6.75,6.75,0,0,1,2.31-5.5c1.54-1.68,3.65-4,5.31-10.84,2.49-10.35.12-21-.77-24.41a22.88,22.88,0,0,1-4.21,9.26c.49,2.12-.52,3.87-2,6.48-.67,1.17-1.42,2.49-2.21,4.12-2.24,4.62-1.45,7-.53,9.74a25.76,25.76,0,0,1,.75,2.55c.92,4.1-3.8,7.81-4,8l-.35-.45s4.64-3.64,3.8-7.39a25.38,25.38,0,0,0-.74-2.49c-.92-2.75-1.78-5.34.56-10.17.8-1.65,1.56-3,2.23-4.15,1.35-2.36,2.24-3.91,2-5.64-2.35,2.57-5.07,3.51-7.5,3.1S16.68,24,16.94,22A4.5,4.5,0,0,1,21,18.14c2.54-.43,5.88.52,7.05,2.86a7.06,7.06,0,0,1,.32.75,23.43,23.43,0,0,0,4.09-9.84l.22-1.07.33,1c0,.13,4.12,13.2,1.09,25.8-1.69,7-3.86,9.37-5.44,11.09A6.22,6.22,0,0,0,26.52,53.89ZM22.27,18.61a7,7,0,0,0-1.15.1,4,4,0,0,0-3.61,3.38c-.21,1.64,1.13,3.08,3.2,3.42,1.87.32,4.72-.31,7.26-3.23a5.92,5.92,0,0,0-.4-1C26.76,19.68,24.54,18.61,22.27,18.61Z"/><path class="cls-1" d="M28,44.25l-.56-.13c.15-.68,3.77-16.62,8.57-22.86,2.86-3.71,3.27-10.53.92-15.19a9.49,9.49,0,0,0-9.2-5.5V0a10.17,10.17,0,0,1,9.73,5.82c2.48,4.92,2.06,11.86-1,15.79C31.77,27.75,28.06,44.08,28,44.25Z"/><path class="cls-1" d="M38.12,60.84l-.27-.15-.33-.17v0c-1.33-.88-5-3.65-5.69-7.81-.43-2.73.55-5.5,2.91-8.25,4.49-5.23,5.83-12.23,3.79-19.73-.11-.41-.16-.6.08-.7.09,0,.26-.06.41.19l-.11.06H39s0,.15.08.3c2.1,7.69.71,14.88-3.9,20.26C32.94,47.42,32,50,32.41,52.59c.68,4.32,4.89,7.09,5.73,7.6l.24.15Zm.64-36.49-.23.13a.29.29,0,0,0,.31.06Z"/></g></g></svg>