<svg xmlns="http://www.w3.org/2000/svg" viewBox="0 0 332.67 62.8"><defs><style>.cls-1{fill:none;stroke:#231f20;stroke-miterlimit:10;stroke-width:0.33px;}.cls-2{fill:#a99260;}.cls-3{fill:#41b467;}.cls-4{fill:#86c983;}.cls-5{fill:#aed9ac;}.cls-6{fill:#45a566;}.cls-7{fill:#75c481;}.cls-8{fill:#67be66;}</style></defs><title>Asset 1</title><g id="Layer_2" data-name="Layer 2"><g id="Layer_1-2" data-name="Layer 1"><path class="cls-1" d="M62.39,35.38"/><path class="cls-1" d="M270.28,28.52"/><path class="cls-2" d="M43.85,31.45a20.35,20.35,0,0,1-4.6-21.8l.23-.52-26.7-8L19,21.74,0,32,19,42.16,12.78,62.8l26.7-8-.23-.52a20.35,20.35,0,0,1,4.6-21.8h1l-.5-.5.5-.5Zm-1.74,1.23-.72.61-.34.26-.6.45-.36.25-.6.4-.34.21-.67.39-.26.15a19.7,19.7,0,0,1-1.87.89l-.19.08-.73.28-.23.08-.71.23-.2.06-.79.21-.09,0a19.7,19.7,0,0,1-2.61.43h-.08l-.71.05h-.37l.06-.06q.43-.39.91-.79l.18-.14c.33-.26.68-.52,1-.78l0,0c.38-.26.78-.51,1.19-.75l.24-.14q.62-.35,1.29-.67l.26-.12c.48-.22,1-.42,1.49-.61h0c.51-.18,1.05-.34,1.61-.49l.31-.08q.82-.2,1.71-.34l.36-.05c.62-.09,1.26-.16,1.92-.2h0l0,0Zm-1.72-1.46L40,31.17q-.89-.14-1.71-.34L38,30.74c-.56-.15-1.1-.31-1.61-.49h0c-.52-.19-1-.39-1.49-.61l-.26-.12q-.68-.32-1.3-.67l-.24-.14c-.42-.24-.82-.49-1.2-.75l0,0c-.37-.26-.72-.52-1.06-.79L30.63,27q-.48-.39-.91-.79l-.06-.06h.45l.51,0,.27,0,.6.07.2,0,.84.14h.05l.79.17.25.06.62.16.3.09.6.19.31.11.64.24.27.11a19.71,19.71,0,0,1,1.85.88l.27.15.66.38.34.21.6.4.35.25.61.46.33.25.73.62.2.17,0,0h0C41.65,31.38,41,31.31,40.39,31.22ZM38.13,9.76a21.46,21.46,0,0,0,2,18.73L40,28.38c-.42-.27-.84-.52-1.26-.74l-.46-.23L37.42,27l-.59-.26-.78-.3-1-.33-.58-.18-.7-.18-.48-.11q-.61-.13-1.2-.22l-.43-.07L31,25.26l-.5,0-.73,0-.76,0h-.41a20.13,20.13,0,0,1-3.87-5.86l-.2-.53-4.67,2.51L14.27,2.59ZM2.11,32l17.17-9.23h0L24,20.16a21.54,21.54,0,0,0,3.27,5h0l.78.82.15.16h0l.61.6.2.19c.28.26.57.51.88.77l.11.09c.28.23.59.46.9.69l.25.18c.35.25.71.49,1.1.72l.21.12q.51.31,1.07.59l.28.14q.64.32,1.33.6l.29.11q.62.24,1.29.46l.27.09c.51.15,1,.29,1.58.41l.15,0-.15,0c-.55.12-1.08.26-1.59.41l-.26.09q-.67.21-1.3.46l-.28.11q-.7.29-1.34.61l-.26.14q-.56.29-1.09.6l-.19.11c-.39.24-.75.48-1.1.73l-.24.17c-.32.23-.62.46-.91.7l-.1.08c-.31.26-.6.52-.88.77l-.2.18-.61.6h0l-.15.16-.78.82h0a21.54,21.54,0,0,0-3.27,5l-4.76-2.56h0Zm36,22.19L14.27,61.31l5.61-18.67,4.67,2.51.2-.53a20,20,0,0,1,3.87-5.86h.26l.86,0,.32,0,.84-.06.37,0c.35,0,.72-.09,1.08-.15l.43-.08,1-.21.33-.08c.4-.1.8-.22,1.21-.36l.41-.14c.43-.15.86-.31,1.3-.5l.18-.08c.41-.18.82-.38,1.23-.59l.32-.17c.46-.25.92-.52,1.38-.81l.08,0A21.46,21.46,0,0,0,38.13,54.14Z"/><path class="cls-2" d="M332.67,32l-19-10.21L319.89,1.1l-26.7,8,.23.52a20.35,20.35,0,0,1-4.6,21.8h-1l.5.5-.5.5h1a20.35,20.35,0,0,1,4.6,21.8l-.23.52,26.7,8-6.21-20.65Zm-2.11,0-17.17,9.23h0l-4.76,2.56a21.59,21.59,0,0,0-3.27-5h0l-.78-.82-.15-.16h0l-.61-.6-.19-.18c-.28-.26-.57-.52-.89-.78l-.1-.08c-.29-.24-.6-.47-.92-.7l-.24-.17c-.35-.25-.72-.49-1.11-.73l-.19-.11q-.52-.31-1.09-.6l-.26-.14q-.64-.32-1.34-.61l-.28-.11q-.63-.25-1.3-.46l-.26-.09c-.51-.15-1-.29-1.59-.41l-.15,0,.15,0c.55-.12,1.08-.26,1.59-.41l.27-.09q.67-.21,1.3-.46l.29-.11q.69-.28,1.34-.6l.27-.14q.56-.29,1.08-.6l.19-.11c.39-.24.75-.48,1.11-.73l.24-.17c.32-.23.63-.46.92-.7l.1-.08c.31-.26.61-.52.89-.77l.19-.18.61-.6h0l.15-.16.78-.82h0a21.59,21.59,0,0,0,3.27-5l4.76,2.56h0Zm-28,5.77-.6,0-.18,0-.76-.09h0c-.57-.08-1.16-.19-1.77-.33l-.09,0-.79-.21-.18-.05-.74-.24-.19-.06-.8-.3-.13,0a19.72,19.72,0,0,1-1.91-.91l-.18-.1-.75-.44-.29-.18-.65-.43-.32-.23-.64-.48-.31-.24c-.25-.2-.5-.41-.75-.63l-.18-.15,0,0h0c.67,0,1.3.11,1.92.2l.36.05q.89.14,1.71.34l.31.08c.56.15,1.1.31,1.61.49h0c.52.19,1,.39,1.5.61l.26.12q.68.32,1.3.67l.24.14c.42.24.82.49,1.2.75l0,0c.38.26.73.53,1.06.79l.16.13q.49.4.92.8l.06.05h-.41Zm-12.05-6.49.74-.63.32-.25.62-.47.34-.24.62-.41.33-.21.68-.39.25-.14a19.71,19.71,0,0,1,1.86-.88l.26-.1.65-.25.31-.1.6-.19.31-.09.61-.16.26-.06.77-.16.08,0,.83-.14.23,0,.57-.07.29,0,.49,0,.29,0H303l-.06.05q-.43.4-.92.79l-.17.13c-.33.26-.68.53-1,.78l0,0c-.37.26-.78.51-1.19.75l-.24.14q-.62.35-1.29.67l-.26.12c-.48.22-1,.42-1.49.61h0c-.51.18-1.05.34-1.61.49l-.31.08q-.82.2-1.71.34l-.36.05c-.62.09-1.26.16-1.92.2h0l0,0Zm4-21.47L318.4,2.59l-5.61,18.67-4.67-2.51-.2.53A20.13,20.13,0,0,1,304,25.15h-.92l-.44,0-1,.08-.5.06-.75.11-.46.07c-.38.07-.77.15-1.16.25l-.4.1q-.51.14-1,.31l-.31.1c-.44.15-.88.32-1.33.51l-.32.14q-.6.26-1.2.58l-.23.12c-.46.25-.93.52-1.39.82l-.13.08A21.45,21.45,0,0,0,294.55,9.76Zm0,44.37a21.46,21.46,0,0,0-2-18.73l.08,0c.46.3.92.57,1.39.82l.28.15c.47.24.93.47,1.39.67h0c.49.21,1,.39,1.45.55l.18.06a20.39,20.39,0,0,0,2.81.71l.08,0q.69.12,1.34.19h0q.63.07,1.22.1h.09l.92,0H304a20.13,20.13,0,0,1,3.87,5.86l.2.53,4.67-2.51,5.61,18.67Z"/><path class="cls-2" d="M179.26,31.39,192.13,4,185.8,10.5,176.36,0H155.89l-9.45,10.5L140.11,4,153,31.39c-45.14.06-83.88.42-105.5.93,21.52.51,60,.87,104.86.93l-12.84,13,26.62-12.39,26.62,12.39-12.84-13c44.87-.06,83.34-.42,104.86-.93C263.14,31.81,224.4,31.45,179.26,31.39ZM188.7,9,178.15,31.39h-5.53l-5.4-.42ZM156.33,1h19.58l9.19,10.21-19,19.45-19-19.45ZM143.54,9,165,31l-5.4.42h-5.53Zm.61,34,9.6-9.69h5.87l4.56.35Zm43.94,0-20-9.33,4.56-.35h5.87Z"/><polygon class="cls-3" points="150.97 11.46 166.12 26.87 160.57 11.46 150.97 11.46"/><polygon class="cls-4" points="157.74 3.6 150.97 11.46 160.57 11.46 157.74 3.6"/><polygon class="cls-5" points="181.27 11.46 174.5 3.6 171.67 11.46 181.27 11.46"/><polygon class="cls-6" points="171.67 11.46 166.12 26.87 181.27 11.46 171.67 11.46"/><polygon class="cls-7" points="160.57 11.46 166.12 26.87 171.67 11.46 160.57 11.46"/><polygon class="cls-8" points="171.67 11.46 174.5 3.6 166.12 3.6 157.74 3.6 160.57 11.46 171.67 11.46"/></g></g></svg>