<svg xmlns="http://www.w3.org/2000/svg" viewBox="0 0 40.05 139.57"><defs><style>.cls-1{fill:#848484;}</style></defs><title>Asset 2</title><g id="Layer_2" data-name="Layer 2"><g id="Layer_1-2" data-name="Layer 1"><path class="cls-1" d="M13.81,53.43l2.9,3.64-2.9,3.64-2.9-3.64ZM16,57.08l-2.17-2.72-2.17,2.72,2.17,2.72Z"/><path class="cls-1" d="M11.27,56.62l2.9,3.64-2.9,3.64-2.9-3.64Zm2.17,3.64-2.17-2.72L9.1,60.26,11.27,63Z"/><path class="cls-1" d="M16.35,56.62l2.9,3.64-2.9,3.64-2.9-3.64Zm2.17,3.64-2.17-2.72-2.17,2.72L16.35,63Z"/><path class="cls-1" d="M13.81,59.8l2.9,3.64-2.9,3.64-2.9-3.64ZM16,63.45l-2.17-2.72-2.17,2.72,2.17,2.72Z"/><path class="cls-1" d="M11.27,63l2.9,3.64-2.9,3.64-2.9-3.64Zm2.17,3.64-2.17-2.72L9.1,66.63l2.17,2.72Z"/><path class="cls-1" d="M13.81,66.17l2.9,3.64-2.9,3.64-2.9-3.64ZM16,69.81l-2.17-2.72-2.17,2.72,2.17,2.72Z"/><path class="cls-1" d="M8.74,59.8l2.9,3.64-2.9,3.64-2.9-3.64Zm2.17,3.64L8.74,60.72,6.57,63.45l2.17,2.72Z"/><path class="cls-1" d="M16.35,63l2.9,3.64-2.9,3.64-2.9-3.64Zm2.17,3.64-2.17-2.72-2.17,2.72,2.17,2.72Z"/><path class="cls-1" d="M18.89,59.8l2.9,3.64-2.9,3.64L16,63.45Zm2.17,3.64-2.17-2.72-2.17,2.72,2.17,2.72Z"/><path class="cls-1" d="M13.81,78.91l2.9,3.64-2.9,3.64-2.9-3.64ZM16,82.55l-2.17-2.72-2.17,2.72,2.17,2.72Z"/><path class="cls-1" d="M16.35,75.72l2.9,3.64L16.35,83l-2.9-3.64Zm2.17,3.64-2.17-2.72-2.17,2.72,2.17,2.72Z"/><path class="cls-1" d="M11.27,75.72l2.9,3.64L11.27,83l-2.9-3.64Zm2.17,3.64-2.17-2.72L9.1,79.37l2.17,2.72Z"/><path class="cls-1" d="M13.81,72.54l2.9,3.64-2.9,3.64-2.9-3.64ZM16,76.18l-2.17-2.72-2.17,2.72,2.17,2.72Z"/><path class="cls-1" d="M16.35,69.35,19.25,73l-2.9,3.64L13.45,73ZM18.52,73l-2.17-2.72L14.18,73l2.17,2.72Z"/><path class="cls-1" d="M18.89,66.17l2.9,3.64-2.9,3.64L16,69.81Zm2.17,3.64-2.17-2.72-2.17,2.72,2.17,2.72Z"/><path class="cls-1" d="M18.89,72.54l2.9,3.64-2.9,3.64L16,76.18Zm2.17,3.64-2.17-2.72-2.17,2.72,2.17,2.72Z"/><path class="cls-1" d="M11.27,69.35,14.18,73l-2.9,3.64L8.37,73ZM13.45,73l-2.17-2.72L9.1,73l2.17,2.72Z"/><path class="cls-1" d="M8.74,66.17l2.9,3.64-2.9,3.64-2.9-3.64Zm2.17,3.64L8.74,67.09,6.57,69.81l2.17,2.72Z"/><path class="cls-1" d="M8.74,72.54l2.9,3.64-2.9,3.64-2.9-3.64Zm2.17,3.64L8.74,73.46,6.57,76.18l2.17,2.72Z"/><path class="cls-1" d="M32.88,50.44l.48.32c0,.07-4.31,6.67-2.63,13.87,1.06,4.51,4.19,8.31,9.32,11.31l-.29.5c-5.27-3.08-8.5-7-9.59-11.68C28.43,57.3,32.83,50.5,32.88,50.44Z"/><path class="cls-1" d="M12,6.9,12.6,7c0,.18-.52,4.56,6.18,7.48,3.71,1.62,7.24,3.54,8,6.67.55,2.37-.59,5.18-3.48,8.59-6.78,8,3.85,23.86,4,24l-.47.32a47.77,47.77,0,0,1-4.63-9.15c-2.47-6.72-2.23-12.1.71-15.56,2.77-3.26,3.87-5.9,3.36-8.08C25.52,18.37,22,16.47,18.55,15,11.43,11.88,12,7.1,12,6.9Z"/><path class="cls-1" d="M7.34,10.84l.22,1.07a23.44,23.44,0,0,0,4.09,9.84A7.08,7.08,0,0,1,12,21c1.17-2.34,4.5-3.29,7.05-2.86A4.5,4.5,0,0,1,23.11,22c.25,2-1.29,3.66-3.67,4.06s-5.15-.53-7.5-3.1c-.21,1.73.67,3.28,2,5.64.67,1.17,1.43,2.51,2.23,4.15,2.34,4.82,1.48,7.42.56,10.17A25.38,25.38,0,0,0,16,45.42c-.84,3.75,3.75,7.35,3.8,7.39l-.35.45c-.2-.16-4.93-3.87-4-8a25.76,25.76,0,0,1,.75-2.55c.92-2.75,1.71-5.12-.53-9.74-.79-1.63-1.55-3-2.21-4.12-1.49-2.61-2.5-4.36-2-6.48a22.88,22.88,0,0,1-4.21-9.27C6.36,16.52,4,27.2,6.48,37.55c1.66,6.87,3.77,9.16,5.31,10.84a6.75,6.75,0,0,1,2.31,5.5h-.57a6.22,6.22,0,0,0-2.16-5.11C9.78,47.06,7.61,44.7,5.92,37.69,2.89,25.08,7,12,7,11.89ZM18.44,25.58a5.46,5.46,0,0,0,.91-.07c2.07-.35,3.41-1.79,3.2-3.42a4,4,0,0,0-3.61-3.38c-2.62-.44-5.52.7-6.44,2.55a5.91,5.91,0,0,0-.4,1A8.58,8.58,0,0,0,18.44,25.58Z"/><path class="cls-1" d="M12,0h.26V.58a9.49,9.49,0,0,0-9.2,5.5C.74,10.74,1.15,17.55,4,21.26c4.8,6.24,8.42,22.18,8.57,22.86l-.56.13c0-.16-3.75-16.5-8.47-22.63-3-3.94-3.46-10.87-1-15.79A10.15,10.15,0,0,1,12,0Z"/><path class="cls-1" d="M1.31,24l.11,0c.25.1.2.29.08.7-2,7.5-.7,14.5,3.79,19.73C7.65,47.18,8.63,50,8.2,52.68c-.66,4.17-4.38,6.95-5.69,7.81v0l-.33.17-.41-.09.12-.4h0c.84-.51,5-3.29,5.73-7.6C8,50,7.1,47.42,4.86,44.81.24,39.43-1.14,32.24,1,24.55c0-.15.07-.25.08-.3l.14,0L1,24.2C1.11,24,1.22,24,1.31,24Z"/><path class="cls-1" d="M39.76,63.14l.29.5c-5.13,3-8.27,6.81-9.32,11.32-1.68,7.21,2.59,13.8,2.63,13.87l-.48.32c0-.07-4.45-6.87-2.71-14.31C31.26,70.15,34.48,66.22,39.76,63.14Z"/><path class="cls-1" d="M26.75,85.52l.47.32c-.11.16-10.74,16-4,24,2.89,3.4,4,6.21,3.48,8.59-.72,3.13-4.26,5.05-8,6.67-6.7,2.92-6.2,7.3-6.18,7.48l-.57.08c0-.2-.6-5,6.52-8.09,3.4-1.48,7-3.39,7.64-6.27.51-2.18-.59-4.83-3.36-8.08-2.94-3.45-3.18-8.83-.71-15.56A47.77,47.77,0,0,1,26.75,85.52Z"/><path class="cls-1" d="M13.53,85.68h.57a6.75,6.75,0,0,1-2.31,5.5c-1.54,1.68-3.65,4-5.31,10.84-2.49,10.35-.12,21,.77,24.41a22.88,22.88,0,0,1,4.21-9.26c-.49-2.12.52-3.87,2-6.48.67-1.17,1.42-2.49,2.21-4.12,2.24-4.62,1.45-7,.53-9.74a25.76,25.76,0,0,1-.75-2.55c-.92-4.1,3.8-7.81,4-8l.35.45S15.18,90.4,16,94.15a25.38,25.38,0,0,0,.74,2.49c.92,2.75,1.78,5.34-.56,10.17-.8,1.65-1.56,3-2.23,4.15-1.35,2.36-2.24,3.91-2,5.64,2.35-2.57,5.07-3.51,7.5-3.1s3.92,2.11,3.67,4.06A4.5,4.5,0,0,1,19,121.43c-2.54.43-5.88-.52-7.05-2.86a7.06,7.06,0,0,1-.32-.75,23.43,23.43,0,0,0-4.09,9.84l-.22,1.07-.33-1c0-.13-4.12-13.2-1.09-25.8,1.69-7,3.86-9.37,5.44-11.09A6.22,6.22,0,0,0,13.53,85.68ZM17.78,121a7,7,0,0,0,1.15-.1,4,4,0,0,0,3.61-3.38c.21-1.64-1.13-3.08-3.2-3.42-1.87-.32-4.72.31-7.26,3.23a5.92,5.92,0,0,0,.4,1C13.28,119.89,15.51,121,17.78,121Z"/><path class="cls-1" d="M12,95.32l.56.13c-.15.68-3.77,16.62-8.57,22.86C1.15,122,.74,128.83,3.09,133.49a9.49,9.49,0,0,0,9.2,5.5v.57a10.17,10.17,0,0,1-9.73-5.82C.1,128.83.52,121.89,3.55,118,8.28,111.82,12,95.49,12,95.32Z"/><path class="cls-1" d="M1.93,78.73l.27.15.33.17v0c1.33.88,5,3.65,5.69,7.81.43,2.73-.55,5.5-2.91,8.25-4.49,5.23-5.83,12.23-3.79,19.73.11.41.16.6-.08.7-.09,0-.26.06-.41-.19l.11-.06H1s0-.15-.08-.3c-2.1-7.69-.71-14.88,3.9-20.26C7.1,92.15,8,89.53,7.64,87c-.68-4.32-4.89-7.09-5.73-7.6l-.24-.15Zm-.64,36.49.23-.13a.29.29,0,0,0-.31-.06Z"/></g></g></svg>