<svg xmlns="http://www.w3.org/2000/svg" viewBox="0 0 1920 1080"><defs><style>.cls-1{fill:#282828;}.cls-2{fill:#7d91b0;}</style></defs><title>Mega</title><g id="Layer_2" data-name="Layer 2"><g id="Layer_1-2" data-name="Layer 1"><rect class="cls-1" width="1920" height="1080"/><path class="cls-2" d="M279.17,929.6s-7,1.71-7,9.17c0,0-3.28,3.76.41,7l.07.61a9,9,0,0,0-5.75.66A13.35,13.35,0,0,0,261,946l-3.63,8.48s.48,3.31,3.08,3.79l.07.68s-6.71,2-7.94,6.94c0,0,2.05,3.12,6.91,2.43,0,0,9.44,9.31,10.68,6.16l.14-2.27a6.49,6.49,0,0,0,3.7-4.53,15.26,15.26,0,0,0,4.59,1.73l.21.48s-3.08,5.38-2.4,9.64l1,.35s-.89,3.07-.34,4.41c0,0,14.58,2.72,19.85.52a18.75,18.75,0,0,0-6.78-8.22l1.71-.21s-1.57-9.1-4-12.18l-.89.07-.68,1.16-1,.07s1.16-1.16-5.54-2.87l.27-1.82a14.38,14.38,0,0,0,4.86-7.59,10.69,10.69,0,0,0,5.2.72l-.48.93s8.62,3.45,13.55,2.29a5.85,5.85,0,0,0,3.49-2.69l2.12-.66a6.28,6.28,0,0,0,0-5.54l-2-.28a6.93,6.93,0,0,0-2-1.85c-1.37-.88-5.13-2.59-13.48,1.38H290s2.94-4.45,3.15-7.6a9.12,9.12,0,0,0-2.4-6.78v-1.71S285.74,925.77,279.17,929.6Z"/><path class="cls-2" d="M397.72,929.6s-7,1.71-7,9.17c0,0-3.28,3.76.41,7l.07.61a9,9,0,0,0-5.75.66,13.35,13.35,0,0,0-5.82-1.06L376,954.48s.48,3.31,3.08,3.79l.07.68s-6.71,2-7.94,6.94c0,0,2.05,3.12,6.91,2.43,0,0,9.44,9.31,10.68,6.16l.14-2.27a6.49,6.49,0,0,0,3.7-4.53,15.26,15.26,0,0,0,4.59,1.73l.21.48s-3.08,5.38-2.4,9.64l1,.35s-.89,3.07-.34,4.41c0,0,14.58,2.72,19.85.52a18.75,18.75,0,0,0-6.78-8.22l1.71-.21s-1.57-9.1-4-12.18l-.89.07-.68,1.16-1,.07s1.16-1.16-5.54-2.87l.27-1.82a14.38,14.38,0,0,0,4.86-7.59,10.69,10.69,0,0,0,5.2.72l-.48.93s8.62,3.45,13.55,2.29a5.85,5.85,0,0,0,3.49-2.69l2.12-.66a6.28,6.28,0,0,0,0-5.54l-2-.28a6.93,6.93,0,0,0-2-1.85c-1.37-.88-5.13-2.59-13.48,1.38h-1.23s2.94-4.45,3.15-7.6a9.12,9.12,0,0,0-2.4-6.78v-1.71S404.29,925.77,397.72,929.6Z"/><path class="cls-2" d="M515.95,929.6s-7,1.71-7,9.17c0,0-3.28,3.76.41,7l.07.61a9,9,0,0,0-5.75.66,13.35,13.35,0,0,0-5.82-1.06l-3.63,8.48s.48,3.31,3.08,3.79l.07.68s-6.71,2-7.94,6.94c0,0,2.05,3.12,6.91,2.43,0,0,9.44,9.31,10.68,6.16l.14-2.27a6.49,6.49,0,0,0,3.7-4.53,15.26,15.26,0,0,0,4.59,1.73l.21.48s-3.08,5.38-2.4,9.64l1,.35s-.89,3.07-.34,4.41c0,0,14.58,2.72,19.85.52a18.75,18.75,0,0,0-6.78-8.22l1.71-.21s-1.57-9.1-4-12.18l-.89.07-.68,1.16-1,.07s1.16-1.16-5.54-2.87l.27-1.82a14.38,14.38,0,0,0,4.86-7.59,10.69,10.69,0,0,0,5.2.72l-.48.93s8.62,3.45,13.55,2.29a5.85,5.85,0,0,0,3.49-2.69l2.12-.66a6.28,6.28,0,0,0,0-5.54l-2-.28a6.93,6.93,0,0,0-2-1.85c-1.37-.88-5.13-2.59-13.48,1.38h-1.23s2.94-4.45,3.15-7.6a9.12,9.12,0,0,0-2.4-6.78v-1.71S522.52,925.77,515.95,929.6Z"/><path class="cls-2" d="M40,929.6s-7,1.71-7,9.17c0,0-3.28,3.76.41,7l.07.61a9,9,0,0,0-5.75.66A13.35,13.35,0,0,0,21.85,946l-3.63,8.48s.48,3.31,3.08,3.79l.07.68s-6.71,2-7.94,6.94c0,0,2.05,3.12,6.91,2.43,0,0,9.44,9.31,10.68,6.16l.14-2.27a6.49,6.49,0,0,0,3.7-4.53,15.26,15.26,0,0,0,4.59,1.73l.21.48s-3.08,5.38-2.4,9.64l1,.35s-.89,3.07-.34,4.41c0,0,14.58,2.72,19.85.52a18.75,18.75,0,0,0-6.78-8.22l1.71-.21s-1.57-9.1-4-12.18l-.89.07-.68,1.16-1,.07s1.16-1.16-5.54-2.87l.27-1.82a14.38,14.38,0,0,0,4.86-7.59,10.69,10.69,0,0,0,5.2.72l-.48.93s8.62,3.45,13.55,2.29a5.85,5.85,0,0,0,3.49-2.69l2.12-.66a6.28,6.28,0,0,0,0-5.54l-2-.28a6.93,6.93,0,0,0-2-1.85c-1.37-.88-5.13-2.59-13.48,1.38H50.87s2.94-4.45,3.15-7.6a9.12,9.12,0,0,0-2.4-6.78v-1.71S46.56,925.77,40,929.6Z"/><path class="cls-2" d="M158.21,929.6s-7,1.71-7,9.17c0,0-3.28,3.76.41,7l.07.61a9,9,0,0,0-5.75.66,13.35,13.35,0,0,0-5.82-1.06l-3.63,8.48s.48,3.31,3.08,3.79l.07.68s-6.71,2-7.94,6.94c0,0,2.05,3.12,6.91,2.43,0,0,9.44,9.31,10.68,6.16l.14-2.27a6.49,6.49,0,0,0,3.7-4.53,15.26,15.26,0,0,0,4.59,1.73l.21.48s-3.08,5.38-2.4,9.64l1,.35s-.89,3.07-.34,4.41c0,0,14.58,2.72,19.85.52a18.75,18.75,0,0,0-6.78-8.22l1.71-.21s-1.57-9.1-4-12.18l-.89.07-.68,1.16-1,.07s1.16-1.16-5.54-2.87l.27-1.82a14.38,14.38,0,0,0,4.86-7.59,10.69,10.69,0,0,0,5.2.72l-.48.93s8.62,3.45,13.55,2.29a5.85,5.85,0,0,0,3.49-2.69l2.12-.66a6.28,6.28,0,0,0,0-5.54l-2-.28a6.93,6.93,0,0,0-2-1.85c-1.37-.88-5.13-2.59-13.48,1.38h-1.23s2.94-4.45,3.15-7.6a9.12,9.12,0,0,0-2.4-6.78v-1.71S164.78,925.77,158.21,929.6Z"/><ellipse class="cls-2" cx="324.38" cy="951.75" rx="5.23" ry="3.89"/><ellipse class="cls-2" cx="343.8" cy="951.75" rx="5.23" ry="3.89"/><ellipse class="cls-2" cx="363.82" cy="951.75" rx="5.23" ry="3.89"/><ellipse class="cls-2" cx="442.76" cy="951.53" rx="5.23" ry="3.89"/><ellipse class="cls-2" cx="462.17" cy="951.53" rx="5.23" ry="3.89"/><ellipse class="cls-2" cx="482.1" cy="951.53" rx="5.23" ry="3.89"/><ellipse class="cls-2" cx="559.85" cy="951.53" rx="5.23" ry="3.89"/><ellipse class="cls-2" cx="579.27" cy="951.53" rx="5.23" ry="3.89"/><ellipse class="cls-2" cx="599.19" cy="951.53" rx="5.23" ry="3.89"/><ellipse class="cls-2" cx="84.36" cy="951.75" rx="5.23" ry="3.89"/><ellipse class="cls-2" cx="104.44" cy="951.53" rx="5.23" ry="3.89"/><ellipse class="cls-2" cx="123.85" cy="951.53" rx="5.23" ry="3.89"/><ellipse class="cls-2" cx="202.63" cy="951.53" rx="5.23" ry="3.89"/><ellipse class="cls-2" cx="222.66" cy="951.53" rx="5.23" ry="3.89"/><ellipse class="cls-2" cx="242.08" cy="951.53" rx="5.23" ry="3.89"/><path class="cls-2" d="M873.49,929.6s-7,1.71-7,9.17c0,0-3.28,3.76.41,7l.07.61a9,9,0,0,0-5.75.66,13.35,13.35,0,0,0-5.82-1.06l-3.63,8.48s.48,3.31,3.08,3.79l.07.68s-6.71,2-7.94,6.94c0,0,2.05,3.12,6.91,2.43,0,0,9.44,9.31,10.68,6.16l.14-2.27a6.49,6.49,0,0,0,3.7-4.53,15.26,15.26,0,0,0,4.59,1.73l.21.48s-3.08,5.38-2.4,9.64l1,.35s-.89,3.07-.34,4.41c0,0,14.58,2.72,19.85.52a18.75,18.75,0,0,0-6.78-8.22l1.71-.21s-1.57-9.1-4-12.18l-.89.07-.68,1.16-1,.07s1.16-1.16-5.54-2.87l.27-1.82a14.38,14.38,0,0,0,4.86-7.59,10.69,10.69,0,0,0,5.2.72l-.48.93s8.62,3.45,13.55,2.29a5.85,5.85,0,0,0,3.49-2.69l2.12-.66a6.28,6.28,0,0,0,0-5.54l-2-.28a6.93,6.93,0,0,0-2-1.85c-1.37-.88-5.13-2.59-13.48,1.38h-1.23s2.94-4.45,3.15-7.6a9.12,9.12,0,0,0-2.4-6.78v-1.71S880.06,925.77,873.49,929.6Z"/><path class="cls-2" d="M992,929.6s-7,1.71-7,9.17c0,0-3.28,3.76.41,7l.07.61a9,9,0,0,0-5.75.66,13.35,13.35,0,0,0-5.82-1.06l-3.63,8.48s.48,3.31,3.08,3.79l.07.68s-6.71,2-7.94,6.94c0,0,2.05,3.12,6.91,2.43,0,0,9.44,9.31,10.68,6.16l.14-2.27a6.49,6.49,0,0,0,3.7-4.53,15.26,15.26,0,0,0,4.59,1.73l.21.48s-3.08,5.38-2.4,9.64l1,.35s-.89,3.07-.34,4.41c0,0,14.58,2.72,19.85.52a18.75,18.75,0,0,0-6.78-8.22l1.71-.21s-1.57-9.1-4-12.18l-.89.07-.68,1.16-1,.07s1.16-1.16-5.54-2.87l.27-1.82a14.38,14.38,0,0,0,4.86-7.59,10.69,10.69,0,0,0,5.2.72l-.48.93s8.62,3.45,13.55,2.29a5.85,5.85,0,0,0,3.49-2.69l2.12-.66a6.28,6.28,0,0,0,0-5.54l-2-.28a6.93,6.93,0,0,0-2-1.85c-1.37-.88-5.13-2.59-13.48,1.38h-1.23s2.94-4.45,3.15-7.6a9.12,9.12,0,0,0-2.4-6.78v-1.71S998.61,925.77,992,929.6Z"/><path class="cls-2" d="M1110.27,929.6s-7,1.71-7,9.17c0,0-3.28,3.76.41,7l.07.61a9,9,0,0,0-5.75.66,13.35,13.35,0,0,0-5.82-1.06l-3.63,8.48s.48,3.31,3.08,3.79l.07.68s-6.71,2-7.94,6.94c0,0,2.05,3.12,6.91,2.43,0,0,9.44,9.31,10.68,6.16l.14-2.27a6.49,6.49,0,0,0,3.7-4.53,15.26,15.26,0,0,0,4.59,1.73l.21.48s-3.08,5.38-2.4,9.64l1,.35s-.89,3.07-.34,4.41c0,0,14.58,2.72,19.85.52a18.75,18.75,0,0,0-6.78-8.22l1.71-.21s-1.57-9.1-4-12.18l-.89.07-.68,1.16-1,.07s1.16-1.16-5.54-2.87l.27-1.82a14.38,14.38,0,0,0,4.86-7.59,10.69,10.69,0,0,0,5.2.72l-.48.93s8.62,3.45,13.55,2.29a5.85,5.85,0,0,0,3.49-2.69l2.12-.66a6.28,6.28,0,0,0,0-5.54l-2-.28a6.93,6.93,0,0,0-2-1.85c-1.37-.88-5.13-2.59-13.48,1.38h-1.23s2.94-4.45,3.15-7.6a9.12,9.12,0,0,0-2.4-6.78v-1.71S1116.84,925.77,1110.27,929.6Z"/><path class="cls-2" d="M634.31,929.6s-7,1.71-7,9.17c0,0-3.28,3.76.41,7l.07.61a9,9,0,0,0-5.75.66,13.35,13.35,0,0,0-5.82-1.06l-3.63,8.48s.48,3.31,3.08,3.79l.07.68s-6.71,2-7.94,6.94c0,0,2.05,3.12,6.91,2.43,0,0,9.44,9.31,10.68,6.16l.14-2.27a6.49,6.49,0,0,0,3.7-4.53,15.26,15.26,0,0,0,4.59,1.73l.21.48s-3.08,5.38-2.4,9.64l1,.35s-.89,3.07-.34,4.41c0,0,14.58,2.72,19.85.52a18.75,18.75,0,0,0-6.78-8.22l1.71-.21s-1.57-9.1-4-12.18l-.89.07-.68,1.16-1,.07s1.16-1.16-5.54-2.87l.27-1.82a14.38,14.38,0,0,0,4.86-7.59,10.69,10.69,0,0,0,5.2.72l-.48.93s8.62,3.45,13.55,2.29a5.85,5.85,0,0,0,3.49-2.69l2.12-.66a6.28,6.28,0,0,0,0-5.54l-2-.28a6.93,6.93,0,0,0-2-1.85c-1.37-.88-5.13-2.59-13.48,1.38h-1.23s2.94-4.45,3.15-7.6a9.12,9.12,0,0,0-2.4-6.78v-1.71S640.88,925.77,634.31,929.6Z"/><path class="cls-2" d="M752.53,929.6s-7,1.71-7,9.17c0,0-3.28,3.76.41,7l.07.61a9,9,0,0,0-5.75.66A13.35,13.35,0,0,0,734.4,946l-3.63,8.48s.48,3.31,3.08,3.79l.07.68s-6.71,2-7.94,6.94c0,0,2.05,3.12,6.91,2.43,0,0,9.44,9.31,10.68,6.16l.14-2.27a6.49,6.49,0,0,0,3.7-4.53,15.26,15.26,0,0,0,4.59,1.73l.21.48s-3.08,5.38-2.4,9.64l1,.35s-.89,3.07-.34,4.41c0,0,14.58,2.72,19.85.52a18.75,18.75,0,0,0-6.78-8.22l1.71-.21s-1.57-9.1-4-12.18l-.89.07-.68,1.16-1,.07s1.16-1.16-5.54-2.87l.27-1.82a14.38,14.38,0,0,0,4.86-7.59,10.69,10.69,0,0,0,5.2.72l-.48.93s8.62,3.45,13.55,2.29a5.85,5.85,0,0,0,3.49-2.69l2.12-.66a6.28,6.28,0,0,0,0-5.54l-2-.28a6.93,6.93,0,0,0-2-1.85c-1.37-.88-5.13-2.59-13.48,1.38h-1.23s2.94-4.45,3.15-7.6a9.12,9.12,0,0,0-2.4-6.78v-1.71S759.1,925.77,752.53,929.6Z"/><ellipse class="cls-2" cx="918.7" cy="951.75" rx="5.23" ry="3.89"/><ellipse class="cls-2" cx="938.12" cy="951.75" rx="5.23" ry="3.89"/><ellipse class="cls-2" cx="958.14" cy="951.75" rx="5.23" ry="3.89"/><ellipse class="cls-2" cx="1037.08" cy="951.53" rx="5.23" ry="3.89"/><ellipse class="cls-2" cx="1056.49" cy="951.53" rx="5.23" ry="3.89"/><ellipse class="cls-2" cx="1076.42" cy="951.53" rx="5.23" ry="3.89"/><ellipse class="cls-2" cx="1154.17" cy="951.53" rx="5.23" ry="3.89"/><ellipse class="cls-2" cx="1173.59" cy="951.53" rx="5.23" ry="3.89"/><ellipse class="cls-2" cx="1193.51" cy="951.53" rx="5.23" ry="3.89"/><ellipse class="cls-2" cx="678.68" cy="951.75" rx="5.23" ry="3.89"/><ellipse class="cls-2" cx="698.76" cy="951.53" rx="5.23" ry="3.89"/><ellipse class="cls-2" cx="718.17" cy="951.53" rx="5.23" ry="3.89"/><ellipse class="cls-2" cx="796.96" cy="951.53" rx="5.23" ry="3.89"/><ellipse class="cls-2" cx="816.98" cy="951.53" rx="5.23" ry="3.89"/><ellipse class="cls-2" cx="836.4" cy="951.53" rx="5.23" ry="3.89"/><path class="cls-2" d="M1467.81,929.6s-7,1.71-7,9.17c0,0-3.28,3.76.41,7l.07.61a9,9,0,0,0-5.75.66,13.35,13.35,0,0,0-5.82-1.06l-3.63,8.48s.48,3.31,3.08,3.79l.07.68s-6.71,2-7.94,6.94c0,0,2.05,3.12,6.91,2.43,0,0,9.44,9.31,10.68,6.16l.14-2.27a6.49,6.49,0,0,0,3.7-4.53,15.26,15.26,0,0,0,4.59,1.73l.21.48s-3.08,5.38-2.4,9.64l1,.35s-.89,3.07-.34,4.41c0,0,14.58,2.72,19.85.52a18.75,18.75,0,0,0-6.78-8.22l1.71-.21s-1.57-9.1-4-12.18l-.89.07-.68,1.16-1,.07s1.16-1.16-5.54-2.87l.27-1.82a14.38,14.38,0,0,0,4.86-7.59,10.69,10.69,0,0,0,5.2.72l-.48.93s8.62,3.45,13.55,2.29a5.85,5.85,0,0,0,3.49-2.69l2.12-.66a6.28,6.28,0,0,0,0-5.54l-2-.28a6.93,6.93,0,0,0-2-1.85c-1.37-.88-5.13-2.59-13.48,1.38h-1.23s2.94-4.45,3.15-7.6a9.12,9.12,0,0,0-2.4-6.78v-1.71S1474.38,925.77,1467.81,929.6Z"/><path class="cls-2" d="M1586.37,929.6s-7,1.71-7,9.17c0,0-3.28,3.76.41,7l.07.61a9,9,0,0,0-5.75.66,13.35,13.35,0,0,0-5.82-1.06l-3.63,8.48s.48,3.31,3.08,3.79l.07.68s-6.71,2-7.94,6.94c0,0,2.05,3.12,6.91,2.43,0,0,9.44,9.31,10.68,6.16l.14-2.27a6.49,6.49,0,0,0,3.7-4.53,15.26,15.26,0,0,0,4.59,1.73l.21.48s-3.08,5.38-2.4,9.64l1,.35s-.89,3.07-.34,4.41c0,0,14.58,2.72,19.85.52a18.75,18.75,0,0,0-6.78-8.22l1.71-.21s-1.57-9.1-4-12.18l-.89.07-.68,1.16-1,.07s1.16-1.16-5.54-2.87l.27-1.82a14.38,14.38,0,0,0,4.86-7.59,10.69,10.69,0,0,0,5.2.72l-.48.93s8.62,3.45,13.55,2.29a5.85,5.85,0,0,0,3.49-2.69l2.12-.66a6.28,6.28,0,0,0,0-5.54l-2-.28a6.93,6.93,0,0,0-2-1.85c-1.37-.88-5.13-2.59-13.48,1.38h-1.23s2.94-4.45,3.15-7.6a9.12,9.12,0,0,0-2.4-6.78v-1.71S1592.94,925.77,1586.37,929.6Z"/><path class="cls-2" d="M1704.59,929.6s-7,1.71-7,9.17c0,0-3.28,3.76.41,7l.07.61a9,9,0,0,0-5.75.66,13.35,13.35,0,0,0-5.82-1.06l-3.63,8.48s.48,3.31,3.08,3.79l.07.68s-6.71,2-7.94,6.94c0,0,2.05,3.12,6.91,2.43,0,0,9.44,9.31,10.68,6.16l.14-2.27a6.49,6.49,0,0,0,3.7-4.53,15.26,15.26,0,0,0,4.59,1.73l.21.48s-3.08,5.38-2.4,9.64l1,.35s-.89,3.07-.34,4.41c0,0,14.58,2.72,19.85.52a18.75,18.75,0,0,0-6.78-8.22l1.71-.21s-1.57-9.1-4-12.18l-.89.07-.68,1.16-1,.07s1.16-1.16-5.54-2.87l.27-1.82a14.38,14.38,0,0,0,4.86-7.59,10.69,10.69,0,0,0,5.2.72l-.48.93s8.62,3.45,13.55,2.29a5.85,5.85,0,0,0,3.49-2.69l2.12-.66a6.28,6.28,0,0,0,0-5.54l-2-.28a6.93,6.93,0,0,0-2-1.85c-1.37-.88-5.13-2.59-13.48,1.38h-1.23s2.94-4.45,3.15-7.6a9.12,9.12,0,0,0-2.4-6.78v-1.71S1711.16,925.77,1704.59,929.6Z"/><path class="cls-2" d="M1228.63,929.6s-7,1.71-7,9.17c0,0-3.28,3.76.41,7l.07.61a9,9,0,0,0-5.75.66,13.35,13.35,0,0,0-5.82-1.06l-3.63,8.48s.48,3.31,3.08,3.79l.07.68s-6.71,2-7.94,6.94c0,0,2.05,3.12,6.91,2.43,0,0,9.44,9.31,10.68,6.16l.14-2.27a6.49,6.49,0,0,0,3.7-4.53,15.26,15.26,0,0,0,4.59,1.73l.21.48s-3.08,5.38-2.4,9.64l1,.35s-.89,3.07-.34,4.41c0,0,14.58,2.72,19.85.52a18.75,18.75,0,0,0-6.78-8.22l1.71-.21s-1.57-9.1-4-12.18l-.89.07-.68,1.16-1,.07s1.16-1.16-5.54-2.87l.27-1.82a14.38,14.38,0,0,0,4.86-7.59,10.69,10.69,0,0,0,5.2.72l-.48.93s8.62,3.45,13.55,2.29a5.85,5.85,0,0,0,3.49-2.69l2.12-.66a6.28,6.28,0,0,0,0-5.54l-2-.28a6.93,6.93,0,0,0-2-1.85c-1.37-.88-5.13-2.59-13.48,1.38h-1.23s2.94-4.45,3.15-7.6a9.12,9.12,0,0,0-2.4-6.78v-1.71S1235.2,925.77,1228.63,929.6Z"/><path class="cls-2" d="M1346.85,929.6s-7,1.71-7,9.17c0,0-3.28,3.76.41,7l.07.61a9,9,0,0,0-5.75.66,13.35,13.35,0,0,0-5.82-1.06l-3.63,8.48s.48,3.31,3.08,3.79l.07.68s-6.71,2-7.94,6.94c0,0,2.05,3.12,6.91,2.43,0,0,9.44,9.31,10.68,6.16l.14-2.27a6.49,6.49,0,0,0,3.7-4.53,15.26,15.26,0,0,0,4.59,1.73l.21.48s-3.08,5.38-2.4,9.64l1,.35s-.89,3.07-.34,4.41c0,0,14.58,2.72,19.85.52a18.75,18.75,0,0,0-6.78-8.22l1.71-.21s-1.57-9.1-4-12.18l-.89.07-.68,1.16-1,.07s1.16-1.16-5.54-2.87l.27-1.82a14.38,14.38,0,0,0,4.86-7.59,10.69,10.69,0,0,0,5.2.72l-.48.93s8.62,3.45,13.55,2.29a5.85,5.85,0,0,0,3.49-2.69l2.12-.66a6.28,6.28,0,0,0,0-5.54l-2-.28a6.93,6.93,0,0,0-2-1.85c-1.37-.88-5.13-2.59-13.48,1.38h-1.23s2.94-4.45,3.15-7.6a9.12,9.12,0,0,0-2.4-6.78v-1.71S1353.42,925.77,1346.85,929.6Z"/><ellipse class="cls-2" cx="1513.02" cy="951.75" rx="5.23" ry="3.89"/><ellipse class="cls-2" cx="1532.44" cy="951.75" rx="5.23" ry="3.89"/><ellipse class="cls-2" cx="1552.46" cy="951.75" rx="5.23" ry="3.89"/><ellipse class="cls-2" cx="1631.4" cy="951.53" rx="5.23" ry="3.89"/><ellipse class="cls-2" cx="1650.82" cy="951.53" rx="5.23" ry="3.89"/><ellipse class="cls-2" cx="1670.74" cy="951.53" rx="5.23" ry="3.89"/><ellipse class="cls-2" cx="1748.49" cy="951.53" rx="5.23" ry="3.89"/><ellipse class="cls-2" cx="1767.91" cy="951.53" rx="5.23" ry="3.89"/><ellipse class="cls-2" cx="1787.83" cy="951.53" rx="5.23" ry="3.89"/><path class="cls-2" d="M1822.53,929.6s-7,1.71-7,9.17c0,0-3.28,3.76.41,7l.07.61a9,9,0,0,0-5.75.66,13.35,13.35,0,0,0-5.82-1.06l-3.63,8.48s.48,3.31,3.08,3.79l.07.68s-6.71,2-7.94,6.94c0,0,2.05,3.12,6.91,2.43,0,0,9.44,9.31,10.68,6.16l.14-2.27a6.49,6.49,0,0,0,3.7-4.53,15.26,15.26,0,0,0,4.59,1.73l.21.48s-3.08,5.38-2.4,9.64l1,.35s-.89,3.07-.34,4.41c0,0,14.58,2.72,19.85.52a18.75,18.75,0,0,0-6.78-8.22l1.71-.21s-1.57-9.1-4-12.18l-.89.07-.68,1.16-1,.07s1.16-1.16-5.54-2.87l.27-1.82a14.38,14.38,0,0,0,4.86-7.59,10.69,10.69,0,0,0,5.2.72l-.48.93s8.62,3.45,13.55,2.29a5.85,5.85,0,0,0,3.49-2.69l2.12-.66a6.28,6.28,0,0,0,0-5.54l-2-.28a6.93,6.93,0,0,0-2-1.85c-1.37-.88-5.13-2.59-13.48,1.38h-1.23s2.94-4.45,3.15-7.6a9.12,9.12,0,0,0-2.4-6.78v-1.71S1829.1,925.77,1822.53,929.6Z"/><ellipse class="cls-2" cx="1866.43" cy="951.53" rx="5.23" ry="3.89"/><ellipse class="cls-2" cx="1885.85" cy="951.53" rx="5.23" ry="3.89"/><ellipse class="cls-2" cx="1905.77" cy="951.53" rx="5.23" ry="3.89"/><ellipse class="cls-2" cx="1273" cy="951.75" rx="5.23" ry="3.89"/><ellipse class="cls-2" cx="1293.08" cy="951.53" rx="5.23" ry="3.89"/><ellipse class="cls-2" cx="1312.49" cy="951.53" rx="5.23" ry="3.89"/><ellipse class="cls-2" cx="1391.28" cy="951.53" rx="5.23" ry="3.89"/><ellipse class="cls-2" cx="1411.3" cy="951.53" rx="5.23" ry="3.89"/><ellipse class="cls-2" cx="1430.72" cy="951.53" rx="5.23" ry="3.89"/></g></g></svg>