<svg xmlns="http://www.w3.org/2000/svg" viewBox="0 0 874.97 874.97"><defs><style>.cls-1{fill:#abadb0;}.cls-2{fill:#140d0f;}.cls-3{fill:#694a9e;}.cls-4{fill:#281d15;}.cls-5{fill:#d1c469;}.cls-6{fill:#81689b;}.cls-7{fill:#c0523c;}.cls-8{fill:#a93e24;}.cls-9{fill:#bf7845;}.cls-10{fill:#429067;}.cls-11{fill:#5a7370;}.cls-12{fill:#add692;}.cls-13{fill:#131313;}.cls-14{fill:#1f3330;}.cls-15{fill:#6faf8a;}.cls-16{fill:#ba9640;}.cls-17{fill:#205c40;}.cls-18{fill:#122f1c;}.cls-19{fill:#356043;}.cls-20{fill:#16311e;}.cls-21{fill:#214e3a;}.cls-22{fill:#b5deca;}.cls-23{fill:#2c4240;}.cls-24{fill:#6d8987;}.cls-25{fill:#26423b;}.cls-26{fill:#1e322f;}.cls-27{fill:#2b4d4a;}.cls-28{fill:#020303;}.cls-29{fill:#040404;}.cls-30{fill:#020202;}.cls-31{fill:#afd792;}.cls-32{fill:#0b0b0b;}.cls-33{fill:#764a2d;}.cls-34{fill:#753217;}.cls-35{fill:#684126;}.cls-36{fill:#831c18;}.cls-37{fill:#3d291b;}.cls-38{fill:#5eaf62;}.cls-39{fill:none;}.cls-40{fill:#912c1e;}.cls-41{fill:#a99759;}.cls-42{fill:#937967;}.cls-43{fill:#fff;}</style></defs><title>Asset 6</title><g id="Layer_2" data-name="Layer 2"><g id="Layer_1-2" data-name="Layer 1"><rect class="cls-1" width="874.97" height="874.97"/><polygon class="cls-2" points="178.64 503.38 180.21 506.58 181.72 507.52 180.21 515.83 175.12 520.17 169.83 526.4 164.54 532.06 161.15 535.08 157.18 536.97 153.6 539.61 151.33 541.5 148.69 548.11 146.8 553.77 146.04 557.74 143.78 561.51 143.97 568.87 143.4 573.4 142.84 576.61 143.4 582.47 144.35 584.54 147.93 589.26 150.58 592.47 150.01 598.13 150.76 608.52 151.71 619.28 152.46 627.02 153.6 638.15 152.65 644.57 150.95 654.2 148.69 670.25 146.61 678.74 144.91 688.37 144.35 695.35 139.63 702.72 136.98 708.57 132.26 720.27 131.13 724.8 131.51 735.94 131.89 748.97 131.89 758.03 131.51 769.73 131.13 778.42 129.62 791.25 129.24 802.96 129.06 809.19 128.87 812.4 131.32 819.76 132.45 826.74 141.33 830.52 149.82 834.67 159.07 835.43 167 835.62 174.55 834.67 182.29 829.57 188.14 825.8 188.52 811.45 189.65 799.56 188.52 791.25 186.44 785.4 185.88 772.56 184.93 763.31 183.99 751.61 185.69 737.83 188.9 724.05 190.78 717.44 187.95 704.98 186.63 698.75 191.73 673.64 194.94 658.35 196.07 649.29 196.83 646.08 201.92 636.08 208.15 621.16 212.5 611.16 214.76 606.63 217.03 600.02 220.05 597.38 225.9 591.53 227.6 584.92 230.62 576.42 230.81 564.15 230.81 559.06 228.16 554.72 226.28 552.83 228.35 543.39 229.49 537.16 231 529.99 230.24 519.98 229.67 508.09 229.49 502.24 229.3 498.65 228.6 489.33 178.64 503.38"/><polygon class="cls-3" points="226.29 458.51 212.23 477.6 207.11 484.35 201.23 494.14 196.95 498.23 228.6 489.33 226.29 458.51"/><polygon class="cls-4" points="229.49 537.16 231 529.99 230.24 519.98 229.67 508.09 229.49 502.24 229.3 498.65 228.6 489.33 196.95 498.23 195.07 500.02 186.68 508.7 180.21 515.83 175.12 520.17 169.83 526.4 164.54 532.06 161.15 535.08 157.18 536.97 153.6 539.61 151.33 541.5 148.69 548.11 146.8 553.77 146.04 557.74 143.78 561.51 143.97 568.87 143.4 573.4 142.84 576.61 143.4 582.47 144.35 584.54 147.93 589.26 150.58 592.47 150.01 598.13 150.76 608.52 151.71 619.28 152.46 627.02 153.6 638.15 152.65 644.57 150.95 654.2 148.69 670.25 146.61 678.74 144.91 688.37 144.35 695.35 186.63 698.75 191.73 673.64 194.94 658.35 196.07 649.29 196.83 646.08 201.92 636.08 208.15 621.16 212.5 611.16 214.76 606.63 217.03 600.02 220.05 597.38 225.9 591.53 227.6 584.92 230.62 576.42 230.81 564.15 230.81 559.06 228.16 554.72 226.28 552.83 228.35 543.39 229.49 537.16"/><polygon class="cls-5" points="246.85 288.12 250.57 296.3 261.48 304.09 264.33 310.06 269.53 317.85 273.17 328.76 276.02 341.75 277.32 351.36 274.46 359.93 274.2 365.64 267.97 372.91 268.75 378.11 279.14 378.88 288.23 378.88 291.08 378.37 304.33 367.98 312.9 361.74 317.58 358.37 320.69 347.98 323.03 338.37 324.85 333.95 323.03 330.32 321.47 322.27 317.84 309.54 320.26 301.79 318.96 298.73 316.89 287.97 314.06 286.27 314.43 268.15 314.43 252.11 316.13 248.52 317.08 243.8 319.91 242.29 322.93 242.29 324.63 236.81 327.94 234.85 228.01 262.96 229.67 265.32 230.05 275.14 242.03 282.76 246.85 288.12"/><polygon class="cls-6" points="226.29 458.51 212.23 477.6 225.29 424.01 219.26 416.64 225.29 387.84 234.66 387.17 238.01 374.11 246.05 342.3 252.13 318.37 257.58 322.53 261.22 330.84 263.56 340.97 266.41 353.17 267.71 358.11 267.71 363.3 267.97 372.91 274.2 365.64 274.46 359.93 277.32 351.36 276.02 341.75 273.17 328.76 269.53 317.85 264.33 310.06 261.48 304.09 250.57 296.3 246.85 288.12 242.03 282.76 230.05 275.14 226.84 275.89 225.52 279.1 221.75 287.6 217.59 294.58 214 300.81 208.15 307.98 201.55 310.63 196.26 312.7 194 314.21 192.86 318.56 190.6 324.22 188.71 329.32 185.88 335.73 183.61 342.91 183.23 352.35 182.29 360.84 181.53 368.39 180.97 372.73 184.56 377.26 188.71 382.36 190.6 385 190.22 396.52 189.28 407.66 187.95 419.74 186.63 431.25 184.93 445.6 183.8 455.99 182.48 461.65 179.46 475.24 177.19 487.13 175.49 492.04 174.74 495.44 178.64 503.38 228.6 489.33 226.29 458.51"/><polygon class="cls-4" points="326.87 503.95 315.96 510.46 307.15 515.24 299.5 517.16 290.65 518.47 284.04 524.7 278.57 529.8 273.47 533.2 268.75 535.46 266.3 544.14 264.03 551.13 268.37 563.02 272.34 571.52 277.25 582.28 281.21 589.45 282.53 595.11 284.8 603.42 284.42 612.29 284.99 627.96 285.17 638.53 285.36 651.75 287.82 654.2 287.44 658.16 281.4 662.13 280.83 671.19 281.21 680.06 281.02 683.46 283.1 685.54 290.52 691.47 294.88 692.5 304.88 693.19 317.05 694.34 326.57 678.73 322.71 668.14 314.4 657.8 314.85 648.59 316.42 635.56 317.99 619.16 319.15 601.72 323.31 578.88 326.7 562.27 330.48 549.24 337.09 534.52 342.56 523.38 355.02 497.33 354.83 488.27 355.59 478.07 356.15 470.14 355.96 465.8 351.25 475.24 345.96 483.17 341.24 489.78 338.03 494.68 333.79 500.03 326.87 503.95"/><path class="cls-7" d="M228.54,176l4.92,1.06,5.45.66,5.72.13,4.92.13,5.85.53,6.12.13,6.38-.13,7.45.13,5.54,0,2.57.3,4.25.66,5.72.93,5.72,1.2,4.79,1.2,4.65-.53,6.91-.53,4.52-.66,4.39.53,4.92.8,5.45,1.33,5.32.93h5.19l9.3-2.08L353,178.19l-5.94-11.33L341,157.55l-9.7,1.2-12.63.93-12.63.4-9.71-.27-10-1.73-11.3-1.86-14.09-2-26.36-4-3,5.89-4,5.4-3.24,5.94-3,4.59L220,175l4,.67Zm98.38-.48h8.54l6.47-1,3.1-.26-.26,2.59-3.1,1-6.47.26h-4.91l-5.17,1.81Z"/><polygon class="cls-8" points="235.35 96.43 238.05 105.07 240.48 120.45 240.21 130.97 238.86 140.15 235.9 147.7 234.62 150.18 260.98 154.22 275.07 156.22 286.37 158.08 296.35 159.81 306.05 160.07 318.68 159.67 331.31 158.74 341.01 157.55 340.05 156.07 334.65 147.43 331.15 141.5 327.1 136.64 324.13 132.32 318.74 124.77 316.04 122.61 318.74 118.83 321.43 111.55 323.12 103.35 322.55 95.99 321.8 91.27 320.48 87.11 317.83 83.34 313.87 79.94 308.77 76.92 307.83 71.82 305.56 67.67 301.98 63.9 296.12 58.42 290.65 54.65 284.04 52.38 277.62 50.49 271.58 50.49 265.73 50.87 256.67 54.65 249.5 58.8 244.21 63.52 239.11 70.69 237.41 77.11 233.26 80.32 231 83.34 228.92 86.17 232.12 89.69 235.35 96.43"/><polygon class="cls-9" points="318.74 118.83 316.04 122.61 318.74 124.77 324.13 132.32 327.1 136.64 329.26 127.62 332.94 118.18 337.13 111.36 342.38 106.51 349.59 100.74 357.19 97.2 365.19 94.84 353.13 99.95 348.15 103.63 344.08 107.43 340.8 113.07 337.52 120.41 335.03 126.57 333.07 132.87 331.23 140.34 327.1 136.64 331.15 141.5 334.65 147.43 340.05 156.07 341.01 157.55 341.02 157.55 347.07 166.86 353 178.19 355.38 182.54 357.59 188.18 355.7 191.42 354.59 197.02 359.15 195.75 364.73 194.36 368.15 193.22 373.98 192.84 385.51 190.18 394.13 188.66 399.2 188.15 404.64 188.15 410.14 189.24 413.35 183.96 414.3 180.94 412.22 179.81 412.79 176.97 415.43 176.97 420.72 173.2 423.74 170.74 425.44 158.85 425.06 148.09 423.17 138.27 420.15 131.1 425.25 119.21 415.05 119.21 411.28 113.36 405.61 106.75 399.76 101.65 392.59 97.88 383.53 94.29 374.46 92.21 371.07 91.65 366.16 83.72 362.76 79.75 358.61 76.36 353.32 75.41 345.77 77.86 339.16 82.21 335.2 88.06 331.8 93.53 329.35 98.63 323.12 103.35 321.43 111.55 318.74 118.83"/><polygon class="cls-9" points="201.84 204 200.5 198.37 199.97 194.08 194.83 189.54 200.3 180.61 202.97 180.89 218.09 180.35 219.97 174.96 221.32 171.99 224.29 167.4 227.53 161.47 231.58 156.07 234.12 150.1 234.62 150.18 235.9 147.7 238.86 140.15 240.21 130.97 240.48 120.45 238.05 105.07 235.35 96.43 232.12 89.69 228.92 86.17 224.01 80.13 217.59 74.09 211.74 68.99 205.51 65.03 200.41 62.57 196.26 60.12 193.24 50.3 191.54 43.51 190.41 39.35 187.95 39.73 183.23 45.02 178.7 50.3 176.44 52.76 166.43 53.13 156.05 52.95 147.93 53.89 139.06 56.72 131.89 59.93 125.47 62.95 120.56 66.92 115.09 72.39 106.4 70.31 98.66 69.56 92.62 70.5 87.9 74.09 86.01 78.62 86.2 82.96 87.34 88.63 89.98 95.61 91.68 100.33 93.19 104.67 91.49 110.71 90.17 117.7 89.41 125.63 88.85 128.84 88.85 135.82 89.6 141.48 89.79 146.77 91.3 153.19 95.83 157.15 101.68 162.44 102.25 165.84 104.7 169.99 107.35 174.33 111.69 178.86 115.65 181.88 118.67 183.58 119.62 192.83 120.94 203.02 122.07 211.33 123.58 216.43 127.55 222.09 130.38 225.87 131.32 231.91 130.94 237.76 131.13 242.1 129.62 247.39 129.24 250.22 131.89 251.16 131.89 253.99 130.57 258.52 129.62 262.87 129.24 266.08 136.46 264.87 139.2 265.24 143.76 269.43 146.13 271.62 153.43 273.45 160.72 276.18 163.79 277.78 164.73 271.74 165.87 265.13 170.21 262.87 171.15 257.2 172.47 252.48 176.82 246.44 180.97 242.48 184.93 237.95 187.95 233.42 190.41 229.64 192.48 224.92 195.13 220.01 200.24 209.09 201.84 204"/><polygon class="cls-10" points="153.43 273.45 146.13 271.62 143.76 269.43 139.2 265.24 136.46 264.87 129.24 266.08 126.03 266.26 119.81 270.42 115.28 274.19 112.25 276.65 109.61 280.61 107.53 283.06 105.65 283.63 103 288.54 99.42 299.87 97.53 310.82 96.96 317.05 97.34 321.58 99.61 324.79 99.42 328.37 101.12 331.58 102.25 334.22 102.06 337.62 101.31 346.68 100.17 353.29 96.21 356.31 94.7 358.39 93.19 366.32 91.3 379.53 90.36 390.1 89.79 396.33 93 399.54 92.62 400.86 90.36 400.49 89.41 407.09 92.06 409.55 88.47 409.74 87.9 417.1 91.11 418.99 86.96 419.17 86.39 425.59 89.22 428.05 85.07 427.67 82.43 446.36 80.54 459.38 80.54 462.4 82.99 470.33 84.31 474.67 83.56 483.74 82.43 492.99 81.48 498.46 99.42 501.86 113.2 504.5 121.31 505.44 128.11 505.63 130.19 496.01 132.26 487.7 133.4 482.6 138.12 476.94 142.08 471.46 145.1 457.12 147.56 445.04 149.25 439.56 145.1 437.86 149.07 436.54 149.82 430.12 146.8 428.61 150.95 427.67 151.52 421.06 148.88 418.8 152.09 418.8 153.22 411.62 150.2 409.55 153.97 409.74 156.62 402 159.07 389.72 162.28 376.32 164.54 365.18 166.06 358.58 167.57 350.65 172.85 344.8 176.44 339.51 180.21 331.01 181.91 321.58 181.72 310.82 180.03 303.26 177.38 295.9 175.49 292.69 176.25 288.54 174.17 286.84 171.53 280.42 170.21 277.21 166.81 279.86 163.79 277.78 160.72 276.18 153.43 273.45"/><polygon class="cls-11" points="265.31 120.18 256.4 119.1 249.66 118.29 243.99 115.59 240.48 120.45 240.48 123.69 246.69 125.85 260.45 127.73 268.27 128 265.31 120.18"/><polygon class="cls-11" points="308.48 105.61 304.7 113.7 298.77 116.94 283.12 119.91 280.42 126.12 279.88 128.54 289.86 128 297.42 126.39 307.13 122.88 310.91 116.4 313.07 108.31 308.48 105.61"/><polygon class="cls-11" points="268.64 100.04 270.43 118.02 275.02 117.48 278.53 118.02 280.09 99.81 273.58 98.69 268.64 100.04"/><polygon class="cls-12" points="274.03 72.42 262.13 75.11 251.12 77.58 244.83 79.15 245.96 90.61 251.79 90.61 256.74 91.06 260.78 92.63 264.6 95.1 268.64 100.04 273.58 98.69 280.09 99.81 285.48 93.53 289.07 91.28 293.34 89.71 298.28 89.71 301.65 90.16 302.32 78.7 274.03 72.42"/><polygon class="cls-13" points="136.46 249.37 131.89 251.16 131.89 253.99 130.57 258.52 129.62 262.87 129.24 266.08 136.46 264.87 139.2 265.24 143.76 269.43 146.13 271.62 153.43 273.45 160.72 276.18 163.79 277.78 164.73 271.74 165.87 265.13 159.26 262.87 151.06 259.4 145.77 255.94 141.02 252.84 136.46 249.37"/><polygon class="cls-13" points="200.3 180.61 194.83 189.54 192.46 187.54 185.89 183.34 178.78 179.69 170.94 178.24 162.91 176.78 155.8 175.13 148.5 174.77 138.29 174.77 130.08 174.95 125.52 174.95 118.59 179.51 118.67 183.58 115.65 181.88 111.69 178.86 107.35 174.33 107.28 169.3 113.3 164.74 120.23 163.46 134.28 162.37 143.94 162.91 154.34 164.92 163.28 166.56 167.84 168.02 179.69 172.58 183.89 174.22 192.64 177.51 198.48 179.69 200.3 180.61"/><polygon class="cls-13" points="177.69 144.67 165.1 141.76 148.5 138.66 134.09 138.11 129.9 137.93 120.41 138.66 109.47 140.3 104.73 143.4 100.9 147.96 102.9 156.9 108.19 152.52 114.58 150.88 123.88 150.15 132.63 150.51 141.39 151.42 146.5 151.79 155.43 152.88 164.74 155.07 171.12 156.71 184.62 159.81 177.69 144.67"/><polygon class="cls-14" points="89.79 396.33 98.72 395.4 108.14 395.88 111.6 398.48 112.66 399.44 121.12 400.69 130.64 402.23 138.24 404.25 147.18 406.36 152.18 408.48 150.2 409.55 142.28 407.8 131.41 405.21 121.51 403.28 111.5 401.55 101.41 400.4 92.62 400.86 93 399.54 89.79 396.33"/><polygon class="cls-14" points="89.41 407.09 95.73 406.94 103.72 407.8 113.04 408.77 121.89 410.11 131.22 412.04 139.87 414.06 147.95 416.46 152.09 418.8 148.88 418.8 141.51 417.52 132.37 415.4 121.03 413.48 114.2 412.23 106.98 411.36 99.87 410.11 94.77 409.63 92.06 409.55 89.41 407.09"/><polygon class="cls-14" points="87.9 417.1 92.27 416.36 99.29 416.84 106.6 417.81 114.01 419.06 120.55 419.82 129.01 421.56 138.43 423.29 144.59 425.21 150.95 427.67 146.8 428.61 138.05 426.65 127.37 424.44 119.87 422.9 111.89 421.65 105.35 420.59 98.14 419.44 91.11 418.99 87.9 417.1"/><polygon class="cls-14" points="86.39 425.59 93.62 425.69 103.14 426.85 113.04 428.48 121.51 430.02 131.12 431.85 139.2 433.58 144.59 435.12 149.07 436.54 145.1 437.86 133.72 435.12 124.58 433.48 117.95 432.42 109.87 431.08 101.89 429.63 95.25 428.77 89.22 428.05 86.39 425.59"/><polygon class="cls-15" points="130.86 322.57 112.02 339.41 104.76 340.98 102.06 337.62 101.31 346.68 100.17 353.29 96.21 356.31 94.7 358.39 93.19 366.32 91.3 379.53 90.36 390.1 89.79 396.33 98.72 395.4 108.14 395.88 112.66 399.44 130.86 322.57"/><polygon class="cls-16" points="136.92 319.99 125.55 384.27 140.28 322.46 136.92 319.99"/><polygon class="cls-16" points="127.74 333.69 124.82 336.46 117.39 391.26 127.74 333.69"/><polygon class="cls-16" points="161.85 330.04 165.05 329.02 152.37 385.43 161.85 330.04"/><polygon class="cls-17" points="143.05 278.14 140.1 305.64 146.39 316.04 134.6 370.05 142.07 384.38 152.67 374.17 162.49 319.77 170.74 316.44 176.25 288.54 161.11 281.88 150.9 279.32 143.05 278.14"/><polygon class="cls-18" points="153.06 280.3 149.33 304.06 156.01 313.3 166.22 309.37 172.11 286.59 162.69 282.07 153.06 280.3"/><polygon class="cls-19" points="112.61 281.29 107.53 283.06 105.65 283.63 103 288.54 99.42 299.87 97.53 310.82 96.96 317.05 97.34 321.58 99.61 324.79 99.42 328.37 101.12 331.58 102.25 334.22 106.52 331.95 111.63 323.9 117.52 310.35 119.68 297.39 116.73 283.64 112.61 281.29"/><polygon class="cls-20" points="112.41 283.05 110.06 283.45 108.88 293.26 108.09 305.83 106.72 313.88 104.95 319.19 103.77 324.68 105.15 327.83 108.49 324.29 109.27 318.99 112.61 312.51 113 303.87 113.59 293.85 113.98 286.19 113.79 283.64 112.41 283.05"/><polygon class="cls-21" points="123.61 272.65 115.95 276.38 116.73 283.64 119.68 297.39 117.52 310.35 111.63 323.9 106.52 331.95 102.25 334.22 104.76 340.98 112.02 339.41 123.02 329.79 132.25 318.01 136.18 305.64 136.37 295.62 132.84 284.04 127.53 276.18 123.61 272.65"/><polygon class="cls-22" points="89.22 428.05 86.67 443.23 84.17 458.59 83.63 462.33 87.2 474.47 85.78 485.9 84.53 499.11 90.95 500.36 92.38 479.12 94.17 466.8 91.49 462.16 96.13 447.52 99.63 436.65 101.89 429.63 89.22 428.05"/><polygon class="cls-23" points="101.89 429.63 96.13 447.52 91.49 462.16 94.17 466.8 92.38 479.12 90.95 500.36 94.7 501.25 97.56 485.72 97.56 472.51 97.38 465.44 101.13 453.23 103.27 438.95 103.63 429.84 101.89 429.63"/><polygon class="cls-24" points="103.63 429.84 103.27 438.95 101.13 453.23 97.38 465.44 97.56 472.51 97.56 485.72 94.7 501.25 97.56 501.43 100.06 483.94 101.13 473.05 100.59 464.48 103.63 454.3 105.06 447.7 106.66 436.45 107.59 430.67 103.63 429.84"/><polygon class="cls-25" points="124.58 432.8 119.87 432.74 118.8 446.84 119.52 459.69 119.34 467.37 118.09 475.58 115.59 478.8 112.02 486.12 109.16 495.04 107.2 502.67 110.32 503.27 113.8 493.44 117.73 483.97 120.75 474.33 124.58 468 124.58 455.59 124.16 444.52 124.87 438.63 124.58 432.8"/><polygon class="cls-26" points="112.28 431.48 107.59 430.67 106.66 436.45 105.06 447.7 103.63 454.3 100.59 464.48 101.13 473.05 100.06 483.94 97.56 501.43 100.59 502.14 104.7 477.51 105.77 470.19 105.59 462.69 107.56 456.26 110.05 444.3 112.28 431.48"/><polygon class="cls-27" points="142.5 437.24 138.44 455.37 135.76 467.33 130.41 474.65 126.48 481.26 124.16 489.65 122.37 501.79 121.31 505.44 128.11 505.63 130.19 496.01 132.26 487.7 133.4 482.6 138.12 476.94 142.08 471.46 145.1 457.12 147.56 445.04 149.25 439.56 145.1 437.86 142.5 437.24"/><polygon class="cls-22" points="119.92 432.74 118.8 447.52 119.52 460.37 119.34 468.05 118.09 476.26 116.88 467.55 117.03 456.14 116.58 449.45 117.34 440.62 117.95 432.42 119.92 432.74"/><polygon class="cls-28" points="250.57 296.3 255.25 306.43 252.13 318.37 257.58 322.53 261.22 330.84 263.56 340.97 266.41 353.17 267.71 358.11 267.71 363.3 267.97 372.91 274.2 365.64 274.46 359.93 277.32 351.36 276.02 341.75 273.17 328.76 269.53 317.85 264.33 310.06 261.48 304.09 250.57 296.3"/><polygon class="cls-29" points="317.84 309.54 316.28 315.77 315.24 327.2 313.94 331.62 310.82 340.97 306.67 349.02 303.29 357.85 298.62 362.26 291.86 368.5 287.19 370.83 276.28 375.51 268.75 378.11 279.14 378.88 288.23 378.88 291.08 378.37 304.33 367.98 312.9 361.74 317.58 358.37 320.69 347.98 323.03 338.37 324.85 333.95 323.03 330.32 321.47 322.27 317.84 309.54"/><polygon class="cls-30" points="287.82 654.2 287.44 658.16 286.11 665.55 285.66 670.84 291.41 670.99 296.25 670.69 298.82 669.78 294.28 664.18 290.8 660.1 287.82 654.2"/><polygon class="cls-30" points="415.16 169.65 409.33 168 402.74 167.87 394.13 167.87 389.44 173.58 385.38 179.53 398.56 178.52 407.56 178.39 412.22 179.81 412.79 176.97 415.16 169.65"/><polygon class="cls-31" points="227.86 164.69 244.67 168.57 256.57 169.86 268.21 170.63 274.67 171.93 280.88 178.65 274.16 175.55 269.5 174.26 262.52 174.77 252.43 174.77 244.15 172.45 235.36 169.86 229.67 168.57 227.86 164.69"/><polygon class="cls-32" points="129.1 77.25 138.28 68.3 152.18 60.3 145.49 65.22 141.34 68.22 137.18 72.1 133.1 76.19 130.17 79.19 129.1 77.25"/><polygon class="cls-32" points="129.9 137.93 122.5 132.61 119.68 119.18 120.86 104.58 124.15 92.09 128.16 82.91 124.62 84.32 121.56 90.44 119.44 96.57 117.56 108.35 118.03 116.83 119.44 128.6 122.27 136.38 122.97 138.5 129.9 137.93"/><polygon class="cls-33" points="93.19 104.67 91.68 100.33 89.98 95.61 87.34 88.63 86.2 82.96 86.01 78.62 87.9 74.09 92.62 70.5 98.66 69.56 106.4 70.31 113.94 73.35 118.86 75.24 123.78 77.7 129.07 81.11 126.23 84.51 120.56 84.32 114.51 86.02 108.64 87.92 103.35 90.37 98.24 94.72 95.59 98.51 93.19 104.67"/><polygon class="cls-34" points="152.18 60.3 138.28 68.3 129.1 77.25 125.7 75.36 133.26 67.52 139.25 63.24 145.95 58.53 153.08 55.82 159.5 54.68 168.06 54.4 176.18 54.4 185.17 56.39 188.02 58.96 182.89 57.96 176.47 56.82 168.91 56.68 160.5 57.67 152.18 60.3"/><polygon class="cls-34" points="124.62 84.32 121.56 90.44 119.44 96.57 117.56 108.35 118.03 116.83 119.44 128.6 122.27 136.38 122.97 138.5 120.41 138.66 109.47 140.3 104.73 143.4 100.9 147.96 102.9 156.9 101.31 158.36 101.68 162.44 95.83 157.15 91.3 153.19 89.79 146.77 89.6 141.48 98.32 136.25 115 132.97 113.29 124.85 112.86 115.43 113.58 107.59 115.43 97.18 117.28 91.76 120.56 84.32 124.62 84.32"/><polygon class="cls-34" points="122.5 132.61 136.97 132.83 146.81 133.83 156.36 135.4 167.34 137.25 176.47 139.39 180.46 140.82 185.31 152.51 188.45 160.36 191.3 166.78 200 170.06 207.99 172.91 213.69 175.05 216.54 179.61 213.41 179.9 208.7 176.62 204.56 174.19 195.72 171.05 190.45 168.63 185.6 160.93 184.62 159.81 177.69 144.67 165.1 141.76 148.5 138.66 134.09 138.11 129.9 137.93 122.5 132.61"/><polygon class="cls-34" points="394.13 167.87 396.13 165.59 399.96 164.55 407.37 164.4 414.53 164.47 418.36 164.4 422.5 165.99 423.62 166.63 423.85 169.25 423.74 170.74 420.72 173.2 415.43 176.97 412.79 176.97 415.16 169.65 409.33 168 402.74 167.87 394.13 167.87"/><polygon class="cls-35" points="131.89 758.03 134.28 754.68 150.25 754.36 159.2 754.68 169.42 753.72 183.99 751.61 184.93 763.31 185.88 772.56 186.44 785.4 188.52 791.25 189.65 799.56 188.52 811.45 181.88 817.6 175.17 822.39 170.38 823.99 165.27 824.63 156.64 823.99 150.25 822.71 142.27 819.51 134.6 815.36 129.24 802.96 129.62 791.25 131.13 778.42 131.51 769.73 131.89 758.03"/><polygon class="cls-36" points="188.14 825.8 188.52 811.45 181.88 817.6 175.17 822.39 170.38 823.99 165.27 824.63 156.64 823.99 150.25 822.71 142.27 819.51 134.6 815.36 129.24 802.96 129.06 809.19 128.87 812.4 131.32 819.76 132.45 826.74 141.33 830.52 149.82 834.67 159.07 835.43 167 835.62 174.55 834.67 182.29 829.57 188.14 825.8"/><polygon class="cls-37" points="175.84 643.11 168.57 652.45 160.79 662.31 155.34 672.68 147.82 689.02 144.35 695.35 139.63 702.72 136.98 708.57 132.26 720.27 131.13 724.8 131.51 735.94 131.89 748.97 131.89 758.03 134.28 754.68 150.25 754.36 159.2 754.68 169.42 753.72 183.99 751.61 185.69 737.83 188.9 724.05 190.78 717.44 187.95 704.98 186.63 698.75 182.84 671.64 180.25 657.9 178.43 651.67 175.84 643.11"/><polygon class="cls-38" points="152.4 547.46 149.18 552.43 146.04 557.74 143.78 561.51 143.97 568.87 146.04 576.11 146.96 576.11 148.44 572.97 150.93 564.68 151.85 557.5 152.58 551.51 152.86 548.47 152.4 547.46"/><polygon class="cls-38" points="290.27 548.42 284.92 545.01 279.45 543.68 274.59 545.99 272.16 549.39 271.43 554.62 273.62 560.93 277.63 566.28 282 568.71 288.69 567.13 293.06 563.12 293.18 557.65 292.09 552.3 290.27 548.42"/><polygon class="cls-38" points="190.6 324.22 193.39 325.87 194.98 330.46 194.98 338.24 193.74 344.6 190.74 352.55 187.73 357.32 184.73 360.15 182.29 360.84 183.23 352.35 183.61 342.91 185.88 335.73 188.71 329.32 190.6 324.22"/><polygon class="cls-39" points="331.61 227.38 329.73 233.79 327.94 234.85 335.41 232.75 333.5 227.38 331.61 227.38"/><polygon class="cls-39" points="285.36 460.52 283.29 452.78 279.7 441.64 275.17 427.48 274.04 419.36 271.77 403.88 271.58 394.07 269.13 389.72 267.62 389.35 267.62 396.71 267.43 403.69 264.41 409.74 258.93 420.5 253.08 432.01 248.74 442.39 236.85 469.39 235.34 474.49 232.13 487.7 231.95 488.38 285.01 473.46 285.74 467.5 285.36 460.52"/><polygon class="cls-6" points="378.18 370.24 373.52 371.04 370.5 370.85 370.5 379.72 371.63 386.7 373.52 391.61 373.71 396.33 373.9 404.45 373.9 409.92 376.54 411.25 379 410.49 379.94 404.26 380.88 402 382.77 402 383.9 405.77 383.34 413.89 381.45 420.87 379.94 425.03 379.56 427.29 381.45 428.24 381.07 430.12 382.77 431.25 384.66 430.5 390.32 419.74 392.02 415.4 393.53 405.01 395.04 395.01 397.5 394.44 396.18 390.48 397.87 388.59 395.61 382.55 394.66 378.21 393.91 374.25 391.64 372.36 391.08 366.69 387.11 367.07 383.54 368.59 378.18 370.24"/><polygon class="cls-6" points="384.58 284.61 380.43 286.95 375.23 289.54 373.42 291.36 369.26 290.32 360.69 289.02 356.27 287.47 353.89 282.12 350.49 280.8 350.49 295.9 351.43 306.85 353.13 315.72 355.78 324.41 359.17 330.83 362.76 338.57 364.27 350.27 365.78 360.84 367.1 367.45 372.95 367.26 377.91 367.36 381.75 366.67 387.11 365.18 391.83 364.62 391.08 356.5 389.19 341.59 388.25 335.36 389 318.37 388.81 313.46 390.51 305.15 391.45 297.79 392.4 294.2 391.27 288.92 389.94 282.31 389 274.95 385.41 274.76 385.88 279.15 384.58 284.61"/><polygon class="cls-5" points="329.73 233.79 331.61 227.38 333.5 227.38 336.61 224.09 338.21 219.8 339.02 214.18 342.23 211.77 347.32 205.6 351.88 200.78 354.59 197.02 355.7 191.42 351.92 192.77 345.72 194.66 343.29 196.54 339.24 198.97 336.27 203.02 330.88 206.26 326.29 210.03 319.27 214.08 315.5 216.78 310.91 220.56 305.78 225.15 299.85 226.22 289.86 227.03 279.61 226.22 272.32 223.26 268.27 218.94 264.77 214.89 259.64 211.38 251.01 206.26 241.02 202.21 234.82 197.89 229.42 193.57 224.56 189.8 217.01 188.99 214.31 186.83 203.51 183.32 202.97 180.89 200.3 180.61 194.83 189.54 199.97 194.08 200.5 198.37 201.84 204 200.24 209.09 195.13 220.01 198.15 221.34 199.09 223.98 200.03 228.51 201.36 229.83 204.57 231.15 208.34 233.23 208.72 236.63 210.8 239.46 215.51 242.1 216.84 245.31 217.78 247.01 222.12 247.01 224.39 252.86 225.52 256.82 227.41 262.11 228.01 262.96 327.94 234.85 329.73 233.79"/><polygon class="cls-6" points="335.58 233.23 339.35 239.27 342.56 242.86 345.77 247.57 348.79 251.35 348.6 256.26 348.98 261.17 352.38 262.87 356.79 265.65 362.51 267.21 368.48 268.51 374.71 267.21 379.91 265.65 383.9 260.79 386.17 259.47 386.74 255.5 385.98 249.84 384.85 238.89 388.81 233.98 394.29 224.92 397.03 215.42 335.41 232.75 335.58 233.23"/><polygon class="cls-9" points="397.55 193.34 390.45 193.34 381.58 194.23 375.75 194.74 368.02 196.01 361.18 196.89 355.86 197.53 354.59 197.02 351.88 200.78 347.32 205.6 342.23 211.77 339.02 214.18 338.21 219.8 336.61 224.09 333.5 227.38 335.41 232.75 397.03 215.42 397.5 213.78 399.38 203.78 399.57 196.61 399.83 194.1 397.55 193.34"/><polygon class="cls-6" points="317.84 309.54 321.47 322.27 323.03 330.32 325.76 320.2 328.1 333.59 330.11 342.97 333.79 358.71 338.15 377.46 337.14 389.18 336.81 400.9 336.81 420.33 336.47 430.38 334.13 444.78 331.96 460.25 337.06 458.81 339.92 441.83 342.18 426.54 342.37 418.23 342.75 403.88 343.32 393.12 344.64 377.83 344.26 368.2 342.37 357.44 339.54 348.57 335.2 334.04 332.93 322.9 331.05 311.19 328.97 302.13 318.96 298.73 320.26 301.79 317.84 309.54"/><polygon class="cls-2" points="331.96 460.25 331.78 461.52 332.45 474.58 333.46 486.3 333.79 500.03 338.03 494.68 337.28 482.04 337.09 468.82 336.9 459.76 337.06 458.81 331.96 460.25"/><polygon class="cls-30" points="374.71 267.21 368.48 268.51 362.51 267.21 356.79 265.65 352.38 262.87 352 267.59 352.57 274.38 353.89 282.12 356.27 287.47 360.69 289.02 369.26 290.32 373.42 291.36 375.23 289.54 380.43 286.95 384.58 284.61 385.88 279.15 385.41 274.76 384.09 269.66 384.28 264 383.9 260.79 379.91 265.65 374.71 267.21"/><polygon class="cls-30" points="377.91 367.36 372.95 367.26 373.52 371.04 378.18 370.24 383.54 368.59 387.11 367.07 387.11 365.18 381.75 366.67 377.91 367.36"/><polygon class="cls-30" points="307.15 515.24 315.96 510.46 326.87 503.95 314.81 505.48 307.35 505.67 300.07 501.84 292.91 496.95 292.73 503.18 291.4 509.98 290.46 516.77 290.65 518.47 299.5 517.16 307.15 515.24"/><polygon class="cls-7" points="341.02 157.55 341.01 157.55 347.07 166.86 341.02 157.55"/><polygon class="cls-7" points="355.38 182.54 353 178.19 354.58 182.72 355.38 182.54"/><polygon class="cls-7" points="234.12 150.1 231.58 156.07 234.62 150.18 234.12 150.1"/><polygon class="cls-30" points="399.2 188.15 394.13 188.66 385.51 190.18 373.98 192.84 368.15 193.22 364.73 194.36 359.15 195.75 354.59 197.02 355.86 197.53 361.18 196.89 368.02 196.01 375.75 194.74 381.58 194.23 390.45 193.34 397.55 193.34 399.83 194.1 399.57 196.61 404.29 194.91 408.07 192.64 410.14 189.24 404.64 188.15 399.2 188.15"/><polygon class="cls-31" points="335.2 178.14 341.67 177.88 344.77 176.84 345.03 174.26 341.92 174.51 335.46 175.55 326.92 175.55 325.11 179.95 330.28 178.14 335.2 178.14"/><polygon class="cls-32" points="333.07 132.87 335.03 126.57 337.52 120.41 340.8 113.07 344.08 107.43 348.15 103.63 353.13 99.95 365.19 94.84 357.19 97.2 349.59 100.74 342.38 106.51 337.13 111.36 332.94 118.18 329.26 127.62 327.1 136.64 331.23 140.34 333.07 132.87"/><polygon class="cls-40" points="355.16 184.4 357.59 188.18 355.38 182.54 354.58 182.72 355.16 184.4"/><polygon class="cls-40" points="219.97 174.96 218.09 180.35 220.51 179 219.97 174.96"/><polygon class="cls-40" points="355.16 184.4 354.58 182.72 345.27 184.8 340.09 184.8 334.77 183.87 329.32 182.54 324.4 181.75 320.01 181.21 315.49 181.88 308.58 182.41 303.93 182.94 299.14 181.75 293.42 180.55 287.7 179.62 283.45 178.95 280.88 178.65 275.34 178.69 267.89 178.55 261.51 178.69 255.4 178.55 249.54 178.02 244.63 177.89 238.91 177.76 233.46 177.09 228.54 176.03 224.02 175.63 219.97 174.96 220.51 179 218.09 180.35 202.97 180.89 203.51 183.32 214.31 186.83 217.01 188.99 224.56 189.8 229.42 193.57 234.82 197.89 241.02 202.21 251.01 206.26 259.64 211.38 264.77 214.89 268.27 218.94 272.32 223.26 279.61 226.22 289.86 227.03 299.85 226.22 305.78 225.15 310.91 220.56 315.5 216.78 319.27 214.08 326.29 210.03 330.88 206.26 336.27 203.02 339.24 198.97 343.29 196.54 345.72 194.66 351.92 192.77 355.7 191.42 357.59 188.18 355.16 184.4"/><polygon class="cls-41" points="229.3 498.65 231.95 488.38 228.6 489.33 229.3 498.65"/><polygon class="cls-42" points="307.35 505.67 314.81 505.48 326.87 503.95 333.79 500.03 333.46 486.3 332.45 474.58 331.78 461.52 331.96 460.25 285.01 473.46 284.8 475.24 284.04 480.71 288.19 488.27 292.91 496.95 300.07 501.84 307.35 505.67"/><polygon class="cls-41" points="334.13 444.78 336.47 430.38 336.81 420.33 336.81 400.9 337.14 389.18 338.15 377.46 333.79 358.71 330.11 342.97 328.1 333.59 325.76 320.2 323.03 330.32 324.85 333.95 323.03 338.37 320.69 347.98 317.58 358.37 312.9 361.74 304.33 367.98 291.08 378.37 288.23 378.88 279.14 378.88 268.75 378.11 267.97 372.91 267.71 363.3 267.71 358.11 266.41 353.17 263.56 340.97 261.22 330.84 257.58 322.53 252.13 318.37 246.05 342.3 238.01 374.11 234.66 387.17 225.29 387.84 219.26 416.64 225.29 424.01 212.23 477.6 226.29 458.51 228.6 489.33 231.95 488.38 232.13 487.7 235.34 474.49 236.85 469.39 248.74 442.39 253.08 432.01 258.93 420.5 264.41 409.74 267.43 403.69 267.62 396.71 267.62 389.35 269.13 389.72 271.58 394.07 271.77 403.88 274.04 419.36 275.17 427.48 279.7 441.64 283.29 452.78 285.36 460.52 285.74 467.5 285.01 473.46 331.96 460.25 334.13 444.78"/><polygon class="cls-36" points="365.76 693.77 358.64 694.68 353.36 695.37 343.94 695.72 335.09 695.49 324.64 694.8 317.05 694.34 304.88 693.19 294.88 692.5 290.52 691.47 283.1 685.54 283.1 698.94 289.33 704.79 294.05 704.98 299.33 705.36 303.11 705.17 311.6 703.66 317.27 703.09 321.42 702.53 320.85 698.19 326.52 700.07 334.82 702.72 337.09 704.04 348.6 703.09 358.42 702.34 367.29 701.21 373.9 700.45 378.24 696.49 377.49 688.37 373.12 692.62 365.76 693.77"/><polygon class="cls-35" points="326.57 678.73 317.05 694.34 324.64 694.8 335.09 695.49 343.94 695.72 353.36 695.37 358.64 694.68 365.76 693.77 373.12 692.62 377.49 688.37 376.92 685.54 372.01 678.93 360.31 675.15 351.62 672.7 345.77 669.87 343.51 670.25 343.13 667.04 340.67 664.96 334.07 663.45 329.36 671.45 326.57 678.73"/><polygon class="cls-37" points="316.42 635.56 314.85 648.59 314.4 657.8 322.71 668.14 326.57 678.73 329.36 671.45 334.07 663.45 330.1 657.79 326.89 652.5 327.46 619.84 325.57 613.42 322.17 604.17 321.04 601.34 319.15 601.72 317.99 619.16 316.42 635.56"/><rect class="cls-1" x="79.89" y="253.95" width="329.01" height="11.39" transform="translate(-62.61 78.28) rotate(-16.16)"/><rect class="cls-1" x="79.89" y="477.26" width="329.01" height="11.39" transform="translate(-124.76 87.1) rotate(-16.16)"/><path class="cls-43" d="M480.93,337.35l24.62,65,25.55-65h10.39v74.17h-7.06V347.42h-.21l-25.35,64.09h-6.65l-24.41-64.09h-.21v64.09h-7.06V337.35Z"/><path class="cls-43" d="M559.62,393.8a20.1,20.1,0,0,0,3.17,6.8,18.09,18.09,0,0,0,5.51,5,15.38,15.38,0,0,0,8,2q7.17,0,11.22-3.74a19.67,19.67,0,0,0,5.61-10h6.54Q597.58,403,592,408t-15.74,5a25,25,0,0,1-11-2.23,20.15,20.15,0,0,1-7.53-6.13,26.65,26.65,0,0,1-4.31-9,41.07,41.07,0,0,1-1.4-10.85,38.92,38.92,0,0,1,1.4-10.39,27.91,27.91,0,0,1,4.31-9.09,21.65,21.65,0,0,1,7.53-6.44,23.18,23.18,0,0,1,11-2.44,21.2,21.2,0,0,1,18.44,9.4,28.22,28.22,0,0,1,4.1,9.66,42.41,42.41,0,0,1,1,11.06H558.63A29,29,0,0,0,559.62,393.8Zm32.41-20a19.64,19.64,0,0,0-3.38-6.08,16.75,16.75,0,0,0-5.3-4.26,15.17,15.17,0,0,0-7.06-1.61,15.4,15.4,0,0,0-7.17,1.61,16.75,16.75,0,0,0-5.3,4.26,21.21,21.21,0,0,0-3.48,6.13,30,30,0,0,0-1.71,7.12h34.69A23.7,23.7,0,0,0,592,373.81Z"/><path class="cls-43" d="M630,357.92v5.51H619.09v36.15a11.72,11.72,0,0,0,.88,5q.88,1.82,4.41,2a50.93,50.93,0,0,0,5.61-.31v5.5q-1.46,0-2.91.1t-2.91.1q-6.54,0-9.14-2.54t-2.49-9.4V363.42h-9.35v-5.51h9.35v-16.1h6.54v16.1Z"/><path class="cls-43" d="M645.47,357.92v12.57h.21a20.57,20.57,0,0,1,7.74-10.08,20.26,20.26,0,0,1,12.52-3.22v6.54a19.77,19.77,0,0,0-8.1,1.19,18.24,18.24,0,0,0-6.28,4,18.06,18.06,0,0,0-4.1,6.18,20.66,20.66,0,0,0-1.45,7.84v28.57h-6.54v-53.6Z"/><path class="cls-43" d="M703.8,358.64a23.66,23.66,0,0,1,7.95,6.13,26.54,26.54,0,0,1,4.88,9,37,37,0,0,1,0,21.92,26.54,26.54,0,0,1-4.88,9,23.07,23.07,0,0,1-7.95,6.08,27.5,27.5,0,0,1-21.71,0,23,23,0,0,1-7.95-6.08,26.49,26.49,0,0,1-4.88-9,37,37,0,0,1,0-21.92,26.49,26.49,0,0,1,4.88-9,23.63,23.63,0,0,1,7.95-6.13,26.93,26.93,0,0,1,21.71,0Zm-19.06,5.19a18,18,0,0,0-5.87,5.19,23.55,23.55,0,0,0-3.53,7.32,29.87,29.87,0,0,0,0,16.72,23.51,23.51,0,0,0,3.53,7.32,18,18,0,0,0,5.87,5.19,18,18,0,0,0,16.41,0A18,18,0,0,0,707,400.4a23.54,23.54,0,0,0,3.53-7.32,29.87,29.87,0,0,0,0-16.72A23.58,23.58,0,0,0,707,369a18.05,18.05,0,0,0-5.87-5.19,18,18,0,0,0-16.41,0Z"/><path class="cls-43" d="M734.7,337.35v10.49h-6.54V337.35Zm0,20.57v53.6h-6.54v-53.6Z"/><path class="cls-43" d="M788.41,411.52V401.34h-.21a15.41,15.41,0,0,1-3.06,4.78,19.88,19.88,0,0,1-4.62,3.69,23.9,23.9,0,0,1-5.56,2.34,21.65,21.65,0,0,1-5.87.83,23.78,23.78,0,0,1-10.65-2.23,21.31,21.31,0,0,1-7.53-6.13,26.28,26.28,0,0,1-4.47-9,41.24,41.24,0,0,1,0-21.71,26.28,26.28,0,0,1,4.47-9,21.84,21.84,0,0,1,7.53-6.18,23.33,23.33,0,0,1,10.65-2.29,23.77,23.77,0,0,1,5.87.73,19.73,19.73,0,0,1,5.35,2.23,18.87,18.87,0,0,1,4.41,3.69,15.52,15.52,0,0,1,3,5.09h.21V337.35h6.54v74.17ZM752.52,393a22.78,22.78,0,0,0,3.12,7.32,17.13,17.13,0,0,0,5.45,5.25,15.08,15.08,0,0,0,8,2,17.6,17.6,0,0,0,8.78-2,17.36,17.36,0,0,0,5.82-5.25A21.58,21.58,0,0,0,786.9,393a35,35,0,0,0,0-16.52,21.61,21.61,0,0,0-3.22-7.32,17.38,17.38,0,0,0-5.82-5.25,17.61,17.61,0,0,0-8.78-2,15.09,15.09,0,0,0-8,2,17.15,17.15,0,0,0-5.45,5.25,22.82,22.82,0,0,0-3.12,7.32,35,35,0,0,0,0,16.52Z"/><path class="cls-43" d="M543.47,462a27.51,27.51,0,0,1,9,1.4,19.06,19.06,0,0,1,7,4.16,18.38,18.38,0,0,1,4.47,6.7,26.38,26.38,0,0,1,0,17.87,18.36,18.36,0,0,1-4.47,6.7,19,19,0,0,1-7,4.16,27.51,27.51,0,0,1-9,1.4H517.6v31.79h-7.06V462Zm-1.56,36.36q7.37,0,11.95-3.74t4.57-11.43q0-7.69-4.57-11.43T541.91,468H517.6v30.33Z"/><path class="cls-43" d="M580.76,482.57v12.57H581a20.57,20.57,0,0,1,7.74-10.08,20.26,20.26,0,0,1,12.52-3.22v6.54a19.77,19.77,0,0,0-8.1,1.19,18.24,18.24,0,0,0-6.28,4,18.06,18.06,0,0,0-4.1,6.18,20.66,20.66,0,0,0-1.45,7.84v28.57h-6.54v-53.6Z"/><path class="cls-43" d="M614.1,462v10.49h-6.54V462Zm0,20.57v53.6h-6.54v-53.6Z"/><path class="cls-43" d="M632.69,482.57v9H633a20.51,20.51,0,0,1,6.8-7.79,19,19,0,0,1,10.75-2.8,18.27,18.27,0,0,1,9.61,2.6,12.74,12.74,0,0,1,5.77,7.89,16.44,16.44,0,0,1,7.06-7.89,20.23,20.23,0,0,1,10-2.6q17.76,0,17.76,18.8v36.36h-6.54v-36q0-6.65-2.8-10.13t-9.87-3.48a14,14,0,0,0-7.06,1.61,12.41,12.41,0,0,0-4.47,4.31,18.34,18.34,0,0,0-2.34,6.18,37.76,37.76,0,0,0-.68,7.22v30.33h-6.54V499.81a22.57,22.57,0,0,0-.57-5.14,11.94,11.94,0,0,0-1.87-4.26,8.88,8.88,0,0,0-3.48-2.86,12.27,12.27,0,0,0-5.3-1A16.19,16.19,0,0,0,642,488a13.28,13.28,0,0,0-5,4.15,18.39,18.39,0,0,0-2.86,6.23,31,31,0,0,0-.94,7.84v29.92h-6.54v-53.6Z"/><path class="cls-43" d="M718,518.46a20.1,20.1,0,0,0,3.17,6.8,18.09,18.09,0,0,0,5.51,5,15.38,15.38,0,0,0,8,2q7.17,0,11.22-3.74a19.67,19.67,0,0,0,5.61-10h6.54q-2.08,9.14-7.63,14.13t-15.74,5a25,25,0,0,1-11-2.23,20.15,20.15,0,0,1-7.53-6.13,26.65,26.65,0,0,1-4.31-9,41.07,41.07,0,0,1-1.4-10.85A38.92,38.92,0,0,1,711.9,499a27.91,27.91,0,0,1,4.31-9.09,21.65,21.65,0,0,1,7.53-6.44,23.18,23.18,0,0,1,11-2.44,21.2,21.2,0,0,1,18.44,9.4,28.22,28.22,0,0,1,4.1,9.66,42.41,42.41,0,0,1,1,11.06H717A29,29,0,0,0,718,518.46Zm32.41-20a19.64,19.64,0,0,0-3.38-6.08,16.75,16.75,0,0,0-5.3-4.26,15.17,15.17,0,0,0-7.06-1.61,15.4,15.4,0,0,0-7.17,1.61,16.75,16.75,0,0,0-5.3,4.26,21.21,21.21,0,0,0-3.48,6.13,30,30,0,0,0-1.71,7.12h34.69A23.7,23.7,0,0,0,750.44,498.46Z"/></g></g></svg>