<svg xmlns="http://www.w3.org/2000/svg" viewBox="0 0 340.86 340.86"><defs><style>.cls-1{fill:#cfcfce;}.cls-2{fill:#59728e;}.cls-3{fill:#a5bcce;}.cls-4{fill:#8d5861;}.cls-5{fill:#588c67;}.cls-6{fill:#cca6aa;}.cls-7{fill:#a8ccb2;}.cls-8{fill:#fff;}</style></defs><title>Asset 4</title><g id="Layer_2" data-name="Layer 2"><g id="Layer_1-2" data-name="Layer 1"><rect class="cls-1" width="340.86" height="340.86"/><rect class="cls-2" x="28.16" y="127.96" width="84.95" height="84.95" transform="translate(-99.8 241.07) rotate(-90)"/><rect class="cls-3" x="73.3" y="184.44" width="13.34" height="1.33" transform="translate(-105.13 265.08) rotate(-90)"/><rect class="cls-3" x="38.06" y="135.07" width="6.11" height="6.11" transform="translate(-97.02 179.24) rotate(-90)"/><rect class="cls-3" x="61.85" y="159.87" width="20.46" height="1.56" transform="translate(-88.57 232.73) rotate(-90)"/><rect class="cls-3" x="60.18" y="176.21" width="14.23" height="3.56" transform="translate(-110.69 245.29) rotate(-90)"/><rect class="cls-3" x="46.06" y="169.65" width="2.67" height="14.9" transform="translate(-129.71 224.5) rotate(-90)"/><rect class="cls-3" x="64.8" y="187.83" width="3.67" height="18.68" transform="translate(-130.54 263.8) rotate(-90)"/><rect class="cls-3" x="81.64" y="172.1" width="1.33" height="8.67" transform="translate(-94.13 258.74) rotate(-90)"/><rect class="cls-3" x="76.08" y="166.32" width="5.34" height="3.78" transform="translate(-89.46 246.96) rotate(-90)"/><rect class="cls-3" x="69.3" y="179.99" width="10.23" height="3.11" transform="translate(-107.14 255.97) rotate(-90)"/><rect class="cls-3" x="69.08" y="184" width="1.56" height="14.01" transform="translate(-121.15 260.86) rotate(-90)"/><rect class="cls-3" x="60.27" y="179.99" width="1.33" height="5.34" transform="translate(-121.72 243.6) rotate(-90)"/><rect class="cls-3" x="48.4" y="187.33" width="10.9" height="2" transform="translate(-134.49 242.18) rotate(-90)"/><rect class="cls-3" x="59.02" y="193.61" width="3.34" height="22.79" transform="translate(-144.33 265.69) rotate(-90)"/><rect class="cls-3" x="94.21" y="187.11" width="2.45" height="23.79" transform="translate(-103.58 294.44) rotate(-90)"/><rect class="cls-3" x="81.09" y="185.11" width="10.01" height="5.11" transform="translate(-101.58 273.75) rotate(-90)"/><rect class="cls-3" x="88.98" y="162.76" width="2.67" height="13.56" transform="translate(-79.23 259.86) rotate(-90)"/><rect class="cls-3" x="90.31" y="175.77" width="2.67" height="2.67" transform="translate(-85.45 268.75) rotate(-90)"/><rect class="cls-3" x="77.97" y="200.23" width="3.26" height="7.62"/><rect class="cls-4" x="127.96" y="127.96" width="84.95" height="84.95"/><rect class="cls-5" x="227.76" y="127.96" width="84.95" height="84.95"/><rect class="cls-6" x="134.61" y="173.95" width="10.7" height="4.49"/><rect class="cls-6" x="149.99" y="156.12" width="2.9" height="9.42"/><rect class="cls-6" x="162.48" y="170.88" width="6.02" height="7.56"/><rect class="cls-6" x="149.99" y="169.54" width="5.8" height="4.41"/><rect class="cls-6" x="138.85" y="156.12" width="2.68" height="12.09"/><rect class="cls-6" x="180.31" y="159.46" width="13.15" height="1.19"/><rect class="cls-6" x="165.49" y="156.12" width="6.13" height="7.58"/><rect class="cls-6" x="177.64" y="171.75" width="5.36" height="5.36"/><rect class="cls-6" x="171.62" y="166.17" width="14.15" height="3.37"/><rect class="cls-6" x="157.61" y="159.46" width="2" height="17.64"/><rect class="cls-6" x="151.44" y="181.25" width="7.17" height="3.38"/><rect class="cls-6" x="174.54" y="146.63" width="3.1" height="8.77"/><rect class="cls-6" x="197.62" y="170.43" width="2.77" height="10.81"/><rect class="cls-6" x="189.62" y="174.66" width="2.46" height="17.05"/><rect class="cls-6" x="199" y="162.94" width="10.46" height="4.92"/><rect class="cls-6" x="188.54" y="165.4" width="2.31" height="5.04"/><rect class="cls-6" x="170.43" y="173.95" width="2.57" height="11.3"/><rect class="cls-6" x="141.52" y="182.02" width="6.09" height="3.23"/><rect class="cls-6" x="145.31" y="158.63" width="1.53" height="10.91"/><rect class="cls-6" x="157.61" y="148.01" width="4" height="8.1"/><rect class="cls-6" x="140.18" y="186.67" width="2.2" height="8.67"/><rect class="cls-6" x="149.99" y="186.67" width="2.06" height="4.34"/><rect class="cls-7" x="236.02" y="141.83" width="3.8" height="9.19"/><rect class="cls-7" x="236.02" y="158.63" width="9.04" height="3.53"/><rect class="cls-7" x="245.06" y="152.06" width="4.05" height="4.05"/><rect class="cls-7" x="242.68" y="174.66" width="4.4" height="8.97"/><rect class="cls-7" x="251.48" y="201.28" width="6.66" height="3.57"/><rect class="cls-7" x="282.63" y="200.23" width="6.18" height="4.61"/><rect class="cls-7" x="297.37" y="166.17" width="2.85" height="10.94"/><rect class="cls-7" x="292.86" y="146.63" width="8.8" height="4.39"/><rect class="cls-7" x="273.12" y="135.17" width="2.85" height="8.09"/><rect class="cls-7" x="252.43" y="138.02" width="8.32" height="3.8"/><rect class="cls-7" x="250.29" y="146.42" width="7.85" height="4.59"/><rect class="cls-7" x="282.63" y="139.92" width="3.09" height="11.09"/><rect class="cls-7" x="292.86" y="156.12" width="8.8" height="4.71"/><rect class="cls-7" x="293.81" y="186.67" width="8.8" height="2.17"/><rect class="cls-7" x="268.84" y="199.01" width="4.28" height="10.35"/><rect class="cls-7" x="244.88" y="195.34" width="13.26" height="2.45"/><rect class="cls-7" x="239.83" y="185.25" width="5.06" height="5.06"/><rect class="cls-7" x="237.92" y="166.17" width="7.13" height="4.26"/><rect class="cls-7" x="292.14" y="181.25" width="8.09" height="3.38"/><rect class="cls-7" x="292.86" y="195.34" width="7.37" height="2.45"/><rect class="cls-7" x="263.37" y="139.92" width="2.14" height="11.09"/><rect class="cls-7" x="250.29" y="187.67" width="6.3" height="2.64"/><rect class="cls-8" x="71.22" y="82.71" width="201.69" height="8.08"/><rect class="cls-8" x="72.86" y="250.07" width="201.69" height="8.08"/></g></g></svg>