<svg xmlns="http://www.w3.org/2000/svg" viewBox="0 0 985.91 613.53"><defs><style>.cls-1{fill:#aa9260;}.cls-2{fill:#4c4b4c;}</style></defs><title>about</title><g id="Layer_2" data-name="Layer 2"><g id="Layer_1-2" data-name="Layer 1"><polygon class="cls-1" points="547.73 562.79 492.95 508.02 438.18 562.79 383.41 508.02 331 560.43 0 560.43 0 549.01 326.27 549.01 383.41 491.88 438.18 546.65 492.95 491.88 547.73 546.65 602.5 491.88 659.64 549.01 985.91 549.01 985.91 560.43 654.91 560.43 602.5 508.02 547.73 562.79"/><rect class="cls-1" x="459.86" y="543.38" width="11.41" height="77.46" transform="translate(-275.25 499.7) rotate(-45)"/><rect class="cls-1" x="555.71" y="549.05" width="11.41" height="38.73" transform="translate(-237.49 563.45) rotate(-45)"/><path class="cls-1" d="M553.43,499.95H542a49.07,49.07,0,1,0-98.13,0H432.48a60.48,60.48,0,1,1,121,0Z"/><polygon class="cls-1" points="383.64 522.79 351.13 554.72 416.16 554.72 383.64 522.79"/><polygon class="cls-1" points="492.95 522.79 460.44 554.72 525.47 554.72 492.95 522.79"/><polygon class="cls-1" points="602.96 522.79 570.45 554.72 635.48 554.72 602.96 522.79"/><path class="cls-2" d="M50.92,291.09,37,363.61H0L68.92,3.6H127l68.92,360H155.83l-13.89-72.52Zm5.14-34.46h80.23L95.66,48.86Z"/><path class="cls-2" d="M308.07,3.6c56.06,0,78.17,26.74,78.17,79.72v17c0,38.06-10.8,61.72-42.17,71.49,35,9.77,48.34,37.54,48.34,77.14v30.34c0,54-26.23,84.35-82.29,84.35h-82.8V3.6Zm-9.77,152.75c31.89,0,48.34-10.29,48.34-47.83V87.43c0-31.89-10.8-47.32-39.6-47.32h-39.6V156.35ZM310.12,327.1c29.32,0,42.69-15.43,42.69-48.86V246.35c0-40.12-15.94-53.49-50.4-53.49h-35V327.1Z"/><path class="cls-2" d="M425.84,90.52c0-55,27.26-90.52,82.29-90.52,55.54,0,82.8,35.49,82.8,90.52V276.69c0,54.52-27.26,90.52-82.8,90.52-55,0-82.29-36-82.29-90.52Zm39.6,188.23c0,32.92,13.89,51.94,42.69,51.94,29.32,0,42.69-19,42.69-51.94V88.46c0-32.4-13.37-51.95-42.69-51.95-28.8,0-42.69,19.54-42.69,51.95Z"/><path class="cls-2" d="M667,278.75c0,32.4,12.86,51.94,42.17,51.94,28.8,0,41.66-19.54,41.66-51.94V3.6h37.54V276.69c0,54.52-25.2,91-80.75,91-55,0-80.23-36.52-80.23-91V3.6H667Z"/><path class="cls-2" d="M880,363.61V40.12H813.62V3.6H985.91V40.12H919.56v323.5Z"/></g></g></svg>