<svg xmlns="http://www.w3.org/2000/svg" viewBox="0 0 289.02 289.02"><defs><style>.cls-1{opacity:0.25;}.cls-2,.cls-3,.cls-4,.cls-5,.cls-6,.cls-7,.cls-8{fill:#fdfdfd;}.cls-3{opacity:0.4;}.cls-4{opacity:0.5;}.cls-5{opacity:0.6;}.cls-6{opacity:0.7;}.cls-7{opacity:0.8;}.cls-8{opacity:0.9;}</style></defs><title>acceleration_font_square</title><g id="Layer_2" data-name="Layer 2"><g id="Layer_1-2" data-name="Layer 1"><rect width="289.02" height="289.02"/><g class="cls-1"><polygon class="cls-2" points="216.4 19.85 72.63 19.85 36.54 92.02 36.54 269.17 40.46 269.17 40.46 92.95 58.36 57.15 230.66 57.15 248.56 92.95 248.56 269.17 252.49 269.17 252.49 92.02 216.4 19.85"/><polygon class="cls-3" points="167.6 189.11 121.43 189.11 109.84 212.28 109.84 269.17 111.1 269.17 111.1 212.58 116.85 201.08 172.18 201.08 177.93 212.58 177.93 269.17 179.19 269.17 179.19 212.28 167.6 189.11"/><polygon class="cls-4" points="172.83 170.94 116.19 170.94 101.97 199.38 101.97 269.17 103.52 269.17 103.52 199.75 110.57 185.64 178.45 185.64 185.5 199.75 185.5 269.17 187.05 269.17 187.05 199.38 172.83 170.94"/><polygon class="cls-5" points="178.91 149.88 110.12 149.88 92.85 184.41 92.85 269.17 94.73 269.17 94.73 184.86 103.29 167.73 185.73 167.73 194.3 184.86 194.3 269.17 196.18 269.17 196.18 184.41 178.91 149.88"/><polygon class="cls-6" points="186.09 124.96 102.93 124.96 82.06 166.71 82.06 269.17 84.33 269.17 84.33 167.24 94.68 146.53 194.34 146.53 204.7 167.24 204.7 269.17 206.97 269.17 206.97 166.71 186.09 124.96"/><polygon class="cls-7" points="194.56 95.58 94.46 95.58 69.34 145.84 69.34 269.17 72.07 269.17 72.07 146.48 84.53 121.56 204.49 121.56 216.95 146.48 216.95 269.17 219.69 269.17 219.69 145.84 194.56 95.58"/><polygon class="cls-8" points="204.57 60.86 84.45 60.86 54.3 121.16 54.3 269.17 57.58 269.17 57.58 121.94 72.53 92.02 216.49 92.02 231.45 121.94 231.45 269.17 234.73 269.17 234.73 121.16 204.57 60.86"/></g><polygon class="cls-2" points="229.2 104.47 229.2 114.52 229.21 114.54 229.21 111.69 229.21 111.23 229.21 111.19 229.21 109.59 229.21 108.86 229.21 108.35 229.21 107.89 229.21 107.85 229.21 106.25 229.21 105.53 229.21 104.55 230.93 101.13 247.41 101.13 249.09 104.51 249.09 106.63 249.09 107.81 249.09 107.84 249.09 109.59 249.09 109.97 249.09 111.14 249.09 111.19 249.09 112.92 249.09 114.52 247.38 117.95 247.39 117.95 249.11 114.52 249.11 104.47 247.39 101.05 230.91 101.05 229.2 104.47"/><polygon class="cls-2" points="36.35 90.91 35.37 90.91 22.83 90.91 22.62 90.91 15.88 104.38 15.88 121.33 16.26 121.33 16.26 111.19 26.21 111.19 26.21 107.81 16.26 107.81 16.26 104.47 21.35 94.28 37.83 94.28 42.92 104.47 42.92 121.33 43.3 121.33 43.3 104.38 36.56 90.91 36.35 90.91"/><polygon class="cls-2" points="48.39 101.05 64.87 101.05 66.6 104.51 66.94 104.34 63.51 97.48 49.75 97.48 46.3 104.38 46.3 114.61 49.75 121.51 63.51 121.51 66.94 114.65 66.6 114.48 64.87 117.95 48.39 117.95 46.68 114.52 46.68 104.47 48.39 101.05"/><polygon class="cls-2" points="72.05 101.05 88.53 101.05 90.26 104.51 90.6 104.34 87.17 97.48 73.41 97.48 69.96 104.38 69.96 114.61 73.41 121.51 87.17 121.51 90.6 114.65 90.26 114.48 88.53 117.95 72.05 117.95 70.34 114.52 70.34 104.47 72.05 101.05"/><path class="cls-2" d="M97.19,111.19h13.73l3.38-6.76-3.47-6.95H97.07l-3.45,6.9v10.23l3.45,6.9h13.75l3.43-6.86-.34-.17-1.73,3.46H95.71L94,114.52v-3.34ZM94,104.47,95.73,101h16.48l1.69,3.38-1.69,3.38H94Z"/><path class="cls-2" d="M148,97.48H134.26l-3.45,6.9v10.23l3.45,6.9H148l3.43-6.86-.34-.17-1.73,3.46H132.89l-1.71-3.42v-3.34H148.1l3.38-6.76ZM131.2,107.81v-3.34l1.71-3.42h16.48l1.69,3.38-1.69,3.38Z"/><polygon class="cls-2" points="117.66 114.52 117.66 90.91 117.28 90.91 117.28 114.61 120.73 121.51 127.61 121.51 127.61 121.33 127.61 121.14 127.61 117.95 119.37 117.95 117.66 114.52"/><polygon class="cls-2" points="205.54 90.91 205.16 90.91 205.16 97.67 201.97 97.67 201.97 101.05 205.16 101.05 205.16 114.61 208.62 121.51 215.49 121.51 215.49 121.33 215.49 121.14 215.49 117.95 207.25 117.95 205.54 114.52 205.54 101.05 215.49 101.05 215.49 97.67 205.54 97.67 205.54 90.91"/><polygon class="cls-2" points="157.92 97.48 154.84 103.63 154.84 97.67 154.46 97.67 154.46 121.33 154.84 121.33 154.84 104.47 156.55 101.05 173.03 101.05 174.76 104.51 175.1 104.34 171.67 97.48 157.92 97.48"/><polygon class="cls-2" points="219.06 114.52 219.06 97.67 218.69 97.67 218.69 114.61 222.14 121.51 225.63 121.51 225.63 121.33 225.63 121.14 225.63 117.95 220.77 117.95 219.06 114.52"/><rect class="cls-2" x="218.87" y="90.91" width="3.38" height="3.38"/><path class="cls-2" d="M232.28,97.48l-3.45,6.9v10.23l3.45,6.9H246l3.45-6.9V104.38L246,97.48Zm16.83,7v10.05l-1.71,3.42H230.9l-1.69-3.38v-10.1l1.71-3.42h16.48Z"/><polygon class="cls-2" points="269.69 97.48 255.94 97.48 252.49 104.38 252.49 121.33 252.86 121.33 252.86 104.47 254.57 101.05 271.05 101.05 272.77 104.47 272.77 121.33 273.14 121.33 273.14 104.38 269.69 97.48"/><path class="cls-2" d="M181.58,97.48l-3.43,6.86.34.17,1.73-3.46h16.48l1.71,3.42v3.15H181.58l-3.47,6.95,3.47,6.95h13.75l3.45-6.9V104.38l-3.45-6.9Zm16.82,17-1.71,3.42H180.2l-1.69-3.38,1.69-3.38h18.19Z"/><polygon class="cls-2" points="229.21 114.57 230.9 117.95 230.91 117.95 229.21 114.54 229.21 114.57"/></g></g></svg>