<svg xmlns="http://www.w3.org/2000/svg" viewBox="0 0 360 360"><defs><style>.cls-1,.cls-4{fill:#fff;}.cls-2{fill:#689676;}.cls-3{fill:#b6b6ab;}.cls-4{font-size:31.82px;letter-spacing:0.01em;}.cls-4,.cls-6,.cls-8{font-family:BebasNeueRegular, Bebas Neue;}.cls-5,.cls-6,.cls-8{fill:#231f20;}.cls-6,.cls-8{font-size:24.74px;}.cls-10,.cls-6{letter-spacing:0.01em;}.cls-7{letter-spacing:0em;}.cls-8{letter-spacing:0.01em;}.cls-9{letter-spacing:-0.03em;}.cls-11{letter-spacing:-0.03em;}.cls-12{letter-spacing:-0.03em;}</style></defs><title>block_party_square</title><g id="Layer_2" data-name="Layer 2"><g id="Layer_1-2" data-name="Layer 1"><rect class="cls-1" width="360" height="360"/><polygon class="cls-2" points="109 261.79 109 313.2 160.41 261.79 109 261.79"/><polygon class="cls-2" points="156.26 277.55 104.85 328.95 104.85 342.63 239.59 342.63 239.59 277.55 156.26 277.55"/><polygon class="cls-2" points="19.03 261.79 19.03 343.26 78.94 343.26 99.67 322.53 99.67 261.79 19.03 261.79"/><polygon class="cls-2" points="19.03 235.06 19.03 252.25 99.67 252.25 99.67 152.04 19.03 235.06"/><rect class="cls-3" x="141.42" y="178.78" width="80.52" height="41.03"/><rect class="cls-3" x="168.28" y="169.72" width="27.03" height="59.63"/><rect class="cls-3" x="157.15" y="169.72" width="50.09" height="18.29"/><text class="cls-4" transform="translate(161.57 210.33)">msc</text><path class="cls-5" d="M31.61,20.55c8.73,0,12.17,4.16,12.17,12.41v2.64c0,5.93-1.68,9.61-6.57,11.13,5.45,1.52,7.53,5.85,7.53,12v4.72c0,8.41-4.08,13.13-12.81,13.13H19V20.55ZM30.08,44.33c5,0,7.53-1.6,7.53-7.45V33.6c0-5-1.68-7.37-6.17-7.37H25.28v18.1Zm1.84,26.59c4.56,0,6.65-2.4,6.65-7.61v-5c0-6.25-2.48-8.33-7.85-8.33H25.28v20.9Z"/><path class="cls-5" d="M51,76.6V20.55h6.25V70.92h16V76.6Z"/><path class="cls-5" d="M78.05,34.08C78.05,25.52,82.29,20,90.86,20s12.89,5.53,12.89,14.09v29c0,8.49-4.24,14.09-12.89,14.09S78.05,71.56,78.05,63.07Zm6.17,29.31c0,5.12,2.16,8.09,6.65,8.09s6.65-3,6.65-8.09V33.76c0-5-2.08-8.09-6.65-8.09s-6.65,3-6.65,8.09Z"/><path class="cls-5" d="M135,34.08v5h-5.93V33.76c0-5-2-8.09-6.57-8.09s-6.57,3-6.57,8.09V63.39c0,5,2.08,8.09,6.57,8.09s6.57-3,6.57-8.09V56.11H135v7c0,8.49-4,14.09-12.65,14.09s-12.57-5.61-12.57-14.09v-29c0-8.49,4-14.09,12.57-14.09S135,25.6,135,34.08Z"/><path class="cls-5" d="M150.76,52.26l-3.28,5.53V76.6h-6.25V20.55h6.25V47.62l14.89-27.07h6.33L154.52,46.1,169.17,76.6h-6.41Z"/><path class="cls-5" d="M199.76,20.55c8.81,0,12.57,5.21,12.57,13.69V41c0,8.89-4.16,13.53-13.05,13.53h-5.53V76.6h-6.25V20.55Zm-.48,28.35c4.64,0,6.89-2.16,6.89-7.53V33.92c0-5.12-1.84-7.69-6.41-7.69h-6V48.9Z"/><path class="cls-5" d="M223.07,65.31,220.91,76.6h-5.77l10.73-56.05h9L245.65,76.6H239.4l-2.16-11.29Zm.8-5.37h12.49L230,27.6Z"/><path class="cls-5" d="M263.59,20.55c8.81,0,12.49,4.48,12.49,12.81v4.56c0,6.17-2.16,10-7,11.53,5.12,1.52,7,5.69,7,11.69v8.73c0,2.48.08,4.8,1.12,6.73H271c-.72-1.6-1-3-1-6.81V61c0-6.33-3-8.33-8.17-8.33h-4.4V76.6h-6.25V20.55ZM262,47c5,0,7.93-1.6,7.93-7.69V33.92c0-5-1.84-7.69-6.49-7.69h-6.09V47Z"/><path class="cls-5" d="M291.29,76.6V26.24H281V20.55h26.82v5.69H297.46V76.6Z"/><path class="cls-5" d="M322.52,56.51l-11.85-36h6.49l8.73,27.55,8.81-27.55h5.93l-11.93,36V76.6h-6.17Z"/><text class="cls-6" transform="translate(19.03 106.28)">Time: Eve<tspan class="cls-7" x="72.13" y="0">r</tspan><tspan x="81.8" y="0">ywhere</tspan></text><text class="cls-8" transform="translate(19.03 136.33)">d<tspan class="cls-9" x="9.95" y="0">a</tspan><tspan class="cls-10" x="19.62" y="0">te: Al</tspan><tspan class="cls-11" x="64.93" y="0">l</tspan><tspan class="cls-12" x="72.45" y="0">-</tspan><tspan class="cls-10" x="78.39" y="0">the</tspan><tspan class="cls-12" x="106.82" y="0">-</tspan><tspan class="cls-10" x="112.75" y="0">time</tspan></text><path class="cls-5" d="M281.32,122.6v2.68h-6.07V136.7h-2.94V110.31h10.48V113h-7.54v9.61Z"/><path class="cls-5" d="M285.16,116.68c0-4,2-6.63,6-6.63s6.07,2.6,6.07,6.63v13.64c0,4-2,6.63-6.07,6.63s-6-2.64-6-6.63Zm2.9,13.79c0,2.41,1,3.81,3.13,3.81s3.13-1.39,3.13-3.81V116.53c0-2.37-1-3.81-3.13-3.81s-3.13,1.43-3.13,3.81Z"/><path class="cls-5" d="M300.08,116.68c0-4,2-6.63,6-6.63s6.07,2.6,6.07,6.63v13.64c0,4-2,6.63-6.07,6.63s-6-2.64-6-6.63Zm2.9,13.79c0,2.41,1,3.81,3.13,3.81s3.13-1.39,3.13-3.81V116.53c0-2.37-1-3.81-3.13-3.81s-3.13,1.43-3.13,3.81Z"/><path class="cls-5" d="M321.41,110.31c4.11,0,6,2.49,6,6.56v13.3c0,4-1.88,6.52-6,6.52h-6.18V110.31Zm0,23.71c2.11,0,3.13-1.32,3.13-3.73V116.72c0-2.41-1-3.73-3.17-3.73h-3.17v21Z"/><path class="cls-5" d="M273.57,211.35v2.26h-2.79V211.2c0-2.37-.94-3.81-3.09-3.81s-3.09,1.43-3.09,3.81v13.94c0,2.38,1,3.81,3.09,3.81s3.09-1.43,3.09-3.81v-5.28h-2.71v-2.64h5.5V225c0,4-1.88,6.63-6,6.63S261.7,229,261.7,225V211.35c0-4,1.88-6.63,5.92-6.63S273.57,207.35,273.57,211.35Z"/><path class="cls-5" d="M279.56,226l-1,5.31h-2.71l5-26.38h4.26l5,26.38h-2.94l-1-5.31Zm.38-2.53h5.88l-3-15.23Z"/><path class="cls-5" d="M302.48,231.32h-2.83l-4.37-21v21h-2.56V205h4.11L301.16,226,305.34,205h4.11v26.38h-2.79V210.14Z"/><path class="cls-5" d="M322.11,216.66v2.64h-6.45v9.38h7.92v2.68H312.73V205h10.85v2.68h-7.92v9Z"/><path class="cls-5" d="M338,211.31V212h-2.79v-.87c0-2.37-.91-3.77-3-3.77s-3,1.39-3,3.73c0,5.92,8.86,6.48,8.86,13.91,0,4-1.92,6.59-6,6.59s-5.92-2.6-5.92-6.59v-1.51h2.75v1.66c0,2.37,1,3.77,3.09,3.77s3.09-1.39,3.09-3.77c0-5.88-8.82-6.45-8.82-13.87,0-4.07,1.88-6.6,5.84-6.6S338,207.31,338,211.31Z"/><path class="cls-5" d="M276.12,326h-2.83l-4.37-21v21h-2.56V299.62h4.11l4.33,21.07L279,299.62h4.11V326H280.3V304.79Z"/><path class="cls-5" d="M289.15,319.79c0,2.37.94,3.81,3.09,3.81s3.05-1.43,3.05-3.81V299.62H298v20c0,4-1.85,6.67-5.92,6.67s-5.88-2.68-5.88-6.67v-20h2.9Z"/><path class="cls-5" d="M312.63,306v.72h-2.79v-.87c0-2.37-.91-3.77-3-3.77s-3,1.39-3,3.73c0,5.92,8.86,6.48,8.86,13.91,0,4-1.92,6.6-6,6.6s-5.92-2.6-5.92-6.6v-1.51h2.75v1.66c0,2.38,1,3.77,3.09,3.77s3.09-1.39,3.09-3.77c0-5.88-8.82-6.44-8.82-13.87,0-4.07,1.88-6.6,5.84-6.6S312.63,302,312.63,306Z"/><path class="cls-5" d="M318.43,299.62V326H315.5V299.62Z"/><path class="cls-5" d="M333.36,306v2.38h-2.79v-2.53c0-2.37-.94-3.81-3.09-3.81s-3.09,1.43-3.09,3.81v13.95c0,2.37,1,3.81,3.09,3.81s3.09-1.43,3.09-3.81v-3.43h2.79v3.28c0,4-1.88,6.63-6,6.63s-5.92-2.64-5.92-6.63V306c0-4,1.88-6.63,5.92-6.63S333.36,302,333.36,306Z"/></g></g></svg>