<svg xmlns="http://www.w3.org/2000/svg" viewBox="0 0 525.36 525.36"><defs><style>.cls-1{fill:#fff;stroke:#231f20;stroke-width:0.86px;}.cls-1,.cls-2,.cls-3{stroke-miterlimit:10;}.cls-2,.cls-3{fill:none;}.cls-2{stroke:#323232;stroke-width:4.11px;}.cls-3{stroke:#c9c9c9;stroke-width:2.35px;}.cls-4{fill:#323232;}</style></defs><title>bti_Square</title><g id="Layer_2" data-name="Layer 2"><g id="Layer_1-2" data-name="Layer 1"><rect class="cls-1" x="0.43" y="0.43" width="524.5" height="524.5"/><circle class="cls-2" cx="262.68" cy="262.68" r="155.46"/><line class="cls-3" x1="262.68" y1="390.92" x2="262.68" y2="134.44"/><path class="cls-3" d="M241.19,134.44c-42.27,53.73-42.27,197,0,256.48"/><path class="cls-3" d="M215.4,134.44c-85.25,46.94-85.25,209.53,0,256.48"/><path class="cls-3" d="M283.46,134.44c42.27,53.73,42.27,197,0,256.48"/><path class="cls-3" d="M309.25,134.44c85.25,46.94,85.25,209.53,0,256.48"/><line class="cls-3" x1="133.72" y1="262.68" x2="391.64" y2="262.68"/><line class="cls-3" x1="184.14" y1="198.92" x2="341.22" y2="198.92"/><line class="cls-3" x1="184.14" y1="326.44" x2="341.22" y2="326.44"/><path class="cls-4" d="M277.39,101.16,262.68,46.92,248,101.16c4.85-.44,9.75-.67,14.71-.67S272.54,100.72,277.39,101.16Z"/><path class="cls-4" d="M168.71,105q-3.14,1.88-6.21,3.89a183.68,183.68,0,0,0-15.69,11.49q-2.83,2.31-5.58,4.75-4.24,3.76-8.29,7.79-2.66,2.66-5.19,5.4t-4.81,5.42q-5.09,6-9.61,12.27-2.14,3-4.16,6.05a181.61,181.61,0,0,0-28.89,80.57l5-1.35A176.82,176.82,0,0,1,113,165q2-3.07,4.15-6.06,4.52-6.32,9.62-12.27,2.35-2.75,4.82-5.42,2.33-2.52,4.77-5,3.9-3.9,8-7.53,2.75-2.44,5.58-4.75A178.93,178.93,0,0,1,165,113q3.07-2,6.21-3.89a176.86,176.86,0,0,1,70.08-23.83l1.35-5A181.67,181.67,0,0,0,168.71,105Z"/><path class="cls-4" d="M389,136.33a177.33,177.33,0,0,1,51.07,105l5,1.35A183.52,183.52,0,0,0,282.69,80.29l1.35,5A177.33,177.33,0,0,1,389,136.33Z"/><path class="cls-4" d="M136.33,389A177.33,177.33,0,0,1,85.26,284l-5-1.35A183.52,183.52,0,0,0,242.67,445.07l-1.35-5A177.33,177.33,0,0,1,136.33,389Z"/><path class="cls-4" d="M445.07,282.69l-5,1.35A178.77,178.77,0,0,1,284,440.1l-1.35,5A183.52,183.52,0,0,0,445.07,282.69Z"/><path class="cls-4" d="M424.2,277.39l54.24-14.71L424.2,248c.44,4.85.67,9.75.67,14.71S424.64,272.54,424.2,277.39Z"/><path class="cls-4" d="M248,424.2l14.71,54.24,14.71-54.24c-4.85.44-9.75.67-14.71.67S252.82,424.64,248,424.2Z"/><path class="cls-4" d="M101.16,248,46.92,262.68l54.24,14.71c-.44-4.85-.67-9.75-.67-14.71S100.72,252.82,101.16,248Z"/></g></g></svg>