<svg xmlns="http://www.w3.org/2000/svg" viewBox="0 0 1763.48 1763.48"><defs><style>.cls-1{fill:#fff;stroke:#231f20;stroke-miterlimit:10;}</style></defs><title>cactus_fish</title><g id="Layer_2" data-name="Layer 2"><g id="Layer_1-2" data-name="Layer 1"><rect class="cls-1" x="0.5" y="0.5" width="1762.48" height="1762.48"/><path d="M598.12,828.84l-10.25-10.25-10.25-10.25a249.84,249.84,0,0,1-331,19.76V631.68a154.39,154.39,0,0,1,308.79,0h29a183.39,183.39,0,0,0-366.79,0V801.27a249.76,249.76,0,0,1,6.77-346.19h0a249.79,249.79,0,0,1,353.25,0l10.25-10.25,10.25-10.25h0a278.79,278.79,0,0,0-394.26,0h0a278.79,278.79,0,0,0,0,394.26h0q6.68,6.68,13.74,12.84v561.52h29V863.93a279,279,0,0,0,351.52-35.1Z"/><rect x="291.85" y="1021.65" width="29" height="381.54"/><polygon points="627.12 1021.65 598.12 1021.65 598.12 1403.19 627.12 1403.19 627.12 1165.93 759.76 1165.93 759.76 1136.93 627.12 1136.93 627.12 1021.65"/><rect x="759.76" y="1021.65" width="29" height="381.54"/><path d="M515.67,1215.3a107,107,0,0,0-51.31-19.53,72.76,72.76,0,1,1,64.21-118.07l22.54-18.22A101.71,101.71,0,1,0,461.3,1224.6,78.69,78.69,0,1,1,392.46,1353l-22.55,18.23a107.66,107.66,0,1,0,145.76-156Z"/><path d="M1596.23,707.42a107,107,0,0,0-51.31-19.53,72.76,72.76,0,1,1,64.21-118.07l22.54-18.22a101.71,101.71,0,1,0-89.81,165.14A78.69,78.69,0,1,1,1473,845.16l-22.55,18.23a107.66,107.66,0,1,0,145.76-156Z"/><polygon points="655.27 513.77 627.12 513.77 627.12 895.32 656.12 895.32 656.12 590.49 784.52 895.32 815.99 895.32 656.12 515.79 655.27 513.77"/><path d="M1005.95,513.78h0Z"/><path d="M799.94,689.63v30.44c7.38,93.25,82,167.86,175.24,175.25h15.4V867h-.18C905.72,867,836,801.68,828.9,718.79V690.9C836,608,905.72,542.73,990.41,542.73h.18v-29h-.18C890.18,513.77,807.73,591.36,799.94,689.63Z"/><path d="M1408.52,742.9h0v68.46h0a66.32,66.32,0,0,1-132.65,0V513.77h-29V811.41a95.32,95.32,0,0,0,190.65,0h0V513.77h-29Z"/><path d="M1173.21,811.39a66.32,66.32,0,0,1-132.65,0h0v-5h0v0h0V658.06h87.08v-29h-87.08V518.77h-29V806.36h0v5h0a95.32,95.32,0,0,0,190.65,0v0h-29Z"/></g></g></svg>