<svg xmlns="http://www.w3.org/2000/svg" viewBox="0 0 310.14 310.14"><defs><style>.cls-1{fill:#fff;}.cls-2{fill:#d3dae4;}.cls-3{fill:#3b3232;}.cls-4{fill:#f27d71;}.cls-5{fill:#f7f7f6;}</style></defs><title>christmas_tickets_square</title><g id="Layer_2" data-name="Layer 2"><g id="Layer_1-2" data-name="Layer 1"><rect class="cls-1" width="310.14" height="310.14"/><rect class="cls-2" x="47.25" y="27.51" width="215.64" height="105.37"/><path class="cls-3" d="M248.83,105.54V54.85a28.06,28.06,0,0,1-13.63-14H74.94a28.06,28.06,0,0,1-13.63,14v50.69a28.06,28.06,0,0,1,13.63,14H235.2A28.06,28.06,0,0,1,248.83,105.54Z"/><path class="cls-4" d="M120.18,90.09c4.29,0,5.76,2.82,5.76,6.71v2.78c0,4.41-2,6.52-6.4,6.52h-4v11.8h-.87V90.09Zm-.64,15.18c3.89,0,5.52-1.71,5.52-5.64V96.76c0-3.42-1.15-5.84-4.89-5.84h-4.61v14.34Z"/><path class="cls-4" d="M128.36,90.09V117.9h-.87V90.09Z"/><path class="cls-4" d="M135.24,117.9v-27h-6v-.83h13v.83h-6.08v27Z"/><path class="cls-4" d="M143.9,111.34l-1.63,6.56h-.79L148.19,90h1.23l6.87,27.85h-.87l-1.63-6.56Zm.16-.79h9.58l-4.85-19.47Z"/><path class="cls-4" d="M162.34,117.07a11.48,11.48,0,0,0,1.67,0c3.1-.28,4.49-2,4.49-5.88V90.09h.87v21c0,4.61-1.91,6.52-5.28,6.75a12.61,12.61,0,0,1-1.75,0Z"/><path class="cls-4" d="M171.83,111.07c0,3.34,1.19,6.24,4.89,6.24s4.89-2.9,4.89-6.24v-21h.83V111c0,3.81-1.51,7.07-5.72,7.07S171,114.84,171,111V90.09h.87Z"/><path class="cls-4" d="M184.91,117.9h-.83V90.09h1.23l9.77,26v-26h.83V117.9h-1.07l-9.93-26.54Z"/><path class="cls-4" d="M209.19,96.92v1.83h-.87V96.88c0-3.38-1.27-6.2-4.93-6.2s-5,2.82-5,6.2v14.22c0,3.38,1.27,6.16,5,6.16s4.93-2.78,4.93-6.16v-6.32H204V104h5.21v7.07c0,3.85-1.59,7-5.84,7s-5.8-3.18-5.8-7V96.92c0-3.85,1.59-7,5.8-7S209.19,93.07,209.19,96.92Z"/><path class="cls-4" d="M210.82,117.9V90.09h.87v27H221v.83Z"/><path class="cls-4" d="M231.6,103.4v.79h-8.19v12.87h9.73v.83H222.54V90.09h10.61v.83h-9.73V103.4Z"/><path class="cls-4" d="M77.32,70.66V42.84h.87v27h9.34v.83Z"/><path class="cls-4" d="M89.87,63.82c0,3.34,1.19,6.24,4.89,6.24s4.89-2.9,4.89-6.24v-21h.83V63.78c0,3.81-1.51,7.07-5.72,7.07S89,67.6,89,63.78V42.84h.87Z"/><path class="cls-4" d="M102.95,70.66h-.83V42.84h1.23l9.77,26v-26H114V70.66h-1.07l-9.93-26.54Z"/><path class="cls-4" d="M127.23,49.68v2.15h-.87V49.64c0-3.38-1.27-6.2-4.93-6.2s-5,2.82-5,6.2V63.86c0,3.38,1.27,6.16,5,6.16s4.93-2.78,4.93-6.16V60.8h.87v3c0,3.85-1.59,7-5.84,7s-5.8-3.18-5.8-7V49.68c0-3.85,1.59-7,5.8-7S127.23,45.82,127.23,49.68Z"/><path class="cls-4" d="M129.69,57.15V70.66h-.87V42.84h.87V56.35h10.05V42.84h.87V70.66h-.87V57.15Z"/><path class="cls-4" d="M171.21,52.86c0,4.61-1.59,11.84-6.48,11.88-1.67,0-2.42-1.31-2.46-2.82a4.64,4.64,0,0,1-4.45,3.26c-3.38,0-4.17-3.1-3.85-6.08l.4-3.89c.32-3.1,1.87-5.68,5.09-5.68a3.59,3.59,0,0,1,3.73,2.94l.28-2.7h.83L163.11,61c-.12,1.31.2,2.9,1.79,2.9,4.49,0,5.6-7.35,5.56-11,0-6.44-3-10.33-9.69-10.33-9.46,0-13.11,8.22-13.11,16.85,0,7.71,3.54,12.16,11.44,12.16a11.43,11.43,0,0,0,7.11-2.19l0,.91a12.26,12.26,0,0,1-7.11,2c-8.42,0-12.2-4.81-12.2-13,0-8.9,3.93-17.56,13.95-17.56C168,41.81,171.21,46.1,171.21,52.86Zm-16.05,2.42-.4,3.89c-.24,2.46.32,5.21,3.3,5.21s4.17-2.62,4.41-5.28l.44-3.85c.28-2.5-.44-4.89-3.3-4.89S155.48,52.66,155.16,55.28Z"/><path class="cls-3" d="M239.92,132.88H70.22V130.8a20.91,20.91,0,0,0-20.89-20.89H47.25V50.48h2.08A20.91,20.91,0,0,0,70.22,29.59V27.51h169.7v2.08a20.91,20.91,0,0,0,20.89,20.89h2.08v59.44h-2.08a20.91,20.91,0,0,0-20.89,20.89ZM74.29,128.72H235.84a25.09,25.09,0,0,1,22.88-22.88V54.55a25.09,25.09,0,0,1-22.88-22.88H74.29A25.09,25.09,0,0,1,51.41,54.55v51.29A25.09,25.09,0,0,1,74.29,128.72Z"/><rect class="cls-3" x="89.43" y="35.19" width="131.28" height="3.05"/><rect class="cls-3" x="89.43" y="122.21" width="131.28" height="3.05"/><rect class="cls-3" x="235.99" y="78.67" width="35.59" height="3.05" transform="translate(173.58 333.98) rotate(-90)"/><rect class="cls-3" x="38.65" y="78.67" width="35.59" height="3.05" transform="translate(-23.75 136.64) rotate(-90)"/><path class="cls-5" d="M80.19,87.8h-.65L77,73.68h.44l2.46,13.52,2.44-13.44h.54l2.3,13.35,2.38-13.43H88L85.48,87.8h-.58L82.61,74.73Z"/><path class="cls-5" d="M104.09,73.68V87.8h-.44V73.68Z"/><path class="cls-5" d="M122.46,87.8V74.1H119.4v-.42H126v.42h-3.09V87.8Z"/><path class="cls-5" d="M141.78,80.94V87.8h-.44V73.68h.44v6.86h5.1V73.68h.44V87.8h-.44V80.94Z"/><path class="cls-5" d="M186.19,77.15v1.09h-.44V77.13c0-1.71-.65-3.15-2.5-3.15s-2.52,1.43-2.52,3.15v7.22c0,1.71.65,3.13,2.52,3.13s2.5-1.41,2.5-3.13V82.8h.44v1.53c0,2-.81,3.57-3,3.57s-2.95-1.61-2.95-3.57V77.15c0-2,.81-3.57,2.95-3.57S186.19,75.19,186.19,77.15Z"/><path class="cls-5" d="M203.05,84.47l-.83,3.33h-.4l3.41-14.14h.63l3.49,14.14h-.44l-.83-3.33Zm.08-.4H208l-2.46-9.88Z"/><path class="cls-5" d="M229.41,87.76h-.5l-3.49-13.41V87.8H225V73.68h.69l3.47,13.39,3.47-13.39h.69V87.8h-.44V74.34Z"/><rect class="cls-2" x="47.25" y="177.26" width="215.64" height="105.37"/><path class="cls-3" d="M248.83,255.29V204.6a28.06,28.06,0,0,1-13.63-14H74.94a28.06,28.06,0,0,1-13.63,14v50.69a28.06,28.06,0,0,1,13.63,14H235.2A28.06,28.06,0,0,1,248.83,255.29Z"/><path class="cls-4" d="M82.73,239.84c4.05,0,5.36,2,5.36,5.76v1.79c0,3.1-.83,5-4,5.44,3.3.48,4.53,2.74,4.53,6v2.46c0,3.93-1.67,6.4-5.88,6.4h-5.6V239.84Zm-1.07,12.64c3.85,0,5.56-.91,5.56-5v-1.87c0-3.26-1-5-4.49-5H78v11.8Zm1.11,14.34c3.66,0,5-2.07,5-5.56v-2.5c0-4-1.91-5.48-5.72-5.48H78v13.55Z"/><path class="cls-4" d="M99.29,253.15v.79H91.11v12.87h9.73v.83H90.24V239.84h10.61v.83H91.11v12.48Z"/><path class="cls-4" d="M108.75,256.4l-6.48-16.57h.87l6.08,15.38,6.08-15.38h.91l-6.6,16.57v11.24h-.87Z"/><path class="cls-4" d="M117.06,246.67c0-3.89,1.67-7,5.88-7s6,3.14,6,7v14.15c0,3.89-1.67,7-6,7s-5.88-3.14-5.88-7Zm.87,14.19c0,3.42,1.31,6.2,5,6.2s5.09-2.78,5.09-6.2V246.63c0-3.42-1.35-6.2-5.09-6.2s-5,2.78-5,6.2Z"/><path class="cls-4" d="M131.36,267.65h-.83V239.84h1.23l9.77,26v-26h.83v27.81H141.3l-9.93-26.54Z"/><path class="cls-4" d="M149.84,239.84c4.25,0,6,3,6,7v13.95c0,3.93-1.79,6.91-6,6.91H144V239.84Zm0,27c3.73,0,5.17-2.58,5.17-6v-14c0-3.5-1.47-6.08-5.17-6.08h-4.93v26.15Z"/><path class="cls-4" d="M167.68,239.84c4.05,0,5.36,2,5.36,5.76v1.79c0,3.1-.83,5-4,5.44,3.3.48,4.53,2.74,4.53,6v2.46c0,3.93-1.67,6.4-5.88,6.4h-5.6V239.84Zm-1.07,12.64c3.85,0,5.56-.91,5.56-5v-1.87c0-3.26-1-5-4.49-5H163v11.8Zm1.11,14.34c3.66,0,5-2.07,5-5.56v-2.5c0-4-1.91-5.48-5.72-5.48h-4v13.55Z"/><path class="cls-4" d="M180.72,239.84c4.13,0,5.72,2.42,5.72,6.24v2.5c0,3.42-1.35,5.28-4.41,5.84,3.1.48,4.41,2.5,4.41,5.56v4.37a5.87,5.87,0,0,0,.75,3.3h-1a6.31,6.31,0,0,1-.68-3.3V260c0-4.09-2.46-5.17-6.08-5.17h-3.42v12.83h-.87V239.84ZM179.49,254c3.85,0,6.08-1,6.08-5.28v-2.54c0-3.38-1.31-5.48-4.89-5.48h-4.61V254Z"/><path class="cls-4" d="M197.84,253.15v.79h-8.19v12.87h9.73v.83H188.78V239.84h10.61v.83h-9.73v12.48Z"/><path class="cls-4" d="M203.29,261.09l-1.63,6.56h-.79l6.71-27.85h1.23l6.87,27.85h-.87l-1.63-6.56Zm.16-.79H213l-4.85-19.47Z"/><path class="cls-4" d="M223,239.84c4.25,0,6,3,6,7v13.95c0,3.93-1.79,6.91-6,6.91h-5.84V239.84Zm0,27c3.73,0,5.17-2.58,5.17-6v-14c0-3.5-1.47-6.08-5.17-6.08h-4.93v26.15Z"/><path class="cls-4" d="M77.32,220.41V192.59h.87v27h9.34v.83Z"/><path class="cls-4" d="M89.87,213.57c0,3.34,1.19,6.24,4.89,6.24s4.89-2.9,4.89-6.24v-21h.83v20.94c0,3.81-1.51,7.07-5.72,7.07S89,217.35,89,213.53V192.59h.87Z"/><path class="cls-4" d="M102.95,220.41h-.83V192.59h1.23l9.77,26v-26H114v27.81h-1.07l-9.93-26.54Z"/><path class="cls-4" d="M127.23,199.43v2.15h-.87v-2.19c0-3.38-1.27-6.2-4.93-6.2s-5,2.82-5,6.2v14.22c0,3.38,1.27,6.16,5,6.16s4.93-2.78,4.93-6.16v-3.06h.87v3c0,3.85-1.59,7-5.84,7s-5.8-3.18-5.8-7V199.43c0-3.85,1.59-7,5.8-7S127.23,195.57,127.23,199.43Z"/><path class="cls-4" d="M129.69,206.9v13.51h-.87V192.59h.87V206.1h10.05V192.59h.87v27.81h-.87V206.9Z"/><path class="cls-4" d="M171.21,202.6c0,4.61-1.59,11.84-6.48,11.88-1.67,0-2.42-1.31-2.46-2.82a4.64,4.64,0,0,1-4.45,3.26c-3.38,0-4.17-3.1-3.85-6.08l.4-3.89c.32-3.1,1.87-5.68,5.09-5.68a3.59,3.59,0,0,1,3.73,2.94l.28-2.7h.83l-1.19,11.28c-.12,1.31.2,2.9,1.79,2.9,4.49,0,5.6-7.35,5.56-11,0-6.44-3-10.33-9.69-10.33-9.46,0-13.11,8.22-13.11,16.85,0,7.71,3.54,12.16,11.44,12.16a11.43,11.43,0,0,0,7.11-2.19l0,.91a12.26,12.26,0,0,1-7.11,2c-8.42,0-12.2-4.81-12.2-13,0-8.9,3.93-17.56,13.95-17.56C168,191.56,171.21,195.85,171.21,202.6ZM155.16,205l-.4,3.89c-.24,2.46.32,5.21,3.3,5.21s4.17-2.62,4.41-5.28l.44-3.85c.28-2.5-.44-4.89-3.3-4.89S155.48,202.41,155.16,205Z"/><path class="cls-3" d="M239.92,282.63H70.22v-2.08a20.91,20.91,0,0,0-20.89-20.89H47.25V200.23h2.08a20.91,20.91,0,0,0,20.89-20.89v-2.08h169.7v2.08a20.91,20.91,0,0,0,20.89,20.89h2.08v59.44h-2.08a20.91,20.91,0,0,0-20.89,20.89ZM74.29,278.47H235.84a25.09,25.09,0,0,1,22.88-22.88V204.3a25.09,25.09,0,0,1-22.88-22.88H74.29A25.09,25.09,0,0,1,51.41,204.3v51.29A25.09,25.09,0,0,1,74.29,278.47Z"/><rect class="cls-3" x="89.43" y="184.94" width="131.28" height="3.05"/><rect class="cls-3" x="89.43" y="271.96" width="131.28" height="3.05"/><rect class="cls-3" x="235.99" y="228.42" width="35.59" height="3.05" transform="translate(23.84 483.72) rotate(-90)"/><rect class="cls-3" x="38.65" y="228.42" width="35.59" height="3.05" transform="translate(-173.5 286.39) rotate(-90)"/><path class="cls-5" d="M80.19,237.55h-.65L77,223.43h.44l2.46,13.52,2.44-13.44h.54l2.3,13.35,2.38-13.43H88l-2.5,14.12h-.58l-2.28-13.07Z"/><path class="cls-5" d="M104.09,223.43v14.12h-.44V223.43Z"/><path class="cls-5" d="M122.46,237.55v-13.7H119.4v-.42H126v.42h-3.09v13.7Z"/><path class="cls-5" d="M141.78,230.69v6.86h-.44V223.43h.44v6.86h5.1v-6.86h.44v14.12h-.44v-6.86Z"/><path class="cls-5" d="M186.19,226.9V228h-.44v-1.11c0-1.71-.65-3.15-2.5-3.15s-2.52,1.43-2.52,3.15v7.22c0,1.71.65,3.13,2.52,3.13s2.5-1.41,2.5-3.13v-1.55h.44v1.53c0,2-.81,3.57-3,3.57s-2.95-1.61-2.95-3.57V226.9c0-2,.81-3.57,2.95-3.57S186.19,224.94,186.19,226.9Z"/><path class="cls-5" d="M203.05,234.22l-.83,3.33h-.4l3.41-14.14h.63l3.49,14.14h-.44l-.83-3.33Zm.08-.4H208l-2.46-9.88Z"/><path class="cls-5" d="M229.41,237.51h-.5l-3.49-13.41v13.45H225V223.43h.69l3.47,13.39,3.47-13.39h.69v14.12h-.44V224.09Z"/></g></g></svg>