<svg xmlns="http://www.w3.org/2000/svg" viewBox="0 0 521.1 521.1"><defs><style>.cls-1{fill:#fff;}.cls-2{fill:#010101;}</style></defs><title>doodles_square</title><g id="Layer_2" data-name="Layer 2"><g id="Layer_1-2" data-name="Layer 1"><rect class="cls-1" width="521.1" height="521.1"/><path class="cls-2" d="M369.36,346.23c.7,13.83,1.4,27.79-.78,41.47a19.45,19.45,0,0,1-2,6.73c-3.63,6.31-12.19,7.26-19.47,7.43-7.05.16-15.64-.62-18.71-7-1.36-2.81-1.22-6.09-1.05-9.21l1.26-23.37c1.81-33.72,3.63-67.56.9-101.22a8.35,8.35,0,0,1,.36-4.14c1.09-2.41,4.09-3.16,6.69-3.62,7.2-1.27,15.47-2.22,21.06,2.49,4.08,3.44,5.55,9,6.71,14.2,1.62,7.27,2.88,15.48-1.26,21.67-1.78,2.66-4.42,4.68-6.15,7.38s-2.26,6.68.12,8.83c10.24,9.25,11.63,24.56,12.33,38.34M356,336c-.5-5.35-1.22-10.95-4.33-15.33s-9.4-7-14-4.27a414.48,414.48,0,0,0-.74,63.3,7.5,7.5,0,0,0,1.2,4.32c1.29,1.6,3.6,1.87,5.66,1.85,4,0,8.35-.88,10.94-3.93s2.71-7.1,2.75-10.94A339.16,339.16,0,0,0,356,336m-8.81-68.77-4,0a7.45,7.45,0,0,0-3.23.45c-2.58,1.19-2.91,4.65-2.88,7.49l.19,15.66a5.89,5.89,0,0,0,.5,2.81,4,4,0,0,0,4.47,1.57,11.76,11.76,0,0,0,4.36-2.56l3.71-3a16.89,16.89,0,0,0,3.89-3.89,13.81,13.81,0,0,0,1.15-12.32c-1.09-2.36-2.44-4.93-4.89-5.79A10,10,0,0,0,347.24,267.21Z"/><path class="cls-2" d="M173.74,242.86a158,158,0,0,0-20.39,43.54c-1,3.42-2,7.11-4.82,9.33s-7.9,1.72-8.86-1.7a8.11,8.11,0,0,1,.16-3.79c4.45-21.86,9.46-44.87,24.51-61.34,3.24-3.55,7.18-7.44,6.76-12.23-.32-3.6-3.1-6.46-5.9-8.75-21.18-17.31-52.35-19.09-77.66-8.75-2.18.89-4.4,1.88-6.75,1.88s-4.9-1.29-5.51-3.57c-1.06-3.92,3.74-6.69,7.65-7.79a187,187,0,0,1,58.46-6.86,46.88,46.88,0,0,1,11.71,1.61,40.48,40.48,0,0,1,11.26,5.85,82.45,82.45,0,0,1,17.42,16.44c3.2,4.05,9.58,1.6,14.24-.62a64.87,64.87,0,0,1,29.13-6.25c3,.06,6.27.22,8.49-1.74,1.39-1.23,2.07-3.05,2.76-4.77,11-27.44,41.66-45.56,71-42,3.6.43,4.29,6,1.79,8.59s-6.42,3.12-10,3.64c-16,2.33-31.82,8.7-42.9,20.44-2.94,3.11-5.57,6.7-6.55,10.86s0,9,3.28,11.74a98.13,98.13,0,0,1,24.26,30.15c1.1,2.12,2.15,4.47,1.7,6.81-.9,4.66-7.47,6.19-11.56,3.77s-6.12-7.16-7.65-11.65-3-9.3-6.48-12.51c-2.13-1.95-5.7-3-7.77-1a6.57,6.57,0,0,0-1.5,2.8,29.3,29.3,0,0,0,.41,18.86c1.24,3.37-3.43,6.5-6.79,5.23s-5.13-4.93-6.13-8.38a43.41,43.41,0,0,1-.4-22.57c.54-2.12-1.07-4.33-3.09-5.18a12,12,0,0,0-6.48-.33,56.17,56.17,0,0,0-20.19,7.25c-1.47.87-3,1.93-3.57,3.53-1,2.64,1,5.37,2.65,7.62,15.27,20.59,16.86,48.39,13.1,73.74-.58,3.94-1.34,8-3.66,11.24s-6.66,5.36-10.37,3.93c-5.69-2.19-5.94-10-5.29-16.08,2.5-23.2,3-48.61-10.68-67.54C179.42,235.63,176.07,239.4,173.74,242.86Z"/><path class="cls-2" d="M256.6,398.13c2,2.84,4.49,5.35,6.28,8.34s2.83,6.71,1.62,10-4.19,5.25-7.39,6.18-6.59.83-9.92.73a13.13,13.13,0,0,1-5.8-1.07c-2.8-1.48-4.12-4.7-5.23-7.67l-2.69-7.22a25.86,25.86,0,0,1-2.07-16.81l7.82-54.11c-1.42-3-1.09-6.47-1.26-9.78a62.82,62.82,0,0,0-1.66-10.22l-3-13.88c-.51-2.34-1.15-4.88-3-6.35a22.09,22.09,0,0,1-5.49-5.39c-1.37-2.18-1.91-5.08-.69-7.35,1.81-3.36,6.75-3.88,10.08-2s5.36,5.37,7,8.8a105.16,105.16,0,0,1,10.65,50.35c-.39,9.82-2.17,19.56-2.34,29.38S250.93,390.1,256.6,398.13Z"/><path class="cls-2" d="M432.89,382.3c-.18-2.37-.42-4.89-1.88-6.77s-4.62-2.62-6.19-.83a5.4,5.4,0,0,0-1.08,2.75,22.46,22.46,0,0,0,.42,9.33c1.08,4.13,3.33,8.54,1.52,12.41a6.54,6.54,0,0,1-12.42-3.52l4.06-35.34-.13-11.14c-.08-6.67,6.85-12.21,13.49-11.5s12,6.75,12.91,13.36-2.12,13.63-.54,20.21a83.55,83.55,0,0,1,2.19,23.95c-.16,3.05-.85,6.62-3.62,7.92-2.38,1.12-5.39-.16-6.83-2.36a10.35,10.35,0,0,1-1.07-7.61Z"/><path class="cls-2" d="M485.32,405.5a12.83,12.83,0,0,1-3.8,2.8,21.16,21.16,0,0,1-20.94-1,19.35,19.35,0,0,1-8.34-19A132.52,132.52,0,0,0,454,355.53c-.36-5.06-1-10.24.36-15.13s5.36-9.47,10.43-9.67c3-.11,5.75,1.24,8.4,2.56,4.76,2.37,9.87,5.1,12.06,10a57.37,57.37,0,0,1,5,21.26,114.44,114.44,0,0,1-.42,12.48l-1.22,17.38c-.28,3.94-.68,8.19-3.29,11.14m-13.56-59.59a6.76,6.76,0,0,0-6.19-1,26.44,26.44,0,0,0,0,8.22,46.94,46.94,0,0,1,0,10.44l-1.35,19c-.21,3,1.54,6.13,4.39,7s6.36-1.32,6.38-4.29l.09-11.12a47.31,47.31,0,0,1,1.06-11.66,17,17,0,0,0,.83-4,3.91,3.91,0,0,0-1.71-3.52c1.09-.81.63-2.51.06-3.74C474.42,349.24,473.46,347.22,471.76,345.91Z"/><path class="cls-2" d="M102.07,228c-2.22.43-3.92,2.16-5.82,3.37-2.91,1.85-6.4,2.52-9.82,3a121.39,121.39,0,0,1-54.56-4.66c-3.89-1.26-8.37-3.54-8.66-7.62S27.34,215,31.4,215s7.79,2,11.51,3.6c23.7,10.19,53.71,3,70.17-16.92,2.58-3.11,8.24-1.23,9.75,2.51s0,8.06-2.22,11.43A29.14,29.14,0,0,1,102.07,228Z"/><path class="cls-2" d="M339.06,186.24a116.76,116.76,0,0,1-44.3,6.66,18.12,18.12,0,0,1-7.69-1.57c-2.34-1.23-4.21-3.69-4-6.32.26-2.82,2.86-4.95,5.59-5.67s5.62-.38,8.44-.19a71.49,71.49,0,0,0,40.38-9.45c3.07-1.78,6.11-3.91,7.84-7,2.16-3.89,2-8.85,4.56-12.48a8.8,8.8,0,0,1,9.56-3.43c4.25,1.39,6.5,6.36,6.12,10.81s-2.78,8.46-5.32,12.14c-2.81,4.08-5.93,8-9.93,11A43.88,43.88,0,0,1,339.06,186.24Z"/><path class="cls-2" d="M161.13,171a21.19,21.19,0,0,1-7.56-3.94c-2.12-1.92-3.53-4.85-3-7.65s3.61-5.07,6.35-4.22a111.82,111.82,0,0,0,32.13,5.09c8.09.09,16.79-1,22.86-6.3,2.35-2.07,4.18-4.7,6.62-6.67s5.84-3.24,8.71-2c3.23,1.41,4.51,5.62,3.6,9s-3.48,6.12-6.19,8.38C207.54,177,182.26,178.22,161.13,171Z"/><path class="cls-2" d="M402.62,334.56c3.71,2.72,2.26,9.33-1.89,11.32s-3.92,8.11-3.52,12.84A52.81,52.81,0,0,1,396,374.95c-.95,4.12-1.89,9.52,1.77,11.64,3.46,2,2.95,7.57,0,10.29s-7.15,3.35-11.11,3.85c-3,.38-6.06.74-8.85-.33s-5.08-4.06-4.29-6.94a15.82,15.82,0,0,1,6.89-7.31c1.66-.88,1.9-3.12,1.94-5l.48-24c.07-3.53.13-7.15-1-10.5-.94-2.84-2.69-5.4-3.35-8.32s.27-6.59,3.09-7.6c3-1.08,6,1.38,9.14,2.14C394.73,333.84,399.37,332.17,402.62,334.56Z"/><path class="cls-2" d="M194.76,139.2c.4,1.91,1.62,3.57,2,5.48a6.69,6.69,0,0,1-11.86,5.47,13.46,13.46,0,0,1-2-5.5l-5-23.41c-.67-3.14-1.33-6.44-.41-9.52s4-5.77,7.13-5.08c3.62.79,5,5.14,5.62,8.8.68,4.13,1.18,8.33,2.7,12.23a22.41,22.41,0,0,1,1.71,5C194.95,134.85,194.32,137.07,194.76,139.2Z"/></g></g></svg>