<svg xmlns="http://www.w3.org/2000/svg" viewBox="0 0 156.47 156.47"><defs><style>.cls-1{fill:#fff;}.cls-2{fill:#010101;}.cls-3{fill:none;}.cls-4{font-size:22.38px;fill:#231f20;font-family:FuturaPT-Book, Futura PT;}.cls-5{letter-spacing:-0.02em;}.cls-6{letter-spacing:0.03em;}</style></defs><title>embroideries_square</title><g id="Layer_2" data-name="Layer 2"><g id="Layer_1-2" data-name="Layer 1"><rect class="cls-1" width="156.47" height="156.47"/><path class="cls-2" d="M14.15,54.95a2.88,2.88,0,0,1,2.44,2.16,2.15,2.15,0,0,1-1.77,2.51c-.6,0-1.33-.56-1-1.05.63.81,2.14.27,2.35-.74a2.2,2.2,0,0,0-1.58-2.34A3.34,3.34,0,0,0,10.54,58,4,4,0,0,0,13,62.27a5,5,0,0,0,5-1c.71-.62,1.31-1.46,2.22-1.71s1.92.19,2.89.3c2.15.23,4.1-1.25,5.57-2.84A8.12,8.12,0,0,0,31,52.6c.18-1.7-.82-3.63-2.5-3.95a3.11,3.11,0,0,0-3.38,2.25,2.65,2.65,0,0,0,.62,2.6,1.83,1.83,0,0,0,2.52,0,1.41,1.41,0,0,0-.64-2.23.77.77,0,0,1,1.07-.07,1.35,1.35,0,0,1,.42,1.08,2.33,2.33,0,0,1-3.43,1.82,2.89,2.89,0,0,1-1.09-2.86,3.7,3.7,0,0,1,2.07-2.77,3.3,3.3,0,0,1,3.39.42c1.73,1.43,1.38,4.16.63,6.27,1.65-.92,3.71,0,5.23,1.18s3.12,2.5,5,2.4c1.6-.08,2.94-1.21,4.47-1.69A5.71,5.71,0,0,1,51.48,59c1.28,1.68,3.34,2.54,5.29,3.33a13.28,13.28,0,0,0,3.56,1.06,4.48,4.48,0,0,0,3.48-1,5.37,5.37,0,0,1-5.25-2.23,3,3,0,0,1-.59-2,1.63,1.63,0,0,1,1.4-1.43c.87,0,1.56.82,1.71,1.68a1.17,1.17,0,0,1-.16,1,.53.53,0,0,1-.85,0,1.18,1.18,0,1,0-1.4-1.86,2,2,0,0,0,.06,2.31,4.92,4.92,0,0,0,5.63,2c1.64-.56,2.86-2,4.48-2.59a6.06,6.06,0,0,1,5.74,1,9.06,9.06,0,0,1,3.08,5.13A7.9,7.9,0,0,0,75,61.5a4,4,0,0,0-4.33.1A3.16,3.16,0,0,0,69.37,65a2.25,2.25,0,0,0,3.1,1.36,1.26,1.26,0,0,0,.67-1.13.77.77,0,0,0-1-.67c.38-.46,1.23-.16,1.4.41a1.48,1.48,0,0,1-.67,1.54,2.67,2.67,0,0,1-3.77-1.14,3.4,3.4,0,0,1,1.17-4,4.7,4.7,0,0,1,4.29-.49,5.19,5.19,0,0,0-7.44,0c-1.52,1.73-1.66,4.24-2.47,6.4a5,5,0,0,1-1.36,2.13,3,3,0,0,1-3.6.23,2.55,2.55,0,0,1-.63-3.43,2.2,2.2,0,0,1,3.35-.12,1.25,1.25,0,0,1,.09,1.53c-.36.42-1.24.23-1.25-.32.24.4.94.2,1.06-.24a1.08,1.08,0,0,0-.58-1.15A1.9,1.9,0,0,0,59.14,67a2.23,2.23,0,0,0,1.29,2.64,2.7,2.7,0,0,0,2.94-.74,6,6,0,0,0,1.06-2.15l1.84-5.5c-1.65,1.26-3.48,2.57-5.55,2.55a14.89,14.89,0,0,0-2.77-.12c-2.5.46-3.27,3.68-5.22,5.32a12.12,12.12,0,0,1,5.14-5.93,18.35,18.35,0,0,0-5-1.79c.71,1.4.11,3.09-.67,4.45s-2,2.9-3.68,3.2a3.46,3.46,0,0,1-3-5.94L40.3,65.7a8,8,0,0,1-2.75,1,2.72,2.72,0,0,1-2.59-1,2.36,2.36,0,0,1,.37-2.81A3.31,3.31,0,0,1,38.15,62a1.8,1.8,0,0,1,1.66,1.26c.12.73-1,1.39-1.4.76.49.24,1-.49.77-1a1.5,1.5,0,0,0-1.39-.68,2.86,2.86,0,0,0-2.15.85,2,2,0,0,0-.32,2.21,2.22,2.22,0,0,0,2.18.94,6.54,6.54,0,0,0,2.33-.88l5-2.67a7,7,0,0,1,3-1,2.38,2.38,0,0,1,2.45,1.58c.24,1-.92,2.19-1.85,1.7a1.46,1.46,0,0,0,1-2.4,1.94,1.94,0,0,0-1.27-.43,3.16,3.16,0,1,0,.26,6.3,4.11,4.11,0,0,0,2-.87A5.76,5.76,0,0,0,46,57.35a3.05,3.05,0,0,0-1.56.65,10.11,10.11,0,0,0-1.38,2.33c-.49.76-1.66,1.29-2.27.62a4.55,4.55,0,0,0,3-2.94c-3.53,2.58-8.4,2-12.65,1,3.16-.44,6.58,1.43,9.43,0-3.29.15-5.59-4.48-8.8-3.79-1.52.33-2.5,1.75-3.63,2.82a9.42,9.42,0,0,1-5.27,2.49A3,3,0,0,1,21.07,66a2.13,2.13,0,0,1-2-2.08c.1-1.06,1.76-1.64,2.3-.73-.72-.61-1.94.36-1.71,1.28A1.87,1.87,0,0,0,22,65.63a2.87,2.87,0,0,0,1.43-4.32,3.2,3.2,0,0,0-4.71-.11,5.46,5.46,0,0,1-5.43,1.66A4.5,4.5,0,0,1,10,58.36,3.84,3.84,0,0,1,14.15,54.95Z"/><path class="cls-2" d="M146.43,58.36a4.5,4.5,0,0,1-3.21,4.5,5.46,5.46,0,0,1-5.43-1.66,3.2,3.2,0,0,0-4.71.11,2.87,2.87,0,0,0,1.43,4.32,1.87,1.87,0,0,0,2.29-1.13c.23-.92-1-1.89-1.71-1.28.54-.92,2.2-.33,2.3.73a2.13,2.13,0,0,1-2,2.08,3,3,0,0,1-1.86-5.47,9.42,9.42,0,0,1-5.27-2.49c-1.13-1.07-2.11-2.49-3.63-2.82-3.22-.69-5.52,3.93-8.8,3.79,2.86,1.41,6.28-.47,9.43,0-4.25,1-9.12,1.58-12.65-1a4.55,4.55,0,0,0,3,2.94c-.61.68-1.78.15-2.27-.62A10.11,10.11,0,0,0,112,58a3.05,3.05,0,0,0-1.56-.65,5.76,5.76,0,0,0-4.4,10.28,4.11,4.11,0,0,0,2,.87,3.16,3.16,0,1,0,.26-6.3,1.94,1.94,0,0,0-1.27.43,1.46,1.46,0,0,0,1,2.4c-.93.49-2.09-.68-1.85-1.7a2.38,2.38,0,0,1,2.45-1.58,7,7,0,0,1,3,1l5,2.67a6.54,6.54,0,0,0,2.33.88,2.22,2.22,0,0,0,2.18-.94,2,2,0,0,0-.32-2.21,2.86,2.86,0,0,0-2.15-.85,1.5,1.5,0,0,0-1.39.68c-.23.49.28,1.22.77,1-.39.63-1.52,0-1.4-.76A1.8,1.8,0,0,1,118.32,62a3.31,3.31,0,0,1,2.82.87,2.36,2.36,0,0,1,.37,2.81,2.72,2.72,0,0,1-2.59,1,8,8,0,0,1-2.75-1L110.9,63a3.46,3.46,0,0,1-3,5.94c-1.65-.3-2.85-1.74-3.68-3.2s-1.38-3.05-.67-4.45a18.35,18.35,0,0,0-5,1.79A12.12,12.12,0,0,1,103.75,69c-1.95-1.63-2.72-4.86-5.22-5.32a14.89,14.89,0,0,0-2.77.12c-2.08,0-3.9-1.3-5.55-2.55L92,66.74a6,6,0,0,0,1.06,2.15,2.7,2.7,0,0,0,2.94.74A2.23,2.23,0,0,0,97.33,67a1.9,1.9,0,0,0-2.62-1.06,1.08,1.08,0,0,0-.58,1.15c.13.44.83.64,1.06.24,0,.55-.88.74-1.25.32A1.25,1.25,0,0,1,94,66.11a2.2,2.2,0,0,1,3.35.12,2.55,2.55,0,0,1-.63,3.43,3,3,0,0,1-3.6-.23,5,5,0,0,1-1.36-2.13c-.81-2.16-.95-4.67-2.47-6.4a5.19,5.19,0,0,0-7.44,0,4.7,4.7,0,0,1,4.29.49,3.4,3.4,0,0,1,1.17,4,2.67,2.67,0,0,1-3.77,1.14A1.48,1.48,0,0,1,82.91,65c.17-.57,1-.87,1.4-.41a.77.77,0,0,0-1,.67A1.26,1.26,0,0,0,84,66.34,2.25,2.25,0,0,0,87.1,65a3.16,3.16,0,0,0-1.33-3.38,4,4,0,0,0-4.33-.1,7.9,7.9,0,0,0-2.65,3.88,9.06,9.06,0,0,1,3.08-5.13,6.06,6.06,0,0,1,5.74-1c1.62.62,2.84,2,4.48,2.59a4.92,4.92,0,0,0,5.63-2,2,2,0,0,0,.06-2.31,1.18,1.18,0,1,0-1.4,1.86.53.53,0,0,1-.85,0,1.17,1.17,0,0,1-.16-1c.16-.86.84-1.73,1.71-1.68a1.63,1.63,0,0,1,1.4,1.43,3,3,0,0,1-.59,2,5.37,5.37,0,0,1-5.25,2.23,4.48,4.48,0,0,0,3.48,1,13.28,13.28,0,0,0,3.56-1.06c2-.79,4-1.65,5.29-3.33A5.71,5.71,0,0,1,111,57.06c1.53.47,2.87,1.6,4.47,1.69,1.89.1,3.49-1.27,5-2.4s3.58-2.1,5.23-1.18c-.75-2.11-1.1-4.84.63-6.27a3.3,3.3,0,0,1,3.39-.42,3.7,3.7,0,0,1,2.07,2.77,2.89,2.89,0,0,1-1.09,2.86,2.33,2.33,0,0,1-3.43-1.82,1.35,1.35,0,0,1,.42-1.08.77.77,0,0,1,1.07.07,1.41,1.41,0,0,0-.64,2.23,1.83,1.83,0,0,0,2.52,0,2.65,2.65,0,0,0,.62-2.6,3.11,3.11,0,0,0-3.38-2.25c-1.68.32-2.68,2.25-2.5,3.95A8.12,8.12,0,0,0,127.83,57c1.47,1.59,3.42,3.07,5.57,2.84,1-.1,1.95-.55,2.89-.3s1.51,1.09,2.22,1.71a5,5,0,0,0,5,1A4,4,0,0,0,145.93,58a3.34,3.34,0,0,0-4.07-2.47,2.2,2.2,0,0,0-1.58,2.34c.21,1,1.72,1.55,2.35.74.34.49-.38,1.1-1,1.05a2.15,2.15,0,0,1-1.77-2.51,2.88,2.88,0,0,1,2.44-2.16A3.84,3.84,0,0,1,146.43,58.36Z"/><polygon class="cls-3" points="80.25 53.98 78.51 51.39 78.51 61.09 80.25 53.98"/><polygon class="cls-3" points="74.5 56.76 77.82 61.73 76.04 54.45 74.5 56.76"/><polygon class="cls-3" points="78.1 51.39 76.36 53.98 78.1 61.09 78.1 51.39"/><polygon class="cls-3" points="80.56 54.45 78.79 61.73 82.11 56.76 80.56 54.45"/><polygon class="cls-2" points="78.1 51.39 76.36 53.98 76.36 53.98 78.1 51.39 78.1 51.39"/><polygon class="cls-2" points="82.11 56.76 78.79 61.73 78.5 62.91 82.61 56.76 80.7 53.91 80.56 54.45 82.11 56.76"/><polygon class="cls-2" points="74.5 56.76 76.04 54.45 75.91 53.91 73.99 56.76 78.11 62.91 77.82 61.73 74.5 56.76"/><polygon class="cls-2" points="76.36 53.98 76.04 54.45 77.82 61.73 78.1 62.14 78.1 61.09 76.36 53.98"/><polygon class="cls-2" points="75.91 53.91 75.91 53.91 78.3 50.33 75.91 53.91"/><polygon class="cls-2" points="78.51 51.39 78.51 51.39 80.25 53.98 78.51 61.09 78.51 62.14 78.79 61.73 80.56 54.45 78.51 51.39"/><polygon class="cls-2" points="80.7 53.91 78.3 50.33 80.7 53.91 80.7 53.91"/><polygon class="cls-2" points="76.36 53.98 76.36 53.98 78.1 51.39 78.1 50.7 78.51 50.7 78.51 51.39 80.56 54.45 80.7 53.91 78.3 50.33 75.91 53.91 76.04 54.45 76.36 53.98"/><polygon class="cls-2" points="78.5 62.91 78.79 61.73 78.51 62.14 78.51 62.82 78.1 62.82 78.1 62.14 77.82 61.73 78.11 62.91 78.3 63.2 78.5 62.91"/><polygon class="cls-2" points="78.1 51.39 78.1 61.09 78.3 61.95 78.51 61.09 78.51 51.39 78.3 51.08 78.1 51.39"/><polygon class="cls-2" points="78.3 51.08 78.1 51.39 78.1 51.39 78.3 51.08"/><polygon class="cls-2" points="78.3 61.95 78.1 61.09 78.1 62.14 78.3 62.45 78.51 62.14 78.51 61.09 78.3 61.95"/><polygon class="cls-2" points="78.51 51.39 78.51 51.39 78.3 51.08 78.51 51.39"/><polygon class="cls-2" points="78.51 51.39 78.51 50.7 78.1 50.7 78.1 51.39 78.3 51.08 78.51 51.39"/><polygon class="cls-2" points="78.1 62.14 78.1 62.82 78.51 62.82 78.51 62.14 78.3 62.45 78.1 62.14"/><text class="cls-4" transform="translate(27.98 105.65)">Emb<tspan class="cls-5" x="37.89" y="0">r</tspan><tspan x="43.98" y="0">oide</tspan><tspan class="cls-6" x="82.89" y="0">r</tspan><tspan x="90.21" y="0">y</tspan></text></g></g></svg>