<svg xmlns="http://www.w3.org/2000/svg" viewBox="0 0 866.35 866.35"><defs><style>.cls-1{fill:#fff;stroke:#231f20;stroke-miterlimit:10;stroke-width:0.92px;}.cls-2{fill:#fbb040;}.cls-3{fill:#f8941d;}</style></defs><title>fysh_bowl_logo</title><g id="Layer_2" data-name="Layer 2"><g id="Layer_1-2" data-name="Layer 1"><rect class="cls-1" x="0.46" y="0.46" width="865.43" height="865.43"/><polygon class="cls-2" points="391.1 147.53 561.39 147.53 476.24 62.38 391.1 147.53"/><polygon class="cls-2" points="530.35 477.54 409.34 598.55 409.34 477.54 530.35 477.54"/><polygon class="cls-2" points="609.78 477.53 534.91 552.4 534.91 477.53 609.78 477.53"/><path class="cls-3" d="M89.19,749.7V651.94h55.35v3.18h-52v43h47.83v3.18H92.57V749.7Z"/><path class="cls-3" d="M192.15,749.7V707l-35.84-55h4.06l33.33,51.35H194l33.26-51.35h4l-35.7,55V749.7Z"/><path class="cls-3" d="M242.06,723.82c.75,14.09,13.89,24.12,31.77,24.12,17.61,0,29.74-10.16,29.74-23.78,0-10.91-7.25-16.94-24.53-21.27L267.74,700c-18.16-4.54-26.35-11.72-26.35-23.64,0-15,14.23-25.81,31.23-25.81,18.16,0,31.84,10.64,32.45,24.46h-3.39c-.61-12.2-12.94-21.34-29.06-21.34-15.31,0-27.85,9.49-27.85,22.7,0,10.43,7.59,16.4,24.05,20.46L280,699.64c18.5,4.61,27,11.72,27,24.39,0,15.65-13.41,27-33.26,27s-34.28-11.38-35-27.23Z"/><path class="cls-3" d="M391.63,749.7V701.06H327.41V749.7H324V651.94h3.39v45.93h64.23V651.94H395V749.7Z"/><path class="cls-3" d="M416.82,749.7V651.94h31.37c17,0,28.59,9.55,28.59,23.64,0,12.06-7.59,20.93-19.92,23.37v.27c14,1.42,25.14,10.3,25.14,24.8,0,15.65-12.47,25.68-32.93,25.68Zm3.39-51.83h27.1c15.65,0,26.08-8.67,26.08-22.22,0-12.4-10.16-20.6-25.47-20.6H420.2Zm28.73,48.71c18.5,0,29.67-8.87,29.67-22.63,0-14.09-11.65-23-31.1-23H420.2v45.6Z"/><path class="cls-3" d="M581,700.79c0,30.83-16.73,50.27-43.09,50.27s-43.09-19.44-43.09-50.27,16.73-50.2,43.09-50.2S581,670.1,581,700.79Zm-82.79,0c0,28.73,15.45,47.09,39.7,47.09s39.7-18.36,39.7-47.09-15.51-47-39.7-47S498.16,672.06,498.16,700.79Z"/><path class="cls-3" d="M619.89,749.7h-2.78l-27.51-97.76h3.52L618.47,743h.27l26.83-91.05h2.91L675.24,743h.34l25.34-91.05h3.46L676.87,749.7h-2.71l-27-90.65h-.34Z"/><path class="cls-3" d="M776.51,749.7H720.61V651.94H724v94.58h52.51Z"/><polygon class="cls-3" points="620.54 147.17 572.34 147.17 572.33 147.17 368.14 147.17 241.96 281.28 241.96 281.42 241.96 281.42 241.96 281.28 108.64 147.96 89.19 167.41 108.64 312.75 108.64 312.75 89.18 458.09 108.64 477.55 241.96 344.22 241.96 344.2 241.96 344.2 241.96 344.23 368.14 477.53 572.34 477.53 650.32 477.53 776.51 351.35 620.54 147.17"/></g></g></svg>