<svg xmlns="http://www.w3.org/2000/svg" viewBox="0 0 750 750"><defs><style>.cls-1{fill:#efb065;}.cls-2{font-size:117.65px;fill:#fff;font-family:Code-Light, Code Light;letter-spacing:0.04em;}.cls-3{letter-spacing:0.02em;}.cls-4{fill:#a5a4a4;}.cls-4,.cls-6{stroke:#fff;}.cls-4,.cls-5,.cls-6{stroke-miterlimit:10;}.cls-5,.cls-6{fill:none;stroke-width:2px;}.cls-5{stroke:#a5a4a4;}</style></defs><title>game_and_watch_square</title><g id="Layer_2" data-name="Layer 2"><g id="Layer_1-2" data-name="Layer 1"><rect class="cls-1" width="750" height="750"/><text class="cls-2" transform="translate(122.91 417.63)"><tspan xml:space="preserve">C  M</tspan><tspan class="cls-3" x="269.76" y="0">r</tspan><tspan x="334.58" y="0">on</tspan></text><polygon class="cls-4" points="275.29 384.9 275.29 414.74 279.66 421.52 284.03 414.74 284.03 384.9 279.63 378.08 275.29 384.9"/><polygon class="cls-4" points="231.51 384.9 231.51 414.74 235.88 421.52 240.25 414.74 240.25 384.9 235.85 378.08 231.51 384.9"/><polygon class="cls-4" points="275.29 341.46 275.29 371.3 279.66 378.08 284.03 371.3 284.03 341.46 279.63 334.63 275.29 341.46"/><polygon class="cls-4" points="242.86 339.01 272.7 339.01 279.48 334.63 272.7 330.26 242.86 330.26 236.04 334.66 242.86 339.01"/><polygon class="cls-4" points="242.86 382.45 272.7 382.45 279.48 378.08 272.7 373.7 242.86 373.7 236.04 378.11 242.86 382.45"/><polygon class="cls-4" points="231.51 341.46 231.51 371.3 235.88 378.08 240.25 371.3 240.25 341.46 235.85 334.63 231.51 341.46"/><rect class="cls-4" x="254.2" y="434.47" width="5.52" height="67.4"/><path class="cls-4" d="M330.59,524.42c-1.15-5.48-5.23-9.74-10-10.56-4-.67-7.21,1-10.2,3.27q-3.77,2.88-7.33,6c-1.18,1-1.84.92-2.84-.25-12.23-14.26-32.11-17.36-47.83-11.73-.37.13-.72.28-1.08.42V495.08L276,494c11.84-5.55,10.13-21.26,8.7-31.34-1.41-9.91-14.84-7.34-13.34-8.18,0,0-16.51.14-27.39,2.87s-12.22,12.34-12.22,12.34-.86,10.62,2.73,17.37c1.76,3.3,5.81,5.29,9.5,6.47v22c-6.18,4.37-10.33,10.58-12.91,18.24a44.06,44.06,0,0,0,1.26,32.78c4.63,10.54,13,16.61,23.88,19.52l3.19.84a52.64,52.64,0,0,0,10.35,1c14.13-.84,25.69-6.15,33.22-19.32-3.39.76-6.3,1.54-9.25,2a41.71,41.71,0,0,1-7.25.58c-5.62-.07-8.64-3-9.28-8.58a13.17,13.17,0,0,1,11-14.9,33.76,33.76,0,0,1,17,1.22c.83.29,1.67.52,2.68.83.07-.64.16-1.12.17-1.6.06-4,0-4,4.09-4.91A36,36,0,0,0,325,538C329,535.24,331.59,529.17,330.59,524.42Z"/><path class="cls-5" d="M290.59,320H226.51S220,320,220,326.5v102s-.33,6.06,4.9,6.06h65.72s4.9-.83,4.9-5.73v-103S296.48,320,290.59,320Z"/><path class="cls-6" d="M292.36,317.91H224.82s-6.89,0-6.89,6.77V430.23s-.34,6.27,5.17,6.27h69.26s5.17-.86,5.17-5.93V324S298.57,317.91,292.36,317.91Z"/><path class="cls-6" d="M288.95,321.42H228.08s-6.21,0-6.21,6.37v99.41s-.31,5.91,4.66,5.91h62.42s4.66-.81,4.66-5.59V327.15S294.54,321.42,288.95,321.42Z"/></g></g></svg>