<svg xmlns="http://www.w3.org/2000/svg" viewBox="0 0 724.64 724.64"><defs><style>.cls-1{fill:#fff;}.cls-2{fill:#231f20;}.cls-3{fill:none;}</style></defs><title>gd_fonts_square</title><g id="Layer_2" data-name="Layer 2"><g id="Layer_1-2" data-name="Layer 1"><rect class="cls-1" width="724.64" height="724.64"/><path class="cls-2" d="M118.39,194.92c-4.85,0-9.57,2.81-13.23,6.09-3.92,3.51-8,8.14-7.73,13.56s5.28,7.87,10.24,8.94c6.49,1.41,11,2.39,13.39,4.59,3.29,3-.38,6.2-1.79,7.36s-4,2.51-5.67,2.34a8.07,8.07,0,0,1-4.93-1.78,20.47,20.47,0,0,1-2.19-3H96.95c0,3.93,2,6.79,4.71,9.47a16.74,16.74,0,0,0,11.93,4.82,19.22,19.22,0,0,0,13.54-5.68c3-2.91,6.31-5.82,6.56-11,.2-4-2.28-7.27-6.9-10.63a27.49,27.49,0,0,0-13.32-5.4c-6-.87-5.51-3.45-2.37-6.13,3.71-3.17,9-5.55,12.42-2.12,2.07,2.07,2,2.86,2,2.86h9.53c0-4.3-2.81-7.77-6.13-10.89C126.41,195.95,121.89,194.92,118.39,194.92Z"/><path class="cls-2" d="M177.34,209c-3.41-3.41-8.9-4.76-14.29-4.76s-11.21,1.68-14.2,4.67S144,218.38,144,225.69s1.44,13.36,4.66,16.58,8.05,4.87,14.4,4.87h9.53v19.06h9.53V228.05C182.1,219.05,180.74,212.42,177.34,209Zm-7.15,26.21c-1.68,1.68-4.25,2.38-7.15,2.38s-5.31-.54-7.15-2.38-2.38-5.13-2.38-9.53.75-7.9,2.38-9.53,4.58-2.38,7.15-2.38,5.33.56,7.15,2.38,2.38,4.75,2.38,9.53S171.87,233.54,170.19,235.22Z"/><path class="cls-2" d="M201.16,204.24h-9.53v21.44c0,8.45,1,13,4.76,16.68s7.62,4.76,14.29,4.76,10.85-1.32,14.2-4.67,4.86-8.82,4.86-16.77V204.24h-9.53v21.44c0,4.48-.48,7.63-2.38,9.53s-4.12,2.38-7.15,2.38-5.27-.51-7.15-2.38-2.38-4.84-2.38-9.53Z"/><path class="cls-2" d="M272.69,209.06c-2.93-2.93-7.28-4.82-14.35-4.82S246.89,206.16,244,209s-4.75,5.63-4.75,9.52h9.53c3.17-3.17,6.13-4.76,9.53-4.76s5.76,1,7.15,2.38a10.56,10.56,0,0,1,1.89,2.38h-9c-5.08,0-10.71,1.18-14.31,4.78s-4.75,6.3-4.75,9.48,1.51,6.31,4.76,9.56,7.72,4.77,14.3,4.77,11.11-1.58,14.3-4.77,4.76-6.21,4.76-9.52v-14.3C277.4,215.36,275.61,212,272.69,209.06Zm-7.21,26.15c-1.49,1.49-4,2.39-7.14,2.39s-5.52-.75-7.19-2.43-1.66-3,0-4.66,4.52-2.45,7.19-2.45,5.63.86,7.14,2.38A3.08,3.08,0,0,1,265.48,235.21Z"/><path class="cls-2" d="M510,204.24v9.53l4.76-4.76c2.7-2.7,5.79-4.76,9.46-4.76s6.76,2.07,9.6,4.76a18.21,18.21,0,0,1,4.76,9.53H529c-2.73-5-4.54-5.71-8.68-1.57S510,228.07,510,228.07v19.06h-9.53V204.24Z"/><path class="cls-2" d="M296.46,203.22v9.53l4.76-4.76c2.7-2.7,5.79-4.76,9.46-4.76s6.76,2.07,9.6,4.76a18.21,18.21,0,0,1,4.76,9.53h-9.53c-2.73-5-4.54-5.71-8.68-1.57S296.46,227,296.46,227V246.1h-9.53V203.22Z"/><path class="cls-2" d="M554.53,204.24v9.53l4.76-4.76c2.7-2.7,5.79-4.76,9.46-4.76s6.76,2.07,9.6,4.76a18.21,18.21,0,0,1,4.76,9.53h-9.53c-2.73-5-4.54-5.71-8.68-1.57s-10.38,11.1-10.38,11.1v19.06H545V204.24Z"/><path class="cls-2" d="M357.68,235.25c-1.62,1.62-4.17,2.35-7.12,2.35s-5.47-.71-7.12-2.36S341,231.12,341,228.1h19.08c3,0,5.38-.65,7.14-2.41s2.38-3.95,2.38-7.15-1.1-5.86-4.69-9.46-8.13-4.84-14.37-4.84-11.38,1.85-14.28,4.75-4.78,6.48-4.78,9.59v14.25c0,3.36,1.45,6.21,4.74,9.51s8.2,4.79,14.32,4.79,11.2-1.67,14.31-4.78,4.75-6.38,4.75-9.51h-9.53Zm-14.24-19.09c1.33-1.33,4.21-2.38,7.12-2.38s6,1.2,7.15,2.38.1,2.38-2.37,2.38h-9.56C343.3,218.54,342.11,217.48,343.44,216.16Z"/><path class="cls-2" d="M479,236.27c-1.62,1.62-4.17,2.35-7.12,2.35s-5.47-.71-7.12-2.36-2.42-4.12-2.42-7.14h19.08c3,0,5.38-.65,7.14-2.41s2.38-3.95,2.38-7.15-1.1-5.86-4.69-9.46-8.13-4.84-14.37-4.84-11.38,1.85-14.28,4.75-4.78,6.48-4.78,9.59v14.25c0,3.36,1.45,6.21,4.74,9.51s8.2,4.79,14.32,4.79,11.2-1.67,14.31-4.78,4.75-6.38,4.75-9.51h-9.53Zm-14.24-19.09c1.33-1.33,4.21-2.38,7.12-2.38s6,1.2,7.15,2.38.1,2.38-2.37,2.38H467C464.58,219.56,463.39,218.51,464.72,217.18Z"/><path class="cls-2" d="M443.25,209.1v-4.86c0-3.38-.81-5.58-2.33-7.1a10.19,10.19,0,0,0-7.17-2.43H405.13v52.41H429c3.24,0,6.54-1.78,9.48-4.72a16.12,16.12,0,0,0,4.81-11.95,15.64,15.64,0,0,0-4.76-11.92l1.22-1.22A11.4,11.4,0,0,0,443.25,209.1Zm-11.92,26.1a10.24,10.24,0,0,1-7.14,2.4h-9.43v-9.53l14.21,0c2.73,0,4.79.77,4.79,2.42A7.08,7.08,0,0,1,431.33,235.2Zm-2.42-21.41c-3,3-6.49,4.75-9.47,4.75h-4.68V204.26H429c2.63,0,4.79.26,4.79,2.32S431.87,210.82,428.91,213.78Z"/><path class="cls-2" d="M618.16,204.24v23.82c0,3.34-.78,5.54-2.38,7.15s-3.69,2.38-7.15,2.38l-4.76-4.76a18.45,18.45,0,0,1-4.76-11.59v-17c-6,6-9.53,10.6-9.53,19s4.53,14.13,10.6,20.2l8.46,8.46c2.81,2.81,3.38,4.76,0,4.76h-9.41c-3.59,0-5.62.74-7.27,2.38s-2.38,4.13-2.38,7.15h23.82c3.16,0,5.54-.78,7.15-2.38a9.77,9.77,0,0,0,2.38-7c0-2.83-.26-5.2-2.36-7.3l-2.41-2.41,4.76-4.76a16.48,16.48,0,0,0,4.76-12.25v-7.25C627.69,216.06,623.94,210,618.16,204.24Z"/><rect class="cls-2" x="180.88" y="324.23" width="8.21" height="49.24"/><rect class="cls-2" x="189.08" y="316.02" width="24.62" height="8.21"/><rect class="cls-2" x="213.7" y="324.23" width="8.21" height="8.21"/><rect class="cls-2" x="189.08" y="373.46" width="8.21" height="8.21"/><rect class="cls-2" x="197.29" y="381.67" width="16.41" height="8.21"/><rect class="cls-2" x="213.7" y="389.88" width="8.21" height="8.21"/><rect class="cls-2" x="189.08" y="398.08" width="24.62" height="8.21"/><rect class="cls-2" x="180.88" y="389.88" width="8.21" height="8.21"/><rect class="cls-2" x="230.12" y="316.02" width="8.21" height="82.06"/><rect class="cls-2" x="238.32" y="398.08" width="8.21" height="8.21"/><rect class="cls-2" x="254.73" y="340.64" width="8.21" height="65.65"/><rect class="cls-2" x="254.73" y="316.02" width="8.21" height="8.21"/><rect class="cls-2" x="271.15" y="348.84" width="8.21" height="57.44"/><rect class="cls-2" x="279.35" y="340.64" width="24.62" height="8.21"/><rect class="cls-2" x="303.97" y="348.84" width="8.21" height="57.44"/><rect class="cls-2" x="312.18" y="340.64" width="24.62" height="8.21"/><rect class="cls-2" x="336.8" y="348.84" width="8.21" height="57.44"/><rect class="cls-2" x="369.62" y="324.23" width="8.21" height="73.86"/><rect class="cls-2" x="377.83" y="381.67" width="24.62" height="8.21"/><rect class="cls-2" x="377.83" y="398.08" width="24.62" height="8.21"/><rect class="cls-2" x="402.45" y="389.88" width="8.21" height="8.21"/><rect class="cls-2" x="402.45" y="324.23" width="8.21" height="57.44"/><rect class="cls-2" x="377.83" y="316.02" width="24.62" height="8.21"/><rect class="cls-2" x="427.07" y="398.08" width="24.62" height="8.21"/><rect class="cls-2" x="476.3" y="398.08" width="24.62" height="8.21"/><rect class="cls-2" x="418.86" y="348.84" width="8.21" height="49.24"/><rect class="cls-2" x="427.07" y="365.26" width="24.62" height="8.21"/><rect class="cls-2" x="451.68" y="348.84" width="8.21" height="16.41"/><rect class="cls-2" x="427.07" y="340.64" width="24.62" height="8.21"/><rect class="cls-2" x="468.1" y="373.46" width="8.21" height="24.62"/><rect class="cls-2" x="476.3" y="365.26" width="24.62" height="8.21"/><rect class="cls-2" x="500.92" y="348.84" width="8.21" height="49.24"/><rect class="cls-2" x="476.3" y="340.64" width="24.62" height="8.21"/><rect class="cls-2" x="468.1" y="348.84" width="8.21" height="8.21"/><rect class="cls-2" x="517.33" y="348.84" width="8.21" height="57.44"/><rect class="cls-2" x="525.54" y="340.64" width="24.62" height="8.21"/><rect class="cls-2" x="550.16" y="348.84" width="8.21" height="57.44"/><polygon class="cls-3" points="444.87 513.06 448.97 521.26 488.98 521.26 493.14 512.95 493.14 504.85 448.97 504.85 444.87 513.06"/><polygon class="cls-3" points="616.23 509.07 616.23 504.85 616.23 504.74 616.23 501.89 616.23 500.98 616.23 496.74 616.23 496.64 616.23 493.79 616.23 488.64 612.13 480.44 572.12 480.44 567.96 488.75 567.96 491.11 567.96 492.88 567.96 496.75 567.96 496.85 567.96 497.97 567.96 499.21 567.96 500.98 567.96 504.85 567.96 504.96 567.96 506.06 567.96 513 572.09 521.26 612.07 521.26 616.23 512.95 616.23 509.07"/><polygon class="cls-3" points="374.17 480.23 334.16 480.23 330 488.55 330 496.64 374.17 496.64 378.28 488.44 374.17 480.23"/><polygon class="cls-3" points="288.01 488.44 283.9 480.23 243.89 480.23 239.74 488.55 239.74 496.64 283.9 496.64 288.01 488.44"/><polygon class="cls-3" points="567.93 488.55 567.93 512.95 567.96 513 567.96 506.06 567.96 504.96 567.96 504.85 567.96 500.98 567.96 499.21 567.96 497.97 567.96 496.85 567.96 496.75 567.96 492.88 567.96 491.11 567.96 488.75 572.12 480.44 612.13 480.44 616.23 488.64 616.23 493.79 616.23 496.64 616.23 496.74 616.23 500.98 616.23 501.89 616.23 504.74 616.23 504.85 616.23 509.07 616.23 512.95 612.07 521.26 612.1 521.26 616.26 512.95 616.26 488.55 612.1 480.23 572.09 480.23 567.93 488.55"/><polygon points="99.72 455.61 97.33 455.61 66.89 455.61 66.39 455.61 50.03 488.33 50.03 529.47 50.94 529.47 50.94 504.85 75.1 504.85 75.1 496.64 50.94 496.64 50.94 488.55 63.3 463.82 103.31 463.82 115.68 488.55 115.68 529.47 116.59 529.47 116.59 488.33 100.23 455.61 99.72 455.61"/><polygon points="128.95 480.23 168.96 480.23 173.17 488.64 173.98 488.24 165.65 471.57 132.26 471.57 123.88 488.33 123.88 513.16 132.26 529.93 165.65 529.93 173.98 513.26 173.17 512.85 168.96 521.26 128.95 521.26 124.79 512.95 124.79 488.55 128.95 480.23"/><polygon points="186.4 480.23 226.41 480.23 230.61 488.64 231.43 488.24 223.09 471.57 189.71 471.57 181.33 488.33 181.33 513.16 189.71 529.93 223.09 529.93 231.43 513.26 230.61 512.85 226.41 521.26 186.4 521.26 182.24 512.95 182.24 488.55 186.4 480.23"/><path d="M247.43,504.85h33.33L289,488.44l-8.43-16.87H247.15l-8.38,16.76v24.83l8.38,16.76h33.39l8.33-16.66-.82-.41-4.21,8.41h-40l-4.16-8.31v-8.1Zm-7.7-16.3,4.16-8.31h40l4.1,8.21-4.1,8.21H239.74Z"/><path d="M370.81,471.57H337.42L329,488.33v24.83l8.38,16.76h33.39l8.33-16.66-.82-.41-4.2,8.41h-40L330,512.95v-8.1H371l8.21-16.41ZM330,496.64v-8.1l4.16-8.31h40l4.1,8.21-4.1,8.21Z"/><polygon points="297.13 512.95 297.13 455.61 296.21 455.61 296.21 513.16 304.59 529.93 321.29 529.93 321.29 529.47 321.29 529.01 321.29 521.26 301.28 521.26 297.13 512.95"/><polygon points="510.49 455.61 509.58 455.61 509.58 472.03 501.82 472.03 501.82 480.23 509.58 480.23 509.58 513.16 517.96 529.93 534.65 529.93 534.65 529.47 534.65 529.01 534.65 521.26 514.64 521.26 510.49 512.95 510.49 480.23 534.65 480.23 534.65 472.03 510.49 472.03 510.49 455.61"/><polygon points="394.86 471.57 387.39 486.51 387.39 472.03 386.48 472.03 386.48 529.47 387.39 529.47 387.39 488.55 391.55 480.23 431.56 480.23 435.77 488.64 436.58 488.24 428.25 471.57 394.86 471.57"/><polygon points="543.31 512.95 543.31 472.03 542.4 472.03 542.4 513.16 550.78 529.93 559.27 529.93 559.27 529.47 559.27 529.01 559.27 521.26 547.47 521.26 543.31 512.95"/><rect x="542.86" y="455.61" width="8.21" height="8.21"/><path d="M575.4,471.57,567,488.33v24.83l8.38,16.76h33.39l8.38-16.76V488.33l-8.38-16.76Zm40.86,17v24.4l-4.16,8.31h-40l-4.1-8.21V513l0-.05v-24.4l4.16-8.31h40Z"/><polygon points="666.23 471.57 632.84 471.57 624.46 488.33 624.46 529.47 625.38 529.47 625.38 488.55 629.53 480.23 669.54 480.23 673.7 488.55 673.7 529.47 674.61 529.47 674.61 488.33 666.23 471.57"/><path d="M452.31,471.57,444,488.23l.82.41,4.2-8.41h40l4.16,8.31v7.64H452.31l-8.43,16.87,8.43,16.87h33.39l8.38-16.76V488.33l-8.38-16.76Zm40.83,41.38L489,521.26H449l-4.1-8.21,4.1-8.21h44.17Z"/><polygon class="cls-1" points="567.96 513.06 572.06 521.26 572.09 521.26 567.96 513 567.96 513.06"/></g></g></svg>