<svg xmlns="http://www.w3.org/2000/svg" viewBox="0 0 429.25 429.25"><defs><style>.cls-1,.cls-7{fill:#fff;}.cls-1{stroke:#231f20;stroke-miterlimit:10;}.cls-2{fill:#8e5f4a;}.cls-3{fill:#94adc4;}.cls-4{fill:#c7c8ca;}.cls-5{fill:#627a8c;}.cls-6{fill:#7b7b7b;}.cls-8{fill:none;}.cls-9{fill:#bfbfbf;}.cls-10{fill:#c38a6d;}.cls-11{fill:#436349;}.cls-12{fill:#91b596;}.cls-13{fill:#82aa8b;}.cls-14{fill:#78a383;}.cls-15{fill:#88b27e;}.cls-16{fill:#689676;}.cls-17{fill:#557c60;}</style></defs><title>geofilter_square</title><g id="Layer_2" data-name="Layer 2"><g id="Layer_1-2" data-name="Layer 1"><rect class="cls-1" x="0.5" y="0.5" width="428.25" height="428.25"/><polygon class="cls-2" points="211.35 297.71 211.31 300.3 211.2 307.22 211.04 317.31 210.93 324.04 210.77 333.93 210.65 341.85 210.49 351.74 210.37 359.45 210.23 368.56 395.19 369.12 396.76 270.17 211.35 297.71"/><polygon class="cls-3" points="60.38 281.03 44.99 277.33 44.99 289.67 60.45 292.87 60.38 281.03"/><polygon class="cls-3" points="60.2 252.19 59.02 251.81 45 247.34 45 259.73 60.28 264.09 60.2 252.19"/><polygon class="cls-3" points="60.54 308.8 44.99 306.19 44.99 319.79 60.62 321.87 60.54 308.8"/><polygon class="cls-3" points="44.98 351.12 60.8 351.91 60.72 338.16 44.98 336.74 44.98 351.12"/><polygon class="cls-4" points="60.28 264.09 45 259.73 44.99 277.33 60.38 281.03 60.28 264.09"/><polygon class="cls-4" points="60.45 292.87 44.99 289.67 44.99 306.19 60.54 308.8 60.45 292.87"/><polygon class="cls-4" points="44.99 319.79 44.98 336.74 60.72 338.16 60.62 321.87 44.99 319.79"/><polygon class="cls-3" points="86.14 287.24 73.18 284.11 73.35 295.54 86.23 298.21 86.14 287.24"/><polygon class="cls-3" points="73.6 310.98 73.79 323.62 86.46 325.31 86.36 313.12 73.6 310.98"/><polygon class="cls-3" points="72.92 267.71 86 271.44 85.91 260.37 83.01 259.45 72.74 256.18 72.92 267.71"/><polygon class="cls-3" points="74.25 352.59 86.7 353.22 86.59 340.51 74.04 339.37 74.25 352.59"/><polygon class="cls-4" points="86.14 287.24 86 271.44 72.92 267.71 73.18 284.11 86.14 287.24"/><polygon class="cls-4" points="73.35 295.54 73.6 310.98 86.36 313.12 86.23 298.21 73.35 295.54"/><polygon class="cls-4" points="73.79 323.62 74.04 339.37 86.59 340.51 86.46 325.31 73.79 323.62"/><polygon class="cls-3" points="99.57 341.68 99.77 353.88 112.22 354.51 112.03 342.81 99.57 341.68"/><polygon class="cls-3" points="98.49 275.01 110.96 278.58 110.79 268.29 107.67 267.3 98.31 264.32 98.49 275.01"/><polygon class="cls-3" points="99.14 315.25 99.33 327.02 111.8 328.68 111.61 317.34 99.14 315.25"/><polygon class="cls-3" points="111.38 303.42 111.21 293.27 98.73 290.27 98.91 300.84 111.38 303.42"/><polygon class="cls-4" points="111.21 293.27 110.96 278.58 98.49 275.01 98.73 290.27 111.21 293.27"/><polygon class="cls-4" points="98.91 300.84 99.14 315.25 111.61 317.34 111.38 303.42 98.91 300.84"/><polygon class="cls-4" points="111.8 328.68 99.33 327.02 99.57 341.68 112.03 342.81 111.8 328.68"/><polygon class="cls-3" points="121.49 343.67 121.68 354.98 132.6 355.53 132.31 344.65 121.49 343.67"/><polygon class="cls-3" points="131.34 307.55 131.09 298.06 120.68 295.55 120.85 305.38 131.34 307.55"/><polygon class="cls-3" points="121.08 318.92 121.26 329.94 131.96 331.37 131.68 320.7 121.08 318.92"/><polygon class="cls-3" points="130.73 284.23 130.48 274.56 126.85 273.4 120.27 271.31 120.44 281.29 130.73 284.23"/><polygon class="cls-4" points="131.09 298.06 130.73 284.23 120.44 281.29 120.68 295.55 131.09 298.06"/><polygon class="cls-4" points="131.34 307.55 120.85 305.38 121.08 318.92 131.68 320.7 131.34 307.55"/><polygon class="cls-4" points="121.26 329.94 121.49 343.67 132.31 344.65 131.96 331.37 121.26 329.94"/><polygon class="cls-3" points="137.15 286.06 143.49 287.87 143.17 278.6 141.22 277.98 136.91 276.61 137.15 286.06"/><polygon class="cls-3" points="144.26 310.23 143.95 301.16 137.49 299.6 137.72 308.88 144.26 310.23"/><polygon class="cls-3" points="138.92 355.85 145.85 356.2 145.49 345.85 138.65 345.23 138.92 355.85"/><polygon class="cls-3" points="138.05 321.76 138.32 332.21 145.05 333.11 144.7 322.88 138.05 321.76"/><polygon class="cls-4" points="143.95 301.16 143.49 287.87 137.15 286.06 137.49 299.6 143.95 301.16"/><polygon class="cls-4" points="137.72 308.88 138.05 321.76 144.7 322.88 144.26 310.23 137.72 308.88"/><polygon class="cls-4" points="138.32 332.21 138.65 345.23 145.49 345.85 145.05 333.11 138.32 332.21"/><polygon class="cls-3" points="152.62 324.2 152.72 334.13 160.51 335.17 160.27 325.48 152.62 324.2"/><polygon class="cls-3" points="152.26 290.38 159.43 292.43 159.21 283.71 156.41 282.82 152.17 281.47 152.26 290.38"/><polygon class="cls-3" points="159.97 313.48 159.75 304.96 152.4 303.19 152.49 311.93 159.97 313.48"/><polygon class="cls-4" points="159.75 304.96 159.43 292.43 152.26 290.38 152.4 303.19 159.75 304.96"/><polygon class="cls-4" points="152.49 311.93 152.62 324.2 160.27 325.48 159.97 313.48 152.49 311.93"/><polygon class="cls-3" points="174.4 296.71 174.2 288.48 169.68 287.04 166.49 286.03 166.81 294.54 174.4 296.71"/><polygon class="cls-3" points="174.89 316.57 174.69 308.56 167.27 306.77 167.58 315.06 174.89 316.57"/><polygon class="cls-5" points="169.18 357.38 175.91 357.72 175.68 348.58 168.82 347.96 169.18 357.38"/><polygon class="cls-4" points="174.69 308.56 174.4 296.71 166.81 294.54 167.27 306.77 174.69 308.56"/><polygon class="cls-4" points="167.58 315.06 168.02 326.78 175.17 327.98 174.89 316.57 167.58 315.06"/><polygon class="cls-3" points="187.69 319.23 187.45 311.63 180.88 310.05 181.16 317.87 187.69 319.23"/><polygon class="cls-5" points="182.63 358.06 188.94 358.37 188.67 349.76 182.31 349.18 182.63 358.06"/><polygon class="cls-3" points="187.09 300.33 186.84 292.51 180.16 290.38 180.46 298.44 187.09 300.33"/><polygon class="cls-5" points="181.57 329.05 181.9 338.02 188.32 338.87 188.04 330.13 181.57 329.05"/><polygon class="cls-3" points="186.84 292.51 180.16 290.38 180.16 290.38 186.84 292.51 186.84 292.51"/><polygon class="cls-4" points="187.45 311.63 187.09 300.33 180.46 298.44 180.88 310.05 187.45 311.63"/><polygon class="cls-6" points="181.9 338.02 182.31 349.18 188.67 349.76 188.32 338.87 181.9 338.02"/><polygon class="cls-3" points="198.78 296.31 193.22 294.54 193.56 302.18 199.12 303.77 198.78 296.31"/><polygon class="cls-5" points="194.85 331.27 195.23 339.79 200.77 340.53 200.4 332.19 194.85 331.27"/><polygon class="cls-5" points="201.24 350.9 195.7 350.4 196.07 358.73 197.25 358.79 201.6 359.01 201.24 350.9"/><polygon class="cls-6" points="194.85 331.27 200.4 332.19 199.93 321.76 194.38 320.61 194.85 331.27"/><polygon class="cls-6" points="195.23 339.79 195.7 350.4 201.24 350.9 200.77 340.53 195.23 339.79"/><polygon class="cls-5" points="206.32 351.36 206.55 359.26 208.72 359.37 208.65 351.57 206.32 351.36"/><polygon class="cls-5" points="205.49 322.91 208.38 323.51 208.32 316.66 205.28 315.93 205.49 322.91"/><polygon class="cls-5" points="206.03 341.23 208.55 341.57 208.48 333.55 205.79 333.1 206.03 341.23"/><polygon class="cls-6" points="205.28 315.93 208.32 316.66 208.22 306.37 204.98 305.44 205.28 315.93"/><polygon class="cls-6" points="205.79 333.1 208.48 333.55 208.38 323.51 205.49 322.91 205.79 333.1"/><polygon class="cls-6" points="206.32 351.36 208.65 351.57 208.55 341.57 206.03 341.23 206.32 351.36"/><path class="cls-7" d="M233.68,331.71v.95l-16.38,1.15q-.21,15.19-.42,30.39h-.81q.45-32,.89-64l20.34-3v1L217.74,301q-.22,16-.44,31.92Z"/><path class="cls-7" d="M244.55,296.15q-.45,34-.89,68h-.81q.45-33.95.89-67.9Z"/><path class="cls-7" d="M274,309.38l0,1.24-.81.08,0-1.24c.11-9.08-2.45-16.56-10.44-15.43s-10.68,9-10.86,17.63c-.34,16.36,22.12,18.18,21.73,35.1-.22,9.7-3.29,17.94-11.85,17.91s-11.52-7.79-11.4-17.14l0-3.25.81,0,0,3.25c-.12,8.87,2.53,16.16,10.6,16.16s10.83-7.68,11-16.88c.35-16.63-22.11-18.43-21.73-35,.23-9.86,3.57-17.51,11.68-18.73C271.13,291.77,274.07,299.66,274,309.38Z"/><path class="cls-7" d="M303.73,306.56l-.07,5.81-.81.08.07-5.8c.11-9.74-2.53-17.9-10.6-16.77s-10.92,9.7-11,19q-.23,18.66-.46,37.31c-.11,9.32,2.53,17.48,10.6,17.51s10.92-8.47,11-18.19l.1-8.08.81,0-.1,8.09c-.12,10.28-3.29,19.33-11.85,19.28s-11.52-8.73-11.4-18.55q.23-18.63.46-37.26c.12-9.85,3.29-19,11.85-20.2S303.85,296.26,303.73,306.56Z"/><path class="cls-7" d="M310.76,326.12q-.22,19.12-.44,38.25h-.81q.45-38.78.89-77.56l.81-.11q-.22,19.16-.44,38.31l21.79-1.46q.22-19.94.44-39.87l.81-.11q-.45,40.47-.89,80.95h-.81q.22-19.9.44-39.81Z"/><path class="cls-7" d="M357.84,321.3v1.21l-17.19,1.09q-.22,19.9-.43,39.8l20.34.14c0,.48,0,.73,0,1.21l-21.15-.19q.45-40.94.89-81.88l21.15-2.87V281l-20.34,2.72q-.21,19.34-.42,38.69Z"/><path class="cls-7" d="M378.77,277.48c8.31-1.11,11.38,6.38,11.26,18.48l-.08,8c-.11,11.21-3.08,17.51-9.63,19.39,6.52,1,9.36,7.23,9.26,17.15l-.14,14c0,3.31.16,7.88,1.51,10.57h-1c-1.18-2.94-1.38-7.13-1.35-10.56l.14-14c.14-13.72-5.31-16.85-13.14-16.41l-7.42.42q-.21,20.13-.42,40.26H367q.45-42.94.89-85.88Zm-3.13,45.42c8.39-.5,13.35-4.08,13.5-18.84l.08-8c.11-11.45-2.64-18.34-10.47-17.31l-10.09,1.33q-.22,21.64-.45,43.27Z"/><polygon class="cls-8" points="160.27 325.48 159.97 313.48 159.75 304.96 159.43 292.43 159.21 283.71 156.41 282.82 152.17 281.47 152.26 290.38 152.4 303.19 152.49 311.93 152.62 324.2 152.72 334.13 160.51 335.17 160.27 325.48"/><polygon class="cls-8" points="174.89 316.57 174.69 308.56 174.4 296.71 174.2 288.48 169.68 287.04 166.49 286.03 166.81 294.54 167.27 306.77 167.58 315.06 168.02 326.78 175.17 327.98 174.89 316.57"/><polygon class="cls-8" points="198.78 296.31 193.22 294.54 193.56 302.18 199.12 303.77 198.78 296.31"/><polygon class="cls-8" points="187.45 311.63 187.09 300.33 186.84 292.51 180.16 290.38 180.46 298.44 180.88 310.05 181.16 317.87 187.69 319.23 187.45 311.63"/><polygon class="cls-8" points="205.28 315.93 205.49 322.91 205.79 333.1 206.03 341.23 206.32 351.36 206.55 359.26 208.72 359.37 208.65 351.57 208.55 341.57 208.48 333.55 208.38 323.51 208.32 316.66 208.22 306.37 204.98 305.44 205.28 315.93"/><polygon class="cls-8" points="194.85 331.27 195.23 339.79 195.7 350.4 196.07 358.73 197.25 358.79 201.6 359.01 201.24 350.9 200.77 340.53 200.4 332.19 199.93 321.76 194.38 320.61 194.85 331.27"/><polygon class="cls-8" points="169.18 357.38 175.91 357.72 175.68 348.58 168.82 347.96 169.18 357.38"/><polygon class="cls-8" points="181.9 338.02 182.31 349.18 182.63 358.06 188.94 358.37 188.67 349.76 188.32 338.87 188.04 330.13 181.57 329.05 181.9 338.02"/><polygon class="cls-8" points="60.62 321.87 60.54 308.8 60.45 292.87 60.38 281.03 60.28 264.09 60.2 252.19 59.02 251.81 45 247.34 45 259.73 44.99 277.33 44.99 289.67 44.99 306.19 44.99 319.79 44.98 336.74 44.98 351.12 60.8 351.91 60.72 338.16 60.62 321.87"/><polygon class="cls-8" points="86.46 325.31 86.36 313.12 86.23 298.21 86.14 287.24 86 271.44 85.91 260.37 83.01 259.45 72.74 256.18 72.92 267.71 73.18 284.11 73.35 295.54 73.6 310.98 73.79 323.62 74.04 339.37 74.25 352.59 86.7 353.22 86.59 340.51 86.46 325.31"/><polygon class="cls-8" points="131.96 331.37 131.68 320.7 131.34 307.55 131.09 298.06 130.73 284.23 130.48 274.56 126.85 273.4 120.27 271.31 120.44 281.29 120.68 295.55 120.85 305.38 121.08 318.92 121.26 329.94 121.49 343.67 121.68 354.98 132.6 355.53 132.31 344.65 131.96 331.37"/><polygon class="cls-8" points="111.8 328.68 111.61 317.34 111.38 303.42 111.21 293.27 110.96 278.58 110.79 268.29 107.67 267.3 98.31 264.32 98.49 275.01 98.73 290.27 98.91 300.84 99.14 315.25 99.33 327.02 99.57 341.68 99.77 353.88 112.22 354.51 112.03 342.81 111.8 328.68"/><polygon class="cls-8" points="145.05 333.11 144.7 322.88 144.26 310.23 143.95 301.16 143.49 287.87 143.17 278.6 141.22 277.98 136.91 276.61 137.15 286.06 137.49 299.6 137.72 308.88 138.05 321.76 138.32 332.21 138.65 345.23 138.92 355.85 145.85 356.2 145.49 345.85 145.05 333.11"/><polygon class="cls-5" points="152.91 352.51 152.95 356.56 161.06 356.97 160.82 347.24 158.74 347.05 152.91 352.51"/><polygon class="cls-3" points="152.85 346.51 152.91 352.51 158.74 347.05 152.85 346.51"/><polygon class="cls-9" points="152.72 334.13 152.85 346.51 158.74 347.05 160.77 345.14 160.51 335.17 152.72 334.13"/><polygon class="cls-6" points="160.82 347.24 160.77 345.14 158.74 347.05 160.82 347.24"/><polygon class="cls-3" points="168.02 326.78 168.38 336.22 170.05 336.44 175.26 331.55 175.17 327.98 168.02 326.78"/><polygon class="cls-5" points="175.4 337.15 175.26 331.55 170.05 336.44 175.4 337.15"/><polygon class="cls-9" points="168.38 336.22 168.44 337.94 170.05 336.44 168.38 336.22"/><polygon class="cls-6" points="168.44 337.94 168.82 347.96 175.68 348.58 175.4 337.15 170.05 336.44 168.44 337.94"/><polygon class="cls-6" points="181.57 329.05 188.04 330.13 187.72 319.87 181.45 325.75 181.57 329.05"/><polygon class="cls-9" points="181.16 317.87 181.45 325.75 187.72 319.87 187.69 319.23 181.16 317.87"/><polygon class="cls-5" points="194.08 313.9 194.38 320.61 199.93 321.76 199.6 314.56 194.65 313.37 194.08 313.9"/><polygon class="cls-3" points="194.05 313.22 194.08 313.9 194.65 313.37 194.05 313.22"/><polygon class="cls-6" points="199.6 314.56 199.35 308.96 194.65 313.37 199.6 314.56"/><polygon class="cls-9" points="193.56 302.18 194.05 313.22 194.65 313.37 199.35 308.96 199.12 303.77 193.56 302.18"/><polygon class="cls-3" points="204.76 298.21 204.93 303.73 208.17 300.69 208.15 299.29 204.76 298.21"/><polygon class="cls-5" points="204.98 305.44 208.22 306.37 208.17 300.69 204.93 303.73 204.98 305.44"/><polygon class="cls-2" points="208.17 300.69 208.22 306.37 208.32 316.66 208.38 323.51 208.48 333.55 208.55 341.57 208.65 351.57 208.72 359.37 206.55 359.26 206.32 351.36 206.03 341.23 205.79 333.1 205.49 322.91 205.28 315.93 204.98 305.44 204.93 303.73 199.35 308.96 199.6 314.56 199.93 321.76 200.4 332.19 200.77 340.53 201.24 350.9 201.6 359.01 197.25 358.79 196.07 358.73 195.7 350.4 195.23 339.79 194.85 331.27 194.38 320.61 194.08 313.9 187.72 319.87 188.04 330.13 188.32 338.87 188.67 349.76 188.94 358.37 182.63 358.06 182.31 349.18 181.9 338.02 181.57 329.05 181.45 325.75 175.26 331.55 175.4 337.15 175.68 348.58 175.91 357.72 169.18 357.38 168.82 347.96 168.44 337.94 160.77 345.14 160.82 347.24 161.06 356.97 152.95 356.56 152.91 352.51 135.73 368.62 210.23 368.56 210.37 359.45 210.49 351.74 210.65 341.85 210.77 333.93 210.93 324.04 211.04 317.31 211.2 307.22 211.31 300.3 211.35 297.71 208.17 300.69"/><path class="cls-10" d="M152.85,346.51l-.13-12.38-.1-9.93-.13-12.27-.09-8.74-.13-12.81-.09-8.91,4.25,1.35,2.8.89.22,8.72.32,12.53.22,8.52.3,12,.25,9.69.25,10,7.68-7.2-.07-1.73-.36-9.44-.44-11.72-.31-8.29-.46-12.24-.32-8.51,3.19,1,4.52,1.44.2,8.23.29,11.85.2,8,.28,11.4.09,3.58,6.19-5.8-.29-7.88-.29-7.82-.42-11.61-.29-8.06,6.68,2.13.25,7.83.36,11.3.24,7.59,0,.65,6.36-6,0-.68-.49-11-.34-7.64,5.56,1.77.34,7.46.23,5.19,5.58-5.23-.16-5.52,3.39,1.08v1.4l3.18-3L34.78,239.12l-.08,4.94-.2,12.66-.28,18L34,287.4l-.27,16.92-.22,13.95-.28,17.41L33,350.51l-.29,18.2,103-.09,17.18-16.11ZM45,351.12V247.34l14,4.46,1.19.38.07,11.91.1,16.94.07,11.84.1,15.93.08,13.07.1,16.29.08,13.75Zm29.27,1.48L74,339.37l-.25-15.75L73.6,311l-.24-15.44-.18-11.43-.26-16.41-.18-11.53L83,259.45l2.89.92.1,11.08.14,15.79.09,11,.13,14.9.11,12.2.13,15.2.11,12.71Zm25.52,1.29-.2-12.19L99.33,327l-.19-11.77-.23-14.42-.17-10.57L98.49,275l-.17-10.69,9.36,3,3.12,1,.17,10.29.24,14.69.17,10.15.23,13.92.19,11.34.23,14.13.19,11.69Zm21.91,1.1-.19-11.31-.23-13.73-.19-11-.23-13.54-.17-9.83-.24-14.27-.17-10,6.58,2.09,3.63,1.15.25,9.67.36,13.83.25,9.49.34,13.14.28,10.67.35,13.28.28,10.88Zm17.23.87-.27-10.63-.33-13-.26-10.45-.33-12.89-.24-9.27-.34-13.54-.24-9.45,4.31,1.37,2,.62.32,9.27.46,13.28.31,9.07.44,12.65.35,10.24.44,12.74.36,10.35Z"/><polygon class="cls-11" points="32.5 390.07 64.89 389.94 94.8 390.24 118.97 389.33 151.6 380.57 166.41 374.83 174.26 368.49 119.6 365.58 44.05 369.09 32.73 368.71 32.5 390.07"/><path class="cls-12" d="M175.39,362.92l-2.24-.41-1.46-.27-4.52-.83a107.42,107.42,0,0,0-13.13-.8q-12.29-.14-24.55.94l1.08,1a29,29,0,0,0-8.32.67l3.56.8a14,14,0,0,0-6.2,1.54l6.07.21a7.39,7.39,0,0,1-2.37.72,1.87,1.87,0,0,0-1.22,2.17,2.24,2.24,0,0,1,.16.76c-.07.65-.9.84-1.55,1s-1.44.63-1.16,1.23a13.59,13.59,0,0,1,10.29,0l-1.18-1.25c7,2.12,14.67.27,22,1.27,2.19.3,4.38.85,6.57.61a42.67,42.67,0,0,1,17.78,1.8l.77-10.88Z"/><path class="cls-12" d="M175.72,363.16,174.95,374l.28.09.76-10.77Z"/><path class="cls-13" d="M161.66,364.67l-2.24-.41L158,364l-4.52-.83a107.42,107.42,0,0,0-13.13-.8q-12.29-.14-24.55.94l1.08,1a29,29,0,0,0-8.32.67l3.56.8a14,14,0,0,0-6.2,1.54l6.07.21a7.39,7.39,0,0,1-2.37.72,1.87,1.87,0,0,0-1.22,2.17,2.24,2.24,0,0,1,.16.76c-.07.65-.9.84-1.55,1s-1.44.63-1.16,1.23a13.59,13.59,0,0,1,10.29,0l-1.18-1.25c7,2.12,14.67.27,22,1.27,2.19.3,4.38.85,6.57.61a42.67,42.67,0,0,1,17.78,1.8l.77-10.88Z"/><path class="cls-13" d="M162,364.91l-.77,10.88.28.09.76-10.77Z"/><path class="cls-14" d="M147.56,367.07l-2.24-.41-1.46-.27-4.52-.83a107.42,107.42,0,0,0-13.13-.8q-12.29-.14-24.55.94l1.08,1a29,29,0,0,0-8.32.67l3.56.8a14,14,0,0,0-6.2,1.54l6.07.21a7.39,7.39,0,0,1-2.37.72,1.87,1.87,0,0,0-1.22,2.17,2.24,2.24,0,0,1,.16.76c-.07.65-.9.84-1.55,1s-1.44.63-1.16,1.23a13.59,13.59,0,0,1,10.29,0l-1.18-1.25c7,2.12,14.67.27,22,1.27,2.19.3,4.38.85,6.57.61a42.67,42.67,0,0,1,17.78,1.8l.77-10.88Z"/><path class="cls-14" d="M147.89,367.31l-.77,10.88.28.09.76-10.77Z"/><path class="cls-15" d="M92.36,302.42a31.2,31.2,0,0,0,8.05,8.6c1.65,1.2,3.47,2.28,4.57,4s1.15,4.33-.5,5.51c-5.41-5.48-11.06-11.13-18.29-13.8-3.39-1.26-7.2-1.91-9.81-4.42a6.54,6.54,0,0,0-6-1.6l1.79-2.43A44.15,44.15,0,0,1,61.66,286a2.59,2.59,0,0,1-.49-2.06c.24-.69,1.41-.93,1.65-.25a15.34,15.34,0,0,0,10.41,9.7,4.35,4.35,0,0,0-1.47-2,2.6,2.6,0,0,1-1-2.23c.19-.83,1.59-1.18,1.85-.37a16,16,0,0,0,9.47,9.87,36.17,36.17,0,0,1-7.57-12.84l9.86,9.89c2.29-1.2,5.13-.09,7.22,1.45,3,2.18,5.25,5.15,7.49,8.08l3.43,4.48c.42.55.47,1.73-.2,1.54l-7.57-7.57a3.21,3.21,0,0,0-2.37-1.27m-10.94-2.27a2.49,2.49,0,0,0-1-.05,1.4,1.4,0,0,0-.73.4l9.73,5.93a11.57,11.57,0,0,0-8-6.27M95.76,308l-5.91-5.15c-.48-.42-1.45-.71-1.58-.08A24.44,24.44,0,0,0,94,308c.58.39,1.61.61,1.79-.07M77.2,299.21a12.33,12.33,0,0,0-5.72-4.65,1.5,1.5,0,0,0-1-.12,10.93,10.93,0,0,0,6.77,4.77m24.29,16.11a3.45,3.45,0,0,0,2.74,1.54c-1.09-1.73-2.58-3.68-4.61-3.54a3.59,3.59,0,0,0,1.72,2.07Z"/><path class="cls-15" d="M180.07,313.95c-.87.12-1.73.24-2.6.35a57.57,57.57,0,0,1-12.66.08c-.55-.06-1.3-.46-1-.95,1.87-1.24,4.33-.63,6.58-.6a24,24,0,0,0,4.06-.4l7.06-1.11c.79-.12,1.2,1.08.72,1.72A3.07,3.07,0,0,1,180.07,313.95Z"/><path class="cls-15" d="M119.11,267.12l.72-.7a3.19,3.19,0,0,1-1,3.34,2,2,0,0,1,.39-2.54Z"/><path class="cls-15" d="M113.66,259.06a1.62,1.62,0,0,1,2.19.66,3.38,3.38,0,0,1-2.51.52.8.8,0,0,1,.29-1.23Z"/><path class="cls-15" d="M160.65,288.9l-.76.71a1.61,1.61,0,0,1,1.41-2,1.08,1.08,0,0,1-.68,1.18Z"/><path class="cls-15" d="M100.69,279.79l-4.33-7.69c5.44,4.74,9.43,10.9,13.35,17l-.91-5.87,3.93,7.52a5.06,5.06,0,0,0,1.62-3.9c-.64.71-1.94.16-2.29-.73a5.05,5.05,0,0,1,.09-2.83,19.19,19.19,0,0,0-.48-9.36c-1,.7-1,2.21-.73,3.41s.83,2.44.5,3.64-2.11,2-2.81.94c-4-5.84-11.9-8.93-13.87-15.72a1.23,1.23,0,0,1,1.84-.17c.31-1.82-2.07-2.7-3.77-3.44a9.21,9.21,0,0,1-4.09-3.5c-.53-.84-.11-2.54.7-2a4.68,4.68,0,0,0,6.88-5.9,3.31,3.31,0,0,1,3,1.57,2.5,2.5,0,0,1,1.72-2.62,8.31,8.31,0,0,0,1.22,5.67,2.56,2.56,0,0,0-1.92.7,8.92,8.92,0,0,1,2.13,5.39l6.67-9.52a3.17,3.17,0,0,1,1.86-1.55c.82-.13,1.73.84,1.22,1.5l-6.14,7.88c-1.23,1.58-2.51,3.27-2.77,5.26a5.77,5.77,0,0,0,2.23,5.26,5.44,5.44,0,0,1-4.73-5.79c-1.13-.9-2.71,1-2.2,2.33s2,2,3.25,2.73a16.43,16.43,0,0,1,8,11.22c.88-1.47.24-3.32-.13-5s-.16-3.88,1.46-4.44a3.31,3.31,0,0,1-.64-4,10,10,0,0,1,1.92,4.35c1.45-.13-.59-3.2.76-3.74.79-.32,1.3.86,1.34,1.72l.51,10.24c.25,5,.65,10.37,3.91,14.14,4.08,4.74,1.6,12.45,4.67,17.9a10.7,10.7,0,0,1,1.48-8.22c2.54-3.84,2.11-9,4.17-13.09,1.84-3.68,5.63-6.57,5.86-10.67q-3.37,4.59-6.71,9.2a84,84,0,0,1,5.83-12.86c-1.65-.64-3,1.46-3.49,3.14l-7.61,23.95a10.52,10.52,0,0,1,.62-7.4c-2.09-1.28-2.19-4.22-2.09-6.67a175.78,175.78,0,0,0-.76-24.66c-.11-1-.32-2.23-1.23-2.75-.54-.3-.52-1.07-.43-1.68l1.45-10.06a5.08,5.08,0,0,0-2.08,3.54c-.82.56-1.25-1.1-.88-2l5.67-14.07a1.81,1.81,0,0,1,.83-1.1c.44-.18,1.07.23.88.67l-1.27,7.2,4.69-9.39c-3.38,9.55-6.8,19.83-4.11,29.6,1,3.56,2.76,7.26,1.61,10.77l-2.81-9.35,0,11,1.44-2.26a4.23,4.23,0,0,0,3.12,1.4l-3.26,14.45a51.42,51.42,0,0,0,5.9-17.6c.43-3,.75-6.42,3-8.44L132,271c2.71-1.89,3.82-5.4,4-8.69s-.42-6.6-.28-9.9c0-.71.92-1.6,1.19-.94-.43.58.94,1.18,1.07.46-.49.33-1-.6-.61-1a1,1,0,0,1,1.48.42,3,3,0,0,1,.17,1.73l-1.55,14.69c2-3.37,4.09-6.82,7.11-9.34,1.76-1.47,4-2.91,4.22-5.19.17-1.78-.56-4.36,1.18-4.78,1.33.3-.48,2.62.38,3.68.59.72,1.74.11,2.43-.52l6.11-5.55a5.53,5.53,0,0,1-5.49,6.13c1.15,1.79-1.23,3.69-3.1,4.71a24.21,24.21,0,0,0-9.67,9.81,1.81,1.81,0,0,1,2.42-.16,14.15,14.15,0,0,1-2.87,5.76c.08,2.39-1.29,4.54-2.43,6.64a78.21,78.21,0,0,0-5.06,12.62c-3.78,11.3-7.62,23-6.26,34.88,1.08.15,2-.76,2.65-1.62,8.9-11.65,7.4-28,12.07-41.88a4,4,0,0,1,1.48-2.32A25.45,25.45,0,0,0,154.33,264l-17.55,21.84c-.62-.93,0-2.15.7-3.05A178.81,178.81,0,0,1,159,258.31c.91.7.14,2.13-.6,3a28.43,28.43,0,0,0-5.37,9.73c1.34.28,2.38-1.17,2.82-2.47s.83-2.84,2.09-3.39a22.81,22.81,0,0,0,9.67-7.93c-1.48,4.07-4,7.68-6.44,11.24l-13.65,19.72c-.79,1.14-2.63-.61-2.07-1.88s2.06-1.74,3.28-2.4,2.39-2.11,1.68-3.3a20.77,20.77,0,0,0-9.28,19.17,193.15,193.15,0,0,1,16.88-20,45.65,45.65,0,0,0,6.32-7.4c1.19-1.91,2.07-4,3.51-5.76s3.69-3,5.89-2.57a39.92,39.92,0,0,0-9.19,11.63,38.34,38.34,0,0,0,8.88-8.47,90.93,90.93,0,0,1-11.3,18.53,6.78,6.78,0,0,1,0-3.23,25.84,25.84,0,0,0-5.65,12.89,114.15,114.15,0,0,0,14.63-16c.73-1,2.63-1.73,2.78-.52a1.56,1.56,0,0,1-.53,1.13l-8.34,9.51a2.67,2.67,0,0,0,2-.51l15.25-7L164,293.67c-.76.48-1.37,1.89-.47,2a2.85,2.85,0,0,1,2.22-.57,10.93,10.93,0,0,1-6.08,5.83c.64,0,1,.84.74,1.43a2.87,2.87,0,0,1-1.46,1.21l-3.53,1.78c-1.45.73-3.12,2.48-2,3.65l14.9-9.12c1,1.1-.46,2.72-1.76,3.47l-14.87,8.5,10.1-3a4.13,4.13,0,0,1,2.1-.25,16.75,16.75,0,0,0,14-3.18c.78,0,1.18,1.06.82,1.75a3.34,3.34,0,0,1-1.85,1.33,111.63,111.63,0,0,1-17.71,5.5,8.16,8.16,0,0,1-3.49.24c-1.55-.34-3.63-1.34-4.38.07.57,1.22,2.22,1.3,3.52,1.62s2.63,1.94,1.63,2.84a2.23,2.23,0,0,1-1.69.33l-10.29-.81L137.82,324a34.75,34.75,0,0,1,17.79-.73c1,.23,1-1.48,1.64-2.33a2.81,2.81,0,0,1,1.68-.9l12.84-3.39a3,3,0,0,1,2.35,0c.68.43.66,1.76-.15,1.84a35.93,35.93,0,0,0-16.9,6.29c-1.46,1-3.63,2.11-4.79.75-1-1.21-2.78-1.46-4.36-1.46a22.88,22.88,0,0,0-21.44,16.31c-.18.65-1.28.45-1.5-.19a2.43,2.43,0,0,1,.44-1.9l2.83-5.1a6.18,6.18,0,0,0-4.17,6,17.26,17.26,0,0,0-7.77-7.45c-3.38-1.61-7.38-2.17-10.11-4.73-1.17-1.1-3.06.08-4,1.4s-1.84,3-3.44,3.08l.58,2.45a2.83,2.83,0,0,1-2.24-.4A13.1,13.1,0,0,1,98.75,329c-6.73-.71-12.45,8.19-18.81,5.87a59.49,59.49,0,0,1,22.49-9c-2.24,0-5.33-.95-4.93-3.15-2,.25-3.93-.88-5.94-1s-4.49,1.65-3.58,3.45c.42.84,1.31,2.09.42,2.37-3.22-2.33-7.69-.36-11.07,1.73s-7.59,4.34-11.08,2.44Q77,326.47,87.81,321.58a42.47,42.47,0,0,0-12.46-2.11,4.46,4.46,0,0,1-2.53-.52c-.72-.5-1-1.71-.28-2.22a9,9,0,0,0,7.07.13,16.38,16.38,0,0,1-11.25-7c-.36-.54-.65-1.34-.15-1.75s1.43.27,1.88.92a14.91,14.91,0,0,0,11.86,6.27,8.74,8.74,0,0,1,7.5,4.62c3.46,2.23,8.31-1.22,12.07.47a16.68,16.68,0,0,0,9.41,1.25,188,188,0,0,1-11.5-19.93l-.93,2-6-16.9a2.66,2.66,0,0,1-.12-2.15c.36-.65,1.61-.64,1.66.1.39,5.54,3.64,10.41,6.77,15a19.53,19.53,0,0,0-5.34-10.89,3.87,3.87,0,0,1,4.48.9,11.33,11.33,0,0,1,2.34,4.28c3.3,8.89,6.78,18.06,13.45,24.8,1.59,1.61,4.16,3.1,5.94,1.71a3,3,0,0,1-5.78.26,32.16,32.16,0,0,0,5.4,10.12,27.35,27.35,0,0,0,.11-17.81,54.26,54.26,0,0,0-3.12-7l-6.1-12c-.92-1.81-2.52-3.94-4.46-3.35-.48.15-.94-.28-1.26-.67L95.62,277.17a5.34,5.34,0,0,0-3.72,3.21,6.9,6.9,0,0,1,.1-4.58c-1.85,1.22-4.3.72-6.45.17-2.47-.63-5.09-1.35-6.83-3.23s-2-5.32.12-6.74c-1.36,3.74,2.44,8.24,6.35,7.53-.68-1.15,1.36-1.93,2.66-1.66a22.42,22.42,0,0,1,12.83,7.92m38.85,36.52a5.35,5.35,0,0,1-1.64,2.17c-.52.34-1.15.47-1.69.79a1.43,1.43,0,0,0-.8,1.53,8.51,8.51,0,0,0,7-3.14,16.73,16.73,0,0,0,1-1.48c.34-.53.69-1.06,1-1.58l1.76-2.6.39-.58,3.14-4.64c.72-1.07,1.44-2.13,2.21-3.16.59-.79,1.21-1.56,1.83-2.33l3.91-4.84a14.19,14.19,0,0,0-7.66,6.9c-1,2-1.53,4.29-2.9,6.06a5.63,5.63,0,0,1,1.27-5.18c-.32-.38-.92,0-1.23.41a72.34,72.34,0,0,0-7.63,11.68m13.17-19.47c1.91-2,2.76-4.84,3.55-7.52.16-.54.13-1.36-.42-1.38l-6.48,10.88c-.32.54-1,1.15-1.47.71s-.11-.87.12-1.27l1.61-2.78c-.26-.58-1.15-.17-1.57.31a37.29,37.29,0,0,0-3.71,5.52c-2,3.45-4.1,7-4.81,10.93l.69.06c3.41-5.7,8-10.6,12.49-15.46M106.09,323.7c-.37.33.06,1,.55,1.07s1,0,1.46.24a2.26,2.26,0,0,1,.67.72,8.22,8.22,0,0,0,6.91,3.4c.38,0,.83-.12.95-.48a1,1,0,0,0-.2-.76,9.87,9.87,0,0,0-2.07-2.65c-2.06-1.71-5-1.75-7.67-1.7a.88.88,0,0,0-.58.15m14.64-15.9a2.57,2.57,0,0,0-.06-2,64.94,64.94,0,0,0-3.94-9.64c-.77.08-.77,1.21-.52,1.95a49.76,49.76,0,0,0,4.52,9.69m24.66-11.65a21,21,0,0,0,7.33-6.87c.26-.39.49-.93.2-1.3a29,29,0,0,0-7.54,8.17m-2.55-12.9a1.1,1.1,0,0,0-.4.79.75.75,0,0,0,1,.51,2.17,2.17,0,0,0,1-.83l5.25-6.78c.08-.39-.6-.28-.88,0l-5.92,6.3m11.63,20.15,5.39-5.23c.48-.46.76-1.53.09-1.55a42.44,42.44,0,0,0-7,7.22c.44.37,1.09,0,1.5-.44m2-16.43a11.2,11.2,0,0,0,1.67-1.77l3.53-4.33c0-.32-.45-.47-.75-.37a2,2,0,0,0-.73.61c-.86.93-2,1.53-2.89,2.43s-1.46,2.34-.81,3.42m-30,45a5.26,5.26,0,0,0,1.34-2.47,1.81,1.81,0,0,0-1.41-2.11,24.52,24.52,0,0,0-1.22,5.49,2,2,0,0,0,1.29-.92m-15-12.71a23.09,23.09,0,0,0-2.54-6.5,2.43,2.43,0,0,0-1.39-1.31,18.41,18.41,0,0,0,3.93,7.81m22.67,0,.18-.95c0-.26,0-.65-.29-.57a31.2,31.2,0,0,0-2.74,7.83c1.83-1.48,2.4-4,2.85-6.31m2.06-1.65c.53.26,1-.48,1.12-1l.81-3.27a1.75,1.75,0,0,0,0-1,.6.6,0,0,0-.83-.36.88.88,0,0,0-.28.51L136,316.31c-.12.45-.18,1,.24,1.25m-2-43.71c.37.58,1.24-.1,1.47-.74a7.77,7.77,0,0,0,.41-3.63,5.16,5.16,0,0,0-2,3.84.91.91,0,0,0,.1.53M81.71,319l3.49.61c.42.07,1,.08,1.14-.31A5.71,5.71,0,0,0,84,317.93a2,2,0,0,0-2.28,1M124.39,327l.35-4.73a6.15,6.15,0,0,0-.36-3.29,18.84,18.84,0,0,0,0,8m11.92-3.91a1.12,1.12,0,0,0,.95-1.34c-1.7-.21-3.52,1.54-2.9,3.14l2-1.75m12.18-8.31-1.29.05a.79.79,0,0,0-.09.76,4,4,0,0,0,3.66.52,4.38,4.38,0,0,0-2.3-1.25m-9.8-6.29a2.76,2.76,0,0,0-.57-2.45,4.94,4.94,0,0,0-.63,3.51,1,1,0,0,0,1.06-1m22.58-15.32-2.06,1.85a2,2,0,0,0,2.36-1.91M98.73,255.26a.64.64,0,0,0-.92-.31c0,.65.24,1.59.88,1.42a1.7,1.7,0,0,0,.08-1.13m.36,5a1,1,0,0,0-.66-1.56,1,1,0,0,0,.68,1.59m30.67,70.23a.51.51,0,0,0-.3-.89,1.81,1.81,0,0,0-.28,2l.66-1Z"/><path class="cls-16" d="M109.94,374.84l-6.84,3.62a1.88,1.88,0,0,1-.92.3c-.77,0-1.19-1-.95-1.75a3.87,3.87,0,0,1,1.5-1.7A96.47,96.47,0,0,0,115,364.13c.58-.63.82-2,0-2a9.23,9.23,0,0,1-9,5,101.66,101.66,0,0,1,9.88-14.7c-1.6,1.34-4.93-.86-5.78,1.05-.43,1-2.09.46-2.36-.57a3.92,3.92,0,0,1,.91-2.95l10-15.54c.74-1.14,2.16-2.43,3.23-1.6a2.47,2.47,0,0,1,.6.83l10.17,19.1c.42.79.76,1.95,0,2.43-1.42.91-3.43-2.51-4.4-1.13l6.11,8.44c.87,1.2,1.75,2.82.9,4s-3,.82-4.5.17a13.44,13.44,0,0,0,9.76,5,2.57,2.57,0,0,1-3.08,1.05l1,2.89c-4.06,1.12-7.57-2.84-11.49-4.38C121.41,369.16,115.24,372,109.94,374.84Z"/><path class="cls-16" d="M87.51,332.15c1.45,1.43,4.65-.74,5.68,1a8.12,8.12,0,0,1-4.47,1.23A53.08,53.08,0,0,1,95,342,3.92,3.92,0,0,1,92,347.82c-.72.49-.17,1.6.41,2.25l5.26,5.82a3.05,3.05,0,0,1,.71,1,2.1,2.1,0,0,1-1.37,2.4,6.12,6.12,0,0,1-3,.16l-3.28,3.23a8.4,8.4,0,0,1,7.81,4.81c.43,1,.14,2.6-.87,2.35-5.29-1.33-10.47,4-15.81,2.94-5.52-1.14-10.26,4-15.72,5.39a1.62,1.62,0,0,1-1.23,0c-.76-.46-.4-1.61,0-2.38l6-10.37a3.16,3.16,0,0,1-1.87,1.32c-.78.09-1.62-.79-1.19-1.45,1-1.54-1.42-3.38-1.07-5.19a3.57,3.57,0,0,1,1.4-1.87l4.81-4.09a5.12,5.12,0,0,0,1.66-2,1.76,1.76,0,0,0-.79-2.24c-1.86-.71-1.2-3.49-.16-5.18A79.52,79.52,0,0,1,81.71,334C83.21,332.27,85.88,330.55,87.51,332.15Z"/><path class="cls-17" d="M85.18,367.07c-.33-.63-.7-1.25-1.07-1.83a116.88,116.88,0,0,0-9-12.34l-1-1.17c-1.16.91-3.78,1-4.26,2.64-.53,1.76-2.56,2.49-3.89,3.76A11.15,11.15,0,0,0,64,361a70.75,70.75,0,0,0-3.92,8.13l.39.59c1.53,2.41,3,5.3,2.05,8-.61,1.69-.33,3.55-.31,5.34,0,.46,0,.93,0,1.39a2.82,2.82,0,0,1,1.74-.93c2.73-.32,3.85-4.26,6.57-4.68l3.31-.16A11.38,11.38,0,0,1,81,382.07a29.11,29.11,0,0,1,1.31-8.32A43.35,43.35,0,0,1,85.18,367.07Z"/><path class="cls-17" d="M107.14,387.85c-.75-.09-1.09-1-1.1-1.76a4.05,4.05,0,0,0-.29-2.22c-.42-.63-1.7-.57-1.68.19a29.13,29.13,0,0,1,1.08-12.47,36.15,36.15,0,0,1,1.58-4.07A116.88,116.88,0,0,0,98,355.67l-1.3-1c-1.25.76-3.54,1-4,2.46-.53,1.76-2.56,2.49-3.89,3.76a11.15,11.15,0,0,0-2,2.87c-.59,1.09-1.17,2.19-1.73,3.29,1,2,1.71,4.12,1,6.16-.61,1.69-.33,3.55-.31,5.34A18.33,18.33,0,0,1,83.91,387,11.06,11.06,0,0,0,81,382.07a28.92,28.92,0,0,0,.23,4.14c0-.76,1.26-.82,1.68-.19a4.05,4.05,0,0,1,.29,2.22c0,.76.35,1.67,1.1,1.76a3.07,3.07,0,0,1,2.49-3.72c2.73-.32,3.85-4.26,6.57-4.68l3.31-.16a11.52,11.52,0,0,1,10.14,8.31,18.31,18.31,0,0,0,1.7-5.24A3.09,3.09,0,0,0,107.14,387.85Z"/><path class="cls-17" d="M85.86,378.57c0-1.8-.3-3.65.31-5.34.73-2,.05-4.18-1-6.16a43.35,43.35,0,0,0-2.84,6.68A29.11,29.11,0,0,0,81,382.07,11.06,11.06,0,0,1,83.91,387,18.33,18.33,0,0,0,85.86,378.57Z"/><path class="cls-17" d="M129.84,365.86a116.88,116.88,0,0,0-9-12.34c.68-.59,1.43-1.36,1.28-2.25s-1.85-1-1.76-.13c.21,2.19-4.17,1.74-4.81,3.85-.53,1.76-2.56,2.49-3.89,3.76a11.15,11.15,0,0,0-2,2.87c-1,1.94-2.09,3.89-3,5.9l.32.48c1.53,2.41,3,5.3,2.05,8-.61,1.69-.33,3.55-.31,5.34a18.19,18.19,0,0,1-.24,3.18,2.64,2.64,0,0,1,1.08-.39c2.73-.32,3.85-4.26,6.57-4.68l3.31-.16a11.52,11.52,0,0,1,10.14,8.31,18.33,18.33,0,0,0,1.94-8.42c0-1.8-.3-3.65.31-5.34C132.86,371.16,131.37,368.27,129.84,365.86Z"/><path class="cls-17" d="M109.09,376c1-2.68-.52-5.58-2.05-8l-.32-.48a36.15,36.15,0,0,0-1.58,4.07,29.13,29.13,0,0,0-1.08,12.47c0-.76,1.26-.82,1.68-.19a4.05,4.05,0,0,1,.29,2.22c0,.76.35,1.67,1.1,1.76a3.09,3.09,0,0,1,1.4-3.33,18.19,18.19,0,0,0,.24-3.18C108.76,379.54,108.49,377.69,109.09,376Z"/><path class="cls-17" d="M61.41,387.23c-.75-.09-1.09-1-1.1-1.76a4.05,4.05,0,0,0-.29-2.22c-.42-.63-1.7-.57-1.68.19A29.13,29.13,0,0,1,59.42,371c.19-.62.42-1.23.65-1.84a116.88,116.88,0,0,0-8.61-11.75c.68-.59,1.43-1.36,1.28-2.25s-1.85-1-1.76-.13c.21,2.19-4.17,1.74-4.81,3.85-.53,1.76-2.56,2.49-3.89,3.76a11.15,11.15,0,0,0-2,2.87,58.09,58.09,0,0,0-4.57,10,29.13,29.13,0,0,0-1.08,12.47c0-.76,1.26-.82,1.68-.19a4.05,4.05,0,0,1,.29,2.22c0,.76.35,1.67,1.1,1.76A3.07,3.07,0,0,1,40.23,388c2.73-.32,3.85-4.26,6.57-4.68.63.26,0,1.31.39,1.87s1.3.07,1.63-.54.61-1.4,1.3-1.49a11.52,11.52,0,0,1,10.14,8.31,18.34,18.34,0,0,0,1.9-7A3,3,0,0,0,61.41,387.23Z"/><path class="cls-17" d="M62.5,377.71c1-2.68-.52-5.58-2.05-8l-.39-.59c-.23.61-.45,1.22-.65,1.84a29.13,29.13,0,0,0-1.08,12.47c0-.76,1.26-.82,1.68-.19a4.05,4.05,0,0,1,.29,2.22c0,.76.35,1.67,1.1,1.76a3,3,0,0,1,.75-2.78c0-.46,0-.93,0-1.39C62.18,381.26,61.9,379.4,62.5,377.71Z"/></g></g></svg>