<svg xmlns="http://www.w3.org/2000/svg" viewBox="0 0 1215.89 1215.89"><defs><style>.cls-1{fill:#fff;}.cls-2{font-size:327.9px;font-family:Macho-Regular, Macho;}.cls-2,.cls-9{fill:#d8b2be;}.cls-3{letter-spacing:-0.04em;}.cls-4{letter-spacing:-0.02em;}.cls-5{fill:none;stroke:#d8b2be;stroke-miterlimit:10;stroke-width:8px;}.cls-6{fill:#d9bc7b;}.cls-7{fill:#c8896e;}.cls-8{fill:#212121;}.cls-10{fill:#c28b9a;}.cls-11{fill:#a66076;}</style></defs><title>hatch</title><g id="Layer_2" data-name="Layer 2"><g id="Layer_1-2" data-name="Layer 1"><rect class="cls-1" width="1215.89" height="1215.89"/><text class="cls-2" transform="translate(41.01 857.04)">H<tspan class="cls-3" x="260.02" y="0">A</tspan><tspan class="cls-4" x="470.54" y="0">T</tspan><tspan x="660.39" y="0">CH</tspan></text><line class="cls-5" x1="39.77" y1="565.62" x2="1176.12" y2="565.62"/><circle class="cls-6" cx="607.95" cy="363.19" r="77.82"/><polygon class="cls-7" points="582.89 397.95 607.53 407.68 633.01 397.95 582.89 397.95"/><polygon class="cls-7" points="582.89 397.95 607.53 421.48 633.01 397.95 583.93 397.95 582.89 397.95"/><path class="cls-7" d="M619.73,387.51c-7.07-9.09-6.73-9.75-11.78-9.75s-4.71.66-11.78,9.75-13.28,10.44-13.28,10.44L607.53,415,633,397.95S626.8,396.6,619.73,387.51Z"/><polygon class="cls-8" points="607.53 415.56 585.23 400.19 582.89 397.95 583.53 397.75 607.53 414.32 607.53 415.56"/><polygon class="cls-8" points="607.53 415.56 630.58 400.19 633.01 397.95 632.34 397.75 607.53 414.32 607.53 415.56"/><circle class="cls-8" cx="630.01" cy="361.83" r="13.15"/><path class="cls-1" d="M637.4,355.11l1.71-1.67a13.14,13.14,0,0,0-5.69-3.45l-.68,2.29A10.75,10.75,0,0,1,637.4,355.11Z"/><circle class="cls-8" cx="585.77" cy="361.83" r="13.15"/><path class="cls-1" d="M593.17,355.11l1.71-1.67a13.14,13.14,0,0,0-5.69-3.45l-.68,2.29A10.75,10.75,0,0,1,593.17,355.11Z"/><path class="cls-9" d="M674.2,451.91a8.73,8.73,0,0,0-5-.77c-1.74.41-3.05,1.8-4.4,3-7.7,6.75-18.67,7.87-28.87,8.68-4.44.35-9.18.64-13.06-1.54-2-1.12-3.69-2.87-5.93-3.35a9.84,9.84,0,0,0-3.88.16,38.79,38.79,0,0,0-18.59,9.28c-1.86,1.68-3.61,3.58-5.89,4.61-4.73,2.13-10.2,0-14.93-2.15-1.52-.69-3.22-1.57-3.62-3.19-.33-1.32.33-2.66.6-4,.9-4.48-2.57-8.54-5.78-11.79l-13-13.13c-1.9-1.93-4.24-4-6.92-3.62-4.07.59-5,5.86-7,9.49-2.54,4.77-7.75,7.37-12.64,9.67-5.65,2.67-11.45,5.37-17.66,6a38.31,38.31,0,0,1-9.17-.29,141.7,141.7,0,0,0,7.27,34.23,108.22,108.22,0,0,0,204.25,0h0a146.09,146.09,0,0,0,7.71-40.06c-6.66,1.95-13.11,4.91-20,5.1C689.58,458.47,681.88,454.77,674.2,451.91Z"/><path class="cls-10" d="M706.45,367.32c-.06-.22-.14-.44-.2-.66-5.27.87-10.55,1.72-15.82,2.6l-1.06,4a63.67,63.67,0,0,1-20.89-13.74L656.73,371a5.31,5.31,0,0,1-2.73,1.74c-1.27.19-2.46-.54-3.57-1.19-12.35-7.24-27.58-6.71-41.87-6a5.24,5.24,0,0,0-3.25.91c-.81.7-1.1,1.82-1.79,2.65-1.89,2.28-5.54,1.33-8.24.12a156.76,156.76,0,0,1-18.53-9.87l-2.52,1.08a5.73,5.73,0,0,1-2.14,3.94c-2.4,1.8-5.64,1.87-8.65,1.86-7.53,0-15.31-.08-22.17-3.19-2.18,5.45-10.31,7.27-14.6,3.26a22.55,22.55,0,0,0-2.91-2.8c-3.36-2.16-7.73.25-10.82,2.77a32.66,32.66,0,0,1-4.14,3c-2.85,9.18-14.07,48.61-10.25,89.64a38.31,38.31,0,0,0,9.17.29c6.22-.65,12-3.35,17.66-6,4.89-2.3,10.09-4.9,12.64-9.67,1.94-3.63,2.91-8.9,7-9.49,2.68-.39,5,1.69,6.92,3.62l13,13.13c3.21,3.25,6.68,7.31,5.78,11.79-.27,1.33-.93,2.67-.6,4,.4,1.62,2.1,2.51,3.62,3.19,4.73,2.14,10.2,4.29,14.93,2.15,2.29-1,4-2.93,5.89-4.61a38.79,38.79,0,0,1,18.59-9.28,9.84,9.84,0,0,1,3.88-.16c2.23.47,3.94,2.22,5.93,3.35,3.88,2.19,8.62,1.9,13.06,1.54,10.2-.81,21.17-1.94,28.87-8.68,1.35-1.18,2.66-2.57,4.4-3a8.73,8.73,0,0,1,5,.77c7.68,2.86,15.38,6.55,23.56,6.33,6.91-.19,13.36-3.15,20-5.1C720.46,408.46,706.45,367.32,706.45,367.32Z"/><path class="cls-11" d="M607.95,254.25c-44.78,0-83.06,38.16-98.5,92.07,0,0-.24.71-.65,2a32.66,32.66,0,0,0,4.14-3c3.1-2.52,7.46-4.93,10.82-2.77a22.55,22.55,0,0,1,2.91,2.8c4.29,4,12.43,2.18,14.6-3.26,6.85,3.11,14.64,3.18,22.17,3.19,3,0,6.24-.06,8.65-1.86a5.49,5.49,0,0,0,1.81-6.2l.57-.26a156.76,156.76,0,0,0,20.82,11.31c2.7,1.21,6.35,2.16,8.24-.12.68-.82,1-1.95,1.79-2.65a5.24,5.24,0,0,1,3.25-.91c14.29-.74,29.52-1.27,41.87,6,1.1.65,2.3,1.38,3.57,1.19a5.31,5.31,0,0,0,2.73-1.74l11.76-11.5a63.67,63.67,0,0,0,20.89,13.74l1.06-4c5.27-.88,10.55-1.73,15.82-2.6C690.69,292.11,652.55,254.25,607.95,254.25Z"/></g></g></svg>