<svg xmlns="http://www.w3.org/2000/svg" viewBox="0 0 851.77 851.77"><defs><style>.cls-1{fill:#4d4d62;}.cls-2{fill:#3f2a51;}.cls-3{fill:#210e2c;}.cls-4{fill:#271434;}.cls-5{fill:#331e43;}.cls-6{fill:#45364e;}.cls-7{fill:#493a55;}.cls-8{fill:#534161;}.cls-9{fill:#5e4b6c;}.cls-10{fill:#4a3c51;}.cls-11{fill:#4f4157;}.cls-12{fill:#4b3d55;}.cls-13{fill:#47394f;}.cls-14{fill:#546bb3;}.cls-15{fill:#3e325c;}.cls-16{fill:#473b67;}.cls-17{fill:#141f45;}.cls-18{fill:#34274e;}.cls-19{fill:#532556;}.cls-20{fill:#48344d;}.cls-21{fill:#4d3853;}.cls-22{fill:#3e1f47;}.cls-23{fill:#472347;}.cls-24{fill:#4c264d;}.cls-25{fill:#451d44;}.cls-26{fill:#453453;}.cls-27{fill:#c9a030;}.cls-28{fill:#443239;}.cls-29{fill:#48353e;}.cls-30{fill:#345556;}.cls-31{fill:#496e55;}.cls-32{fill:#2b4f4a;}.cls-33{fill:#6b8877;}.cls-34{fill:#405755;}.cls-35{fill:#162518;}.cls-36{fill:#698c6c;}.cls-37{fill:#435a53;}.cls-38{fill:#386631;}.cls-39{fill:#b99471;}.cls-40{fill:#29110d;}.cls-41{fill:#1f2e17;}.cls-42{fill:#559241;}.cls-43{fill:#132112;}.cls-44{fill:#8e6a4c;}.cls-45{fill:#caad97;}.cls-46{fill:#afafaf;}.cls-47{fill:#7d7d7d;}.cls-48{fill:#606161;}.cls-49{fill:#5a3b00;}.cls-50{fill:#7f5522;}.cls-51{fill:#fff;}</style></defs><title>Asset 5</title><g id="Layer_2" data-name="Layer 2"><g id="Layer_1-2" data-name="Layer 1"><rect class="cls-1" width="851.77" height="851.77"/><polygon class="cls-2" points="690.8 576.68 635.17 493.7 609.43 481.96 575.47 481.96 413.8 481.96 412.29 482.98 407.98 483.21 404.76 481.96 383.96 481.96 383.05 482.58 371.04 488.5 366.06 490.32 363.79 488.74 364.69 485.56 366.4 481.96 298.44 481.96 306.65 486.12 317.1 493.36 325.5 501.27 333.68 511.23 338.69 522.56 342.11 535.47 343.04 548.39 340.8 563.59 338.01 577.47 614.76 577.47 613.79 576.68 690.8 576.68"/><polygon class="cls-3" points="49.09 195.41 49.09 290.92 137.55 290.92 139.88 279.45 143.93 261.08 150.48 246.56 155.67 235.22 162.68 225.68 170.15 221.13 173.33 222.04 177.41 224.29 181.73 229.73 186.51 239.69 193.56 252.6 200.81 247.38 210.54 241.69 222.32 235.09 235.23 228.95 249.73 223.26 265.36 218.47 282.36 215.72 302.76 215 322.94 216.32 346.75 220.13 374.19 229.15 391.66 236.82 408.91 247.9 424.58 261.93 431.62 270.76 433.21 268.94 435.47 268.26 438.42 270.29 443.18 267.79 446.81 266.42 445.89 264.61 448.38 262.56 451.33 263.92 452.46 262.1 456.99 256.88 460.16 253.25 461.05 248.49 461.73 243.95 463.54 243.95 465.13 246.44 472.36 231.24 498.21 237.31 513.43 255.87 527.27 290.92 802.67 290.92 802.67 195.41 49.09 195.41"/><polygon class="cls-4" points="349.55 386.07 347.05 385.17 342.63 386.44 349.66 386.44 349.55 386.07"/><polygon class="cls-4" points="131.43 368.33 129.82 354.05 130.02 340.45 132.47 319.14 134.94 303.72 137.55 290.92 49.09 290.92 49.09 386.44 134.03 386.44 131.43 368.33"/><polygon class="cls-5" points="394.59 475.53 389.38 478.26 383.96 481.96 404.76 481.96 401.63 480.73 394.59 475.53"/><polygon class="cls-5" points="168.11 467.78 157.2 451.03 151.06 440.16 144.46 425.21 139.67 409.12 134.65 390.77 134.03 386.44 49.09 386.44 49.09 481.96 180.11 481.96 168.11 467.78"/><polygon class="cls-5" points="371.69 472.63 378.02 464.45 369.87 468.77 360.13 474.23 351.75 478.1 348.58 478.56 347.67 474.26 349.7 468.81 354.22 461.78 359.64 453.83 367.56 444.07 362.55 432.06 355.08 436.61 347.15 440.71 335.15 447.08 326.09 450.95 322.91 450.73 321.55 448.01 322.45 444.38 326.74 434.17 333.52 423.96 343.92 411.01 353.43 400.34 351.37 391.73 349.66 386.44 342.63 386.44 342.29 386.54 336.18 388.81 328.02 393.59 319.87 400.86 311.5 409.71 302.23 421.07 293.87 435.36 285.06 453.97 277.62 473.7 285.78 476.18 294.63 480.02 298.44 481.96 366.4 481.96 367.17 480.34 371.69 472.63"/><polygon class="cls-2" points="264.18 563.73 267.79 555.11 272.08 546.71 277.51 538.54 282.02 528.33 273.41 531.29 264.34 530.63 255.04 527.93 240.98 522.51 226 515.28 209.44 506.25 193.32 494.94 180.38 482.27 180.11 481.96 49.09 481.96 49.09 577.47 260.74 577.47 261.25 571.67 264.18 563.73"/><polygon class="cls-6" points="251.71 285.93 264.09 281.53 281.58 281.87 292.15 285.86 299.27 290.92 381.23 290.92 377.68 288.66 344.5 273 312.19 263.92 269.61 260.28 219.31 261.23 194.45 263.56 173.03 269.32 161.03 273.05 156.73 266.49 155.86 258.77 160.41 247.91 162.68 234.18 162.68 225.68 155.67 235.22 150.48 246.56 143.93 261.08 139.88 279.45 137.55 290.92 242.24 290.92 251.71 285.93"/><polygon class="cls-7" points="132.47 319.14 130.02 340.45 129.82 354.05 131.43 368.33 134.03 386.44 342.63 386.44 347.05 385.17 349.55 386.07 349.66 386.44 463.46 386.44 464.46 377.24 464.44 366.82 464.2 355.71 458.67 350.81 431.48 325.71 399.14 302.34 381.23 290.92 299.27 290.92 302.37 293.12 310.04 301.86 313.34 314.6 302.04 310.62 286 307.73 276.88 305.2 263.41 306.68 252.84 309.98 241.55 311.09 226.61 309.3 212.03 310.78 221.86 302.38 237.15 293.61 242.24 290.92 137.55 290.92 134.94 303.72 132.47 319.14"/><polygon class="cls-8" points="285.06 453.97 293.87 435.36 302.23 421.07 311.5 409.71 319.87 400.86 328.02 393.59 336.18 388.81 342.29 386.54 342.63 386.44 134.03 386.44 134.65 390.77 139.67 409.12 144.46 425.21 151.06 440.16 157.2 451.03 168.11 467.78 180.11 481.96 275.61 481.96 277.62 473.7 285.06 453.97"/><path class="cls-8" d="M351.37,391.73l2.06,8.61L343.92,411,333.52,424l-6.78,10.21-4.29,10.21-.9,3.63,1.37,2.72,3.17.22,9.06-3.87,12-6.37,7.93-4.09,7.47-4.55,5,12-7.92,9.76-5.43,7.94-4.52,7-2,5.44.91,4.31,3.17-.46,8.38-3.87,9.74-5.46,8.15-4.32-6.33,8.17-4.52,7.72L366.4,482H384l5.42-3.7,5.21-2.73,7,5.2,3.13,1.22h9l6.19-4.2,6.34-6.13,8.82-12.26,4.75-6.81,2.26-5.22,3.4,2.26,4.76.22,3.85-2.5,5.65-8.17L463,428.71l.66-13.6-.25-12.69-.25-12.92.33-3H349.66Zm72.87,51.64.86-3.6,1.83-4.84,3.66-6.23,5.73,9.61-2.58,4-2.87,4.46L428,449.62l-1.87.87-1.58-.14-1-1.58-.08-2.44Z"/><polygon class="cls-9" points="180.38 482.27 193.32 494.94 209.44 506.25 226 515.28 240.98 522.51 255.04 527.93 264.34 530.63 273.41 531.29 282.02 528.33 282.59 522.11 279.08 512.62 270.57 502.65 275.61 481.96 180.11 481.96 180.38 482.27"/><polygon class="cls-9" points="364.69 485.56 363.79 488.74 366.06 490.32 371.04 488.5 383.05 482.58 383.96 481.96 366.4 481.96 364.69 485.56"/><polygon class="cls-9" points="407.98 483.21 412.29 482.98 413.8 481.96 404.76 481.96 407.98 483.21"/><polygon class="cls-10" points="170.65 242.48 170.67 254.63 171.05 258.05 174.85 260.32 182.44 258.41 191.55 255.35 204.07 248.5 224.18 237.45 248.84 230.19 272.39 229.38 302.39 231.61 348.73 241.02 373.43 250.84 416 273.17 435.4 289.84 436.62 290.92 443.81 290.92 440.7 284.14 431.62 270.76 424.58 261.93 408.91 247.9 391.66 236.82 374.19 229.15 346.75 220.13 322.94 216.32 302.76 215 282.36 215.72 265.36 218.47 249.73 223.26 235.23 228.95 222.32 235.09 210.54 241.69 200.81 247.38 193.56 252.6 186.51 239.69 181.73 229.73 177.41 224.29 173.33 222.04 170.15 221.13 162.68 225.68 168.72 230.71 170.65 242.48"/><polygon class="cls-11" points="443.81 290.92 436.62 290.92 448.71 301.59 443.81 290.92"/><polygon class="cls-10" points="281.58 281.87 264.09 281.53 251.71 285.93 242.24 290.92 257.18 290.92 267.02 289.18 284.15 290.24 285.77 290.92 299.27 290.92 292.15 285.86 281.58 281.87"/><polygon class="cls-12" points="252.45 291.76 257.18 290.92 242.24 290.92 237.15 293.61 221.86 302.38 212.03 310.78 240.07 297.25 252.45 291.76"/><polygon class="cls-12" points="298 296.05 307.49 304.05 313.34 314.6 310.04 301.86 302.37 293.12 299.27 290.92 285.77 290.92 298 296.05"/><polygon class="cls-13" points="160.41 247.91 155.86 258.77 156.73 266.49 161.03 273.05 173.03 269.32 194.45 263.56 219.31 261.23 269.61 260.28 312.19 263.92 344.5 273 377.68 288.66 381.23 290.92 436.62 290.92 435.4 289.84 416 273.17 373.43 250.84 348.73 241.02 302.39 231.61 272.39 229.38 248.84 230.19 224.18 237.45 204.07 248.5 191.55 255.35 182.44 258.41 174.85 260.32 171.05 258.05 170.67 254.63 170.65 242.48 168.72 230.71 162.68 225.68 162.68 234.18 160.41 247.91"/><polygon class="cls-12" points="454.03 314.24 448.71 301.59 436.62 290.92 381.23 290.92 399.14 302.34 431.48 325.71 458.67 350.81 464.2 355.71 464.42 351.17 460.64 331.66 454.03 314.24"/><polygon class="cls-12" points="284.15 290.24 267.02 289.18 257.18 290.92 285.77 290.92 284.15 290.24"/><polygon class="cls-10" points="298 296.05 285.77 290.92 257.18 290.92 252.45 291.76 240.07 297.25 212.03 310.78 226.61 309.3 241.55 311.09 252.84 309.98 263.41 306.68 276.88 305.2 286 307.73 302.04 310.62 313.34 314.6 307.49 304.05 298 296.05"/><polygon class="cls-14" points="281.35 531.73 282.02 528.33 277.51 538.54 281.35 531.73"/><polygon class="cls-15" points="285.78 476.18 277.62 473.7 275.61 481.96 291.06 481.96 290.29 481.38 291.24 481.96 298.44 481.96 294.63 480.02 285.78 476.18"/><polygon class="cls-16" points="343.04 548.39 342.11 535.47 338.69 522.56 333.68 511.23 325.5 501.27 317.1 493.36 306.65 486.12 298.44 481.96 291.24 481.96 301.16 487.97 310.85 494.09 318.9 507.06 326.01 524.28 327.93 540.56 319.96 569.37 324.39 541.98 324.37 530.89 317.96 510.36 308.73 495.27 291.06 481.96 275.61 481.96 270.57 502.65 279.08 512.62 282.59 522.11 282.02 528.33 281.35 531.73 277.51 538.54 272.08 546.71 267.79 555.11 264.18 563.73 261.25 571.67 260.74 577.47 338.01 577.47 340.8 563.59 343.04 548.39"/><polygon class="cls-17" points="291.06 481.96 291.24 481.96 290.29 481.38 291.06 481.96"/><polygon class="cls-18" points="308.73 495.27 317.96 510.36 324.37 530.89 324.39 541.98 319.96 569.37 327.93 540.56 326.01 524.28 318.9 507.06 310.85 494.09 301.16 487.97 291.24 481.96 291.06 481.96 308.73 495.27"/><polygon class="cls-19" points="424.54 450.35 426.12 450.49 427.99 449.62 430.86 446.81 433.73 442.35 436.31 438.32 430.58 428.71 426.92 434.94 425.1 439.78 424.24 443.38 423.45 446.32 423.53 448.77 424.54 450.35"/><polygon class="cls-20" points="503.9 290.92 527.27 290.92 513.43 255.87 489.71 256.06 503.9 290.92"/><polygon class="cls-21" points="516.13 320.95 532.57 304.35 527.27 290.92 503.9 290.92 516.13 320.95"/><polygon class="cls-10" points="513.43 255.87 498.21 237.31 472.36 231.24 489.71 256.06 513.43 255.87"/><polygon class="cls-22" points="520.18 349.94 534.65 328.6 532.57 304.35 516.13 320.95 520.18 349.94"/><polygon class="cls-23" points="489.71 256.06 479.26 266.01 480.88 271.37 481.44 280.49 479.84 288.28 478.93 290.92 503.9 290.92 489.71 256.06"/><polygon class="cls-24" points="474.76 300.63 482.01 303.57 488.46 306.78 493.03 310.53 497.6 315.35 501.1 320.44 516.13 320.95 503.9 290.92 478.93 290.92 477.7 294.46 474.76 300.63"/><polygon class="cls-25" points="465.02 256.64 462.35 263.89 466.38 263.08 470.4 263.07 475.5 263.87 479.26 266.01 489.71 256.06 472.36 231.24 465.13 246.44 465.82 251.27 465.02 256.64"/><polygon class="cls-26" points="501.1 320.44 501.11 323.67 498.96 327.69 495.49 332.8 492.54 334.68 497.11 337.63 502.21 342.18 504.3 345.43 506.57 345.2 520.18 349.94 516.13 320.95 501.1 320.44"/><polygon class="cls-27" points="465.6 352.38 467.14 351.85 464.42 351.17 465.6 352.38"/><polygon class="cls-28" points="443.81 290.92 478.93 290.92 479.84 288.28 481.44 280.49 480.88 271.37 479.26 266.01 475.5 263.87 470.4 263.07 466.38 263.08 462.35 263.89 465.02 256.64 465.82 251.27 465.13 246.44 463.54 243.95 461.73 243.95 461.05 248.49 460.16 253.25 456.99 256.88 452.46 262.1 451.33 263.92 448.38 262.56 445.89 264.61 446.81 266.42 443.18 267.79 438.42 270.29 435.47 268.26 433.21 268.94 431.62 270.76 440.7 284.14 443.81 290.92"/><polygon class="cls-29" points="497.11 337.63 492.54 334.68 495.49 332.8 498.96 327.69 501.11 323.67 501.1 320.44 497.6 315.35 493.03 310.53 488.46 306.78 482.01 303.57 474.76 300.63 477.7 294.46 478.93 290.92 443.81 290.92 448.71 301.59 454.03 314.24 460.64 331.66 464.42 351.17 467.14 351.85 468.72 349.13 468.72 347.54 474.83 345.94 477.78 344.57 479.14 346.16 481.63 345.7 483.44 343.2 490.24 343.19 495.23 344.54 500.68 347.71 503.41 350.65 505.45 350.64 505.67 347.93 504.3 345.43 502.21 342.18 497.11 337.63"/><polygon class="cls-30" points="299.95 249.56 298.6 254.64 296.11 260.96 292.84 266.71 289.23 270.43 285.4 273.14 281.45 274.49 276.03 275.85 272.31 276.75 271.52 278.22 271.52 280.92 272.09 284.64 272.43 288.71 274 290.06 275.58 290.62 280.55 290.51 283.03 290.17 284.27 290.4 285.4 291.53 255.05 291.75 254.83 289.83 256.41 289.5 257.2 288.03 257.31 286 256.63 283.74 255.96 280.47 255.17 279.23 252.91 278.89 246.59 279.8 239.26 281.04 233.28 281.6 227.53 282.39 225.16 282.5 223.92 283.74 224.15 286.34 225.72 288.93 226.4 290.29 223.47 290.96 206.66 303.82 198.76 310.14 194.03 314.31 187.49 318.04 174.85 325.03 166.96 329.54 161.2 332.47 161.31 335.41 161.43 337.77 164.36 338.68 167.41 339.92 169.21 340.93 171.47 343.3 174.51 346.8 175.41 348.27 178.91 349.85 181.62 350.86 178.8 354.02 177.11 356.05 176.32 359.43 176.88 362.03 177.33 368.01 177.78 373.42 177.56 375.34 175.53 378.05 173.84 379.51 174.4 385.83 174.85 389.55 174.29 392.6 171.81 398.35 169.55 404.22 168.08 409.74 167.07 413.58 165.49 416.96 163.12 420.46 160.98 423.5 160.53 424.75 161.99 426.44 170.9 425.99 180.72 426.89 185 427.23 190.76 427.57 195.94 427.23 207.68 427.11 215.35 426.89 227.53 426.78 238.7 426.66 247.04 426.78 257.99 427.11 265.54 427.34 271.86 427.34 276.49 427.23 281.22 427 285.74 427 290.59 427.57 299.95 427.57 299.95 249.56"/><path class="cls-31" d="M277.86,359.88l-2.81.15-.81-1.85-1.92-1.26L270,355.81,267.52,357l-1.85,1.4-1,1.33h-2l-.59.89.89,1,.74.37-.15,4.66-.07,3.33-.15,1.48-.89.37.81.89,1.26.15,1.11-1.18,3.7.22,1.63.07,1.11.22V370.6l1.7-3,.67-1.7,1-.37v-2l.37-1.55,2-.44.37-1Zm-12,9.76-.52-.44.07-.89,1.26-.81,1.11.07.07,1.85Zm2.14-3.47-1.92.07-.81-.59.07-1.18,1.48-.81h1.63l.15,1.77Zm1.11-3.7-.59-.15-1.77.07-1.48.89.15-1.77,1.33-1,2-1,.81.44Zm1,7.83-.89-.44v-1.48l.81-1.11,1.18.22.15,1.63Zm1.92-4.06-1.7-.07.07-2.37.81-.37,1,.15.67.67.37,1Zm2.14-4.29-.07,1.4-1.33-1-1.26-.07.15-3,1.4.44,1.26.81Z"/><path class="cls-31" d="M297.65,359.88l-2.81.15-.81-1.85-1.92-1.26-2.29-1.11L287.31,357l-1.85,1.4-1,1.33h-2l-.59.89.89,1,.74.37-.15,4.66-.07,3.33-.15,1.48-.89.37.81.89,1.26.15,1.11-1.18,3.7.22,1.63.07,1.11.22V370.6l1.7-3,.67-1.7,1-.37v-2l.37-1.55,2-.44.37-1Zm-12,9.76-.52-.44.07-.89,1.26-.81,1.11.07.07,1.85Zm2.14-3.47-1.92.07-.81-.59.07-1.18,1.48-.81h1.63l.15,1.77Zm1.11-3.7-.59-.15-1.77.07-1.48.89.15-1.77,1.33-1,2-1,.81.44Zm1,7.83-.89-.44v-1.48l.81-1.11,1.18.22.15,1.63Zm1.92-4.06-1.7-.07.07-2.37.81-.37,1,.15.67.67.37,1Zm2.14-4.29-.07,1.4-1.33-1-1.26-.07.15-3,1.4.44,1.26.81Z"/><path class="cls-31" d="M257,359.88l-2.81.15-.81-1.85-1.92-1.26-2.29-1.11L246.62,357l-1.85,1.4-1,1.33h-2l-.59.89.89,1,.74.37-.15,4.66-.07,3.33-.15,1.48-.89.37.81.89,1.26.15,1.11-1.18,3.7.22,1.63.07,1.11.22V370.6l1.7-3,.67-1.7,1-.37v-2l.37-1.55,2-.44.37-1Zm-12,9.76-.52-.44.07-.89,1.26-.81,1.11.07.07,1.85Zm2.14-3.47-1.92.07-.81-.59.07-1.18,1.48-.81h1.63l.15,1.77Zm1.11-3.7-.59-.15-1.77.07-1.48.89.15-1.77,1.33-1,2-1,.81.44Zm1,7.83-.89-.44v-1.48l.81-1.11,1.18.22.15,1.63Zm1.92-4.06-1.7-.07.07-2.37.81-.37,1,.15.67.67.37,1Zm2.14-4.29-.07,1.4-1.33-1-1.26-.07.15-3,1.4.44,1.26.81Z"/><path class="cls-31" d="M235.79,359.88,233,360l-.81-1.85-1.92-1.26L228,355.81,225.44,357l-1.85,1.4-1,1.33h-2l-.59.89.89,1,.74.37-.15,4.66-.07,3.33-.15,1.48-.89.37.81.89,1.26.15,1.11-1.18,3.7.22,1.63.07,1.11.22V370.6l1.7-3,.67-1.7,1-.37v-2l.37-1.55,2-.44.37-1Zm-12,9.76-.52-.44.07-.89,1.26-.81,1.11.07.07,1.85Zm2.14-3.47-1.92.07-.81-.59.07-1.18,1.48-.81h1.63l.15,1.77Zm1.11-3.7-.59-.15-1.77.07-1.48.89.15-1.77,1.33-1,2-1,.81.44Zm1,7.83-.89-.44v-1.48l.81-1.11,1.18.22.15,1.63Zm1.92-4.06-1.7-.07.07-2.37.81-.37,1,.15.67.67.37,1Zm2.14-4.29-.07,1.4-1.33-1-1.26-.07.15-3,1.4.44,1.26.81Z"/><path class="cls-31" d="M214.8,359.88,212,360l-.81-1.85-1.92-1.26L207,355.81,204.45,357l-1.85,1.4-1,1.33h-2l-.59.89.89,1,.74.37-.15,4.66-.07,3.33-.15,1.48-.89.37.81.89,1.26.15,1.11-1.18,3.7.22,1.63.07,1.11.22V370.6l1.7-3,.67-1.7,1-.37v-2l.37-1.55,2-.44.37-1Zm-12,9.76-.52-.44.07-.89,1.26-.81,1.11.07.07,1.85Zm2.14-3.47-1.92.07-.81-.59.07-1.18,1.48-.81h1.63l.15,1.77Zm1.11-3.7-.59-.15-1.77.07-1.48.89.15-1.77,1.33-1,2-1,.81.44Zm1,7.83-.89-.44v-1.48l.81-1.11,1.18.22.15,1.63Zm1.92-4.06-1.7-.07.07-2.37.81-.37,1,.15.67.67.37,1Zm2.14-4.29-.07,1.4-1.33-1-1.26-.07.15-3,1.4.44,1.26.81Z"/><path class="cls-31" d="M272.84,391.73l-2.81.15-.81-1.85-1.92-1.26L265,387.67l-2.51,1.18-1.85,1.4-1,1.33h-2l-.59.89.89,1,.74.37-.15,4.66-.07,3.33-.15,1.48-.89.37.81.89,1.26.15,1.11-1.18,3.7.22,1.63.07L267,404v-1.55l1.7-3,.67-1.7,1-.37v-2l.37-1.55,2-.44.37-1Zm-12,9.76-.52-.44.07-.89,1.26-.81,1.11.07.07,1.85ZM263,398l-1.92.07-.81-.59.07-1.18,1.48-.81h1.63l.15,1.77Zm1.11-3.7-.59-.15-1.77.07-1.48.89.15-1.77,1.33-1,2-1,.81.44Zm1,7.83-.89-.44v-1.48l.81-1.11,1.18.22.15,1.63Zm1.92-4.06-1.7-.07.07-2.37.81-.37,1,.15.67.67.37,1Zm2.14-4.29-.07,1.4-1.33-1-1.26-.07.15-3,1.4.44,1.26.81Z"/><path class="cls-31" d="M252,391.73l-2.81.15-.81-1.85-1.92-1.26-2.29-1.11-2.51,1.18-1.85,1.4-1,1.33h-2l-.59.89.89,1,.74.37-.15,4.66-.07,3.33-.15,1.48-.89.37.81.89,1.26.15,1.11-1.18,3.7.22,1.63.07,1.11.22v-1.55l1.7-3,.67-1.7,1-.37v-2l.37-1.55,2-.44.37-1Zm-12,9.76-.52-.44.07-.89,1.26-.81,1.11.07.07,1.85Zm2.14-3.47-1.92.07-.81-.59.07-1.18,1.48-.81h1.63l.15,1.77Zm1.11-3.7-.59-.15-1.77.07-1.48.89.15-1.77,1.33-1,2-1,.81.44Zm1,7.83-.89-.44v-1.48l.81-1.11,1.18.22.15,1.63Zm1.92-4.06-1.7-.07.07-2.37.81-.37,1,.15.67.67.37,1Zm2.14-4.29-.07,1.4-1.33-1-1.26-.07.15-3,1.4.44,1.26.81Z"/><polygon class="cls-32" points="161.2 332.47 166.96 329.54 174.85 325.03 187.49 318.04 194.03 314.31 198.76 310.14 206.66 303.82 223.47 290.96 226.4 290.29 225.72 288.93 224.15 286.34 223.92 283.74 225.16 282.5 227.53 282.39 233.28 281.6 239.26 281.04 246.59 279.8 252.91 278.89 255.17 279.23 255.96 280.47 256.63 283.74 257.31 286 257.2 288.03 256.41 289.5 254.83 289.83 255.05 291.75 285.4 291.53 284.27 290.4 283.03 290.17 280.55 290.51 275.58 290.62 274 290.06 272.43 288.71 272.09 284.64 271.52 280.92 271.52 278.22 272.31 276.75 276.03 275.85 281.45 274.49 285.4 273.14 289.23 270.43 292.84 266.71 296.11 260.96 298.6 254.64 299.95 249.56 299.95 291.7 297.39 291.94 292.59 296.74 284.19 320.39 268.23 322.79 250.34 319.91 247.1 296.62 242.54 291.7 231.26 291.7 225.26 296.26 213.5 319.91 200.9 327.83 175.09 333.11 161.2 332.47"/><path class="cls-31" d="M230.77,391.73l-2.81.15-.81-1.85-1.92-1.26-2.29-1.11-2.51,1.18-1.85,1.4-1,1.33h-2l-.59.89.89,1,.74.37-.15,4.66-.07,3.33-.15,1.48-.89.37.81.89,1.26.15,1.11-1.18,3.7.22,1.63.07,1.11.22v-1.55l1.7-3,.67-1.7,1-.37v-2l.37-1.55,2-.44.37-1Zm-12,9.76-.52-.44.07-.89,1.26-.81,1.11.07.07,1.85Zm2.14-3.47-1.92.07-.81-.59.07-1.18,1.48-.81h1.63l.15,1.77Zm1.11-3.7-.59-.15-1.77.07-1.48.89.15-1.77,1.33-1,2-1,.81.44Zm1,7.83-.89-.44v-1.48l.81-1.11,1.18.22.15,1.63Zm1.92-4.06-1.7-.07.07-2.37.81-.37,1,.15.67.67.37,1Zm2.14-4.29-.07,1.4-1.33-1-1.26-.07.15-3,1.4.44,1.26.81Z"/><path class="cls-31" d="M209.78,391.73l-2.81.15-.81-1.85-1.92-1.26-2.29-1.11-2.51,1.18-1.85,1.4-1,1.33h-2l-.59.89.89,1,.74.37-.15,4.66-.07,3.33-.15,1.48-.89.37.81.89,1.26.15,1.11-1.18,3.7.22,1.63.07,1.11.22v-1.55l1.7-3,.67-1.7,1-.37v-2l.37-1.55,2-.44.37-1Zm-12,9.76-.52-.44.07-.89,1.26-.81,1.11.07.07,1.85Zm2.14-3.47-1.92.07-.81-.59.07-1.18,1.48-.81h1.63l.15,1.77Zm1.11-3.7-.59-.15-1.77.07-1.48.89.15-1.77,1.33-1,2-1,.81.44Zm1,7.83-.89-.44v-1.48l.81-1.11,1.18.22.15,1.63Zm1.92-4.06-1.7-.07.07-2.37.81-.37,1,.15.67.67.37,1Zm2.14-4.29-.07,1.4-1.33-1-1.26-.07.15-3,1.4.44,1.26.81Z"/><polygon class="cls-33" points="161.2 332.47 161.43 337.77 174.72 337.45 201.31 332.71 216.76 324.05 227.48 299.32 231.19 296.23 240.05 295.81 244.79 299.73 247.06 324.05 267.05 326.73 287.25 324.46 295.7 300.35 299.95 295.81 299.95 291.7 297.39 291.94 292.59 296.74 284.19 320.39 268.23 322.79 250.34 319.91 247.1 296.62 242.54 291.7 231.26 291.7 225.26 296.26 213.5 319.91 200.9 327.83 175.09 333.11 161.2 332.47"/><polygon class="cls-33" points="174.72 337.45 182.4 341.83 186.8 345.13 181.62 350.86 178.8 354.02 177.11 356.05 176.32 359.43 176.88 362.03 177.33 368.01 177.78 373.42 177.56 375.34 175.53 378.05 173.84 379.51 174.4 385.83 174.85 389.55 174.29 392.6 171.81 398.35 169.55 404.22 168.08 409.74 167.07 413.58 165.49 416.96 163.12 420.46 160.98 423.5 160.53 424.75 161.99 426.44 170.9 425.99 180.72 426.89 185 427.23 190.76 427.57 194.44 427.42 194.53 426.05 192.28 423.41 189.35 420.09 187.98 416.86 184.07 414.71 187.3 414.22 187.1 409.72 186.03 402.98 185.15 398.28 184.46 394.37 184.27 388.8 185.34 384.01 186.61 380.88 186.42 376.68 189.45 371.98 193.65 367 196.2 362.2 199.62 357.12 199.93 352.38 200.09 345.96 202.09 343.21 205.6 342.04 209.43 334.95 210.02 329.45 216.76 324.05 201.31 332.71 174.72 337.45"/><polygon class="cls-31" points="205.6 342.04 202.09 343.21 200.09 345.96 199.93 352.38 199.62 357.12 204.7 351.78 209.3 351.95 213.58 349.81 217.2 349.32 221.47 350.14 225.59 351.78 228.71 352.61 232.33 351.78 235.45 351.62 237.92 352.28 240.55 351.62 244.01 350.63 245.81 351.95 248.12 352.61 249.1 351.13 253.05 351.13 254.86 352.44 258.81 352.11 261.77 350.47 266.87 349.64 271.97 349.81 275.91 351.13 277.56 352.44 282.82 352.28 284.79 350.8 289.4 350.47 292.2 351.62 297.13 351.62 299.95 349.58 299.95 344.38 297.62 344.55 295.49 346.03 292.52 345.7 289.07 344.55 285.62 343.56 281.01 343.89 279.04 345.37 275.58 343.72 269.33 343.89 262.92 344.38 260.62 345.86 257.19 343.72 253.54 343.56 251.41 344.88 249.78 346.36 246.14 345.7 242.69 345.37 239.24 345.86 235.12 346.36 232.82 344.71 230.24 343.56 226.41 344.22 224.27 346.03 221.31 344.55 216.76 343.39 212.76 343.23 210 344.55 207 343.89 205.6 342.04"/><polygon class="cls-31" points="186.42 376.68 192.85 375.81 196.04 374.95 200.2 376.06 202.53 377.04 205.1 376.06 207.68 374.95 212.09 374.46 217.35 374.71 220.17 375.08 224.82 376.3 227.15 375.08 230.09 375.08 231.93 375.32 234.38 377.53 239.03 377.4 242.59 376.55 244.67 377.16 246.63 378.14 249.45 377.77 251.53 376.43 253.12 375.32 255.45 375.08 257.41 375.44 259.74 377.04 264.15 375.57 268.44 375.32 275.05 375.44 278.24 376.06 282.16 374.83 286.93 374.95 291.59 376.06 293.92 376.55 296.12 376.06 299.95 375.81 299.95 380.84 294.77 381.94 293.06 382.92 288.4 382.55 284.12 382.55 280.2 383.29 276.4 382.18 272.72 380.84 269.78 380.71 265.5 381.08 260.23 382.18 257.04 383.29 253 383.04 250.06 382.31 247.24 382.92 245.41 383.41 243.32 382.55 240.87 382.43 238.42 383.29 236.34 383.65 234.38 382.43 231.19 382.43 228.62 383.41 225.68 383.04 222.38 381.33 216 380.71 211.1 380.96 206.69 381.33 203.26 382.31 198.12 382.67 191.26 387.21 186.6 391 184.46 394.37 184.27 388.8 185.34 384.01 186.61 380.88 186.42 376.68"/><polygon class="cls-31" points="189.35 420.09 197.43 418.81 206.5 417.48 215.56 417.1 226.9 417.29 237.86 419.18 245.03 420.32 256.18 420.5 268.65 419.94 279.61 420.13 278.1 424.66 276.49 427.23 265.54 427.34 257.99 427.11 247.04 426.78 238.7 426.66 227.53 426.78 215.35 426.89 207.68 427.11 195.94 427.23 194.44 427.42 194.53 426.05 192.28 423.41 189.35 420.09"/><path class="cls-31" d="M241.76,317.94l-.7-2.29,1.19-2.39.6-2.09-.5-4.58-2.49-3.68-3.18-.7-5.37-.4-3.68,4.88-1.29,5.57.7,4.18.9.9-.1,2.79-1.69,3,3.28,1.09,3.48-.2,2.89-.5,3.28.5,2.69.8,1.49.5.4-4.08Zm-.28-8.12-.7,0-.66.84-.7,1.08-2.3,0L236,313.1l-.28-.84.52-.8,1.55-.94,1.27-.52,1.92-1Zm-1.92-4.6,1.36,1.27-.94.66-1.92,1.59-2.25,1.17.19-1.08.94-.56,1.31-.94Zm-6.8-2.11,1.55.14-.14,2.25.09,2.25-1-1.59-1.08-2.3Zm-1.69,1,.75,2.49,1.27,1.83,1.22,1.31-.19.7-1.08-1-2-2-1.08-2.3ZM229,307.57l1.64,1.69,1.36,1,1,.66,1.27,1.08-.23.94-1.41-1.22-2-.84-1.27-1.08-.66-.52Zm4.13,12.71-1.41.23-1.69-.75-1.22-2.67-.14-2.58.56-.7.28,2.91.66,1.31,1,.52,1.55.19,1.08.94Zm-2.53-3.94.28-1.31,1.41,1.08.7,1.27-.94.14Zm3.52,1.64-.8-2.35-.84-1.13-1.08-.42-.84-.14-.38-1.59,1.08.66,1.17.28,1,.61.89,1.55Zm3.94-14.21L237,305.88l-1.13,1.69v-1.45l-.23-2.81Zm1.64,16.32-1.55.33-2.3-.09,0-.7,1.41-.8,2-.47,1-.8,0,1.31ZM237,317.23l.89-1,1.13-1.27,1.13.47-.7,1-1.08.84Zm2-3-.94-.19-1.5,1.5-.66,2.3-.19-2.39.52-.84,1.55-1.27,1,.14.75-.56,1.64-1.45-.66,1.41Z"/><polygon class="cls-30" points="299.95 249.56 301.3 254.64 303.78 260.96 307.06 266.71 310.67 270.43 314.5 273.14 318.45 274.49 323.86 275.85 327.58 276.75 328.38 278.22 328.38 280.92 327.81 284.64 327.47 288.71 325.89 290.06 324.31 290.62 319.35 290.51 316.87 290.17 315.63 290.4 314.5 291.53 344.84 291.75 345.07 289.83 343.49 289.5 342.7 288.03 342.59 286 343.26 283.74 343.94 280.47 344.73 279.23 346.99 278.89 353.3 279.8 360.64 281.04 366.61 281.6 372.37 282.39 374.74 282.5 375.98 283.74 375.75 286.34 374.17 288.93 373.5 290.29 376.43 290.96 393.24 303.82 401.13 310.14 405.87 314.31 412.41 318.04 425.05 325.03 432.94 329.54 438.69 332.47 438.58 335.41 438.47 337.77 435.54 338.68 432.49 339.92 430.69 340.93 428.43 343.3 425.38 346.8 424.48 348.27 420.99 349.85 418.28 350.86 421.1 354.02 422.79 356.05 423.58 359.43 423.02 362.03 422.56 368.01 422.11 373.42 422.34 375.34 424.37 378.05 426.06 379.51 425.5 385.83 425.05 389.55 425.61 392.6 428.09 398.35 430.35 404.22 431.81 409.74 432.83 413.58 434.41 416.96 436.78 420.46 438.92 423.5 439.37 424.75 437.9 426.44 428.99 425.99 419.18 426.89 414.89 427.23 409.14 427.57 403.95 427.23 392.22 427.11 384.55 426.89 372.37 426.78 361.2 426.66 352.85 426.78 341.91 427.11 334.35 427.34 328.04 427.34 323.41 427.23 318.67 427 314.16 427 309.31 427.57 299.95 427.57 299.95 249.56"/><path class="cls-31" d="M321.81,360.54l.37,1,2,.44.37,1.55v2l1,.37.67,1.7,1.7,3v1.55l1.11-.22,1.63-.07,3.7-.22,1.11,1.18,1.26-.15.81-.89-.89-.37-.15-1.48-.07-3.33-.15-4.66.74-.37.89-1-.59-.89h-2l-1-1.33-1.85-1.4-2.51-1.18-2.29,1.11-1.92,1.26-.81,1.85-2.81-.15Zm10.2,8.87.07-1.85,1.11-.07,1.26.81.07.89-.52.44Zm-.74-4,.15-1.77H333l1.48.81.07,1.18-.81.59-1.92-.07Zm-1-5.47.81-.44,2,1,1.33,1,.15,1.77-1.48-.89-1.77-.07-.59.15Zm-1.85,9.16.15-1.63,1.18-.22.81,1.11v1.48l-.89.44Zm-1.92-3.84.37-1,.67-.67,1-.15.81.37.07,2.37-1.7.07Zm-1-4.8,1.26-.81,1.4-.44.15,3-1.26.07-1.33,1-.07-1.4Z"/><path class="cls-31" d="M302,360.54l.37,1,2,.44.37,1.55v2l1,.37.67,1.7,1.7,3v1.55l1.11-.22,1.63-.07,3.7-.22,1.11,1.18,1.26-.15.81-.89-.89-.37-.15-1.48-.07-3.33-.15-4.66.74-.37.89-1-.59-.89h-2l-1-1.33-1.85-1.4-2.51-1.18-2.29,1.11-1.92,1.26-.81,1.85-2.81-.15Zm10.2,8.87.07-1.85,1.11-.07,1.26.81.07.89-.52.44Zm-.74-4,.15-1.77h1.63l1.48.81.07,1.18-.81.59-1.92-.07Zm-1-5.47.81-.44,2,1,1.33,1,.15,1.77-1.48-.89-1.77-.07-.59.15Zm-1.85,9.16.15-1.63,1.18-.22.81,1.11v1.48l-.89.44Zm-1.92-3.84.37-1,.67-.67,1-.15.81.37.07,2.37-1.7.07Zm-1-4.8,1.26-.81,1.4-.44.15,3-1.26.07-1.33,1-.07-1.4Z"/><path class="cls-31" d="M342.7,360.54l.37,1,2,.44.37,1.55v2l1,.37.67,1.7,1.7,3v1.55l1.11-.22,1.63-.07,3.7-.22,1.11,1.18,1.26-.15.81-.89-.89-.37-.15-1.48-.07-3.33-.15-4.66.74-.37.89-1-.59-.89h-2l-1-1.33-1.85-1.4-2.51-1.18-2.29,1.11-1.92,1.26-.81,1.85-2.81-.15Zm10.2,8.87.07-1.85,1.11-.07,1.26.81.07.89-.52.44Zm-.74-4,.15-1.77h1.63l1.48.81.07,1.18-.81.59-1.92-.07Zm-1-5.47.81-.44,2,1,1.33,1,.15,1.77-1.48-.89-1.77-.07-.59.15Zm-1.85,9.16.15-1.63,1.18-.22.81,1.11v1.48l-.89.44Zm-1.92-3.84.37-1,.67-.67,1-.15.81.37.07,2.37-1.7.07Zm-1-4.8,1.26-.81,1.4-.44.15,3-1.26.07-1.33,1-.07-1.4Z"/><path class="cls-31" d="M363.89,360.54l.37,1,2,.44.37,1.55v2l1,.37.67,1.7,1.7,3v1.55l1.11-.22,1.63-.07,3.7-.22,1.11,1.18,1.26-.15.81-.89-.89-.37-.15-1.48-.07-3.33-.15-4.66.74-.37.89-1-.59-.89h-2l-1-1.33-1.85-1.4-2.51-1.18-2.29,1.11-1.92,1.26-.81,1.85-2.81-.15Zm10.2,8.87.07-1.85,1.11-.07,1.26.81.07.89-.52.44Zm-.74-4,.15-1.77h1.63l1.48.81.07,1.18-.81.59-1.92-.07Zm-1-5.47.81-.44,2,1,1.33,1,.15,1.77-1.48-.89-1.77-.07-.59.15Zm-1.85,9.16.15-1.63,1.18-.22.81,1.11v1.48l-.89.44Zm-1.92-3.84.37-1,.67-.67,1-.15.81.37.07,2.37-1.7.07Zm-1-4.8,1.26-.81,1.4-.44.15,3-1.26.07-1.33,1-.07-1.4Z"/><path class="cls-31" d="M384.88,360.54l.37,1,2,.44.37,1.55v2l1,.37.67,1.7,1.7,3v1.55l1.11-.22,1.63-.07,3.7-.22,1.11,1.18,1.26-.15.81-.89-.89-.37-.15-1.48-.07-3.33-.15-4.66.74-.37.89-1-.59-.89h-2l-1-1.33-1.85-1.4-2.51-1.18-2.29,1.11-1.92,1.26-.81,1.85-2.81-.15Zm10.2,8.87.07-1.85,1.11-.07,1.26.81.07.89-.52.44Zm-.74-4,.15-1.77h1.63l1.48.81.07,1.18-.81.59-1.92-.07Zm-1-5.47.81-.44,2,1,1.33,1,.15,1.77-1.48-.89-1.77-.07-.59.15Zm-1.85,9.16.15-1.63,1.18-.22.81,1.11v1.48l-.89.44Zm-1.92-3.84.37-1,.67-.67,1-.15.81.37.07,2.37-1.7.07Zm-1-4.8,1.26-.81,1.4-.44.15,3-1.26.07-1.33,1-.07-1.4Z"/><path class="cls-31" d="M326.83,392.4l.37,1,2,.44.37,1.55v2l1,.37.67,1.7,1.7,3V404l1.11-.22,1.63-.07,3.7-.22,1.11,1.18,1.26-.15.81-.89-.89-.37-.15-1.48-.07-3.33-.15-4.66.74-.37.89-1-.59-.89h-2l-1-1.33-1.85-1.4-2.51-1.18-2.29,1.11L330.67,390l-.81,1.85-2.81-.15Zm10.2,8.87.07-1.85,1.11-.07,1.26.81.07.89-.52.44Zm-.74-4,.15-1.77h1.63l1.48.81.07,1.18-.81.59-1.92-.07Zm-1-5.47.81-.44,2,1,1.33,1,.15,1.77-1.48-.89-1.77-.07-.59.15ZM333.48,401l.15-1.63,1.18-.22.81,1.11v1.48l-.89.44Zm-1.92-3.84.37-1,.67-.67,1-.15.81.37.07,2.37-1.7.07Zm-1-4.8,1.26-.81,1.4-.44.15,3-1.26.07-1.33,1-.07-1.4Z"/><path class="cls-31" d="M347.72,392.4l.37,1,2,.44.37,1.55v2l1,.37.67,1.7,1.7,3V404l1.11-.22,1.63-.07,3.7-.22,1.11,1.18,1.26-.15.81-.89-.89-.37-.15-1.48-.07-3.33-.15-4.66.74-.37.89-1-.59-.89h-2l-1-1.33-1.85-1.4-2.51-1.18-2.29,1.11L351.57,390l-.81,1.85-2.81-.15Zm10.2,8.87.07-1.85,1.11-.07,1.26.81.07.89-.52.44Zm-.74-4,.15-1.77H359l1.48.81.07,1.18-.81.59-1.92-.07Zm-1-5.47.81-.44,2,1,1.33,1,.15,1.77-1.48-.89-1.77-.07-.59.15ZM354.37,401l.15-1.63,1.18-.22.81,1.11v1.48l-.89.44Zm-1.92-3.84.37-1,.67-.67,1-.15.81.37.07,2.37-1.7.07Zm-1-4.8,1.26-.81,1.4-.44.15,3-1.26.07-1.33,1-.07-1.4Z"/><polygon class="cls-32" points="438.69 332.47 432.94 329.54 425.05 325.03 412.41 318.04 405.87 314.31 401.13 310.14 393.24 303.82 376.43 290.96 373.5 290.29 374.17 288.93 375.75 286.34 375.98 283.74 374.74 282.5 372.37 282.39 366.61 281.6 360.64 281.04 353.3 279.8 346.99 278.89 344.73 279.23 343.94 280.47 343.26 283.74 342.59 286 342.7 288.03 343.49 289.5 345.07 289.83 344.84 291.75 314.5 291.53 315.63 290.4 316.87 290.17 319.35 290.51 324.31 290.62 325.89 290.06 327.47 288.71 327.81 284.64 328.38 280.92 328.38 278.22 327.58 276.75 323.86 275.85 318.45 274.49 314.5 273.14 310.67 270.43 307.06 266.71 303.78 260.96 301.3 254.64 299.95 249.56 299.95 291.7 302.5 291.94 307.31 296.74 315.71 320.39 331.67 322.79 349.55 319.91 352.79 296.62 357.36 291.7 368.64 291.7 374.64 296.26 386.4 319.91 399 327.83 424.81 333.11 438.69 332.47"/><path class="cls-31" d="M368.91,392.4l.37,1,2,.44.37,1.55v2l1,.37.67,1.7,1.7,3V404l1.11-.22,1.63-.07,3.7-.22,1.11,1.18,1.26-.15.81-.89-.89-.37-.15-1.48-.07-3.33-.15-4.66.74-.37.89-1-.59-.89h-2l-1-1.33-1.85-1.4L377,387.67l-2.29,1.11L372.75,390l-.81,1.85-2.81-.15Zm10.2,8.87.07-1.85,1.11-.07,1.26.81.07.89-.52.44Zm-.74-4,.15-1.77h1.63l1.48.81.07,1.18-.81.59L379,398Zm-1-5.47.81-.44,2,1,1.33,1,.15,1.77-1.48-.89-1.77-.07-.59.15ZM375.56,401l.15-1.63,1.18-.22.81,1.11v1.48l-.89.44Zm-1.92-3.84.37-1,.67-.67,1-.15.81.37.07,2.37-1.7.07Zm-1-4.8,1.26-.81,1.4-.44.15,3-1.26.07-1.33,1-.07-1.4Z"/><path class="cls-31" d="M389.9,392.4l.37,1,2,.44.37,1.55v2l1,.37.67,1.7,1.7,3V404l1.11-.22,1.63-.07,3.7-.22,1.11,1.18,1.26-.15.81-.89-.89-.37-.15-1.48-.07-3.33-.15-4.66.74-.37.89-1-.59-.89h-2l-1-1.33-1.85-1.4L398,387.67l-2.29,1.11L393.74,390l-.81,1.85-2.81-.15Zm10.2,8.87.07-1.85,1.11-.07,1.26.81.07.89-.52.44Zm-.74-4,.15-1.77h1.63l1.48.81.07,1.18-.81.59-1.92-.07Zm-1-5.47.81-.44,2,1,1.33,1,.15,1.77-1.48-.89-1.77-.07-.59.15ZM396.55,401l.15-1.63,1.18-.22.81,1.11v1.48l-.89.44Zm-1.92-3.84.37-1,.67-.67,1-.15.81.37.07,2.37-1.7.07Zm-1-4.8,1.26-.81,1.4-.44.15,3-1.26.07-1.33,1-.07-1.4Z"/><polygon class="cls-33" points="438.69 332.47 438.47 337.77 425.18 337.45 398.59 332.71 383.13 324.05 372.42 299.32 368.71 296.23 359.85 295.81 355.11 299.73 352.84 324.05 332.85 326.73 312.65 324.46 304.2 300.35 299.95 295.81 299.95 291.7 302.5 291.94 307.31 296.74 315.71 320.39 331.67 322.79 349.55 319.91 352.79 296.62 357.36 291.7 368.64 291.7 374.64 296.26 386.4 319.91 399 327.83 424.81 333.11 438.69 332.47"/><polygon class="cls-33" points="425.18 337.45 417.49 341.83 413.1 345.13 418.28 350.86 421.1 354.02 422.79 356.05 423.58 359.43 423.02 362.03 422.56 368.01 422.11 373.42 422.34 375.34 424.37 378.05 426.06 379.51 425.5 385.83 425.05 389.55 425.61 392.6 428.09 398.35 430.35 404.22 431.81 409.74 432.83 413.58 434.41 416.96 436.78 420.46 438.92 423.5 439.37 424.75 437.9 426.44 428.99 425.99 419.18 426.89 414.89 427.23 409.14 427.57 405.46 427.42 405.36 426.05 407.61 423.41 410.55 420.09 411.91 416.86 415.82 414.71 412.6 414.22 412.79 409.72 413.87 402.98 414.75 398.28 415.43 394.37 415.63 388.8 414.55 384.01 413.28 380.88 413.48 376.68 410.45 371.98 406.24 367 403.7 362.2 400.28 357.12 399.97 352.38 399.8 345.96 397.8 343.21 394.3 342.04 390.46 334.95 389.88 329.45 383.13 324.05 398.59 332.71 425.18 337.45"/><polygon class="cls-31" points="394.3 342.04 397.8 343.21 399.8 345.96 399.97 352.38 400.28 357.12 395.2 351.78 390.59 351.95 386.32 349.81 382.7 349.32 378.42 350.14 374.31 351.78 371.19 352.61 367.57 351.78 364.44 351.62 361.98 352.28 359.35 351.62 355.89 350.63 354.08 351.95 351.78 352.61 350.79 351.13 346.85 351.13 345.04 352.44 341.09 352.11 338.13 350.47 333.03 349.64 327.93 349.81 323.98 351.13 322.34 352.44 317.08 352.28 315.1 350.8 310.5 350.47 307.7 351.62 302.77 351.62 299.95 349.58 299.95 344.38 302.27 344.55 304.41 346.03 307.37 345.7 310.83 344.55 314.28 343.56 318.88 343.89 320.86 345.37 324.31 343.72 330.56 343.89 336.98 344.38 339.28 345.86 342.7 343.72 346.35 343.56 348.49 344.88 350.11 346.36 353.75 345.7 357.21 345.37 360.66 345.86 364.77 346.36 367.07 344.71 369.66 343.56 373.49 344.22 375.63 346.03 378.59 344.55 383.13 343.39 387.14 343.23 389.9 344.55 392.9 343.89 394.3 342.04"/><polygon class="cls-31" points="413.48 376.68 407.05 375.81 403.86 374.95 399.69 376.06 397.37 377.04 394.8 376.06 392.22 374.95 387.81 374.46 382.55 374.71 379.73 375.08 375.07 376.3 372.74 375.08 369.8 375.08 367.97 375.32 365.52 377.53 360.86 377.4 357.31 376.55 355.23 377.16 353.27 378.14 350.45 377.77 348.37 376.43 346.77 375.32 344.45 375.08 342.49 375.44 340.16 377.04 335.75 375.57 331.46 375.32 324.85 375.44 321.66 376.06 317.74 374.83 312.96 374.95 308.31 376.06 305.98 376.55 303.77 376.06 299.95 375.81 299.95 380.84 305.12 381.94 306.84 382.92 311.49 382.55 315.78 382.55 319.7 383.29 323.5 382.18 327.17 380.84 330.11 380.71 334.4 381.08 339.67 382.18 342.85 383.29 346.9 383.04 349.84 382.31 352.65 382.92 354.49 383.41 356.57 382.55 359.02 382.43 361.47 383.29 363.56 383.65 365.52 382.43 368.7 382.43 371.27 383.41 374.21 383.04 377.52 381.33 383.89 380.71 388.79 380.96 393.2 381.33 396.63 382.31 401.78 382.67 408.64 387.21 413.29 391 415.43 394.37 415.63 388.8 414.55 384.01 413.28 380.88 413.48 376.68"/><polygon class="cls-31" points="410.55 420.09 402.47 418.81 393.4 417.48 384.33 417.1 373 417.29 362.04 419.18 354.86 420.32 343.71 420.5 331.25 419.94 320.29 420.13 321.8 424.66 323.41 427.23 334.35 427.34 341.91 427.11 352.85 426.78 361.2 426.66 372.37 426.78 384.55 426.89 392.22 427.11 403.95 427.23 405.46 427.42 405.36 426.05 407.61 423.41 410.55 420.09"/><path class="cls-31" d="M356.25,321.22l.4,4.08,1.49-.5,2.69-.8,3.28-.5,2.89.5,3.48.2,3.28-1.09-1.69-3-.1-2.79.9-.9.7-4.18-1.29-5.57-3.68-4.88-5.37.4-3.18.7-2.49,3.68-.5,4.58.6,2.09,1.19,2.39-.7,2.29ZM358.89,309l1.92,1,1.27.52,1.55.94.52.8-.28.84-1.08-1.36-2.3,0-.7-1.08-.66-.84-.7,0Zm2.77-1.64,1.31.94.94.56.19,1.08-2.25-1.17-1.92-1.59-.94-.66,1.36-1.27Zm6.05-3.47-1.08,2.3-1,1.59.09-2.25-.14-2.25,1.55-.14Zm2.2,1.27-1.08,2.3-2,2-1.08,1-.19-.7,1.22-1.31,1.27-1.83.75-2.49Zm1.27,4.13-.66.52-1.27,1.08-2,.84-1.41,1.22-.23-.94,1.27-1.08,1-.66,1.36-1,1.64-1.69Zm-5.11,10.41,1.08-.94,1.55-.19,1-.52.66-1.31.28-2.91.56.7-.14,2.58-1.22,2.67-1.69.75-1.41-.23Zm1.78-2.16-.94-.14.7-1.27L369,315l.28,1.31Zm-2.3-2.06.89-1.55,1-.61,1.17-.28,1.08-.66-.38,1.59-.84.14-1.08.42-.84,1.13-.8,2.35Zm-1.27-12.15-.23,2.81v1.45l-1.13-1.69-1.08-2.11Zm-4.69,15.57,0-1.31,1,.8,2,.47,1.41.8,0,.7-2.3.09-1.55-.33Zm1.92-1.59-1.08-.84-.7-1,1.13-.47L362,316.2l.89,1Zm-2.16-4.46-.66-1.41,1.64,1.45.75.56,1-.14,1.55,1.27.52.84-.19,2.39-.66-2.3-1.5-1.5-.94.19Z"/><polygon class="cls-34" points="280.09 387.15 280.09 390.15 285.9 389.58 291.72 387.15 297.15 384.52 301.09 383.58 308.03 383.96 312.15 385.83 318.71 389.21 323.4 390.15 326.03 390.52 326.4 386.77 321.9 386.77 317.4 385.46 312.34 383.02 310.09 381.52 302.59 380.77 297.34 381.15 293.06 382.92 289.09 385.08 284.4 386.96 280.09 387.15"/><polygon class="cls-35" points="305.12 391.96 299.82 392.37 295.75 395.36 294.66 399.16 294.8 407.17 294.94 413.01 311.78 413.42 312.05 408.53 311.78 403.1 312.05 398.62 311.78 395.9 308.52 392.91 305.12 391.96"/><polygon class="cls-36" points="280.09 390.15 280.84 393.52 282.53 394.65 282.34 398.39 282.72 400.08 283.09 404.21 282.16 407.96 283.84 414.14 281.03 414.89 282.16 418.08 290.78 418.27 290.78 414.89 290.4 410.02 287.78 408.89 286.84 405.33 286.84 401.96 287.22 399.89 287.59 397.46 287.03 394.65 289.28 392.58 293.4 393.33 297.15 389.77 302.4 388.65 308.21 389.21 311.78 391.65 313.46 393.71 316.28 392.4 317.96 394.46 317.21 396.71 318.15 398.21 318.34 401.96 317.96 404.58 317.59 407.02 316.46 409.08 315.9 416.02 317.4 417.89 323.78 417.52 326.03 417.33 325.65 414.14 322.28 414.33 322.65 410.96 325.28 409.27 323.96 408.33 320.96 408.71 321.71 405.71 321.34 403.08 321.15 400.83 322.46 398.96 322.28 397.27 323.96 395.21 322.65 394.27 326.03 390.52 323.4 390.15 318.71 389.21 312.15 385.83 308.03 383.96 301.09 383.58 297.15 384.52 291.72 387.15 285.9 389.58 280.09 390.15"/><polygon points="315.67 415.08 290.93 415.02 290.93 414.7 315.67 414.76 315.67 415.08"/><polygon points="315.6 416.91 290.87 416.85 290.87 416.52 315.61 416.58 315.6 416.91"/><polygon points="315.67 418.79 290.44 418.73 290.44 418.41 315.67 418.47 315.67 418.79"/><rect x="302.95" y="407.32" width="0.32" height="26.2" transform="translate(-119.41 720.6) rotate(-89.6)"/><rect x="290.62" y="421.99" width="26.56" height="0.32" transform="translate(-1.65 1.19) rotate(-0.22)"/><rect x="303.71" y="410.48" width="0.32" height="26.62" transform="matrix(0, -1, 1, 0, -121.31, 725.73)"/><rect x="290.87" y="425.7" width="24.98" height="0.32"/><polygon class="cls-37" points="282.16 418.08 283.48 419.99 281.53 421.73 281.64 423.46 282.51 427.8 290.59 427.57 289.88 422.27 288.25 420.53 290.78 418.27 282.16 418.08"/><polygon class="cls-37" points="326.06 417.3 324.74 419.21 326.69 420.94 326.58 422.68 325.71 427.01 317.63 426.78 318.34 421.49 319.97 419.75 317.4 417.89 326.06 417.3"/><path class="cls-31" d="M304.91,319.12l-.5-2.29.86-2.39.43-2.09-.36-4.58-1.8-3.68-2.3-.7-3.89-.4-2.66,4.88-.94,5.57.5,4.18.65.9-.07,2.79-1.22,3,2.37,1.09,2.52-.2,2.09-.5,2.37.5,1.94.8,1.08.5.29-4.08Zm-.21-8.12-.51,0-.47.84-.51,1.08-1.66,0-.78,1.36-.2-.84.37-.8,1.12-.94.92-.52,1.39-1Zm-1.39-4.6,1,1.27-.68.66-1.39,1.59-1.63,1.17.14-1.08.68-.56.95-.94Zm-4.92-2.11,1.12.14-.1,2.25.07,2.25-.71-1.59L298,305Zm-1.22,1,.54,2.49.92,1.83.88,1.31-.14.7-.78-1-1.42-2-.78-2.3Zm-1.49,3.47,1.19,1.69,1,1,.71.66.92,1.08-.17.94-1-1.22-1.42-.84-.92-1.08-.47-.52Zm3,12.71-1,.23-1.22-.75-.88-2.67-.1-2.58.41-.7.2,2.91.47,1.31.75.52,1.12.19.78.94Zm-1.83-3.94.2-1.31,1,1.08.51,1.27-.68.14Zm2.54,1.64-.58-2.35-.61-1.13-.78-.42-.61-.14-.27-1.59.78.66.85.28.75.61.64,1.55Zm2.85-14.21-.78,2.11-.81,1.69v-1.45l-.17-2.81Zm1.19,16.32-1.12.33-1.66-.09,0-.7,1-.8,1.46-.47.75-.8,0,1.31Zm-1.93-2.86.64-1,.81-1.27.81.47-.51,1-.78.84Zm1.42-3-.68-.19-1.09,1.5-.47,2.3-.14-2.39.37-.84,1.12-1.27.75.14.54-.56,1.19-1.45L304,314Z"/><polygon class="cls-4" points="669.02 379.45 676.39 362.45 686.59 351.68 698.5 343.74 707.57 339.21 714.37 335.81 736.47 335.24 750.08 338.64 771.05 351.11 789.75 365.28 801.66 377.75 802.67 379.97 802.67 290.92 527.27 290.92 532.57 304.35 534.65 328.6 520.18 349.94 506.57 345.2 504.3 345.43 505.67 347.93 505.45 350.64 503.41 350.65 500.68 347.71 495.23 344.54 490.24 343.19 483.44 343.2 481.63 345.7 479.14 346.16 477.78 344.57 474.83 345.94 468.72 347.54 468.72 349.13 467.14 351.85 465.6 352.38 464.42 351.17 464.2 355.71 464.44 366.82 464.46 377.24 463.46 386.44 668.39 386.44 669.02 379.45"/><polygon class="cls-5" points="646.62 479.54 646.44 469.16 652.17 457.17 661.3 449.47 669.17 448.93 680.92 449.17 671.29 447.47 661.09 440.1 651.45 433.87 644.08 422.53 643.51 408.93 646.44 401.97 646.44 401.97 648.05 398.16 655.98 391.92 667.89 391.92 668.39 386.44 463.46 386.44 463.13 389.49 463.38 402.41 463.63 415.1 462.97 428.71 459.82 439.14 454.16 447.31 450.31 449.81 445.55 449.59 442.15 447.33 439.89 452.55 435.14 459.36 426.32 471.62 419.99 477.75 413.8 481.96 647.32 481.96 646.62 479.54"/><polygon class="cls-2" points="794.94 528.31 797.29 536.14 801.99 539.01 802.67 539.77 802.67 519.63 796.77 518.91 794.94 528.31"/><polygon class="cls-38" points="789.75 365.28 771.05 351.11 750.08 338.64 767.3 355.29 746.08 343.04 730.54 339.75 714.71 341.55 700.07 346.92 689.01 358.58 679.15 374.41 676.82 386.44 756.81 386.44 782.29 383.3 786.36 386.44 802.67 386.44 802.67 379.97 801.66 377.75 789.75 365.28"/><polygon class="cls-38" points="675.86 437.46 671.98 418.34 669.59 398.02 665.7 396.82 658.53 397.72 652.85 402.2 645.38 411.47 646.44 401.97 643.51 408.93 644.08 422.53 651.45 433.87 661.09 440.1 671.29 447.47 680.92 449.17 684.33 453.7 675.86 437.46"/><polygon class="cls-38" points="798.65 395.89 802.67 412.63 802.67 386.44 786.36 386.44 798.65 395.89"/><polygon class="cls-38" points="676.76 416.55 681.84 436.87 690.8 462.26 696.78 472.75 695.42 451.29 701.71 424.43 727.31 399.67 755.01 386.66 756.81 386.44 676.82 386.44 675.56 392.94 676.76 416.55"/><polygon class="cls-38" points="757.95 405.55 738.64 416.88 725.21 433.66 722.7 449.19 729.83 462.62 749.13 470.59 778.51 465.14 798.24 460.1 802.67 461.62 802.67 416.45 781.45 407.64 757.95 405.55"/><polygon class="cls-39" points="691.66 480.95 681.13 480.95 677.94 478.07 678.89 461.48 676.34 459.88 668.36 461.8 658.79 466.27 657.19 472.65 656.61 481.96 668.38 481.96 669.53 481.15 670.79 481.96 697.83 481.96 698.4 479.77 691.66 480.95"/><path class="cls-39" d="M714.93,487.15l5.72,11.3,1.21,13.08-5.23-10.06-5.23-3.22-1.81,2-1.81,7.45.81,10.06,4.83,11.67,5.23,9.46,1.61,7.45L718,550.17l-4.23-2.62-3-4-3-8.45-3.62-7.65-3.35-12.69-2.22,1.53-3.19-2.21-2.7-6.87V497.13l3.93-10.55,1.22-4.63h-27L674,484l2.86,5.37L677,504.6l.36,19.87,6.28-3,2.55,8.62,3.19,15.64,8.3,8,9.26,7,8,5.74,5.69,11h14.1l-3-7.25L724,560.33l4.3-11.18L729.61,535l.43-15.48.76-13.62-7.94-8.5Zm7.33,54.17-1.81-.4-4-9.46-4.63-12.88.2-5.84.6-4,4.83,2.42,3,9.86,2,10.47Z"/><polygon class="cls-39" points="656.55 482.86 660.22 489.56 664.7 484.55 668.38 481.96 656.61 481.96 656.55 482.86"/><polygon class="cls-39" points="802.67 560.57 797.14 561.63 791.98 563.35 789.4 569.37 786.39 575.39 781.66 576.68 778.65 575.39 776.1 577.47 802.67 577.47 802.67 560.57"/><polygon class="cls-39" points="744.24 576.68 735.51 577.47 749.2 577.47 744.24 576.68"/><polygon class="cls-40" points="699.16 476.91 699 479.67 698.4 479.77 697.83 481.96 702.18 481.96 699.16 476.91"/><polygon class="cls-40" points="697.83 481.96 696.62 486.58 692.69 497.13 692.69 507.19 695.39 514.06 698.58 516.27 700.79 514.74 699.07 505.71 702.09 494.53 705.3 487.15 702.18 481.96 697.83 481.96"/><polygon class="cls-40" points="668.38 481.96 670.79 481.96 669.53 481.15 668.38 481.96"/><polygon class="cls-40" points="676.87 489.38 674 484.01 670.79 481.96 668.38 481.96 664.7 484.55 660.22 489.56 658.97 497.62 657.76 502.06 656.66 507.97 657.32 513.66 661.48 520.66 666.95 524.59 672.41 526.34 677.4 524.46 677.05 504.6 676.87 489.38"/><polygon class="cls-40" points="735.51 577.47 734.75 577.47 734.77 577.54 735.51 577.47"/><polygon class="cls-40" points="790.89 516.05 744.41 509.82 730.8 505.85 730.04 519.47 729.61 534.96 728.32 549.15 724.02 560.33 731.76 570.23 734.75 577.47 735.51 577.47 744.24 576.68 749.2 577.47 776.1 577.47 778.65 575.39 781.66 576.68 786.39 575.39 789.4 569.37 791.98 563.35 797.14 561.63 802.67 560.57 802.67 539.77 801.99 539.01 797.29 536.14 794.94 528.31 796.77 518.91 802.67 519.63 802.67 510.82 790.89 516.05"/><polygon class="cls-41" points="782.29 383.3 756.81 386.44 786.36 386.44 782.29 383.3"/><polygon class="cls-41" points="786.36 386.44 756.81 386.44 755.01 386.66 727.31 399.67 701.71 424.43 695.42 451.29 696.78 472.75 699.16 476.91 702.18 481.96 726.23 481.96 725.21 479.82 731.09 472.27 746.62 477.31 758.37 481.08 771.8 475.63 793.94 481.96 802.67 481.96 802.67 461.62 798.24 460.1 778.51 465.14 749.13 470.59 729.83 462.62 722.7 449.19 725.21 433.66 738.64 416.88 757.95 405.55 781.45 407.64 802.67 416.45 802.67 412.63 798.65 395.89 786.36 386.44"/><polygon class="cls-41" points="795.3 482.34 802.67 490.07 802.67 481.96 793.94 481.96 795.3 482.34"/><polygon class="cls-41" points="773.89 509.62 751.23 505.42 733.19 496.61 726.23 481.96 702.18 481.96 705.3 487.15 714.93 487.15 722.87 497.35 730.8 505.85 744.41 509.82 756.31 509.25 770.48 513.22 790.89 516.05 802.67 510.82 802.67 497.15 800.75 504.58 773.89 509.62"/><polygon class="cls-41" points="702.18 481.96 702.18 481.96 699.16 476.91 699.16 476.91 702.18 481.96"/><polygon class="cls-41" points="705.3 487.15 702.18 481.96 702.18 481.96 705.3 487.15"/><polygon class="cls-41" points="756.31 509.25 744.41 509.82 790.89 516.05 770.48 513.22 756.31 509.25"/><polygon class="cls-42" points="646.44 401.97 646.44 401.97 648.05 398.16 646.44 401.97"/><polygon class="cls-42" points="679.15 374.41 689.01 358.58 700.07 346.92 714.71 341.55 730.54 339.75 746.08 343.04 767.3 355.29 750.08 338.64 736.47 335.24 714.37 335.81 707.57 339.21 698.5 343.74 686.59 351.68 676.39 362.45 669.02 379.45 668.39 386.44 676.82 386.44 679.15 374.41"/><polygon class="cls-42" points="652.85 402.2 658.53 397.72 665.7 396.82 669.59 398.02 671.98 418.34 675.86 437.46 684.33 453.7 690.8 462.26 681.84 436.87 676.76 416.55 675.56 392.94 676.82 386.44 668.39 386.44 667.89 391.92 655.98 391.92 648.05 398.16 646.44 401.97 645.38 411.47 652.85 402.2"/><polygon class="cls-43" points="771.8 475.63 758.37 481.08 746.62 477.31 731.09 472.27 725.21 479.82 726.23 481.96 793.94 481.96 771.8 475.63"/><polygon class="cls-43" points="793.94 481.96 726.23 481.96 733.19 496.61 751.23 505.42 773.89 509.62 800.75 504.58 802.67 497.15 802.67 490.07 795.3 482.34 793.94 481.96"/><polygon class="cls-44" points="684.33 453.7 687.73 463.34 696.79 472.98 696.78 472.75 690.8 462.26 684.33 453.7"/><polygon class="cls-44" points="657.19 472.65 658.79 466.27 668.36 461.8 676.34 459.88 678.89 461.48 677.94 478.07 681.13 480.95 691.66 480.95 698.4 479.77 699.16 476.91 696.79 472.98 687.73 463.34 684.33 453.7 680.92 449.17 669.17 448.93 661.3 449.47 652.17 457.17 646.44 469.16 646.62 479.54 647.32 481.96 656.61 481.96 657.19 472.65"/><polygon class="cls-44" points="656.55 482.86 656.61 481.96 647.32 481.96 650.2 491.89 658.97 497.62 660.22 489.56 656.55 482.86"/><polygon class="cls-44" points="699.16 476.91 699.16 476.91 698.4 479.77 699 479.67 699.16 476.91"/><polygon class="cls-44" points="699.16 476.91 696.78 472.75 696.79 472.98 699.16 476.91"/><polygon class="cls-44" points="699.16 476.91 699.16 476.91 696.79 472.98 699.16 476.91"/><polygon class="cls-44" points="699.16 476.91 699.16 476.91 699.16 476.91 699.16 476.91"/><polygon class="cls-45" points="714.96 566.48 706.98 560.73 697.72 553.71 689.43 545.73 686.23 530.1 683.68 521.48 677.4 524.46 679.37 537.17 685.82 549.52 693.69 559.72 705.5 566.16 716.6 574.04 718.63 577.47 720.65 577.47 714.96 566.48"/><polygon class="cls-45" points="699.07 505.71 700.79 514.74 704.15 527.43 707.77 535.08 710.79 543.53 713.81 547.56 718.03 550.17 720.25 546.35 718.64 538.9 713.41 529.44 708.58 517.77 707.77 507.7 709.58 500.26 711.39 498.24 716.63 501.46 721.86 511.53 720.65 498.44 714.93 487.15 705.3 487.15 702.09 494.53 699.07 505.71"/><polygon class="cls-44" points="717.43 511.13 712.6 508.71 712 512.74 711.8 518.57 716.42 531.46 720.45 540.91 722.26 541.32 722.46 531.46 720.45 520.99 717.43 511.13"/><polygon class="cls-2" points="631.09 511.15 631.42 534.97 626.19 541.08 664.49 577.47 718.63 577.47 716.6 574.04 705.5 566.16 693.69 559.72 685.82 549.52 679.37 537.17 677.4 524.46 672.41 526.34 666.95 524.59 661.48 520.66 657.32 513.66 656.66 507.97 657.76 502.06 658.97 497.62 650.2 491.89 647.32 481.96 609.43 481.96 620.28 492.12 631.09 511.15"/><polygon class="cls-46" points="600.34 565.75 614.76 577.47 614.76 577.47 600.34 565.75"/><polygon class="cls-47" points="634.13 534.86 620.57 512.01 606.54 498.33 591.4 493.28 577.65 498.21 561.01 508.71 553.99 527.1 555.79 543.63 563.1 560.68 575.57 570.71 572.97 558.11 572.89 543.35 577.98 532.83 586.48 528.35 595.16 528.17 601.7 533.71 595.24 541.48 594.71 550.46 596.95 557.63 601.09 554.23 604.92 556.53 618.09 562.26 635.97 573.85 640.9 576.84 674.52 570.48 630.12 541.83 634.13 534.86"/><polygon class="cls-46" points="599.59 484.9 577.51 486.48 569.3 493.16 602.67 486.85 599.59 484.9"/><polygon class="cls-46" points="547.3 522.18 544.34 541.83 556.28 565.6 573.71 581.76 595.68 581.97 575.57 570.71 563.1 560.68 555.79 543.63 553.99 527.1 561.01 508.71 577.65 498.21 591.4 493.28 606.54 498.33 620.57 512.01 634.13 534.86 629.38 511.51 615.22 494.82 602.67 486.85 569.3 493.16 554.8 504.97 547.3 522.18"/><polygon class="cls-48" points="596.95 557.63 594.71 550.46 595.24 541.48 601.7 533.71 595.16 528.17 586.48 528.35 577.98 532.83 572.89 543.35 572.97 558.11 575.57 570.71 595.68 581.97 609.31 570.88 601.12 565.43 596.95 557.63"/><polygon class="cls-46" points="618.09 562.26 604.92 556.53 601.09 554.23 596.95 557.63 601.12 565.43 609.31 570.88 625.66 579.72 640.9 576.84 635.97 573.85 618.09 562.26"/><path class="cls-49" d="M813.71,588.51H38.06V184.37H813.71ZM60.13,566.44H791.64v-360H60.13Z"/><path class="cls-50" d="M806.57,582.6H45.2V192.74H806.57ZM53,574.8H798.78V200.53H53Z"/><path class="cls-51" d="M441.13,611.88h2.68L435,653.12h24.59l-.49,2.32H431.8Z"/><path class="cls-51" d="M485.43,655.44h-2.32l1.46-6.59-.12-.12a22.48,22.48,0,0,1-2.2,3.14,12.45,12.45,0,0,1-2.62,2.35,11,11,0,0,1-3.26,1.46,16,16,0,0,1-4.18.49,10,10,0,0,1-3.39-.58,8.18,8.18,0,0,1-2.84-1.71,8.39,8.39,0,0,1-2-2.75,8.69,8.69,0,0,1-.73-3.63,13.49,13.49,0,0,1,.09-1.4q.09-.85.24-1.77t.31-1.74c.1-.55.19-1,.27-1.37L468,624.08h2.32l-3.84,17.08c-.08.28-.17.69-.27,1.22s-.2,1.1-.31,1.71-.18,1.21-.24,1.8-.09,1.11-.09,1.56a6.45,6.45,0,0,0,1.92,4.85,7.53,7.53,0,0,0,5.46,1.86,9.55,9.55,0,0,0,5.09-1.4,15.12,15.12,0,0,0,4-3.63,21.21,21.21,0,0,0,2.87-4.94,29.91,29.91,0,0,0,1.68-5.34l3.11-14.76h2.32Z"/><path class="cls-51" d="M500.13,624.08h2.32l-6.53,31.36H493.6Zm2.56-12.2H505l-1.28,6.28h-2.32Z"/><path class="cls-51" d="M505.74,657.64a7.06,7.06,0,0,0,2.38,5.8,9.5,9.5,0,0,0,6.22,2,14.81,14.81,0,0,0,5.49-.88,10.05,10.05,0,0,0,3.63-2.41,11.22,11.22,0,0,0,2.26-3.63,32.11,32.11,0,0,0,1.37-4.48l1.4-6.22h-.12a13.16,13.16,0,0,1-4.55,4.82,12.14,12.14,0,0,1-6.5,1.71,13.24,13.24,0,0,1-5.12-.91,9.34,9.34,0,0,1-3.63-2.62,11.22,11.22,0,0,1-2.14-4,17.86,17.86,0,0,1-.7-5.19,21.52,21.52,0,0,1,1-6.56,19.41,19.41,0,0,1,3-5.86,15,15,0,0,1,4.85-4.18,13.43,13.43,0,0,1,6.56-1.59,12.3,12.3,0,0,1,4,.64,11.1,11.1,0,0,1,3.32,1.77,8.55,8.55,0,0,1,2.29,2.75,8.09,8.09,0,0,1,.91,3.57h.12l1.77-8h2.32L529.41,654a28.18,28.18,0,0,1-1.77,5.7,13.28,13.28,0,0,1-2.9,4.21,11.61,11.61,0,0,1-4.42,2.62,20,20,0,0,1-6.35.88,13.7,13.7,0,0,1-4.24-.64,9.62,9.62,0,0,1-3.42-1.89,8.56,8.56,0,0,1-2.23-3.05,9.12,9.12,0,0,1-.67-4.18Zm15.5-32.27a10.92,10.92,0,0,0-5.58,1.43,13.45,13.45,0,0,0-4.15,3.72,17.21,17.21,0,0,0-2.56,5.16,19.15,19.15,0,0,0-.88,5.67q0,5.12,2.32,8t7.44,2.9a9.63,9.63,0,0,0,5.55-1.62,14.42,14.42,0,0,0,4-4.09,18.6,18.6,0,0,0,2.41-5.46,22.39,22.39,0,0,0,.79-5.73,10.53,10.53,0,0,0-1-4.79,9.54,9.54,0,0,0-2.38-3.08,8.65,8.65,0,0,0-3.05-1.65A10.48,10.48,0,0,0,521.24,625.36Z"/><path class="cls-51" d="M543.08,624.08h2.32l-6.53,31.36h-2.32Zm2.56-12.2H548l-1.28,6.28h-2.32Z"/><path class="cls-51" d="M558.51,618.16q-.31,1.22-.7,2.44a8.88,8.88,0,0,1-1.1,2.26,8.05,8.05,0,0,1-1.71,1.83,6.46,6.46,0,0,1-2.53,1.16l.43-2a3.31,3.31,0,0,0,1.53-.85,6,6,0,0,0,1-1.4,8.09,8.09,0,0,0,.67-1.68q.24-.88.43-1.74h-1.1l1.4-6.28h3.05Z"/><path class="cls-51" d="M558.88,644.76c0,.24,0,.49,0,.73s0,.49,0,.73q0,4.39,2.84,6.16a14.63,14.63,0,0,0,7.78,1.77,10.33,10.33,0,0,0,5.49-1.71,7.41,7.41,0,0,0,2.1-2.1,5.15,5.15,0,0,0,.82-2.9,5,5,0,0,0-1.37-3.57,11.08,11.08,0,0,0-3.23-2.2,31.61,31.61,0,0,0-4.18-1.56,22.42,22.42,0,0,1-4.15-1.68,10.55,10.55,0,0,1-3.17-2.53,5.91,5.91,0,0,1-1.22-4.09,7.23,7.23,0,0,1,1-3.81,8.2,8.2,0,0,1,2.56-2.65,11.5,11.5,0,0,1,3.57-1.52,16.65,16.65,0,0,1,4-.49,16.14,16.14,0,0,1,4.15.52,11.42,11.42,0,0,1,3.42,1.49,7.29,7.29,0,0,1,2.32,2.47,6.71,6.71,0,0,1,.85,3.39c0,.37,0,.71,0,1s-.05.75-.09,1.28h-2.32c0-.37.07-.71.09-1s0-.65,0-1a5.27,5.27,0,0,0-.67-2.68,5.71,5.71,0,0,0-1.83-1.92,9,9,0,0,0-2.69-1.16,12.83,12.83,0,0,0-3.23-.4,14.94,14.94,0,0,0-2.93.31,9.68,9.68,0,0,0-2.84,1,6.59,6.59,0,0,0-2.17,1.92,5,5,0,0,0-.85,3,4.34,4.34,0,0,0,.76,2.59,7.26,7.26,0,0,0,2,1.86,14.07,14.07,0,0,0,2.78,1.37q1.55.58,3.14,1.13t3.2,1.22a12.8,12.8,0,0,1,2.78,1.62,7.43,7.43,0,0,1,2,2.26,6.36,6.36,0,0,1,.73,3.14,8.13,8.13,0,0,1-1,4.09,9.26,9.26,0,0,1-2.65,3,11.65,11.65,0,0,1-3.72,1.77,15.81,15.81,0,0,1-4.27.58,21.61,21.61,0,0,1-4.7-.49A10.9,10.9,0,0,1,560,654.1a7.84,7.84,0,0,1-2.56-2.9,9.42,9.42,0,0,1-.95-4.42v-1.46a2.87,2.87,0,0,1,.06-.55Z"/><path class="cls-51" d="M611.16,611.88h3.66l8.24,40.75h.12L649,611.88h4l-9.46,43.56h-2.68L650,614.57h-.12L624,655.44h-2.62L613,614.57h-.12l-8.36,40.88h-2.69Z"/><path class="cls-51" d="M655.15,633.11q1.22-5.25,4.7-7.5a15.84,15.84,0,0,1,8.78-2.26,18.08,18.08,0,0,1,2.84.27,10.16,10.16,0,0,1,3.2,1.1,7.88,7.88,0,0,1,2.59,2.26,6.24,6.24,0,0,1,1.07,3.81,15.89,15.89,0,0,1-.3,2.72q-.31,1.68-.67,3.32t-.7,3q-.34,1.34-.4,1.71l-.67,2.68q-.37,1.46-.67,2.87t-.52,2.59a11.21,11.21,0,0,0-.21,1.86,2.35,2.35,0,0,0,.43,1.43,1.49,1.49,0,0,0,1.28.58,4.76,4.76,0,0,0,1-.12l1-.24-.37,2.07a7.69,7.69,0,0,1-1.37.24q-.7.06-1.31.06a2.58,2.58,0,0,1-2.32-1.1,3.86,3.86,0,0,1-.73-2.14,5.64,5.64,0,0,1,.18-1.25q.18-.76.31-1.37h-.12a10.25,10.25,0,0,1-2.32,2.93,14.28,14.28,0,0,1-3,2,13.83,13.83,0,0,1-3.29,1.16,15.5,15.5,0,0,1-3.23.37,15,15,0,0,1-3.78-.46,8.48,8.48,0,0,1-3.08-1.46,7.07,7.07,0,0,1-2.07-2.59,9,9,0,0,1-.76-3.9,9.23,9.23,0,0,1,1.16-4.88,8,8,0,0,1,3.08-2.93,13.8,13.8,0,0,1,4.39-1.43,38,38,0,0,1,5.16-.46,49.43,49.43,0,0,0,5.49-.46,11.43,11.43,0,0,0,3.54-1,4.26,4.26,0,0,0,1.92-1.86,6.53,6.53,0,0,0,.58-2.93,6.19,6.19,0,0,0-1.8-4.67q-1.8-1.74-6.07-1.74a11.85,11.85,0,0,0-6.89,1.86,9.8,9.8,0,0,0-3.72,5.89Zm19.64,4.64h-.12a4.67,4.67,0,0,1-1.89,1.07,22.29,22.29,0,0,1-2.62.67,26.36,26.36,0,0,1-2.84.4l-2.41.18q-2.2.06-4.33.31a12.06,12.06,0,0,0-3.81,1,6.76,6.76,0,0,0-2.72,2.29,7,7,0,0,0-1,4.06,6.11,6.11,0,0,0,.67,3,5.72,5.72,0,0,0,1.77,2,7.27,7.27,0,0,0,2.53,1.1,13.17,13.17,0,0,0,3,.34,11.56,11.56,0,0,0,4.91-1,10.89,10.89,0,0,0,3.6-2.65,15.44,15.44,0,0,0,2.5-3.87,30.53,30.53,0,0,0,1.68-4.64Z"/><path class="cls-51" d="M688.34,624.08h2.32l-1.53,6.83h.12a16.47,16.47,0,0,1,5.25-5.52,13.44,13.44,0,0,1,7.44-2,10,10,0,0,1,3.39.58,8.25,8.25,0,0,1,2.84,1.71,8.44,8.44,0,0,1,2,2.75,8.7,8.7,0,0,1,.73,3.63,13.78,13.78,0,0,1-.09,1.4c-.06.57-.14,1.16-.24,1.77s-.2,1.19-.31,1.74-.19,1-.27,1.37l-3.84,17.14h-2.32l3.84-17.08c0-.28.11-.69.21-1.22s.2-1.09.31-1.68.19-1.19.27-1.8a12.31,12.31,0,0,0,.12-1.59,6.45,6.45,0,0,0-1.92-4.85,7.54,7.54,0,0,0-5.46-1.86,10.21,10.21,0,0,0-5.34,1.4,14.77,14.77,0,0,0-4.09,3.63,22.07,22.07,0,0,0-2.9,4.94,28.42,28.42,0,0,0-1.71,5.34L684,655.44h-2.32Z"/><path class="cls-51" d="M716,644.76c0,.24,0,.49,0,.73s0,.49,0,.73q0,4.39,2.84,6.16a14.63,14.63,0,0,0,7.78,1.77,10.34,10.34,0,0,0,5.49-1.71,7.4,7.4,0,0,0,2.1-2.1,5.15,5.15,0,0,0,.82-2.9,5,5,0,0,0-1.37-3.57,11.08,11.08,0,0,0-3.23-2.2,31.5,31.5,0,0,0-4.18-1.56,22.46,22.46,0,0,1-4.15-1.68,10.56,10.56,0,0,1-3.17-2.53,5.91,5.91,0,0,1-1.22-4.09,7.23,7.23,0,0,1,1-3.81,8.19,8.19,0,0,1,2.56-2.65,11.48,11.48,0,0,1,3.57-1.52,16.65,16.65,0,0,1,4-.49,16.15,16.15,0,0,1,4.15.52,11.43,11.43,0,0,1,3.42,1.49,7.3,7.3,0,0,1,2.32,2.47,6.71,6.71,0,0,1,.85,3.39c0,.37,0,.71,0,1s-.05.75-.09,1.28H737c0-.37.07-.71.09-1s0-.65,0-1a5.27,5.27,0,0,0-.67-2.68,5.72,5.72,0,0,0-1.83-1.92,9,9,0,0,0-2.68-1.16,12.85,12.85,0,0,0-3.23-.4,14.93,14.93,0,0,0-2.93.31,9.69,9.69,0,0,0-2.84,1,6.56,6.56,0,0,0-2.17,1.92,4.94,4.94,0,0,0-.85,3,4.34,4.34,0,0,0,.76,2.59,7.24,7.24,0,0,0,2,1.86,14.15,14.15,0,0,0,2.78,1.37q1.56.58,3.14,1.13t3.2,1.22a12.8,12.8,0,0,1,2.78,1.62,7.38,7.38,0,0,1,2,2.26,6.35,6.35,0,0,1,.73,3.14,8.12,8.12,0,0,1-1,4.09,9.25,9.25,0,0,1-2.65,3,11.64,11.64,0,0,1-3.72,1.77,15.8,15.8,0,0,1-4.27.58,21.62,21.62,0,0,1-4.7-.49,10.9,10.9,0,0,1-3.81-1.59,7.84,7.84,0,0,1-2.56-2.9,9.42,9.42,0,0,1-.95-4.42v-1.46a3,3,0,0,1,.06-.55Z"/><path class="cls-51" d="M748.13,624.08h2.32l-6.53,31.36H741.6Zm2.56-12.2H753l-1.28,6.28h-2.32Z"/><path class="cls-51" d="M770,623.35q5.86,0,9.12,3.23t3.26,9.09a25.82,25.82,0,0,1-1.07,7.26,21.53,21.53,0,0,1-3.17,6.59,17.16,17.16,0,0,1-5.25,4.79,13.92,13.92,0,0,1-7.23,1.86,14.9,14.9,0,0,1-5.58-.95,10.3,10.3,0,0,1-3.9-2.68,11.18,11.18,0,0,1-2.32-4.15,17.82,17.82,0,0,1-.76-5.4,22.63,22.63,0,0,1,1.16-7.08,20.57,20.57,0,0,1,3.33-6.31,17.23,17.23,0,0,1,5.31-4.52A14.43,14.43,0,0,1,770,623.35Zm.49,2a12.55,12.55,0,0,0-6.41,1.49,15.16,15.16,0,0,0-4.73,4.06,18.39,18.39,0,0,0-2.93,5.64,20.4,20.4,0,0,0-1,6.25,16.12,16.12,0,0,0,.58,4.42,10,10,0,0,0,1.83,3.6,8.62,8.62,0,0,0,3.17,2.44,10.93,10.93,0,0,0,4.61.89,11.45,11.45,0,0,0,6.31-1.74A15.33,15.33,0,0,0,776.4,648a20.6,20.6,0,0,0,2.72-5.95,23.37,23.37,0,0,0,.91-6.31,11.32,11.32,0,0,0-2.32-7.44Q775.39,625.49,770.45,625.36Z"/><path class="cls-51" d="M791.2,624.08h2.32L792,630.92h.12a16.48,16.48,0,0,1,5.25-5.52,13.44,13.44,0,0,1,7.44-2,10,10,0,0,1,3.39.58,8.25,8.25,0,0,1,2.84,1.71,8.44,8.44,0,0,1,2,2.75,8.7,8.7,0,0,1,.73,3.63,13.78,13.78,0,0,1-.09,1.4c-.06.57-.14,1.16-.24,1.77s-.2,1.19-.31,1.74-.19,1-.27,1.37l-3.84,17.14h-2.32l3.84-17.08c0-.28.11-.69.21-1.22s.2-1.09.31-1.68.19-1.19.27-1.8a12.31,12.31,0,0,0,.12-1.59,6.45,6.45,0,0,0-1.92-4.85,7.54,7.54,0,0,0-5.46-1.86,10.21,10.21,0,0,0-5.34,1.4,14.77,14.77,0,0,0-4.09,3.63,22.07,22.07,0,0,0-2.9,4.94,28.42,28.42,0,0,0-1.71,5.34l-3.11,14.76h-2.32Z"/></g></g></svg>