<svg xmlns="http://www.w3.org/2000/svg" viewBox="0 0 524.04 524.04"><defs><style>.cls-1,.cls-2{fill:#fff;}.cls-2{stroke:#231f20;stroke-miterlimit:10;stroke-width:1.33px;}.cls-3{fill:#5e5f5f;}.cls-4{fill:#939393;}.cls-5{fill:#ccc;}.cls-6{fill:none;}.cls-7{fill:#231f20;}</style></defs><title>moonwide_productions</title><g id="Layer_2" data-name="Layer 2"><g id="Layer_1-2" data-name="Layer 1"><rect class="cls-1" width="524.04" height="524.04"/><polygon class="cls-2" points="95.82 325.91 95.82 325.91 95.82 325.91 95.82 325.91"/><path class="cls-3" d="M420.9,181.78l-14.06,8.12,11.37,19.75.84,4.19h0l4.55,22.74,6,28.13L414,297,402,318l6.58,7.93,11.55,17.89a178.27,178.27,0,0,0,.72-162Z"/><polygon class="cls-1" points="196.93 181.12 210.97 171.35 240.29 158.52 265.95 157.91 271.58 126.76 271.58 112.69 262.02 124.66 250.63 121.67 228.49 121.67 208.74 137.83 203.95 144.41 189.29 154.59 181.81 173.14 181.81 194.69 196.93 181.12"/><path class="cls-3" d="M271.58,249.15l10.77-11.37,28.13-7.18,10.17,25.14-21.55,18.55,21.55,10.77L344.6,267.7,353,255.13l-9-20.35-8.68-24.54,5.89-10.66h-20L301.5,188.1,288.34,197l-35.22,2.58H216.47s-4.89,8.41-9.16,9-27.89,5.23-27.89,5.23l9.87,12L208.74,233v37.7l-27.53,7.78-11.37,13.77L177,305.48l-6.58,10.1,1.8,10.33,28.13-9.13,20.95-5.39,8.38,7.78,6,6.74,6,7h7.78l6.58,3.59v19.15L243.45,367l-3.59,10.77,2.39,13.77L264.72,368,262,343.8l5.38-14.46-16.11-23L240.46,296l.6-19.87,15-10.17Z"/><path class="cls-1" d="M271.58,112.69v14.07l-5.63,31.15-25.65.61L211,171.35l-14,9.77-15.12,13.56-2.39,19.15s23.62-4.62,27.89-5.23,9.16-9,9.16-9h36.65L288.34,197l13.17-8.9L285.35,163l-7.18-22.74,13.17-15.56,15-4.19-1.2-16.16,4.59-13.75a177.84,177.84,0,0,0-42.24-6.37l4.13,11.15Z"/><path class="cls-1" d="M291.33,403.56l-3-21.55,7.78-5.39V362.86l7.18-11.37V334.73l-19.75-16.16-12-20.35L250,285.06l-9-9-.6,19.87,10.83,10.38,16.11,23L262,343.8,264.72,368l-22.47,23.56-17.36,12-6,12-6,7.18-10.39,7.18a178.77,178.77,0,0,0,93.27,7l-7.48-24.33Z"/><polygon class="cls-4" points="208.74 270.69 208.74 246.16 208.74 232.99 189.29 225.81 179.41 213.84 181.81 194.69 181.81 173.14 167 181.78 159.66 188.1 148.67 197 136.45 209.83 136.45 226.93 152.34 238.54 144.4 255.03 139.51 271.52 142.31 285.06 157.27 285.06 169.84 292.24 181.21 278.47 208.74 270.69"/><path class="cls-5" d="M164.71,145.07V131.65l17.1-9.77,31.61-13.44L217,89.85A178.13,178.13,0,0,0,95.82,325.91l9.38-9.73,6.58-18.55,16.16-5.39,14.36-7.18-2.8-13.54L144.39,255l7.94-16.49-15.88-11.61v-17.1L148.67,197l11-8.9,7.33-6.32,14.81-8.64,7.48-18.55L177.8,154Z"/><path class="cls-3" d="M267.45,84.19h0c-1.79-.05-3.58-.09-5.38-.09a180,180,0,0,0-18.76,1A177.31,177.31,0,0,0,217,89.85l-3.6,18.58-31.61,13.44-17.1,9.77v13.43L177.8,154l11.49.63L204,144.41l4.79-6.58,19.75-16.16h22.14l11.38,3,9.56-12V95.34Z"/><path class="cls-1" d="M136.45,346.65l29.32,4.89h31.76l19.55-14.41,4.23-25.73-20.95,5.39-28.13,9.13-1.8-10.33,6.58-10.1-7.18-13.24-12.57-7.18h-15l-14.36,7.18-16.16,5.39-6.58,18.55-9.38,9.73h0a177.21,177.21,0,0,0,12.3,25.63l10.62-7.73Z"/><path class="cls-5" d="M218.91,415.53l6-12,17.36-12-2.39-13.77L243.45,367,256,355.68V336.53l-6.58-3.59h-7.78l-6-7-6-6.74-8.38-7.78-4.23,25.73-19.55,14.41H165.77l-29.32-4.89-17.71-2.85-10.62,7.73a178.53,178.53,0,0,0,94.43,78.36l10.39-7.18Z"/><path class="cls-5" d="M306.29,120.48l-15,4.19-13.17,15.56,28.71,4.85,28.45,12.23v10.38H360L374.52,154l16.64,4L408.52,161a178.27,178.27,0,0,0-98.83-70.44l-4.59,13.75Z"/><path class="cls-4" d="M374.52,154,360,167.68H335.32V157.3l-28.45-12.23-28.71-4.85L285.35,163,301.5,188.1l19.75,11.48h20l10-18.07h23.94l31.72,8.38,14.06-8.12A177.88,177.88,0,0,0,408.52,161l-17.35-3.09Z"/><path class="cls-4" d="M402,318l-27.53,11.37L341,337.13l-37.7-2.39v16.76l28.61,9.82h40.31l7.94,4.89-11,21.38-39.09,25.65,5.23,11.09a178.68,178.68,0,0,0,84.87-80.52l-11.55-17.89Z"/><path class="cls-5" d="M369.17,387.58l11-21.38-7.94-4.89H331.91l-28.61-9.82-7.18,11.37v13.77L288.34,382l3,21.55-3,9,7.48,24.33a176.69,176.69,0,0,0,39.5-12.55l-5.23-11.09Z"/><polygon class="cls-5" points="339.86 301.45 349.53 281.91 344.6 267.7 320.66 285.06 299.11 274.29 320.66 255.73 310.48 230.6 282.35 237.78 271.58 249.15 256.02 265.91 241.06 276.08 250.03 285.06 271.58 298.22 283.55 318.57 303.3 334.73 341 337.13 374.52 329.35 349.53 317.97 339.86 301.45"/><polygon class="cls-5" points="351.18 181.52 341.2 199.59 335.32 210.25 344.13 213.84 374.52 213.84 396.66 220.82 419.05 213.84 418.21 209.65 406.84 189.9 375.12 181.52 351.18 181.52"/><polygon class="cls-1" points="374.52 213.84 344.13 213.84 335.32 210.25 344 234.78 352.97 255.13 344.6 267.7 349.53 281.91 339.86 301.45 349.53 317.97 374.52 329.35 402.05 317.97 414.02 297.03 429.58 264.71 423.6 236.58 419.05 213.84 396.66 220.82 374.52 213.84"/><path class="cls-6" d="M270.43,477.17v11c120.88-4.44,217.86-104.15,217.86-226.1h-11C477.26,378,385.23,472.73,270.43,477.17Z"/><path class="cls-6" d="M65.25,262.1C65.25,153.6,153.52,65.34,262,65.34V52.74c-115.44,0-209.37,93.92-209.37,209.37,0,.19,0,.38,0,.57h12.6C65.26,262.48,65.25,262.29,65.25,262.1Z"/><path class="cls-6" d="M471.38,262.1h-12.6c0,105.68-83.74,192.15-188.35,196.58v12.61C382,466.85,471.38,374.73,471.38,262.1Z"/><path class="cls-6" d="M35.75,262.1c0,.19,0,.38,0,.57h11c0-.19,0-.38,0-.57C46.77,143.42,143.33,46.86,262,46.86v-11C137.25,35.83,35.75,137.33,35.75,262.1Z"/><path class="cls-3" d="M71.13,262.1C71.13,156.85,156.76,71.21,262,71.21V65.34c-108.5,0-196.77,88.27-196.77,196.77,0,.19,0,.38,0,.57h5.88C71.14,262.48,71.13,262.29,71.13,262.1Z"/><path class="cls-3" d="M270.43,452.79v5.88C375,454.25,458.79,367.78,458.79,262.1h-5.88C452.91,364.54,371.8,448.38,270.43,452.79Z"/><path class="cls-3" d="M52.65,262.1C52.65,146.66,146.57,52.74,262,52.74V46.86c-118.69,0-215.24,96.56-215.24,215.24,0,.19,0,.38,0,.57h5.88C52.66,262.48,52.65,262.29,52.65,262.1Z"/><path class="cls-3" d="M270.43,471.28v5.88c114.8-4.44,206.83-99.2,206.83-215.06h-5.88C471.38,374.73,382,466.85,270.43,471.28Z"/><path class="cls-3" d="M270.43,488.2v5.88c124.13-4.45,223.74-106.79,223.74-232h-5.88C488.29,384.05,391.31,483.76,270.43,488.2Z"/><path class="cls-3" d="M35.75,262.1C35.75,137.33,137.25,35.83,262,35.83V30C134,30,29.87,134.09,29.87,262.1c0,.19,0,.38,0,.57h5.88C35.75,262.48,35.75,262.29,35.75,262.1Z"/><path class="cls-7" d="M307.9,35.67l-4.55,35.41-1-.13,4.39-34.17h-.1L287.23,69l-1.09-.14L275.5,32.76h-.1L271,66.92l-1-.13,4.55-35.41,1.64.21,10.59,36h.1l19.36-32.19Z"/><path class="cls-7" d="M319.42,56.77a23.72,23.72,0,0,1,3.48-6.4,17.82,17.82,0,0,1,5-4.51,15,15,0,0,1,6.23-2,17.44,17.44,0,0,1,13.29,4.84,15.05,15.05,0,0,1,3.45,5.57,17.87,17.87,0,0,1,.92,6.67,24.65,24.65,0,0,1-4.93,13.53,17.81,17.81,0,0,1-5,4.51,14.78,14.78,0,0,1-6.22,2,17.7,17.7,0,0,1-13.3-4.84,14.78,14.78,0,0,1-3.46-5.54A17.84,17.84,0,0,1,318,63.9,23.74,23.74,0,0,1,319.42,56.77Zm.94.34A23.47,23.47,0,0,0,319,64.17a16.78,16.78,0,0,0,.95,6.31,13.81,13.81,0,0,0,3.28,5.1A16.37,16.37,0,0,0,335.33,80a13.83,13.83,0,0,0,5.79-1.8A16.81,16.81,0,0,0,345.91,74a23,23,0,0,0,4.86-13.34,16.82,16.82,0,0,0-.95-6.31,13.85,13.85,0,0,0-3.28-5.1,16.35,16.35,0,0,0-12.12-4.42,13.84,13.84,0,0,0-5.79,1.8,16.8,16.8,0,0,0-4.78,4.22A23.51,23.51,0,0,0,320.36,57.11Z"/><path class="cls-7" d="M362,73.77a23.69,23.69,0,0,1,4.76-5.51,17.81,17.81,0,0,1,5.85-3.34,15.06,15.06,0,0,1,6.52-.67,17.45,17.45,0,0,1,12,7.57A15,15,0,0,1,393.26,78a17.86,17.86,0,0,1-.52,6.71A24.64,24.64,0,0,1,385,96.89a17.9,17.9,0,0,1-5.85,3.34,14.77,14.77,0,0,1-6.5.64,17.69,17.69,0,0,1-12-7.57,14.76,14.76,0,0,1-2.2-6.16,17.82,17.82,0,0,1,.52-6.71A23.74,23.74,0,0,1,362,73.77Zm.84.53A23.43,23.43,0,0,0,360,80.9a16.75,16.75,0,0,0-.42,6.36A13.82,13.82,0,0,0,361.69,93a16.36,16.36,0,0,0,10.9,6.9,13.84,13.84,0,0,0,6-.52,16.81,16.81,0,0,0,5.57-3.1,23,23,0,0,0,7.6-12,16.81,16.81,0,0,0,.42-6.36,13.84,13.84,0,0,0-2.11-5.69,16.36,16.36,0,0,0-10.9-6.9,13.83,13.83,0,0,0-6,.52,16.78,16.78,0,0,0-5.57,3.1A23.47,23.47,0,0,0,362.85,74.3Z"/><path class="cls-7" d="M414.12,88.56l-6.57,41.7.07.07,24-24.67.72.7-24.92,25.56-1.07-1L413,89.18l-.07-.07-24,24.67-.72-.7L413,87.52Z"/><path class="cls-7" d="M467.48,155.45l-35.57,10.79-.74-1.13,23.15-27.59-.05-.08-34.49,10.15-.74-1.13,24.2-28.27.54.84-23.37,27.25.05.08L455,136.21l.79,1.22L432.58,165l.05.08,34.3-10.45Z"/><path class="cls-7" d="M473.18,169.92l-32.67,14.38-.4-.92L472.78,169Z"/><path class="cls-7" d="M483.18,197.44a18.48,18.48,0,0,1,.7,5.39,12.4,12.4,0,0,1-1.38,5.5,14.85,14.85,0,0,1-4.28,4.93,23.69,23.69,0,0,1-8,3.73,21.54,21.54,0,0,1-8.27.92,14.56,14.56,0,0,1-10.83-6.35,19.63,19.63,0,0,1-2.69-5.73l-3-10.52,34.31-9.88Zm-33.7,8.35a17.37,17.37,0,0,0,2.64,5.46,13.67,13.67,0,0,0,4.35,3.9,14.51,14.51,0,0,0,6,1.77A20.73,20.73,0,0,0,470,216a23.26,23.26,0,0,0,7.58-3.48,13.73,13.73,0,0,0,4.06-4.6,11.31,11.31,0,0,0,1.29-5.18,18.79,18.79,0,0,0-.74-5.28L479,186.67,446.66,196Z"/><path class="cls-7" d="M458.08,256.41l-1,.1-2.28-23.79,35.54-3.4,2.26,23.59-1,.1-2.16-22.6-15.53,1.49,2,21.25-1,.1-2-21.25-17,1.63Z"/><path class="cls-3" d="M32.75,273.29l35.52-3.57,1.45,14.38q.51,5.12-1.64,8.2t-7,3.57a9.78,9.78,0,0,1-4.24-.43,8.51,8.51,0,0,1-3.27-2A10.25,10.25,0,0,1,51.4,290a15.81,15.81,0,0,1-1.08-4.49L49,272.66l-16.17,1.62Zm18.61,12.65a12.74,12.74,0,0,0,1,3.82,9,9,0,0,0,2,2.94,8,8,0,0,0,2.92,1.79,8.62,8.62,0,0,0,3.76.38,8.43,8.43,0,0,0,6.22-3.06q2-2.64,1.5-7.61l-1.34-13.38L50,272.56Z"/><path class="cls-3" d="M36.48,304.92l34.65-8.61,3.52,14.17q1.35,5.43-.18,8.49t-6.07,4.29a8.58,8.58,0,0,1-6.26-.4,10.18,10.18,0,0,1-4.52-4.8l-.1,0a10.41,10.41,0,0,1-.16,3.8,5.61,5.61,0,0,1-1.45,2.57,8,8,0,0,1-2.62,1.68,26.94,26.94,0,0,1-3.68,1.17q-.73.18-1.81.5t-2.12.68c-.7.24-1.32.48-1.88.73a3.19,3.19,0,0,0-1.12.69l-.26-1.07a5.86,5.86,0,0,1,1.33-.74q.86-.37,1.86-.69t2-.61l1.86-.49A21.54,21.54,0,0,0,53.26,325a6.14,6.14,0,0,0,2.49-2,6.28,6.28,0,0,0,1.06-3.2,15.93,15.93,0,0,0-.59-5L53,301.85l-16.26,4Zm20.69,9.65a14.39,14.39,0,0,0,1.41,3.59,9,9,0,0,0,2.33,2.75,8.2,8.2,0,0,0,3.24,1.51,8.82,8.82,0,0,0,4.11-.15,7.91,7.91,0,0,0,5.2-3.66q1.52-2.7.29-7.65L70.4,297.52,54,301.61Z"/><path class="cls-3" d="M61.17,329.85a23.72,23.72,0,0,1,7-1.83,17.82,17.82,0,0,1,6.71.57,15,15,0,0,1,5.74,3.15,17.43,17.43,0,0,1,5.54,13,15.05,15.05,0,0,1-1.71,6.32,17.84,17.84,0,0,1-4.24,5.23A24.66,24.66,0,0,1,67,362a17.84,17.84,0,0,1-6.71-.57,14.78,14.78,0,0,1-5.72-3.16,17.71,17.71,0,0,1-5.54-13,14.77,14.77,0,0,1,1.69-6.31A17.81,17.81,0,0,1,55,333.66,23.72,23.72,0,0,1,61.17,329.85Zm.39.92a23.42,23.42,0,0,0-6.09,3.81,16.75,16.75,0,0,0-4,5,13.82,13.82,0,0,0-1.5,5.88,16.35,16.35,0,0,0,5,11.87,13.82,13.82,0,0,0,5.27,3,16.79,16.79,0,0,0,6.35.62,23,23,0,0,0,13.07-5.55,16.82,16.82,0,0,0,4-5,13.85,13.85,0,0,0,1.49-5.88,16.37,16.37,0,0,0-5-11.87,13.84,13.84,0,0,0-5.27-3,16.77,16.77,0,0,0-6.35-.62A23.44,23.44,0,0,0,61.57,330.77Z"/><path class="cls-3" d="M98.35,365.39a18.5,18.5,0,0,1,2.19,5,12.39,12.39,0,0,1,.23,5.66A14.86,14.86,0,0,1,98.05,382a23.7,23.7,0,0,1-6.6,5.83A21.54,21.54,0,0,1,83.78,391a14.56,14.56,0,0,1-12.18-3,19.63,19.63,0,0,1-4.2-4.73L61.52,374l30.12-19.17Zm-30,17.54a17.39,17.39,0,0,0,4.07,4.49,13.67,13.67,0,0,0,5.27,2.51,14.52,14.52,0,0,0,6.23,0,20.79,20.79,0,0,0,7-3,23.28,23.28,0,0,0,6.29-5.49,13.73,13.73,0,0,0,2.59-5.56,11.32,11.32,0,0,0-.23-5.34,18.78,18.78,0,0,0-2.2-4.85l-6-9.49L62.9,374.33Z"/><path class="cls-3" d="M125.47,399.89l-16.8,14.81q-5.4,4.76-10.2,4.53t-9-5q-4.23-4.8-3.86-9.6t5.77-9.56l16.8-14.81.66.75L92,395.8q-4.84,4.27-5.4,8.69t3.54,9.08q4.1,4.65,8.56,4.65T108,414l16.8-14.81Z"/><path class="cls-3" d="M132.3,441.83a15.66,15.66,0,0,1-5.46,1.56,14.19,14.19,0,0,1-5.55-.62,16,16,0,0,1-5.41-3,15.36,15.36,0,0,1-4.16-5.21,15.14,15.14,0,0,1-1.52-6.17,17.66,17.66,0,0,1,1.12-6.59,21.9,21.9,0,0,1,3.76-6.46,25,25,0,0,1,4.93-4.53,18.74,18.74,0,0,1,6.15-2.87,15.52,15.52,0,0,1,6.88-.17,16,16,0,0,1,7.1,3.57,15.19,15.19,0,0,1,4,4.85,14.48,14.48,0,0,1,1.54,5.09,12.77,12.77,0,0,1-.33,4.61,9.74,9.74,0,0,1-1.59,3.42l-.77-.64a9.65,9.65,0,0,0,1.54-3.68,11.88,11.88,0,0,0,0-4.34,13.86,13.86,0,0,0-1.62-4.48,16,16,0,0,0-10.34-7.41,15.1,15.1,0,0,0-6.59.34,18.3,18.3,0,0,0-5.77,2.8,23.5,23.5,0,0,0-4.42,4.07,21.52,21.52,0,0,0-3.39,5.69,16.73,16.73,0,0,0-1.25,6.16,14.77,14.77,0,0,0,1.24,6,13.87,13.87,0,0,0,4,5.2,15,15,0,0,0,5.11,2.84,13.3,13.3,0,0,0,5.24.56,14.7,14.7,0,0,0,5.11-1.49,19.75,19.75,0,0,0,4.69-3.26l.77.64A21.28,21.28,0,0,1,132.3,441.83Z"/><path class="cls-3" d="M150,420.48l22.77,13.84-.52.85-11-6.67-18,29.65-.85-.52,18-29.65-10.94-6.65Z"/><path class="cls-3" d="M174.63,434.74l-16.2,31.82-.89-.46,16.2-31.81Z"/><path class="cls-3" d="M170.52,453.31a23.72,23.72,0,0,1,3.6-6.33,17.82,17.82,0,0,1,5.08-4.41,15,15,0,0,1,6.26-1.92,17.45,17.45,0,0,1,13.2,5.11A15.07,15.07,0,0,1,202,451.4a17.85,17.85,0,0,1,.79,6.69,24.66,24.66,0,0,1-5.2,13.43,17.87,17.87,0,0,1-5.08,4.41,14.79,14.79,0,0,1-6.26,1.9,17.71,17.71,0,0,1-13.2-5.11,14.76,14.76,0,0,1-3.35-5.61,17.84,17.84,0,0,1-.79-6.69A23.76,23.76,0,0,1,170.52,453.31Zm.93.36a23.5,23.5,0,0,0-1.51,7,16.79,16.79,0,0,0,.82,6.32,13.83,13.83,0,0,0,3.17,5.17,16.37,16.37,0,0,0,12,4.65,13.82,13.82,0,0,0,5.83-1.69,16.77,16.77,0,0,0,4.87-4.12,23,23,0,0,0,5.12-13.24,16.81,16.81,0,0,0-.82-6.32,13.85,13.85,0,0,0-3.17-5.17,16.35,16.35,0,0,0-12-4.65,13.86,13.86,0,0,0-5.83,1.69,16.8,16.8,0,0,0-4.86,4.12A23.43,23.43,0,0,0,171.45,453.67Z"/><path class="cls-3" d="M211.16,449.19,228,487.88l.1,0,7-33.73,1,.2-7.25,35L227.4,489l-16.89-38.69-.1,0-7,33.73-1-.2,7.25-35Z"/><path class="cls-3" d="M261.93,461.3a8.57,8.57,0,0,0-2.29-3.17,9.43,9.43,0,0,0-3.53-1.86,19.45,19.45,0,0,0-4.47-.74,20.83,20.83,0,0,0-3.86.17,11.2,11.2,0,0,0-3.69,1.13,8,8,0,0,0-2.8,2.38,7,7,0,0,0-1.26,3.91,6.3,6.3,0,0,0,.87,3.9,8.07,8.07,0,0,0,2.67,2.49,16.19,16.19,0,0,0,3.85,1.6l4.44,1.29,4.65,1.5a15,15,0,0,1,3.79,1.8,7.53,7.53,0,0,1,2.48,2.78,8.71,8.71,0,0,1,.74,4.5,8.19,8.19,0,0,1-1.33,4.29,9.31,9.31,0,0,1-3.05,2.82,12.55,12.55,0,0,1-4.13,1.49,20,20,0,0,1-4.57.29,21.46,21.46,0,0,1-5.58-1,11.89,11.89,0,0,1-4.33-2.46,10,10,0,0,1-2.69-4.07,14.19,14.19,0,0,1-.67-5.84l1,.05a13.82,13.82,0,0,0,.66,5.47,9.24,9.24,0,0,0,2.48,3.76,10.71,10.71,0,0,0,4,2.24,20.46,20.46,0,0,0,5.18.9,18.53,18.53,0,0,0,4.19-.26,11.78,11.78,0,0,0,3.8-1.33,8.47,8.47,0,0,0,2.81-2.56,7.34,7.34,0,0,0,1.23-3.89,7,7,0,0,0-.95-4.33,8.45,8.45,0,0,0-2.87-2.65,16.6,16.6,0,0,0-4-1.61q-2.2-.59-4.22-1.2t-4.24-1.27a15.73,15.73,0,0,1-3.79-1.73,7.83,7.83,0,0,1-2.63-2.74,7.66,7.66,0,0,1-.83-4.27,8.26,8.26,0,0,1,1.33-4.36,8.43,8.43,0,0,1,3-2.67,12.49,12.49,0,0,1,4-1.29,21.22,21.22,0,0,1,4.34-.22,19.5,19.5,0,0,1,4.84.83,10.82,10.82,0,0,1,3.8,2.05,9.1,9.1,0,0,1,2.5,3.49,13.15,13.15,0,0,1,.88,5.13l-1-.05A11.39,11.39,0,0,0,261.93,461.3Z"/></g></g></svg>