<?xml version="1.0" encoding="utf-8"?>
<!-- Generator: Adobe Illustrator 23.0.2, SVG Export Plug-In . SVG Version: 6.00 Build 0)  -->
<svg version="1.1" id="Layer_1" xmlns="http://www.w3.org/2000/svg" xmlns:xlink="http://www.w3.org/1999/xlink" x="0px" y="0px"
	 viewBox="0 0 216 216" style="enable-background:new 0 0 216 216;" xml:space="preserve">
<style type="text/css">
	.st0{fill:#FFFFFF;}
	.st1{fill:none;stroke:#000000;stroke-width:2.6857;stroke-miterlimit:10;}
	.st2{fill:none;stroke:#000000;stroke-width:0.8952;stroke-miterlimit:10;}
</style>
<rect class="st0" width="216" height="216"/>
<g>
	<g>
		<path class="st1" d="M16.6,27.4c0-5.9,4.8-10.7,10.7-10.7S38,21.5,38,27.4"/>
		<path class="st1" d="M38.1,27.4c0-5.9,4.8-10.7,10.7-10.7s10.7,4.8,10.7,10.7"/>
		<line class="st1" x1="16.6" y1="27.4" x2="16.6" y2="48.8"/>
		<line class="st1" x1="38.1" y1="38.1" x2="38.1" y2="27.4"/>
	</g>
	<line class="st1" x1="59.6" y1="27.4" x2="59.6" y2="48.8"/>
</g>
<g>
	<path class="st1" d="M65,27.4c0-5.9,4.8-10.7,10.7-10.7s10.7,4.8,10.7,10.7"/>
	<path class="st1" d="M86.4,38.1c0,5.9-4.8,10.7-10.7,10.7S65,44,65,38.1"/>
	<line class="st1" x1="65" y1="38.1" x2="65" y2="27.4"/>
	<line class="st1" x1="86.4" y1="27.4" x2="86.4" y2="38.1"/>
</g>
<g>
	<path class="st1" d="M38.1,63.4c0-5.9,4.8-10.7,10.7-10.7s10.7,4.8,10.7,10.7"/>
	<path class="st1" d="M59.6,74.1c0,5.9-4.8,10.7-10.7,10.7S38.2,80,38.2,74.1"/>
	<line class="st1" x1="38.1" y1="74.1" x2="38.1" y2="63.4"/>
	<line class="st1" x1="59.6" y1="63.4" x2="59.6" y2="74.1"/>
</g>
<g>
	<path class="st1" d="M118.7,27.4c0-5.9,4.8-10.7,10.7-10.7"/>
	<path class="st1" d="M129.4,48.8c-5.9,0-10.7-4.8-10.7-10.7"/>
	<line class="st1" x1="118.7" y1="38.1" x2="118.7" y2="27.4"/>
	<line class="st1" x1="129.4" y1="16.6" x2="140.2" y2="16.6"/>
	<line class="st1" x1="140.2" y1="48.8" x2="129.4" y2="48.8"/>
	<line class="st1" x1="129.4" y1="38.1" x2="118.7" y2="38.1"/>
</g>
<g>
	<path class="st1" d="M91.8,63.4c0-5.9,4.8-10.7,10.7-10.7"/>
	<path class="st1" d="M102.6,84.9c-5.9,0-10.7-4.8-10.7-10.7"/>
	<line class="st1" x1="91.8" y1="74.1" x2="91.8" y2="63.4"/>
	<line class="st1" x1="102.6" y1="52.7" x2="113.3" y2="52.7"/>
	<line class="st1" x1="113.3" y1="84.9" x2="102.6" y2="84.9"/>
	<line class="st1" x1="102.6" y1="74.1" x2="91.8" y2="74.1"/>
</g>
<g>
	<path class="st1" d="M65,99.4c0-5.9,4.8-10.7,10.7-10.7"/>
	<path class="st1" d="M75.7,120.9c-5.9,0-10.7-4.8-10.7-10.7"/>
	<line class="st1" x1="65" y1="110.2" x2="65" y2="99.4"/>
	<line class="st1" x1="75.7" y1="88.7" x2="86.4" y2="88.7"/>
	<line class="st1" x1="86.4" y1="120.9" x2="75.7" y2="120.9"/>
	<line class="st1" x1="75.7" y1="110.2" x2="65" y2="110.2"/>
</g>
<g>
	<path class="st1" d="M38.1,135.6c0-5.9,4.8-10.7,10.7-10.7"/>
	<path class="st1" d="M48.8,157.1c-5.9,0-10.7-4.8-10.7-10.7"/>
	<line class="st1" x1="38.1" y1="146.3" x2="38.1" y2="135.6"/>
	<line class="st1" x1="48.8" y1="124.8" x2="59.6" y2="124.8"/>
	<line class="st1" x1="59.6" y1="157.1" x2="48.8" y2="157.1"/>
	<line class="st1" x1="48.8" y1="146.3" x2="38.1" y2="146.3"/>
</g>
<g>
	<line class="st1" x1="91.8" y1="48.8" x2="91.8" y2="27.4"/>
	<path class="st1" d="M91.8,27.4c0-5.9,4.8-10.7,10.7-10.7s10.7,4.8,10.7,10.7s-4.8,10.7-10.7,10.7"/>
	<path class="st1" d="M102.6,38.1c5.9,0,10.7,4.8,10.7,10.7"/>
</g>
<g>
	<line class="st1" x1="65" y1="84.9" x2="65" y2="63.4"/>
	<path class="st1" d="M65,63.4c0-5.9,4.8-10.7,10.7-10.7s10.7,4.8,10.7,10.7s-4.8,10.7-10.7,10.7"/>
	<path class="st1" d="M75.7,74.1c5.9,0,10.7,4.8,10.7,10.7"/>
</g>
<g>
	<line class="st1" x1="38.1" y1="121" x2="38.1" y2="99.5"/>
	<path class="st1" d="M38.1,99.5c0-5.9,4.8-10.7,10.7-10.7s10.7,4.8,10.7,10.7c0,5.9-4.8,10.7-10.7,10.7"/>
	<path class="st1" d="M48.8,110.2c5.9,0,10.7,4.8,10.7,10.7"/>
</g>
<polyline class="st1" points="199.4,199.4 16.6,199.4 16.6,44.7 "/>
<g>
	<g>
		<path class="st2" d="M23.5,28.8c2,0,3.6,1.6,3.6,3.6S25.5,36,23.5,36"/>
		<path class="st2" d="M23.5,36c2,0,3.6,1.6,3.6,3.6s-1.6,3.6-3.6,3.6"/>
		<line class="st2" x1="23.5" y1="28.8" x2="16.3" y2="28.8"/>
		<line class="st2" x1="19.9" y1="36" x2="23.5" y2="36"/>
	</g>
	<line class="st2" x1="23.5" y1="43.1" x2="16.3" y2="43.1"/>
</g>
<g>
	<path class="st2" d="M23.5,44.9c2,0,3.6,1.6,3.6,3.6s-1.6,3.6-3.6,3.6"/>
	<path class="st2" d="M19.9,52.1c-2,0-3.6-1.6-3.6-3.6s1.6-3.6,3.6-3.6"/>
	<line class="st2" x1="19.9" y1="44.9" x2="23.5" y2="44.9"/>
	<line class="st2" x1="23.5" y1="52.1" x2="19.9" y2="52.1"/>
</g>
<g>
	<path class="st2" d="M23.5,62.8c2,0,3.6,1.6,3.6,3.6"/>
	<path class="st2" d="M16.3,66.4c0-2,1.6-3.6,3.6-3.6"/>
	<line class="st2" x1="19.9" y1="62.8" x2="23.5" y2="62.8"/>
	<line class="st2" x1="27.1" y1="66.4" x2="27.1" y2="70"/>
	<line class="st2" x1="16.3" y1="70" x2="16.3" y2="66.4"/>
	<line class="st2" x1="19.9" y1="66.4" x2="19.9" y2="62.8"/>
</g>
<g>
	<line class="st2" x1="16.3" y1="53.9" x2="23.5" y2="53.9"/>
	<path class="st2" d="M23.5,53.9c2,0,3.6,1.6,3.6,3.6S25.4,61,23.5,61s-3.6-1.6-3.6-3.6"/>
	<path class="st2" d="M19.9,57.5c0,2-1.6,3.6-3.6,3.6"/>
</g>
<g>
	<g>
		<path class="st2" d="M23.5,71.8c2,0,3.6,1.6,3.6,3.6S25.5,79,23.5,79"/>
		<path class="st2" d="M23.5,78.9c2,0,3.6,1.6,3.6,3.6s-1.6,3.6-3.6,3.6"/>
		<line class="st2" x1="23.5" y1="71.8" x2="16.3" y2="71.8"/>
		<line class="st2" x1="19.9" y1="78.9" x2="23.5" y2="78.9"/>
	</g>
	<line class="st2" x1="23.5" y1="86.1" x2="16.3" y2="86.1"/>
</g>
<g>
	<path class="st2" d="M23.5,87.9c2,0,3.6,1.6,3.6,3.6s-1.6,3.6-3.6,3.6"/>
	<path class="st2" d="M19.9,95.1c-2,0-3.6-1.6-3.6-3.6s1.6-3.6,3.6-3.6"/>
	<line class="st2" x1="19.9" y1="87.9" x2="23.5" y2="87.9"/>
	<line class="st2" x1="23.5" y1="95.1" x2="19.9" y2="95.1"/>
</g>
<g>
	<path class="st2" d="M23.5,105.8c2,0,3.6,1.6,3.6,3.6"/>
	<path class="st2" d="M16.3,109.4c0-2,1.6-3.6,3.6-3.6"/>
	<line class="st2" x1="19.9" y1="105.8" x2="23.5" y2="105.8"/>
	<line class="st2" x1="27.1" y1="109.4" x2="27.1" y2="113"/>
	<line class="st2" x1="16.3" y1="113" x2="16.3" y2="109.4"/>
	<line class="st2" x1="19.9" y1="109.4" x2="19.9" y2="105.8"/>
</g>
<g>
	<line class="st2" x1="16.3" y1="96.8" x2="23.5" y2="96.8"/>
	<path class="st2" d="M23.5,96.8c2,0,3.6,1.6,3.6,3.6s-1.6,3.6-3.6,3.6s-3.6-1.6-3.6-3.6"/>
	<path class="st2" d="M19.9,100.4c0,2-1.6,3.6-3.6,3.6"/>
</g>
<g>
	<g>
		<path class="st2" d="M23.5,114.8c2,0,3.6,1.6,3.6,3.6s-1.6,3.6-3.6,3.6"/>
		<path class="st2" d="M23.5,121.9c2,0,3.6,1.6,3.6,3.6s-1.6,3.6-3.6,3.6"/>
		<line class="st2" x1="23.5" y1="114.8" x2="16.3" y2="114.8"/>
		<line class="st2" x1="19.9" y1="121.9" x2="23.5" y2="121.9"/>
	</g>
	<line class="st2" x1="23.5" y1="129.1" x2="16.3" y2="129.1"/>
</g>
<g>
	<path class="st2" d="M23.5,130.9c2,0,3.6,1.6,3.6,3.6s-1.6,3.6-3.6,3.6"/>
	<path class="st2" d="M19.9,138c-2,0-3.6-1.6-3.6-3.6s1.6-3.6,3.6-3.6"/>
	<line class="st2" x1="19.9" y1="130.9" x2="23.5" y2="130.9"/>
	<line class="st2" x1="23.5" y1="138" x2="19.9" y2="138"/>
</g>
<g>
	<path class="st2" d="M23.5,148.8c2,0,3.6,1.6,3.6,3.6"/>
	<path class="st2" d="M16.3,152.4c0-2,1.6-3.6,3.6-3.6"/>
	<line class="st2" x1="19.9" y1="148.8" x2="23.5" y2="148.8"/>
	<line class="st2" x1="27.1" y1="152.4" x2="27.1" y2="155.9"/>
	<line class="st2" x1="16.3" y1="155.9" x2="16.3" y2="152.4"/>
	<line class="st2" x1="19.9" y1="152.4" x2="19.9" y2="148.8"/>
</g>
<g>
	<line class="st2" x1="16.3" y1="139.8" x2="23.5" y2="139.8"/>
	<path class="st2" d="M23.5,139.8c2,0,3.6,1.6,3.6,3.6s-1.6,3.6-3.6,3.6s-3.6-1.6-3.6-3.6"/>
	<path class="st2" d="M19.9,143.4c0,2-1.6,3.6-3.6,3.6"/>
</g>
<g>
	<g>
		<path class="st2" d="M23.5,157.7c2,0,3.6,1.6,3.6,3.6s-1.6,3.6-3.6,3.6"/>
		<path class="st2" d="M23.5,164.9c2,0,3.6,1.6,3.6,3.6s-1.6,3.6-3.6,3.6"/>
		<line class="st2" x1="23.5" y1="157.7" x2="16.3" y2="157.7"/>
		<line class="st2" x1="19.9" y1="164.9" x2="23.5" y2="164.9"/>
	</g>
	<line class="st2" x1="23.5" y1="172" x2="16.3" y2="172"/>
</g>
<g>
	<path class="st2" d="M23.5,173.8c2,0,3.6,1.6,3.6,3.6s-1.6,3.6-3.6,3.6"/>
	<path class="st2" d="M19.9,181c-2,0-3.6-1.6-3.6-3.6s1.6-3.6,3.6-3.6"/>
	<line class="st2" x1="19.9" y1="173.8" x2="23.5" y2="173.8"/>
	<line class="st2" x1="23.5" y1="181" x2="19.9" y2="181"/>
</g>
<g>
	<path class="st2" d="M23.5,191.7c2,0,3.6,1.6,3.6,3.6"/>
	<path class="st2" d="M16.3,195.3c0-2,1.6-3.6,3.6-3.6"/>
	<line class="st2" x1="19.9" y1="191.7" x2="23.5" y2="191.7"/>
	<line class="st2" x1="27.1" y1="195.3" x2="27.1" y2="198.9"/>
	<line class="st2" x1="16.3" y1="198.9" x2="16.3" y2="195.3"/>
	<line class="st2" x1="19.9" y1="195.3" x2="19.9" y2="191.7"/>
</g>
<g>
	<line class="st2" x1="16.3" y1="182.8" x2="23.5" y2="182.8"/>
	<path class="st2" d="M23.5,182.8c2,0,3.6,1.6,3.6,3.6s-1.6,3.6-3.6,3.6s-3.6-1.6-3.6-3.6"/>
	<path class="st2" d="M19.9,186.4c0,2-1.6,3.6-3.6,3.6"/>
</g>
<g>
	<g>
		<path class="st2" d="M29.2,192.7c0-2,1.6-3.6,3.6-3.6s3.6,1.6,3.6,3.6"/>
		<path class="st2" d="M36.4,192.7c0-2,1.6-3.6,3.6-3.6s3.6,1.6,3.6,3.6"/>
		<line class="st2" x1="29.2" y1="192.7" x2="29.2" y2="199.9"/>
		<line class="st2" x1="36.4" y1="196.3" x2="36.4" y2="192.7"/>
	</g>
	<line class="st2" x1="43.5" y1="192.7" x2="43.5" y2="199.9"/>
</g>
<g>
	<path class="st2" d="M45.3,192.7c0-2,1.6-3.6,3.6-3.6s3.6,1.6,3.6,3.6"/>
	<path class="st2" d="M52.5,196.3c0,2-1.6,3.6-3.6,3.6s-3.6-1.6-3.6-3.6"/>
	<line class="st2" x1="45.3" y1="196.3" x2="45.3" y2="192.7"/>
	<line class="st2" x1="52.5" y1="192.7" x2="52.5" y2="196.3"/>
</g>
<g>
	<path class="st2" d="M63.2,192.7c0-2,1.6-3.6,3.6-3.6"/>
	<path class="st2" d="M66.8,199.9c-2,0-3.6-1.6-3.6-3.6"/>
	<line class="st2" x1="63.2" y1="196.3" x2="63.2" y2="192.7"/>
	<line class="st2" x1="66.8" y1="189.2" x2="70.4" y2="189.2"/>
	<line class="st2" x1="70.4" y1="199.9" x2="66.8" y2="199.9"/>
	<line class="st2" x1="66.8" y1="196.3" x2="63.2" y2="196.3"/>
</g>
<g>
	<line class="st2" x1="54.3" y1="199.9" x2="54.3" y2="192.7"/>
	<path class="st2" d="M54.3,192.7c0-2,1.6-3.6,3.6-3.6s3.6,1.6,3.6,3.6s-1.6,3.6-3.6,3.6"/>
	<path class="st2" d="M57.8,196.3c2,0,3.6,1.6,3.6,3.6"/>
</g>
<g>
	<g>
		<path class="st2" d="M72.2,192.7c0-2,1.6-3.6,3.6-3.6s3.6,1.6,3.6,3.6"/>
		<path class="st2" d="M79.3,192.7c0-2,1.6-3.6,3.6-3.6s3.6,1.6,3.6,3.6"/>
		<line class="st2" x1="72.2" y1="192.7" x2="72.2" y2="199.9"/>
		<line class="st2" x1="79.3" y1="196.3" x2="79.3" y2="192.7"/>
	</g>
	<line class="st2" x1="86.5" y1="192.7" x2="86.5" y2="199.9"/>
</g>
<g>
	<path class="st2" d="M88.3,192.7c0-2,1.6-3.6,3.6-3.6s3.6,1.6,3.6,3.6"/>
	<path class="st2" d="M95.4,196.3c0,2-1.6,3.6-3.6,3.6s-3.6-1.6-3.6-3.6"/>
	<line class="st2" x1="88.3" y1="196.3" x2="88.3" y2="192.7"/>
	<line class="st2" x1="95.4" y1="192.7" x2="95.4" y2="196.3"/>
</g>
<g>
	<path class="st2" d="M106.2,192.7c0-2,1.6-3.6,3.6-3.6"/>
	<path class="st2" d="M109.8,199.9c-2,0-3.6-1.6-3.6-3.6"/>
	<line class="st2" x1="106.2" y1="196.3" x2="106.2" y2="192.7"/>
	<line class="st2" x1="109.8" y1="189.2" x2="113.3" y2="189.2"/>
	<line class="st2" x1="113.3" y1="199.9" x2="109.8" y2="199.9"/>
	<line class="st2" x1="109.8" y1="196.3" x2="106.2" y2="196.3"/>
</g>
<g>
	<line class="st2" x1="97.2" y1="199.9" x2="97.2" y2="192.7"/>
	<path class="st2" d="M97.2,192.7c0-2,1.6-3.6,3.6-3.6s3.6,1.6,3.6,3.6s-1.6,3.6-3.6,3.6"/>
	<path class="st2" d="M100.8,196.3c2,0,3.6,1.6,3.6,3.6"/>
</g>
<g>
	<g>
		<path class="st2" d="M115.1,192.7c0-2,1.6-3.6,3.6-3.6s3.6,1.6,3.6,3.6"/>
		<path class="st2" d="M122.3,192.7c0-2,1.6-3.6,3.6-3.6s3.6,1.6,3.6,3.6"/>
		<line class="st2" x1="115.1" y1="192.7" x2="115.1" y2="199.9"/>
		<line class="st2" x1="122.3" y1="196.3" x2="122.3" y2="192.7"/>
	</g>
	<line class="st2" x1="129.5" y1="192.7" x2="129.5" y2="199.9"/>
</g>
<g>
	<path class="st2" d="M131.3,192.7c0-2,1.6-3.6,3.6-3.6s3.6,1.6,3.6,3.6"/>
	<path class="st2" d="M138.4,196.3c0,2-1.6,3.6-3.6,3.6s-3.6-1.6-3.6-3.6"/>
	<line class="st2" x1="131.3" y1="196.3" x2="131.3" y2="192.7"/>
	<line class="st2" x1="138.4" y1="192.7" x2="138.4" y2="196.3"/>
</g>
<g>
	<path class="st2" d="M149.2,192.7c0-2,1.6-3.6,3.6-3.6"/>
	<path class="st2" d="M152.7,199.9c-2,0-3.6-1.6-3.6-3.6"/>
	<line class="st2" x1="149.2" y1="196.3" x2="149.2" y2="192.7"/>
	<line class="st2" x1="152.7" y1="189.2" x2="156.3" y2="189.2"/>
	<line class="st2" x1="156.3" y1="199.9" x2="152.7" y2="199.9"/>
	<line class="st2" x1="152.7" y1="196.3" x2="149.2" y2="196.3"/>
</g>
<g>
	<line class="st2" x1="140.2" y1="199.9" x2="140.2" y2="192.7"/>
	<path class="st2" d="M140.2,192.7c0-2,1.6-3.6,3.6-3.6s3.6,1.6,3.6,3.6s-1.6,3.6-3.6,3.6"/>
	<path class="st2" d="M143.8,196.3c2,0,3.6,1.6,3.6,3.6"/>
</g>
<g>
	<g>
		<path class="st2" d="M158.1,192.7c0-2,1.6-3.6,3.6-3.6s3.6,1.6,3.6,3.6"/>
		<path class="st2" d="M165.3,192.7c0-2,1.6-3.6,3.6-3.6s3.6,1.6,3.6,3.6"/>
		<line class="st2" x1="158.1" y1="192.7" x2="158.1" y2="199.9"/>
		<line class="st2" x1="165.3" y1="196.3" x2="165.3" y2="192.7"/>
	</g>
	<line class="st2" x1="172.4" y1="192.7" x2="172.4" y2="199.9"/>
</g>
<g>
	<path class="st2" d="M174.2,192.7c0-2,1.6-3.6,3.6-3.6s3.6,1.6,3.6,3.6"/>
	<path class="st2" d="M181.4,196.3c0,2-1.6,3.6-3.6,3.6s-3.6-1.6-3.6-3.6"/>
	<line class="st2" x1="174.2" y1="196.3" x2="174.2" y2="192.7"/>
	<line class="st2" x1="181.4" y1="192.7" x2="181.4" y2="196.3"/>
</g>
<g>
	<path class="st2" d="M192.1,192.7c0-2,1.6-3.6,3.6-3.6"/>
	<path class="st2" d="M195.7,199.9c-2,0-3.6-1.6-3.6-3.6"/>
	<line class="st2" x1="192.1" y1="196.3" x2="192.1" y2="192.7"/>
	<line class="st2" x1="195.7" y1="189.2" x2="199.3" y2="189.2"/>
	<line class="st2" x1="199.3" y1="199.9" x2="195.7" y2="199.9"/>
	<line class="st2" x1="195.7" y1="196.3" x2="192.1" y2="196.3"/>
</g>
<g>
	<line class="st2" x1="183.2" y1="199.9" x2="183.2" y2="192.7"/>
	<path class="st2" d="M183.2,192.7c0-2,1.6-3.6,3.6-3.6s3.6,1.6,3.6,3.6s-1.6,3.6-3.6,3.6"/>
	<path class="st2" d="M186.8,196.3c2,0,3.6,1.6,3.6,3.6"/>
</g>
</svg>
