<svg xmlns="http://www.w3.org/2000/svg" viewBox="0 0 655.8 655.8"><defs><style>.cls-1{fill:#d9bc7b;}.cls-2{fill:#887ea7;}.cls-3{fill:#5c5770;}.cls-4{fill:#4d4d62;}</style></defs><title>mystery_square</title><g id="Layer_2" data-name="Layer 2"><g id="Layer_1-2" data-name="Layer 1"><path class="cls-1" d="M139.67,410.44V397.39l6-6V360.93h30.49l5.74-5.74h13.05l29.83-29.83,29.83,29.83v76.65l75.67,75.67,75.67-75.67V355.2l29.83-29.83,29.83,29.83h13.05l5.74,5.74h30.49v30.49l6,6v13.05l21.4,21.4h55.83l57.73,57.73V0H0V431.84H118.27Zm129,1.4,61.54-61.54L343,363l48.81,48.81V426l-61.54,61.54L313.74,471l-45-45Z"/><polygon class="cls-2" points="655.8 655.8 655.8 489.57 598.07 431.84 542.24 431.84 548.64 438.25 520.84 438.25 520.84 470.1 488.98 438.25 484.21 438.25 484.21 444.72 413 444.72 413 431.84 405.93 431.84 330.25 507.52 254.58 431.84 247.51 431.84 247.51 444.72 176.31 444.72 176.31 438.25 171.53 438.25 139.67 470.1 139.67 438.25 111.87 438.25 118.27 431.84 0 431.84 0 655.8 655.8 655.8"/><path class="cls-2" d="M335.7,371.44a2,2,0,0,1,.76-1.9C337,369,343,363,343,363l-12.73-12.73-61.54,61.54h67Q335.7,391.64,335.7,371.44Z"/><path class="cls-2" d="M335.7,411.84h-67V426h67Q335.7,418.91,335.7,411.84Z"/><polygon class="cls-2" points="520.84 397.39 514.87 391.42 514.87 360.93 484.39 360.93 478.65 355.2 465.6 355.2 435.76 325.36 405.93 355.2 405.93 431.84 413 431.84 542.24 431.84 520.84 410.44 520.84 397.39"/><polygon class="cls-2" points="413 444.72 484.21 444.72 484.21 438.25 488.98 438.25 520.84 470.1 520.84 438.25 548.64 438.25 542.24 431.84 413 431.84 413 444.72"/><polygon class="cls-2" points="224.75 325.36 194.92 355.2 181.86 355.2 176.13 360.93 145.64 360.93 145.64 391.42 139.67 397.39 139.67 410.44 118.27 431.84 247.51 431.84 254.58 431.84 254.58 355.2 224.75 325.36"/><polygon class="cls-2" points="111.87 438.25 139.67 438.25 139.67 470.1 171.53 438.25 176.31 438.25 176.31 444.72 247.51 444.72 247.51 431.84 118.27 431.84 111.87 438.25"/><path class="cls-2" d="M335,449.75a1.87,1.87,0,0,0,.72-1.74c0-4.66,0-9.31,0-14q0-4,0-8.07h-67l45,45Z"/><path class="cls-3" d="M336.46,369.54a2,2,0,0,0-.76,1.9q0,20.2,0,40.4h56.09L343,363S337,369,336.46,369.54Z"/><path class="cls-3" d="M335.7,426h56.09V411.84H335.7Q335.7,418.91,335.7,426Z"/><path class="cls-3" d="M335.7,434c0,4.66,0,9.31,0,14a1.87,1.87,0,0,1-.72,1.74L313.74,471l16.51,16.51L391.79,426H335.7Q335.7,430,335.7,434Z"/><rect class="cls-4" width="655.8" height="222.33"/></g></g></svg>