<svg xmlns="http://www.w3.org/2000/svg" viewBox="0 0 1079.31 1079.31"><defs><style>.cls-1{fill:#9ed5bf;}.cls-2{fill:#273c71;}.cls-3{fill:#526eb4;}.cls-4{fill:#ffc917;}.cls-5{fill:#445ca9;}.cls-6{fill:#563522;}.cls-16,.cls-7{fill:#814d38;}.cls-7{stroke:#ac724b;stroke-width:0.5px;}.cls-8{fill:#f8c39c;}.cls-9{fill:#f6a673;}.cls-10{fill:#111119;}.cls-11{fill:#c92027;}.cls-12{fill:#0b1734;}.cls-13{fill:#10131b;}.cls-14{fill:#cd5427;}.cls-15{fill:#f3ba8f;}.cls-17{fill:#c6c8c9;}.cls-18{fill:none;}.cls-19{fill:#ecb592;}.cls-20{fill:#ca2527;}.cls-21{fill:#424245;}.cls-22{fill:#87888c;}.cls-23{fill:#a6a7aa;}.cls-24{fill:#5e181a;}.cls-25{fill:#eaded6;}.cls-26{fill:#eed5c8;}</style></defs><title>ness_square</title><g id="Layer_2" data-name="Layer 2"><g id="Layer_1-2" data-name="Layer 1"><rect class="cls-1" width="1079.31" height="1079.31"/><path class="cls-2" d="M460.62,600s-2,5.63-4.5,11.93c-3.18,8.14-7.06,17.4-8.1,17-1.85-.74-14.45,21.49,0,30.39s49.29,28.54,76,2.59L551,689.35s31.13-3.71,50.4-21.12c0,0,14.08-8.15,20.38-15.19,0,0,3.71-7-3-11.86L604.4,629s-4.45.74-13-30Z"/><path class="cls-3" d="M502.12,608.55l-1.52-.42s-.42,2.8-.69,6.9h1.65C501.68,613,501.86,610.85,502.12,608.55Z"/><path class="cls-3" d="M512.4,609.23H511s-1.28,1.83-1.89,6.32h2.07A35,35,0,0,1,512.4,609.23Z"/><path class="cls-4" d="M558.52,502.56l-.8,7.08,6.48-3-2.43,8.18,2.62,5.76,14.49,18.21,8.39,2.51,4.28.06.51-.34,2.75-3.14s-11.33,2.88-20.46-9.87c0,0-9.87-10.87-7.62-21.88l4.12-5.25-3-1.87Z"/><path class="cls-5" d="M449.7,601.37l5.9-11,5.08-14.64s2-10.37,5.08-14.85l6.3-11.8,19.53-36,12-4.47,6.51.2,9.56.41L547.12,506l12.81-4.88-2.64,7.73,6.92-2.24s-3.46,8.75,1.22,13,7.52,18.3,26.64,21.36c0,0-3.66,8.95-2.85,14.85l-4.07,6.3,8.95,10.17,1.63,2-.61,5.9,2.65,11.8.41,8.75S526.17,621.5,449.7,601.37Z"/><path class="cls-4" d="M460.68,575.74s17.08,6.92,134.44,4.47c0,0,3.87,8.54,2.65,11.8,0,0-3.46,2-22,3.86s-105.35.2-120.2-5.49Z"/><path class="cls-4" d="M472.07,549.09s.81-2,30.51-1.63,54.91,3.46,54.91,3.46l27.05-.2,4.68,5.08-1,3.25-13.42,7.32s-104.74,0-109-5.49Z"/><path class="cls-4" d="M530,509.44s-28.88-.61-40.68,6.3l7.73-6.91S521.69,507.61,530,509.44Z"/><path class="cls-6" d="M558.22,548.42l-2.76.15s14.28,21.8,39.3,29.47c0,0,3.84,1.54,1.54,2.92l.46,1.38s4.91-2.92,3.22-4.91c0,0-25.17-11.05-41.75-29"/><path class="cls-4" d="M484.07,524.69s9.56-6.1,61.62-4.07l.61,10.58s-59.59-1.63-68.54,4.88Z"/><path class="cls-4" d="M543.37,520.58s16-.16,21-2.14a36.87,36.87,0,0,1,5,6.82s2.47.08-25,5.92Z"/><path class="cls-7" d="M558.22,548.42s14,18.73,37.91,26.86c0,0,1.23.61,3.84,2.15l-3.38-14s-26.1-14.58-33-28.09Z"/><path class="cls-7" d="M543.94,508.36s-3.38,31,9.52,39.6c0,0,10.9,4.45,11.21-9.82a15.21,15.21,0,0,0-2.76-7.68c-2.76-4.14-5.22-21-2-28.55"/><path class="cls-8" d="M457.29,397.07s-3.54,23.94,3.52,46l.21,4.5s1.71,18.63,24.83,47.31c0,0,48.81,36.39,95.7-5.57,0,0,14.13-15.84,17.13-31,0,0,1.5-28.26.64-34.9,0,0-2-25.25-11.71-43.56C587.62,379.8,538.33,359,457.29,397.07Z"/><path class="cls-9" d="M604.85,410.33s-1.87,18-5.75,11.5a321.44,321.44,0,0,1-.5,35.75s18.75-6.62,18.75-29.87C617.35,427.71,616.73,413,604.85,410.33Z"/><path class="cls-10" d="M586.74,379.65S593,391.59,599.1,423c0,0,2.35,3.28,5-7,0,0,2.61-18.5,2-26.07S586.74,379.65,586.74,379.65Z"/><path class="cls-10" d="M496.49,385.29s-.68,27.86,8.83,25.73c0,0,4.47-.87,8.74-6.12,0,0,2.62,9,7.77,7.57s6.12-10,6.12-10a14.8,14.8,0,0,1,1.26-1.84s6.8,6.21,11.26-.39c0,0,4.66-6.6,1.36-21.94C541.83,378.3,518.82,376,496.49,385.29Z"/><path class="cls-11" d="M607,393.32s9.57-20.51-76.56-14.36c0,0-20.51.68-45.8,10.25,0,0-21.88-17.09-43.75-2.73,0,0,5.47-50.59,63.58-67.68S619.26,358.46,607,393.32Z"/><path class="cls-5" d="M484.59,389.22s-19.75-16.77-43.75-2.73c0,0-28.62,13.88-31.08,27.59C409.76,414.08,412.79,403.18,484.59,389.22Z"/><path class="cls-12" d="M443.18,406.22l-.15-.75A.94.94,0,0,0,443.18,406.22Zm-.15-.75c.28-1.88,4.81-7.29,41.56-16.25,0,0-28.31,5.11-42.68,10-5,1.24-25.55,6.73-32.16,14.83,0,0-2.93,9.24,36,7.7,0,0-2.69-6.3-2.9-17Z"/><path class="cls-13" d="M457.29,397.07s-2.66,23.59,2,38.9-.3,12.2-3.18,8.51a44.4,44.4,0,0,1-3.79-7.06c-2.92-6.3-6.09-14.35-6.52-15.64-.64-1.93-3.82-10.21-2.56-16.94C443.24,404.83,446.42,400,457.29,397.07Z"/><path class="cls-10" d="M501.05,451.79s-13.11.19-9.42-25.82c0,0,4.76-12.43,12.14,2.14S502.8,452.08,501.05,451.79Z"/><path class="cls-10" d="M557.27,412s-12.52,2-4.37,22.72c0,0,9.13,18.15,13.88-1.55C566.78,433.15,568.43,412,557.27,412Z"/><path class="cls-14" d="M554.91,472.74s-14.1,7.59-38.42,5.6C516.49,478.34,535.84,483.31,554.91,472.74Z"/><path class="cls-8" d="M452.2,437.16"/><path class="cls-9" d="M452.32,437.42s-14.09,9.91,1.29,31.66a28.67,28.67,0,0,0,21.75,11.38s-13.5-20.37-14.5-33.75C460.85,446.71,460,451,452.32,437.42Z"/><ellipse class="cls-15" cx="532.9" cy="461.55" rx="6.26" ry="4.88" transform="translate(-69.62 95.52) rotate(-9.62)"/><path class="cls-16" d="M497.5,507.65a27.26,27.26,0,0,0-21.24,17.77l5.79,4.51S484.75,512.67,497.5,507.65Z"/><path class="cls-17" d="M561.07,518.83l-23.29,8.81L544.92,544l23.5-9Zm-19.72,9.63,18.24-6.9,5.26,12.38L559,536.34c-.86-1.36-3.36-4.93-5-3.69s1.27,3.78,2.47,4.73l-9.5,3.89Z"/><path class="cls-6" d="M479,532.22s-9.63,6-8.74,12.9C470.22,545.12,470.2,541,479,532.22Z"/><path class="cls-6" d="M507.15,508.42s-10.17,1-13.65,4.38-4.63,4.38-10.94,16.09l-.52,1S484.75,502.24,507.15,508.42Z"/><path class="cls-6" d="M470.22,545.12l-.77-.29.54-2.14.57.63A5.13,5.13,0,0,0,470.22,545.12Z"/><path class="cls-16" d="M473.42,527.09l-10.56,13.65,6.44,5.54s3-9.91,10.56-14.55Z"/><path class="cls-6" d="M460.19,553.25s4.45,1.34,8-5.27L466.6,547Z"/><path class="cls-16" d="M462.47,544s-4.86,7.44-2.27,9.2,8-5.27,8-5.27Z"/><path class="cls-17" d="M474.45,523.74l-14.29,18.8,9.78,7.08,13-19.18Zm-9.16,17.82-1.66-1.2,9.61-12.64,5.71,4.5-8.74,12.9Z"/><path class="cls-17" d="M464.54,542.15s5-4.25,2.58,1.93"/><path class="cls-4" d="M584.54,550.72l4.94-.47s-.86,4-.26,5.55S584.54,550.72,584.54,550.72Z"/><polygon class="cls-4" points="565.1 518.08 564.41 518.45 568.98 525.52 569.79 524.96 565.1 518.08"/><path class="cls-18" d="M506.15,642.91c.17.23.27.34.27.34H507v-.34Z"/><path class="cls-3" d="M506.42,643.25s-.1-.11-.27-.34h-2a13.67,13.67,0,0,0,1.29,1.69H507v-1.35Z"/><path class="cls-3" d="M502.37,632.55h-1.88c.22,1.3.48,2.57.81,3.79h2C502.94,635.24,502.64,634,502.37,632.55Z"/><path class="cls-3" d="M510.88,622.53h-2.08q.06,1.5.23,3.2h2C511,624.68,510.92,623.61,510.88,622.53Z"/><path class="cls-3" d="M512.73,643.25h-1.52v1.35h3.62s-.24-.7-.6-1.94h-1.68Z"/><path class="cls-3" d="M501.46,617.06H499.8c0,.49,0,1-.06,1.52h1.68C501.43,618.08,501.44,617.57,501.46,617.06Z"/><path class="cls-3" d="M501.61,626.58h-1.78c.07,1.12.16,2.25.29,3.37H502C501.82,628.9,501.7,627.77,501.61,626.58Z"/><path class="cls-3" d="M511,617.65h-2.1c-.05.73-.09,1.52-.1,2.36h2.1Q510.89,618.83,511,617.65Z"/><path class="cls-3" d="M501.39,620.85h-1.7c0,1.12,0,2.28,0,3.45h1.75Q501.4,622.66,501.39,620.85Z"/><path class="cls-3" d="M513.58,640.3h-1.7l.36,1.26h1.69C513.82,641.17,513.7,640.76,513.58,640.3Z"/><path class="cls-3" d="M504,638.62h-2q.39,1.1.87,2.11h2C504.6,640.14,504.3,639.44,504,638.62Z"/><path class="cls-3" d="M512.32,634.75H510.5c.21,1,.46,2,.72,3H513C512.75,636.84,512.53,635.82,512.32,634.75Z"/><path class="cls-3" d="M511.35,628.68h-2q.27,1.91.69,4h1.87C511.72,631.43,511.52,630.08,511.35,628.68Z"/><rect class="cls-3" x="507.93" y="643.25" width="1.35" height="1.35"/><path class="cls-19" d="M622.75,467.56a28.2,28.2,0,0,1,4.36-4c2-1.34,10.05-10.05,13.41-15.42,0,0,4-3.35,5.7-5s6-23.46,15.75-22.46,1,21.45-3.35,24.13c0,0,23.13,6.7,23.8,26.81,0,0-11.73,27.82-36.2,18.43C646.21,490,615,480,622.75,467.56Z"/><path class="cls-19" d="M434.05,568.44s-5.36-23.8-16.42-19.44a8.09,8.09,0,0,0-4.36,5.7s-4.36-6.7-9-2-5.36,12.4-5.36,12.4,11.4,27.15,29.16,26.14c0,0,7-2.68,10.39-11.73C438.41,579.5,435.73,572.8,434.05,568.44Z"/><path class="cls-20" d="M504.39,697.8s4,3.56,2.44,22.89c0,0-3.56,4.89-39.12,8.22s-32.45-4-32.23-8.89,2.89-15.56,15.11-18.45l26-8.22S488.61,715.36,504.39,697.8Z"/><path class="cls-20" d="M586.85,719.36s-1.11,15.56,1.33,19.78,13.34,21.34,13.34,21.34,23.56,8.89,34.67-3.11c0,0,2.67-11.33-7.78-24.67L612,712.47S608.19,726.69,586.85,719.36Z"/><polygon class="cls-19" points="662.78 439.02 659.37 447.44 640.51 448.12 655.3 423.83 662.78 439.02"/><path class="cls-3" d="M464.06,662.08l-.73,1.94q3.21,1.52,6.28,2.65l.5-2C468,663.88,466,663,464.06,662.08Z"/><path class="cls-3" d="M458.1,659l-.9,1.82q1.87,1.06,3.69,2l.73-1.94C460.4,660.26,459.23,659.63,458.1,659Z"/><path class="cls-3" d="M480.78,667.91l-.46,1.81q2.2.44,4.3.7v-1.81C483.33,668.42,482,668.18,480.78,667.91Z"/><path class="cls-3" d="M493.7,669.17v1.7a54.58,54.58,0,0,0,5.46-.43v-1.78A44,44,0,0,1,493.7,669.17Z"/><path class="cls-3" d="M487.33,668.95v1.76q1.88.15,3.66.19v-1.71Q489.15,669.13,487.33,668.95Z"/><path class="cls-3" d="M472.68,665.62l-.49,2q2.81.93,5.48,1.57l.47-1.86C476.28,666.8,474.46,666.24,472.68,665.62Z"/><path class="cls-3" d="M452.58,655.72l-.91,1.71q1.6,1.06,3.18,2l.88-1.79Q454.08,656.67,452.58,655.72Z"/><path class="cls-3" d="M515.56,665.21l-1.2-2.16a41.31,41.31,0,0,1-3.93,2.14l.88,2.11A28.36,28.36,0,0,0,515.56,665.21Z"/><path class="cls-3" d="M441.16,647.37l.34,2.5c.81.67,1.61,1.31,2.4,1.93l1.19-1.28C442.57,648.62,441.16,647.37,441.16,647.37Z"/><path class="cls-3" d="M447.28,652.14l-1.23,1.33c1.13.85,2.25,1.66,3.36,2.44l.89-1.67C449.21,653.5,448.2,652.79,447.28,652.14Z"/><path class="cls-3" d="M501.88,668.16V670a49.46,49.46,0,0,0,6.89-1.77l-.82-2A40.46,40.46,0,0,1,501.88,668.16Z"/><path class="cls-3" d="M586,671.11l1,2.13q1.62-.85,3.27-1.76l-1.08-2.15Q587.61,670.23,586,671.11Z"/><path class="cls-3" d="M606.65,657.77l1.28,2.05q2.16-1.68,4.29-3.5l-1.41-1.77Q608.88,656.1,606.65,657.77Z"/><path class="cls-3" d="M598.08,663.81l1.16,2.23q3-1.95,5.93-4.12l-1.31-2.09C602.06,661.13,600.12,662.46,598.08,663.81Z"/><path class="cls-3" d="M579.91,674.29l.66,2.12q1.64-.77,3.32-1.6l-.94-2.07Q581.45,673.53,579.91,674.29Z"/><path class="cls-3" d="M592.14,667.57l1.1,2.2q1.53-.9,3.08-1.86l-1.15-2.21Q593.69,666.63,592.14,667.57Z"/><path class="cls-3" d="M556.43,683.56l.47,1.68c1.61-.46,3.43-1,5.42-1.65l-.47-1.76Q559.19,682.74,556.43,683.56Z"/><path class="cls-3" d="M573.08,677.48l.59,2q1.83-.75,3.73-1.59l-.63-2Q575,676.66,573.08,677.48Z"/><path class="cls-3" d="M565.12,680.68l.48,1.81q2.31-.81,4.84-1.78l-.57-1.88Q567.54,679.79,565.12,680.68Z"/><path class="cls-3" d="M549.1,685.49l.71,1.53c.8-.17,2.08-.46,3.76-.88l-.46-1.65Q551.12,685,549.1,685.49Z"/><path class="cls-3" d="M621.08,645.6c-.47.46-1.14,1.1-2,1.88l1.1,1.39q1-1,1.94-2Z"/><path class="cls-3" d="M613.49,652.38l1.33,1.67q1.47-1.33,2.91-2.72l-1.21-1.53C615.62,650.59,614.61,651.45,613.49,652.38Z"/><path class="cls-21" d="M200.16,600s-2,5.63-4.5,11.93c-3.18,8.14-7.06,17.4-8.1,17-1.85-.74-14.45,21.49,0,30.39s49.29,28.54,76,2.59l27.05,27.42s31.13-3.71,50.4-21.12c0,0,14.08-8.15,20.38-15.19,0,0,3.71-7-3-11.86L343.94,629s-4.45.74-13-30Z"/><path class="cls-22" d="M241.66,608.55l-1.52-.42s-.42,2.8-.69,6.9h1.65C241.22,613,241.4,610.85,241.66,608.55Z"/><path class="cls-22" d="M251.94,609.23h-1.43s-1.28,1.83-1.89,6.32h2.07A35,35,0,0,1,251.94,609.23Z"/><path class="cls-22" d="M246,643.25s-.1-.11-.27-.34h-2a13.68,13.68,0,0,0,1.29,1.69h1.6v-1.35Z"/><path class="cls-22" d="M241.91,632.55H240c.22,1.3.48,2.57.81,3.79h2C242.48,635.24,242.18,634,241.91,632.55Z"/><path class="cls-22" d="M250.43,622.53h-2.08q.06,1.5.23,3.2h2C250.52,624.68,250.46,623.61,250.43,622.53Z"/><path class="cls-22" d="M252.27,643.25h-1.52v1.35h3.62s-.24-.7-.6-1.94H252.1Z"/><path class="cls-22" d="M241,617.06h-1.67c0,.49,0,1-.06,1.52H241C241,618.08,241,617.57,241,617.06Z"/><path class="cls-22" d="M241.15,626.58h-1.78c.07,1.12.16,2.25.29,3.37h1.83C241.36,628.9,241.24,627.77,241.15,626.58Z"/><path class="cls-22" d="M250.5,617.65h-2.1c-.05.73-.09,1.52-.1,2.36h2.1Q250.43,618.83,250.5,617.65Z"/><path class="cls-22" d="M240.93,620.85h-1.7c0,1.12,0,2.28,0,3.45H241Q240.94,622.66,240.93,620.85Z"/><path class="cls-22" d="M253.12,640.3h-1.7l.36,1.26h1.69C253.36,641.17,253.24,640.76,253.12,640.3Z"/><path class="cls-22" d="M243.53,638.62h-2q.39,1.1.87,2.11h2C244.14,640.14,243.84,639.44,243.53,638.62Z"/><path class="cls-22" d="M251.86,634.75H250c.21,1,.46,2,.72,3h1.75C252.29,636.84,252.07,635.82,251.86,634.75Z"/><path class="cls-22" d="M250.9,628.68h-2q.27,1.91.69,4h1.87C251.27,631.43,251.06,630.08,250.9,628.68Z"/><rect class="cls-22" x="247.47" y="643.25" width="1.35" height="1.35"/><path class="cls-22" d="M203.6,662.08l-.73,1.94q3.21,1.52,6.28,2.65l.5-2C207.57,663.88,205.54,663,203.6,662.08Z"/><path class="cls-22" d="M197.64,659l-.9,1.82q1.87,1.06,3.69,2l.73-1.94C199.94,660.26,198.77,659.63,197.64,659Z"/><path class="cls-22" d="M220.32,667.91l-.46,1.81q2.2.44,4.3.7v-1.81C222.87,668.42,221.59,668.18,220.32,667.91Z"/><path class="cls-22" d="M233.24,669.17v1.7a54.58,54.58,0,0,0,5.46-.43v-1.78A44,44,0,0,1,233.24,669.17Z"/><path class="cls-22" d="M226.87,668.95v1.76q1.88.15,3.66.19v-1.71Q228.69,669.13,226.87,668.95Z"/><path class="cls-22" d="M212.22,665.62l-.49,2q2.81.93,5.48,1.57l.47-1.86C215.82,666.8,214,666.24,212.22,665.62Z"/><path class="cls-22" d="M192.12,655.72l-.91,1.71q1.6,1.06,3.18,2l.88-1.79Q193.63,656.67,192.12,655.72Z"/><path class="cls-22" d="M255.11,665.21l-1.2-2.16a41.31,41.31,0,0,1-3.93,2.14l.88,2.11A28.36,28.36,0,0,0,255.11,665.21Z"/><path class="cls-22" d="M180.7,647.37l.34,2.5c.81.67,1.61,1.31,2.4,1.93l1.19-1.28C182.11,648.62,180.7,647.37,180.7,647.37Z"/><path class="cls-22" d="M186.83,652.14l-1.23,1.33c1.13.85,2.25,1.66,3.36,2.44l.89-1.67C188.75,653.5,187.74,652.79,186.83,652.14Z"/><path class="cls-22" d="M241.42,668.16V670a49.46,49.46,0,0,0,6.89-1.77l-.82-2A40.47,40.47,0,0,1,241.42,668.16Z"/><path class="cls-22" d="M325.54,671.11l1,2.13q1.62-.85,3.27-1.76l-1.08-2.15Q327.15,670.23,325.54,671.11Z"/><path class="cls-22" d="M346.2,657.77l1.28,2.05q2.16-1.68,4.29-3.5l-1.41-1.77Q348.43,656.1,346.2,657.77Z"/><path class="cls-22" d="M337.62,663.81l1.16,2.23q3-1.95,5.93-4.12l-1.31-2.09C341.6,661.13,339.67,662.46,337.62,663.81Z"/><path class="cls-22" d="M319.46,674.29l.66,2.12q1.64-.77,3.32-1.6l-.94-2.07Q321,673.53,319.46,674.29Z"/><path class="cls-22" d="M331.68,667.57l1.1,2.2q1.53-.9,3.08-1.86l-1.15-2.21Q333.23,666.63,331.68,667.57Z"/><path class="cls-22" d="M296,683.56l.47,1.68c1.61-.46,3.43-1,5.42-1.65l-.47-1.76Q298.73,682.74,296,683.56Z"/><path class="cls-22" d="M312.62,677.48l.59,2q1.83-.75,3.73-1.59l-.63-2Q314.49,676.66,312.62,677.48Z"/><path class="cls-22" d="M304.66,680.68l.48,1.81q2.31-.81,4.84-1.78l-.57-1.88Q307.08,679.79,304.66,680.68Z"/><path class="cls-22" d="M288.64,685.49l.71,1.53c.8-.17,2.08-.46,3.76-.88l-.46-1.65Q290.66,685,288.64,685.49Z"/><path class="cls-22" d="M360.62,645.6c-.47.46-1.14,1.1-2,1.88l1.1,1.39q1-1,1.94-2Z"/><path class="cls-22" d="M353,652.38l1.33,1.67q1.47-1.33,2.91-2.72l-1.21-1.53C355.16,650.59,354.15,651.45,353,652.38Z"/><path class="cls-4" d="M298.06,502.56l-.8,7.08,6.48-3-2.43,8.18,2.63,5.76,14.49,18.21,8.39,2.51,4.28.06.51-.34,2.75-3.14S323,540.71,313.9,528c0,0-9.87-10.87-7.62-21.88l4.12-5.25-3-1.87Z"/><path class="cls-10" d="M189.24,601.37l5.9-11,5.08-14.64s2-10.37,5.09-14.85l6.3-11.8,19.53-36,12-4.47,6.51.2,9.56.41L286.66,506l12.81-4.88-2.64,7.73,6.92-2.24s-3.46,8.75,1.22,13,7.52,18.3,26.64,21.36c0,0-3.66,8.95-2.85,14.85l-4.07,6.3,8.95,10.17,1.63,2-.61,5.9L337.3,592l.41,8.75S265.71,621.5,189.24,601.37Z"/><path class="cls-4" d="M200.22,575.74s17.08,6.92,134.44,4.47c0,0,3.87,8.54,2.65,11.8,0,0-3.46,2-22,3.86s-105.35.2-120.2-5.49Z"/><path class="cls-4" d="M211.61,549.09s.81-2,30.51-1.63S297,550.93,297,550.93l27.05-.2,4.68,5.08-1,3.25-13.42,7.32s-104.74,0-109-5.49Z"/><path class="cls-4" d="M269.58,509.44s-28.88-.61-40.68,6.3l7.73-6.91S261.24,507.61,269.58,509.44Z"/><path class="cls-6" d="M297.76,548.42l-2.76.15s14.28,21.8,39.3,29.47c0,0,3.84,1.54,1.54,2.92l.46,1.38s4.91-2.92,3.22-4.91c0,0-25.17-11.05-41.75-29"/><path class="cls-4" d="M223.61,524.69s9.56-6.1,61.62-4.07l.61,10.58s-59.59-1.63-68.54,4.88Z"/><path class="cls-4" d="M282.91,520.58s16-.16,21-2.14a36.87,36.87,0,0,1,5,6.82s2.47.08-25,5.92Z"/><path class="cls-7" d="M297.76,548.42s14,18.73,37.91,26.86c0,0,1.23.61,3.84,2.15l-3.38-14s-26.1-14.58-33-28.09Z"/><path class="cls-7" d="M283.49,508.36s-3.38,31,9.52,39.6c0,0,10.9,4.45,11.21-9.82a15.21,15.21,0,0,0-2.76-7.68c-2.76-4.14-5.22-21-2-28.55"/><path class="cls-8" d="M196.83,397.07s-3.54,23.94,3.52,46l.21,4.5s1.71,18.63,24.83,47.31c0,0,48.81,36.39,95.7-5.57,0,0,14.13-15.84,17.13-31,0,0,1.5-28.26.64-34.9,0,0-2-25.25-11.71-43.56C327.16,379.8,277.88,359,196.83,397.07Z"/><path class="cls-9" d="M344.4,410.33s-1.87,18-5.75,11.5a321.44,321.44,0,0,1-.5,35.75S356.9,451,356.9,427.71C356.9,427.71,356.27,413,344.4,410.33Z"/><path class="cls-10" d="M326.28,379.65s6.31,11.94,12.36,43.31c0,0,2.35,3.28,5-7,0,0,2.61-18.5,2-26.07S326.28,379.65,326.28,379.65Z"/><path class="cls-10" d="M236,385.29s-.68,27.86,8.83,25.73c0,0,4.47-.87,8.74-6.12,0,0,2.62,9,7.77,7.57s6.12-10,6.12-10a14.8,14.8,0,0,1,1.26-1.84s6.8,6.21,11.26-.39c0,0,4.66-6.6,1.36-21.94C281.37,378.3,258.36,376,236,385.29Z"/><path class="cls-4" d="M346.5,393.32s9.57-20.51-76.56-14.36c0,0-20.51.68-45.8,10.25,0,0-21.88-17.09-43.75-2.73,0,0,5.47-50.59,63.58-67.68S358.81,358.46,346.5,393.32Z"/><path class="cls-10" d="M224.13,389.22s-19.75-16.77-43.75-2.73c0,0-28.62,13.88-31.08,27.59C149.3,414.08,152.33,403.18,224.13,389.22Z"/><path class="cls-10" d="M182.72,406.22l-.15-.75A.94.94,0,0,0,182.72,406.22Zm-.15-.75c.28-1.88,4.81-7.29,41.56-16.25,0,0-28.31,5.11-42.68,10-5,1.24-25.55,6.73-32.16,14.83,0,0-2.93,9.24,36,7.7,0,0-2.69-6.3-2.9-17Z"/><path class="cls-13" d="M196.83,397.07s-2.66,23.59,2,38.9-.3,12.2-3.18,8.51a44.4,44.4,0,0,1-3.79-7.06c-2.92-6.3-6.09-14.35-6.52-15.64-.64-1.93-3.82-10.21-2.56-16.94C182.78,404.83,186,400,196.83,397.07Z"/><path class="cls-10" d="M240.6,451.79s-13.11.19-9.42-25.82c0,0,4.76-12.43,12.14,2.14S242.34,452.08,240.6,451.79Z"/><path class="cls-10" d="M296.81,412s-12.52,2-4.37,22.72c0,0,9.13,18.15,13.88-1.55C306.32,433.15,308,412,296.81,412Z"/><path class="cls-14" d="M294.45,472.74s-14.1,7.59-38.42,5.6C256,478.34,275.38,483.31,294.45,472.74Z"/><path class="cls-8" d="M191.75,437.16"/><path class="cls-9" d="M191.86,437.42s-14.09,9.91,1.29,31.66a28.67,28.67,0,0,0,21.75,11.38s-13.5-20.37-14.5-33.75C200.4,446.71,199.57,451,191.86,437.42Z"/><ellipse class="cls-15" cx="272.45" cy="461.55" rx="6.26" ry="4.88" transform="translate(-73.28 52) rotate(-9.62)"/><path class="cls-16" d="M237,507.65a27.26,27.26,0,0,0-21.24,17.77l5.79,4.51S224.29,512.67,237,507.65Z"/><path class="cls-17" d="M300.62,518.83l-23.29,8.81L284.46,544l23.5-9Zm-19.72,9.63,18.24-6.9,5.26,12.38-5.87,2.41c-.86-1.36-3.36-4.93-5-3.69s1.27,3.78,2.47,4.73l-9.5,3.89Z"/><path class="cls-6" d="M218.5,532.22s-9.63,6-8.74,12.9C209.76,545.12,209.75,541,218.5,532.22Z"/><path class="cls-6" d="M246.7,508.42s-10.17,1-13.65,4.38-4.63,4.38-10.94,16.09l-.52,1S224.29,502.24,246.7,508.42Z"/><path class="cls-6" d="M209.76,545.12l-.77-.29.54-2.14.57.63A5.13,5.13,0,0,0,209.76,545.12Z"/><path class="cls-16" d="M213,527.09l-10.56,13.65,6.44,5.54s3-9.91,10.56-14.55Z"/><path class="cls-6" d="M199.74,553.25s4.45,1.34,8-5.27l-1.55-.93Z"/><path class="cls-16" d="M202,544s-4.86,7.44-2.27,9.2,8-5.27,8-5.27Z"/><path class="cls-17" d="M214,523.74l-14.29,18.8,9.78,7.08,13-19.18Zm-9.16,17.82-1.66-1.2,9.61-12.64,5.71,4.5-8.74,12.9Z"/><path class="cls-17" d="M204.08,542.15s5-4.25,2.58,1.93"/><path class="cls-4" d="M324.08,550.72l4.94-.47s-.86,4-.26,5.55S324.08,550.72,324.08,550.72Z"/><polygon class="cls-4" points="304.65 518.08 303.95 518.45 308.52 525.52 309.33 524.96 304.65 518.08"/><path class="cls-18" d="M245.69,642.91c.17.23.27.34.27.34h.59v-.34Z"/><path class="cls-19" d="M362.29,467.56a28.2,28.2,0,0,1,4.36-4c2-1.34,10.05-10.05,13.41-15.42,0,0,4-3.35,5.7-5s6-23.46,15.75-22.46,1,21.45-3.35,24.13c0,0,23.13,6.7,23.8,26.81,0,0-11.73,27.82-36.2,18.43C385.75,490,354.58,480,362.29,467.56Z"/><path class="cls-19" d="M173.6,568.44s-5.36-23.8-16.42-19.44a8.09,8.09,0,0,0-4.36,5.7s-4.36-6.7-9-2-5.36,12.4-5.36,12.4,11.4,27.15,29.16,26.14c0,0,7-2.68,10.39-11.73C178,579.5,175.27,572.8,173.6,568.44Z"/><path class="cls-4" d="M243.93,697.8s4,3.56,2.44,22.89c0,0-3.56,4.89-39.12,8.22s-32.45-4-32.23-8.89,2.89-15.56,15.11-18.45l26-8.22S228.15,715.36,243.93,697.8Z"/><path class="cls-4" d="M326.39,719.36s-1.11,15.56,1.33,19.78,13.34,21.34,13.34,21.34,23.56,8.89,34.67-3.11c0,0,2.67-11.33-7.78-24.67l-16.45-20.23S347.73,726.69,326.39,719.36Z"/><polygon class="cls-19" points="402.32 439.02 398.91 447.44 380.05 448.12 394.84 423.83 402.32 439.02"/><path class="cls-23" d="M719.24,600s-2,5.63-4.5,11.93c-3.18,8.14-7.06,17.4-8.1,17-1.85-.74-14.45,21.49,0,30.39s49.29,28.54,76,2.59l27.05,27.42s31.13-3.71,50.4-21.12c0,0,14.08-8.15,20.38-15.19,0,0,3.71-7-3-11.86L863,629s-4.45.74-13-30Z"/><path class="cls-10" d="M760.74,608.55l-1.52-.42s-.42,2.8-.69,6.9h1.65C760.3,613,760.48,610.85,760.74,608.55Z"/><path class="cls-10" d="M771,609.23h-1.43s-1.28,1.83-1.89,6.32h2.07A35.08,35.08,0,0,1,771,609.23Z"/><path class="cls-10" d="M817.14,502.56l-.8,7.08,6.48-3-2.43,8.18,2.63,5.76,14.49,18.21,8.39,2.51,4.28.06.51-.34,2.75-3.14S842.1,540.71,833,528c0,0-9.87-10.87-7.62-21.88l4.13-5.25-3-1.87Z"/><path class="cls-24" d="M708.32,601.37l5.9-11,5.08-14.64s2-10.37,5.08-14.85l6.3-11.8,19.53-36,12-4.47,6.51.2,9.56.41L805.74,506l12.81-4.88-2.64,7.73,6.92-2.24s-3.46,8.75,1.22,13,7.52,18.3,26.64,21.36c0,0-3.66,8.95-2.85,14.85l-4.07,6.3,8.95,10.17,1.63,2-.61,5.9,2.65,11.8.41,8.75S784.79,621.5,708.32,601.37Z"/><path class="cls-10" d="M719.3,575.74s17.08,6.92,134.44,4.47c0,0,3.87,8.54,2.65,11.8,0,0-3.46,2-22,3.86s-105.35.2-120.2-5.49Z"/><path class="cls-10" d="M730.69,549.09s.81-2,30.51-1.63,54.91,3.46,54.91,3.46l27.05-.2,4.68,5.08-1,3.25-13.42,7.32s-104.74,0-109-5.49Z"/><path class="cls-10" d="M788.65,509.44s-28.88-.61-40.68,6.3l7.73-6.91S780.31,507.61,788.65,509.44Z"/><path class="cls-6" d="M816.84,548.42l-2.76.15s14.28,21.8,39.3,29.47c0,0,3.84,1.54,1.54,2.92l.46,1.38s4.91-2.92,3.22-4.91c0,0-25.17-11.05-41.75-29"/><path class="cls-10" d="M742.69,524.69s9.56-6.1,61.63-4.07l.61,10.58s-59.59-1.63-68.54,4.88Z"/><path class="cls-10" d="M802,520.58s16-.16,21-2.14a36.87,36.87,0,0,1,5,6.82s2.47.08-25,5.92Z"/><path class="cls-7" d="M816.84,548.42s14,18.73,37.91,26.86c0,0,1.23.61,3.84,2.15l-3.38-14s-26.1-14.58-33-28.09Z"/><path class="cls-7" d="M802.56,508.36s-3.38,31,9.52,39.6c0,0,10.9,4.45,11.21-9.82a15.21,15.21,0,0,0-2.76-7.68c-2.76-4.14-5.22-21-2-28.55"/><path class="cls-25" d="M715.91,397.07s-3.54,23.94,3.52,46l.21,4.5s1.71,18.63,24.83,47.31c0,0,48.81,36.39,95.7-5.57,0,0,14.13-15.84,17.13-31,0,0,1.5-28.26.64-34.9,0,0-2-25.25-11.71-43.56C846.24,379.8,797,359,715.91,397.07Z"/><path class="cls-26" d="M863.47,410.33s-1.87,18-5.75,11.5a321.44,321.44,0,0,1-.5,35.75S876,451,876,427.71C876,427.71,875.35,413,863.47,410.33Z"/><path class="cls-10" d="M845.36,379.65s6.31,11.94,12.36,43.31c0,0,2.35,3.28,5-7,0,0,2.61-18.5,2-26.07S845.36,379.65,845.36,379.65Z"/><path class="cls-10" d="M755.11,385.29s-.68,27.86,8.83,25.73c0,0,4.47-.87,8.74-6.12,0,0,2.62,9,7.77,7.57s6.12-10,6.12-10a14.85,14.85,0,0,1,1.26-1.84s6.8,6.21,11.26-.39c0,0,4.66-6.6,1.36-21.94C800.45,378.3,777.44,376,755.11,385.29Z"/><path class="cls-10" d="M865.58,393.32S875.15,372.81,789,379c0,0-20.51.68-45.8,10.25,0,0-21.87-17.09-43.75-2.73,0,0,5.47-50.59,63.58-67.68S877.88,358.46,865.58,393.32Z"/><path class="cls-11" d="M743.21,389.22s-19.75-16.77-43.75-2.73c0,0-28.62,13.88-31.08,27.59C668.38,414.08,671.41,403.18,743.21,389.22Z"/><path class="cls-24" d="M701.8,406.22l-.15-.75A.94.94,0,0,0,701.8,406.22Zm-.15-.75c.28-1.88,4.81-7.29,41.56-16.25,0,0-28.31,5.11-42.68,10-5,1.24-25.55,6.73-32.16,14.83,0,0-2.93,9.24,36,7.7,0,0-2.69-6.3-2.9-17Z"/><path class="cls-13" d="M715.91,397.07s-2.66,23.59,2,38.9-.29,12.2-3.18,8.51a44.39,44.39,0,0,1-3.79-7.06c-2.92-6.3-6.09-14.35-6.52-15.64-.64-1.93-3.82-10.21-2.56-16.94C701.86,404.83,705,400,715.91,397.07Z"/><path class="cls-11" d="M759.67,451.79s-13.11.19-9.42-25.82c0,0,4.76-12.43,12.13,2.14S761.42,452.08,759.67,451.79Z"/><path class="cls-11" d="M815.89,412s-12.52,2-4.37,22.72c0,0,9.13,18.15,13.88-1.55C825.4,433.15,827.05,412,815.89,412Z"/><path class="cls-14" d="M813.53,472.74s-14.1,7.59-38.42,5.6C775.11,478.34,794.46,483.31,813.53,472.74Z"/><path class="cls-8" d="M710.82,437.16"/><path class="cls-26" d="M710.94,437.42s-14.09,9.91,1.29,31.66A28.67,28.67,0,0,0,734,480.46s-13.5-20.37-14.5-33.75C719.47,446.71,718.65,451,710.94,437.42Z"/><ellipse class="cls-26" cx="791.52" cy="461.55" rx="6.26" ry="4.88" transform="matrix(0.99, -0.17, 0.17, 0.99, -65.99, 138.74)"/><path class="cls-16" d="M756.12,507.65a27.26,27.26,0,0,0-21.24,17.77l5.79,4.51S743.37,512.67,756.12,507.65Z"/><path class="cls-17" d="M819.69,518.83l-23.29,8.81L803.54,544l23.5-9ZM800,528.46l18.24-6.9,5.26,12.38-5.87,2.41c-.86-1.36-3.36-4.93-5-3.69s1.27,3.78,2.47,4.73l-9.5,3.89Z"/><path class="cls-6" d="M737.58,532.22s-9.63,6-8.74,12.9C728.84,545.12,728.82,541,737.58,532.22Z"/><path class="cls-6" d="M765.77,508.42s-10.17,1-13.65,4.38-4.63,4.38-10.94,16.09l-.52,1S743.37,502.24,765.77,508.42Z"/><path class="cls-6" d="M728.84,545.12l-.77-.29.54-2.14.57.63A5.14,5.14,0,0,0,728.84,545.12Z"/><path class="cls-16" d="M732,527.09l-10.56,13.65,6.44,5.54s3-9.91,10.56-14.55Z"/><path class="cls-6" d="M718.81,553.25s4.45,1.34,8-5.27l-1.55-.93Z"/><path class="cls-16" d="M721.09,544s-4.86,7.44-2.27,9.2,8-5.27,8-5.27Z"/><path class="cls-17" d="M733.07,523.74l-14.29,18.8,9.79,7.08,13-19.18Zm-9.16,17.82-1.66-1.2,9.61-12.64,5.71,4.5-8.74,12.9Z"/><path class="cls-17" d="M723.16,542.15s5-4.25,2.58,1.93"/><path class="cls-10" d="M843.16,550.72l4.94-.47s-.86,4-.26,5.55S843.16,550.72,843.16,550.72Z"/><polygon class="cls-10" points="823.72 518.08 823.03 518.45 827.6 525.52 828.41 524.96 823.72 518.08"/><path class="cls-18" d="M764.77,642.91c.17.23.27.34.27.34h.59v-.34Z"/><path class="cls-10" d="M765,643.25s-.1-.11-.27-.34h-2A13.74,13.74,0,0,0,764,644.6h1.6v-1.35Z"/><path class="cls-10" d="M761,632.55h-1.88c.22,1.3.48,2.57.81,3.79h2C761.56,635.24,761.26,634,761,632.55Z"/><path class="cls-10" d="M769.5,622.53h-2.08q.06,1.5.23,3.2h2C769.6,624.68,769.53,623.61,769.5,622.53Z"/><path class="cls-10" d="M771.35,643.25h-1.52v1.35h3.62s-.24-.7-.6-1.94h-1.68Z"/><path class="cls-10" d="M760.08,617.06h-1.67c0,.49,0,1-.06,1.52H760C760,618.08,760.06,617.57,760.08,617.06Z"/><path class="cls-10" d="M760.23,626.58h-1.78c.07,1.12.16,2.25.29,3.37h1.83C760.44,628.9,760.32,627.77,760.23,626.58Z"/><path class="cls-10" d="M769.58,617.65h-2.1c-.05.73-.09,1.52-.1,2.36h2.1Q769.51,618.83,769.58,617.65Z"/><path class="cls-10" d="M760,620.85h-1.7c0,1.12,0,2.28,0,3.45h1.75Q760,622.66,760,620.85Z"/><path class="cls-10" d="M772.2,640.3h-1.7l.36,1.26h1.69C772.44,641.17,772.32,640.76,772.2,640.3Z"/><path class="cls-10" d="M762.61,638.62h-2q.39,1.1.87,2.11h2C763.22,640.14,762.92,639.44,762.61,638.62Z"/><path class="cls-10" d="M770.94,634.75h-1.82c.21,1,.46,2,.72,3h1.75C771.37,636.84,771.15,635.82,770.94,634.75Z"/><path class="cls-10" d="M770,628.68h-2c.18,1.27.41,2.62.69,4h1.87C770.34,631.43,770.14,630.08,770,628.68Z"/><rect class="cls-10" x="766.55" y="643.25" width="1.35" height="1.35"/><path class="cls-25" d="M881.37,467.56a28.21,28.21,0,0,1,4.36-4c2-1.34,10.05-10.05,13.41-15.42,0,0,4-3.35,5.7-5s6-23.46,15.75-22.46,1,21.45-3.35,24.13c0,0,23.13,6.7,23.8,26.81,0,0-11.73,27.82-36.2,18.43C904.83,490,873.66,480,881.37,467.56Z"/><path class="cls-25" d="M692.67,568.44s-5.36-23.8-16.42-19.44a8.09,8.09,0,0,0-4.36,5.7s-4.36-6.7-9-2-5.36,12.4-5.36,12.4,11.4,27.15,29.16,26.14c0,0,7-2.68,10.39-11.73C697,579.5,694.35,572.8,692.67,568.44Z"/><path class="cls-10" d="M763,697.8s4,3.56,2.45,22.89c0,0-3.56,4.89-39.12,8.22s-32.45-4-32.23-8.89,2.89-15.56,15.11-18.45l26-8.22S747.23,715.36,763,697.8Z"/><path class="cls-10" d="M845.47,719.36s-1.11,15.56,1.33,19.78,13.34,21.34,13.34,21.34,23.56,8.89,34.67-3.11c0,0,2.67-11.33-7.78-24.67l-16.45-20.23S866.81,726.69,845.47,719.36Z"/><polygon class="cls-25" points="921.4 439.02 917.99 447.44 899.13 448.12 913.92 423.83 921.4 439.02"/><path class="cls-10" d="M722.68,662.08,722,664q3.21,1.52,6.28,2.65l.5-2C726.65,663.88,724.62,663,722.68,662.08Z"/><path class="cls-10" d="M716.72,659l-.9,1.82q1.87,1.06,3.69,2l.73-1.94C719,660.26,717.85,659.63,716.72,659Z"/><path class="cls-10" d="M739.4,667.91l-.46,1.81q2.2.44,4.3.7v-1.81C741.94,668.42,740.67,668.18,739.4,667.91Z"/><path class="cls-10" d="M752.32,669.17v1.7a54.58,54.58,0,0,0,5.46-.43v-1.78A44,44,0,0,1,752.32,669.17Z"/><path class="cls-10" d="M745.95,668.95v1.76q1.88.15,3.66.19v-1.71Q747.77,669.13,745.95,668.95Z"/><path class="cls-10" d="M731.3,665.62l-.49,2q2.81.93,5.48,1.57l.47-1.86C734.9,666.8,733.08,666.24,731.3,665.62Z"/><path class="cls-10" d="M711.2,655.72l-.91,1.71q1.6,1.06,3.18,2l.88-1.79Q712.7,656.67,711.2,655.72Z"/><path class="cls-10" d="M774.18,665.21l-1.2-2.16a41.3,41.3,0,0,1-3.93,2.14l.88,2.11A28.36,28.36,0,0,0,774.18,665.21Z"/><path class="cls-10" d="M699.77,647.37l.34,2.5c.81.67,1.61,1.31,2.4,1.93l1.19-1.28C701.19,648.62,699.77,647.37,699.77,647.37Z"/><path class="cls-10" d="M705.9,652.14l-1.23,1.33c1.13.85,2.25,1.66,3.36,2.44l.89-1.67C707.83,653.5,706.82,652.79,705.9,652.14Z"/><path class="cls-10" d="M760.5,668.16V670a49.49,49.49,0,0,0,6.89-1.77l-.82-2A40.47,40.47,0,0,1,760.5,668.16Z"/><path class="cls-10" d="M844.62,671.11l1,2.13q1.62-.85,3.27-1.76l-1.08-2.15Q846.23,670.23,844.62,671.11Z"/><path class="cls-10" d="M865.27,657.77l1.28,2.05q2.16-1.68,4.3-3.5l-1.41-1.77Q867.5,656.1,865.27,657.77Z"/><path class="cls-10" d="M856.7,663.81l1.16,2.23q3-1.95,5.93-4.12l-1.31-2.09C860.68,661.13,858.74,662.46,856.7,663.81Z"/><path class="cls-10" d="M838.53,674.29l.66,2.12q1.64-.77,3.32-1.6l-.94-2.07Q840.07,673.53,838.53,674.29Z"/><path class="cls-10" d="M850.76,667.57l1.1,2.2q1.53-.9,3.08-1.86l-1.15-2.21Q852.31,666.63,850.76,667.57Z"/><path class="cls-10" d="M815.05,683.56l.47,1.68c1.61-.46,3.43-1,5.42-1.65l-.47-1.76Q817.81,682.74,815.05,683.56Z"/><path class="cls-10" d="M831.7,677.48l.59,2q1.83-.75,3.73-1.59l-.63-2Q833.57,676.66,831.7,677.48Z"/><path class="cls-10" d="M823.74,680.68l.48,1.81q2.31-.81,4.84-1.78l-.57-1.88Q826.16,679.79,823.74,680.68Z"/><path class="cls-10" d="M807.72,685.49l.71,1.53c.8-.17,2.08-.46,3.76-.88l-.46-1.65Q809.74,685,807.72,685.49Z"/><path class="cls-10" d="M879.7,645.6c-.47.46-1.14,1.1-2,1.88l1.1,1.39q1-1,1.94-2Z"/><path class="cls-10" d="M872.11,652.38l1.33,1.67q1.47-1.33,2.91-2.72l-1.21-1.53C874.24,650.59,873.23,651.45,872.11,652.38Z"/></g></g></svg>