<svg xmlns="http://www.w3.org/2000/svg" viewBox="0 0 781.84 781.84"><defs><style>.cls-1{fill:#d696a4;}.cls-2{fill:#975894;}.cls-3{fill:#c6dd7b;}.cls-4{fill:#aec656;}.cls-5{fill:#fff;}.cls-6{fill:#783163;}.cls-7{fill:#511537;}.cls-8{fill:#cf96c3;}.cls-9{fill:#6a2353;}</style></defs><title>Asset 3</title><g id="Layer_2" data-name="Layer 2"><g id="Layer_1-2" data-name="Layer 1"><rect class="cls-1" width="781.84" height="781.84"/><polygon class="cls-2" points="154.45 602.19 145.79 602.64 141.69 604.01 142.15 606.28 144.65 607.88 148.75 607.65 153.08 608.33 153.31 611.29 151.49 614.94 148.07 618.58 147.39 622.22 148.98 624.73 151.03 623.81 155.13 619.94 158.78 617.44 159.24 625.18 159.92 631.55 161.06 633.6 163.57 632.92 164.93 628.37 165.84 611.98 172.45 603.78 180.43 596.27 188.18 588.75 194.33 582.84 199.57 580.79 199.57 583.75 196.61 588.98 194.79 598.54 194.79 616.99 196.84 635.2 202.53 650.91 208.69 662.97 217.8 675.95 221.9 686.42 227.15 695.07 235.58 703.72 238.54 708.73 237.63 714.42 231.25 718.98 223.96 722.62 215.29 726.03 211.42 729.9 212.56 732.63 223.73 732.18 229.42 731.27 230.79 733.32 240.59 733.77 246.06 732.41 251.3 732.86 257.23 734.23 260.42 733.09 257.91 728.99 250.84 718.07 246.97 711.92 246.51 694.62 249.48 690.06 254.95 685.28 270.67 685.28 286.62 684.83 300.07 684.83 305.54 685.28 309.64 689.38 311.69 696.21 310.32 702.81 309.41 710.1 304.63 719.89 299.15 727.17 297.1 730.13 298.47 732.63 311 732.18 328.78 732.41 346.78 732.41 344.73 728.76 332.65 723.53 326.27 721.25 320.8 717.84 317.84 713.97 316.93 707.59 323.99 701.22 331.97 690.75 338.12 680.27 342.23 671.62 347.24 662.74 355.44 650.22 359.32 636.56 361.37 624.04 362.51 607.65 361.37 596.27 359.54 587.84 356.58 582.38 357.26 580.33 360.45 580.56 370.94 590.8 380.28 599.46 386.43 606.97 390.08 610.38 391.22 615.16 392.36 627.91 393.95 632.92 396.92 633.6 397.83 629.51 397.6 617.67 399.65 617.44 405.35 623.13 408.77 624.73 410.36 622.22 405.35 615.39 403.75 611.98 404.44 609.02 407.85 607.65 411.73 607.65 414.24 605.6 411.96 603.33 403.52 602.64 396.23 601.73 394.64 597.86 393.27 587.84 385.29 573.05 374.58 560.75 365.01 551.19 355.21 542.77 348.83 536.62 344.05 532.75 342.23 529.79 348.83 522.51 361.37 512.95 374.13 500.2 381.65 487.68 387.8 474.01 389.85 458.53 388.71 443.05 384.38 427.12 379.14 416.19 375.27 407.99 374.36 404.81 385.98 398.43 396 394.79 403.75 392.51 410.59 391.15 413.1 388.64 411.96 384.55 407.4 382.5 397.37 384.77 388.26 388.64 379.6 392.74 373.22 396.61 368.89 397.52 363.19 391.83 357.04 385.46 353.62 380.45 360.68 374.3 369.12 366.33 377.55 359.05 384.61 354.27 391.22 349.03 394.18 345.39 391.22 342.66 383.93 343.79 374.58 351.31 364.79 359.96 354.07 369.52 349.52 375.89 346.1 375.89 338.35 368.38 327.41 361.32 320.8 357.45 320.12 354.27 334.02 342.43 342.23 334.92 346.33 330.36 344.96 325.58 339.26 325.35 331.74 332.18 320.8 344.25 315.56 351.08 311 352.22 305.31 347.66 298.93 340.38 296.19 329 292.77 307.82 293 289.61 293.23 263.89 295.96 245.67 299.84 226.32 305.76 206.29 316.93 184.43 324.22 171.46 333.34 161.21 345.87 154.16 365.24 145.96 381.19 140.5 395.55 137.08 413.55 131.62 436.57 123.88 456.17 116.59 476.45 108.39 496.73 100.2 512.91 92.69 524.53 87.91 531.82 82.9 540.02 81.53 547.77 73.56 552.79 71.51 562.81 71.97 566.91 69.69 559.39 66.05 550.74 63.77 540.25 63.55 524.53 56.26 508.12 51.71 487.16 48.75 467.56 47.84 443.63 47.61 421.98 48.75 405.35 51.02 391.22 56.49 375.72 61.5 364.33 67.42 350.66 79.94 341.54 91.09 337.67 103.61 335.16 118.18 334.48 132.3 335.16 141.18 333.34 148.46 327.87 158.03 311.46 175.78 299.38 191.49 287.99 211.07 283.43 223.13 277.28 241.35 271.35 260.93 266.57 281.64 263.61 296.21 260.64 313.29 258.82 323.76 257.23 335.14 252.44 343.79 242.87 351.99 236.94 356.09 233.98 355.18 225.32 344.02 218.49 335.14 215.29 332.41 211.42 331.96 209.6 334.46 213.7 339.92 220.76 347.89 229.65 357.45 229.65 359.96 226.46 362.01 220.54 365.88 218.03 367.93 212.56 367.7 205.5 360.19 197.29 351.76 190.68 345.84 185.67 341.75 180.2 341.29 177.92 344.02 182.03 349.49 189.77 356.09 196.38 362.24 202.99 367.93 206.18 371.57 206.64 375.89 201.85 381.13 195.7 387.73 189.77 393.88 186.58 398.43 182.48 398.2 173.59 392.74 166.76 390.46 159.47 389.78 156.5 391.38 156.73 394.33 160.38 395.93 168.58 397.52 175.64 400.71 180.89 403.67 181.11 406.86 174.5 414.82 169.04 431.21 166.07 446.7 166.3 462.63 169.72 479.02 177.92 493.82 189.09 507.71 199.57 516.59 208.46 524.33 213.02 528.2 213.25 532.3 201.4 542.09 186.13 556.43 175.87 568.49 169.26 578.97 165.39 587.16 163.34 595.81 162.88 599.46 161.29 602.41 156.96 602.19 154.45 602.19"/><polygon class="cls-3" points="299.84 226.32 305.76 206.29 316.93 184.43 324.22 171.46 333.34 161.21 345.87 154.16 365.24 145.96 381.19 140.5 395.55 137.08 413.55 131.62 436.57 123.88 456.17 116.59 476.45 108.39 496.73 100.2 512.91 92.69 524.53 87.91 531.82 82.9 540.02 81.53 547.77 73.56 552.79 71.51 562.81 71.97 566.91 69.69 559.39 66.05 550.74 63.77 540.25 63.55 524.53 56.26 508.12 51.71 487.16 48.75 467.56 47.84 443.63 47.61 421.98 48.75 405.35 51.02 391.22 56.49 375.72 61.5 364.33 67.42 350.66 79.94 341.54 91.09 337.67 103.61 335.16 118.18 334.48 132.3 335.16 141.18 333.34 148.46 327.87 158.03 311.46 175.78 299.38 191.49 287.99 211.07 283.43 223.13 299.84 226.32"/><polygon class="cls-4" points="340.3 150.91 356.91 136.84 373.52 125.03 390.13 113.78 402.8 105.06 416.87 98.59 436.86 89.03 450.37 85.37 465.58 83.69 483.03 82.84 496.82 83.12 512.59 84.25 518.22 84.25 501.89 78.62 483.31 77.78 470.08 79.47 456.29 82 473.46 74.97 485.85 71.59 500.2 69.34 520.19 67.37 498.51 66.81 486.41 67.94 485.56 57.53 486.13 51.06 481.62 54.44 478.53 62.03 478.53 69.34 467.83 72.44 456.29 77.22 447.28 80.31 436.86 84.25 427.85 88.47 427.85 78.9 433.2 67.94 437.7 57.25 428.98 67.09 424.19 76.65 423.35 90.44 413.49 94.94 405.05 99.44 391.54 107.03 382.81 112.37 385.9 98.87 386.19 84.53 383.93 73.56 381.96 88.19 380.27 104.5 375.77 115.75 368.73 123.34 355.78 132.34 348.46 138.25 338.05 149.78 340.3 150.91"/><polygon class="cls-5" points="187.77 407.42 181.65 412.57 177.86 418.39 175.72 424.31 176.11 432.36 179.8 438.28 185.34 443.91 191.36 447.11 200.2 447.99 207.29 447.11 214.09 443.91 219.24 438.96 222.64 432.94 222.74 423.82 220.21 415.96 214.97 409.95 207.49 406.26 201.37 406.36 192.92 406.94 187.77 407.42"/><polygon points="192.63 415.38 189.13 418.58 187.19 421.79 186.31 425.57 187.38 430.52 190.78 435.18 194.37 437.51 199.62 438.38 203.5 437.31 207.58 434.01 209.14 429.65 209.33 423.53 206.42 418.78 203.12 415.96 198.16 414.61 192.63 415.38"/><polygon class="cls-5" points="334.73 415.48 331.14 420.14 330.46 426.06 331.43 433.04 335.12 438.96 340.65 444.49 348.52 448.57 359.98 448.86 367.37 446.72 375.52 440.42 379.12 433.33 379.22 424.31 374.85 415.67 368.63 410.24 361.34 407.23 353.38 406.65 347.45 406.75 342.6 408.39 337.84 411.99 334.73 415.48"/><polygon points="351.73 415.96 346.58 420.43 344.15 424.7 344.35 430.52 347.36 434.79 351.34 438.09 355.71 438.77 360.37 438.09 364.84 434.4 367.07 430.71 367.17 425.08 364.45 420.91 361.15 417.32 356.78 416.16 351.73 415.96"/><polygon class="cls-6" points="389.85 458.53 365.82 472.75 339.63 489.8 313.85 505.65 292.03 516.75 261.48 519.92 230.94 519.12 199.57 516.59 213.02 528.2 213.25 532.3 201.4 542.09 223.4 541.32 260.69 540.52 301.55 539.73 324.16 539.73 340.03 540.13 348.83 536.62 344.05 532.75 342.23 529.79 348.83 522.51 361.37 512.95 374.13 500.2 381.65 487.68 387.8 474.01 389.85 458.53"/><polygon class="cls-7" points="213.02 528.2 226.05 526.92 252.72 525.58 279.98 525.73 299.01 524.08 316.08 521.09 327.92 519.59 346.19 520.79 350.09 521.69 342.23 529.79 344.05 532.75 348.83 536.62 335.41 538.3 296.91 539.2 271.14 537.4 245.98 536.35 224.85 536.8 210.17 535.01 213.25 532.3 213.02 528.2"/><polygon class="cls-8" points="192.92 406.94 203.73 394.34 221.28 379.8 236.69 369.1 252.96 359.27 261.95 343.87 264.52 323.77 270.94 295.12 276.08 270.31 280.36 246.79 287.72 223.97 292.17 224.83 288.06 251.92 284.21 274.59 279.5 303.67 277.79 331.04 282.93 351.57 294.48 366.11 306.47 382.79 314.18 405.88 309.9 422.56 294.48 430.26 263.66 431.12 234.98 427.27 222.74 423.82 220.21 415.96 214.97 409.95 207.49 406.26 201.37 406.36 192.92 406.94"/><polygon class="cls-6" points="165.84 611.98 159.37 621.32 158.78 617.44 154.58 617.33 159.63 612.54 162.56 610.41 159.37 608.28 156.17 610.14 153.31 611.29 153.08 608.33 148.75 607.65 144.65 607.88 142.15 606.28 141.69 604.01 145.79 602.64 154.45 602.19 163.1 604.29 166.82 603.23 170.02 597.11 176.15 585.67 184.93 575.29 195.85 561.46 204.37 554.28 208.63 554.28 211.56 557.74 209.7 568.91 205.17 578.22 196.61 588.98 199.57 580.79 194.33 582.84 188.18 588.75 180.43 596.27 172.45 603.78 165.84 611.98"/><polygon class="cls-7" points="194.33 582.84 195.33 576.34 201.3 568.44 205.51 561.6 206.92 558.09 209.38 560.19 208.15 567.56 204.99 574.76 203.06 581.08 199.57 583.75 199.57 580.79 194.33 582.84"/><polygon class="cls-6" points="359.54 587.84 355.36 584.8 351.14 578.97 348.73 566.51 347.52 556.67 351.74 555.06 357.98 557.47 366.22 567.92 373.46 575.55 380.5 583.99 385.13 593.43 389.55 601.47 392.17 604.08 401.62 603.88 403.52 602.64 411.96 603.33 414.24 605.6 411.73 607.65 407.85 607.65 404.44 609.02 403.75 611.98 396.19 607.9 396.19 611.92 399.4 616.14 399.65 617.44 397.6 617.67 394.38 614.73 390.08 610.38 386.43 606.97 380.28 599.46 370.94 590.8 360.45 580.56 357.26 580.33 356.58 582.38 359.54 587.84"/><polygon class="cls-9" points="349.13 562.9 348.73 566.51 349.93 571.54 351.94 576.36 355.36 584.8 356.58 582.38 357.26 580.33 360.45 580.56 367.23 587.21 363.41 581.58 357.58 572.74 352.15 565.31 349.13 562.9"/><polygon class="cls-8" points="208.06 540.88 191.56 553.25 179.18 568.5 165.39 587.16 162.88 599.46 163.1 604.29 170.02 597.11 176.15 585.67 184.93 575.29 195.85 561.46 204.37 554.28 210.95 547.48 212.6 541.71 208.06 540.88"/><polygon class="cls-8" points="223.4 541.32 260.69 540.52 273.26 543.36 286.46 554.49 287.29 576.75 277.8 598.59 256.34 611.78 236.12 608.49 220.03 595.29 216.73 580.04 220.44 563.97 222.09 552.42 223.4 541.32"/><polygon class="cls-6" points="362.51 607.65 339.28 621.26 297.61 638.17 261.29 642.7 221.27 648.06 196.84 635.2 202.53 650.91 208.69 662.97 217.8 675.95 227.15 695.07 235.58 703.72 238.54 708.73 246.97 711.92 246.51 694.62 249.48 690.06 254.95 685.28 270.67 685.28 286.62 684.83 300.07 684.83 305.54 685.28 309.64 689.38 311.69 696.21 310.32 702.81 316.93 707.59 323.99 701.22 331.97 690.75 338.12 680.27 342.23 671.62 347.24 662.74 355.44 650.22 359.32 636.56 361.37 624.04 362.51 607.65"/><path class="cls-5" d="M413.75,672a16.65,16.65,0,0,1,6.37,1.09A11.93,11.93,0,0,1,424.4,676a11.05,11.05,0,0,1,2.4,4.08,15.2,15.2,0,0,1,0,9.47,11,11,0,0,1-2.4,4.1,11.93,11.93,0,0,1-4.28,2.88,16.65,16.65,0,0,1-6.37,1.09h-9.23v14.3h-8.78V672Zm-2.41,18.77a18.08,18.08,0,0,0,2.91-.22,6.75,6.75,0,0,0,2.46-.86,4.76,4.76,0,0,0,1.71-1.82,7.65,7.65,0,0,0,0-6.14,4.73,4.73,0,0,0-1.71-1.82,6.8,6.8,0,0,0-2.46-.87,18.4,18.4,0,0,0-2.91-.22h-6.82v12Z"/><path class="cls-5" d="M441.82,672v39.89H433V672Z"/><path class="cls-5" d="M458.31,672v16.53L473.91,672h11l-15.6,15.75,17.11,24.13h-11l-12-17.93-5,5.08v12.85h-8.78V672Z"/><path class="cls-5" d="M502.26,672l9.34,27.43h.11L520.55,672h12.36v39.89h-8.22V683.65h-.11l-9.78,28.27H508l-9.78-28h-.11v28h-8.22V672Z"/><path class="cls-5" d="M549.4,672v39.89h-8.78V672Z"/><path class="cls-5" d="M565.84,672l16.66,26.76h.11V672h8.22v39.89h-8.78l-16.61-26.7h-.11v26.7h-8.22V672Z"/><path class="cls-5" d="M613.09,681.61a14.5,14.5,0,0,1,2.68-5,12.14,12.14,0,0,1,4.5-3.35,15.27,15.27,0,0,1,6.23-1.2,15.64,15.64,0,0,1,5.12.84,13.23,13.23,0,0,1,4.28,2.4,11.43,11.43,0,0,1,2.94,3.85,11.83,11.83,0,0,1,1.09,5.14,12.4,12.4,0,0,1-.95,5.08,13.38,13.38,0,0,1-2.52,3.77,21.33,21.33,0,0,1-3.55,3q-2,1.34-4,2.65T625,701.59a17.66,17.66,0,0,0-3.35,3.52h18.51v6.82H611.41a16.26,16.26,0,0,1,1-5.92,15.78,15.78,0,0,1,2.66-4.5,23.21,23.21,0,0,1,3.94-3.66q2.27-1.68,4.78-3.41,1.28-.89,2.74-1.82a18.2,18.2,0,0,0,2.66-2,10.81,10.81,0,0,0,2-2.51,6.24,6.24,0,0,0,.81-3.18,5.88,5.88,0,0,0-1.65-4.44,5.82,5.82,0,0,0-4.22-1.59,5.14,5.14,0,0,0-2.94.81,6.06,6.06,0,0,0-1.93,2.12,9.79,9.79,0,0,0-1,2.9,16.45,16.45,0,0,0-.31,3.16h-7.6A18.75,18.75,0,0,1,613.09,681.61Z"/></g></g></svg>