<svg xmlns="http://www.w3.org/2000/svg" viewBox="0 0 747.64 747.64"><defs><style>.cls-1{fill:#fff;}.cls-2{fill:#777c77;}.cls-3{fill:#c6cdc7;}.cls-4{fill:#443f35;}.cls-5{fill:#a3b476;}.cls-6{fill:#71535c;}.cls-7{fill:#c77851;}.cls-8{fill:#809ead;}.cls-9{fill:#4d4d62;}.cls-10{fill:#abadb0;}.cls-11{fill:#c26558;}.cls-12{fill:#b8bdb4;}.cls-13{fill:#7895a4;}.cls-14{fill:#808285;}.cls-15{fill:#545556;}.cls-16{fill:#a55d3d;}</style></defs><title>pixel_city</title><g id="Layer_2" data-name="Layer 2"><g id="Layer_1-2" data-name="Layer 1"><rect class="cls-1" width="747.64" height="747.64"/><rect class="cls-2" x="18.64" y="468.26" width="72" height="261.38"/><rect class="cls-3" x="72.64" y="477.64" width="9" height="54"/><rect class="cls-3" x="27.64" y="522.64" width="45" height="9"/><rect class="cls-3" x="54.64" y="477.64" width="9" height="36"/><rect class="cls-3" x="27.64" y="504.64" width="27" height="9"/><rect class="cls-3" x="36.64" y="477.64" width="9" height="18"/><rect class="cls-3" x="27.64" y="486.64" width="9" height="9"/><rect class="cls-3" x="27.64" y="540.64" width="9" height="54"/><rect class="cls-3" x="36.64" y="585.64" width="45" height="9"/><rect class="cls-3" x="45.64" y="540.64" width="9" height="36"/><rect class="cls-3" x="54.64" y="567.64" width="27" height="9"/><rect class="cls-3" x="63.64" y="540.64" width="9" height="18"/><rect class="cls-3" x="72.64" y="549.64" width="9" height="9"/><rect class="cls-3" x="27.64" y="603.64" width="54" height="9"/><rect class="cls-3" x="27.64" y="612.64" width="9" height="45"/><rect class="cls-3" x="45.64" y="621.64" width="36" height="9"/><rect class="cls-3" x="45.64" y="630.64" width="9" height="27"/><rect class="cls-3" x="63.64" y="639.64" width="18" height="9"/><rect class="cls-3" x="63.64" y="648.64" width="9" height="9"/><rect class="cls-3" x="27.64" y="666.64" width="54" height="9"/><rect class="cls-3" x="72.64" y="675.64" width="9" height="45"/><rect class="cls-3" x="27.64" y="684.64" width="36" height="9"/><rect class="cls-3" x="54.64" y="693.64" width="9" height="27"/><rect class="cls-3" x="27.64" y="702.64" width="18" height="9"/><rect class="cls-3" x="36.64" y="711.64" width="9" height="9"/><rect class="cls-4" x="162.21" y="441.64" width="63.43" height="288"/><rect class="cls-5" x="171.64" y="450.64" width="9" height="9"/><rect class="cls-5" x="171.64" y="468.64" width="9" height="9"/><rect class="cls-5" x="171.64" y="486.64" width="9" height="9"/><rect class="cls-5" x="171.64" y="525.64" width="9" height="9"/><rect class="cls-5" x="171.64" y="543.64" width="9" height="9"/><rect class="cls-5" x="171.64" y="561.64" width="9" height="9"/><rect class="cls-5" x="171.64" y="600.64" width="9" height="9"/><rect class="cls-5" x="171.64" y="618.64" width="9" height="9"/><rect class="cls-5" x="171.64" y="636.64" width="9" height="9"/><rect class="cls-5" x="171.64" y="675.64" width="9" height="9"/><rect class="cls-5" x="171.64" y="693.64" width="9" height="9"/><rect class="cls-5" x="171.64" y="711.64" width="9" height="9"/><rect class="cls-5" x="189.64" y="450.64" width="9" height="9"/><rect class="cls-5" x="189.64" y="468.64" width="9" height="9"/><rect class="cls-5" x="189.64" y="486.64" width="9" height="9"/><rect class="cls-5" x="189.64" y="525.64" width="9" height="9"/><rect class="cls-5" x="189.64" y="543.64" width="9" height="9"/><rect class="cls-5" x="189.64" y="561.64" width="9" height="9"/><rect class="cls-5" x="189.64" y="600.64" width="9" height="9"/><rect class="cls-5" x="189.64" y="618.64" width="9" height="9"/><rect class="cls-5" x="189.64" y="636.64" width="9" height="9"/><rect class="cls-5" x="189.64" y="675.64" width="9" height="9"/><rect class="cls-5" x="189.64" y="693.64" width="9" height="9"/><rect class="cls-5" x="189.64" y="711.64" width="9" height="9"/><rect class="cls-5" x="207.64" y="450.64" width="9" height="9"/><rect class="cls-5" x="207.64" y="468.64" width="9" height="9"/><rect class="cls-5" x="207.64" y="486.64" width="9" height="9"/><rect class="cls-5" x="207.64" y="525.64" width="9" height="9"/><rect class="cls-5" x="207.64" y="543.64" width="9" height="9"/><rect class="cls-5" x="207.64" y="561.64" width="9" height="9"/><rect class="cls-5" x="207.64" y="600.64" width="9" height="9"/><rect class="cls-5" x="207.64" y="618.64" width="9" height="9"/><rect class="cls-5" x="207.64" y="636.64" width="9" height="9"/><rect class="cls-5" x="207.64" y="675.64" width="9" height="9"/><rect class="cls-5" x="207.64" y="693.64" width="9" height="9"/><rect class="cls-5" x="207.64" y="711.64" width="9" height="9"/><rect class="cls-6" x="99.64" y="459.64" width="54" height="270"/><rect class="cls-7" x="108.64" y="486.64" width="36" height="9"/><rect class="cls-7" x="108.64" y="504.64" width="36" height="9"/><rect class="cls-7" x="108.64" y="468.64" width="36" height="9"/><rect class="cls-7" x="126.64" y="522.64" width="9" height="45"/><rect class="cls-7" x="117.64" y="567.64" width="9" height="45"/><rect class="cls-7" x="108.64" y="621.64" width="36" height="9"/><rect class="cls-7" x="108.64" y="639.64" width="36" height="9"/><rect class="cls-7" x="108.64" y="657.64" width="36" height="9"/><rect class="cls-7" x="126.64" y="675.64" width="9" height="45"/><rect class="cls-8" x="270.95" y="450.64" width="62.9" height="279"/><rect class="cls-9" x="279.95" y="459.64" width="9" height="45"/><rect class="cls-9" x="288.95" y="459.64" width="36" height="9"/><rect class="cls-9" x="315.95" y="468.64" width="9" height="36"/><rect class="cls-9" x="288.95" y="495.64" width="27" height="9"/><rect class="cls-9" x="288.95" y="522.64" width="9" height="18"/><rect class="cls-9" x="297.95" y="522.64" width="9" height="18"/><rect class="cls-9" x="306.95" y="522.64" width="9" height="18"/><rect class="cls-9" x="288.95" y="540.64" width="27" height="9"/><rect class="cls-9" x="279.95" y="567.64" width="45" height="9"/><rect class="cls-9" x="315.95" y="576.64" width="9" height="36"/><rect class="cls-9" x="279.95" y="576.64" width="9" height="36"/><rect class="cls-9" x="288.95" y="603.64" width="27" height="9"/><rect class="cls-9" x="288.95" y="630.64" width="27" height="27"/><rect class="cls-9" x="279.95" y="675.64" width="45" height="9"/><rect class="cls-9" x="315.95" y="684.64" width="9" height="36"/><rect class="cls-9" x="279.95" y="711.64" width="36" height="9"/><rect class="cls-9" x="279.95" y="684.64" width="9" height="27"/><rect class="cls-10" x="234.64" y="360.64" width="27" height="369"/><rect class="cls-11" x="243.64" y="369.64" width="9" height="9"/><rect class="cls-11" x="243.64" y="387.64" width="9" height="9"/><rect class="cls-11" x="243.64" y="405.64" width="9" height="18"/><rect class="cls-11" x="243.64" y="432.64" width="9" height="27"/><rect class="cls-11" x="243.64" y="468.64" width="9" height="45"/><rect class="cls-11" x="243.64" y="522.64" width="9" height="72"/><rect class="cls-11" x="243.64" y="603.64" width="9" height="45"/><rect class="cls-11" x="243.64" y="648.64" width="9" height="72"/><rect class="cls-3" x="54.64" y="297.64" width="108" height="27"/><rect class="cls-12" x="90.64" y="279.64" width="18" height="18"/><rect class="cls-12" x="45.64" y="288.64" width="9" height="27"/><rect class="cls-12" x="90.64" y="315.64" width="18" height="27"/><rect class="cls-12" x="36.64" y="288.64" width="9" height="9"/><rect class="cls-13" x="153.64" y="306.64" width="9" height="9"/><rect class="cls-12" x="81.64" y="279.64" width="9" height="9"/><rect class="cls-12" x="81.64" y="333.64" width="9" height="9"/><rect class="cls-7" x="612.64" y="666.64" width="72" height="18"/><rect class="cls-7" x="612.64" y="657.64" width="63" height="9"/><rect class="cls-14" x="342.64" y="657.64" width="81" height="27"/><rect class="cls-15" x="351.64" y="666.64" width="9" height="9"/><rect class="cls-15" x="369.64" y="666.64" width="9" height="9"/><rect class="cls-15" x="387.64" y="666.64" width="9" height="9"/><rect class="cls-15" x="405.64" y="666.64" width="9" height="9"/><rect class="cls-14" x="432.64" y="657.64" width="81" height="27"/><rect class="cls-15" x="441.64" y="666.64" width="9" height="9"/><rect class="cls-15" x="459.64" y="666.64" width="9" height="9"/><rect class="cls-15" x="477.64" y="666.64" width="9" height="9"/><rect class="cls-15" x="495.64" y="666.64" width="9" height="9"/><rect class="cls-14" x="522.64" y="657.64" width="81" height="27"/><rect class="cls-15" x="531.64" y="666.64" width="9" height="9"/><rect class="cls-15" x="549.64" y="666.64" width="9" height="9"/><rect class="cls-15" x="567.64" y="666.64" width="9" height="9"/><rect class="cls-15" x="585.64" y="666.64" width="9" height="9"/><rect class="cls-16" x="639.64" y="666.64" width="9" height="9"/><rect class="cls-16" x="657.64" y="666.64" width="9" height="9"/><rect class="cls-12" x="612.64" y="630.64" width="36" height="9"/><rect class="cls-12" x="630.64" y="621.64" width="18" height="9"/><rect class="cls-12" x="612.64" y="639.64" width="18" height="9"/><rect class="cls-12" x="576.64" y="621.64" width="27" height="18"/><rect class="cls-12" x="567.64" y="612.64" width="9" height="18"/><rect class="cls-12" x="540.64" y="612.64" width="18" height="18"/><rect class="cls-12" x="513.64" y="621.64" width="27" height="9"/><rect class="cls-12" x="486.64" y="621.64" width="18" height="9"/><rect class="cls-12" x="477.64" y="612.64" width="18" height="9"/><rect class="cls-12" x="468.64" y="612.64" width="9" height="18"/><rect class="cls-12" x="459.64" y="612.64" width="9" height="18"/><rect class="cls-10" x="369.64" y="279.64" width="9" height="63"/><rect class="cls-10" x="378.64" y="279.64" width="18" height="9"/><rect class="cls-10" x="387.64" y="288.64" width="9" height="18"/><rect class="cls-10" x="378.64" y="306.64" width="9" height="9"/><rect class="cls-10" x="405.64" y="279.64" width="9" height="63"/><rect class="cls-10" x="423.64" y="279.64" width="9" height="18"/><rect class="cls-10" x="432.64" y="297.64" width="9" height="9"/><rect class="cls-10" x="441.64" y="306.64" width="9" height="36"/><rect class="cls-10" x="441.64" y="279.64" width="9" height="18"/><rect class="cls-10" x="423.64" y="306.64" width="9" height="36"/><rect class="cls-10" x="459.64" y="279.64" width="9" height="63"/><rect class="cls-10" x="468.64" y="279.64" width="18" height="9"/><rect class="cls-10" x="468.64" y="297.64" width="18" height="9"/><rect class="cls-10" x="468.64" y="333.64" width="18" height="9"/><rect class="cls-10" x="495.64" y="279.64" width="9" height="63"/><rect class="cls-10" x="504.64" y="333.64" width="18" height="9"/><rect class="cls-10" x="549.64" y="288.64" width="9" height="54"/><rect class="cls-10" x="558.64" y="279.64" width="18" height="9"/><rect class="cls-10" x="558.64" y="333.64" width="18" height="9"/><rect class="cls-10" x="585.64" y="279.64" width="9" height="63"/><rect class="cls-10" x="603.64" y="279.64" width="27" height="9"/><rect class="cls-10" x="612.64" y="288.64" width="9" height="54"/><rect class="cls-10" x="639.64" y="279.64" width="9" height="9"/><rect class="cls-10" x="657.64" y="279.64" width="9" height="18"/><rect class="cls-10" x="657.64" y="306.64" width="9" height="27"/><rect class="cls-10" x="639.64" y="333.64" width="18" height="9"/><rect class="cls-10" x="648.64" y="297.64" width="18" height="9"/><rect class="cls-10" x="639.64" y="288.64" width="9" height="9"/></g></g></svg>