<svg xmlns="http://www.w3.org/2000/svg" viewBox="0 0 257.02 257.02"><defs><style>.cls-1{fill:#fff;}.cls-2{fill:none;}.cls-3{fill:#1c3664;}.cls-4{fill:#f79433;}.cls-5{fill:#ababab;}</style></defs><title>savvy_square</title><g id="Layer_2" data-name="Layer 2"><g id="Layer_1-2" data-name="Layer 1"><rect class="cls-1" width="257.02" height="257.02"/><path class="cls-2" d="M165.28,84l2.38-1.69-1-2.36-2.89.49a15.72,15.72,0,0,0-1.26-1.89l1.56-2.48-1.81-1.81-2.48,1.56a15.72,15.72,0,0,0-1.89-1.26l.49-2.89-2.36-1-1.69,2.38a15.55,15.55,0,0,0-2.23-.44l-.65-2.85h-2.56l-.65,2.85a15.54,15.54,0,0,0-2.23.44l-1.69-2.38-2.36,1,.49,2.89a15.71,15.71,0,0,0-1.89,1.26l-2.48-1.56-1.81,1.81,1.56,2.48a15.71,15.71,0,0,0-1.26,1.89L133.68,80l-1,2.36L135.09,84a15.55,15.55,0,0,0-.44,2.23l-2.85.65v2.56l2.85.65a15.54,15.54,0,0,0,.44,2.23L132.71,94l1,2.36,2.89-.49a15.72,15.72,0,0,0,1.26,1.89l-1.56,2.48,1.81,1.81,2.48-1.56a15.71,15.71,0,0,0,1.89,1.26l-.49,2.89,2.36,1,1.69-2.38a15.55,15.55,0,0,0,2.23.44l.65,2.85h2.56l.65-2.85a15.55,15.55,0,0,0,2.23-.44l1.69,2.38,2.36-1-.49-2.89a15.72,15.72,0,0,0,1.89-1.26l2.48,1.56,1.81-1.81-1.56-2.48a15.72,15.72,0,0,0,1.26-1.89l2.89.49,1-2.36-2.38-1.69a15.55,15.55,0,0,0,.44-2.23l2.85-.65V86.91l-2.85-.65A15.55,15.55,0,0,0,165.28,84Zm-15.1,18A13.83,13.83,0,1,1,164,88.19,13.85,13.85,0,0,1,150.18,102Z"/><path class="cls-2" d="M122,84l2.38-1.69-1-2.36-2.89.49a15.71,15.71,0,0,0-1.26-1.89l1.56-2.48L119,74.28l-2.48,1.56a15.71,15.71,0,0,0-1.89-1.26l.49-2.89-2.36-1-1.69,2.38a15.56,15.56,0,0,0-2.23-.44l-.65-2.85h-2.56L105,72.65a15.55,15.55,0,0,0-2.23.44l-1.69-2.38-2.36,1,.49,2.89a15.71,15.71,0,0,0-1.89,1.26l-2.48-1.56L93,76.09l1.56,2.48a15.72,15.72,0,0,0-1.26,1.89L90.43,80l-1,2.36L91.83,84a15.54,15.54,0,0,0-.44,2.23l-2.85.65v2.56l2.85.65a15.56,15.56,0,0,0,.44,2.23L89.45,94l1,2.36,2.89-.49a15.72,15.72,0,0,0,1.26,1.89L93,100.29l1.81,1.81,2.48-1.56a15.72,15.72,0,0,0,1.89,1.26l-.49,2.89,2.36,1,1.69-2.38a15.54,15.54,0,0,0,2.23.44l.65,2.85h2.56l.65-2.85a15.54,15.54,0,0,0,2.23-.44l1.69,2.38,2.36-1-.49-2.89a15.71,15.71,0,0,0,1.89-1.26l2.48,1.56,1.81-1.81-1.56-2.48a15.72,15.72,0,0,0,1.26-1.89l2.89.49,1-2.36L122,92.35a15.54,15.54,0,0,0,.44-2.23l2.85-.65V86.91l-2.85-.65A15.54,15.54,0,0,0,122,84Zm-15.1,18a13.83,13.83,0,1,1,13.83-13.83A13.85,13.85,0,0,1,106.93,102Z"/><path d="M107.32,119.34l0,.2h0Z"/><path d="M122.91,181.11q.54.17,1.1.3c-.37-.09-.73-.19-1.09-.3Z"/><path d="M132.95,181.39c.44-.1.87-.22,1.29-.36h0C133.82,181.17,133.38,181.29,132.95,181.39Z"/><path d="M149.7,119.9v0Z"/><path d="M149.72,120v-.08h0Z"/><path class="cls-3" d="M152.51,118.39c.51,2.43,1.06,5.57,1.67,9.63l.1.64c1.6,10.06,2.73,21.92-1,33.55a52.28,52.28,0,0,1-2.23,5.81,64.7,64.7,0,0,0,8.88-3,26.81,26.81,0,0,0,9.15-9.9c4.78-8.66,4.89-20,1.21-29.14C167.16,118.18,159.79,117.43,152.51,118.39Z"/><path d="M107.28,119.54v0Z"/><path class="cls-3" d="M103.62,162.22c-3.71-11.63-2.58-23.49-1-33.55l.1-.66c.61-4.06,1.16-7.2,1.67-9.63-7.25-.94-14.57-.17-17.71,7.59-3.68,9.12-3.57,20.47,1.21,29.14a26.81,26.81,0,0,0,9.15,9.9,64.53,64.53,0,0,0,8.78,3A52.32,52.32,0,0,1,103.62,162.22Z"/><path d="M122.76,181.06l.15.05h0Z"/><path class="cls-3" d="M111.11,176.53c-2.39,1.62-5.73,4.19-7.49,6.83-2.92,4.41-2.38,11.13-1.93,12.3,0,0,1.92-4.4,4.67-6.18,0,0-.43,6.24.69,8.11,0,0,1.45-5.35,3.57-6.46,0,0-1.51,7.05.41,9.76,0,0,.12-4.11,6.28-9.48,1.91-1.67,3.42-4.42,4.59-7.42a20.29,20.29,0,0,1-2-.76A23.9,23.9,0,0,1,111.11,176.53Z"/><path class="cls-3" d="M145.89,176.41a24,24,0,0,1-8.84,6.82q-.89.39-1.81.68c1.17,3,2.69,5.81,4.61,7.49,6.17,5.38,6.28,9.48,6.28,9.48,1.92-2.7.41-9.76.41-9.76,2.12,1.11,3.57,6.46,3.57,6.46,1.12-1.87.69-8.11.69-8.11,2.75,1.78,4.67,6.18,4.67,6.18.45-1.18,1-7.89-1.93-12.3C151.75,180.65,148.29,178,145.89,176.41Z"/><path class="cls-4" d="M106.93,74.35a13.83,13.83,0,1,0,13.83,13.83A13.85,13.85,0,0,0,106.93,74.35Zm0,22.38a8.54,8.54,0,1,1,8.54-8.54A8.54,8.54,0,0,1,106.93,96.73Z"/><path d="M134.24,181h0Z"/><path d="M149.09,117.06c.14.59.29,1.26.45,2C149.38,118.33,149.23,117.65,149.09,117.06Z"/><path d="M148.77,115.75h0l0,.16Z"/><path d="M111.57,172.07l-.25-.38Z"/><path d="M112.6,173.5l-.22-.29Z"/><path d="M108.14,115.75v0Z"/><path d="M148.2,166.92q-.31.66-.64,1.32Q147.9,167.59,148.2,166.92Z"/><path d="M147.35,168.66c-.25.48-.51,1-.79,1.44C146.84,169.62,147.1,169.14,147.35,168.66Z"/><path d="M149.09,164.88c-.22.55-.46,1.1-.71,1.65C148.63,166,148.87,165.43,149.09,164.88Z"/><path d="M144.45,173.33l-.06.08Z"/><path d="M109.5,168.55c-.63-1.22-1.19-2.45-1.68-3.67C108.31,166.1,108.87,167.33,109.5,168.55Z"/><path d="M112.38,173.21q-.42-.56-.81-1.14Q112,172.65,112.38,173.21Z"/><path d="M112.6,173.5c.36.47.72.93,1.11,1.38h0C113.32,174.43,113,174,112.6,173.5Z"/><path d="M111.32,171.69c-.31-.48-.62-1-.9-1.46C110.7,170.72,111,171.21,111.32,171.69Z"/><path d="M147.35,168.66l.07-.12h0Z"/><path d="M145.54,171.78q-.52.79-1.09,1.55Q145,172.57,145.54,171.78Z"/><path d="M143.29,174.78c.38-.44.74-.9,1.1-1.37q-.53.7-1.1,1.37Z"/><path d="M148.38,166.53l-.18.39Z"/><path d="M147.42,168.54l.14-.29-.15.29Z"/><path d="M113.71,174.88c.42.49.87,1,1.33,1.41q-.69-.68-1.33-1.41Z"/><path class="cls-5" d="M151.27,129.14h0l-.1-.67-.2-1.29-.05-.34-.14-.88-.06-.4-.12-.74-.07-.4-.12-.68-.06-.35-.12-.69,0-.28-.12-.69,0-.22-.13-.7,0-.16-.13-.69v-.11l-.15-.76h0c-.16-.77-.31-1.44-.45-2v0l-.12-.5,0-.1-.1-.39,0-.12,0-.16a60.11,60.11,0,0,1-11.3-1.57L128.57,124l-9-9.86a60,60,0,0,1-11.44,1.58v0l-.06.21-.06.25-.06.22-.07.28-.06.25-.07.31-.06.25-.08.35-.06.27-.09.4-.06.28-.1.47,0,.21v0l-.15.77v0l-.17.88,0,.24-.13.69-.06.33-.12.68-.07.39-.11.67-.07.44-.12.73-.07.44-.13.84-.07.41-.2,1.31-.1.68c-1.54,9.71-2.64,21.12.88,32.15.17.52.35,1.06.54,1.61l.12.33c.19.51.38,1,.59,1.55l0,.11c.49,1.21,1,2.44,1.68,3.67h0q.42.81.88,1.61l0,.07c.29.49.59,1,.9,1.46l.25.38q.39.58.81,1.14l.22.29c.36.47.73.93,1.11,1.37s.87,1,1.33,1.41l.36.35.57.52.55.46.49.4q.52.4,1.06.76l.39.25q.43.28.88.53l.4.22c.43.23.86.45,1.31.64s.84.33,1.26.48l.42.14.15,0c.36.11.73.22,1.09.3l.42.09c.34.07.68.13,1,.18l.45.06c.47.06.94.1,1.42.12.28,0,.54,0,.76,0h.76c.22,0,.49,0,.76,0,.49,0,1-.07,1.44-.13l.44-.06q.51-.08,1-.18l.45-.1c.44-.1.87-.22,1.29-.36h0c.53-.17,1.06-.37,1.57-.59s.89-.42,1.32-.64l.39-.22q.46-.26.9-.54l.39-.25q.56-.38,1.1-.79l.37-.31.69-.58.49-.45.51-.5.5-.5q.39-.41.76-.84l0,0q.57-.67,1.1-1.37l.06-.08q.57-.76,1.09-1.55l0-.07q.48-.74.92-1.5l.06-.11c.27-.48.54-1,.79-1.44l.06-.13.15-.29q.33-.66.64-1.32l.18-.39c.25-.55.49-1.1.71-1.65l0-.12c.21-.52.4-1,.59-1.54l.12-.33c.19-.54.38-1.08.54-1.61C153.91,150.26,152.81,138.85,151.27,129.14Z"/><path d="M143.26,174.82l0,0h0Z"/><circle cx="106.93" cy="88.19" r="8.54"/><path class="cls-3" d="M171,70.8l.65-.74c3.59-4.1,6.34-8.7,6.64-10.85-4.27,1.08-16.61,3.66-27.76.66-13.2-3.56-18.86-3.84-22-3.74h-.1c-3.1-.1-8.77.18-22,3.74-11.15,3-23.48.43-27.76-.66.29,2.15,3,6.74,6.64,10.85l.65.74-.4.89c-8.2,18.18-1.75,28.1,1.41,31.52l2.12,2.37h0a21,21,0,0,0,15.78,7.16h.69A54.32,54.32,0,0,0,119.73,111l.88-.22,2.21,2.43,5.74,6.29,5.68-6.29,2.19-2.43.89.22a54.36,54.36,0,0,0,14.16,1.72h.72a20.52,20.52,0,0,0,15.45-7l2.35-2.56c3.16-3.42,9.61-13.34,1.41-31.52Zm-50.16,29.48L119,102.09l-2.48-1.56a15.71,15.71,0,0,1-1.89,1.26l.49,2.89-2.36,1-1.69-2.38a15.54,15.54,0,0,1-2.23.44l-.65,2.85h-2.56l-.65-2.85a15.54,15.54,0,0,1-2.23-.44l-1.69,2.38-2.36-1,.49-2.89a15.72,15.72,0,0,1-1.89-1.26l-2.48,1.56L93,100.29l1.56-2.48a15.72,15.72,0,0,1-1.26-1.89l-2.89.49-1-2.36,2.38-1.69a15.56,15.56,0,0,1-.44-2.23l-2.85-.65V86.91l2.85-.65A15.54,15.54,0,0,1,91.83,84l-2.38-1.69,1-2.36,2.89.49a15.72,15.72,0,0,1,1.26-1.89L93,76.09l1.81-1.81,2.48,1.56a15.71,15.71,0,0,1,1.89-1.26l-.49-2.89,2.36-1,1.69,2.38a15.55,15.55,0,0,1,2.23-.44l.65-2.85h2.56l.65,2.85a15.56,15.56,0,0,1,2.23.44l1.69-2.38,2.36,1-.49,2.89a15.71,15.71,0,0,1,1.89,1.26L119,74.28l1.81,1.81-1.56,2.48a15.71,15.71,0,0,1,1.26,1.89l2.89-.49,1,2.36L122,84a15.54,15.54,0,0,1,.44,2.23l2.85.65v2.56l-2.85.65a15.54,15.54,0,0,1-.44,2.23L124.41,94l-1,2.36-2.89-.49a15.72,15.72,0,0,1-1.26,1.89Zm47.74-10.82-2.85.65a15.55,15.55,0,0,1-.44,2.23L167.66,94l-1,2.36-2.89-.49a15.72,15.72,0,0,1-1.26,1.89l1.56,2.48-1.81,1.81-2.48-1.56a15.72,15.72,0,0,1-1.89,1.26l.49,2.89-2.36,1-1.69-2.38a15.55,15.55,0,0,1-2.23.44l-.65,2.85h-2.56l-.65-2.85a15.55,15.55,0,0,1-2.23-.44l-1.69,2.38-2.36-1,.49-2.89a15.71,15.71,0,0,1-1.89-1.26l-2.48,1.56-1.81-1.81,1.56-2.48a15.72,15.72,0,0,1-1.26-1.89l-2.89.49-1-2.36,2.38-1.69a15.54,15.54,0,0,1-.44-2.23l-2.85-.65V86.91l2.85-.65a15.55,15.55,0,0,1,.44-2.23l-2.38-1.69,1-2.36,2.89.49a15.71,15.71,0,0,1,1.26-1.89l-1.56-2.48,1.81-1.81,2.48,1.56a15.71,15.71,0,0,1,1.89-1.26L142,71.69l2.36-1L146,73.09a15.54,15.54,0,0,1,2.23-.44l.65-2.85h2.56l.65,2.85a15.55,15.55,0,0,1,2.23.44L156,70.71l2.36,1-.49,2.89a15.72,15.72,0,0,1,1.89,1.26l2.48-1.56,1.81,1.81-1.56,2.48a15.72,15.72,0,0,1,1.26,1.89l2.89-.49,1,2.36L165.28,84a15.55,15.55,0,0,1,.44,2.23l2.85.65Z"/><path class="cls-4" d="M150.18,74.35A13.83,13.83,0,1,0,164,88.19,13.85,13.85,0,0,0,150.18,74.35Zm0,22.38a8.54,8.54,0,1,1,8.54-8.54A8.54,8.54,0,0,1,150.18,96.73Z"/><circle cx="150.18" cy="88.19" r="8.54"/></g></g></svg>