<svg xmlns="http://www.w3.org/2000/svg" viewBox="0 0 1080 1080"><defs><style>.cls-1{fill:#6e9ad1;}.cls-2,.cls-3{fill:#99c0e6;}.cls-3,.cls-4{stroke:#6e9ad1;stroke-miterlimit:10;stroke-width:6px;}.cls-4{fill:#c9ac68;}</style></defs><title>shine_square</title><g id="Layer_2" data-name="Layer 2"><g id="Layer_1-2" data-name="Layer 1"><rect class="cls-1" width="1080" height="1080"/><polygon class="cls-2" points="143.87 95.91 122.03 107.63 143.87 121.39 143.87 95.91"/><polygon class="cls-2" points="228.26 121.39 250.1 109.67 228.26 95.91 228.26 121.39"/><polygon class="cls-2" points="174.28 151.26 186 173.1 199.75 151.26 174.28 151.26"/><polygon class="cls-2" points="206.94 146.78 230.68 153.94 224.96 128.77 206.94 146.78"/><polygon class="cls-2" points="147.04 129.49 139.88 153.22 165.06 147.5 147.04 129.49"/><polygon class="cls-2" points="169.05 67.96 185.55 36.54 202.05 67.96 169.05 67.96"/><polygon class="cls-2" points="145.51 90.74 134.96 56.85 168.84 67.41 145.51 90.74"/><polygon class="cls-2" points="203.78 67.41 237.67 56.85 227.12 90.74 203.78 67.41"/><circle class="cls-3" cx="185.89" cy="108.65" r="43.9"/><circle class="cls-3" cx="185.89" cy="108.65" r="35.4"/><circle class="cls-3" cx="185.89" cy="35.52" r="11.25"/><circle class="cls-3" cx="134.95" cy="56.85" r="11.25"/><circle class="cls-3" cx="236.99" cy="56.85" r="11.25"/><ellipse class="cls-1" cx="175.91" cy="103.66" rx="6.18" ry="13.26"/><ellipse class="cls-1" cx="196.22" cy="103.66" rx="6.18" ry="13.26"/><polygon class="cls-2" points="143.87 311.64 122.03 323.36 143.87 337.11 143.87 311.64"/><polygon class="cls-2" points="228.26 337.11 250.1 325.39 228.26 311.64 228.26 337.11"/><polygon class="cls-2" points="174.28 366.98 186 388.82 199.75 366.98 174.28 366.98"/><polygon class="cls-2" points="206.94 362.5 230.68 369.67 224.96 344.49 206.94 362.5"/><polygon class="cls-2" points="147.04 345.21 139.88 368.94 165.06 363.23 147.04 345.21"/><polygon class="cls-2" points="169.05 283.69 185.55 252.27 202.05 283.69 169.05 283.69"/><polygon class="cls-2" points="145.51 306.46 134.96 272.58 168.84 283.13 145.51 306.46"/><polygon class="cls-2" points="203.78 283.13 237.67 272.58 227.12 306.46 203.78 283.13"/><circle class="cls-3" cx="185.89" cy="324.37" r="43.9"/><circle class="cls-3" cx="185.89" cy="324.37" r="35.4"/><circle class="cls-3" cx="185.89" cy="251.25" r="11.25"/><circle class="cls-3" cx="134.95" cy="272.58" r="11.25"/><circle class="cls-3" cx="236.99" cy="272.58" r="11.25"/><ellipse class="cls-1" cx="175.91" cy="319.39" rx="6.18" ry="13.26"/><ellipse class="cls-1" cx="196.22" cy="319.39" rx="6.18" ry="13.26"/><polygon class="cls-2" points="376.62 311.64 354.78 323.36 376.62 337.11 376.62 311.64"/><polygon class="cls-2" points="461.01 337.11 482.85 325.39 461.01 311.64 461.01 337.11"/><polygon class="cls-2" points="407.03 366.98 418.74 388.82 432.5 366.98 407.03 366.98"/><polygon class="cls-2" points="439.69 362.5 463.43 369.67 457.71 344.49 439.69 362.5"/><polygon class="cls-2" points="379.79 345.21 372.63 368.94 397.8 363.23 379.79 345.21"/><polygon class="cls-2" points="401.8 283.69 418.3 252.27 434.8 283.69 401.8 283.69"/><polygon class="cls-2" points="378.26 306.46 367.7 272.58 401.59 283.13 378.26 306.46"/><polygon class="cls-2" points="436.53 283.13 470.42 272.58 459.87 306.46 436.53 283.13"/><circle class="cls-3" cx="418.64" cy="324.37" r="43.9"/><circle class="cls-3" cx="418.64" cy="324.37" r="35.4"/><circle class="cls-3" cx="418.64" cy="251.25" r="11.25"/><circle class="cls-3" cx="367.7" cy="272.58" r="11.25"/><circle class="cls-3" cx="469.74" cy="272.58" r="11.25"/><ellipse class="cls-1" cx="408.66" cy="319.39" rx="6.18" ry="13.26"/><ellipse class="cls-1" cx="428.97" cy="319.39" rx="6.18" ry="13.26"/><polygon class="cls-2" points="377.14 95.91 355.29 107.63 377.14 121.39 377.14 95.91"/><polygon class="cls-2" points="461.52 121.39 483.37 109.67 461.52 95.91 461.52 121.39"/><polygon class="cls-2" points="407.54 151.26 419.26 173.1 433.02 151.26 407.54 151.26"/><polygon class="cls-2" points="440.21 146.78 463.94 153.94 458.22 128.77 440.21 146.78"/><polygon class="cls-2" points="380.31 129.49 373.15 153.22 398.32 147.5 380.31 129.49"/><polygon class="cls-2" points="402.32 67.96 418.81 36.54 435.31 67.96 402.32 67.96"/><polygon class="cls-2" points="378.77 90.74 368.22 56.85 402.11 67.41 378.77 90.74"/><polygon class="cls-2" points="437.05 67.41 470.93 56.85 460.38 90.74 437.05 67.41"/><circle class="cls-3" cx="419.15" cy="108.65" r="43.9"/><circle class="cls-3" cx="419.15" cy="108.65" r="35.4"/><circle class="cls-3" cx="419.15" cy="35.52" r="11.25"/><circle class="cls-3" cx="368.22" cy="56.85" r="11.25"/><circle class="cls-3" cx="470.25" cy="56.85" r="11.25"/><ellipse class="cls-1" cx="409.17" cy="103.66" rx="6.18" ry="13.26"/><ellipse class="cls-1" cx="429.49" cy="103.66" rx="6.18" ry="13.26"/><polygon class="cls-2" points="143.87 534.68 122.03 546.4 143.87 560.16 143.87 534.68"/><polygon class="cls-2" points="228.26 560.16 250.1 548.44 228.26 534.68 228.26 560.16"/><polygon class="cls-2" points="174.28 590.02 186 611.87 199.75 590.02 174.28 590.02"/><polygon class="cls-2" points="206.94 585.55 230.68 592.71 224.96 567.53 206.94 585.55"/><polygon class="cls-2" points="147.04 568.25 139.88 591.99 165.06 586.27 147.04 568.25"/><polygon class="cls-2" points="169.05 506.73 185.55 475.31 202.05 506.73 169.05 506.73"/><polygon class="cls-2" points="145.51 529.51 134.96 495.62 168.84 506.17 145.51 529.51"/><polygon class="cls-2" points="203.78 506.17 237.67 495.62 227.12 529.51 203.78 506.17"/><circle class="cls-3" cx="185.89" cy="547.42" r="43.9"/><circle class="cls-3" cx="185.89" cy="547.42" r="35.4"/><circle class="cls-3" cx="185.89" cy="474.29" r="11.25"/><circle class="cls-3" cx="134.95" cy="495.62" r="11.25"/><circle class="cls-3" cx="236.99" cy="495.62" r="11.25"/><ellipse class="cls-1" cx="175.91" cy="542.43" rx="6.18" ry="13.26"/><ellipse class="cls-1" cx="196.22" cy="542.43" rx="6.18" ry="13.26"/><polygon class="cls-2" points="143.87 750.4 122.03 762.12 143.87 775.88 143.87 750.4"/><polygon class="cls-2" points="228.26 775.88 250.1 764.16 228.26 750.4 228.26 775.88"/><polygon class="cls-2" points="174.28 805.75 186 827.59 199.75 805.75 174.28 805.75"/><polygon class="cls-2" points="206.94 801.27 230.68 808.43 224.96 783.26 206.94 801.27"/><polygon class="cls-2" points="147.04 783.98 139.88 807.71 165.06 801.99 147.04 783.98"/><polygon class="cls-2" points="169.05 722.45 185.55 691.03 202.05 722.45 169.05 722.45"/><polygon class="cls-2" points="145.51 745.23 134.96 711.34 168.84 721.89 145.51 745.23"/><polygon class="cls-2" points="203.78 721.89 237.67 711.34 227.12 745.23 203.78 721.89"/><circle class="cls-3" cx="185.89" cy="763.14" r="43.9"/><circle class="cls-3" cx="185.89" cy="763.14" r="35.4"/><circle class="cls-3" cx="185.89" cy="690.01" r="11.25"/><circle class="cls-3" cx="134.95" cy="711.34" r="11.25"/><circle class="cls-3" cx="236.99" cy="711.34" r="11.25"/><ellipse class="cls-1" cx="175.91" cy="758.15" rx="6.18" ry="13.26"/><ellipse class="cls-1" cx="196.22" cy="758.15" rx="6.18" ry="13.26"/><polygon class="cls-2" points="376.62 750.4 354.78 762.12 376.62 775.88 376.62 750.4"/><polygon class="cls-2" points="461.01 775.88 482.85 764.16 461.01 750.4 461.01 775.88"/><polygon class="cls-2" points="407.03 805.75 418.74 827.59 432.5 805.75 407.03 805.75"/><polygon class="cls-2" points="439.69 801.27 463.43 808.43 457.71 783.26 439.69 801.27"/><polygon class="cls-2" points="379.79 783.98 372.63 807.71 397.8 801.99 379.79 783.98"/><polygon class="cls-2" points="401.8 722.45 418.3 691.03 434.8 722.45 401.8 722.45"/><polygon class="cls-2" points="378.26 745.23 367.7 711.34 401.59 721.89 378.26 745.23"/><polygon class="cls-2" points="436.53 721.89 470.42 711.34 459.87 745.23 436.53 721.89"/><circle class="cls-3" cx="418.64" cy="763.14" r="43.9"/><circle class="cls-3" cx="418.64" cy="763.14" r="35.4"/><circle class="cls-3" cx="418.64" cy="690.01" r="11.25"/><circle class="cls-3" cx="367.7" cy="711.34" r="11.25"/><circle class="cls-3" cx="469.74" cy="711.34" r="11.25"/><ellipse class="cls-1" cx="408.66" cy="758.15" rx="6.18" ry="13.26"/><ellipse class="cls-1" cx="428.97" cy="758.15" rx="6.18" ry="13.26"/><polygon class="cls-2" points="143.87 963.99 122.03 975.7 143.87 989.46 143.87 963.99"/><polygon class="cls-2" points="228.26 989.46 250.1 977.74 228.26 963.99 228.26 989.46"/><polygon class="cls-2" points="174.28 1019.33 186 1041.17 199.75 1019.33 174.28 1019.33"/><polygon class="cls-2" points="206.94 1014.85 230.68 1022.01 224.96 996.84 206.94 1014.85"/><polygon class="cls-2" points="147.04 997.56 139.88 1021.29 165.06 1015.58 147.04 997.56"/><polygon class="cls-2" points="169.05 936.04 185.55 904.62 202.05 936.04 169.05 936.04"/><polygon class="cls-2" points="145.51 958.81 134.96 924.93 168.84 935.48 145.51 958.81"/><polygon class="cls-2" points="203.78 935.48 237.67 924.93 227.12 958.81 203.78 935.48"/><circle class="cls-3" cx="185.89" cy="976.72" r="43.9"/><circle class="cls-3" cx="185.89" cy="976.72" r="35.4"/><circle class="cls-3" cx="185.89" cy="903.59" r="11.25"/><circle class="cls-3" cx="134.95" cy="924.93" r="11.25"/><circle class="cls-3" cx="236.99" cy="924.93" r="11.25"/><ellipse class="cls-1" cx="175.91" cy="971.73" rx="6.18" ry="13.26"/><ellipse class="cls-1" cx="196.22" cy="971.73" rx="6.18" ry="13.26"/><polygon class="cls-2" points="376.62 963.99 354.78 975.7 376.62 989.46 376.62 963.99"/><polygon class="cls-2" points="461.01 989.46 482.85 977.74 461.01 963.99 461.01 989.46"/><polygon class="cls-2" points="407.03 1019.33 418.74 1041.17 432.5 1019.33 407.03 1019.33"/><polygon class="cls-2" points="439.69 1014.85 463.43 1022.01 457.71 996.84 439.69 1014.85"/><polygon class="cls-2" points="379.79 997.56 372.63 1021.29 397.8 1015.58 379.79 997.56"/><polygon class="cls-2" points="401.8 936.04 418.3 904.62 434.8 936.04 401.8 936.04"/><polygon class="cls-2" points="378.26 958.81 367.7 924.93 401.59 935.48 378.26 958.81"/><polygon class="cls-2" points="436.53 935.48 470.42 924.93 459.87 958.81 436.53 935.48"/><circle class="cls-3" cx="418.64" cy="976.72" r="43.9"/><circle class="cls-3" cx="418.64" cy="976.72" r="35.4"/><circle class="cls-3" cx="418.64" cy="903.59" r="11.25"/><circle class="cls-3" cx="367.7" cy="924.93" r="11.25"/><circle class="cls-3" cx="469.74" cy="924.93" r="11.25"/><ellipse class="cls-1" cx="408.66" cy="971.73" rx="6.18" ry="13.26"/><ellipse class="cls-1" cx="428.97" cy="971.73" rx="6.18" ry="13.26"/><polygon class="cls-2" points="617.49 95.91 595.64 107.63 617.49 121.39 617.49 95.91"/><polygon class="cls-2" points="701.87 121.39 723.72 109.67 701.87 95.91 701.87 121.39"/><polygon class="cls-2" points="647.89 151.26 659.61 173.1 673.37 151.26 647.89 151.26"/><polygon class="cls-2" points="680.56 146.78 704.29 153.94 698.57 128.77 680.56 146.78"/><polygon class="cls-2" points="620.66 129.49 613.5 153.22 638.67 147.5 620.66 129.49"/><polygon class="cls-2" points="642.66 67.96 659.16 36.54 675.66 67.96 642.66 67.96"/><polygon class="cls-2" points="619.12 90.74 608.57 56.85 642.46 67.41 619.12 90.74"/><polygon class="cls-2" points="677.4 67.41 711.28 56.85 700.73 90.74 677.4 67.41"/><circle class="cls-3" cx="659.5" cy="108.65" r="43.9"/><circle class="cls-3" cx="659.5" cy="108.65" r="35.4"/><circle class="cls-3" cx="659.5" cy="35.52" r="11.25"/><circle class="cls-3" cx="608.57" cy="56.85" r="11.25"/><circle class="cls-3" cx="710.6" cy="56.85" r="11.25"/><ellipse class="cls-1" cx="649.52" cy="103.66" rx="6.18" ry="13.26"/><ellipse class="cls-1" cx="669.84" cy="103.66" rx="6.18" ry="13.26"/><polygon class="cls-2" points="617.49 311.64 595.64 323.36 617.49 337.11 617.49 311.64"/><polygon class="cls-2" points="701.87 337.11 723.72 325.39 701.87 311.64 701.87 337.11"/><polygon class="cls-2" points="647.89 366.98 659.61 388.82 673.37 366.98 647.89 366.98"/><polygon class="cls-2" points="680.56 362.5 704.29 369.67 698.57 344.49 680.56 362.5"/><polygon class="cls-2" points="620.66 345.21 613.5 368.94 638.67 363.23 620.66 345.21"/><polygon class="cls-2" points="642.66 283.69 659.16 252.27 675.66 283.69 642.66 283.69"/><polygon class="cls-2" points="619.12 306.46 608.57 272.58 642.46 283.13 619.12 306.46"/><polygon class="cls-2" points="677.4 283.13 711.28 272.58 700.73 306.46 677.4 283.13"/><circle class="cls-3" cx="659.5" cy="324.37" r="43.9"/><circle class="cls-3" cx="659.5" cy="324.37" r="35.4"/><circle class="cls-3" cx="659.5" cy="251.25" r="11.25"/><circle class="cls-3" cx="608.57" cy="272.58" r="11.25"/><circle class="cls-3" cx="710.6" cy="272.58" r="11.25"/><ellipse class="cls-1" cx="649.52" cy="319.39" rx="6.18" ry="13.26"/><ellipse class="cls-1" cx="669.84" cy="319.39" rx="6.18" ry="13.26"/><polygon class="cls-2" points="850.24 311.64 828.39 323.36 850.24 337.11 850.24 311.64"/><polygon class="cls-2" points="934.62 337.11 956.47 325.39 934.62 311.64 934.62 337.11"/><polygon class="cls-2" points="880.64 366.98 892.36 388.82 906.12 366.98 880.64 366.98"/><polygon class="cls-2" points="913.31 362.5 937.04 369.67 931.32 344.49 913.31 362.5"/><polygon class="cls-2" points="853.4 345.21 846.25 368.94 871.42 363.23 853.4 345.21"/><polygon class="cls-2" points="875.41 283.69 891.91 252.27 908.41 283.69 875.41 283.69"/><polygon class="cls-2" points="851.87 306.46 841.32 272.58 875.2 283.13 851.87 306.46"/><polygon class="cls-2" points="910.15 283.13 944.03 272.58 933.48 306.46 910.15 283.13"/><circle class="cls-3" cx="892.25" cy="324.37" r="43.9"/><circle class="cls-3" cx="892.25" cy="324.37" r="35.4"/><circle class="cls-3" cx="892.25" cy="251.25" r="11.25"/><circle class="cls-3" cx="841.32" cy="272.58" r="11.25"/><circle class="cls-3" cx="943.35" cy="272.58" r="11.25"/><ellipse class="cls-1" cx="882.27" cy="319.39" rx="6.18" ry="13.26"/><ellipse class="cls-1" cx="902.59" cy="319.39" rx="6.18" ry="13.26"/><polygon class="cls-2" points="850.75 95.91 828.91 107.63 850.75 121.39 850.75 95.91"/><polygon class="cls-2" points="935.14 121.39 956.98 109.67 935.14 95.91 935.14 121.39"/><polygon class="cls-2" points="881.16 151.26 892.88 173.1 906.63 151.26 881.16 151.26"/><polygon class="cls-2" points="913.83 146.78 937.56 153.94 931.84 128.77 913.83 146.78"/><polygon class="cls-2" points="853.92 129.49 846.76 153.22 871.93 147.5 853.92 129.49"/><polygon class="cls-2" points="875.93 67.96 892.43 36.54 908.93 67.96 875.93 67.96"/><polygon class="cls-2" points="852.39 90.74 841.84 56.85 875.72 67.41 852.39 90.74"/><polygon class="cls-2" points="910.66 67.41 944.55 56.85 934 90.74 910.66 67.41"/><circle class="cls-3" cx="892.77" cy="108.65" r="43.9"/><circle class="cls-3" cx="892.77" cy="108.65" r="35.4"/><circle class="cls-3" cx="892.77" cy="35.52" r="11.25"/><circle class="cls-3" cx="841.83" cy="56.85" r="11.25"/><circle class="cls-3" cx="943.87" cy="56.85" r="11.25"/><ellipse class="cls-1" cx="882.79" cy="103.66" rx="6.18" ry="13.26"/><ellipse class="cls-1" cx="903.1" cy="103.66" rx="6.18" ry="13.26"/><polygon class="cls-2" points="617.49 750.4 595.64 762.12 617.49 775.88 617.49 750.4"/><polygon class="cls-2" points="701.87 775.88 723.72 764.16 701.87 750.4 701.87 775.88"/><polygon class="cls-2" points="647.89 805.75 659.61 827.59 673.37 805.75 647.89 805.75"/><polygon class="cls-2" points="680.56 801.27 704.29 808.43 698.57 783.26 680.56 801.27"/><polygon class="cls-2" points="620.66 783.98 613.5 807.71 638.67 801.99 620.66 783.98"/><polygon class="cls-2" points="642.66 722.45 659.16 691.03 675.66 722.45 642.66 722.45"/><polygon class="cls-2" points="619.12 745.23 608.57 711.34 642.46 721.89 619.12 745.23"/><polygon class="cls-2" points="677.4 721.89 711.28 711.34 700.73 745.23 677.4 721.89"/><circle class="cls-3" cx="659.5" cy="763.14" r="43.9"/><circle class="cls-3" cx="659.5" cy="763.14" r="35.4"/><circle class="cls-3" cx="659.5" cy="690.01" r="11.25"/><circle class="cls-3" cx="608.57" cy="711.34" r="11.25"/><circle class="cls-3" cx="710.6" cy="711.34" r="11.25"/><ellipse class="cls-1" cx="649.52" cy="758.15" rx="6.18" ry="13.26"/><ellipse class="cls-1" cx="669.84" cy="758.15" rx="6.18" ry="13.26"/><polygon class="cls-2" points="850.24 750.4 828.39 762.12 850.24 775.88 850.24 750.4"/><polygon class="cls-2" points="934.62 775.88 956.47 764.16 934.62 750.4 934.62 775.88"/><polygon class="cls-2" points="880.64 805.75 892.36 827.59 906.12 805.75 880.64 805.75"/><polygon class="cls-2" points="913.31 801.27 937.04 808.43 931.32 783.26 913.31 801.27"/><polygon class="cls-2" points="853.4 783.98 846.25 807.71 871.42 801.99 853.4 783.98"/><polygon class="cls-2" points="875.41 722.45 891.91 691.03 908.41 722.45 875.41 722.45"/><polygon class="cls-2" points="851.87 745.23 841.32 711.34 875.2 721.89 851.87 745.23"/><polygon class="cls-2" points="910.15 721.89 944.03 711.34 933.48 745.23 910.15 721.89"/><circle class="cls-3" cx="892.25" cy="763.14" r="43.9"/><circle class="cls-3" cx="892.25" cy="763.14" r="35.4"/><circle class="cls-3" cx="892.25" cy="690.01" r="11.25"/><circle class="cls-3" cx="841.32" cy="711.34" r="11.25"/><circle class="cls-3" cx="943.35" cy="711.34" r="11.25"/><ellipse class="cls-1" cx="882.27" cy="758.15" rx="6.18" ry="13.26"/><ellipse class="cls-1" cx="902.59" cy="758.15" rx="6.18" ry="13.26"/><polygon class="cls-2" points="617.49 963.99 595.64 975.7 617.49 989.46 617.49 963.99"/><polygon class="cls-2" points="701.87 989.46 723.72 977.74 701.87 963.99 701.87 989.46"/><polygon class="cls-2" points="647.89 1019.33 659.61 1041.17 673.37 1019.33 647.89 1019.33"/><polygon class="cls-2" points="680.56 1014.85 704.29 1022.01 698.57 996.84 680.56 1014.85"/><polygon class="cls-2" points="620.66 997.56 613.5 1021.29 638.67 1015.58 620.66 997.56"/><polygon class="cls-2" points="642.66 936.04 659.16 904.62 675.66 936.04 642.66 936.04"/><polygon class="cls-2" points="619.12 958.81 608.57 924.93 642.46 935.48 619.12 958.81"/><polygon class="cls-2" points="677.4 935.48 711.28 924.93 700.73 958.81 677.4 935.48"/><circle class="cls-3" cx="659.5" cy="976.72" r="43.9"/><circle class="cls-3" cx="659.5" cy="976.72" r="35.4"/><circle class="cls-3" cx="659.5" cy="903.59" r="11.25"/><circle class="cls-3" cx="608.57" cy="924.93" r="11.25"/><circle class="cls-3" cx="710.6" cy="924.93" r="11.25"/><ellipse class="cls-1" cx="649.52" cy="971.73" rx="6.18" ry="13.26"/><ellipse class="cls-1" cx="669.84" cy="971.73" rx="6.18" ry="13.26"/><polygon class="cls-2" points="850.24 963.99 828.39 975.7 850.24 989.46 850.24 963.99"/><polygon class="cls-2" points="934.62 989.46 956.47 977.74 934.62 963.99 934.62 989.46"/><polygon class="cls-2" points="880.64 1019.33 892.36 1041.17 906.12 1019.33 880.64 1019.33"/><polygon class="cls-2" points="913.31 1014.85 937.04 1022.01 931.32 996.84 913.31 1014.85"/><polygon class="cls-2" points="853.4 997.56 846.25 1021.29 871.42 1015.58 853.4 997.56"/><polygon class="cls-2" points="875.41 936.04 891.91 904.62 908.41 936.04 875.41 936.04"/><polygon class="cls-2" points="851.87 958.81 841.32 924.93 875.2 935.48 851.87 958.81"/><polygon class="cls-2" points="910.15 935.48 944.03 924.93 933.48 958.81 910.15 935.48"/><circle class="cls-3" cx="892.25" cy="976.72" r="43.9"/><circle class="cls-3" cx="892.25" cy="976.72" r="35.4"/><circle class="cls-3" cx="892.25" cy="903.59" r="11.25"/><circle class="cls-3" cx="841.32" cy="924.93" r="11.25"/><circle class="cls-3" cx="943.35" cy="924.93" r="11.25"/><ellipse class="cls-1" cx="882.27" cy="971.73" rx="6.18" ry="13.26"/><ellipse class="cls-1" cx="902.59" cy="971.73" rx="6.18" ry="13.26"/><polygon class="cls-2" points="850.75 534.68 828.91 546.4 850.75 560.16 850.75 534.68"/><polygon class="cls-2" points="935.14 560.16 956.98 548.44 935.14 534.68 935.14 560.16"/><polygon class="cls-2" points="881.16 590.02 892.88 611.87 906.63 590.02 881.16 590.02"/><polygon class="cls-2" points="913.83 585.55 937.56 592.71 931.84 567.53 913.83 585.55"/><polygon class="cls-2" points="853.92 568.25 846.76 591.99 871.93 586.27 853.92 568.25"/><polygon class="cls-2" points="875.93 506.73 892.43 475.31 908.93 506.73 875.93 506.73"/><polygon class="cls-2" points="852.39 529.51 841.84 495.62 875.72 506.17 852.39 529.51"/><polygon class="cls-2" points="910.66 506.17 944.55 495.62 934 529.51 910.66 506.17"/><circle class="cls-3" cx="892.77" cy="547.42" r="43.9"/><circle class="cls-3" cx="892.77" cy="547.42" r="35.4"/><circle class="cls-3" cx="892.77" cy="474.29" r="11.25"/><circle class="cls-3" cx="841.83" cy="495.62" r="11.25"/><circle class="cls-3" cx="943.87" cy="495.62" r="11.25"/><ellipse class="cls-1" cx="882.79" cy="542.43" rx="6.18" ry="13.26"/><ellipse class="cls-1" cx="903.1" cy="542.43" rx="6.18" ry="13.26"/><polygon class="cls-4" points="415.92 517.21 351.69 551.67 415.92 592.13 415.92 517.21"/><polygon class="cls-4" points="664.08 592.13 728.31 557.67 664.08 517.21 664.08 592.13"/><polygon class="cls-4" points="505.33 679.96 539.79 744.19 580.25 679.96 505.33 679.96"/><polygon class="cls-4" points="601.4 666.8 671.18 687.86 654.37 613.83 601.4 666.8"/><polygon class="cls-4" points="425.24 615.95 404.19 685.73 478.22 668.92 425.24 615.95"/><polygon class="cls-4" points="489.96 435.02 538.48 342.62 587 435.02 489.96 435.02"/><polygon class="cls-4" points="420.73 502 389.7 402.36 489.35 433.38 420.73 502"/><polygon class="cls-4" points="592.1 433.38 691.74 402.36 660.71 502 592.1 433.38"/><circle class="cls-4" cx="539.48" cy="554.67" r="129.09"/><circle class="cls-4" cx="539.48" cy="554.67" r="104.11"/><circle class="cls-4" cx="539.48" cy="339.62" r="33.07"/><circle class="cls-4" cx="389.7" cy="402.35" r="33.07"/><circle class="cls-4" cx="689.74" cy="402.35" r="33.07"/><ellipse class="cls-1" cx="510.13" cy="540" rx="18.18" ry="38.99"/><ellipse class="cls-1" cx="569.87" cy="540" rx="18.18" ry="38.99"/></g></g></svg>