<svg xmlns="http://www.w3.org/2000/svg" viewBox="0 0 990.8 990.8"><defs><style>.cls-1{fill:#fff;}.cls-2{fill:#8abc5d;}</style></defs><title>soyl</title><g id="Layer_2" data-name="Layer 2"><g id="Layer_1-2" data-name="Layer 1"><rect class="cls-1" width="990.8" height="990.8"/><path class="cls-2" d="M716.71,334c-12.58-8.22-24.46-16-30.73-25.51C665.89,278,665,271.67,662.4,253c-.22-1.56-.45-3.21-.7-5l-10.89,1.58c.25,1.72.48,3.35.69,4.89,2.71,19.36,3.83,27.38,25.28,60,7.53,11.44,20.34,19.81,33.9,28.67,30.07,19.65,61.15,40,49.94,97.53-15,77.11-82.12,120.17-94.45,127.49-9.74-3.24-50.93-18.89-74.66-58.1C565.58,467.26,618.46,409,619,408.41L610.91,401a179.76,179.76,0,0,0-25.61,37.8c-14.74,29.51-15.84,56.16-3.19,77.07,24.9,41.14,66.17,57.94,79.22,62.4v164h11V577.39c15.18-9,83.24-53.17,99.09-134.55C784.06,378,746.71,353.61,716.71,334Z"/><polyline class="cls-2" points="671.08 489.35 671.08 443.16 708.33 402.58 700.23 395.14 671.08 426.89 671.08 359.92 660.08 359.92 660.08 481.88 632.07 462.86 625.89 471.96 660.08 495.18 660.08 512.55 671.08 512.55 671.08 491.14"/><path class="cls-2" d="M916.72,741.62c-19.45,0-35.73-5.68-48.54-17-30.6-26.94-29.9-75.78-29.85-77.84V248.08h11V646.93c0,.57-.6,46,26.15,69.48,13.84,12.16,32.88,16.52,56.62,13l1.63,10.9A115,115,0,0,1,916.72,741.62Z"/><path class="cls-2" d="M511,490.95V382.79c0-1.36-.86-33.6-12.81-66.39C482,272.12,453.29,248.56,415,248.2v0h-.88v0c-38.26.36-67,23.91-83.13,68.19-12,32.79-12.78,65-12.81,66.51V500h0V608.12c0,1.36.86,33.6,12.81,66.39,16.14,44.28,44.87,67.84,83.13,68.19v0H415v0c38.26-.36,67-23.91,83.13-68.19,12-32.79,12.78-65,12.81-66.51V490.95ZM500.19,607.89c0,.31-.82,31.8-12.16,62.93-14.71,40.38-39.42,60.93-73.44,61.11-33.95-.18-58.63-20.65-73.36-60.88C329.84,639.91,329,608.2,329,608V490.95h0V383c0-.31.82-31.8,12.16-62.93,14.71-40.38,39.42-60.93,73.44-61.11,33.95.18,58.63,20.65,73.36,60.88,11.4,31.13,12.24,62.84,12.24,63V500h0Z"/><path class="cls-2" d="M144.5,741.72c-42.19,0-81-11.45-83.62-12.24L64,719.15c1,.31,102.18,30.13,151.86-6.81,18.13-13.48,27.32-34.66,27.32-63,0-56.47-36.09-75.82-77.88-98.22C114.56,524,57,493.14,57,388.16c0-55.4,16.1-95.07,47.85-117.92,56.7-40.8,141.8-13,145.39-11.79l-3.43,10.23c-.83-.27-83.52-27.24-135.69,10.34-28.75,20.71-43.33,57.43-43.33,109.14,0,98.52,52.14,126.47,102.56,153.49,43,23,83.57,44.8,83.57,107.73,0,31.9-10.66,56-31.69,71.63C201,736.86,172,741.72,144.5,741.72Z"/></g></g></svg>