<svg xmlns="http://www.w3.org/2000/svg" viewBox="0 0 990.8 990.8"><defs><style>.cls-1{fill:#fff;}.cls-2{fill:#8abc5d;}</style></defs><title>soyl</title><g id="Layer_2" data-name="Layer 2"><g id="Layer_1-2" data-name="Layer 1"><rect class="cls-1" width="990.8" height="990.8"/><path class="cls-2" d="M716.71,301.69c-12.58-8.22-24.46-16-30.73-25.51-20.09-30.54-21-36.82-23.58-55.46-.22-1.56-.45-3.21-.7-5l-10.89,1.58c.25,1.72.48,3.35.69,4.89,2.71,19.36,3.83,27.38,25.28,60,7.53,11.44,20.34,19.81,33.9,28.67,30.07,19.65,61.15,40,49.94,97.53-15,77.11-82.12,120.17-94.45,127.49-9.74-3.24-50.93-18.89-74.66-58.1C565.58,434.95,618.46,376.68,619,376.1l-8.09-7.46a179.76,179.76,0,0,0-25.61,37.8c-14.74,29.51-15.84,56.16-3.19,77.07,24.9,41.14,66.17,57.94,79.22,62.4v164h11V545.08c15.18-9,83.24-53.17,99.09-134.55C784.06,345.7,746.71,321.3,716.71,301.69Z"/><polyline class="cls-2" points="671.08 457.04 671.08 410.85 708.33 370.27 700.23 362.83 671.08 394.58 671.08 327.61 660.08 327.61 660.08 449.57 632.07 430.55 625.89 439.65 660.08 462.87 660.08 480.24 671.08 480.24 671.08 458.83"/><path class="cls-2" d="M916.72,709.31c-19.45,0-35.73-5.68-48.54-17-30.6-26.94-29.9-75.78-29.85-77.84V215.77h11V614.62c0,.57-.6,46,26.15,69.48,13.84,12.16,32.88,16.52,56.62,13l1.63,10.9A115,115,0,0,1,916.72,709.31Z"/><path class="cls-2" d="M511,458.64V350.48c0-1.36-.86-33.6-12.81-66.39C482,239.81,453.29,216.25,415,215.89v0h-.88v0c-38.26.36-67,23.91-83.13,68.19-12,32.79-12.78,65-12.81,66.51V467.66h0V575.81c0,1.36.86,33.6,12.81,66.39,16.14,44.28,44.87,67.84,83.13,68.19v0H415v0c38.26-.36,67-23.91,83.13-68.19,12-32.79,12.78-65,12.81-66.51V458.64ZM500.19,575.58c0,.31-.82,31.8-12.16,62.93-14.71,40.38-39.42,60.93-73.44,61.11-33.95-.18-58.63-20.65-73.36-60.88-11.4-31.13-12.24-62.84-12.24-63V458.64h0V350.72c0-.31.82-31.8,12.16-62.93,14.71-40.38,39.42-60.93,73.44-61.11,33.95.18,58.63,20.65,73.36,60.88,11.4,31.13,12.24,62.84,12.24,63V467.66h0Z"/><path class="cls-2" d="M144.5,709.41c-42.19,0-81-11.45-83.62-12.24L64,686.84c1,.31,102.18,30.13,151.86-6.81,18.13-13.48,27.32-34.66,27.32-63,0-56.47-36.09-75.82-77.88-98.22-50.74-27.2-108.25-58-108.25-163,0-55.4,16.1-95.07,47.85-117.92,56.7-40.8,141.8-13,145.39-11.79l-3.43,10.23c-.83-.27-83.52-27.24-135.69,10.34-28.75,20.71-43.33,57.43-43.33,109.14,0,98.52,52.14,126.47,102.56,153.49,43,23,83.57,44.8,83.57,107.73,0,31.9-10.66,56-31.69,71.63C201,704.55,172,709.41,144.5,709.41Z"/><path class="cls-2" d="M57.55,730.92H83.87c9,0,12.87,6,12.87,11,0,5.39-3.18,9-7.41,9.94,4.68.71,8.25,5,8.25,10.59,0,6-4.09,11.76-12.8,11.76H57.55ZM80.82,747a2.74,2.74,0,0,0,2.6-2.79,2.66,2.66,0,0,0-2.6-2.66H70.68V747Zm.39,16.57a2.87,2.87,0,0,0,3.05-2.92,3,3,0,0,0-3.05-3H70.68v5.91Z"/><path class="cls-2" d="M125.45,757l-16.24-26.12H124L132,745.54l7.93-14.62H154.7L138.58,757v17.22H125.45Z"/><path class="cls-2" d="M221.1,730.2c10.07,0,16.05,5.07,19,10.66l-11,5.65a9,9,0,0,0-8-4.74c-6.3,0-10.53,4.81-10.53,10.85s4.22,10.85,10.53,10.85a12.34,12.34,0,0,0,7.08-1.95v-1.88H219.8V748.85h21.12v17.41A25.73,25.73,0,0,1,221.1,775c-13.12,0-23.85-8.58-23.85-22.42S208,730.2,221.1,730.2Z"/><path class="cls-2" d="M287,768.67H270.35l-1.69,5.59H254.43l16-43.34h16.5l16,43.34H288.67Zm-13.26-10.92h9.88l-4.94-15.27Z"/><path class="cls-2" d="M336.11,760.35h-4.74v13.91H318.24V730.92h23.13c10.14,0,15.59,6.76,15.59,14.88,0,7.47-4.35,11.44-7.8,13.13L357,774.26H342.08Zm3.25-18.52h-8v7.6h8c2.21,0,4.29-1.43,4.29-3.83S341.56,741.83,339.36,741.83Z"/><path class="cls-2" d="M388.41,751v23.26H375.29V730.92H388.8l15.08,21.83V730.92H417v43.34H404.4Z"/><path class="cls-2" d="M437,730.92h32.88v10.92H450.14v5.07h19.3v10.92h-19.3v5.52h19.75v10.92H437Z"/><path class="cls-2" d="M506.6,760.35h-4.74v13.91H488.73V730.92h23.13c10.14,0,15.59,6.76,15.59,14.88,0,7.47-4.35,11.44-7.8,13.13l7.86,15.34H512.58Zm3.25-18.52h-8v7.6h8c2.21,0,4.29-1.43,4.29-3.83S512.06,741.83,509.85,741.83Z"/><path class="cls-2" d="M578.86,758.4a20.2,20.2,0,0,0,14,5.59c2.47,0,4.81-.84,4.81-2.53s-1.82-2.53-6.11-3.31c-7.15-1.3-18.07-3-18.07-13.84,0-7.34,6.11-14,18-14,7.08,0,13.45,2,18.39,6l-7,9.29a21.57,21.57,0,0,0-12.09-4.29c-3.25,0-4,1.17-4,2.27,0,1.69,1.75,2.27,6.37,3.05,7.15,1.24,17.74,3.31,17.74,13.32,0,9.55-7.08,15.08-18.71,15.08-9.23,0-15.53-2.73-20.14-6.89Z"/><path class="cls-2" d="M637.46,742.35H625.83V730.92h36.32v11.44H650.59v31.9H637.46Z"/><path class="cls-2" d="M679.83,730.92h13.32V756c0,4.16,2.14,7.47,7.54,7.47s7.47-3.31,7.47-7.47V730.92h13.32v25.47c0,10.79-6.17,18.65-20.79,18.65s-20.86-7.86-20.86-18.58Z"/><path class="cls-2" d="M741.49,730.92h19.36c13.65,0,23.78,7.8,23.78,21.64s-10.14,21.7-23.72,21.7H741.49Zm19.36,31.9a10,10,0,0,0,10.46-10.27c0-5.85-3.38-10.2-10.4-10.2h-6.3v20.47Z"/><path class="cls-2" d="M802.31,730.92h13.13v43.34H802.31Z"/><path class="cls-2" d="M856.82,730.2c13.39,0,23.72,9.1,23.72,22.42S870.21,775,856.82,775s-23.72-9.1-23.72-22.42S843.44,730.2,856.82,730.2Zm0,11.57c-6.3,0-10.4,4.81-10.4,10.85s4.09,10.85,10.4,10.85,10.4-4.81,10.4-10.85S863.13,741.77,856.82,741.77Z"/><path class="cls-2" d="M901.72,758.4a20.2,20.2,0,0,0,14,5.59c2.47,0,4.81-.84,4.81-2.53s-1.82-2.53-6.11-3.31c-7.15-1.3-18.06-3-18.06-13.84,0-7.34,6.11-14,18-14,7.08,0,13.45,2,18.39,6l-7,9.29a21.58,21.58,0,0,0-12.09-4.29c-3.25,0-4,1.17-4,2.27,0,1.69,1.75,2.27,6.37,3.05,7.15,1.24,17.74,3.31,17.74,13.32,0,9.55-7.08,15.08-18.71,15.08-9.23,0-15.53-2.73-20.14-6.89Z"/></g></g></svg>