<svg xmlns="http://www.w3.org/2000/svg" xmlns:xlink="http://www.w3.org/1999/xlink" viewBox="0 0 280.63 280.63"><defs><style>.cls-1{font-size:12px;fill:#231f20;font-family:BebasNeueRegular, Bebas Neue;}.cls-2{letter-spacing:-0.02em;}.cls-3{letter-spacing:0em;}.cls-4{letter-spacing:0em;}.cls-5{letter-spacing:-0.01em;}.cls-6{letter-spacing:-0.01em;}.cls-7{fill:#fff;}.cls-10,.cls-100,.cls-101,.cls-102,.cls-103,.cls-104,.cls-105,.cls-11,.cls-12,.cls-13,.cls-14,.cls-15,.cls-16,.cls-17,.cls-18,.cls-19,.cls-20,.cls-21,.cls-22,.cls-23,.cls-24,.cls-25,.cls-26,.cls-27,.cls-28,.cls-29,.cls-30,.cls-31,.cls-32,.cls-33,.cls-34,.cls-35,.cls-36,.cls-37,.cls-38,.cls-39,.cls-40,.cls-41,.cls-42,.cls-43,.cls-44,.cls-45,.cls-46,.cls-47,.cls-48,.cls-49,.cls-50,.cls-51,.cls-52,.cls-53,.cls-54,.cls-55,.cls-56,.cls-58,.cls-59,.cls-60,.cls-61,.cls-62,.cls-63,.cls-64,.cls-65,.cls-66,.cls-67,.cls-68,.cls-69,.cls-70,.cls-71,.cls-72,.cls-73,.cls-74,.cls-75,.cls-76,.cls-77,.cls-78,.cls-79,.cls-8,.cls-80,.cls-81,.cls-82,.cls-83,.cls-84,.cls-85,.cls-86,.cls-87,.cls-88,.cls-89,.cls-9,.cls-90,.cls-91,.cls-92,.cls-93,.cls-94,.cls-95,.cls-96,.cls-97,.cls-98,.cls-99{opacity:0.53;}.cls-8{fill:url(#linear-gradient);}.cls-9{fill:url(#linear-gradient-2);}.cls-10{fill:url(#linear-gradient-3);}.cls-11{fill:url(#linear-gradient-4);}.cls-12{fill:url(#linear-gradient-5);}.cls-13{fill:url(#linear-gradient-6);}.cls-14{fill:url(#linear-gradient-7);}.cls-15{fill:url(#linear-gradient-8);}.cls-16{fill:url(#linear-gradient-9);}.cls-17{fill:url(#linear-gradient-10);}.cls-18{fill:url(#linear-gradient-11);}.cls-19{fill:url(#linear-gradient-12);}.cls-20{fill:url(#linear-gradient-13);}.cls-21{fill:url(#linear-gradient-15);}.cls-22{fill:url(#linear-gradient-16);}.cls-23{fill:url(#linear-gradient-17);}.cls-24{fill:url(#linear-gradient-18);}.cls-25{fill:url(#linear-gradient-19);}.cls-26{fill:url(#linear-gradient-20);}.cls-27{fill:url(#linear-gradient-21);}.cls-28{fill:url(#linear-gradient-22);}.cls-29{fill:url(#linear-gradient-23);}.cls-30{fill:url(#linear-gradient-24);}.cls-31{fill:url(#linear-gradient-25);}.cls-32{fill:url(#linear-gradient-26);}.cls-33{fill:url(#linear-gradient-27);}.cls-34{fill:url(#linear-gradient-28);}.cls-35{fill:url(#linear-gradient-29);}.cls-36{fill:url(#linear-gradient-30);}.cls-37{fill:url(#linear-gradient-31);}.cls-38{fill:url(#linear-gradient-32);}.cls-39{fill:url(#linear-gradient-33);}.cls-40{fill:url(#linear-gradient-34);}.cls-41{fill:url(#linear-gradient-35);}.cls-42{fill:url(#linear-gradient-36);}.cls-43{fill:url(#linear-gradient-37);}.cls-44{fill:url(#linear-gradient-38);}.cls-45{fill:url(#linear-gradient-39);}.cls-46{fill:url(#linear-gradient-40);}.cls-47{fill:url(#linear-gradient-41);}.cls-48{fill:url(#linear-gradient-42);}.cls-49{fill:url(#linear-gradient-43);}.cls-50{fill:url(#linear-gradient-44);}.cls-51{fill:url(#linear-gradient-45);}.cls-52{fill:url(#linear-gradient-46);}.cls-53{fill:url(#linear-gradient-47);}.cls-54{fill:url(#linear-gradient-48);}.cls-55{fill:url(#linear-gradient-49);}.cls-56{fill:url(#linear-gradient-50);}.cls-57{fill:#9ec69e;opacity:0.59;}.cls-58{fill:url(#linear-gradient-51);}.cls-59{fill:url(#linear-gradient-53);}.cls-60{fill:url(#linear-gradient-54);}.cls-61{fill:url(#linear-gradient-55);}.cls-62{fill:url(#linear-gradient-56);}.cls-63{fill:url(#linear-gradient-57);}.cls-64{fill:url(#linear-gradient-58);}.cls-65{fill:url(#linear-gradient-59);}.cls-66{fill:url(#linear-gradient-60);}.cls-67{fill:url(#linear-gradient-61);}.cls-68{fill:url(#linear-gradient-62);}.cls-69{fill:url(#linear-gradient-63);}.cls-70{fill:url(#linear-gradient-64);}.cls-71{fill:url(#linear-gradient-65);}.cls-72{fill:url(#linear-gradient-66);}.cls-73{fill:url(#linear-gradient-67);}.cls-74{fill:url(#linear-gradient-68);}.cls-75{fill:url(#linear-gradient-69);}.cls-76{fill:url(#linear-gradient-70);}.cls-77{fill:url(#linear-gradient-71);}.cls-78{fill:url(#linear-gradient-72);}.cls-79{fill:url(#linear-gradient-73);}.cls-80{fill:url(#linear-gradient-74);}.cls-81{fill:url(#linear-gradient-75);}.cls-82{fill:url(#linear-gradient-76);}.cls-83{fill:url(#linear-gradient-77);}.cls-84{fill:url(#linear-gradient-80);}.cls-85{fill:url(#linear-gradient-81);}.cls-86{fill:url(#linear-gradient-82);}.cls-87{fill:url(#linear-gradient-83);}.cls-88{fill:url(#linear-gradient-84);}.cls-89{fill:url(#linear-gradient-85);}.cls-90{fill:url(#linear-gradient-86);}.cls-91{fill:url(#linear-gradient-87);}.cls-92{fill:url(#linear-gradient-89);}.cls-93{fill:url(#linear-gradient-90);}.cls-94{fill:url(#linear-gradient-91);}.cls-95{fill:url(#linear-gradient-92);}.cls-96{fill:url(#linear-gradient-93);}.cls-97{fill:url(#linear-gradient-94);}.cls-98{fill:url(#linear-gradient-95);}.cls-99{fill:url(#linear-gradient-96);}.cls-100{fill:url(#linear-gradient-97);}.cls-101{fill:url(#linear-gradient-98);}.cls-102{fill:url(#linear-gradient-99);}.cls-103{fill:url(#linear-gradient-100);}.cls-104{fill:url(#linear-gradient-101);}.cls-105{fill:url(#linear-gradient-102);}</style><linearGradient id="linear-gradient" x1="51.48" y1="280.63" x2="51.48" y2="-476.22" gradientUnits="userSpaceOnUse"><stop offset="0" stop-color="#a5dce0"/><stop offset="0.13" stop-color="#d1d3d4"/><stop offset="0.86" stop-color="#bcbec0"/><stop offset="1" stop-color="#53697a"/></linearGradient><linearGradient id="linear-gradient-2" x1="42.16" y1="280.63" x2="42.16" y2="-476.22" xlink:href="#linear-gradient"/><linearGradient id="linear-gradient-3" x1="33.24" y1="280.63" x2="33.24" y2="-476.22" xlink:href="#linear-gradient"/><linearGradient id="linear-gradient-4" x1="138.99" y1="280.63" x2="138.99" y2="-476.22" xlink:href="#linear-gradient"/><linearGradient id="linear-gradient-5" x1="67.48" y1="280.63" x2="67.48" y2="-476.22" xlink:href="#linear-gradient"/><linearGradient id="linear-gradient-6" x1="50.53" y1="280.63" x2="50.53" y2="-476.22" xlink:href="#linear-gradient"/><linearGradient id="linear-gradient-7" x1="186.73" y1="280.63" x2="186.73" y2="-476.22" xlink:href="#linear-gradient"/><linearGradient id="linear-gradient-8" x1="226.27" y1="280.63" x2="226.27" y2="-476.22" xlink:href="#linear-gradient"/><linearGradient id="linear-gradient-9" x1="81.96" y1="280.63" x2="81.96" y2="-476.22" xlink:href="#linear-gradient"/><linearGradient id="linear-gradient-10" x1="204.41" y1="280.63" x2="204.41" y2="-476.22" xlink:href="#linear-gradient"/><linearGradient id="linear-gradient-11" x1="170.04" y1="280.63" x2="170.04" y2="-476.22" xlink:href="#linear-gradient"/><linearGradient id="linear-gradient-12" x1="183.78" y1="280.63" x2="183.78" y2="-476.22" xlink:href="#linear-gradient"/><linearGradient id="linear-gradient-13" x1="82.91" y1="280.63" x2="82.91" y2="-476.22" xlink:href="#linear-gradient"/><linearGradient id="linear-gradient-15" x1="180.63" y1="280.63" x2="180.63" y2="-476.22" xlink:href="#linear-gradient"/><linearGradient id="linear-gradient-16" x1="237.81" y1="280.63" x2="237.81" y2="-476.22" xlink:href="#linear-gradient"/><linearGradient id="linear-gradient-17" x1="179.95" y1="280.63" x2="179.95" y2="-476.22" xlink:href="#linear-gradient"/><linearGradient id="linear-gradient-18" x1="132.44" y1="280.63" x2="132.44" y2="-476.22" xlink:href="#linear-gradient"/><linearGradient id="linear-gradient-19" x1="211.74" y1="280.63" x2="211.74" y2="-476.22" xlink:href="#linear-gradient"/><linearGradient id="linear-gradient-20" x1="244.88" y1="280.63" x2="244.88" y2="-476.22" xlink:href="#linear-gradient"/><linearGradient id="linear-gradient-21" x1="197.08" y1="280.63" x2="197.08" y2="-476.22" xlink:href="#linear-gradient"/><linearGradient id="linear-gradient-22" x1="150.56" y1="280.63" x2="150.56" y2="-476.22" xlink:href="#linear-gradient"/><linearGradient id="linear-gradient-23" x1="238.86" y1="280.63" x2="238.86" y2="-476.22" xlink:href="#linear-gradient"/><linearGradient id="linear-gradient-24" x1="150.28" y1="280.63" x2="150.28" y2="-476.22" xlink:href="#linear-gradient"/><linearGradient id="linear-gradient-25" x1="90.68" y1="280.63" x2="90.68" y2="-476.22" xlink:href="#linear-gradient"/><linearGradient id="linear-gradient-26" x1="126.31" y1="280.63" x2="126.31" y2="-476.22" xlink:href="#linear-gradient"/><linearGradient id="linear-gradient-27" x1="53.76" y1="280.63" x2="53.76" y2="-476.22" xlink:href="#linear-gradient"/><linearGradient id="linear-gradient-28" x1="131.91" y1="280.63" x2="131.91" y2="-476.22" xlink:href="#linear-gradient"/><linearGradient id="linear-gradient-29" x1="135.06" y1="280.63" x2="135.06" y2="-476.22" xlink:href="#linear-gradient"/><linearGradient id="linear-gradient-30" x1="73.26" y1="280.63" x2="73.26" y2="-476.22" xlink:href="#linear-gradient"/><linearGradient id="linear-gradient-31" x1="214.83" y1="280.63" x2="214.83" y2="-476.22" xlink:href="#linear-gradient"/><linearGradient id="linear-gradient-32" x1="188.18" y1="280.63" x2="188.18" y2="-476.22" xlink:href="#linear-gradient"/><linearGradient id="linear-gradient-33" x1="198.84" y1="280.63" x2="198.84" y2="-476.22" xlink:href="#linear-gradient"/><linearGradient id="linear-gradient-34" x1="233.06" y1="280.63" x2="233.06" y2="-476.22" xlink:href="#linear-gradient"/><linearGradient id="linear-gradient-35" x1="173.15" y1="280.63" x2="173.15" y2="-476.22" xlink:href="#linear-gradient"/><linearGradient id="linear-gradient-36" x1="159.61" y1="280.63" x2="159.61" y2="-476.22" xlink:href="#linear-gradient"/><linearGradient id="linear-gradient-37" x1="192.04" y1="280.63" x2="192.04" y2="-476.22" xlink:href="#linear-gradient"/><linearGradient id="linear-gradient-38" x1="234.44" y1="280.63" x2="234.44" y2="-476.22" xlink:href="#linear-gradient"/><linearGradient id="linear-gradient-39" x1="181.38" y1="280.63" x2="181.38" y2="-476.22" xlink:href="#linear-gradient"/><linearGradient id="linear-gradient-40" x1="166.41" y1="280.63" x2="166.41" y2="-476.22" xlink:href="#linear-gradient"/><linearGradient id="linear-gradient-41" x1="97.45" y1="280.63" x2="97.45" y2="-476.22" xlink:href="#linear-gradient"/><linearGradient id="linear-gradient-42" x1="116.34" y1="280.63" x2="116.34" y2="-476.22" xlink:href="#linear-gradient"/><linearGradient id="linear-gradient-43" x1="108.11" y1="280.63" x2="108.11" y2="-476.22" xlink:href="#linear-gradient"/><linearGradient id="linear-gradient-44" x1="129.88" y1="280.63" x2="129.88" y2="-476.22" xlink:href="#linear-gradient"/><linearGradient id="linear-gradient-45" x1="140.32" y1="280.63" x2="140.32" y2="-476.22" xlink:href="#linear-gradient"/><linearGradient id="linear-gradient-46" x1="55.05" y1="280.63" x2="55.05" y2="-476.22" xlink:href="#linear-gradient"/><linearGradient id="linear-gradient-47" x1="183.16" y1="280.63" x2="183.16" y2="-476.22" xlink:href="#linear-gradient"/><linearGradient id="linear-gradient-48" x1="203.87" y1="280.63" x2="203.87" y2="-476.22" xlink:href="#linear-gradient"/><linearGradient id="linear-gradient-49" x1="240.83" y1="280.63" x2="240.83" y2="-476.22" xlink:href="#linear-gradient"/><linearGradient id="linear-gradient-50" x1="88.11" y1="280.63" x2="88.11" y2="-476.22" xlink:href="#linear-gradient"/><linearGradient id="linear-gradient-51" x1="99.91" y1="280.63" x2="99.91" y2="-476.22" xlink:href="#linear-gradient"/><linearGradient id="linear-gradient-53" x1="120.21" y1="280.63" x2="120.21" y2="-476.22" xlink:href="#linear-gradient"/><linearGradient id="linear-gradient-54" x1="136.05" y1="280.63" x2="136.05" y2="-476.22" xlink:href="#linear-gradient"/><linearGradient id="linear-gradient-55" x1="132.17" y1="280.63" x2="132.17" y2="-476.22" xlink:href="#linear-gradient"/><linearGradient id="linear-gradient-56" x1="65.71" y1="280.63" x2="65.71" y2="-476.22" xlink:href="#linear-gradient"/><linearGradient id="linear-gradient-57" x1="52.51" y1="280.63" x2="52.51" y2="-476.22" xlink:href="#linear-gradient"/><linearGradient id="linear-gradient-58" x1="88.95" y1="280.63" x2="88.95" y2="-476.22" xlink:href="#linear-gradient"/><linearGradient id="linear-gradient-59" x1="173.83" y1="280.63" x2="173.83" y2="-476.22" xlink:href="#linear-gradient"/><linearGradient id="linear-gradient-60" x1="163.24" y1="280.63" x2="163.24" y2="-476.22" xlink:href="#linear-gradient"/><linearGradient id="linear-gradient-61" x1="148.05" y1="280.63" x2="148.05" y2="-476.22" xlink:href="#linear-gradient"/><linearGradient id="linear-gradient-62" x1="140.72" y1="280.63" x2="140.72" y2="-476.22" xlink:href="#linear-gradient"/><linearGradient id="linear-gradient-63" x1="198.7" y1="280.63" x2="198.7" y2="-476.22" xlink:href="#linear-gradient"/><linearGradient id="linear-gradient-64" x1="208.03" y1="280.63" x2="208.03" y2="-476.22" xlink:href="#linear-gradient"/><linearGradient id="linear-gradient-65" x1="216.88" y1="280.63" x2="216.88" y2="-476.22" xlink:href="#linear-gradient"/><linearGradient id="linear-gradient-66" x1="146.05" y1="280.63" x2="146.05" y2="-476.22" xlink:href="#linear-gradient"/><linearGradient id="linear-gradient-67" x1="158.82" y1="280.63" x2="158.82" y2="-476.22" xlink:href="#linear-gradient"/><linearGradient id="linear-gradient-68" x1="144.35" y1="280.63" x2="144.35" y2="-476.22" xlink:href="#linear-gradient"/><linearGradient id="linear-gradient-69" x1="141.39" y1="280.63" x2="141.39" y2="-476.22" xlink:href="#linear-gradient"/><linearGradient id="linear-gradient-70" x1="124.03" y1="280.63" x2="124.03" y2="-476.22" xlink:href="#linear-gradient"/><linearGradient id="linear-gradient-71" x1="198.89" y1="280.63" x2="198.89" y2="-476.22" xlink:href="#linear-gradient"/><linearGradient id="linear-gradient-72" x1="217.01" y1="280.63" x2="217.01" y2="-476.22" xlink:href="#linear-gradient"/><linearGradient id="linear-gradient-73" x1="208" y1="280.63" x2="208" y2="-476.22" xlink:href="#linear-gradient"/><linearGradient id="linear-gradient-74" x1="197.83" y1="280.63" x2="197.83" y2="-476.22" xlink:href="#linear-gradient"/><linearGradient id="linear-gradient-75" x1="233.65" y1="280.63" x2="233.65" y2="-476.22" xlink:href="#linear-gradient"/><linearGradient id="linear-gradient-76" x1="185.29" y1="280.63" x2="185.29" y2="-476.22" xlink:href="#linear-gradient"/><linearGradient id="linear-gradient-77" x1="118.14" y1="280.63" x2="118.14" y2="-476.22" xlink:href="#linear-gradient"/><linearGradient id="linear-gradient-80" x1="184.02" y1="280.63" x2="184.02" y2="-476.22" xlink:href="#linear-gradient"/><linearGradient id="linear-gradient-81" x1="148.33" y1="280.63" x2="148.33" y2="-476.22" xlink:href="#linear-gradient"/><linearGradient id="linear-gradient-82" x1="207.69" y1="280.63" x2="207.69" y2="-476.22" xlink:href="#linear-gradient"/><linearGradient id="linear-gradient-83" x1="206.76" y1="280.63" x2="206.76" y2="-476.22" xlink:href="#linear-gradient"/><linearGradient id="linear-gradient-84" x1="198.8" y1="280.63" x2="198.8" y2="-476.22" xlink:href="#linear-gradient"/><linearGradient id="linear-gradient-85" x1="189.87" y1="280.63" x2="189.87" y2="-476.22" xlink:href="#linear-gradient"/><linearGradient id="linear-gradient-86" x1="92.41" y1="280.63" x2="92.41" y2="-476.22" xlink:href="#linear-gradient"/><linearGradient id="linear-gradient-87" x1="115.66" y1="280.63" x2="115.66" y2="-476.22" xlink:href="#linear-gradient"/><linearGradient id="linear-gradient-89" x1="81.46" y1="280.63" x2="81.46" y2="-476.22" xlink:href="#linear-gradient"/><linearGradient id="linear-gradient-90" x1="141.37" y1="280.63" x2="141.37" y2="-476.22" xlink:href="#linear-gradient"/><linearGradient id="linear-gradient-91" x1="70.92" y1="280.63" x2="70.92" y2="-476.22" xlink:href="#linear-gradient"/><linearGradient id="linear-gradient-92" x1="70.96" y1="280.63" x2="70.96" y2="-476.22" xlink:href="#linear-gradient"/><linearGradient id="linear-gradient-93" x1="71.52" y1="280.63" x2="71.52" y2="-476.22" xlink:href="#linear-gradient"/><linearGradient id="linear-gradient-94" x1="56.94" y1="280.63" x2="56.94" y2="-476.22" xlink:href="#linear-gradient"/><linearGradient id="linear-gradient-95" x1="96.97" y1="280.63" x2="96.97" y2="-476.22" xlink:href="#linear-gradient"/><linearGradient id="linear-gradient-96" x1="87.26" y1="280.63" x2="87.26" y2="-476.22" xlink:href="#linear-gradient"/><linearGradient id="linear-gradient-97" x1="119.34" y1="280.63" x2="119.34" y2="-476.22" xlink:href="#linear-gradient"/><linearGradient id="linear-gradient-98" x1="134.65" y1="280.63" x2="134.65" y2="-476.22" xlink:href="#linear-gradient"/><linearGradient id="linear-gradient-99" x1="243.21" y1="280.63" x2="243.21" y2="-476.22" xlink:href="#linear-gradient"/><linearGradient id="linear-gradient-100" x1="219.5" y1="280.63" x2="219.5" y2="-476.22" xlink:href="#linear-gradient"/><linearGradient id="linear-gradient-101" x1="187.53" y1="280.63" x2="187.53" y2="-476.22" xlink:href="#linear-gradient"/><linearGradient id="linear-gradient-102" x1="201.35" y1="280.63" x2="201.35" y2="-476.22" xlink:href="#linear-gradient"/></defs><title>square_berry_square</title><g id="Layer_2" data-name="Layer 2"><g id="Layer_10" data-name="Layer 10"><text class="cls-1" transform="translate(189.93 71.47)">A Font <tspan class="cls-2" x="26.76" y="0">b</tspan><tspan class="cls-3" x="31.28" y="0">y</tspan><tspan x="-6.14" y="14.4">camron Vick</tspan></text><text class="cls-1" transform="translate(115.84 140.44)">Downl<tspan class="cls-4" x="25.37" y="0">o</tspan><tspan x="30.02" y="0">ad At</tspan><tspan x="-4.73" y="14.4">camvfont</tspan><tspan class="cls-5" x="34.16" y="14.4">s</tspan><tspan class="cls-6" x="38.57" y="14.4">.</tspan><tspan class="cls-3" x="40.31" y="14.4">com</tspan></text><text class="cls-1" transform="translate(51.38 205.54)">more Fonts<tspan x="-2.54" y="14.4">coming soon!</tspan></text><rect class="cls-7" x="49.12" y="116.15" width="4.74" height="4.58"/><rect class="cls-8" x="49.12" y="116.15" width="4.74" height="4.58"/><rect class="cls-7" x="40.42" y="103.01" width="3.46" height="3.77"/><rect class="cls-9" x="40.42" y="103.01" width="3.46" height="3.77"/><rect class="cls-7" x="30.51" y="94.7" width="5.46" height="5.46"/><rect class="cls-10" x="30.51" y="94.7" width="5.46" height="5.46"/><rect class="cls-7" x="137.48" y="45.76" width="3.02" height="1.63"/><rect class="cls-11" x="137.48" y="45.76" width="3.02" height="1.63"/><rect class="cls-7" x="63.27" y="134.92" width="8.43" height="13.88"/><rect class="cls-12" x="63.27" y="134.92" width="8.43" height="13.88"/><polygon class="cls-7" points="39.56 43.97 61.5 43.97 61.5 40.9 43.75 40.9 43.75 40.74 39.56 40.74 39.56 43.97"/><polygon class="cls-13" points="39.56 43.97 61.5 43.97 61.5 40.9 43.75 40.9 43.75 40.74 39.56 40.74 39.56 43.97"/><polygon class="cls-7" points="187.5 209.28 187.5 208.58 184.46 208.58 184.46 221.02 189 221.02 187.5 219.53 187.5 209.28"/><polygon class="cls-14" points="187.5 209.28 187.5 208.58 184.46 208.58 184.46 221.02 189 221.02 187.5 219.53 187.5 209.28"/><polygon class="cls-7" points="228.5 216.88 228.63 216.88 228.63 212.35 223.9 212.35 223.9 214.41 228.5 214.41 228.5 216.88"/><polygon class="cls-15" points="228.5 216.88 228.63 216.88 228.63 212.35 223.9 212.35 223.9 214.41 228.5 214.41 228.5 216.88"/><rect class="cls-7" x="80.14" y="124.79" width="3.63" height="7.69"/><rect class="cls-16" x="80.14" y="124.79" width="3.63" height="7.69"/><polygon class="cls-7" points="202.35 256 200.28 258.06 208.54 258.06 206.48 256 202.35 256"/><polygon class="cls-17" points="202.35 256 200.28 258.06 208.54 258.06 206.48 256 202.35 256"/><polygon class="cls-7" points="167.23 31.55 173.28 31.55 173.28 25.17 166.79 25.17 166.79 26.1 167.23 26.1 167.23 31.55"/><polygon class="cls-18" points="167.23 31.55 173.28 31.55 173.28 25.17 166.79 25.17 166.79 26.1 167.23 26.1 167.23 31.55"/><polygon class="cls-7" points="179.65 266.39 185.84 266.39 187.9 264.32 187.9 262.26 179.65 262.26 179.65 266.39"/><polygon class="cls-19" points="179.65 266.39 185.84 266.39 187.9 264.32 187.9 262.26 179.65 262.26 179.65 266.39"/><polygon class="cls-7" points="76.33 167.68 76.33 171.21 89.48 171.21 89.48 161.97 83.77 167.68 76.33 167.68"/><polygon class="cls-20" points="76.33 167.68 76.33 171.21 89.48 171.21 89.48 161.97 83.77 167.68 76.33 167.68"/><polygon class="cls-7" points="179.65 258.13 183.78 258.13 187.9 254.01 187.9 253.11 182.67 253.11 182.67 251.94 179.65 251.94 179.65 258.13"/><polygon class="cls-19" points="179.65 258.13 183.78 258.13 187.9 254.01 187.9 253.11 182.67 253.11 182.67 251.94 179.65 251.94 179.65 258.13"/><rect class="cls-7" x="177.18" y="40.74" width="6.89" height="4.03"/><rect class="cls-21" x="177.18" y="40.74" width="6.89" height="4.03"/><rect class="cls-7" x="234.79" y="59.54" width="6.05" height="7.02"/><rect class="cls-22" x="234.79" y="59.54" width="6.05" height="7.02"/><polygon class="cls-7" points="186.62 91.93 186.62 89.83 173.28 89.83 173.28 103.71 181.41 103.71 181.41 91.93 186.62 91.93"/><polygon class="cls-23" points="186.62 91.93 186.62 89.83 173.28 89.83 173.28 103.71 181.41 103.71 181.41 91.93 186.62 91.93"/><polygon class="cls-7" points="144.47 108.57 119.86 108.57 119.86 111.65 137.62 111.65 137.62 118.22 145.02 118.22 145.02 101.93 144.47 101.93 144.47 108.57"/><polygon class="cls-24" points="144.47 108.57 119.86 108.57 119.86 111.65 137.62 111.65 137.62 118.22 145.02 118.22 145.02 101.93 144.47 101.93 144.47 108.57"/><rect class="cls-7" x="208.96" y="229.78" width="5.56" height="12.24"/><rect class="cls-25" x="208.96" y="229.78" width="5.56" height="12.24"/><rect class="cls-7" x="244.17" y="92.85" width="1.42" height="8.19"/><rect class="cls-26" x="244.17" y="92.85" width="1.42" height="8.19"/><polygon class="cls-7" points="201.38 119.55 201.38 118.22 192.78 118.22 192.78 124.53 197.75 119.55 201.38 119.55"/><polygon class="cls-27" points="201.38 119.55 201.38 118.22 192.78 118.22 192.78 124.53 197.75 119.55 201.38 119.55"/><rect class="cls-7" x="149.3" width="2.52" height="5.52"/><rect class="cls-28" x="149.3" width="2.52" height="5.52"/><rect class="cls-7" x="236.88" y="92.85" width="3.96" height="8.19"/><rect class="cls-29" x="236.88" y="92.85" width="3.96" height="8.19"/><rect class="cls-7" x="148.55" y="156.48" width="3.46" height="0.11"/><rect class="cls-30" x="148.55" y="156.48" width="3.46" height="0.11"/><rect class="cls-7" x="88.11" y="75.83" width="5.14" height="0.89"/><rect class="cls-31" x="88.11" y="75.83" width="5.14" height="0.89"/><rect class="cls-7" x="121.96" y="137.94" width="8.71" height="6.57"/><rect class="cls-32" x="121.96" y="137.94" width="8.71" height="6.57"/><polygon class="cls-7" points="51.87 74.2 51.87 76.72 55.65 76.72 53.14 74.2 51.87 74.2"/><polygon class="cls-33" points="51.87 74.2 51.87 76.72 55.65 76.72 53.14 74.2 51.87 74.2"/><polygon class="cls-7" points="131.13 194.91 132.68 193.36 131.13 193.36 131.13 194.91"/><polygon class="cls-34" points="131.13 194.91 132.68 193.36 131.13 193.36 131.13 194.91"/><polygon class="cls-7" points="137.44 188.6 137.44 182.88 132.69 182.88 132.69 193.35 137.44 188.6"/><polygon class="cls-35" points="137.44 188.6 137.44 182.88 132.69 182.88 132.69 193.35 137.44 188.6"/><rect class="cls-7" x="70.18" y="104.83" width="6.15" height="3.8"/><rect class="cls-36" x="70.18" y="104.83" width="6.15" height="3.8"/><rect class="cls-7" x="210.36" y="42.65" width="8.94" height="7.74"/><rect class="cls-37" x="210.36" y="42.65" width="8.94" height="7.74"/><rect class="cls-7" x="185.1" y="57.91" width="6.15" height="5.63"/><rect class="cls-38" x="185.1" y="57.91" width="6.15" height="5.63"/><rect class="cls-7" x="195.07" y="79.7" width="7.55" height="7.69"/><rect class="cls-39" x="195.07" y="79.7" width="7.55" height="7.69"/><rect class="cls-7" x="230.69" y="117.44" width="4.74" height="4.53"/><rect class="cls-40" x="230.69" y="117.44" width="4.74" height="4.53"/><rect class="cls-7" x="166.49" y="184.74" width="13.34" height="13.88"/><rect class="cls-41" x="166.49" y="184.74" width="13.34" height="13.88"/><rect class="cls-7" x="157.24" y="165.97" width="4.74" height="4.58"/><rect class="cls-42" x="157.24" y="165.97" width="4.74" height="4.58"/><rect class="cls-7" x="188.27" y="174.6" width="7.55" height="7.69"/><rect class="cls-43" x="188.27" y="174.6" width="7.55" height="7.69"/><rect class="cls-7" x="230.08" y="187.75" width="8.71" height="8.19"/><rect class="cls-44" x="230.08" y="187.75" width="8.71" height="8.19"/><rect class="cls-7" x="178.3" y="152.82" width="6.15" height="5.63"/><rect class="cls-45" x="178.3" y="152.82" width="6.15" height="5.63"/><rect class="cls-7" x="164.04" y="71.06" width="4.74" height="4.58"/><rect class="cls-46" x="164.04" y="71.06" width="4.74" height="4.58"/><rect class="cls-7" x="93.68" y="20.06" width="7.55" height="7.69"/><rect class="cls-47" x="93.68" y="20.06" width="7.55" height="7.69"/><rect class="cls-7" x="109.67" y="3.74" width="13.34" height="13.88"/><rect class="cls-48" x="109.67" y="3.74" width="13.34" height="13.88"/><rect class="cls-7" x="105.03" y="43.91" width="6.15" height="5.63"/><rect class="cls-49" x="105.03" y="43.91" width="6.15" height="5.63"/><rect class="cls-7" x="127.51" y="31.81" width="4.74" height="4.58"/><rect class="cls-50" x="127.51" y="31.81" width="4.74" height="4.58"/><path class="cls-7" d="M256.36,1H230.07V0h-5.56V10.92h-10v5.44h20V33.25h11.12V59.54h-1.42v7h8.38V85.1h19.34v26.29H261.72v15.94H247.61v20.94h-8.82v6.18H228.5v1l-.51.51v5.52h17.75V180h19.34v26.29H254.93v15.94H244.17v23.12H209v6.95l3.71,3.71v4.13l-2.06,2.06H200.28v2.06l2.06,2.06h4.13l2.06-2.06h4.13v2.06l-4.13,4.13h-8.25l-4.13-4.13V256l2.89-2.89h-7v3L190,258.13,192,260.2v6.19l-4.13,4.13H175.52v-22.7h7.15v-.5H171.31V240H152V213.67h6.15v-8.53h-18v-3.92l-9.06,9.06v20.5H120.89V193.36H106.4v-14h-5.56v23.91H74.54V197.5H63.19v-7.35H43.89V163.86H50v-8.53h-18V147H29.31v-14H22.82v-6.62H14.13V121H4.22V94.7H25.58V68.41H36.23v-31h7.51V22.35H24.41V0H0V280.63H280.63V0H256.36ZM106.54,245.34H36.23V175.87h3.33V242h67ZM233.3,258.06h-4.13L227.11,256l-6.19,6.19v8.25h-4.13V251.87h4.13V256l4.13-4.13h4.13L233.3,256Zm20.64,0h-4.13L247.75,256l-6.19,6.19v8.25h-4.13V251.87h4.13V256l4.13-4.13h4.13l4.13,4.13Zm20.64,8.25-4.13,4.13,2.06,2.06v4.13l-2.06,2.06H258.07v-2.06l2.06-2.06h8.25l-10.32-10.32V256l4.13-4.13v10.32l4.13,4.13h2.06l2.06-2.06V251.87l4.13,4.13Z"/><path class="cls-51" d="M256.36,1H230.07V0h-5.56V10.92h-10v5.44h20V33.25h11.12V59.54h-1.42v7h8.38V85.1h19.34v26.29H261.72v15.94H247.61v20.94h-8.82v6.18H228.5v1l-.51.51v5.52h17.75V180h19.34v26.29H254.93v15.94H244.17v23.12H209v6.95l3.71,3.71v4.13l-2.06,2.06H200.28v2.06l2.06,2.06h4.13l2.06-2.06h4.13v2.06l-4.13,4.13h-8.25l-4.13-4.13V256l2.89-2.89h-7v3L190,258.13,192,260.2v6.19l-4.13,4.13H175.52v-22.7h7.15v-.5H171.31V240H152V213.67h6.15v-8.53h-18v-3.92l-9.06,9.06v20.5H120.89V193.36H106.4v-14h-5.56v23.91H74.54V197.5H63.19v-7.35H43.89V163.86H50v-8.53h-18V147H29.31v-14H22.82v-6.62H14.13V121H4.22V94.7H25.58V68.41H36.23v-31h7.51V22.35H24.41V0H0V280.63H280.63V0H256.36ZM106.54,245.34H36.23V175.87h3.33V242h67ZM233.3,258.06h-4.13L227.11,256l-6.19,6.19v8.25h-4.13V251.87h4.13V256l4.13-4.13h4.13L233.3,256Zm20.64,0h-4.13L247.75,256l-6.19,6.19v8.25h-4.13V251.87h4.13V256l4.13-4.13h4.13l4.13,4.13Zm20.64,8.25-4.13,4.13,2.06,2.06v4.13l-2.06,2.06H258.07v-2.06l2.06-2.06h8.25l-10.32-10.32V256l4.13-4.13v10.32l4.13,4.13h2.06l2.06-2.06V251.87l4.13,4.13Z"/><rect class="cls-7" x="50.7" y="6.42" width="8.71" height="8.19"/><rect class="cls-52" x="50.7" y="6.42" width="8.71" height="8.19"/><polygon class="cls-7" points="178.11 12.03 188.21 12.03 188.21 5.13 186.86 5.13 186.86 0 178.11 0 178.11 12.03"/><polygon class="cls-53" points="178.11 12.03 188.21 12.03 188.21 5.13 186.86 5.13 186.86 0 178.11 0 178.11 12.03"/><rect class="cls-7" x="199.57" y="23.31" width="8.6" height="8.31"/><rect class="cls-54" x="199.57" y="23.31" width="8.6" height="8.31"/><rect class="cls-7" x="240.81" y="222.23" width="0.03" height="19.79"/><rect class="cls-55" x="240.81" y="222.23" width="0.03" height="19.79"/><path class="cls-7" d="M43.75,22.35V37.41h62.8v3.33H43.75v.16H61.5V44h1.69v9.69l5.21-5.21h4.89V42.12H99.57V61.45h19.57V49.61h9.78l2.21-2.21h6.34V45.76h3V23.31h11.32V5.52H149.3V0H24.41V22.35Zm67.44,27.18H105V43.91h6.15Zm16.33-17.73h4.74v4.58h-4.74ZM109.67,3.74H123V17.62H109.67Zm-16,16.33h7.55v7.69H93.68ZM50.7,6.42h8.71v8.19H50.7Z"/><path class="cls-56" d="M43.75,22.35V37.41h62.8v3.33H43.75v.16H61.5V44h1.69v9.69l5.21-5.21h4.89V42.12H99.57V61.45h19.57V49.61h9.78l2.21-2.21h6.34V45.76h3V23.31h11.32V5.52H149.3V0H24.41V22.35Zm67.44,27.18H105V43.91h6.15Zm16.33-17.73h4.74v4.58h-4.74ZM109.67,3.74H123V17.62H109.67Zm-16,16.33h7.55v7.69H93.68ZM50.7,6.42h8.71v8.19H50.7Z"/><path class="cls-57" d="M43.75,22.35V37.41h62.8v3.33H43.75v.16H61.5V44h1.69v9.69l5.21-5.21h4.89V42.12H99.57V61.45h19.57V49.61h9.78l2.21-2.21h6.34V45.76h3V23.31h11.32V5.52H149.3V0H24.41V22.35Zm67.44,27.18H105V43.91h6.15Zm16.33-17.73h4.74v4.58h-4.74ZM109.67,3.74H123V17.62H109.67Zm-16,16.33h7.55v7.69H93.68ZM50.7,6.42h8.71v8.19H50.7Z"/><rect class="cls-7" x="95.44" y="87.74" width="8.94" height="7.74"/><rect class="cls-58" x="95.44" y="87.74" width="8.94" height="7.74"/><rect class="cls-57" x="95.44" y="87.74" width="8.94" height="7.74"/><polygon class="cls-7" points="173.28 31.62 173.28 31.55 167.23 31.55 167.23 26.1 166.79 26.1 166.79 31.62 173.28 31.62"/><polygon class="cls-18" points="173.28 31.62 173.28 31.55 167.23 31.55 167.23 26.1 166.79 26.1 166.79 31.62 173.28 31.62"/><polygon class="cls-57" points="173.28 31.62 173.28 31.55 167.23 31.55 167.23 26.1 166.79 26.1 166.79 31.62 173.28 31.62"/><rect class="cls-7" x="119.54" y="75.9" width="1.34" height="2.44"/><rect class="cls-59" x="119.54" y="75.9" width="1.34" height="2.44"/><rect class="cls-57" x="119.54" y="75.9" width="1.34" height="2.44"/><polygon class="cls-7" points="137.75 83.27 137.75 81.35 134.35 81.35 136.26 83.27 137.75 83.27"/><polygon class="cls-60" points="137.75 83.27 137.75 81.35 134.35 81.35 136.26 83.27 137.75 83.27"/><polygon class="cls-57" points="137.75 83.27 137.75 81.35 134.35 81.35 136.26 83.27 137.75 83.27"/><polygon class="cls-7" points="144.47 101.93 144.24 101.93 144.24 93.52 131.13 93.52 130.67 93.05 130.67 104.63 119.86 104.63 119.86 108.57 144.47 108.57 144.47 101.93"/><polygon class="cls-61" points="144.47 101.93 144.24 101.93 144.24 93.52 131.13 93.52 130.67 93.05 130.67 104.63 119.86 104.63 119.86 108.57 144.47 108.57 144.47 101.93"/><polygon class="cls-57" points="144.47 101.93 144.24 101.93 144.24 93.52 131.13 93.52 130.67 93.05 130.67 104.63 119.86 104.63 119.86 108.57 144.47 108.57 144.47 101.93"/><polygon class="cls-7" points="69.15 83.41 62.26 83.41 62.26 89.46 63.27 89.46 63.67 89.86 69.15 89.86 69.15 83.41"/><polygon class="cls-62" points="69.15 83.41 62.26 83.41 62.26 89.46 63.27 89.46 63.67 89.86 69.15 89.86 69.15 83.41"/><polygon class="cls-57" points="69.15 83.41 62.26 83.41 62.26 89.46 63.27 89.46 63.67 89.86 69.15 89.86 69.15 83.41"/><polygon class="cls-7" points="53.02 74.08 53.02 70.27 51.87 70.27 51.87 74.2 53.14 74.2 53.02 74.08"/><polygon class="cls-63" points="53.02 74.08 53.02 70.27 51.87 70.27 51.87 74.2 53.14 74.2 53.02 74.08"/><polygon class="cls-57" points="53.02 74.08 53.02 70.27 51.87 70.27 51.87 74.2 53.14 74.2 53.02 74.08"/><polygon class="cls-7" points="88.11 75.83 93.25 75.83 93.25 68.41 84.65 68.41 84.65 74.96 86.4 76.72 88.11 76.72 88.11 75.83"/><polygon class="cls-64" points="88.11 75.83 93.25 75.83 93.25 68.41 84.65 68.41 84.65 74.96 86.4 76.72 88.11 76.72 88.11 75.83"/><polygon class="cls-57" points="88.11 75.83 93.25 75.83 93.25 68.41 84.65 68.41 84.65 74.96 86.4 76.72 88.11 76.72 88.11 75.83"/><rect class="cls-7" x="170.39" y="133.22" width="6.89" height="6.45"/><rect class="cls-65" x="170.39" y="133.22" width="6.89" height="6.45"/><rect class="cls-57" x="170.39" y="133.22" width="6.89" height="6.45"/><rect class="cls-7" x="160" y="120.08" width="6.49" height="6.45"/><rect class="cls-66" x="160" y="120.08" width="6.49" height="6.45"/><rect class="cls-57" x="160" y="120.08" width="6.49" height="6.45"/><polygon class="cls-7" points="151.64 93.79 151.64 93.52 144.47 93.52 144.47 101.93 145.02 101.93 145.02 93.79 151.64 93.79"/><polygon class="cls-67" points="151.64 93.79 151.64 93.52 144.47 93.52 144.47 101.93 145.02 101.93 145.02 93.79 151.64 93.79"/><polygon class="cls-57" points="151.64 93.79 151.64 93.52 144.47 93.52 144.47 101.93 145.02 101.93 145.02 93.79 151.64 93.79"/><rect class="cls-7" x="140.5" y="45.76" width="0.44" height="1.63"/><rect class="cls-68" x="140.5" y="45.76" width="0.44" height="1.63"/><rect class="cls-57" x="140.5" y="45.76" width="0.44" height="1.63"/><path class="cls-7" d="M198.22,5.13h-10V12H178.11V0H151.82V5.52h.23v14h6.49V26.1h8.25v-.92h6.49v6.38h3.86v5.86h67V59.54h1.42V33.25H234.47V16.36h-20V10.92H198.22Zm1.36,18.18h8.6v8.31h-8.6Z"/><path class="cls-69" d="M198.22,5.13h-10V12H178.11V0H151.82V5.52h.23v14h6.49V26.1h8.25v-.92h6.49v6.38h3.86v5.86h67V59.54h1.42V33.25H234.47V16.36h-20V10.92H198.22Zm1.36,18.18h8.6v8.31h-8.6Z"/><path class="cls-57" d="M198.22,5.13h-10V12H178.11V0H151.82V5.52h.23v14h6.49V26.1h8.25v-.92h6.49v6.38h3.86v5.86h67V59.54h1.42V33.25H234.47V16.36h-20V10.92H198.22Zm1.36,18.18h8.6v8.31h-8.6Z"/><rect class="cls-7" x="203.57" y="145.17" width="8.94" height="0.13"/><rect class="cls-70" x="203.57" y="145.17" width="8.94" height="0.13"/><rect class="cls-57" x="203.57" y="145.17" width="8.94" height="0.13"/><path class="cls-7" d="M245.59,92.85V101h-1.42v5.86h-3.33V101h-4V92.85h4V66.55h-6.05v-7h6.05V40.74H184.07v4h-6.89v-4h0V57.84H161.89V93.79h9.43v13.15h10.09v-3.22h-8.13V89.83h13.34v2.1H207.7v19.34h20v16.88h11.12v20.11h8.82V127.32h14.11V111.39h10.16V85.1H252.54V66.55h-8.38V92.85Zm-76.81-17.2H164V71.06h4.74Zm22.48-12.1H185.1V57.91h6.15Zm11.36,23.85h-7.55V79.7h7.55Zm16.69-37h-8.94V42.65h8.94ZM235.43,122h-4.74v-4.53h4.74Z"/><path class="cls-71" d="M245.59,92.85V101h-1.42v5.86h-3.33V101h-4V92.85h4V66.55h-6.05v-7h6.05V40.74H184.07v4h-6.89v-4h0V57.84H161.89V93.79h9.43v13.15h10.09v-3.22h-8.13V89.83h13.34v2.1H207.7v19.34h20v16.88h11.12v20.11h8.82V127.32h14.11V111.39h10.16V85.1H252.54V66.55h-8.38V92.85Zm-76.81-17.2H164V71.06h4.74Zm22.48-12.1H185.1V57.91h6.15Zm11.36,23.85h-7.55V79.7h7.55Zm16.69-37h-8.94V42.65h8.94ZM235.43,122h-4.74v-4.53h4.74Z"/><path class="cls-57" d="M245.59,92.85V101h-1.42v5.86h-3.33V101h-4V92.85h4V66.55h-6.05v-7h6.05V40.74H184.07v4h-6.89v-4h0V57.84H161.89V93.79h9.43v13.15h10.09v-3.22h-8.13V89.83h13.34v2.1H207.7v19.34h20v16.88h11.12v20.11h8.82V127.32h14.11V111.39h10.16V85.1H252.54V66.55h-8.38V92.85Zm-76.81-17.2H164V71.06h4.74Zm22.48-12.1H185.1V57.91h6.15Zm11.36,23.85h-7.55V79.7h7.55Zm16.69-37h-8.94V42.65h8.94ZM235.43,122h-4.74v-4.53h4.74Z"/><polygon class="cls-7" points="146.72 57.84 146.51 57.64 145.4 57.64 145.4 57.84 146.72 57.84"/><polygon class="cls-72" points="146.72 57.84 146.51 57.64 145.4 57.64 145.4 57.84 146.72 57.84"/><polygon class="cls-57" points="146.72 57.84 146.51 57.64 145.4 57.64 145.4 57.84 146.72 57.84"/><polygon class="cls-7" points="140.94 47.39 151.64 47.39 161.89 57.64 161.89 57.84 177.15 57.84 177.15 40.74 175.52 40.74 175.52 37.41 177.15 37.41 177.15 31.55 173.28 31.55 173.28 31.62 166.79 31.62 166.79 26.1 158.54 26.1 158.54 19.47 152.05 19.47 152.05 5.52 151.82 5.52 151.82 23.32 140.5 23.32 140.5 45.76 140.94 45.76 140.94 47.39"/><polygon class="cls-73" points="140.94 47.39 151.64 47.39 161.89 57.64 161.89 57.84 177.15 57.84 177.15 40.74 175.52 40.74 175.52 37.41 177.15 37.41 177.15 31.55 173.28 31.55 173.28 31.62 166.79 31.62 166.79 26.1 158.54 26.1 158.54 19.47 152.05 19.47 152.05 5.52 151.82 5.52 151.82 23.32 140.5 23.32 140.5 45.76 140.94 45.76 140.94 47.39"/><polygon class="cls-57" points="140.94 47.39 151.64 47.39 161.89 57.64 161.89 57.84 177.15 57.84 177.15 40.74 175.52 40.74 175.52 37.41 177.15 37.41 177.15 31.55 173.28 31.55 173.28 31.62 166.79 31.62 166.79 26.1 158.54 26.1 158.54 19.47 152.05 19.47 152.05 5.52 151.82 5.52 151.82 23.32 140.5 23.32 140.5 45.76 140.94 45.76 140.94 47.39"/><polygon class="cls-57" points="140.94 47.39 151.64 47.39 161.89 57.64 161.89 57.84 177.15 57.84 177.15 40.74 175.52 40.74 175.52 37.41 177.15 37.41 177.15 31.55 173.28 31.55 173.28 31.62 166.79 31.62 166.79 26.1 158.54 26.1 158.54 19.47 152.05 19.47 152.05 5.52 151.82 5.52 151.82 23.32 140.5 23.32 140.5 45.76 140.94 45.76 140.94 47.39"/><rect class="cls-7" x="144.24" y="93.52" width="0.23" height="8.42"/><rect class="cls-74" x="144.24" y="93.52" width="0.23" height="8.42"/><rect class="cls-57" x="144.24" y="93.52" width="0.23" height="8.42"/><rect class="cls-57" x="144.24" y="93.52" width="0.23" height="8.42"/><polygon class="cls-7" points="137.75 83.27 146.51 83.27 151.64 78.14 151.64 62.77 146.72 57.84 145.4 57.84 145.4 57.64 136.26 57.64 131.13 62.77 131.13 78.14 134.35 81.35 137.75 81.35 137.75 83.27"/><polygon class="cls-75" points="137.75 83.27 146.51 83.27 151.64 78.14 151.64 62.77 146.72 57.84 145.4 57.84 145.4 57.64 136.26 57.64 131.13 62.77 131.13 78.14 134.35 81.35 137.75 81.35 137.75 83.27"/><polygon class="cls-57" points="137.75 83.27 146.51 83.27 151.64 78.14 151.64 62.77 146.72 57.84 145.4 57.84 145.4 57.64 136.26 57.64 131.13 62.77 131.13 78.14 134.35 81.35 137.75 81.35 137.75 83.27"/><polygon class="cls-57" points="137.75 83.27 146.51 83.27 151.64 78.14 151.64 62.77 146.72 57.84 145.4 57.84 145.4 57.64 136.26 57.64 131.13 62.77 131.13 78.14 134.35 81.35 137.75 81.35 137.75 83.27"/><polygon class="cls-7" points="119.54 75.9 120.89 75.9 120.89 57.64 128.92 49.6 119.14 49.6 119.14 61.45 119.54 61.45 119.54 75.9"/><polygon class="cls-76" points="119.54 75.9 120.89 75.9 120.89 57.64 128.92 49.6 119.14 49.6 119.14 61.45 119.54 61.45 119.54 75.9"/><polygon class="cls-57" points="119.54 75.9 120.89 75.9 120.89 57.64 128.92 49.6 119.14 49.6 119.14 61.45 119.54 61.45 119.54 75.9"/><polygon class="cls-57" points="119.54 75.9 120.89 75.9 120.89 57.64 128.92 49.6 119.14 49.6 119.14 61.45 119.54 61.45 119.54 75.9"/><path class="cls-7" d="M197.75,165.67l-7.47-7.47h-.81v-.81l-2-2v-3h-9.39v-7.35h-19.3V118.77H165v-8.53h-3.08V114H151.64v-3.78H147v-8.3h-2v16.29h-7.4v12H157v26.29H152v.11h-3.46v-.11H146.8v15.94H132.69v10.47h4.75v5.72l3.95-3.95h10.25l10.25,10.25V200H151.64l-5.13-5.13-6.32,6.32v3.92h18v8.53H152V240h19.3v7.35h11.36v.5H190l2.06,2.06v3.23h7l1.24-1.24h8.25l.42.42v-6.95H175.52V242H209V229.78H197.75L189,221h-4.54V208.58h3V193.9l10.25-10.25h20.5L228.5,193.9v10.25l-5.13,5.13H197.75v5.13l5.13,5.13h10.25l5.13-5.13h5.64v-2.06h4.74v4.53h-.13v2.65l-10.25,10.25h-3.73V242h26.29V222.23h0V175.87h3.33v46.36h10.76V206.29h10.16V180H245.74V161.46H228v-5.52l-9.74,9.74ZM162,170.55h-4.74V166H162Zm17.84,28.07H166.49V184.74h13.34Zm4.64-40.17H178.3v-5.63h6.15Zm11.36,23.85h-7.55V174.6h7.55Zm34.27,5.46h8.71v8.19h-8.71Z"/><path class="cls-77" d="M197.75,165.67l-7.47-7.47h-.81v-.81l-2-2v-3h-9.39v-7.35h-19.3V118.77H165v-8.53h-3.08V114H151.64v-3.78H147v-8.3h-2v16.29h-7.4v12H157v26.29H152v.11h-3.46v-.11H146.8v15.94H132.69v10.47h4.75v5.72l3.95-3.95h10.25l10.25,10.25V200H151.64l-5.13-5.13-6.32,6.32v3.92h18v8.53H152V240h19.3v7.35h11.36v.5H190l2.06,2.06v3.23h7l1.24-1.24h8.25l.42.42v-6.95H175.52V242H209V229.78H197.75L189,221h-4.54V208.58h3V193.9l10.25-10.25h20.5L228.5,193.9v10.25l-5.13,5.13H197.75v5.13l5.13,5.13h10.25l5.13-5.13h5.64v-2.06h4.74v4.53h-.13v2.65l-10.25,10.25h-3.73V242h26.29V222.23h0V175.87h3.33v46.36h10.76V206.29h10.16V180H245.74V161.46H228v-5.52l-9.74,9.74ZM162,170.55h-4.74V166H162Zm17.84,28.07H166.49V184.74h13.34Zm4.64-40.17H178.3v-5.63h6.15Zm11.36,23.85h-7.55V174.6h7.55Zm34.27,5.46h8.71v8.19h-8.71Z"/><path class="cls-57" d="M197.75,165.67l-7.47-7.47h-.81v-.81l-2-2v-3h-9.39v-7.35h-19.3V118.77H165v-8.53h-3.08V114H151.64v-3.78H147v-8.3h-2v16.29h-7.4v12H157v26.29H152v.11h-3.46v-.11H146.8v15.94H132.69v10.47h4.75v5.72l3.95-3.95h10.25l10.25,10.25V200H151.64l-5.13-5.13-6.32,6.32v3.92h18v8.53H152V240h19.3v7.35h11.36v.5H190l2.06,2.06v3.23h7l1.24-1.24h8.25l.42.42v-6.95H175.52V242H209V229.78H197.75L189,221h-4.54V208.58h3V193.9l10.25-10.25h20.5L228.5,193.9v10.25l-5.13,5.13H197.75v5.13l5.13,5.13h10.25l5.13-5.13h5.64v-2.06h4.74v4.53h-.13v2.65l-10.25,10.25h-3.73V242h26.29V222.23h0V175.87h3.33v46.36h10.76V206.29h10.16V180H245.74V161.46H228v-5.52l-9.74,9.74ZM162,170.55h-4.74V166H162Zm17.84,28.07H166.49V184.74h13.34Zm4.64-40.17H178.3v-5.63h6.15Zm11.36,23.85h-7.55V174.6h7.55Zm34.27,5.46h8.71v8.19h-8.71Z"/><polygon class="cls-7" points="218.25 150.3 215.76 147.8 215.76 152.8 218.25 150.3"/><polygon class="cls-78" points="218.25 150.3 215.76 147.8 215.76 152.8 218.25 150.3"/><polygon class="cls-57" points="218.25 150.3 215.76 147.8 215.76 152.8 218.25 150.3"/><polygon class="cls-7" points="213.13 193.91 202.88 193.91 197.75 199.03 218.25 199.03 213.13 193.91"/><polygon class="cls-79" points="213.13 193.91 202.88 193.91 197.75 199.03 218.25 199.03 213.13 193.91"/><polygon class="cls-57" points="213.13 193.91 202.88 193.91 197.75 199.03 218.25 199.03 213.13 193.91"/><polygon class="cls-7" points="192.78 118.22 201.38 118.22 201.38 119.55 204.4 119.55 204.4 113.68 191.26 113.68 191.26 126.05 192.78 124.53 192.78 118.22"/><polygon class="cls-80" points="192.78 118.22 201.38 118.22 201.38 119.55 204.4 119.55 204.4 113.68 191.26 113.68 191.26 126.05 192.78 124.53 192.78 118.22"/><polygon class="cls-57" points="192.78 118.22 201.38 118.22 201.38 119.55 204.4 119.55 204.4 113.68 191.26 113.68 191.26 126.05 192.78 124.53 192.78 118.22"/><rect class="cls-7" x="228.5" y="148.27" width="10.29" height="6.18"/><rect class="cls-81" x="228.5" y="148.27" width="10.29" height="6.18"/><rect class="cls-57" x="228.5" y="148.27" width="10.29" height="6.18"/><rect class="cls-7" x="182.67" y="251.94" width="5.23" height="1.16"/><rect class="cls-82" x="182.67" y="251.94" width="5.23" height="1.16"/><rect class="cls-57" x="182.67" y="251.94" width="5.23" height="1.16"/><rect class="cls-7" x="115.77" y="162.54" width="4.74" height="4.53"/><rect class="cls-83" x="115.77" y="162.54" width="4.74" height="4.53"/><rect class="cls-57" x="115.77" y="162.54" width="4.74" height="4.53"/><rect class="cls-7" x="121.96" y="144.51" width="8.71" height="1.61"/><rect class="cls-32" x="121.96" y="144.51" width="8.71" height="1.61"/><rect class="cls-57" x="121.96" y="144.51" width="8.71" height="1.61"/><polygon class="cls-7" points="215.76 134.92 218.25 134.92 217.62 134.29 215.76 134.29 215.76 134.92"/><polygon class="cls-78" points="215.76 134.92 218.25 134.92 217.62 134.29 215.76 134.29 215.76 134.92"/><polygon class="cls-57" points="215.76 134.92 218.25 134.92 217.62 134.29 215.76 134.29 215.76 134.92"/><rect class="cls-7" x="181.41" y="91.93" width="5.21" height="11.78"/><rect class="cls-84" x="181.41" y="91.93" width="5.21" height="11.78"/><rect class="cls-57" x="181.41" y="91.93" width="5.21" height="11.78"/><polygon class="cls-7" points="145.02 93.79 145.02 101.93 146.99 101.93 146.99 110.24 151.64 110.24 151.64 93.79 145.02 93.79"/><polygon class="cls-85" points="145.02 93.79 145.02 101.93 146.99 101.93 146.99 110.24 151.64 110.24 151.64 93.79 145.02 93.79"/><polygon class="cls-57" points="145.02 93.79 145.02 101.93 146.99 101.93 146.99 110.24 151.64 110.24 151.64 93.79 145.02 93.79"/><polygon class="cls-57" points="145.02 93.79 145.02 101.93 146.99 101.93 146.99 110.24 151.64 110.24 151.64 93.79 145.02 93.79"/><polygon class="cls-7" points="215.76 134.29 217.62 134.29 213.13 129.8 202.88 129.8 197.75 134.92 215.76 134.92 215.76 134.29"/><polygon class="cls-86" points="215.76 134.29 217.62 134.29 213.13 129.8 202.88 129.8 197.75 134.92 215.76 134.92 215.76 134.29"/><polygon class="cls-57" points="215.76 134.29 217.62 134.29 213.13 129.8 202.88 129.8 197.75 134.92 215.76 134.92 215.76 134.29"/><polygon class="cls-57" points="215.76 134.29 217.62 134.29 213.13 129.8 202.88 129.8 197.75 134.92 215.76 134.92 215.76 134.29"/><polygon class="cls-7" points="212.5 145.17 212.5 145.3 203.57 145.3 203.57 145.17 202.88 145.17 197.75 150.3 202.88 155.42 213.13 155.42 215.76 152.8 215.76 147.8 213.13 145.17 212.5 145.17"/><polygon class="cls-87" points="212.5 145.17 212.5 145.3 203.57 145.3 203.57 145.17 202.88 145.17 197.75 150.3 202.88 155.42 213.13 155.42 215.76 152.8 215.76 147.8 213.13 145.17 212.5 145.17"/><polygon class="cls-57" points="212.5 145.17 212.5 145.3 203.57 145.3 203.57 145.17 202.88 145.17 197.75 150.3 202.88 155.42 213.13 155.42 215.76 152.8 215.76 147.8 213.13 145.17 212.5 145.17"/><polygon class="cls-57" points="212.5 145.17 212.5 145.3 203.57 145.3 203.57 145.17 202.88 145.17 197.75 150.3 202.88 155.42 213.13 155.42 215.76 152.8 215.76 147.8 213.13 145.17 212.5 145.17"/><path class="cls-7" d="M227.67,128.15V111.27h-20V91.93H186.62v11.78h-5.21v3.22H171.31V93.79h-9.43v16.45H165v8.53h-6.15v26.29h19.3v7.35h9.39v-7.23l10.25-10.25H187.5V129.8l3.75-3.75V113.68H204.4v5.87h13.85L228.5,129.8v18.47h10.29V128.15Zm-61.18-1.62H160v-6.45h6.49Zm10.79,13.15h-6.89v-6.45h6.89Z"/><path class="cls-88" d="M227.67,128.15V111.27h-20V91.93H186.62v11.78h-5.21v3.22H171.31V93.79h-9.43v16.45H165v8.53h-6.15v26.29h19.3v7.35h9.39v-7.23l10.25-10.25H187.5V129.8l3.75-3.75V113.68H204.4v5.87h13.85L228.5,129.8v18.47h10.29V128.15Zm-61.18-1.62H160v-6.45h6.49Zm10.79,13.15h-6.89v-6.45h6.89Z"/><path class="cls-57" d="M227.67,128.15V111.27h-20V91.93H186.62v11.78h-5.21v3.22H171.31V93.79h-9.43v16.45H165v8.53h-6.15v26.29h19.3v7.35h9.39v-7.23l10.25-10.25H187.5V129.8l3.75-3.75V113.68H204.4v5.87h13.85L228.5,129.8v18.47h10.29V128.15Zm-61.18-1.62H160v-6.45h6.49Zm10.79,13.15h-6.89v-6.45h6.89Z"/><path class="cls-57" d="M227.67,128.15V111.27h-20V91.93H186.62v11.78h-5.21v3.22H171.31V93.79h-9.43v16.45H165v8.53h-6.15v26.29h19.3v7.35h9.39v-7.23l10.25-10.25H187.5V129.8l3.75-3.75V113.68H204.4v5.87h13.85L228.5,129.8v18.47h10.29V128.15Zm-61.18-1.62H160v-6.45h6.49Zm10.79,13.15h-6.89v-6.45h6.89Z"/><polygon class="cls-7" points="189.47 158.2 190.28 158.2 189.47 157.39 189.47 158.2"/><polygon class="cls-89" points="189.47 158.2 190.28 158.2 189.47 157.39 189.47 158.2"/><polygon class="cls-57" points="189.47 158.2 190.28 158.2 189.47 157.39 189.47 158.2"/><polygon class="cls-57" points="189.47 158.2 190.28 158.2 189.47 157.39 189.47 158.2"/><polygon class="cls-7" points="96.72 75.83 93.25 75.83 93.25 76.72 88.11 76.72 88.11 78.43 93.82 84.14 96.72 84.14 96.72 75.83"/><polygon class="cls-90" points="96.72 75.83 93.25 75.83 93.25 76.72 88.11 76.72 88.11 78.43 93.82 84.14 96.72 84.14 96.72 75.83"/><polygon class="cls-57" points="96.72 75.83 93.25 75.83 93.25 76.72 88.11 76.72 88.11 78.43 93.82 84.14 96.72 84.14 96.72 75.83"/><rect class="cls-7" x="112.22" y="62.68" width="6.89" height="6.45"/><rect class="cls-91" x="112.22" y="62.68" width="6.89" height="6.45"/><rect class="cls-57" x="112.22" y="62.68" width="6.89" height="6.45"/><rect class="cls-7" x="148.55" y="152.82" width="3.46" height="3.66"/><rect class="cls-30" x="148.55" y="152.82" width="3.46" height="3.66"/><rect class="cls-57" x="148.55" y="152.82" width="3.46" height="3.66"/><polygon class="cls-7" points="85.93 64.8 85.93 63.83 83.77 63.83 78.65 58.71 76.99 58.71 76.99 64.8 85.93 64.8"/><polygon class="cls-92" points="85.93 64.8 85.93 63.83 83.77 63.83 78.65 58.71 76.99 58.71 76.99 64.8 85.93 64.8"/><polygon class="cls-57" points="85.93 64.8 85.93 63.83 83.77 63.83 78.65 58.71 76.99 58.71 76.99 64.8 85.93 64.8"/><rect class="cls-7" x="138.64" y="144.51" width="5.46" height="5.46"/><rect class="cls-93" x="138.64" y="144.51" width="5.46" height="5.46"/><rect class="cls-57" x="138.64" y="144.51" width="5.46" height="5.46"/><path class="cls-7" d="M131.14,184.66v8.7h1.55V182.88H131v-6.62h-8.69V170.8h-9.91V144.51H122v-6.57h8.71v6.57h3V118.22h3.91v-6.57H119.86v-3.08h-1.69V95.42H108.08v15H81.79v-8.74l-3.15,3.15H76.33v3.8H70.18v-3.8H63.27L53,94.58V89.46h8.8V79.21H58.15l-2.49-2.49H51.87V74.2H50.7V47.91H61.5V44H39.56v62.91H36.23V68.41H25.58V94.7H4.22V121h9.91v5.46h8.69v6.62h6.49v14h2.75v8.3H50v8.53H43.89v26.29h19.3v7.35H74.54v5.79h26.29V179.38h5.56v14h14.49v-8.7ZM36,100.16H30.51V94.7H36Zm7.92,6.62H40.42V103h3.46Zm5.23,14v-4.58h4.74v4.58ZM94,157.43,89.48,162v9.24H76.33v-3.53H63.27L53,157.43V121.55H63.27v13.37H71.7v13.88H63.27v3.49l5.13,5.13H78.65l5.13-5.13V132.48H80.14v-7.69h3.63v-3.24H94Z"/><path class="cls-94" d="M131.14,184.66v8.7h1.55V182.88H131v-6.62h-8.69V170.8h-9.91V144.51H122v-6.57h8.71v6.57h3V118.22h3.91v-6.57H119.86v-3.08h-1.69V95.42H108.08v15H81.79v-8.74l-3.15,3.15H76.33v3.8H70.18v-3.8H63.27L53,94.58V89.46h8.8V79.21H58.15l-2.49-2.49H51.87V74.2H50.7V47.91H61.5V44H39.56v62.91H36.23V68.41H25.58V94.7H4.22V121h9.91v5.46h8.69v6.62h6.49v14h2.75v8.3H50v8.53H43.89v26.29h19.3v7.35H74.54v5.79h26.29V179.38h5.56v14h14.49v-8.7ZM36,100.16H30.51V94.7H36Zm7.92,6.62H40.42V103h3.46Zm5.23,14v-4.58h4.74v4.58ZM94,157.43,89.48,162v9.24H76.33v-3.53H63.27L53,157.43V121.55H63.27v13.37H71.7v13.88H63.27v3.49l5.13,5.13H78.65l5.13-5.13V132.48H80.14v-7.69h3.63v-3.24H94Z"/><path class="cls-57" d="M131.14,184.66v8.7h1.55V182.88H131v-6.62h-8.69V170.8h-9.91V144.51H122v-6.57h8.71v6.57h3V118.22h3.91v-6.57H119.86v-3.08h-1.69V95.42H108.08v15H81.79v-8.74l-3.15,3.15H76.33v3.8H70.18v-3.8H63.27L53,94.58V89.46h8.8V79.21H58.15l-2.49-2.49H51.87V74.2H50.7V47.91H61.5V44H39.56v62.91H36.23V68.41H25.58V94.7H4.22V121h9.91v5.46h8.69v6.62h6.49v14h2.75v8.3H50v8.53H43.89v26.29h19.3v7.35H74.54v5.79h26.29V179.38h5.56v14h14.49v-8.7ZM36,100.16H30.51V94.7H36Zm7.92,6.62H40.42V103h3.46Zm5.23,14v-4.58h4.74v4.58ZM94,157.43,89.48,162v9.24H76.33v-3.53H63.27L53,157.43V121.55H63.27v13.37H71.7v13.88H63.27v3.49l5.13,5.13H78.65l5.13-5.13V132.48H80.14v-7.69h3.63v-3.24H94Z"/><polygon class="cls-7" points="68.4 94.58 73.52 94.58 77.02 91.09 64.9 91.09 68.4 94.58"/><polygon class="cls-95" points="68.4 94.58 73.52 94.58 77.02 91.09 64.9 91.09 68.4 94.58"/><polygon class="cls-57" points="68.4 94.58 73.52 94.58 77.02 91.09 64.9 91.09 68.4 94.58"/><polygon class="cls-7" points="62.26 83.41 69.15 83.41 69.15 89.86 63.67 89.86 64.9 91.09 77.02 91.09 81.21 86.9 73.52 79.21 61.82 79.21 61.82 89.46 62.26 89.46 62.26 83.41"/><polygon class="cls-96" points="62.26 83.41 69.15 83.41 69.15 89.86 63.67 89.86 64.9 91.09 77.02 91.09 81.21 86.9 73.52 79.21 61.82 79.21 61.82 89.46 62.26 89.46 62.26 83.41"/><polygon class="cls-57" points="62.26 83.41 69.15 83.41 69.15 89.86 63.67 89.86 64.9 91.09 77.02 91.09 81.21 86.9 73.52 79.21 61.82 79.21 61.82 89.46 62.26 89.46 62.26 83.41"/><polygon class="cls-57" points="62.26 83.41 69.15 83.41 69.15 89.86 63.67 89.86 64.9 91.09 77.02 91.09 81.21 86.9 73.52 79.21 61.82 79.21 61.82 89.46 62.26 89.46 62.26 83.41"/><polygon class="cls-7" points="50.7 47.91 50.7 74.2 51.87 74.2 51.87 70.27 53.02 70.27 53.02 63.83 63.19 53.66 63.19 43.97 61.5 43.97 61.5 47.91 50.7 47.91"/><polygon class="cls-97" points="50.7 47.91 50.7 74.2 51.87 74.2 51.87 70.27 53.02 70.27 53.02 63.83 63.19 53.66 63.19 43.97 61.5 43.97 61.5 47.91 50.7 47.91"/><polygon class="cls-57" points="50.7 47.91 50.7 74.2 51.87 74.2 51.87 70.27 53.02 70.27 53.02 63.83 63.19 53.66 63.19 43.97 61.5 43.97 61.5 47.91 50.7 47.91"/><polygon class="cls-57" points="50.7 47.91 50.7 74.2 51.87 74.2 51.87 70.27 53.02 70.27 53.02 63.83 63.19 53.66 63.19 43.97 61.5 43.97 61.5 47.91 50.7 47.91"/><path class="cls-7" d="M94,58.71v5.13h-8.1v1H77V58.71H73.52L63.27,69H78.65l6,6V68.41h8.6v7.42h3.46v8.31H93.82l.2.2v5.13L81.79,101.69v8.74h26.29v-15h10.09v13.15h1.69v-3.94h10.8V93l-9.78-9.78V78.34h-1.34V75.9h-.4V61.45H99.57V42.12H73.28v6.34H83.77Zm18.2,4h6.89v6.45h-6.89Zm-7.84,25.06v7.74H95.44V87.74Z"/><path class="cls-98" d="M94,58.71v5.13h-8.1v1H77V58.71H73.52L63.27,69H78.65l6,6V68.41h8.6v7.42h3.46v8.31H93.82l.2.2v5.13L81.79,101.69v8.74h26.29v-15h10.09v13.15h1.69v-3.94h10.8V93l-9.78-9.78V78.34h-1.34V75.9h-.4V61.45H99.57V42.12H73.28v6.34H83.77Zm18.2,4h6.89v6.45h-6.89Zm-7.84,25.06v7.74H95.44V87.74Z"/><path class="cls-57" d="M94,58.71v5.13h-8.1v1H77V58.71H73.52L63.27,69H78.65l6,6V68.41h8.6v7.42h3.46v8.31H93.82l.2.2v5.13L81.79,101.69v8.74h26.29v-15h10.09v13.15h1.69v-3.94h10.8V93l-9.78-9.78V78.34h-1.34V75.9h-.4V61.45H99.57V42.12H73.28v6.34H83.77Zm18.2,4h6.89v6.45h-6.89Zm-7.84,25.06v7.74H95.44V87.74Z"/><path class="cls-57" d="M94,58.71v5.13h-8.1v1H77V58.71H73.52L63.27,69H78.65l6,6V68.41h8.6v7.42h3.46v8.31H93.82l.2.2v5.13L81.79,101.69v8.74h26.29v-15h10.09v13.15h1.69v-3.94h10.8V93l-9.78-9.78V78.34h-1.34V75.9h-.4V61.45H99.57V42.12H73.28v6.34H83.77Zm18.2,4h6.89v6.45h-6.89Zm-7.84,25.06v7.74H95.44V87.74Z"/><polygon class="cls-7" points="86.4 76.72 88.11 78.43 88.11 76.72 86.4 76.72"/><polygon class="cls-99" points="86.4 76.72 88.11 78.43 88.11 76.72 86.4 76.72"/><polygon class="cls-57" points="86.4 76.72 88.11 78.43 88.11 76.72 86.4 76.72"/><polygon class="cls-57" points="86.4 76.72 88.11 78.43 88.11 76.72 86.4 76.72"/><rect class="cls-7" x="119.14" y="61.45" width="0.4" height="14.44"/><rect class="cls-100" x="119.14" y="61.45" width="0.4" height="14.44"/><rect class="cls-57" x="119.14" y="61.45" width="0.4" height="14.44"/><rect class="cls-57" x="119.14" y="61.45" width="0.4" height="14.44"/><rect class="cls-57" x="119.14" y="61.45" width="0.4" height="14.44"/><path class="cls-7" d="M133.71,144.51h-3v1.61H122v-1.61h-9.61V170.8h9.91v5.46H131v6.62h1.74V172.42H146.8V156.48h1.75v-3.66H152v3.66H157V130.19H137.62v-12h-3.91Zm-13.2,22.56h-4.74v-4.53h4.74Zm18.13-22.56h5.46V150h-5.46Z"/><path class="cls-101" d="M133.71,144.51h-3v1.61H122v-1.61h-9.61V170.8h9.91v5.46H131v6.62h1.74V172.42H146.8V156.48h1.75v-3.66H152v3.66H157V130.19H137.62v-12h-3.91Zm-13.2,22.56h-4.74v-4.53h4.74Zm18.13-22.56h5.46V150h-5.46Z"/><path class="cls-57" d="M133.71,144.51h-3v1.61H122v-1.61h-9.61V170.8h9.91v5.46H131v6.62h1.74V172.42H146.8V156.48h1.75v-3.66H152v3.66H157V130.19H137.62v-12h-3.91Zm-13.2,22.56h-4.74v-4.53h4.74Zm18.13-22.56h5.46V150h-5.46Z"/><path class="cls-57" d="M133.71,144.51h-3v1.61H122v-1.61h-9.61V170.8h9.91v5.46H131v6.62h1.74V172.42H146.8V156.48h1.75v-3.66H152v3.66H157V130.19H137.62v-12h-3.91Zm-13.2,22.56h-4.74v-4.53h4.74Zm18.13-22.56h5.46V150h-5.46Z"/><rect class="cls-7" x="230.07" width="26.29" height="0.99"/><rect class="cls-102" x="230.07" width="26.29" height="0.99"/><rect class="cls-57" x="230.07" width="26.29" height="0.99"/><rect class="cls-7" x="214.5" width="10.01" height="10.92"/><rect class="cls-103" x="214.5" width="10.01" height="10.92"/><rect class="cls-57" x="214.5" width="10.01" height="10.92"/><rect class="cls-7" x="186.86" width="1.34" height="5.13"/><rect class="cls-104" x="186.86" width="1.34" height="5.13"/><rect class="cls-57" x="186.86" width="1.34" height="5.13"/><polygon class="cls-7" points="198.22 5.13 198.22 10.93 214.5 10.93 214.5 0 188.21 0 188.21 5.13 198.22 5.13"/><polygon class="cls-105" points="198.22 5.13 198.22 10.93 214.5 10.93 214.5 0 188.21 0 188.21 5.13 198.22 5.13"/><polygon class="cls-57" points="198.22 5.13 198.22 10.93 214.5 10.93 214.5 0 188.21 0 188.21 5.13 198.22 5.13"/><polygon class="cls-57" points="198.22 5.13 198.22 10.93 214.5 10.93 214.5 0 188.21 0 188.21 5.13 198.22 5.13"/><polygon points="240.84 242.02 240.81 242.02 240.81 243.17 214.52 243.17 214.52 242.02 208.96 242.02 208.96 245.34 244.17 245.34 244.17 222.23 240.84 222.23 240.84 242.02"/><rect x="240.84" y="175.87" width="3.33" height="46.36"/><rect x="214.52" y="242.02" width="26.29" height="1.15"/><rect x="175.52" y="242.02" width="33.44" height="3.33"/><polygon points="39.56 175.87 36.23 175.87 36.23 245.34 106.54 245.34 106.54 242.02 39.56 242.02 39.56 175.87"/><polygon points="36.9 43.97 39.56 43.97 39.56 40.74 43.75 40.74 43.75 37.41 36.23 37.41 36.23 68.41 36.9 68.41 36.9 43.97"/><rect x="43.75" y="37.41" width="62.8" height="3.33"/><polygon points="39.56 106.89 39.56 43.97 36.9 43.97 36.9 68.41 36.23 68.41 36.23 106.89 39.56 106.89"/><rect x="240.84" y="92.85" width="3.33" height="8.19"/><rect x="240.84" y="59.54" width="3.33" height="7.02"/><rect x="177.18" y="38.32" width="6.89" height="2.42"/><rect x="240.84" y="66.55" width="3.33" height="26.29"/><rect x="240.84" y="101.03" width="3.33" height="5.86"/><polygon points="177.15 37.41 177.15 40.74 177.18 40.74 177.18 38.32 184.07 38.32 184.07 40.74 240.84 40.74 240.84 59.54 244.17 59.54 244.17 37.41 177.15 37.41"/><rect x="175.52" y="37.41" width="1.62" height="3.33"/><polygon points="58.36 74.2 53.14 74.2 55.65 76.72 58.36 76.72 58.36 74.2"/><rect x="70.18" y="103.01" width="6.15" height="1.83"/><polygon points="73.28 57.12 73.28 48.46 68.4 48.46 63.19 53.66 63.19 57.12 73.28 57.12"/><polygon points="62.26 89.46 62.26 89.86 63.67 89.86 63.27 89.46 62.26 89.46"/><polygon points="84.65 76.72 86.4 76.72 84.65 74.96 84.65 76.72"/><polygon points="53.14 74.2 58.36 74.2 58.36 70.27 53.02 70.27 53.02 74.08 53.14 74.2"/><polygon points="77.02 91.09 73.52 94.58 68.4 94.58 64.9 91.09 61.82 91.09 61.82 89.46 53.02 89.46 53.02 94.58 63.27 104.83 70.18 104.83 70.18 103.01 76.33 103.01 76.33 104.83 78.65 104.83 81.79 101.69 81.79 91.09 77.02 91.09"/><polygon points="83.77 63.83 85.93 63.83 85.93 57.05 76.99 57.05 76.99 58.71 78.65 58.71 83.77 63.83"/><polygon points="58.36 74.2 58.36 76.72 55.65 76.72 58.15 79.21 61.82 79.21 61.82 74.2 58.36 74.2"/><polygon points="88.11 84.14 93.82 84.14 88.11 78.43 88.11 84.14"/><polygon points="53.02 70.27 58.36 70.27 58.36 74.2 61.82 74.2 61.82 79.21 73.52 79.21 81.21 86.9 77.02 91.09 81.79 91.09 81.79 101.69 94.02 89.46 94.02 84.33 93.82 84.14 88.11 84.14 88.11 78.43 86.4 76.72 84.65 76.72 84.65 74.96 78.65 68.96 63.27 68.96 73.52 58.71 76.99 58.71 76.99 57.05 85.93 57.05 85.93 63.83 94.02 63.83 94.02 58.71 83.77 48.46 73.28 48.46 73.28 57.12 63.19 57.12 63.19 53.66 53.02 63.83 53.02 70.27"/><polygon points="64.9 91.09 63.67 89.86 62.26 89.86 62.26 89.46 61.82 89.46 61.82 91.09 64.9 91.09"/><rect x="123.01" y="75.9" width="6.05" height="2.44"/><rect x="145.43" y="52.39" width="5.42" height="2.68"/><rect x="155.79" y="57.91" width="3.02" height="3.77"/><rect x="137.48" y="47.39" width="3.02" height="2.14"/><polygon points="140.5 49.53 137.48 49.53 137.48 47.39 131.13 47.39 128.92 49.6 140.5 49.6 140.5 49.53"/><rect x="120.89" y="75.9" width="2.12" height="2.44"/><polygon points="144.24 93.52 144.24 87.98 137.75 87.98 137.75 83.27 136.26 83.27 134.35 81.35 130.67 81.35 130.67 93.05 131.13 93.52 144.24 93.52"/><rect x="155.35" y="57.91" width="0.44" height="3.77"/><polygon points="150.85 55.06 150.89 55.06 150.89 49.6 145.43 49.6 145.43 52.39 150.85 52.39 150.85 55.06"/><rect x="140.5" y="47.39" width="0.44" height="2.14"/><polygon points="155.79 57.91 158.81 57.91 158.81 61.69 155.79 61.69 155.79 84.14 144.47 84.14 144.47 93.52 151.64 93.52 151.64 93.79 161.89 93.79 161.89 57.84 155.79 57.84 155.79 57.91"/><polygon points="146.72 57.84 150.85 57.84 150.85 55.06 145.43 55.06 145.43 52.39 145.4 52.39 145.4 57.64 146.51 57.64 146.72 57.84"/><polygon points="129.06 78.34 129.5 78.34 129.5 75.83 123.01 75.83 123.01 75.9 129.06 75.9 129.06 78.34"/><polygon points="120.89 75.9 123.01 75.9 123.01 75.83 129.5 75.83 129.5 78.34 130.67 78.34 130.67 81.35 134.35 81.35 131.13 78.14 131.13 62.77 136.26 57.64 145.4 57.64 145.4 52.39 145.43 52.39 145.43 49.6 150.89 49.6 150.89 55.06 150.85 55.06 150.85 57.84 146.72 57.84 151.64 62.77 151.64 78.14 146.51 83.27 137.75 83.27 137.75 87.98 144.24 87.98 144.24 93.52 144.47 93.52 144.47 84.14 155.79 84.14 155.79 61.69 155.35 61.69 155.35 57.91 155.79 57.91 155.79 57.84 161.89 57.84 161.89 57.64 151.64 47.39 140.94 47.39 140.94 49.53 140.5 49.53 140.5 49.6 128.92 49.6 120.89 57.64 120.89 75.9"/><rect x="151.64" y="110.24" width="10.25" height="3.78"/><rect x="151.64" y="93.79" width="10.25" height="16.45"/><polygon points="129.06 78.34 123.01 78.34 123.01 82.28 129.5 82.28 129.5 81.35 129.06 81.35 129.06 78.34"/><polygon points="129.5 81.35 129.5 82.28 123.01 82.28 123.01 78.34 120.89 78.34 120.89 83.27 130.67 93.05 130.67 81.35 129.5 81.35"/><rect x="129.06" y="78.34" width="0.44" height="3.02"/><rect x="129.5" y="78.34" width="1.17" height="3.02"/><rect x="83.77" y="124.79" width="3.92" height="7.69"/><polygon points="76.33 158.77 76.33 167.68 83.77 167.68 89.48 161.97 89.48 158.77 76.33 158.77"/><rect x="58.36" y="134.92" width="4.91" height="13.88"/><polygon points="83.77 124.79 87.69 124.79 87.69 132.48 83.77 132.48 83.77 152.3 78.65 157.43 68.4 157.43 63.27 152.3 63.27 148.81 58.36 148.81 58.36 134.92 63.27 134.92 63.27 121.55 53.02 121.55 53.02 157.43 63.27 167.68 76.33 167.68 76.33 158.77 89.48 158.77 89.48 161.97 94.02 157.43 94.02 121.55 83.77 121.55 83.77 124.79"/><polygon points="227.99 155.94 228.5 155.42 228.5 154.44 227.99 154.44 227.99 155.94"/><polygon points="197.75 119.55 192.78 124.53 192.78 126.12 201.38 126.12 201.38 119.55 197.75 119.55"/><rect x="203.57" y="137.56" width="8.94" height="7.62"/><rect x="192.78" y="126.12" width="8.6" height="0.41"/><polygon points="221.32 148.26 221.32 134.29 217.62 134.29 218.25 134.92 215.76 134.92 215.76 147.8 218.25 150.3 215.76 152.8 215.76 158.2 190.28 158.2 197.75 165.68 218.25 165.68 227.99 155.94 227.99 154.44 228.5 154.44 228.5 148.26 221.32 148.26"/><polygon points="189.47 157.39 189.47 152.41 187.5 152.41 187.5 155.42 189.47 157.39"/><polygon points="192.78 126.12 192.78 124.53 191.26 126.05 191.26 126.12 192.78 126.12"/><rect x="201.38" y="119.55" width="3.02" height="6.57"/><polygon points="213.13 129.8 217.62 134.29 221.32 134.29 221.32 148.26 228.5 148.26 228.5 129.8 218.25 119.55 204.4 119.55 204.4 126.12 201.38 126.12 201.38 126.53 192.78 126.53 192.78 126.12 191.26 126.12 191.26 126.05 187.5 129.8 187.5 134.92 197.75 134.92 202.88 129.8 213.13 129.8"/><polygon points="189.47 157.39 190.28 158.2 215.76 158.2 215.76 152.8 213.13 155.42 202.88 155.42 197.75 150.3 202.88 145.17 203.57 145.17 203.57 137.56 212.5 137.56 212.5 145.17 213.13 145.17 215.76 147.8 215.76 134.92 197.75 134.92 187.5 145.17 187.5 152.41 189.47 152.41 189.47 157.39"/><rect x="223.9" y="214.41" width="4.61" height="2.47"/><polygon points="197.6 208.58 187.5 208.58 187.5 209.28 187.5 219.53 189 221.02 197.6 221.02 197.6 208.58"/><rect x="208.96" y="229.19" width="5.56" height="0.59"/><path d="M214.52,229.19v.59h3.73l10.25-10.25v-2.65H223.9v-2.47h-5.64l-5.13,5.13H202.88l-5.13-5.13v-5.13h25.63l5.13-5.13V193.9l-10.25-10.25h-20.5L187.5,193.9v14.68h10.1V221H189l8.76,8.76H209v-.59ZM202.88,193.9h10.25l5.13,5.13h-20.5Z"/><polygon points="137.44 196.84 137.44 188.6 132.69 193.35 132.69 193.36 132.68 193.36 131.13 194.91 131.13 193.36 120.89 193.36 120.89 230.78 131.13 230.78 131.13 210.28 140.19 201.22 140.19 196.84 137.44 196.84"/><polygon points="151.64 200.03 161.89 200.03 161.89 194.91 151.64 184.66 141.38 184.66 137.44 188.6 137.44 196.84 140.19 196.84 140.19 201.22 146.51 194.91 151.64 200.03"/><polygon points="132.69 193.36 132.69 193.35 132.68 193.36 132.69 193.36"/><rect x="120.89" y="184.66" width="10.25" height="8.7"/><path d="M187.9,254l-4.13,4.13h-4.13v-6.19h3v-4.13h-7.15v22.7H187.9l4.13-4.13V260.2L190,258.13l2.06-2.06v-3H187.9Zm0,10.32-2.06,2.06h-6.19v-4.13h8.25Z"/><polygon points="189.97 247.81 182.67 247.81 182.67 251.94 187.9 251.94 187.9 253.11 192.03 253.11 192.03 249.88 189.97 247.81"/><polygon points="225.05 251.87 220.92 256 220.92 251.87 216.79 251.87 216.79 270.44 220.92 270.44 220.92 262.19 227.11 256 229.18 258.06 233.3 258.06 233.3 256 229.18 251.87 225.05 251.87"/><polygon points="245.68 251.87 241.56 256 241.56 251.87 237.43 251.87 237.43 270.44 241.56 270.44 241.56 262.19 247.75 256 249.81 258.06 253.94 258.06 253.94 256 249.81 251.87 245.68 251.87"/><path d="M199,253.11,196.16,256v10.32l4.13,4.13h8.25l4.13-4.13v-2.06h-4.13l-2.06,2.06h-4.13l-2.06-2.06v-2.06H210.6l2.06-2.06V256L209,252.29v.81Zm1.24,5,2.06-2.06h4.13l2.06,2.06Z"/><polygon points="200.28 251.87 199.05 253.11 208.96 253.11 208.96 252.29 208.54 251.87 200.28 251.87"/><polygon points="270.45 264.25 268.38 266.31 266.32 266.31 262.19 262.19 262.19 251.87 258.06 256 258.06 264.25 268.38 274.57 260.13 274.57 258.06 276.63 258.06 278.7 270.45 278.7 272.51 276.63 272.51 272.51 270.45 270.44 274.57 266.31 274.57 256 270.45 251.87 270.45 264.25"/></g></g></svg>