<svg xmlns="http://www.w3.org/2000/svg" xmlns:xlink="http://www.w3.org/1999/xlink" viewBox="0 0 639.53 639.53"><defs><style>.cls-1{fill:url(#linear-gradient);}.cls-2{fill:#fff;}</style><linearGradient id="linear-gradient" x1="20.49" y1="319.77" x2="619.05" y2="319.77" gradientUnits="userSpaceOnUse"><stop offset="0" stop-color="#606899"/><stop offset="0.5" stop-color="#95a5af"/><stop offset="1" stop-color="#f7941d"/></linearGradient></defs><title>sunsets_square</title><g id="Layer_2" data-name="Layer 2"><g id="Layer_1-2" data-name="Layer 1"><rect class="cls-1" x="20.49" y="40.7" width="598.56" height="558.14"/><path class="cls-2" d="M0,0V639.53H639.53V0ZM64,399.38c-24.05,0-36.52-14.25-36.52-39.2v-9.58H50.63v11.13c0,11.14,4.9,15.14,12.69,15.14S76,372.88,76,361.75c0-32.07-47.88-38.08-47.88-82.62,0-24.94,12.25-39.2,36.08-39.2s36.08,14.25,36.08,39.2V284H77.13v-6.46c0-11.13-4.45-15.37-12.25-15.37s-12.25,4.23-12.25,15.37c0,32.07,47.88,38.08,47.88,82.62C100.52,385.13,88,399.38,64,399.38Zm122.49-39c0,24.94-12.47,39.2-36.52,39.2s-36.52-14.25-36.52-39.2V241.71h24.5V362c0,11.13,4.9,15.14,12.69,15.14s12.69-4,12.69-15.14V241.71h23.16Zm94.2,37.19H255.52L225,284.69V397.6H203V241.71h30.73L258.86,335V241.71h21.82ZM331,399.38c-24.05,0-36.52-14.25-36.52-39.2v-9.58h23.16v11.13c0,11.14,4.9,15.14,12.69,15.14s12.69-4,12.69-15.14c0-32.07-47.88-38.08-47.88-82.62,0-24.94,12.25-39.2,36.08-39.2s36.08,14.25,36.08,39.2V284H344.15v-6.46c0-11.13-4.45-15.37-12.25-15.37s-12.25,4.23-12.25,15.37c0,32.07,47.88,38.08,47.88,82.62C367.54,385.13,355.07,399.38,331,399.38ZM448.38,264H406.06v43.43h33.63v22.27H406.06v45.65h42.31V397.6H381.57V241.71h66.81Zm83.74,0H506.5V397.6H482V264H456.4V241.71h75.72Zm43.43,135.4c-24.05,0-36.52-14.25-36.52-39.2v-9.58h23.16v11.13c0,11.14,4.9,15.14,12.69,15.14s12.69-4,12.69-15.14c0-32.07-47.88-38.08-47.88-82.62,0-24.94,12.25-39.2,36.08-39.2s36.08,14.25,36.08,39.2V284H588.68v-6.46c0-11.13-4.45-15.37-12.25-15.37s-12.25,4.23-12.25,15.37c0,32.07,47.88,38.08,47.88,82.62C612.06,385.13,599.59,399.38,575.54,399.38Z"/></g></g></svg>