<svg xmlns="http://www.w3.org/2000/svg" viewBox="0 0 649.19 649.19"><defs><style>.cls-1{fill:#cdaf70;}.cls-2{fill:#fff;}.cls-3{fill:#26294c;}.cls-4{fill:#ed2024;}.cls-5{fill:#ce2527;}.cls-6{fill:#cb2227;}.cls-7{fill:#ffdcb1;}.cls-8{fill:#190b0c;}.cls-9{fill:#7a3418;}.cls-10{fill:#218fb7;}.cls-11{fill:#ffe1b2;}.cls-12{fill:#ffe500;}.cls-13{fill:#d9884a;}.cls-14{fill:#174da1;}.cls-15{fill:#fee400;}.cls-16{fill:#ad5e27;}.cls-17{fill:#c6c4d2;}.cls-18{fill:none;}.cls-19{fill:#fdd1a9;}.cls-20{fill:#fcef59;}.cls-21{fill:#faf071;}.cls-22{fill:#6971b5;}.cls-23{fill:#62606b;}</style></defs><title>Asset 2</title><g id="Layer_2" data-name="Layer 2"><g id="Layer_1-2" data-name="Layer 1"><rect class="cls-1" width="649.19" height="649.19"/><path class="cls-2" d="M193.58,620.89a9.67,9.67,0,0,0,1,3.69,7.3,7.3,0,0,0,2,2.47,8.06,8.06,0,0,0,2.88,1.38,13.59,13.59,0,0,0,3.49.43,11.6,11.6,0,0,0,3.76-.54,7.13,7.13,0,0,0,2.58-1.47,5.8,5.8,0,0,0,1.47-2.15,7,7,0,0,0,.48-2.58,5.11,5.11,0,0,0-.86-3.08,6.65,6.65,0,0,0-2.24-1.93,13.82,13.82,0,0,0-3.17-1.2q-1.79-.45-3.67-.88t-3.67-1a11.52,11.52,0,0,1-3.17-1.58,7.66,7.66,0,0,1-2.24-2.56,8.13,8.13,0,0,1-.86-4,8,8,0,0,1,.7-3.26,8.13,8.13,0,0,1,2.08-2.81,10.21,10.21,0,0,1,3.47-1.95,14.6,14.6,0,0,1,4.8-.72,13.79,13.79,0,0,1,4.83.77,9.6,9.6,0,0,1,3.42,2.11,8.69,8.69,0,0,1,2,3.1,10.39,10.39,0,0,1,.68,3.76h-2.94a7.32,7.32,0,0,0-.66-3.22,6,6,0,0,0-1.79-2.22,7.66,7.66,0,0,0-2.58-1.27,11,11,0,0,0-3-.41,10.53,10.53,0,0,0-4,.66,7,7,0,0,0-2.56,1.7,5.78,5.78,0,0,0-1.31,2.31,5.53,5.53,0,0,0-.14,2.54,4.41,4.41,0,0,0,1.27,2.54,8,8,0,0,0,2.45,1.56,18.42,18.42,0,0,0,3.19,1q1.74.38,3.56.82a36.36,36.36,0,0,1,3.51,1,10.87,10.87,0,0,1,3,1.58,7.34,7.34,0,0,1,2.11,2.56,8.63,8.63,0,0,1,.79,3.92,8.47,8.47,0,0,1-3.13,7q-3.13,2.49-8.79,2.49a16.22,16.22,0,0,1-4.71-.66,10.4,10.4,0,0,1-3.76-2,9.12,9.12,0,0,1-2.47-3.31,11.25,11.25,0,0,1-.88-4.64Z"/><path class="cls-2" d="M235.48,607.17h2.72v23.47h-2.72v-3.26c-.36.42-.77.86-1.22,1.31a9.25,9.25,0,0,1-1.56,1.25,8.92,8.92,0,0,1-2.06,1,8.75,8.75,0,0,1-2.72.39,10.35,10.35,0,0,1-3.94-.66,6.46,6.46,0,0,1-2.56-1.84A7.22,7.22,0,0,1,220,626a12.82,12.82,0,0,1-.43-3.42V607.17h2.72v15.4a6.85,6.85,0,0,0,1.41,4.64q1.4,1.61,4.62,1.61a6.74,6.74,0,0,0,3-.66,6.27,6.27,0,0,0,2.24-1.84,8.73,8.73,0,0,0,1.41-2.81,12.27,12.27,0,0,0,.5-3.58Z"/><path class="cls-2" d="M247.81,639.88h-2.72V607.17h2.72v4.12h.09a8,8,0,0,1,1.52-2,8.85,8.85,0,0,1,2-1.49,11,11,0,0,1,2.29-.91,8.87,8.87,0,0,1,2.31-.32,11.18,11.18,0,0,1,4.85,1,9,9,0,0,1,3.28,2.61,10.63,10.63,0,0,1,1.88,3.92,19.21,19.21,0,0,1,.59,4.85,17.39,17.39,0,0,1-.63,4.71,11.67,11.67,0,0,1-1.93,4,9.53,9.53,0,0,1-3.26,2.72,10,10,0,0,1-4.64,1,10.82,10.82,0,0,1-4.78-1.11,8.41,8.41,0,0,1-3.6-3.28Zm0-20.88a13,13,0,0,0,.54,3.78,9.83,9.83,0,0,0,1.56,3.13A7.7,7.7,0,0,0,252.4,628a6.92,6.92,0,0,0,3.33.79,7.61,7.61,0,0,0,3.65-.84,7.18,7.18,0,0,0,2.56-2.29,9.87,9.87,0,0,0,1.45-3.37,15.3,15.3,0,0,0,.36-4.15,11.55,11.55,0,0,0-.61-3.92,8.34,8.34,0,0,0-1.7-2.88,7.27,7.27,0,0,0-2.54-1.79,8.08,8.08,0,0,0-3.17-.61,7.32,7.32,0,0,0-3.4.77,7.16,7.16,0,0,0-2.49,2.11,9.65,9.65,0,0,0-1.52,3.17A14.45,14.45,0,0,0,247.81,619Z"/><path class="cls-2" d="M274.13,619.54a12.71,12.71,0,0,0,.5,3.6,8.7,8.7,0,0,0,1.47,2.94,7.11,7.11,0,0,0,2.47,2,7.62,7.62,0,0,0,3.44.75,7.5,7.5,0,0,0,4.58-1.4,6.77,6.77,0,0,0,2.54-4h3a14.67,14.67,0,0,1-1.31,3.1,9.54,9.54,0,0,1-2,2.49,8.77,8.77,0,0,1-2.9,1.65,11.74,11.74,0,0,1-3.9.59,11.36,11.36,0,0,1-4.85-1,9.13,9.13,0,0,1-3.35-2.6,11,11,0,0,1-1.95-3.9,17.66,17.66,0,0,1-.63-4.82,15.32,15.32,0,0,1,.75-4.85,12.29,12.29,0,0,1,2.13-4,9.89,9.89,0,0,1,3.37-2.67,10.18,10.18,0,0,1,4.53-1,9.36,9.36,0,0,1,7.61,3.33q2.76,3.33,2.72,9.67Zm15.31-2.27A10.77,10.77,0,0,0,289,614a7.57,7.57,0,0,0-1.4-2.63,6.71,6.71,0,0,0-2.33-1.77A7.53,7.53,0,0,0,282,609a7.15,7.15,0,0,0-3.19.68,7.39,7.39,0,0,0-2.36,1.81,9.09,9.09,0,0,0-1.56,2.63,12.15,12.15,0,0,0-.77,3.17Z"/><path class="cls-2" d="M300.49,630.63h-2.72V607.17h2.72v4.39h.09a7.86,7.86,0,0,1,2.92-3.92,8.88,8.88,0,0,1,4.73-1.11v2.95a7.94,7.94,0,0,0-3.81.72,6.29,6.29,0,0,0-2.38,2.08,8.29,8.29,0,0,0-1.22,3.1,20.13,20.13,0,0,0-.34,3.74Z"/><path class="cls-2" d="M325.59,630.63V598h4.71L341,626.78h.09L351.59,598h4.67v32.62h-3.08V601.55h-.09L342.4,630.63h-2.9l-10.74-29.08h-.09v29.08Z"/><path class="cls-2" d="M373.84,617q.77-.09,1.83-.27a6.89,6.89,0,0,0,1.74-.5,1.44,1.44,0,0,0,.84-1.06,6.75,6.75,0,0,0,.16-1.38,4.63,4.63,0,0,0-1.34-3.42q-1.34-1.34-4.51-1.34a12.57,12.57,0,0,0-2.58.25,5.64,5.64,0,0,0-2.06.86,4.75,4.75,0,0,0-1.45,1.63,6.91,6.91,0,0,0-.75,2.56H363a8.39,8.39,0,0,1,1-3.56,7.2,7.2,0,0,1,2.11-2.4,8.72,8.72,0,0,1,3-1.36,14.59,14.59,0,0,1,3.6-.43,13.9,13.9,0,0,1,3.33.39,7.76,7.76,0,0,1,2.72,1.22,5.71,5.71,0,0,1,1.81,2.24,8.14,8.14,0,0,1,.66,3.44V626.6c0,1.06.19,1.73.57,2s1.14.22,2.29-.2v2.13l-.93.27a4.24,4.24,0,0,1-1.2.18,5.39,5.39,0,0,1-1.22-.14,2.11,2.11,0,0,1-1.09-.43,2.65,2.65,0,0,1-.66-.82,3.32,3.32,0,0,1-.34-1,7.64,7.64,0,0,1-.09-1.2,11.8,11.8,0,0,1-3.94,2.9,11.58,11.58,0,0,1-4.8,1,10.75,10.75,0,0,1-3-.41,7.14,7.14,0,0,1-2.51-1.27,6.25,6.25,0,0,1-1.72-2.11,6.43,6.43,0,0,1-.64-3q0-6,8.2-7.07Zm4.58,1.36a13.32,13.32,0,0,1-3.49,1q-1.77.23-3.53.36a10,10,0,0,0-4.87,1.4,4,4,0,0,0-1.74,3.58,3.87,3.87,0,0,0,.43,1.88,3.94,3.94,0,0,0,1.13,1.31,4.75,4.75,0,0,0,1.63.77,7.21,7.21,0,0,0,1.88.25,12.31,12.31,0,0,0,3.17-.41,8.56,8.56,0,0,0,2.74-1.25,6.35,6.35,0,0,0,1.93-2.13,6.15,6.15,0,0,0,.73-3.06Z"/><path class="cls-2" d="M391.1,630.63h-2.72V607.17h2.72v4.39h.09a7.86,7.86,0,0,1,2.92-3.92,8.88,8.88,0,0,1,4.73-1.11v2.95a7.94,7.94,0,0,0-3.81.72,6.29,6.29,0,0,0-2.38,2.08,8.29,8.29,0,0,0-1.22,3.1,20.13,20.13,0,0,0-.34,3.74Z"/><path class="cls-2" d="M403.6,602v-4h3v4Zm.14,28.59V607.17h2.72v23.47Z"/><path class="cls-2" d="M422.72,631.27a12.22,12.22,0,0,1-4.24-.82,9.47,9.47,0,0,1-3.44-2.31,11,11,0,0,1-2.33-3.85,15.44,15.44,0,0,1-.86-5.39,16.56,16.56,0,0,1,.68-4.82,11.34,11.34,0,0,1,2-3.92,9.69,9.69,0,0,1,3.4-2.65,10.92,10.92,0,0,1,4.76-1,11.05,11.05,0,0,1,4.8,1,9.81,9.81,0,0,1,3.4,2.63,10.84,10.84,0,0,1,2,3.92,17.33,17.33,0,0,1,.66,4.85,15.64,15.64,0,0,1-.77,5.07,11.41,11.41,0,0,1-2.2,3.9,9.68,9.68,0,0,1-3.44,2.51A11,11,0,0,1,422.72,631.27Zm8-12.37a16,16,0,0,0-.45-3.9,9.27,9.27,0,0,0-1.4-3.15,6.77,6.77,0,0,0-2.45-2.11,8,8,0,0,0-3.67-.77,7.46,7.46,0,0,0-3.65.84A7.14,7.14,0,0,0,416.6,612a9.77,9.77,0,0,0-1.41,3.17,15,15,0,0,0-.45,3.69,14.62,14.62,0,0,0,.52,4,9.38,9.38,0,0,0,1.52,3.15,6.8,6.8,0,0,0,2.49,2,7.8,7.8,0,0,0,3.44.72,7.44,7.44,0,0,0,3.65-.84,7.07,7.07,0,0,0,2.47-2.24,10.11,10.11,0,0,0,1.4-3.17A14.67,14.67,0,0,0,430.69,618.9Z"/><path class="cls-2" d="M452.84,620.89a9.67,9.67,0,0,0,1,3.69,7.3,7.3,0,0,0,2,2.47,8.06,8.06,0,0,0,2.88,1.38,13.59,13.59,0,0,0,3.49.43,11.6,11.6,0,0,0,3.76-.54,7.13,7.13,0,0,0,2.58-1.47A5.8,5.8,0,0,0,470,624.7a7,7,0,0,0,.48-2.58,5.11,5.11,0,0,0-.86-3.08,6.65,6.65,0,0,0-2.24-1.93,13.82,13.82,0,0,0-3.17-1.2q-1.79-.45-3.67-.88t-3.67-1a11.52,11.52,0,0,1-3.17-1.58,7.66,7.66,0,0,1-2.24-2.56,8.13,8.13,0,0,1-.86-4,8,8,0,0,1,.7-3.26,8.13,8.13,0,0,1,2.08-2.81,10.21,10.21,0,0,1,3.47-1.95,14.6,14.6,0,0,1,4.8-.72,13.79,13.79,0,0,1,4.83.77,9.6,9.6,0,0,1,3.42,2.11,8.69,8.69,0,0,1,2,3.1,10.39,10.39,0,0,1,.68,3.76h-2.94a7.32,7.32,0,0,0-.66-3.22,6,6,0,0,0-1.79-2.22,7.66,7.66,0,0,0-2.58-1.27,11,11,0,0,0-3-.41,10.53,10.53,0,0,0-4,.66,7,7,0,0,0-2.56,1.7,5.78,5.78,0,0,0-1.31,2.31,5.53,5.53,0,0,0-.14,2.54,4.41,4.41,0,0,0,1.27,2.54,8,8,0,0,0,2.45,1.56,18.42,18.42,0,0,0,3.19,1q1.74.38,3.56.82a36.36,36.36,0,0,1,3.51,1,10.87,10.87,0,0,1,3,1.58,7.34,7.34,0,0,1,2.11,2.56,8.63,8.63,0,0,1,.79,3.92,8.47,8.47,0,0,1-3.13,7q-3.13,2.49-8.79,2.49a16.22,16.22,0,0,1-4.71-.66,10.4,10.4,0,0,1-3.76-2,9.12,9.12,0,0,1-2.47-3.31,11.25,11.25,0,0,1-.88-4.64Z"/><path class="cls-2" d="M494.75,607.17h2.72v23.47h-2.72v-3.26c-.36.42-.77.86-1.22,1.31a9.25,9.25,0,0,1-1.56,1.25,8.92,8.92,0,0,1-2.06,1,8.75,8.75,0,0,1-2.72.39,10.35,10.35,0,0,1-3.94-.66,6.46,6.46,0,0,1-2.56-1.84,7.22,7.22,0,0,1-1.4-2.74,12.82,12.82,0,0,1-.43-3.42V607.17h2.72v15.4a6.85,6.85,0,0,0,1.41,4.64q1.4,1.61,4.62,1.61a6.74,6.74,0,0,0,3-.66,6.27,6.27,0,0,0,2.24-1.84,8.73,8.73,0,0,0,1.41-2.81,12.27,12.27,0,0,0,.5-3.58Z"/><path class="cls-2" d="M506.75,630.63H504V607.17h2.72v3.26a17.35,17.35,0,0,1,3.37-2.81,7.76,7.76,0,0,1,4.19-1.09,10.71,10.71,0,0,1,4,.75,6.88,6.88,0,0,1,3.13,2.61,5.84,5.84,0,0,1,1,2.6,23.79,23.79,0,0,1,.16,2.79v15.36h-2.72V615.32a7,7,0,0,0-1.4-4.76q-1.41-1.59-4.67-1.59a6.61,6.61,0,0,0-2.31.39,7.28,7.28,0,0,0-1.88,1,6.83,6.83,0,0,0-1.43,1.45,6.67,6.67,0,0,0-.91,1.72,8.59,8.59,0,0,0-.5,2.18q-.09,1-.09,2.26Z"/><path class="cls-2" d="M530.81,623.3a6.89,6.89,0,0,0,2.29,4.28,7.74,7.74,0,0,0,4.73,1.25,8.21,8.21,0,0,0,2.58-.36,5.19,5.19,0,0,0,1.79-1,4.18,4.18,0,0,0,1.06-1.38,3.77,3.77,0,0,0,.36-1.63,3,3,0,0,0-1.11-2.56,8.38,8.38,0,0,0-2.79-1.31,35.77,35.77,0,0,0-3.63-.82,17.69,17.69,0,0,1-3.62-1,7.26,7.26,0,0,1-2.79-1.95,5.26,5.26,0,0,1-1.11-3.58,6.12,6.12,0,0,1,2.15-4.83,9,9,0,0,1,6.09-1.88,10.4,10.4,0,0,1,6.18,1.7q2.38,1.7,2.88,5.69h-2.76a5.08,5.08,0,0,0-2.06-3.83,7.67,7.67,0,0,0-4.28-1.11,6.09,6.09,0,0,0-3.94,1.11,3.58,3.58,0,0,0-1.36,2.92,2.85,2.85,0,0,0,1.11,2.42,9,9,0,0,0,2.79,1.36q1.67.52,3.62.93a17.81,17.81,0,0,1,3.63,1.16,8,8,0,0,1,2.79,2,5.2,5.2,0,0,1,1.11,3.53,6,6,0,0,1-.72,3,6.33,6.33,0,0,1-2,2.15,9.27,9.27,0,0,1-3,1.29,16,16,0,0,1-3.83.43,10.33,10.33,0,0,1-3.69-.61,8,8,0,0,1-2.74-1.7,7.83,7.83,0,0,1-1.77-2.54,8.93,8.93,0,0,1-.73-3.13Z"/><path class="cls-2" d="M551.88,630.63V598h2.72v12.41a17.35,17.35,0,0,1,3.37-2.81,7.76,7.76,0,0,1,4.19-1.09,10.71,10.71,0,0,1,4,.75,6.88,6.88,0,0,1,3.13,2.61,5.84,5.84,0,0,1,1,2.6,23.79,23.79,0,0,1,.16,2.79v15.36h-2.72V615.32a7,7,0,0,0-1.4-4.76Q565,609,561.7,609a6.61,6.61,0,0,0-2.31.39,7.28,7.28,0,0,0-1.88,1,6.83,6.83,0,0,0-1.43,1.45,6.67,6.67,0,0,0-.91,1.72,8.59,8.59,0,0,0-.5,2.18q-.09,1-.09,2.26v12.64Z"/><path class="cls-2" d="M577.33,602v-4h3v4Zm.14,28.59V607.17h2.72v23.47Z"/><path class="cls-2" d="M589.84,630.63h-2.72V607.17h2.72v3.26a17.35,17.35,0,0,1,3.37-2.81,7.76,7.76,0,0,1,4.19-1.09,10.71,10.71,0,0,1,4,.75,6.88,6.88,0,0,1,3.13,2.61,5.84,5.84,0,0,1,1,2.6,23.79,23.79,0,0,1,.16,2.79v15.36H603V615.32a7,7,0,0,0-1.4-4.76q-1.41-1.59-4.67-1.59a6.61,6.61,0,0,0-2.31.39,7.28,7.28,0,0,0-1.88,1,6.83,6.83,0,0,0-1.43,1.45,6.67,6.67,0,0,0-.91,1.72,8.59,8.59,0,0,0-.5,2.18q-.09,1-.09,2.26Z"/><path class="cls-2" d="M614,619.54a12.71,12.71,0,0,0,.5,3.6,8.7,8.7,0,0,0,1.47,2.94,7.11,7.11,0,0,0,2.47,2,7.62,7.62,0,0,0,3.44.75,7.5,7.5,0,0,0,4.58-1.4,6.77,6.77,0,0,0,2.54-4h3a14.67,14.67,0,0,1-1.31,3.1,9.54,9.54,0,0,1-2,2.49,8.77,8.77,0,0,1-2.9,1.65,11.74,11.74,0,0,1-3.9.59,11.36,11.36,0,0,1-4.85-1,9.13,9.13,0,0,1-3.35-2.6,11,11,0,0,1-1.95-3.9,17.66,17.66,0,0,1-.63-4.82,15.32,15.32,0,0,1,.75-4.85,12.29,12.29,0,0,1,2.13-4,9.89,9.89,0,0,1,3.37-2.67,10.18,10.18,0,0,1,4.53-1,9.36,9.36,0,0,1,7.61,3.33q2.76,3.33,2.72,9.67Zm15.31-2.27a10.77,10.77,0,0,0-.48-3.24,7.57,7.57,0,0,0-1.4-2.63,6.71,6.71,0,0,0-2.33-1.77,7.53,7.53,0,0,0-3.21-.66,7.15,7.15,0,0,0-3.19.68,7.39,7.39,0,0,0-2.36,1.81,9.09,9.09,0,0,0-1.56,2.63,12.15,12.15,0,0,0-.77,3.17Z"/><polygon class="cls-3" points="499.17 360.33 441.89 360.27 417.14 360.27 411.14 360.27 407.54 361.4 393.12 367.24 378.36 373.24 363.81 379.23 349.25 385.23 337.63 390.28 327.36 395.01 327.04 395.17 317.24 399.9 308.03 404.64 299.6 409.37 294.98 412.15 291.75 414.1 291.75 414.1 282.17 417.57 267.54 423.1 254.03 428.78 244.11 433.37 178.18 446.66 156.74 484.59 203.14 472.71 245.04 449.44 244.72 443.87 244.73 443.96 245.04 449.44 250.55 447.24 260.63 443.29 267.12 440.93 280.36 436.35 284.82 434.77 286.31 434.61 295.85 431.3 307.59 426.88 316.92 423.25 329.31 418.2 341.42 412.68 350.88 408.11 356.08 405.43 357.32 404.79 363.17 401.48 373.35 396.75 374.07 398.17 374.88 399.59 373.4 401.64 370.44 403.85 362.76 408.26 352.62 413.63 336.14 422.31 319.86 430.99 310.24 436.19 302.33 440.77 297.5 443.7 294.02 445.82 289.09 449.29 286.3 451.97 284.32 453.7 280.35 456.07 270.03 461.75 256.57 468.73 257.86 471.46 259.88 474.71 261.67 477.74 264.03 479.54 265.15 481.33 265.04 483.69 264.7 485.49 266.05 487.51 268.52 490.76 271.66 495.03 274.36 500.19 276.82 506.25 277.5 510.06 277.5 514.55 277.05 517.92 275.81 521.74 274.36 524.43 273.35 525.66 286.37 522.27 301.53 515.95 309.42 509.95 315.42 502.06 317 492.58 316.37 486.58 313.21 479 309.74 467.95 308.52 466.73 312.03 464.75 321.84 458.75 329.26 454.18 334.03 451.34 334.03 451.34 339.6 448.81 346.62 445.5 349.31 443.92 350.92 442.98 354.16 440.45 361.5 436.19 369.32 431.62 380.1 425.62 394.31 417.89 403.26 413 407.95 410.33 410.48 408.9 415.46 405.58 419.32 402.9 421.88 401.17 438.72 392.96 460.55 382.23 478.77 373.55 494.32 366.3 506.11 360.27 499.17 360.33"/><polygon class="cls-3" points="406.78 342.89 407.21 344.79 406.78 342.89 406.78 342.89"/><polygon class="cls-3" points="408.48 347.83 409.05 348.68 409.78 349.28 409.05 348.68 408.48 347.83"/><polygon class="cls-3" points="410.67 350.01 410.48 351.72 410.67 350.01 410.67 350.01"/><polygon class="cls-3" points="413.31 352.57 412.31 350.31 412.56 351.69 413.31 352.57"/><polygon class="cls-3" points="415.32 354.71 413.31 352.57 413.99 353.83 415.32 354.71"/><polygon class="cls-3" points="368.36 351.53 368.93 353.9 369.87 355.8 368.93 353.9 368.36 351.53"/><polygon class="cls-3" points="383.53 283.98 383.72 281.23 384.67 278.39 383.72 281.23 383.53 283.98 383.53 286.54 384.29 289.3 383.53 286.54 383.53 283.98"/><polygon class="cls-3" points="383.53 272.98 383.91 270.89 383.53 272.98 383.53 274.69 383.85 276.27 383.53 274.69 383.53 272.98"/><polygon class="cls-3" points="369.78 346.4 370.63 344.03 368.36 343.46 370.63 344.03 369.78 346.4 368.93 349.06 368.36 351.53 368.93 349.06 369.78 346.4"/><polygon class="cls-3" points="397.29 299.44 399.37 299.82 393.97 298.69 397.29 299.44"/><polygon class="cls-3" points="402.6 301.72 399.95 302.77 396.81 304.28 402.6 301.72 402.6 301.72"/><polygon class="cls-3" points="386.48 257.42 386.48 257.42 386.19 259.13 386.48 257.42 386.48 257.42"/><polygon class="cls-3" points="386.19 259.13 385.81 261.12 385.72 262.83 385.72 262.83 385.81 261.12 386.19 259.13"/><polygon class="cls-3" points="393.87 305.9 396.81 304.28 393.87 305.9 391.79 307.32 389.32 309.31 391.79 307.32 393.87 305.9"/><polygon class="cls-3" points="385.24 267.76 385.24 267.76 384.67 269.09 383.91 270.89 384.67 269.09 385.24 267.76"/><polygon class="cls-3" points="386 250.59 386.29 254.29 386.29 254.29 386.29 254.29 386 250.59"/><polygon class="cls-3" points="385.15 243.66 385.43 245.85 385.81 248.03 385.43 245.85 385.15 243.66"/><polygon class="cls-3" points="386.67 266.62 386 268.43 385.6 268.07 386 268.43 386.67 266.62"/><path class="cls-3" d="M387.16,238.26l5.3.32,7.15.53,7.28.4,5.83.53,7.42,1.06,7.28,1.19,6.49.66,2.26.13,0,.07,5.38.46h5.17l3-.4,4.24-1.46,2-.66,5.56-.4,5.56.13,3,.93,4,1.46,2.78-1.85,3.18-1.19H484l-2-.16,1.46-2,1-2.18.87-3.2V229.1l-.73-3.06-.87-3.49-2.18-2.76-2-2.18-2.62-1.6-3.2-1.31-3.78-1.75-3.06-1.89-2.77-2L461,206.69l-2.91-2.62-3.35-3.2L452,198.39l-2.18-2.18-2.62-1.89L445,192.92,441,190.6l-4.64-2.78-5-2.44-5.57-1.51-8.24-1.39-6-.12-5,.7-4.06.93-2.87,1-4.42,1.87L391,189.25l-4.42,2.89-3.74,4.25L380.07,201l-2,3.74-1.53,4.08-1.19,3.74-.34,3.91-.34,4.08.34,3.74.85,2.89.85,2.38.6,1L374,233.7l-3,2.66-1.9,1.9-1.14,1.8-.28.85,1,.28,1.9.09h2.28l1.52-.57,3.51-.95,2.75-.76,2.85-.57,1.33.09H387Zm-.31-28.18,2.25-4,3.12-3.12,3.47-1.39,3.81-.52,4.85.69,4,1.39,3.47,2.77,2.77,3.29,2.08,3.47.35,4-.52,3.81-1.39,2.95-2.25,1.91-21.15-.52-3.12-4.16-1.91-4.51Z"/><polygon class="cls-3" points="349.2 350.1 349.29 350.2 350.9 352 349.29 350.2 349.2 350.1"/><polygon class="cls-3" points="338.66 342.51 338.28 344.98 338.09 348.3 338.09 348.3 338.28 344.98 338.66 342.51"/><polygon class="cls-3" points="359.44 320.6 357.16 322.4 355.07 323.73 357.16 322.4 359.44 320.6"/><polygon class="cls-3" points="346.82 325.34 350.43 325.06 346.82 325.34 344.92 326.1 341.79 326.96 344.93 326.1 346.82 325.34"/><polygon class="cls-3" points="377.37 315.48 378.32 314.24 379.55 312.16 381.92 311.87 381.92 311.87 379.55 312.16 378.32 314.24 377.37 315.48 374.05 316.14 370.06 316.9 374.05 316.14 377.37 315.48"/><polygon class="cls-3" points="340.18 338.81 339.52 340.14 338.66 342.51 339.52 340.14 340.18 338.81"/><polygon class="cls-3" points="370.06 316.9 367.6 317.56 364.85 317.47 367.6 317.56 370.06 316.9"/><polygon class="cls-3" points="339.33 328.66 341.79 326.96 339.33 328.66 337.15 330.75 335.53 332.93 337.15 330.75 339.33 328.66"/><polygon class="cls-3" points="385.89 265.01 386.1 265.77 386.67 266.62 386.1 265.77 385.89 265.01"/><polygon class="cls-3" points="514.92 344.7 516.53 347.83 517.67 349.06 516.53 347.83 514.92 344.7"/><polygon class="cls-3" points="507.52 325.06 508.28 328.38 507.52 325.06 507.52 325.06"/><polygon class="cls-3" points="401.08 300.87 402.6 301.72 399.38 299.83 401.08 300.87"/><polygon class="cls-3" points="334.96 334.93 334.96 334.93 335.53 332.93 334.96 334.93"/><polygon class="cls-3" points="510.65 334.45 509.42 331.7 508.28 328.38 509.42 331.7 510.65 334.45 511.51 336.63 512.45 338.34 511.51 336.63 510.65 334.45"/><polygon class="cls-3" points="506.19 332.36 505.72 331.42 502.68 329.04 505.72 331.42 506.19 332.36"/><polygon class="cls-3" points="410.34 309.17 407.42 306.39 405.17 304.01 402.6 301.72 402.9 303.76 403.27 306.27 404.15 309.03 406.16 312.54 408.79 316.43 411.68 319.19 412.43 315.68 413.06 312.79 413.9 310.28 413.12 310.1 410.34 309.17"/><polygon class="cls-3" points="494.6 313 493.73 309.61 493.1 305.35 493.1 300.58 493.48 296.57 494.23 291.81 495.48 288.42 496.99 286.29 499.03 285.4 496.06 285.18 493.02 285.02 491.26 285.4 488.83 286.01 487.07 286.24 484.18 286.39 481.97 286.47 478.54 287 475.57 287.15 475.04 286.8 475.57 287.15 472.55 287.32 470.54 287.44 468.4 288.32 466.27 289.7 464.51 291.71 463.38 293.97 462.25 297.11 461.88 300.74 461.75 305.26 461.75 308.4 462 313.42 462.63 317.69 463.13 320.95 464.14 324.09 466.14 327.22 468.53 330.11 471.29 331.99 474.55 334 478.32 335.88 481.2 337.26 484.97 338.01 488.23 337.76 491.49 336.51 494.25 334.63 496.14 333 498.15 330.74 499.02 328.48 499.4 325.09 499.53 321.7 498.65 318.06 496.99 315.26 495.73 315 494.6 313"/><polygon class="cls-3" points="343.03 353.42 343.03 353.42 341.89 353.23 343.03 353.42"/><polygon class="cls-3" points="442.66 303.48 440.8 304.27 436.43 307.58 431.26 310.1 426.76 311.42 421.6 311.42 420.82 311.36 419.84 315.18 419.34 319.32 418.96 322.83 418.83 325.59 419.08 327.73 420.21 329.61 422.35 330.86 425.61 331.87 428.25 332.24 432.39 331.87 435.4 331.11 439.04 329.86 441.93 328.73 443.81 327.85 444.69 326.97 444.81 325.21 444.94 321.83 445.69 317.18 446.69 311.91 447.57 307.9 448.58 304.01 449.66 299.91 447.69 300.83 442.66 303.48"/><polygon class="cls-3" points="502.54 285.63 499.03 285.4 502.54 285.63 505.05 285.4 507.8 285.33 505.05 285.4 502.54 285.63"/><polygon class="cls-3" points="488.27 220.01 487.52 219.25 487.52 219.25 488.27 220.01"/><polygon class="cls-3" points="533.77 286.85 536.75 286.62 537.81 286.32 536.75 286.62 533.77 286.85"/><polygon class="cls-3" points="537.81 286.32 538.57 286.24 539.49 285.33 538.57 286.24 537.81 286.32"/><polygon class="cls-3" points="523.03 285.33 525.55 285.63 527.45 286.01 525.55 285.63 523.03 285.33"/><path class="cls-3" d="M391.71,224.82l21.15.52,2.25-1.91,1.39-2.95.52-3.81-.35-4-2.08-3.47-2.77-3.29-3.47-2.77-4-1.39-4.85-.69-3.81.52L392.23,203l-3.12,3.12-2.25,4-.17,6.07,1.91,4.51Zm-1.38-9.61,1-3.25.54-2.27,1.3-3,1.19-2.27,1.52,1.52,2.49,3.14,1.52,1.84,2.06-2.49,2.27-2.49,1.19-1.41,2.16,3.46,2.38,3.9,2.71,4.11,1.41,2.27-2.16,3.14-1.73,1.95-1.73-4.44-1.52-4-1.95-4.11-2.06,2.81L400.82,217l-2.6-3.25-1.73-2.06-1.08-1.3-1.08,6.82-.76,5.74-4-4.11Z"/><polygon class="cls-3" points="394.33 217.26 395.41 210.45 396.49 211.75 398.22 213.8 400.82 217.05 402.88 213.59 404.93 210.77 406.88 214.88 408.39 218.89 410.13 223.32 411.86 221.38 414.02 218.24 412.62 215.97 409.91 211.85 407.53 207.96 405.37 204.5 404.18 205.9 401.9 208.39 399.85 210.88 398.33 209.04 395.84 205.9 394.33 204.39 393.14 206.66 391.84 209.69 391.3 211.96 390.32 215.21 389.56 218.89 393.57 223 394.33 217.26"/><polygon class="cls-3" points="385.6 268.07 385.24 267.76 385.24 267.76 385.6 268.07"/><polygon class="cls-3" points="486.63 269.44 483.19 272.22 478.95 275.13 483.19 272.22 486.63 269.44"/><polygon class="cls-3" points="386.29 254.29 386.48 257.42 386.57 256.28 386.29 254.29"/><circle class="cls-3" cx="399.37" cy="299.82" transform="translate(-31.22 552.77) rotate(-67.33)"/><polygon class="cls-3" points="402.6 301.72 402.6 301.72 402.6 301.72 402.6 301.72"/><polygon class="cls-3" points="389.13 295.94 391.5 297.55 393.97 298.69 391.5 297.55 389.13 295.94"/><polygon class="cls-3" points="384.86 238.54 384.96 240.34 384.86 238.54 384.86 238.54"/><polygon class="cls-3" points="386.29 254.29 386.29 254.29 386.57 256.28 386.29 254.29"/><polygon class="cls-3" points="386.57 256.28 386.48 257.42 386.48 257.42 386.57 256.28"/><path class="cls-3" d="M405.17,304l2.25,2.38,2.91,2.78,2.78.93.78.18,0-.12,3.15.87,3.75.26,0,.07.77.07h5.17l4.5-1.32,5.17-2.52,4.37-3.31,1.85-.79,5-2.65,2-.92,0-.17,2-.77,2.69-2,2.74-1.58,5-5.56,2.91-3.58,2.91-4.11,1.72-7,2.38,1.59,2.65-.26,4.24-1.32,4.24-2.91,3.44-2.78,3.18-3.84,2.78-5.56,1.32-4.37-.13-3.84-1.32-5.3-2.65-3.71-2.38-1.59L484,240.17h-3.84L477,241.36l-2.78,1.85-2.76,3.71-1.09,2.18-1,3.71-.55,4.81-.33,3.6.11,3.17.44,2.29-.33,2.51-1.2,2-1.64.76L464,272l-1.53-.55-1.53-1.86-.87-2.29-.33-3.6-2.18.87-1.75-.22-1.64-1.31-1-2.4-.11-3.06,1.09-2.29,1.09-2,1.09-1.53.22-2.95v-4.7l-.53-3.09-2,.66-4.24,1.46-3,.4H441.6l-5.38-.46,1.38,2.34.42,1.7-3.26-1.7-2-.85-2.69-.28-2.69.14-2.55,1.13-2.41,1.56-2.12,2-2.12,2-3.4,3.68,1.13-5.38,1.56-4,1.56-3,1.1-1.42L412.72,240l-5.83-.53-7.28-.4-7.15-.53,3.35.25,2.12,4.82,1.7,4.11,1.7,5.81.51,1.11,1,2.73.66,2.73.11,2,0,0,0,1,.11,1.31-.11.09v1.44l-.55,2.51H401.4l-2.29.66-2.51.55-1.75-2.08-1.64-1.42-1-3.17-1-4.26-.33-3.28-.33-3.71.22-2.62,1.2-1.53,1.31-.44,1.78-.24-1.7-1.42-2.41-1-1.84-.14-1.28.71-.85,2-.71-2.83-.43-2.55.43-2.12.65-1h-2.1l.09,1.8V242l.19,1.71.28,2.18.38,2.18,1.83,8.83.44,3.17.11,2.29-.55,1.53-1,2.77-.66,1.8-.4-.35-.35-.31,2,2.58,2.22,2.86-.79.71-1,1L386,276.54l-1.35,1.85-.95,2.85-.19,2.75v2.56l.76,2.75,1,2.66,1.52,1.71,2.28,2.28,2.37,1.61,2.47,1.14,5.4,1.14h0l3.22,1.89h0ZM417,255.77l1-2.95,1.75-2.29,1.75-1.42,2.51-.76,1.75-.22,2.18.22,2.29,1.09,2.62,2.08,1.53,2.18.87,2.62.33,2.51.44,4.26-.11,3.39-.87,2.29-1,1.86-1.2.55-1.75.11-1.75.55-2.29.76-2.18.87L424,273l-2-1.31-1.75-2.4-1.86-3.06-1.2-4.48-.44-3.17ZM410.08,298l1.91-1,2.46-1.67,2-1.91,2.3-2.7,2-2.54,1.27-2.46.08-2.06v-2l-.4-1.83,1.27-.16,2.06-.32,2.06-.56,2.22-.56,2.7-.87,2.62-1,2.3-1.43,2.06-1.51,1.83-1.67,1.35-1.19,1.11-1.91,1.51,2.94.71,1.91.48,2.86-.16,2.22-.56,2.62-1.19,2.46-1.67,1.67-1.83,1.35-1.59.4-2.06.32.16,2.54-.48,1.43-1,1.75L433.67,295l-2,.64-2.7.4-2.7-.32-2-1-1,1.75L422,297.82,420.49,299l-2.06.87-2.3.24h-2.54l-2.62-.32-2.46-1Z"/><polygon class="cls-3" points="385.81 248.03 386 250.59 386.29 254.29 385.81 248.03"/><polygon class="cls-3" points="433.91 242.95 436.22 243.15 436.18 243.07 433.91 242.95"/><polygon class="cls-3" points="427.42 242.28 420.14 241.09 419.04 242.51 417.48 245.48 415.92 249.45 414.79 254.83 418.19 251.15 420.31 249.17 422.44 247.18 424.84 245.63 427.39 244.49 430.09 244.35 432.78 244.63 434.76 245.48 438.02 247.18 437.59 245.48 436.22 243.15 433.91 242.95 427.42 242.28"/><polygon class="cls-3" points="386.97 238.55 392.46 238.58 387.16 238.26 386.97 238.55"/><polygon class="cls-3" points="386.31 239.53 385.89 241.66 386.31 244.21 387.02 247.04 387.87 245.06 389.14 244.35 390.99 244.49 393.39 245.48 395.1 246.9 398.21 250.02 399.37 251.33 399.98 251.83 401.33 253.56 399.63 247.75 397.93 243.64 395.8 238.82 392.46 238.58 386.97 238.55 386.31 239.53"/><polygon class="cls-3" points="385.72 262.83 385.72 262.83 385.81 264.73 385.89 265.01 385.81 264.73 385.72 262.83"/><polygon class="cls-3" points="388.18 262.32 388.07 260.03 387.64 256.86 385.81 248.03 386.29 254.29 386.57 256.28 386.48 257.42 386.19 259.13 385.81 261.12 385.72 262.83 385.81 264.73 385.89 265.01 386.1 265.77 386.67 266.62 387.64 263.85 388.18 262.32"/><polygon class="cls-3" points="467.16 240.83 461.6 240.69 456.03 241.09 456.57 244.19 456.57 245.93 456.57 248.88 456.35 251.83 455.25 253.36 454.16 255.33 453.07 257.62 453.18 260.68 454.16 263.08 455.8 264.39 457.55 264.61 459.73 263.74 460.06 267.35 460.94 269.64 462.46 271.5 463.99 272.04 465.85 271.93 467.49 271.17 468.69 269.2 469.02 266.69 468.58 264.39 468.47 261.23 468.8 257.62 469.35 252.82 470.33 249.1 471.42 246.92 474.18 243.21 470.2 241.75 467.16 240.83"/><polygon class="cls-3" points="418.44 266.25 420.3 269.31 422.05 271.71 424.01 273.02 424.89 273.46 427.07 272.59 429.37 271.82 431.11 271.28 432.86 271.17 434.06 270.62 435.05 268.76 435.92 266.47 436.03 263.08 435.92 264.83 434.83 266.25 433.52 267.45 431.77 268 429.69 268 427.94 267.45 425.54 265.38 423.9 261.99 422.92 258.06 423.03 254.56 423.25 251.94 424.67 249.76 426.52 248.56 427.94 248.34 425.76 248.12 424.01 248.34 421.5 249.1 419.75 250.52 418 252.82 417.02 255.76 416.8 258.61 417.24 261.77 418.44 266.25"/><polygon class="cls-3" points="400.75 266.03 398.89 265.71 397.36 264.18 396.16 262.32 395.28 259.59 394.63 256.09 394.74 252.6 395.28 250.52 396.7 248.56 398.21 250.02 395.1 246.9 393.32 247.13 392.01 247.57 390.8 249.1 390.58 251.72 390.91 255.44 391.24 258.71 392.22 262.98 393.21 266.14 394.85 267.56 396.59 269.64 399.11 269.09 401.4 268.44 403.04 268.44 403.58 265.93 403.58 264.48 402.6 265.27 400.75 266.03"/><path class="cls-4" d="M424.67,249.76l-1.42,2.18-.22,2.62-.11,3.5,1,3.93,1.64,3.39,2.4,2.08,1.75.55h2.08l1.75-.55,1.31-1.2,1.09-1.42.11-1.75-.44-4.26-.33-2.51-.87-2.62-1.53-2.18-2.62-2.08-2.29-1.09-1.42.22Zm4.48.87,1.78.31,1.15.73.94.89.58,1.1.63,1.62.28,1.13.33,2.18-.11,2.18-1,2-1.31,1-1.53.66-1.75-.11-1.42-1.2-1.31-1.64-.66-2-.22-2.18v-2.4l.55-2,1.2-1.75Z"/><polygon class="cls-3" points="403.69 264.39 403.58 263.08 403.58 264.48 403.69 264.39"/><polygon class="cls-4" points="400.96 263.63 399.43 263.41 398.67 262.54 397.8 261.01 397.03 259.26 396.59 256.86 396.38 254.46 396.81 252.38 397.69 251.07 398.78 250.85 399.37 251.33 398.21 250.02 396.7 248.56 395.28 250.52 394.74 252.6 394.63 256.09 395.28 259.59 396.16 262.32 397.36 264.18 398.89 265.71 400.75 266.03 402.6 265.27 403.58 264.48 403.58 263.08 403.55 262.12 402.17 262.98 400.96 263.63"/><polygon class="cls-3" points="403.58 262.1 403.48 260.13 403.55 262.12 403.58 262.1"/><polygon class="cls-3" points="399.37 251.33 401.33 253.56 399.98 251.83 399.37 251.33"/><polygon class="cls-4" points="398.78 250.85 397.69 251.07 396.81 252.38 396.38 254.46 396.59 256.86 397.03 259.26 397.8 261.01 398.67 262.54 399.43 263.41 400.96 263.63 402.17 262.98 403.55 262.12 403.48 260.13 402.82 257.4 401.84 254.67 401.33 253.56 399.37 251.33 398.78 250.85"/><polygon class="cls-4" points="425.54 254.89 425.54 257.3 425.76 259.48 426.42 261.45 427.73 263.08 429.15 264.29 430.89 264.39 432.42 263.74 433.74 262.76 434.72 260.79 434.83 258.61 434.5 256.42 434.22 255.29 433.6 253.67 433.02 252.57 432.07 251.68 430.92 250.94 429.15 250.63 427.29 251.18 426.09 252.93 425.54 254.89"/><polygon class="cls-3" points="383.85 276.27 383.91 276.58 384.67 278.39 383.91 276.58 383.85 276.27"/><polygon class="cls-3" points="385.24 267.76 385.24 267.76 385.24 267.76 385.24 267.76"/><polygon class="cls-3" points="387.69 274.87 388.64 273.92 389.43 273.2 387.21 270.34 385.24 267.76 385.24 267.76 384.67 269.09 383.91 270.89 383.53 272.98 383.53 274.69 383.85 276.27 383.91 276.58 384.67 278.39 386.02 276.54 387.69 274.87"/><polygon class="cls-3" points="413.58 300.13 416.12 300.13 418.42 299.89 420.49 299.01 421.99 297.82 423.34 296.55 424.3 294.8 426.28 295.76 428.98 296.07 431.68 295.68 433.67 295.04 435.57 293.14 436.61 291.39 437.08 289.96 436.93 287.42 438.99 287.1 440.58 286.7 442.4 285.35 444.07 283.69 445.26 281.22 445.82 278.6 445.98 276.38 445.5 273.52 444.79 271.62 443.28 268.68 442.17 270.58 440.82 271.77 438.99 273.44 436.93 274.95 434.62 276.38 432 277.41 429.3 278.29 427.08 278.84 425.01 279.4 422.95 279.71 421.68 279.87 422.07 281.7 422.07 283.69 421.99 285.75 420.72 288.21 418.74 290.75 416.44 293.45 414.45 295.36 411.99 297.03 410.08 297.98 408.49 298.85 410.96 299.81 413.58 300.13"/><polygon class="cls-3" points="389.47 318.19 391.85 322.33 393.61 326.22 395.12 329.98 395.99 333.12 396.37 335 399.63 332.75 402.9 330.36 405.91 328.48 408.54 326.6 410.43 325.34 411.05 321.07 411.68 319.19 408.79 316.43 406.16 312.54 404.15 309.03 403.27 306.27 402.9 303.76 402.6 301.72 396.81 304.28 393.87 305.9 391.79 307.32 389.32 309.31 386.57 311.4 384.48 312.44 387.08 314.55 389.47 318.19"/><polygon class="cls-3" points="407.35 345.36 407.21 344.79 407.35 345.36 408.1 347.26 408.48 347.83 408.1 347.26 407.35 345.36"/><polygon class="cls-3" points="409.78 349.28 410.67 350.01 410.67 350.01 409.78 349.28"/><polygon class="cls-3" points="412.31 350.31 413.94 350.19 414.82 348.93 415.32 347.05 415.82 344.67 415.82 342.41 415.7 339.9 415.07 337.26 414.19 335 412.43 333.37 409.8 333.62 408.42 334.13 407.41 335.76 406.66 338.14 406.54 339.77 406.41 341.91 406.78 342.89 407.21 344.79 407.35 345.36 408.1 347.26 408.48 347.83 409.05 348.68 409.78 349.28 410.67 350.01 410.67 350.01 410.67 350.01 412.31 350.31"/><polygon class="cls-3" points="381.92 311.87 381.92 311.87 384.48 312.44 381.92 311.87"/><polygon class="cls-3" points="343.03 353.42 344.74 352.19 343.03 353.42 343.03 353.42"/><polygon class="cls-3" points="334.96 334.93 335.34 336.54 334.96 334.93 334.96 334.93"/><polygon class="cls-3" points="338.09 348.3 338.76 350.86 338.09 348.3 338.09 348.3"/><polygon class="cls-3" points="358.3 347.73 358.2 349.25 358.3 347.73 357.64 346.02 359.06 346.12 357.64 346.02 358.3 347.73"/><polygon class="cls-3" points="356.69 352.66 358.02 351.43 358.2 349.25 358.02 351.43 356.69 352.66"/><polygon class="cls-3" points="346.35 350.58 344.74 352.19 346.35 350.58 347.49 348.3 349.2 350.1 347.49 348.3 346.35 350.58"/><polygon class="cls-3" points="335.34 336.54 336.86 337.87 338.95 338.81 336.86 337.87 335.34 336.54"/><polygon class="cls-3" points="353.18 353.04 354.98 353.52 356.69 352.66 354.98 353.52 353.18 353.04"/><polygon class="cls-3" points="361.15 345.26 362.38 343.94 363.33 342.8 362.38 343.94 361.15 345.26"/><polygon class="cls-3" points="374.91 357.09 376.79 356.34 377.67 354.58 379.18 351.82 380.43 349.56 381.81 348.31 384.2 345.8 386.2 343.79 387.84 341.65 389.22 339.14 390.22 337.01 391.98 337.26 393.61 337.76 394.74 337.51 395.74 336.51 396.37 335 395.99 333.12 395.12 329.98 393.61 326.22 391.85 322.33 389.47 318.19 387.08 314.55 384.48 312.44 381.92 311.87 379.55 312.16 378.32 314.24 377.37 315.48 374.05 316.14 370.06 316.9 367.6 317.56 364.85 317.47 362.29 318.13 360.48 319.37 359.44 320.6 357.16 322.4 355.07 323.73 353.18 325.44 350.43 325.06 346.82 325.34 344.93 326.1 341.79 326.96 339.33 328.66 337.15 330.75 335.53 332.93 334.96 334.93 335.34 336.54 336.86 337.87 338.95 338.81 340.18 338.81 339.52 340.14 338.66 342.51 338.28 344.98 338.09 348.3 338.76 350.86 339.8 352.57 341.89 353.23 343.03 353.42 344.74 352.19 346.35 350.58 347.49 348.3 349.2 350.1 349.29 350.2 350.9 352 353.18 353.04 354.98 353.52 356.69 352.66 358.02 351.43 358.2 349.25 358.3 347.73 357.64 346.02 359.06 346.12 361.15 345.26 362.38 343.94 363.33 342.8 363.8 341.56 366.17 342.61 368.36 343.46 370.63 344.03 369.78 346.4 368.93 349.06 368.36 351.53 368.93 353.9 369.87 355.8 370.73 356.55 372.4 356.96 374.91 357.09"/><polygon class="cls-3" points="472.29 284.79 473.97 286.09 475.04 286.8 473.97 286.09 472.29 284.79"/><path class="cls-3" d="M501.66,323.46l-1-2-2-3.39.88,3.64-.13,3.39-.38,3.39-.88,2.26-2,2.26-1.88,1.63-2.76,1.88-3.26,1.25L485,338l-3.76-.75-2.89-1.38L474.55,334l-3.26-2-2.76-1.88-2.38-2.89-2-3.14-1-3.14-.5-3.26-.63-4.27-.25-5v-3.14l.13-4.52.38-3.64,1.13-3.14,1.13-2.26,1.76-2,2.13-1.38,2.13-.88,2-.13,3-.16-.53-.36-1.07-.71-1.68-1.3-1.88-.74-2.89-.38L465,286.26l-2.91,3.58-5,5.56L451.66,299l-2,.93-1.09,4.1-1,3.89-.88,4-1,5.27-.75,4.64-.13,3.39-.13,1.76-.88.88-1.88.88L439,329.86l-3.64,1.25-3,.75-4.14.38-2.64-.38-3.26-1-2.13-1.25-1.13-1.88-.25-2.13.13-2.76.38-3.51.5-4.14,1-3.82-3.73-.33-3.2-.75-.84,2.51-.63,2.89-.75,3.51-.63,1.88-.63,4.27-.63,3.39v4.89l2.64-.25,1.76,1.63.88,2.26.63,2.64.13,2.51v2.26l-.5,2.38-.5,1.88-.88,1.25-1.63.13,1,2.26,2,2.13,2.64,1.63,4.27,1h3.14l2.76-.25,3.64-.13,3.76-.25h0l2.38.38,2.13.63h0l3.26-.63,3.76-.75,5.4-1.13L458,354l5.77-1.25,5.77-2,6-2.13,5.15-2.13,4.64-2.13,4-1.88,3.26-1.88,5.77-5.27,2.51-3,1.78-3.2-.65-2.95ZM462.8,340.62l-1.31,2.5-1.67,1.79-2.26,1.67-2.5.83-2.26-.48-2.74-1.19-2-1.67-1.67-2.38-.48-3,.24-2.74,1.31-2.74,1.67-1.79,2.38-1.19,2.14-.36h2.5l2.14.6,2.14,1.43,1.55,1.79,1,2.14.36,2.38Z"/><polygon class="cls-3" points="451.66 298.97 457.09 295.4 454.35 296.98 451.66 298.97"/><polygon class="cls-3" points="449.66 299.91 451.66 298.97 449.7 299.74 449.66 299.91"/><polygon class="cls-3" points="417.09 311.03 420.82 311.36 420.84 311.29 417.09 311.03"/><polygon class="cls-3" points="413.9 310.28 417.09 311.03 413.94 310.16 413.9 310.28"/><polygon class="cls-3" points="461.96 333.71 460.42 331.93 458.27 330.5 456.13 329.9 453.63 329.9 451.49 330.26 449.11 331.45 447.44 333.24 446.13 335.97 445.89 338.71 446.37 341.69 448.04 344.07 450.06 345.74 452.8 346.93 455.06 347.4 457.56 346.57 459.82 344.9 461.49 343.12 462.8 340.62 463.27 338.24 462.92 335.85 461.96 333.71"/><polygon class="cls-3" points="508.38 337.87 509.7 342.61 508.38 337.87 507.14 334.26 506.19 332.36 507.14 334.26 508.38 337.87"/><polygon class="cls-3" points="509.99 348.58 510.27 346.69 509.7 342.61 510.27 346.69 509.99 348.58"/><polygon class="cls-3" points="435.52 356.71 435.52 356.71 437.91 357.09 435.52 356.71"/><polygon class="cls-3" points="498.4 335.25 492.62 340.52 495.51 338.01 498.4 335.25"/><polygon class="cls-3" points="431.76 356.96 435.52 356.71 435.52 356.71 431.76 356.96 428.12 357.09 425.36 357.34 428.12 357.09 431.76 356.96"/><polygon class="cls-3" points="440.04 357.72 440.04 357.72 437.91 357.09 440.04 357.72 440.04 357.72"/><polygon class="cls-3" points="510.08 285.4 507.8 285.33 505.05 285.4 502.54 285.63 499.03 285.4 496.99 286.29 495.48 288.42 494.23 291.81 493.48 296.57 493.1 300.58 493.1 305.35 493.73 309.61 494.6 313 495.73 315 496.99 315.26 498.24 315.13 499.75 314.88 500.75 314.75 500.12 312.25 500.12 309.49 500.25 305.98 500.75 303.22 501.5 300.46 503.26 297.45 505.01 294.44 507.27 291.93 509.65 290.05 512.16 288.17 515.29 286.66 511.91 285.63 510.08 285.4"/><polygon class="cls-3" points="524.98 350.48 526.78 349.15 528.11 347.35 526.78 349.15 524.98 350.48"/><polygon class="cls-3" points="521.28 351.15 523.55 351.05 524.98 350.48 523.55 351.05 521.28 351.15"/><polygon class="cls-3" points="528.11 347.35 528.96 344.98 529.34 342.99 528.96 344.98 528.11 347.35"/><polygon class="cls-3" points="517.67 349.06 518.72 350.2 521.28 351.15 518.72 350.2 517.67 349.06"/><polygon class="cls-3" points="527.92 337.49 527.16 335.02 527.25 333.22 527.16 335.02 527.92 337.49"/><polygon class="cls-3" points="527.45 286.01 529.43 286.85 531.18 287.08 529.43 286.85 527.45 286.01"/><polygon class="cls-3" points="532.66 325.82 535.22 325.34 537.78 324.77 535.22 325.34 532.66 325.82"/><polygon class="cls-3" points="541.88 321.9 542.13 324.29 543.01 326.04 544.26 328.3 545.64 329.3 547.52 329.93 549.4 329.55 551.79 328.42 553.17 327.04 554.17 325.29 555.67 322.28 556.93 319.77 557.18 318.01 558.94 317.14 560.69 315.63 561.95 313.63 564.33 313.25 566.84 311.24 567.76 310.17 567.76 310.17 568.8 308.46 569.47 307.13 569.56 305.52 569.18 302.95 568.8 300.39 567.76 296.79 566.5 295.21 565.48 293.94 562.54 291.86 559.13 290.05 556.95 288.92 554.97 288.33 554.38 288.16 554.38 288.16 551.79 287.54 548.9 286.92 544.76 286.66 542.76 285.16 540.25 284.95 539.49 285.33 538.57 286.24 537.81 286.32 536.75 286.62 533.77 286.85 531.18 287.08 529.43 286.85 527.45 286.01 525.55 285.63 523.03 285.33 517.68 285.66 515.29 286.66 512.16 288.17 509.65 290.05 507.27 291.93 505.01 294.44 503.26 297.45 501.5 300.46 500.75 303.22 500.25 305.98 500.12 309.49 500.12 312.25 500.75 314.75 501.63 317.64 502.88 319.39 504.26 321.27 507.65 323.66 507.52 325.06 508.28 328.38 509.42 331.7 510.65 334.45 511.51 336.63 512.45 338.34 513.31 341.09 514.92 344.7 516.53 347.83 517.67 349.06 518.72 350.2 521.28 351.15 523.55 351.05 524.98 350.48 526.78 349.15 528.11 347.35 528.96 344.98 529.34 342.99 528.77 340.52 527.92 337.49 527.16 335.02 527.25 333.22 528.3 331.51 530.38 329.04 532.66 325.82 535.22 325.34 537.78 324.77 539.21 324.39 539.25 322.91 541.88 321.9"/><polygon class="cls-3" points="544.76 286.66 548.9 286.92 546.39 286.66 544.76 286.66"/><polygon class="cls-3" points="540.25 284.95 542.76 285.16 541.13 284.91 540.25 284.95"/><polygon class="cls-3" points="517.68 285.66 523.03 285.33 519.93 285.29 517.68 285.66"/><polygon class="cls-3" points="410.76 357.5 411.23 360.92 411.14 360.27 410.76 357.5"/><polygon class="cls-3" points="410.57 354.85 410.76 357.5 411.23 360.92 410.76 357.5 410.57 354.85"/><polygon class="cls-3" points="442.67 360.27 498.75 360.27 499.23 360.02 502.68 357.64 506.86 354.09 508.66 351.81 509.32 350.67 509.99 348.58 510.27 346.69 509.7 342.61 508.38 337.87 507.14 334.26 506.19 332.36 505.72 331.42 502.68 329.04 500.91 332.24 498.4 335.25 495.51 338.01 492.62 340.52 489.36 342.41 485.35 344.29 480.7 346.42 475.56 348.56 469.53 350.69 463.76 352.7 457.99 353.95 452.47 355.21 447.07 356.34 443.31 357.09 440.04 357.72 441.85 359.19 442.67 360.27"/><polygon class="cls-3" points="411.14 360.27 418.44 360.27 418.99 359.19 420.3 358.36 422.22 357.34 417.95 356.34 415.32 354.71 413.99 353.83 413.31 352.57 412.56 351.69 412.31 350.31 410.67 350.01 410.48 351.72 410.57 354.85 410.76 357.5 411.14 360.27"/><polygon class="cls-3" points="418.99 359.19 418.44 360.27 442.67 360.27 441.85 359.19 440.04 357.72 440.04 357.72 437.91 357.09 435.52 356.71 431.76 356.96 428.12 357.09 425.36 357.34 422.22 357.34 420.3 358.36 418.99 359.19"/><polygon class="cls-3" points="499.23 360.02 498.75 360.27 506.11 360.27 506.1 359.78 506.67 356.55 506.86 354.09 502.68 357.64 499.23 360.02"/><path class="cls-5" d="M319.13,352.95l-.45-3-1.23-4.26-2.69-3.37-3.48-2.47-4-2.13-2.58-1.35-3-.9-1.72-5.22L297,323.08l-3.16-5.9L291.27,312,288,305.79l-2.61-4.8-3.43-5.76-3.29-5.35,1.23-1.78,1.1-2.74.27-3.16.14-2.74,1.37-3,.27-2.61-.69-3.29-.82-2.74-1.37-1.51-.69-3-1.92-4.67-1.92-2.06-3-1.23-5.35-1.51-4.25-.55-3-.14-2.61,1.37-1.92,1.23-1.65,2.61-.41,2.06-1.78,1.1L249.28,263l-2.06,2.33-.69,1.1-.14,1.92-1.78.82-1.23,1.23-.82,1.51-.27,2.2-2.61,1.78-3.43,2.47-4.12,2.33-3.16-.55-2.61.41.27-2.06,3.7-7.55,1.92-4.25.14-2.06L230.07,262l-3.16-3.57-2.61-2.74-1.78-1.78,1.92-5.9,1.37-4.67,1-2.88-.27-1.78-3.7-4-2.61-2.88L218.82,230l2.2-2.2,1.92-2.61,1.1-2.33.55-1.1-1.65-3.16-2.33-4.12-3.16-3.7-2.06-2.74-2.61-1.65-2.74-.69-2.74-.14-3.29-.14-1.51-6.72-1.37-6.86-.82-3.57.55-2.06,1.23-3.29.27-4,.41-3.84.14-4.39-.14-4.8,3.43-3.43,2.06-3.16,1.92-3.57,1.51-3.29.82-2.61.69-3.16,3.16-2.47,4.12-4.67,3.7-3.57-4-2.88L215,129.74l-4.12-2.61-2.61-6L204,115.75l-5.49-4.25-5.63-3.16-6.59-2.06-7.68-.82-5.49.14-5.63,1.51-4,1.65-6,3.16-5.08,4.53-3.57,4.94-2.47,3.7L145,128.92l-3.57-6.86L137.59,117l-3.84-3.57-4.94-3.7-6.17-2.61-6.45-.82-6.31,1-6.59,3.16-3.84,3-4.25,4.53-3,4.94-2.47,5.9-1.51,6L87.5,140l-.27,6.59.69,7.68,1.92,8,3,7.55,4.25,5.9,4,4.8,4.67,3.29,6.31,3.43,6.45,1.1,5.49-.41,5.21-1.92,5.08-2.74,4.53-4.53,3.84-4.94,2.33-4.94,2.06-5.76,1-3.84,3.57,5.08,3,2.88,3.16,2.47,3.43,2.33,3.57,1.37,2.33,1.1,2.61,5.21,3,5.08,1.92,3.57L176,190l2.74,2.74,1.78,8.1.82,4.53,1.37,5.21-4.39,1.78L175.46,215l-1.92,2.88-1.37,4.94L167.5,220,162,216.74l-5.9-2.88-6.59-1.78-9.74-1.65-7.14-.14-5.9.82-4.8,1.1-3.39,1.19-5.23,2.21-5,2.82-5.23,3.42-4.43,5-3.22,5.43L93,236.74l-1.81,4.83L89.78,246l-.4,4.63-.4,4.83.4,4.43,1,3.42,1,2.82.71,1.2L88.28,271l-3.59,3.14-2.24,2.24-1.35,2.13-.34,1,1.23.34,2.24.11h2.69l1.8-.67,4.15-1.12,3.25-.9,3.37-.67,1.57.11.11,2.13v1.91l.22,2,.34,2.58.45,2.58.22,3,.34,4.38.34,2.36-.11,1.35-.34,2-.45,2.36-.11,2,.11,2.24.34,1.23.67,1-.79,2.13-.9-.79-.67,1.57L100,315l-.45,2.47v2l.45,2.24.9,2.13-1.12,3.37-.22,3.25v3l.9,3.25,1.23,3.14,1.8,2,2.69,2.69,2.81,1.91,2.92,1.35,3.93.9,2.47.45,2,1.23,1.8,1-3.14,1.23-3.7,1.8-3.48,1.91-2.47,1.68-2.92,2.36-3.25,2.47-2.47,1.23-3-.67-2.81.34-1.46,2.47-1.12,1.46-3.93.79-4.71.9-2.92.79-3.25-.11-3,.79-2.13,1.46L71,373.82,68.3,376l-2.47,1.57-2.24,2-3.25-.45-4.26.34-2.24.9-3.7,1-2.92,2-2.58,2.47-1.91,2.58L42,390.77l.45,1.91,1.8,1.57,2.47,1.12h1.46l-.79,1.57-1,2.81L46,402.66l-.22,3.93.79,3,1.23,2,2.47.79,1.35.22,2-1.46,1.91-1.91,1.35-2.69L59,408.84,60.9,411l2.69,1.23,2.13.56,2-1,1.57-1.46.22-2.58.11-1.8-.79-2,1.68.11L73,403l1.46-1.57,1.12-1.35.56-1.46L79,399.86l2.58,1,2.69.67-1,2.81-1,3.14-.67,2.92.67,2.81,1.12,2.24,1,.9.67,2.47,1.68,3,1.35,1.91,1.8,2,3,2.13,3.82,1.46,3.7.67,2.92-.22,3.25-1.12,2.69-1.23,2-1.68,2.81-2.92,2.47-3.14,2.81-5.16,3-5.72,2.81-5.05,1.8-3.59.67,2.92.9,2.24,1.12,1.68,1.91,1.57-.22,2,.11,3.7.22,3.14.56,4-2.58,4.15-2.58,4.26-2.36,4.26-2.36,4.26-1.23,3.59-.45,3.37.11,3.48.79,3.37,1.68,3.37,2.36,3.37L123,461.47l-3.59,3.93-1.91,4-.56,4.83.56,3.93,1.57,3.37,1.46,2.58.9,1.68,1.8,2.69L126,490.2l3.25,1.12,3.93.67,4.26.22,3.48-.45,3.7-1,3.59-1,3.14-1.57,2.81-1.8,2.58-1.8,1.35-2,2.13-2.81,1.8-1.68,4.26-3.25,1.35-1.12,1.35-.11,3-2.36,2.92-3.14,2-2.58,2.13-3.59.67-3.93-.11-3.25-.56-2.36L177.84,450l.34-3.37,4.26,1,4.38,1,3.25,1.46,1.91,1.57,1.8,3.14,1.23,3.82,1.91,6.17L199,471l1.46,3.7,1.91,3.25,2.58,3.59,2.69,2.47,3.25,1.91,1.91,1.23,1.12,1.68,1.8,4,1.46,5.61,1.35,4.94,1.57,6.51,1.57,5.05,1.12,4.15,1.68,3.48,1.46,3,2.13,3,2.47,2.69,3.93,2.24,4.49,2.13,5.72,1.46,4.71.67,5.5-.56,5.16-1.12,4-1.23,2.58-1.68,2.24-1.8,1.57-1.57,1.57-1.57,1.23-2.69,1-1.23,1.46-2.69,1.23-3.82.45-3.37v-4.49l-.67-3.82-2.47-6.06L271.66,495l-3.14-4.26L266,487.51l-1.35-2,.34-1.8.11-2.36-1.12-1.8-2.36-1.8-1.8-3-2-3.25-2-4.26-2.24-5.5-1.46-3.48-1.57-2.92-2.24-2.36-2-1.91-1.23-1.23-.34-5.84-.67-7.63.11-6.17.45-5.16-.11-4.83.67-3.82.22-2.92,2.13-2.69.79-1.35.79-2.47.34-2.24-.67-4.83-1.57-5.61L245.74,390l-1.68-3.37-3.59-2.81,1.57-1.68,1.46-.9,2.69-2.13.9,3.93,1.35,3.93,1.46,3.25,1,2.58,1.12,2,1,3.25,1.91,4.26,1.91,3.7,2.58,2.81,3,1.12,2.69-.11,1.68-.67L269,407.6l1.57-2.13,1-2.81.45-2.36-.67-2.92-1-3.59-.9-2.92.11-2.13,1.23-2,2.47-2.92,2.69-3.82,3-.56,3-.67,1.68-.45.56,3,.56,4.38.11,3.7.11,2.47-1.23,3.25-.56,4.15v4.49l1,4.49.9,3,2,4,2.47,2.69,2.36,2.47,2.47,1.57,3.14,1.35,3.25.67,3.93-.45,3.25-1.23,2.69-1.68,2.36-2.47,2-2.81,1.35-3,1-3.25L318,406l.11-4.49-.11-5.05-.11-30.41-.22-2.69-.22-1.91,1.23-2,.79-1.57.11-1.91Zm-66.23-20.49h-1.53l-2.16-.27-2.7-.09-3.24.09-3,.27-4.15-.27-3.51-.27-3.61-.18-2.07.45-2.88.72-2.07.27-3.42.18-2.61.09-4.06.63-3.51.18L206.49,333l-2-1.53-.18-1.71-.18-2.52,2.34.63.72-.27-.63-.63-.36-1h3.51l2.16.18.9-.54.27-1.35.18-1.89-.18-1.44-.69-.88,5-3.45,4.07-3.29,1.34.86,1.26.63.9-1.17,1.62-.9,2.16-.72,2.61-.36,1.26-.18,1.44-.54,1.44-.45,1.08-.09,1.35.18,1-.27,1.35-.36h1.08l.09-.72,1.71.36.9.63,1.71,1.71,2.34,2.16,2.34,2.79,1.62,2.7.81,2.7.18,5Zm31.09-.36-1.08,1.08-.9.09-1.26.36-3.51.27-3.06.27-2.07-.27-2.34-1-2.25-.45-3-.36-.36-3.33-.54-3.24-1.08-3.15-1.08-3.06-1.53-3.42L258,312.53l-2.25-3.42-2.07-2.52-3.06-3L248,301.36,249.3,300l1.44-3,1-2.07v-2.34l-.18-2.79,2.52.81,2.16.45L257.5,293l1.17,1.35,2.43,1,2.34.72,2.7-.18,1.26,2.16,2.16,3.79,1.89,3.51,2.43,4.42,2.61,4.78,2.34,4.6,2.88,5.5,3.15,7Z"/><polygon class="cls-2" points="109.17 260.5 105.48 255.58 103.22 250.25 103.43 243.07 106.09 238.35 109.79 234.66 113.89 233.02 118.4 232.4 124.14 233.22 128.86 234.87 132.97 238.15 136.25 242.04 138.71 246.15 139.12 250.86 138.5 255.38 136.86 258.86 134.2 261.12 109.17 260.5"/><polygon class="cls-6" points="111.38 258.36 106.64 253.49 107.53 249.14 108.69 245.3 109.33 242.61 110.86 239.02 112.27 236.34 114.06 238.13 117.01 241.84 118.8 244.02 121.23 241.07 123.92 238.13 125.33 236.46 127.89 240.56 130.71 245.17 133.91 250.03 135.57 252.72 133.01 256.44 130.96 258.74 128.91 253.49 127.12 248.75 124.82 243.89 122.39 247.22 119.95 251.31 116.88 247.47 114.83 245.04 113.55 243.5 112.27 251.57 111.38 258.36"/><polygon class="cls-7" points="101.08 276.74 110.06 276.78 118.52 277.41 127.14 277.88 134.03 278.51 142.81 279.76 151.43 281.17 159.1 281.95 168.19 282.74 174.3 282.74 177.91 282.27 182.92 280.54 185.27 279.76 191.85 279.29 198.44 279.45 202.04 280.54 206.74 282.27 210.03 280.07 213.79 278.66 218.34 278.66 222.41 279.92 225.23 281.8 228.36 286.19 229.93 292.45 230.09 297 228.52 302.17 225.23 308.75 221.47 313.29 217.4 316.58 212.38 320.03 207.37 321.6 204.23 321.91 201.41 320.03 199.38 328.33 195.93 333.19 192.48 337.42 186.53 344 180.1 348.24 175.4 350.43 169.45 353.56 167.25 354.5 162.08 358.42 155.97 361.4 150.64 362.96 144.53 362.96 139.21 362.49 134.5 361.4 131.21 360.3 127.77 357.01 125.1 354.19 122.06 351.49 118.25 349.24 111.85 347.9 108.93 346.55 106.13 344.64 103.43 341.95 101.64 339.93 100.4 336.79 99.5 333.53 99.5 330.5 99.73 327.25 100.85 323.88 99.95 321.75 99.5 319.5 99.5 317.48 99.95 315.01 100.85 312.88 101.52 311.31 102.42 312.1 103.21 309.96 102.53 308.95 102.2 307.72 102.08 305.47 102.2 303.45 102.65 301.1 102.98 299.08 102.76 295.37 102.42 291 102.2 287.97 101.75 285.38 101.41 282.8 101.19 280.78 101.19 278.88 101.08 276.74"/><polygon class="cls-8" points="136.48 296.02 137.82 289.65 139.66 284.95 141.5 281.44 142.81 279.76 151.43 281.17 159.1 281.95 161.78 282.11 163.46 284.95 163.96 286.97 160.11 284.95 157.76 283.95 154.58 283.61 151.39 283.78 148.38 285.12 145.53 286.97 143.01 289.31 140.5 291.66 136.48 296.02"/><polygon class="cls-8" points="120.55 294.51 116.87 290.32 113.18 286.63 111.17 284.95 108.32 283.78 106.14 283.61 104.63 284.45 103.63 286.8 102.79 283.45 102.29 280.43 102.79 277.92 103.8 276.41 110.06 276.78 114.02 277.08 116.53 282.78 118.54 287.64 120.55 294.51"/><polygon class="cls-9" points="102.2 287.97 102.76 295.37 103.09 297.73 102.98 299.08 102.65 301.1 102.2 303.45 102.08 305.47 102.2 307.72 102.53 308.95 103.21 309.96 104.36 306.68 105 304.87 104.87 302.16 104.36 298.41 102.2 287.97"/><polygon class="cls-9" points="189.65 306.55 187.07 307.59 185 307.33 183.06 305.78 181.9 302.93 181.77 299.32 183.06 296.6 184.35 294.27 185.65 292.47 185.9 288.98 185.9 285.49 185.9 283.42 185.27 279.76 191.85 279.29 198.44 279.45 202.04 280.54 206.74 282.27 203.48 286.65 202.19 289.24 201.02 293.63 200.38 299.32 199.99 303.58 200.12 307.33 200.64 310.04 200.25 313.01 198.83 315.34 196.89 316.25 194.69 316.37 192.88 315.73 191.07 313.53 190.04 310.82 189.65 306.55"/><polygon class="cls-2" points="147.39 288.33 144.42 289.24 142.35 290.92 140.28 293.63 139.12 297.12 138.86 300.48 139.38 304.23 140.8 309.52 143 313.14 145.06 315.99 147.39 317.54 148.43 318.05 151.01 317.02 153.72 316.12 155.79 315.47 157.86 315.34 159.28 314.69 160.44 312.5 161.48 309.78 161.61 305.78 161.09 300.74 160.7 297.76 159.67 294.66 157.86 292.08 154.76 289.62 152.04 288.33 149.46 288.07 147.39 288.33"/><polygon class="cls-2" points="111.08 286.91 109.53 287.43 108.1 289.24 107.85 292.34 108.23 296.73 108.62 300.61 109.78 305.65 110.95 309.4 112.89 311.08 114.95 313.53 117.93 312.88 120.64 312.11 122.58 312.11 123.22 309.14 123.22 305.78 123.09 302.29 122.32 299.06 121.16 295.83 120.55 294.51 116.87 290.32 113.18 286.63 111.08 286.91"/><polygon class="cls-10" points="152.04 288.33 150.36 288.59 148.17 290.01 146.49 292.6 146.23 295.7 146.1 299.83 147.26 304.49 149.2 308.49 152.04 310.95 154.11 311.59 156.57 311.59 158.63 310.95 160.19 309.52 161.48 307.85 161.61 305.78 161.09 300.74 160.7 297.76 159.67 294.66 157.86 292.08 154.76 289.62 152.04 288.33"/><polygon class="cls-10" points="115.08 288.59 113.4 290.92 112.76 293.37 112.63 297.51 113.4 301.64 114.44 304.87 115.86 307.07 117.67 308.88 119.86 309.27 122.06 308.36 123.35 307.33 123.22 305.78 123.09 302.29 122.32 299.06 121.16 295.83 120.55 294.51 116.87 290.32 115.08 288.59"/><polygon points="117.54 291.3 116.25 291.56 115.21 293.11 114.69 295.57 114.95 298.41 115.47 301.25 116.38 303.32 117.41 305.13 118.31 306.17 120.12 306.42 121.54 305.65 123.22 304.61 123.09 302.29 122.32 299.06 121.16 295.83 120.55 294.51 118.96 292.47 117.54 291.3"/><polygon points="153.47 291.05 151.27 291.69 149.85 293.76 149.2 296.08 149.2 298.93 149.46 301.51 150.23 303.84 151.78 305.78 153.47 307.2 155.53 307.33 157.34 306.55 158.89 305.39 160.06 303.06 160.19 300.48 159.8 297.89 159.47 296.56 158.73 294.64 158.04 293.34 156.93 292.28 155.57 291.42 153.47 291.05"/><polygon points="101.52 311.31 100.85 312.88 99.95 315.01 99.5 317.48 99.5 319.5 99.95 321.75 100.85 323.88 102.44 321.69 104.42 319.72 105.54 318.59 106.48 317.75 103.85 314.37 101.52 311.31"/><polygon points="170.18 312.39 168.87 314.65 167.27 316.06 165.11 318.03 162.67 319.81 159.94 321.51 156.84 322.73 153.65 323.76 151.02 324.42 148.57 325.08 146.13 325.45 144.63 325.64 145.1 327.8 145.1 330.15 145 332.59 143.5 335.5 141.15 338.51 138.43 341.71 136.08 343.96 133.17 345.93 130.91 347.06 129.03 348.1 131.94 349.22 135.04 349.6 138.05 349.6 140.78 349.32 143.22 348.28 145 346.87 146.6 345.37 147.73 343.3 150.08 344.43 153.27 344.81 156.47 344.34 158.81 343.58 161.07 341.33 162.29 339.26 162.85 337.57 162.67 334.56 165.11 334.19 166.99 333.72 169.15 332.12 171.12 330.15 172.53 327.24 173.19 324.14 173.38 321.51 172.81 318.12 171.97 315.87 170.18 312.39"/><polygon class="cls-11" points="122.06 351.49 115.22 354.52 111.74 356.43 109.27 358.11 106.35 360.47 103.09 362.94 100.63 364.17 103.7 366.66 106.52 370.97 109.34 375.87 111.42 380.47 113.2 384.92 114.24 388.63 114.69 390.86 118.55 388.19 122.41 385.37 125.97 383.14 129.09 380.91 131.32 379.43 132.06 374.38 132.8 372.15 129.39 368.89 126.27 364.29 123.89 360.13 122.86 356.86 122.41 353.89 122.06 351.49"/><polygon class="cls-12" points="130.57 389.23 128.94 389.82 127.75 391.75 126.86 394.57 126.72 396.5 126.57 399.03 127 400.19 127.67 403.11 128.57 405.36 129.69 407.04 131.6 408.61 133.54 408.97 135.47 408.82 136.51 407.34 137.11 405.11 137.7 402.29 137.7 399.62 137.55 396.65 136.81 393.53 135.77 390.86 133.69 388.93 130.57 389.23"/><polygon class="cls-13" points="114.69 390.86 118.55 388.19 122.41 385.37 125.97 383.14 129.09 380.91 131.32 379.43 130.57 383.44 130.57 387.3 130.57 389.23 128.94 389.82 127.75 391.75 126.86 394.57 126.72 396.5 126.57 399.03 127 400.19 125.2 403.79 122.4 408.84 119.37 414.56 116.56 419.72 114.09 422.86 111.29 425.78 109.27 427.47 106.57 428.7 103.32 429.82 100.4 430.05 96.7 429.37 92.88 427.91 89.85 425.78 86.71 421.85 85.03 418.82 84.35 416.36 86.33 416.84 89.3 416.99 91.53 416.1 92.57 414.02 94.35 410.75 95.83 408.08 97.47 406.6 100.29 403.63 102.66 401.25 104.59 398.73 106.23 395.76 107.41 393.24 109.49 393.53 111.42 394.13 112.76 393.83 113.95 392.64 114.69 390.86"/><polygon class="cls-2" points="100.63 364.17 97.6 363.5 94.79 363.83 93.33 366.3 92.21 367.76 88.28 368.55 83.57 369.44 80.65 370.23 77.39 370.12 74.36 370.9 72.23 372.36 71 373.82 68.3 375.95 65.83 377.52 63.59 379.54 60.34 379.1 56.07 379.43 53.83 380.33 50.12 381.34 47.2 383.36 44.62 385.83 42.72 388.41 42.04 390.77 42.49 392.68 44.29 394.25 46.76 395.37 48.22 395.37 47.43 396.94 46.42 399.75 45.97 402.66 45.75 406.59 46.53 409.62 47.77 411.64 50.23 412.43 51.58 412.65 53.6 411.19 55.51 409.29 56.86 406.59 58.99 408.84 60.9 410.97 63.59 412.2 65.72 412.76 67.74 411.75 69.31 410.3 69.54 407.71 69.65 405.92 68.86 403.9 70.55 404.01 73.02 403 74.48 401.43 75.6 400.08 76.16 398.62 78.97 399.86 81.55 400.87 84.24 401.54 83.23 404.35 82.22 407.49 81.55 410.41 82.22 413.21 83.34 415.46 84.35 416.36 86.33 416.84 89.3 416.99 91.53 416.1 92.57 414.02 94.35 410.75 95.83 408.08 97.47 406.6 100.29 403.63 102.66 401.25 104.59 398.73 106.23 395.76 107.41 393.24 109.49 393.53 111.42 394.13 112.76 393.83 113.95 392.64 114.69 390.86 114.24 388.63 113.2 384.92 111.42 380.47 109.34 375.87 106.52 370.97 103.7 366.66 100.63 364.17"/><polygon class="cls-14" points="133.54 408.97 135.47 408.82 136.51 407.34 137.11 405.11 137.7 402.29 137.7 399.62 137.55 396.65 136.81 393.53 135.77 390.86 133.69 388.93 130.57 389.23 130.57 387.3 130.57 383.44 131.32 379.43 132.06 374.38 132.8 372.15 133.69 368 134.44 364.58 135.47 361.46 139.21 362.49 143.64 362.8 142.45 367.4 141.86 372.3 141.41 376.46 141.26 379.73 141.56 382.25 142.9 384.48 145.42 385.96 149.28 387.15 152.4 387.59 157.3 387.15 160.86 386.26 165.17 384.77 168.58 383.44 170.81 382.4 171.85 381.36 172 379.28 172.15 375.27 173.03 369.78 174.22 363.54 175.26 358.79 176.45 354.19 177.79 349.14 180.1 348.24 183.28 345.88 186.53 344 192.48 337.42 195.93 333.19 198.87 330.14 202.28 330.58 204.51 331.46 206.49 332.99 208.38 334.25 204.81 334.44 202.43 334.59 199.91 335.63 197.38 337.26 195.31 339.64 193.97 342.31 192.63 346.02 192.19 350.33 192.04 355.67 192.04 359.39 192.34 365.32 193.08 370.37 193.67 374.23 194.86 377.94 197.24 381.66 200.06 385.07 203.32 387.3 207.18 389.67 211.64 391.9 215.05 393.53 219.5 394.42 223.37 394.13 227.22 392.64 230.49 390.42 232.72 388.49 235.09 385.81 236.13 383.14 236.58 379.13 236.73 375.12 235.69 370.82 238.06 374.83 239.25 377.2 239.7 380.32 240.46 383.81 238.36 387.59 235.39 391.16 231.98 394.42 228.56 397.39 224.7 399.62 219.95 401.85 214.46 404.37 208.37 406.89 201.24 409.42 194.41 411.79 187.59 413.28 181.05 414.76 174.67 416.1 170.22 416.99 166.35 417.73 163.83 416.99 161.01 416.55 156.56 416.84 152.25 416.99 148.98 417.29 145.27 417.29 140.22 416.1 137.11 414.17 134.73 411.64 133.54 408.97"/><polygon class="cls-15" points="182.43 384.82 179.9 385.25 177.08 386.65 175.11 388.77 173.56 392.01 173.28 395.25 173.84 398.77 175.81 401.58 178.21 403.56 181.44 404.96 184.12 405.53 187.08 404.54 189.75 402.57 191.73 400.46 193.28 397.5 193.84 394.68 193.42 391.87 192.29 389.33 190.46 387.22 187.92 385.53 185.39 384.82 182.43 384.82"/><polygon class="cls-16" points="240.46 383.81 244.05 386.62 245.74 389.98 247.19 394.25 248.77 399.86 249.44 404.68 249.1 406.93 248.32 409.4 247.53 410.74 245.4 413.44 240.46 417.64 236.37 420.46 229.75 423.98 223.28 427.92 216.8 430.46 210.6 432.71 205.39 434.68 200.32 436.09 194.68 437.78 189.05 439.05 182.15 440.46 177.5 441.16 175.39 441.44 174.26 443.7 171.59 445.81 169.33 446.37 157.08 446.51 152.57 446.94 149.47 445.95 147.22 444.82 145.11 442.85 144.4 440.6 143.42 438.49 142.85 437.08 139.47 434.82 136.94 431.87 134.69 427.92 133.42 425.11 132.27 421.52 131.71 417.48 131.49 414.33 131.38 410.63 131.6 408.61 133.54 408.97 133.84 410.6 134.73 411.64 135.53 413.13 137.11 414.17 140.22 416.1 145.27 417.29 148.98 417.29 152.25 416.99 156.56 416.84 161.01 416.55 163.83 416.99 166.35 417.73 170.22 416.99 174.67 416.1 181.05 414.76 187.59 413.28 194.41 411.79 201.24 409.42 208.37 406.89 214.46 404.37 219.95 401.85 224.7 399.62 228.56 397.39 235.39 391.16 238.36 387.59 240.46 383.81"/><path class="cls-17" d="M175.11,435.81l-1.41-4.37-1.55-5.21-1.41-3.8-2.25-3-2.13-1.74-2.52-.74-2.82-.45-4.45.3-4.31.15-3.27.3h-3.71l-2.28,1.2-1.55,1-1,2L140,423.7v2.68l1,4.23,1.13,3.94,1.27,3.94,1.41,3.1,1.83,2.11,1.83,1.55,1,.7,3.1,1,4.51-.42,12.25-.14,2.25-.56,2.68-2.11,1.13-2.25.42-2.39Zm-6.48,4.37-1.83.42-4.08.28-4.08.14-4.08.14-2.25-.14-1.41-.42-1.13-1.27-.85-2.11-1.41-4.37-1.13-3.8-.56-3.24-.14-2.25,1.27-.14h2.54l4.08-.28,3.8-.14,3.8-.28,2.39.14,1.27,1.27.85,2.68.85,2.68-2.25-.14-2.11.85-.7,2.68.7,2.11,2.11.85,2,.14h2.54l.42,1.27.56,2.54Z"/><polygon class="cls-13" points="177.84 450.02 179.07 452.38 179.63 454.74 179.75 457.99 179.07 461.92 176.94 465.51 174.92 468.09 172 471.23 168.97 473.59 167.63 473.7 166.28 474.83 162.01 478.08 160.22 479.76 158.09 482.57 156.74 484.59 154.16 486.38 151.35 488.18 148.21 489.75 144.62 490.76 140.92 491.77 137.44 492.22 133.17 492 129.24 491.32 125.99 490.2 123.18 488.52 121.39 485.82 120.49 484.14 119.03 481.56 117.46 478.19 116.9 474.26 117.46 469.44 119.37 465.4 122.96 461.47 125.65 459 128.77 462.01 131.73 464.82 135.53 467.5 138.49 468.49 140.74 468.91 142.99 470.18 146.66 471.16 150.46 471.44 153.42 471.44 156.94 470.88 160.46 470.32 163.84 468.91 167.5 466.8 170.74 464.68 173.98 461.16 176.23 458.34 177.5 454.68 177.84 450.02"/><polygon class="cls-18" points="246.3 451.03 248.32 452.94 250.56 455.3 252.13 458.22 253.59 461.69 255.84 467.19 256.57 468.73 270.03 461.75 280.35 456.07 284.32 453.7 286.3 451.97 289.09 449.29 294.02 445.82 297.5 443.7 302.33 440.77 310.24 436.19 319.86 430.99 336.14 422.31 352.62 413.63 362.76 408.26 370.44 403.85 373.4 401.64 374.88 399.59 374.07 398.17 373.35 396.75 363.17 401.48 357.32 404.79 356.08 405.43 350.88 408.11 341.42 412.68 329.31 418.2 316.92 423.25 307.59 426.88 295.85 431.3 286.31 434.61 284.82 434.77 280.36 436.35 267.12 440.93 260.63 443.29 250.55 447.24 245.04 449.44 245.06 449.8 246.3 451.03"/><polygon class="cls-14" points="220.52 487.42 223.72 485.74 241.48 476.58 254.82 469.64 256.57 468.73 255.84 467.19 253.59 461.69 252.13 458.22 250.56 455.3 248.32 452.94 246.3 451.03 245.06 449.8 245.04 449.44 243.45 450.08 235.95 452.6 228.25 455.13 220.93 457.33 214.86 458.75 208.7 460.17 204.37 460.81 201.35 460.49 199.94 459.54 200.1 459 200.42 457.96 202.94 455.6 209.3 451.81 213.47 449.44 219.79 445.82 228.32 441.08 239.37 435.56 244.11 433.37 244.16 430.16 244.61 425 244.5 420.17 245.18 416.36 245.4 413.44 240.46 417.64 236.37 420.46 229.75 423.98 223.28 427.92 216.8 430.46 210.6 432.71 205.39 434.68 200.32 436.09 194.68 437.78 189.05 439.05 182.15 440.46 177.5 441.16 175.39 441.44 174.26 443.7 171.59 445.81 169.33 446.37 157.08 446.51 152.57 446.94 149.47 445.95 148.49 445.25 147.22 444.82 145.11 442.85 144.82 441.58 144.4 440.6 143.42 438.49 142.85 437.08 139.47 434.82 136.94 431.87 134.69 427.92 133.42 425.11 132.27 421.52 129.69 425.67 127.11 429.94 124.75 434.2 122.4 438.46 121.16 442.06 120.72 445.42 120.83 448.9 121.61 452.27 123.3 455.63 125.65 459 128.77 462.01 131.73 464.82 135.53 467.5 138.49 468.49 140.74 468.91 142.99 470.18 146.66 471.16 150.46 471.44 153.42 471.44 156.94 470.88 160.46 470.32 163.84 468.91 167.5 466.8 170.74 464.68 173.98 461.16 176.23 458.34 177.5 454.68 177.84 450.02 178.18 446.66 182.44 447.67 186.82 448.68 190.07 450.14 191.98 451.71 193.78 454.85 195.01 458.67 196.92 464.84 199.05 471.01 200.51 474.71 202.42 477.97 205 481.56 207.69 484.03 210.95 485.94 212.85 487.17 213.98 488.85 215.34 490.15 220.52 487.42"/><polygon class="cls-14" points="241.48 476.58 223.72 485.74 220.52 487.42 215.34 490.15 215.95 490.74 218.06 492.85 220.88 494.82 224.26 495.53 227.92 495.67 232.57 494.68 239.47 492.85 245.11 491.72 250.88 490.18 256.65 488.91 260.46 487.92 263.56 486.65 264.7 485.49 265.04 483.69 265.15 481.33 264.03 479.54 261.67 477.74 259.88 474.71 257.86 471.46 256.57 468.73 254.82 469.64 241.48 476.58"/><polygon class="cls-14" points="228.32 441.08 219.79 445.82 213.47 449.44 209.3 451.81 202.94 455.6 200.42 457.96 200.1 459 199.94 459.54 201.35 460.49 204.37 460.81 208.7 460.17 214.86 458.75 220.93 457.33 228.25 455.13 235.95 452.6 243.45 450.08 245.04 449.44 244.73 443.96 244.05 436.33 244.11 433.37 239.37 435.56 228.32 441.08"/><polygon class="cls-13" points="213.98 488.85 214.7 490.49 215.34 490.15 213.98 488.85"/><polygon class="cls-13" points="259.73 492.2 249.45 496.94 237.18 502.3 228.01 506.09 223.51 507.82 219.99 509.31 220.15 509.95 221.72 515 222.84 519.16 224.53 522.63 225.98 525.66 228.12 528.7 230.59 531.39 234.51 533.63 239 535.76 244.73 537.22 249.44 537.9 254.94 537.34 260.1 536.21 264.14 534.98 268.97 531.5 270.54 529.93 272.11 528.36 273.35 525.66 266.34 489.04 259.73 492.2"/><polygon class="cls-13" points="275.81 521.74 277.05 517.92 277.5 514.55 277.5 510.06 276.82 506.25 274.36 500.19 271.66 495.03 268.52 490.76 266.05 487.51 264.7 485.49 263.56 486.65 260.46 487.92 256.65 488.91 250.88 490.18 245.11 491.72 239.47 492.85 232.57 494.68 227.92 495.67 224.26 495.53 220.88 494.82 218.06 492.85 215.95 490.74 215.34 490.15 214.7 490.49 215.77 492.89 217.23 498.51 218.58 503.44 219.99 509.31 223.51 507.82 228.01 506.09 237.18 502.3 249.45 496.94 259.73 492.2 266.34 489.04 273.35 525.66 274.36 524.43 275.81 521.74"/><polygon class="cls-19" points="236.15 332.18 240.29 332.45 243.26 332.18 246.51 332.09 249.21 332.18 251.38 332.45 255.38 333.67 251.67 335.45 248.71 337.68 245.89 339.9 243.22 342.87 241.14 346.43 239.06 349.99 238.17 353.26 237.58 356.52 237.43 360.67 237.43 363.94 238.17 366.9 236.99 367.05 235.21 367.35 233.72 367.5 232.24 367.2 230.9 364.83 229.87 360.82 229.12 355.78 229.12 350.14 229.57 345.39 230.46 339.75 231.94 335.75 233.72 333.23 236.15 332.18"/><polygon class="cls-20" points="246.19 379.1 243.49 381.23 242.03 382.13 240.46 383.81 239.7 380.32 239.25 377.2 238.06 374.83 235.69 370.82 233.72 367.5 235.21 367.35 236.99 367.05 238.17 366.9 239.21 370.32 240.69 372.39 242.33 374.62 246.33 377.44 246.19 379.1"/><polygon class="cls-2" points="243.22 342.87 241.14 346.43 239.06 349.99 238.17 353.26 237.58 356.52 237.43 360.67 237.43 363.94 238.17 366.9 239.21 370.32 240.69 372.39 242.33 374.62 246.33 377.44 246.19 379.1 247.08 383.02 248.43 386.95 249.89 390.21 250.9 392.79 252.02 394.81 253.03 398.06 254.94 402.33 256.85 406.03 259.43 408.84 262.46 409.96 265.15 409.85 266.83 409.17 268.97 407.6 270.54 405.47 271.55 402.66 272 400.31 271.32 397.39 270.31 393.8 269.42 390.88 269.53 388.75 270.76 386.73 273.23 383.81 275.93 379.99 278.96 379.43 281.99 378.76 283.67 378.31 283.72 376.55 286.83 375.36 287.13 378.18 288.17 380.26 289.65 382.93 291.29 384.11 293.51 384.86 295.74 384.41 298.55 383.08 300.19 381.44 301.37 379.37 303.15 375.81 304.64 372.84 304.93 370.76 307.01 369.72 309.09 367.94 310.57 365.57 313.39 365.12 316.36 362.75 317.45 361.48 318.69 359.45 319.47 357.88 319.58 355.98 319.13 352.95 318.69 349.92 317.45 345.65 314.76 342.29 311.28 339.82 307.24 337.68 304.66 336.34 301.63 335.44 298.55 334.71 295.14 333.97 292.18 333.67 290.25 333.67 287.87 331.89 285.94 331.6 284.9 331.64 284 332.09 282.92 333.17 282.02 333.26 280.76 333.62 277.24 333.89 274.18 334.16 272.11 333.89 269.76 332.9 267.51 332.45 264.54 332.09 260.87 332.04 258.2 332.49 255.38 333.67 251.67 335.45 248.71 337.68 245.89 339.9 243.22 342.87"/><polygon class="cls-17" points="301.63 335.44 299.91 330.21 297.03 323.08 293.87 317.18 291.27 311.96 287.97 305.79 285.37 300.99 281.94 295.23 278.64 289.87 275.32 292.14 271.45 293.65 269.1 295.16 266.16 295.86 269.58 301.81 271.48 305.32 273.91 309.74 276.52 314.52 278.87 319.11 281.75 324.61 284.9 331.64 287.87 331.89 290.25 333.67 295.14 333.97 298.55 334.71 301.63 335.44"/><polygon class="cls-17" points="283.03 273.82 282.35 270.53 281.52 267.78 280.15 266.27 276.66 263.56 274.31 261.71 271.96 259.53 270.78 263.56 270.61 268.77 270.61 273.31 271.12 277.51 272.13 281.72 273.3 285.08 273.98 287.26 275.15 287.43 276.16 285.58 277.17 284.4 279.69 282.05 281.39 279.44 282.76 276.43 283.03 273.82"/><polygon class="cls-17" points="264.54 332.09 258.2 332.49 255.38 333.67 252.91 332.45 253.09 327.31 252.91 322.27 252.1 319.56 250.47 316.86 248.13 314.07 245.79 311.9 244.08 310.19 241.46 309.2 238.94 310.28 235.51 310.46 232.63 311.45 231.37 311.63 228.75 311.99 226.59 312.71 224.97 313.62 224.07 314.79 221.47 313.29 225.23 308.75 228.52 302.17 230.09 297 229.93 292.45 228.36 286.19 225.23 281.8 224.23 280.54 226.64 278.49 226.36 280.54 228.97 280.13 232.13 280.68 236.24 278.35 239.67 275.88 242.28 274.09 242.56 271.9 243.38 270.39 244.61 269.15 246.4 268.33 246.53 266.41 247.22 265.31 249.28 262.98 251.61 261.47 253.4 260.37 252.46 264.91 252.29 270.62 252.63 275.67 252.97 280.37 253.97 284.74 255.32 288.44 256.24 291.08 254.08 290.63 251.56 289.82 251.74 292.62 251.74 294.96 250.75 297.03 249.3 300.01 248.04 301.36 250.66 303.61 253.72 306.58 255.79 309.11 258.05 312.53 259.94 315.87 261.47 319.29 262.55 322.36 263.63 325.51 264.17 328.76 264.54 332.09"/><polygon class="cls-21" points="253.4 260.37 253.81 258.31 255.45 255.71 257.37 254.47 259.98 253.1 263 253.24 267.25 253.79 272.61 255.29 275.62 256.53 277.54 258.59 279.46 263.25 280.15 266.27 276.66 263.56 274.31 261.71 271.96 259.53 270.78 263.56 270.61 268.77 270.61 273.31 271.12 277.51 272.13 281.72 273.3 285.08 273.98 287.26 275.15 287.43 276.16 285.58 277.17 284.4 279.69 282.05 281.39 279.44 281.25 282.19 280.98 285.35 279.88 288.09 278.64 289.87 275.32 292.14 271.45 293.65 269.1 295.16 266.16 295.86 263.45 296.04 261.11 295.32 258.68 294.33 257.5 292.98 256.24 291.08 255.32 288.44 253.97 284.74 252.97 280.37 252.63 275.67 252.29 270.62 252.46 264.91 253.4 260.37"/><polygon class="cls-13" points="317.45 361.48 317.68 363.38 318.01 396.49 318.12 401.54 318.01 406.03 317.45 409.17 316.44 412.43 315.09 415.46 313.07 418.26 310.72 420.73 308.02 422.42 304.77 423.65 300.84 424.1 297.59 423.43 294.44 422.08 291.97 420.51 289.62 418.04 287.15 415.35 285.13 411.31 284.23 408.27 283.22 403.79 283.22 399.3 283.78 395.14 285.02 391.89 284.9 389.42 284.79 385.72 284.23 381.34 283.67 378.31 283.72 376.55 286.83 375.36 287.13 378.18 288.17 380.26 289.65 382.93 291.29 384.11 293.51 384.86 295.74 384.41 298.55 383.08 300.19 381.44 301.37 379.37 303.15 375.81 304.64 372.84 304.93 370.76 307.01 369.72 309.09 367.94 310.57 365.57 313.39 365.12 316.36 362.75 317.45 361.48"/><polygon class="cls-17" points="205.8 213.23 204 205.49 202.49 198.76 201.12 191.9 200.29 188.34 200.84 186.28 202.08 182.98 202.35 179 202.76 175.16 202.9 170.77 202.76 165.97 197.28 169.35 192.36 171.99 188.14 173.04 183.74 174.1 179.35 174.8 174.25 175.33 170.38 175.15 167.09 174.48 169.69 179.69 172.71 184.77 174.63 188.34 176 189.98 178.75 192.72 180.53 200.82 181.36 205.35 182.73 210.56 184.62 218.05 187.72 217.88 191.68 217.36 195.47 216.5 200.63 215.3 203.56 214.26 205.8 213.23"/><polygon class="cls-21" points="218.82 230.05 215.27 232.17 211.65 233.89 206.31 235.61 202.01 236.82 196.67 238.19 193.4 238.71 191.16 239.06 187.72 235.96 183.76 232.17 180.49 229.24 177.91 226.66 174.81 224.42 172.16 222.78 173.53 217.84 175.46 214.95 178.34 212.35 182.73 210.56 184.62 218.05 187.72 217.88 191.68 217.36 195.47 216.5 200.63 215.3 203.56 214.26 205.8 213.23 204 205.49 207.29 205.62 210.03 205.76 212.78 206.45 215.39 208.09 217.44 210.84 220.6 214.54 222.93 218.66 224.58 221.81 224.03 222.91 222.93 225.25 221.01 227.85 218.82 230.05"/><polygon class="cls-22" points="224.23 280.54 226.64 278.49 230.34 270.94 232.26 266.68 232.4 264.63 230.07 262.02 226.91 258.45 224.31 255.71 222.52 253.92 224.44 248.02 225.81 243.36 226.78 240.48 226.5 238.69 222.8 234.71 220.19 231.83 218.82 230.05 215.27 232.17 211.65 233.89 206.31 235.61 202.01 236.82 196.67 238.19 193.4 238.71 191.16 239.06 194.78 241.81 198.05 244.22 201.66 246.46 206.14 248.52 209.93 250.07 213.03 251.97 215.44 254.55 218.02 257.82 219.05 261.95 219.91 265.57 219.91 269.7 218.88 273.49 217.68 276.07 215.96 278.48 218.34 278.66 222.41 279.92 224.23 280.54"/><polygon class="cls-21" points="202.76 165.97 197.28 169.35 192.36 171.99 188.14 173.04 183.74 174.1 179.35 174.8 174.25 175.33 170.38 175.15 167.09 174.48 164.75 173.38 161.19 172.01 157.76 169.67 154.6 167.2 151.58 164.32 148.01 159.25 147.82 155.75 150.72 154.48 153.25 153.22 156.14 151.95 157.95 149.97 159.21 147.25 159.75 144 159.39 141.11 158.31 138.04 156.5 135.51 153.79 134.42 150.18 133.7 146.38 132.44 145 128.92 146.37 125.08 148.84 121.37 152.4 116.43 157.48 111.91 163.52 108.75 167.5 107.1 173.12 105.59 178.61 105.46 186.3 106.28 192.88 108.34 198.51 111.49 204 115.75 208.25 121.1 210.86 127.14 212.89 132.44 213.43 136.77 213.79 142.01 213.19 146.76 212.5 149.91 211.68 152.52 210.17 155.81 208.25 159.38 206.19 162.54 202.76 165.97"/><polygon class="cls-17" points="185.6 154.66 180.9 148.88 177.28 140.75 176.56 134.24 176.38 127.92 177.46 122.5 179.81 119.06 182.52 117.25 186.14 115.81 190.66 115.81 195.72 117.25 200.24 120.15 203.49 123.04 206.2 126.47 208.19 130.63 209.27 134.42 209.81 139.84 208.73 143.82 207.65 147.62 205.66 151.41 202.77 154.3 198.79 156.65 194.45 157.74 189.21 157.19 185.6 154.66"/><polygon class="cls-17" points="210.86 127.14 214.97 129.74 220.19 133.17 224.17 136.06 220.46 139.62 216.35 144.29 213.19 146.76 213.79 142.01 213.43 136.77 212.89 132.44 210.86 127.14"/><polygon class="cls-23" points="190.66 131.17 186.5 131.89 183.07 132.8 182.34 135.33 182.89 137.86 184.33 139.84 186.32 140.21 189.93 139.66 193.73 139.3 196.44 139.12 198.25 140.21 198.25 142.92 198.07 146.71 197.53 150.33 196.98 152.13 198.43 153.76 200.06 153.58 202.22 152.5 204.03 149.6 204.75 147.07 205.12 143.64 205.3 140.93 205.3 139.12 206.38 137.86 208.91 138.04 209.27 134.42 208.19 130.63 205.66 129.18 202.77 129.18 201.5 129.54 200.6 126.65 198.79 122.5 196.8 119.6 194.45 117.98 192.28 117.62 190.66 118.16 189.93 119.6 191.74 120.51 192.83 123.04 194.09 125.93 195.54 130.45 190.66 131.17"/><polygon class="cls-17" points="156.5 135.51 153.79 134.42 150.18 133.7 146.38 132.44 145 128.92 141.43 122.06 137.59 116.98 133.74 113.42 128.8 109.71 122.63 107.1 116.18 106.28 109.87 107.24 103.28 110.4 99.44 113.42 95.19 117.94 92.17 122.88 89.7 128.78 88.19 134.82 87.5 140.03 87.23 146.62 87.91 154.31 89.83 162.26 92.85 169.81 97.11 175.71 101.09 180.51 105.75 183.81 112.06 187.24 118.51 188.34 124 187.92 129.22 186 134.29 183.26 138.82 178.73 142.66 173.79 145 168.85 147.05 163.09 148.01 159.25 147.82 155.75 150.72 154.48 153.25 153.22 156.14 151.95 157.95 149.97 159.21 147.25 159.75 144 159.39 141.11 158.31 138.04 156.5 135.51"/><polygon class="cls-23" points="119.99 120.15 116.56 119.24 112.77 119.78 107.7 121.59 103.55 124.48 101.02 128.82 98.13 137.13 97.04 143.64 97.22 149.97 99.93 158.64 104.99 166.23 109.51 171.11 114.21 174.72 118.91 175.63 122.7 175.09 125.78 173.28 129.57 170.03 132.46 165.15 134.63 158.64 135.72 151.77 135.35 145.63 134.99 140.57 132.82 134.42 130.84 129.54 128.85 126.29 125.78 122.68 122.89 121.05 119.99 120.15"/></g></g></svg>