<svg xmlns="http://www.w3.org/2000/svg" viewBox="0 0 266.35 266.35"><defs><style>.cls-1{fill:#cdaf70;}.cls-2{fill:#fff;}.cls-3{fill:#26294c;}.cls-4{fill:#ed2024;}.cls-5{fill:#ce2527;}.cls-6{fill:#cb2227;}.cls-7{fill:#ffdcb1;}.cls-8{fill:#190b0c;}.cls-9{fill:#7a3418;}.cls-10{fill:#218fb7;}.cls-11{fill:#ffe1b2;}.cls-12{fill:#ffe500;}.cls-13{fill:#d9884a;}.cls-14{fill:#174da1;}.cls-15{fill:#fee400;}.cls-16{fill:#ad5e27;}.cls-17{fill:#c6c4d2;}.cls-18{fill:none;}.cls-19{fill:#fdd1a9;}.cls-20{fill:#fcef59;}.cls-21{fill:#faf071;}.cls-22{fill:#6971b5;}.cls-23{fill:#62606b;}</style></defs><title>sunshine_square</title><g id="Layer_2" data-name="Layer 2"><g id="Layer_1-2" data-name="Layer 1"><rect class="cls-1" width="266.35" height="266.35"/><path class="cls-2" d="M84,251.27a3.78,3.78,0,0,0,.38,1.44,2.86,2.86,0,0,0,.8,1,3.16,3.16,0,0,0,1.12.54,5.31,5.31,0,0,0,1.36.17,4.53,4.53,0,0,0,1.47-.21,2.78,2.78,0,0,0,1-.58,2.26,2.26,0,0,0,.57-.84,2.75,2.75,0,0,0,.19-1,2,2,0,0,0-.34-1.2,2.59,2.59,0,0,0-.87-.75,5.39,5.39,0,0,0-1.24-.47L87,249q-.73-.17-1.43-.4a4.5,4.5,0,0,1-1.24-.62,3,3,0,0,1-.87-1,3.17,3.17,0,0,1-.34-1.55,3.12,3.12,0,0,1,.27-1.27,3.18,3.18,0,0,1,.81-1.1,4,4,0,0,1,1.35-.76,5.7,5.7,0,0,1,1.87-.28,5.38,5.38,0,0,1,1.88.3,3.74,3.74,0,0,1,1.33.82,3.39,3.39,0,0,1,.8,1.21,4.06,4.06,0,0,1,.26,1.47H90.57a2.85,2.85,0,0,0-.26-1.25,2.36,2.36,0,0,0-.7-.87,3,3,0,0,0-1-.5,4.31,4.31,0,0,0-1.17-.16,4.1,4.1,0,0,0-1.55.26,2.72,2.72,0,0,0-1,.66,2.26,2.26,0,0,0-.51.9,2.16,2.16,0,0,0-.05,1,1.73,1.73,0,0,0,.5,1,3.12,3.12,0,0,0,1,.61,7.23,7.23,0,0,0,1.25.39l1.39.32a14.19,14.19,0,0,1,1.37.4,4.24,4.24,0,0,1,1.18.62,2.87,2.87,0,0,1,.82,1,3.37,3.37,0,0,1,.31,1.53,3.3,3.3,0,0,1-1.22,2.74,5.38,5.38,0,0,1-3.43,1,6.33,6.33,0,0,1-1.84-.26,4.07,4.07,0,0,1-1.47-.78,3.57,3.57,0,0,1-1-1.29,4.39,4.39,0,0,1-.34-1.81Z"/><path class="cls-2" d="M100.35,245.91h1.06v9.16h-1.06V253.8c-.14.17-.3.34-.48.51a3.61,3.61,0,0,1-.61.49,3.5,3.5,0,0,1-.8.37,3.43,3.43,0,0,1-1.06.15,4,4,0,0,1-1.54-.26,2.52,2.52,0,0,1-1-.72,2.82,2.82,0,0,1-.55-1.07,5,5,0,0,1-.17-1.33v-6H95.2v6a2.67,2.67,0,0,0,.55,1.81,2.28,2.28,0,0,0,1.8.63,2.63,2.63,0,0,0,1.18-.26,2.45,2.45,0,0,0,.88-.72,3.41,3.41,0,0,0,.55-1.1,4.78,4.78,0,0,0,.19-1.4Z"/><path class="cls-2" d="M105.16,258.68H104.1V245.91h1.06v1.61h0a3.11,3.11,0,0,1,.59-.8,3.46,3.46,0,0,1,.8-.58,4.34,4.34,0,0,1,.89-.35,3.48,3.48,0,0,1,.9-.12,4.36,4.36,0,0,1,1.89.37,3.51,3.51,0,0,1,1.28,1,4.16,4.16,0,0,1,.73,1.53,7.5,7.5,0,0,1,.23,1.89,6.78,6.78,0,0,1-.25,1.84,4.56,4.56,0,0,1-.75,1.55,3.71,3.71,0,0,1-1.27,1.06,3.89,3.89,0,0,1-1.81.4,4.22,4.22,0,0,1-1.87-.43,3.28,3.28,0,0,1-1.41-1.28Zm0-8.15a5.07,5.07,0,0,0,.21,1.48,3.84,3.84,0,0,0,.61,1.22,3,3,0,0,0,1,.83,2.7,2.7,0,0,0,1.3.31,3,3,0,0,0,1.42-.33,2.8,2.8,0,0,0,1-.89,3.85,3.85,0,0,0,.57-1.32,6,6,0,0,0,.14-1.62,4.51,4.51,0,0,0-.24-1.53,3.25,3.25,0,0,0-.66-1.12,2.84,2.84,0,0,0-1-.7,3.16,3.16,0,0,0-1.24-.24,2.86,2.86,0,0,0-1.33.3,2.8,2.8,0,0,0-1,.82,3.77,3.77,0,0,0-.59,1.24A5.64,5.64,0,0,0,105.16,250.53Z"/><path class="cls-2" d="M115.43,250.74a5,5,0,0,0,.19,1.41,3.39,3.39,0,0,0,.58,1.15,2.77,2.77,0,0,0,1,.78,3,3,0,0,0,1.34.29,2.93,2.93,0,0,0,1.79-.55,2.64,2.64,0,0,0,1-1.56h1.18a5.72,5.72,0,0,1-.51,1.21,3.71,3.71,0,0,1-.8,1,3.42,3.42,0,0,1-1.13.65,4.58,4.58,0,0,1-1.52.23,4.43,4.43,0,0,1-1.89-.37,3.56,3.56,0,0,1-1.31-1,4.29,4.29,0,0,1-.76-1.52,6.9,6.9,0,0,1-.25-1.88,6,6,0,0,1,.29-1.89,4.8,4.8,0,0,1,.83-1.55,3.87,3.87,0,0,1,1.32-1,4,4,0,0,1,1.77-.38,3.65,3.65,0,0,1,3,1.3,5.72,5.72,0,0,1,1.06,3.78Zm6-.88a4.2,4.2,0,0,0-.19-1.26,3,3,0,0,0-.55-1,2.61,2.61,0,0,0-.91-.69,2.93,2.93,0,0,0-1.25-.26,2.79,2.79,0,0,0-1.25.27,2.88,2.88,0,0,0-.92.71,3.55,3.55,0,0,0-.61,1,4.74,4.74,0,0,0-.3,1.24Z"/><path class="cls-2" d="M125.72,255.07h-1.06v-9.16h1.06v1.72h0a3.07,3.07,0,0,1,1.14-1.53,3.47,3.47,0,0,1,1.85-.43v1.15a3.1,3.1,0,0,0-1.49.28,2.46,2.46,0,0,0-.93.81,3.24,3.24,0,0,0-.48,1.21,7.86,7.86,0,0,0-.13,1.46Z"/><path class="cls-2" d="M135.52,255.07V242.34h1.84l4.17,11.23h0l4.1-11.23h1.82v12.73h-1.2V243.72h0l-4.17,11.35h-1.13l-4.19-11.35h0v11.35Z"/><path class="cls-2" d="M154.35,249.73l.72-.11a2.71,2.71,0,0,0,.68-.19.56.56,0,0,0,.33-.42,2.63,2.63,0,0,0,.06-.54,1.81,1.81,0,0,0-.52-1.33,2.43,2.43,0,0,0-1.76-.52,4.9,4.9,0,0,0-1,.1,2.19,2.19,0,0,0-.8.34,1.85,1.85,0,0,0-.57.64,2.7,2.7,0,0,0-.29,1h-1.08a3.28,3.28,0,0,1,.37-1.39,2.8,2.8,0,0,1,.82-.94,3.39,3.39,0,0,1,1.17-.53,5.7,5.7,0,0,1,1.41-.17,5.45,5.45,0,0,1,1.3.15,3,3,0,0,1,1.06.48,2.23,2.23,0,0,1,.71.88,3.17,3.17,0,0,1,.26,1.34v5c0,.41.07.67.22.79s.44.09.89-.08V255l-.36.11a1.65,1.65,0,0,1-.47.07,2.13,2.13,0,0,1-.48-.05.83.83,0,0,1-.42-.17,1,1,0,0,1-.26-.32,1.3,1.3,0,0,1-.13-.41,3,3,0,0,1,0-.47,4.6,4.6,0,0,1-1.54,1.13,4.51,4.51,0,0,1-1.87.39,4.21,4.21,0,0,1-1.16-.16,2.8,2.8,0,0,1-1-.5,2.44,2.44,0,0,1-.67-.82,2.51,2.51,0,0,1-.25-1.16q0-2.33,3.2-2.76Zm1.79.53a5.2,5.2,0,0,1-1.36.37q-.69.09-1.38.14a3.89,3.89,0,0,0-1.9.55,1.57,1.57,0,0,0-.68,1.4,1.51,1.51,0,0,0,.17.73,1.53,1.53,0,0,0,.44.51,1.85,1.85,0,0,0,.64.3,2.79,2.79,0,0,0,.73.1,4.81,4.81,0,0,0,1.24-.16,3.36,3.36,0,0,0,1.07-.49,2.48,2.48,0,0,0,.75-.83,2.4,2.4,0,0,0,.28-1.19Z"/><path class="cls-2" d="M161.09,255.07H160v-9.16h1.06v1.72h0a3.07,3.07,0,0,1,1.14-1.53,3.47,3.47,0,0,1,1.85-.43v1.15a3.1,3.1,0,0,0-1.49.28,2.46,2.46,0,0,0-.93.81,3.24,3.24,0,0,0-.48,1.21,7.86,7.86,0,0,0-.13,1.46Z"/><path class="cls-2" d="M166,243.91v-1.57h1.17v1.57Zm.05,11.16v-9.16h1.06v9.16Z"/><path class="cls-2" d="M173.43,255.32a4.77,4.77,0,0,1-1.65-.32,3.69,3.69,0,0,1-1.34-.9,4.31,4.31,0,0,1-.91-1.5,6,6,0,0,1-.34-2.1,6.46,6.46,0,0,1,.27-1.88,4.43,4.43,0,0,1,.8-1.53,3.79,3.79,0,0,1,1.33-1,4.26,4.26,0,0,1,1.86-.38,4.31,4.31,0,0,1,1.88.38,3.84,3.84,0,0,1,1.33,1,4.24,4.24,0,0,1,.79,1.53,6.76,6.76,0,0,1,.26,1.89,6.1,6.1,0,0,1-.3,2,4.46,4.46,0,0,1-.86,1.52,3.79,3.79,0,0,1-1.34,1A4.3,4.3,0,0,1,173.43,255.32Zm3.11-4.83a6.24,6.24,0,0,0-.18-1.52,3.62,3.62,0,0,0-.55-1.23,2.65,2.65,0,0,0-1-.82,3.1,3.1,0,0,0-1.43-.3,2.91,2.91,0,0,0-1.42.33,2.79,2.79,0,0,0-1,.87,3.81,3.81,0,0,0-.55,1.24,5.84,5.84,0,0,0-.18,1.44,5.71,5.71,0,0,0,.2,1.57,3.66,3.66,0,0,0,.59,1.23,2.65,2.65,0,0,0,1,.8,3,3,0,0,0,1.34.28,2.91,2.91,0,0,0,1.42-.33,2.76,2.76,0,0,0,1-.87,4,4,0,0,0,.55-1.24A5.73,5.73,0,0,0,176.55,250.49Z"/><path class="cls-2" d="M185.19,251.27a3.78,3.78,0,0,0,.38,1.44,2.86,2.86,0,0,0,.8,1,3.16,3.16,0,0,0,1.12.54,5.31,5.31,0,0,0,1.36.17,4.53,4.53,0,0,0,1.47-.21,2.78,2.78,0,0,0,1-.58,2.26,2.26,0,0,0,.57-.84,2.75,2.75,0,0,0,.19-1,2,2,0,0,0-.34-1.2,2.59,2.59,0,0,0-.87-.75,5.39,5.39,0,0,0-1.24-.47l-1.43-.34q-.73-.17-1.43-.4a4.5,4.5,0,0,1-1.24-.62,3,3,0,0,1-.87-1,3.17,3.17,0,0,1-.34-1.55,3.12,3.12,0,0,1,.27-1.27,3.18,3.18,0,0,1,.81-1.1,4,4,0,0,1,1.35-.76,5.7,5.7,0,0,1,1.87-.28,5.38,5.38,0,0,1,1.88.3,3.74,3.74,0,0,1,1.33.82,3.39,3.39,0,0,1,.8,1.21,4.06,4.06,0,0,1,.26,1.47h-1.15a2.85,2.85,0,0,0-.26-1.25,2.36,2.36,0,0,0-.7-.87,3,3,0,0,0-1-.5,4.31,4.31,0,0,0-1.17-.16,4.1,4.1,0,0,0-1.55.26,2.72,2.72,0,0,0-1,.66,2.26,2.26,0,0,0-.51.9,2.16,2.16,0,0,0-.05,1,1.73,1.73,0,0,0,.5,1,3.12,3.12,0,0,0,1,.61,7.23,7.23,0,0,0,1.25.39l1.39.32a14.19,14.19,0,0,1,1.37.4,4.24,4.24,0,0,1,1.18.62,2.87,2.87,0,0,1,.82,1,3.37,3.37,0,0,1,.31,1.53,3.3,3.3,0,0,1-1.22,2.74,5.38,5.38,0,0,1-3.43,1,6.33,6.33,0,0,1-1.84-.26,4.07,4.07,0,0,1-1.47-.78,3.57,3.57,0,0,1-1-1.29,4.39,4.39,0,0,1-.34-1.81Z"/><path class="cls-2" d="M201.55,245.91h1.06v9.16h-1.06V253.8c-.14.17-.3.34-.48.51a3.61,3.61,0,0,1-.61.49,3.5,3.5,0,0,1-.8.37,3.43,3.43,0,0,1-1.06.15,4,4,0,0,1-1.54-.26,2.52,2.52,0,0,1-1-.72,2.82,2.82,0,0,1-.55-1.07,5,5,0,0,1-.17-1.33v-6h1.06v6a2.67,2.67,0,0,0,.55,1.81,2.28,2.28,0,0,0,1.8.63,2.63,2.63,0,0,0,1.18-.26,2.45,2.45,0,0,0,.88-.72,3.41,3.41,0,0,0,.55-1.1,4.78,4.78,0,0,0,.19-1.4Z"/><path class="cls-2" d="M206.24,255.07h-1.06v-9.16h1.06v1.27a6.77,6.77,0,0,1,1.32-1.1,3,3,0,0,1,1.64-.42,4.18,4.18,0,0,1,1.57.29,2.69,2.69,0,0,1,1.22,1,2.28,2.28,0,0,1,.4,1,9.28,9.28,0,0,1,.06,1.09v6h-1.06v-6a2.73,2.73,0,0,0-.55-1.86,2.33,2.33,0,0,0-1.82-.62,2.59,2.59,0,0,0-.9.15,2.86,2.86,0,0,0-.73.4,2.68,2.68,0,0,0-.56.57,2.61,2.61,0,0,0-.35.67,3.36,3.36,0,0,0-.19.85q0,.41,0,.88Z"/><path class="cls-2" d="M215.63,252.21a2.69,2.69,0,0,0,.89,1.67,3,3,0,0,0,1.85.49,3.19,3.19,0,0,0,1-.14,2,2,0,0,0,.7-.38,1.63,1.63,0,0,0,.42-.54,1.47,1.47,0,0,0,.14-.64,1.17,1.17,0,0,0-.43-1,3.28,3.28,0,0,0-1.09-.51,14.1,14.1,0,0,0-1.42-.32,6.88,6.88,0,0,1-1.41-.4,2.83,2.83,0,0,1-1.09-.76,2.05,2.05,0,0,1-.43-1.4,2.39,2.39,0,0,1,.84-1.88,3.5,3.5,0,0,1,2.38-.73,4.06,4.06,0,0,1,2.41.66,3,3,0,0,1,1.12,2.22h-1.08a2,2,0,0,0-.8-1.49,3,3,0,0,0-1.67-.43,2.38,2.38,0,0,0-1.54.43,1.4,1.4,0,0,0-.53,1.14,1.11,1.11,0,0,0,.43.95,3.54,3.54,0,0,0,1.09.53q.65.2,1.41.36a7,7,0,0,1,1.42.45,3.1,3.1,0,0,1,1.09.79,2,2,0,0,1,.43,1.38,2.33,2.33,0,0,1-.28,1.16,2.47,2.47,0,0,1-.78.84,3.64,3.64,0,0,1-1.18.5,6.27,6.27,0,0,1-1.5.17,4,4,0,0,1-1.44-.24,3.13,3.13,0,0,1-1.07-.66,3,3,0,0,1-.69-1,3.48,3.48,0,0,1-.28-1.22Z"/><path class="cls-2" d="M223.85,255.07V242.34h1.06v4.85a6.77,6.77,0,0,1,1.32-1.1,3,3,0,0,1,1.64-.42,4.18,4.18,0,0,1,1.57.29,2.69,2.69,0,0,1,1.22,1,2.28,2.28,0,0,1,.4,1,9.28,9.28,0,0,1,.06,1.09v6h-1.06v-6a2.73,2.73,0,0,0-.55-1.86,2.33,2.33,0,0,0-1.82-.62,2.59,2.59,0,0,0-.9.15,2.86,2.86,0,0,0-.73.4,2.68,2.68,0,0,0-.56.57,2.61,2.61,0,0,0-.35.67,3.36,3.36,0,0,0-.19.85q0,.41,0,.88v4.93Z"/><path class="cls-2" d="M233.79,243.91v-1.57H235v1.57Zm.05,11.16v-9.16h1.06v9.16Z"/><path class="cls-2" d="M238.67,255.07h-1.06v-9.16h1.06v1.27a6.77,6.77,0,0,1,1.32-1.1,3,3,0,0,1,1.64-.42,4.18,4.18,0,0,1,1.57.29,2.69,2.69,0,0,1,1.22,1,2.28,2.28,0,0,1,.4,1,9.28,9.28,0,0,1,.06,1.09v6h-1.06v-6a2.73,2.73,0,0,0-.55-1.86,2.33,2.33,0,0,0-1.82-.62,2.59,2.59,0,0,0-.9.15,2.86,2.86,0,0,0-.73.4,2.68,2.68,0,0,0-.56.57,2.61,2.61,0,0,0-.35.67,3.36,3.36,0,0,0-.19.85q0,.41,0,.88Z"/><path class="cls-2" d="M248.1,250.74a5,5,0,0,0,.19,1.41,3.39,3.39,0,0,0,.58,1.15,2.77,2.77,0,0,0,1,.78,3,3,0,0,0,1.34.29,2.93,2.93,0,0,0,1.79-.55,2.64,2.64,0,0,0,1-1.56h1.18a5.72,5.72,0,0,1-.51,1.21,3.71,3.71,0,0,1-.8,1,3.42,3.42,0,0,1-1.13.65,4.58,4.58,0,0,1-1.52.23,4.43,4.43,0,0,1-1.89-.37,3.56,3.56,0,0,1-1.31-1,4.29,4.29,0,0,1-.76-1.52,6.9,6.9,0,0,1-.25-1.88,6,6,0,0,1,.29-1.89,4.8,4.8,0,0,1,.83-1.55,3.87,3.87,0,0,1,1.32-1,4,4,0,0,1,1.77-.38,3.65,3.65,0,0,1,3,1.3,5.72,5.72,0,0,1,1.06,3.78Zm6-.88a4.2,4.2,0,0,0-.19-1.26,3,3,0,0,0-.55-1,2.61,2.61,0,0,0-.91-.69,2.93,2.93,0,0,0-1.25-.26,2.79,2.79,0,0,0-1.25.27,2.88,2.88,0,0,0-.92.71,3.55,3.55,0,0,0-.61,1,4.74,4.74,0,0,0-.3,1.24Z"/><polygon class="cls-3" points="172.22 142.75 172.39 143.49 172.22 142.75 172.22 142.75"/><polygon class="cls-3" points="172.88 144.68 173.1 145.01 173.39 145.24 173.1 145.01 172.88 144.68"/><path class="cls-3" d="M235.61,127.16l-.15-1-.41-1.41-.49-.62-.4-.49-1.15-.81-1.33-.7-.85-.44-.77-.23-.23-.07-1-.24-1.13-.24-1.62-.1-.78-.59-1-.08-.3.15-.36.36-.3,0-.42.12-1.16.09-1,.09-.68-.09-.77-.33-.74-.15-1-.12-2.09.13-.93.39-1.32-.4-.71-.09-.89,0-1.07,0-1,.09-1.37-.09-1.16-.09-1.19-.06-.68.15-1,.24-.68.09-1.13.06-.86,0-1.34.21-1.16.06-.21-.14-.42-.28-.65-.51-.73-.29-1.13-.15-1,1,1.14-1.6.67-2.74.93.62,1-.1,1.65-.52,1.65-1.14,1.34-1.09,1.24-1.5,1.09-2.17.52-1.71-.05-1.5-.52-2.07-1-1.45-.93-.62-1.34-.41-.79-.06.57-.8.4-.85.34-1.25V98.33l-.28-1.19-.34-1.36-.85-1.08-.8-.85-1-.62-1.25-.51L196.85,92l-1.19-.74-1.08-.8-1.19-.91-1.14-1-1.31-1.25-1.08-1-.85-.85-1-.74-.87-.54-1.54-.91-1.81-1.09-1.95-1-2.17-.59-3.21-.54-2.35,0-1.95.27-1.58.36-1.12.39-1.73.73-1.66.93-1.73,1.13-1.46,1.66-1.06,1.79-.8,1.46-.6,1.59-.46,1.46-.13,1.53L159.67,95l.13,1.46.33,1.13.33.93.23.4-1.26,1.22-1.18,1-.74.74-.44.7-.11.33.41.11.74,0H159l.59-.22,1.37-.37,1.07-.3,1.11-.22.52,0,0,.7v.63l.07.67.11.85.15.85.19,2.44.11.78,0,.44-.11.67-.15.78,0,.67,0,.74,0,.11.08.3.22.33-.26.7-.16-.14-.14-.12h0l-.22.52-.3.7-.15.81v.67l.12.62,0,.12.3.7-.37,1.11-.07,1.07v1l.3,1.07.41,1,.59.67.89.89.93.63,1,.44,2.11.44h0l1.26.74h0l-2.26,1-1.15.63-.81.56-1,.78-1.07.81-.81.41-1-.22-.93.11-.48.81-.37.48-1.3.26-1.56.3-1,.26-1.07,0-1,.26-.7.48-.41.48-.89.7-.81.52-.74.67-1.07-.15-1.41.11-.74.3-1.22.33-1,.67L145,138l-.63.85-.22.78.15.63.59.52.81.37h.48l-.26.52-.33.93-.15,1-.07,1.3.26,1,.41.67.81.26.44.07.67-.48.63-.63.44-.89.67.7,0,0,.63.7.89.41.7.19.67-.33.52-.48.07-.85,0-.59L153,144l.56,0,.81-.33.48-.52.37-.44.19-.48.93.41.85.33.89.22-.33.93-.33,1-.22,1,.22.93.37.74.33.3.65.16,1,0,.73-.29.34-.69.59-1.08.49-.88.54-.49.93-1,.78-.78.64-.83.54-1,.39-.83.69.1.64.2.44-.1.39-.39.24-.59,1.27-.88,1.27-.93,1.18-.73,1-.73.73-.49-.24,1.32v1.91l-.54.2-.39.64-.29.93,0,.64,0,.83.14.39.17.74.05.22.3.74.15.22.22.33.28.23.35.28-.07.67,0,1.22.07,1,.15,1.08-1.41.44-5.63,2.28-5.76,2.34-5.68,2.34-5.68,2.34-4.53,2-4,1.85-.13.06L137.27,165l-3.59,1.85-3.29,1.85-1.8,1.09-1.26.76h0l-3.74,1.35-5.71,2.16-5.27,2.22-3.87,1.79L83,183.26l-8.37,14.81,18.11-4.64,16.36-9.09-.13-2.17v0l.12,2.14,2.15-.86,3.93-1.54,2.53-.92,5.17-1.79,1.74-.62.58-.06,3.72-1.29,4.59-1.72,3.64-1.42,4.84-2L146.7,170l3.69-1.79,2-1,.48-.25,2.29-1.29,4-1.85.28.55.32.55-.58.8-1.16.86-3,1.72-4,2.09-6.43,3.39-6.36,3.39-3.75,2L131.45,181l-1.89,1.15-1.36.82-1.92,1.35-1.09,1-.77.68-1.55.92-4,2.22-5.26,2.73.5,1.06.79,1.27.7,1.18.92.7.44.7,0,.92-.13.7.53.79,1,1.27,1.23,1.66,1.05,2,1,2.37.26,1.49v1.75l-.18,1.31-.48,1.49-.57,1.05-.39.48,5.08-1.33,5.92-2.47,3.08-2.34,2.34-3.08.62-3.7-.25-2.34-1.23-3-1.36-4.31-.47-.47,1.37-.77,3.83-2.34,2.9-1.79,1.86-1.11h0l2.17-1,2.74-1.29,1.05-.62.63-.37,1.26-1,2.87-1.66,3-1.79L161.8,175l5.55-3,3.5-1.91,1.83-1,1-.56,1.95-1.29,1.51-1,1-.68,6.58-3.2,8.52-4.19,7.11-3.39,6.07-2.83,4.6-2.35v-.19l.22-1.26.07-1,.7-.89.26-.44.26-.81.11-.74-.22-1.59-.52-1.85-.48-1.41-.37-.74-.19-.37-1.18-.93-.25-1.15-.15-1-.39-.78-.78-1.32-.65-1.1.49,0,.59-.1.39,0,.34,1.13.49.69.54.73,1.32.93,0,.55.3,1.3.44,1.3.48,1.07.33.85.37.67.33,1.07.63,1.41.63,1.22.44.48.41.44,1,.37.89,0,.56-.22.7-.52.52-.7.33-.93.15-.78-.22-1-.33-1.18-.3-1,0-.7.41-.67.81-1,.89-1.26,1-.19,1-.22.56-.15,0-.58,1-.39.1.93.34.69.49.88.54.39.73.24.73-.15.93-.44.54-.54.39-.69.59-1.17.49-1,.1-.69.69-.34.69-.59.49-.78.93-.15,1-.78.36-.42h0l.41-.67.26-.52,0-.63Zm-64.64-15-.38.31-.72.3-.72-.13-.6-.6-.47-.72-.34-1.07-.26-1.36,0-1.36.21-.81.55-.77.59.57.45.51.24.19.53.67.2.43.38,1.07.26,1.07,0,.77h0v.38l0,.51Zm7.59-3.87.09-1,.55-.85.72-.47.55-.09.9.43,1,.81.6.85.34,1,.13,1,.17,1.66,0,.68-.43.55-.51.47-.68.21h-.81l-.68-.21-.94-.81-.64-1.32-.38-1.54Z"/><polygon class="cls-3" points="173.74 145.53 173.66 146.19 173.74 145.53 173.74 145.53"/><polygon class="cls-3" points="174.77 146.53 174.38 145.65 174.47 146.18 174.77 146.53"/><polygon class="cls-3" points="175.55 147.36 174.77 146.53 175.03 147.02 175.55 147.36"/><polygon class="cls-3" points="157.22 146.12 157.44 147.05 157.81 147.79 157.44 147.05 157.22 146.12"/><polygon class="cls-3" points="163.14 119.75 163.22 118.68 163.59 117.57 163.22 118.68 163.14 119.75 163.14 120.75 163.44 121.83 163.14 120.75 163.14 119.75"/><polygon class="cls-3" points="163.14 115.46 163.29 114.64 163.14 115.46 163.14 116.13 163.27 116.74 163.14 116.13 163.14 115.46"/><polygon class="cls-3" points="157.77 144.12 158.11 143.2 157.22 142.97 158.11 143.2 157.77 144.12 157.44 145.16 157.22 146.12 157.44 145.16 157.77 144.12"/><polygon class="cls-3" points="168.51 125.79 169.33 125.94 167.22 125.5 168.51 125.79"/><polygon class="cls-3" points="170.59 126.68 169.55 127.09 168.33 127.68 170.59 126.68 170.59 126.68"/><polygon class="cls-3" points="164.29 109.39 164.29 109.39 164.18 110.05 164.29 109.39 164.29 109.39"/><polygon class="cls-3" points="164.18 110.05 164.03 110.83 164 111.5 164 111.5 164.03 110.83 164.18 110.05"/><polygon class="cls-3" points="167.18 128.31 168.33 127.68 167.18 128.31 166.37 128.87 165.4 129.64 166.37 128.87 167.18 128.31"/><polygon class="cls-3" points="163.81 113.42 163.81 113.42 163.59 113.94 163.29 114.64 163.59 113.94 163.81 113.42"/><polygon class="cls-3" points="164.11 106.72 164.22 108.17 164.22 108.17 164.22 108.17 164.11 106.72"/><polygon class="cls-3" points="163.77 104.02 163.88 104.87 164.03 105.72 163.88 104.87 163.77 104.02"/><polygon class="cls-3" points="164.37 112.98 164.11 113.68 163.95 113.54 164.11 113.68 164.37 112.98"/><polygon class="cls-3" points="149.74 145.57 149.78 145.6 150.41 146.31 149.78 145.6 149.74 145.57"/><polygon class="cls-3" points="145.63 142.6 145.48 143.57 145.41 144.86 145.41 144.86 145.48 143.57 145.63 142.6"/><polygon class="cls-3" points="153.74 134.05 152.85 134.75 152.03 135.27 152.85 134.75 153.74 134.05"/><polygon class="cls-3" points="148.81 135.9 150.22 135.79 148.81 135.9 148.07 136.2 146.85 136.53 148.07 136.2 148.81 135.9"/><polygon class="cls-3" points="160.74 132.05 161.11 131.57 161.59 130.75 162.51 130.64 162.51 130.64 161.59 130.75 161.11 131.57 160.74 132.05 159.44 132.31 157.88 132.6 159.44 132.31 160.74 132.05"/><polygon class="cls-3" points="146.22 141.16 145.96 141.68 145.63 142.6 145.96 141.68 146.22 141.16"/><polygon class="cls-3" points="157.88 132.6 156.92 132.86 155.85 132.83 156.92 132.86 157.88 132.6"/><polygon class="cls-3" points="145.89 137.2 146.85 136.53 145.89 137.2 145.04 138.01 144.41 138.86 145.04 138.01 145.89 137.2"/><polygon class="cls-3" points="164.06 112.35 164.14 112.64 164.37 112.98 164.14 112.64 164.06 112.35"/><polygon class="cls-3" points="214.43 143.46 215.06 144.68 215.5 145.16 215.06 144.68 214.43 143.46"/><polygon class="cls-3" points="211.54 135.79 211.84 137.09 211.54 135.79 211.54 135.79"/><polygon class="cls-3" points="169.99 126.35 170.59 126.68 169.33 125.94 169.99 126.35"/><polygon class="cls-3" points="144.18 139.64 144.18 139.64 144.41 138.86 144.18 139.64"/><polygon class="cls-3" points="212.76 139.46 212.28 138.38 211.84 137.09 212.28 138.38 212.76 139.46 213.1 140.31 213.47 140.97 213.1 140.31 212.76 139.46"/><polygon class="cls-3" points="211.03 138.64 210.84 138.27 209.65 137.34 210.84 138.27 211.03 138.64"/><polygon class="cls-3" points="147.33 146.86 147.33 146.86 146.89 146.79 147.33 146.86"/><polygon class="cls-3" points="209.6 120.4 208.23 120.31 209.6 120.4 210.58 120.31 211.65 120.28 210.58 120.31 209.6 120.4"/><polygon class="cls-3" points="204.03 94.78 203.74 94.49 203.74 94.49 204.03 94.78"/><polygon class="cls-3" points="221.79 120.88 222.95 120.79 223.37 120.67 222.95 120.79 221.79 120.88"/><polygon class="cls-3" points="223.37 120.67 223.66 120.64 224.02 120.28 223.66 120.64 223.37 120.67"/><polygon class="cls-3" points="217.6 120.28 218.58 120.4 219.32 120.55 218.58 120.4 217.6 120.28"/><polygon class="cls-3" points="163.95 113.54 163.81 113.42 163.81 113.42 163.95 113.54"/><polygon class="cls-3" points="203.39 114.08 202.04 115.16 200.39 116.3 202.04 115.16 203.39 114.08"/><polygon class="cls-3" points="164.22 108.17 164.29 109.39 164.33 108.94 164.22 108.17"/><circle class="cls-3" cx="169.33" cy="125.94" transform="translate(-12.15 233.64) rotate(-67.33)"/><polygon class="cls-3" points="170.59 126.68 170.59 126.68 170.59 126.68 170.59 126.68"/><polygon class="cls-3" points="165.33 124.42 166.25 125.05 167.22 125.5 166.25 125.05 165.33 124.42"/><polygon class="cls-3" points="163.66 102.02 163.7 102.72 163.66 102.02 163.66 102.02"/><polygon class="cls-3" points="164.22 108.17 164.22 108.17 164.33 108.94 164.22 108.17"/><polygon class="cls-3" points="164.33 108.94 164.29 109.39 164.29 109.39 164.33 108.94"/><polygon class="cls-3" points="164.03 105.72 164.11 106.72 164.22 108.17 164.03 105.72"/><polygon class="cls-3" points="182.81 103.74 183.71 103.81 183.69 103.79 182.81 103.74"/><polygon class="cls-3" points="164.48 102.02 166.63 102.03 164.56 101.91 164.48 102.02"/><polygon class="cls-3" points="164 111.5 164 111.5 164.03 112.24 164.06 112.35 164.03 112.24 164 111.5"/><polygon class="cls-3" points="171.01 112.11 170.97 111.6 170.97 112.14 171.01 112.11"/><polygon class="cls-3" points="170.97 111.21 170.93 110.45 170.96 111.22 170.97 111.21"/><polygon class="cls-3" points="169.32 107.01 170.09 107.88 169.56 107.2 169.32 107.01"/><polygon class="cls-4" points="170.96 111.22 170.93 110.45 170.67 109.38 170.29 108.31 170.09 107.88 169.32 107.01 168.87 106.5 168.28 105.93 167.73 106.69 167.52 107.5 167.47 108.87 167.73 110.23 168.07 111.3 168.54 112.02 169.14 112.62 169.86 112.75 170.59 112.45 170.97 112.14 170.97 111.6 170.96 111.22"/><polygon class="cls-4" points="183.47 109.94 183.34 108.95 183 107.93 182.4 107.08 181.38 106.27 180.48 105.84 179.93 105.93 179.2 106.39 178.65 107.25 178.56 108.27 178.52 109.64 178.9 111.17 179.54 112.49 180.48 113.3 181.16 113.52 181.97 113.52 182.66 113.3 183.17 112.83 183.59 112.28 183.63 111.6 183.47 109.94"/><polygon class="cls-3" points="163.27 116.74 163.29 116.87 163.59 117.57 163.29 116.87 163.27 116.74"/><polygon class="cls-3" points="163.81 113.42 163.81 113.42 163.81 113.42 163.81 113.42"/><polygon class="cls-3" points="172.44 143.71 172.39 143.49 172.44 143.71 172.74 144.46 172.88 144.68 172.74 144.46 172.44 143.71"/><polygon class="cls-3" points="173.39 145.24 173.74 145.53 173.74 145.53 173.39 145.24"/><polygon class="cls-3" points="162.51 130.64 162.51 130.64 163.51 130.87 162.51 130.64"/><polygon class="cls-3" points="147.33 146.86 148 146.38 147.33 146.86 147.33 146.86"/><polygon class="cls-3" points="144.18 139.64 144.33 140.27 144.18 139.64 144.18 139.64"/><polygon class="cls-3" points="145.41 144.86 145.66 145.86 145.41 144.86 145.41 144.86"/><polygon class="cls-3" points="153.29 144.64 153.26 145.23 153.29 144.64 153.03 143.97 153.59 144.01 153.03 143.97 153.29 144.64"/><polygon class="cls-3" points="152.66 146.57 153.18 146.08 153.26 145.23 153.18 146.08 152.66 146.57"/><polygon class="cls-3" points="148.63 145.75 148 146.38 148.63 145.75 149.07 144.86 149.74 145.57 149.07 144.86 148.63 145.75"/><polygon class="cls-3" points="144.33 140.27 144.93 140.79 145.74 141.16 144.93 140.79 144.33 140.27"/><polygon class="cls-3" points="151.29 146.71 152 146.9 152.66 146.57 152 146.9 151.29 146.71"/><polygon class="cls-3" points="154.41 143.68 154.89 143.16 155.26 142.71 154.89 143.16 154.41 143.68"/><polygon class="cls-3" points="197.79 120.07 198.45 120.58 198.86 120.86 198.45 120.58 197.79 120.07"/><polygon class="cls-3" points="189.74 125.61 191.86 124.21 190.79 124.83 189.74 125.61"/><polygon class="cls-3" points="188.96 125.97 189.74 125.61 188.97 125.91 188.96 125.97"/><polygon class="cls-3" points="176.24 130.31 177.7 130.44 177.71 130.41 176.24 130.31"/><polygon class="cls-3" points="175 130.02 176.24 130.31 175.01 129.97 175 130.02"/><polygon class="cls-3" points="211.88 140.79 212.4 142.64 211.88 140.79 211.4 139.38 211.03 138.64 211.4 139.38 211.88 140.79"/><polygon class="cls-3" points="212.51 144.97 212.62 144.23 212.4 142.64 212.62 144.23 212.51 144.97"/><polygon class="cls-3" points="183.44 148.15 183.44 148.15 184.37 148.29 183.44 148.15"/><polygon class="cls-3" points="207.98 139.77 205.73 141.83 206.85 140.85 207.98 139.77"/><polygon class="cls-3" points="181.97 148.24 183.44 148.15 183.44 148.15 181.97 148.24 180.55 148.29 179.47 148.39 180.55 148.29 181.97 148.24"/><polygon class="cls-3" points="185.2 148.54 185.2 148.54 184.37 148.29 185.2 148.54 185.2 148.54"/><polygon class="cls-3" points="218.36 145.71 219.06 145.19 219.58 144.49 219.06 145.19 218.36 145.71"/><polygon class="cls-3" points="216.91 145.97 217.8 145.94 218.36 145.71 217.8 145.94 216.91 145.97"/><polygon class="cls-3" points="219.58 144.49 219.91 143.57 220.06 142.79 219.91 143.57 219.58 144.49"/><polygon class="cls-3" points="215.5 145.16 215.91 145.6 216.91 145.97 215.91 145.6 215.5 145.16"/><polygon class="cls-3" points="219.5 140.64 219.21 139.68 219.25 138.97 219.21 139.68 219.5 140.64"/><polygon class="cls-3" points="219.32 120.55 220.1 120.88 220.78 120.96 220.1 120.88 219.32 120.55"/><polygon class="cls-3" points="221.36 136.09 222.36 135.9 223.36 135.68 222.36 135.9 221.36 136.09"/><polygon class="cls-3" points="226.08 120.8 227.7 120.9 226.72 120.8 226.08 120.8"/><polygon class="cls-3" points="224.32 120.13 225.3 120.22 224.66 120.12 224.32 120.13"/><polygon class="cls-3" points="215.51 120.41 217.6 120.28 216.39 120.26 215.51 120.41"/><polygon class="cls-3" points="173.77 148.45 173.96 149.79 173.92 149.54 173.77 148.45"/><polygon class="cls-3" points="173.7 147.42 173.77 148.45 173.96 149.79 173.77 148.45 173.7 147.42"/><path class="cls-5" d="M138,146.68l-.18-1.18-.48-1.66-1.05-1.31-1.36-1-1.58-.83-1-.53-1.18-.35-.67-2L129.38,135l-1.23-2.3-1-2-1.29-2.41-1-1.87-1.34-2.25-1.29-2.09.48-.7.43-1.07.11-1.23.05-1.07.54-1.18.11-1-.27-1.29-.32-1.07-.54-.59-.27-1.18-.75-1.82L121,109l-1.18-.48-2.09-.59-1.66-.21-1.18-.05-1,.54-.75.48-.64,1-.16.8-.7.43-.91.59-.8.91-.27.43-.05.75-.7.32-.48.48-.32.59-.11.86-1,.7-1.34,1-1.61.91-1.23-.21-1,.16.11-.8,1.45-2.95.75-1.66.05-.8-.91-1L102,109.79l-1-1.07-.7-.7.75-2.3.54-1.82.37-1.12-.11-.7-1.45-1.55-1-1.12-.54-.7.86-.86.75-1,.43-.91.21-.43-.64-1.23-.91-1.61L98.31,91.2l-.8-1.07-1-.64-1.07-.27-1.07-.05-1.29-.05-.59-2.62-.54-2.68-.32-1.39.21-.8.48-1.29.11-1.55.16-1.5.05-1.71-.05-1.87,1.34-1.34.8-1.23.75-1.39.59-1.29.32-1,.27-1.23,1.23-1,1.61-1.82L100.93,62l-1.55-1.12-2-1.34-1.61-1-1-2.36-1.66-2.09-2.14-1.66-2.2-1.23-2.57-.8-3-.32L81,50.12l-2.2.59-1.55.64L74.9,52.58l-2,1.77-1.39,1.93-1,1.45L70,59.23l-1.39-2.68-1.5-2-1.5-1.39-1.93-1.45-2.41-1-2.52-.32-2.46.37L53.75,52l-1.5,1.18-1.66,1.77-1.18,1.93-1,2.3-.59,2.36-.27,2-.11,2.57.27,3,.75,3.11,1.18,2.95,1.66,2.3,1.55,1.87,1.82,1.29L57.17,82l2.52.43,2.14-.16,2-.75,2-1.07,1.77-1.77,1.5-1.93L70,74.81l.8-2.25.37-1.5,1.39,2,1.18,1.12,1.23,1,1.34.91,1.39.54.91.43,1,2,1.18,2,.75,1.39.54.64,1.07,1.07.7,3.16.32,1.77.54,2-1.71.7-1.12,1-.75,1.12-.54,1.93-1.82-1.07-2.14-1.29-2.3-1.12-2.57-.7L68,91,65.21,91l-2.3.32L61,91.74l-1.32.46-2,.86-2,1.1-2,1.34-1.73,2-1.26,2.12-.94,1.73L49,103.2l-.55,1.73-.16,1.81-.16,1.89.16,1.73.39,1.34.39,1.1.28.47-1.49,1.45-1.4,1.23-.88.88-.53.83L45,118l.48.13.88,0h1.05l.7-.26,1.62-.44,1.27-.35,1.31-.26.61,0,0,.83v.74l.09.79.13,1,.18,1,.09,1.18.13,1.71.13.92,0,.53-.13.79-.18.92,0,.79,0,.88.13.48.26.39-.31.83-.35-.31-.26.61-.35.83-.18,1v.79l.18.88.35.83-.44,1.31-.09,1.27v1.18l.35,1.27.48,1.23.7.79,1.05,1.05,1.1.74,1.14.53,1.53.35,1,.18.79.48.7.39-1.23.48-1.45.7L57,148l-1,.66-1.14.92-1.27,1-1,.48-1.18-.26-1.1.13-.57,1-.44.57-1.53.31-1.84.35-1.14.31-1.27,0-1.18.31-.83.57-.48.57-1.05.83-1,.61-.88.79L37,156.88l-1.66.13-.88.35-1.45.39-1.14.79-1,1-.74,1-.26.92.18.74.7.61,1,.44h.57l-.31.61-.39,1.1-.18,1.14-.09,1.53.31,1.18.48.79,1,.31.53.09.79-.57.74-.74.53-1.05.83.88.74.83,1.05.48.83.22.79-.39.61-.57.09-1,0-.7-.31-.79.66,0,1-.39.57-.61.44-.53.22-.57,1.1.48,1,.39,1.05.26-.39,1.1L45.52,168l-.26,1.14.26,1.1.44.88.39.35.26,1,.66,1.18.53.74.7.79,1.18.83,1.49.57,1.45.26,1.14-.09,1.27-.44,1.05-.48.79-.66L58,174l1-1.23,1.1-2,1.18-2.23,1.1-2,.7-1.4.26,1.14.35.88.44.66.74.61-.09.79,0,1.45.09,1.23.22,1.58-1,1.62-1,1.66-.92,1.66-.92,1.66-.48,1.4-.18,1.31,0,1.36.31,1.31.66,1.31.92,1.31-1.05,1L60,190.57l-.74,1.58L59.06,194l.22,1.53.61,1.31.57,1,.35.66.7,1.05,1.1.66,1.27.44,1.53.26,1.66.09,1.36-.18,1.45-.39,1.4-.39,1.23-.61,1.1-.7,1-.7.53-.79.83-1.1.7-.66,1.66-1.27.53-.44.53,0,1.18-.92,1.14-1.23.79-1,.83-1.4.26-1.53,0-1.27-.22-.92-.48-.92.13-1.31,1.66.39,1.71.39,1.27.57.74.61.7,1.23.48,1.49.74,2.41.83,2.41.57,1.45.74,1.27,1,1.4,1.05,1,1.27.74.74.48.44.66.7,1.58.57,2.19.53,1.93.61,2.54.61,2,.44,1.62.66,1.36.57,1.18.83,1.18,1,1.05,1.53.88,1.75.83,2.23.57,1.84.26,2.15-.22,2-.44,1.58-.48,1-.66.88-.7.61-.61.61-.61.48-1.05.39-.48.57-1.05.48-1.49.18-1.31V208l-.26-1.49-1-2.37-1.05-2-1.23-1.66-1-1.27-.53-.79.13-.7,0-.92-.44-.7-.92-.7-.7-1.18-.79-1.27-.79-1.66-.88-2.15-.57-1.36-.61-1.14-.88-.92-.79-.74-.48-.48L109,182.2l-.26-3,0-2.41.18-2,0-1.88.26-1.49.09-1.14.83-1.05.31-.53.31-1,.13-.88-.26-1.88-.61-2.19-.57-1.66-.66-1.31-1.4-1.1.61-.66.57-.35,1.05-.83.35,1.53.53,1.53.57,1.27.39,1,.44.79.39,1.27.74,1.66.74,1.45,1,1.1,1.18.44,1.05,0,.66-.26.83-.61.61-.83.39-1.1.18-.92-.26-1.14-.39-1.4-.35-1.14,0-.83.48-.79,1-1.14,1.05-1.49,1.18-.22,1.18-.26.66-.18.22,1.18.22,1.71,0,1.45,0,1-.48,1.27-.22,1.62v1.75l.39,1.75.35,1.18.79,1.58,1,1.05.92,1,1,.61,1.23.53,1.27.26,1.53-.18,1.27-.48,1.05-.66.92-1,.79-1.1.53-1.18.39-1.27.22-1.23,0-1.75,0-2,0-11.87-.09-1.05-.09-.74.48-.79.31-.61,0-.74Zm-25.85-8h-.6l-.84-.11-1.06,0-1.27,0-1.16.11-1.62-.11-1.37-.11-1.41-.07-.81.18-1.13.28-.81.11-1.34.07-1,0-1.58.25-1.37.07-.74-.49-.77-.6-.07-.67-.07-1,.91.25.28-.11-.25-.25-.14-.39H95.3l.84.07.35-.21.11-.53.07-.74-.07-.56-.27-.35,2-1.35,1.59-1.28.52.34.49.25.35-.46.63-.35.84-.28,1-.14.49-.07.56-.21.56-.18.42,0,.53.07.39-.11.53-.14h.42l0-.28.67.14.35.25.67.67.91.84.91,1.09.63,1.06.32,1.06.07,2Zm12.14-.14-.42.42-.35,0-.49.14-1.37.11-1.2.11-.81-.11-.91-.39-.88-.18-1.16-.14-.14-1.3-.21-1.27-.42-1.23-.42-1.2-.6-1.34-.74-1.3-.88-1.34-.81-1-1.2-1.16-1-.88.49-.53.56-1.16.39-.81v-.91l-.07-1.09,1,.32.84.18.49.74.46.53.95.39.91.28,1.06-.07.49.84.84,1.48.74,1.37.95,1.72,1,1.86.91,1.79,1.13,2.15,1.23,2.74Z"/><polygon class="cls-2" points="56.05 110.59 54.6 108.67 53.72 106.59 53.8 103.78 54.84 101.94 56.28 100.5 57.89 99.86 59.65 99.62 61.89 99.94 63.73 100.58 65.33 101.86 66.61 103.38 67.58 104.99 67.73 106.83 67.5 108.59 66.85 109.95 65.81 110.83 56.05 110.59"/><polygon class="cls-6" points="56.91 109.75 55.06 107.85 55.41 106.15 55.86 104.65 56.11 103.61 56.7 102.2 57.26 101.16 57.95 101.86 59.1 103.31 59.8 104.15 60.75 103 61.8 101.86 62.35 101.21 63.35 102.81 64.45 104.6 65.7 106.5 66.35 107.55 65.35 109 64.55 109.9 63.75 107.85 63.05 106 62.15 104.1 61.2 105.4 60.25 107 59.05 105.5 58.26 104.55 57.76 103.95 57.26 107.1 56.91 109.75"/><polygon class="cls-7" points="52.88 116.93 56.39 116.94 59.7 117.19 63.06 117.37 65.75 117.62 69.17 118.11 72.54 118.66 75.54 118.96 79.08 119.27 81.47 119.27 82.88 119.09 84.83 118.41 85.75 118.11 88.32 117.92 90.89 117.98 92.3 118.41 94.13 119.09 95.42 118.23 96.88 117.68 98.66 117.68 100.25 118.17 101.35 118.9 102.57 120.61 103.18 123.06 103.25 124.83 102.63 126.85 101.35 129.42 99.88 131.2 98.29 132.48 96.33 133.83 94.38 134.44 93.15 134.56 92.05 133.83 91.26 137.07 89.91 138.97 88.56 140.62 86.24 143.19 83.73 144.84 81.9 145.69 79.57 146.92 78.72 147.28 76.7 148.81 74.31 149.97 72.23 150.59 69.85 150.59 67.77 150.4 65.93 149.97 64.65 149.55 63.3 148.26 62.26 147.16 61.08 146.11 59.59 145.23 57.09 144.7 55.95 144.18 54.86 143.43 53.8 142.38 53.1 141.59 52.62 140.37 52.27 139.1 52.27 137.91 52.36 136.64 52.8 135.33 52.45 134.5 52.27 133.62 52.27 132.83 52.45 131.87 52.8 131.04 53.06 130.42 53.41 130.73 53.72 129.9 53.45 129.5 53.32 129.02 53.28 128.15 53.32 127.36 53.5 126.44 53.63 125.65 53.54 124.2 53.41 122.49 53.32 121.31 53.15 120.3 53.02 119.3 52.93 118.51 52.93 117.76 52.88 116.93"/><polygon class="cls-8" points="66.7 124.45 67.23 121.97 67.95 120.14 68.67 118.76 69.17 118.11 72.54 118.66 75.54 118.96 76.58 119.02 77.24 120.14 77.43 120.92 75.93 120.14 75.01 119.74 73.77 119.61 72.53 119.68 71.35 120.2 70.24 120.92 69.25 121.84 68.27 122.75 66.7 124.45"/><polygon class="cls-8" points="60.49 123.86 59.05 122.23 57.61 120.79 56.82 120.14 55.71 119.68 54.86 119.61 54.27 119.94 53.88 120.85 53.55 119.55 53.36 118.37 53.55 117.39 53.95 116.8 56.39 116.94 57.94 117.06 58.92 119.28 59.7 121.18 60.49 123.86"/><polygon class="cls-9" points="53.32 121.31 53.54 124.2 53.67 125.12 53.63 125.65 53.5 126.44 53.32 127.36 53.28 128.15 53.32 129.02 53.45 129.5 53.72 129.9 54.16 128.62 54.42 127.91 54.37 126.85 54.16 125.39 53.32 121.31"/><polygon class="cls-9" points="87.46 128.57 86.45 128.97 85.64 128.87 84.89 128.26 84.43 127.15 84.38 125.74 84.89 124.68 85.39 123.77 85.9 123.07 86 121.7 86 120.34 86 119.54 85.75 118.11 88.32 117.92 90.89 117.98 92.3 118.41 94.13 119.09 92.86 120.8 92.35 121.81 91.9 123.52 91.65 125.74 91.5 127.41 91.55 128.87 91.75 129.93 91.6 131.09 91.04 132 90.28 132.35 89.43 132.4 88.72 132.15 88.02 131.29 87.61 130.23 87.46 128.57"/><polygon class="cls-2" points="70.96 121.45 69.8 121.81 69 122.46 68.19 123.52 67.73 124.88 67.64 126.19 67.84 127.66 68.39 129.73 69.25 131.14 70.06 132.25 70.96 132.85 71.37 133.06 72.38 132.65 73.44 132.3 74.24 132.05 75.05 132 75.61 131.74 76.06 130.89 76.46 129.83 76.51 128.26 76.31 126.3 76.16 125.14 75.76 123.92 75.05 122.92 73.84 121.96 72.78 121.45 71.77 121.35 70.96 121.45"/><polygon class="cls-2" points="56.79 120.9 56.18 121.1 55.63 121.81 55.53 123.02 55.68 124.73 55.83 126.25 56.28 128.21 56.74 129.68 57.49 130.33 58.3 131.29 59.46 131.04 60.52 130.74 61.28 130.74 61.53 129.57 61.53 128.26 61.48 126.9 61.18 125.64 60.72 124.38 60.49 123.86 59.05 122.23 57.61 120.79 56.79 120.9"/><polygon class="cls-10" points="72.78 121.45 72.12 121.55 71.27 122.11 70.61 123.12 70.51 124.33 70.46 125.94 70.91 127.76 71.67 129.32 72.78 130.28 73.59 130.53 74.55 130.53 75.35 130.28 75.96 129.73 76.46 129.07 76.51 128.26 76.31 126.3 76.16 125.14 75.76 123.92 75.05 122.92 73.84 121.96 72.78 121.45"/><polygon class="cls-10" points="58.35 121.55 57.7 122.46 57.44 123.42 57.39 125.03 57.7 126.65 58.1 127.91 58.66 128.77 59.36 129.47 60.22 129.63 61.08 129.27 61.58 128.87 61.53 128.26 61.48 126.9 61.18 125.64 60.72 124.38 60.49 123.86 59.05 122.23 58.35 121.55"/><polygon points="59.31 122.61 58.81 122.71 58.4 123.32 58.2 124.28 58.3 125.39 58.5 126.5 58.86 127.3 59.26 128.01 59.61 128.41 60.32 128.51 60.88 128.21 61.53 127.81 61.48 126.9 61.18 125.64 60.72 124.38 60.49 123.86 59.87 123.07 59.31 122.61"/><polygon points="73.33 122.51 72.48 122.76 71.92 123.57 71.67 124.48 71.67 125.59 71.77 126.6 72.07 127.51 72.68 128.26 73.33 128.82 74.14 128.87 74.85 128.57 75.45 128.11 75.91 127.2 75.96 126.19 75.81 125.19 75.68 124.67 75.39 123.92 75.12 123.41 74.69 123 74.16 122.66 73.33 122.51"/><polygon points="53.06 130.42 52.8 131.04 52.45 131.87 52.27 132.83 52.27 133.62 52.45 134.5 52.8 135.33 53.42 134.48 54.19 133.71 54.63 133.27 54.99 132.94 53.97 131.62 53.06 130.42"/><polygon points="79.86 130.84 79.35 131.73 78.72 132.28 77.88 133.05 76.93 133.74 75.86 134.4 74.65 134.88 73.41 135.28 72.38 135.54 71.43 135.8 70.47 135.94 69.89 136.02 70.07 136.86 70.07 137.78 70.03 138.73 69.44 139.87 68.53 141.04 67.47 142.29 66.55 143.17 65.41 143.94 64.53 144.38 63.8 144.78 64.93 145.22 66.14 145.37 67.32 145.37 68.38 145.26 69.33 144.85 70.03 144.31 70.66 143.72 71.1 142.91 72.01 143.35 73.26 143.5 74.51 143.31 75.42 143.02 76.3 142.14 76.78 141.33 77 140.67 76.93 139.5 77.88 139.35 78.61 139.17 79.46 138.55 80.23 137.78 80.78 136.64 81.03 135.43 81.11 134.4 80.89 133.08 80.56 132.2 79.86 130.84"/><polygon class="cls-11" points="61.08 146.11 58.4 147.29 57.05 148.03 56.08 148.69 54.94 149.61 53.67 150.57 52.71 151.06 53.91 152.03 55.01 153.71 56.11 155.62 56.92 157.42 57.62 159.16 58.02 160.61 58.2 161.48 59.7 160.43 61.21 159.33 62.6 158.46 63.82 157.59 64.69 157.01 64.98 155.04 65.27 154.17 63.94 152.9 62.72 151.1 61.79 149.48 61.39 148.2 61.21 147.04 61.08 146.11"/><polygon class="cls-12" points="64.4 160.84 63.76 161.07 63.3 161.82 62.95 162.93 62.89 163.68 62.84 164.66 63 165.12 63.27 166.26 63.62 167.13 64.06 167.79 64.8 168.41 65.56 168.55 66.31 168.49 66.72 167.91 66.95 167.04 67.18 165.94 67.18 164.9 67.12 163.74 66.83 162.52 66.43 161.48 65.62 160.72 64.4 160.84"/><polygon class="cls-13" points="58.2 161.48 59.7 160.43 61.21 159.33 62.6 158.46 63.82 157.59 64.69 157.01 64.4 158.58 64.4 160.09 64.4 160.84 63.76 161.07 63.3 161.82 62.95 162.93 62.89 163.68 62.84 164.66 63 165.12 62.3 166.52 61.21 168.49 60.02 170.73 58.93 172.74 57.97 173.97 56.87 175.11 56.08 175.76 55.03 176.25 53.76 176.69 52.62 176.77 51.18 176.51 49.69 175.94 48.5 175.11 47.28 173.57 46.62 172.39 46.36 171.43 47.13 171.62 48.29 171.68 49.16 171.33 49.56 170.52 50.26 169.24 50.84 168.2 51.48 167.62 52.58 166.46 53.5 165.53 54.26 164.55 54.9 163.39 55.36 162.4 56.17 162.52 56.92 162.75 57.45 162.63 57.91 162.17 58.2 161.48"/><polygon class="cls-2" points="52.71 151.06 51.53 150.79 50.43 150.93 49.86 151.89 49.42 152.46 47.89 152.76 46.05 153.12 44.91 153.42 43.64 153.38 42.46 153.69 41.63 154.25 41.14 154.82 40.09 155.66 39.13 156.27 38.25 157.06 36.98 156.88 35.32 157.01 34.44 157.37 32.99 157.76 31.86 158.55 30.85 159.51 30.1 160.52 29.84 161.44 30.02 162.18 30.72 162.8 31.68 163.24 32.25 163.24 31.94 163.85 31.55 164.94 31.37 166.08 31.29 167.62 31.59 168.8 32.08 169.59 33.04 169.89 33.56 169.98 34.35 169.41 35.1 168.67 35.62 167.62 36.46 168.49 37.2 169.32 38.25 169.81 39.08 170.03 39.87 169.63 40.49 169.06 40.57 168.05 40.62 167.35 40.31 166.56 40.97 166.61 41.93 166.21 42.5 165.6 42.94 165.07 43.16 164.51 44.25 164.99 45.26 165.38 46.31 165.65 45.92 166.74 45.52 167.97 45.26 169.11 45.52 170.2 45.96 171.08 46.36 171.43 47.13 171.62 48.29 171.68 49.16 171.33 49.56 170.52 50.26 169.24 50.84 168.2 51.48 167.62 52.58 166.46 53.5 165.53 54.26 164.55 54.9 163.39 55.36 162.4 56.17 162.52 56.92 162.75 57.45 162.63 57.91 162.17 58.2 161.48 58.02 160.61 57.62 159.16 56.92 157.42 56.11 155.62 55.01 153.71 53.91 152.03 52.71 151.06"/><polygon class="cls-14" points="65.56 168.55 66.31 168.49 66.72 167.91 66.95 167.04 67.18 165.94 67.18 164.9 67.12 163.74 66.83 162.52 66.43 161.48 65.62 160.72 64.4 160.84 64.4 160.09 64.4 158.58 64.69 157.01 64.98 155.04 65.27 154.17 65.62 152.55 65.91 151.22 66.31 150 67.77 150.4 69.5 150.52 69.04 152.32 68.8 154.23 68.63 155.85 68.57 157.13 68.69 158.11 69.21 158.98 70.19 159.56 71.7 160.03 72.92 160.2 74.83 160.03 76.22 159.68 77.9 159.1 79.24 158.58 80.11 158.17 80.51 157.77 80.57 156.96 80.63 155.39 80.97 153.25 81.44 150.81 81.84 148.96 82.31 147.16 82.83 145.19 83.73 144.84 84.97 143.92 86.24 143.19 88.56 140.62 89.91 138.97 91.06 137.77 92.39 137.95 93.26 138.29 94.03 138.89 94.77 139.38 93.38 139.45 92.45 139.51 91.46 139.92 90.48 140.55 89.67 141.48 89.15 142.53 88.62 143.97 88.45 145.65 88.39 147.74 88.39 149.19 88.51 151.51 88.8 153.48 89.03 154.99 89.49 156.43 90.42 157.88 91.52 159.22 92.8 160.09 94.3 161.01 96.04 161.88 97.38 162.52 99.11 162.87 100.62 162.75 102.13 162.17 103.4 161.3 104.27 160.55 105.2 159.5 105.61 158.46 105.78 156.9 105.84 155.33 105.43 153.65 106.36 155.22 106.82 156.14 107 157.36 107.3 158.72 106.47 160.2 105.31 161.59 103.98 162.87 102.65 164.03 101.14 164.9 99.29 165.76 97.14 166.75 94.77 167.74 91.99 168.72 89.32 169.65 86.65 170.23 84.1 170.81 81.61 171.33 79.87 171.68 78.37 171.97 77.38 171.68 76.28 171.5 74.54 171.62 72.86 171.68 71.59 171.79 70.14 171.79 68.17 171.33 66.95 170.57 66.02 169.59 65.56 168.55"/><polygon class="cls-15" points="84.64 159.12 83.65 159.28 82.55 159.83 81.78 160.66 81.18 161.92 81.07 163.19 81.29 164.56 82.06 165.66 82.99 166.43 84.26 166.98 85.3 167.2 86.46 166.82 87.5 166.05 88.27 165.22 88.88 164.07 89.09 162.97 88.93 161.87 88.49 160.88 87.78 160.05 86.79 159.39 85.8 159.12 84.64 159.12"/><polygon class="cls-16" points="107.3 158.72 108.7 159.82 109.35 161.13 109.92 162.8 110.54 164.99 110.8 166.87 110.67 167.75 110.36 168.71 110.06 169.24 109.22 170.29 107.29 171.93 105.7 173.03 103.11 174.4 100.59 175.94 98.06 176.93 95.64 177.81 93.6 178.58 91.62 179.13 89.42 179.79 87.23 180.29 84.53 180.84 82.72 181.11 81.89 181.22 81.45 182.1 80.41 182.93 79.53 183.15 74.75 183.2 72.99 183.37 71.78 182.98 70.9 182.54 70.07 181.77 69.8 180.89 69.41 180.07 69.19 179.52 67.87 178.64 66.88 177.48 66 175.94 65.51 174.84 65.06 173.44 64.84 171.87 64.76 170.64 64.71 169.19 64.8 168.41 65.56 168.55 65.67 169.18 66.02 169.59 66.33 170.17 66.95 170.57 68.17 171.33 70.14 171.79 71.59 171.79 72.86 171.68 74.54 171.62 76.28 171.5 77.38 171.68 78.37 171.97 79.87 171.68 81.61 171.33 84.1 170.81 86.65 170.23 89.32 169.65 91.99 168.72 94.77 167.74 97.14 166.75 99.29 165.76 101.14 164.9 102.65 164.03 105.31 161.59 106.47 160.2 107.3 158.72"/><path class="cls-17" d="M81.78,179l-.55-1.7-.6-2-.55-1.48-.88-1.15-.83-.68-1-.29-1.1-.17-1.74.12-1.68.06-1.27.12H70.14l-.89.47-.6.38-.38.77-.16.88v1l.38,1.65.44,1.54.49,1.54.55,1.21.71.82.71.6.38.27,1.21.38,1.76-.16,4.78-.05.88-.22,1-.82.44-.88.16-.93Zm-2.53,1.7-.71.16-1.59.11-1.59.05-1.59.05-.88-.05-.55-.16-.44-.49-.33-.82-.55-1.7-.44-1.48-.22-1.26-.05-.88.49-.05h1l1.59-.11,1.48-.05,1.48-.11.93.05.49.49.33,1,.33,1-.88-.05-.82.33-.27,1,.27.82.82.33.77.05h1l.16.49.22,1Z"/><polygon class="cls-13" points="82.85 184.57 83.33 185.49 83.55 186.41 83.59 187.68 83.33 189.21 82.5 190.62 81.71 191.62 80.57 192.85 79.39 193.77 78.86 193.81 78.34 194.25 76.67 195.52 75.97 196.18 75.14 197.28 74.61 198.06 73.61 198.76 72.51 199.47 71.28 200.08 69.88 200.47 68.44 200.87 67.08 201.04 65.41 200.96 63.88 200.69 62.61 200.25 61.52 199.6 60.81 198.54 60.46 197.89 59.89 196.88 59.28 195.57 59.06 194.03 59.28 192.15 60.02 190.57 61.43 189.04 62.48 188.07 63.7 189.25 64.85 190.35 66.33 191.39 67.49 191.78 68.37 191.94 69.25 192.44 70.68 192.82 72.16 192.93 73.32 192.93 74.69 192.71 76.06 192.49 77.39 191.94 78.81 191.12 80.08 190.29 81.34 188.92 82.22 187.82 82.72 186.39 82.85 184.57"/><polygon class="cls-18" points="109.57 184.97 110.36 185.71 111.24 186.63 111.85 187.77 112.42 189.13 113.3 191.27 113.58 191.87 118.84 189.15 122.86 186.93 124.42 186.01 125.19 185.33 126.28 184.28 128.2 182.93 129.56 182.1 131.45 180.96 134.53 179.17 138.29 177.14 144.65 173.75 151.08 170.36 155.03 168.27 158.03 166.54 159.19 165.68 159.76 164.88 159.45 164.33 159.17 163.77 155.19 165.62 152.91 166.91 152.43 167.16 150.4 168.21 146.71 169.99 141.97 172.15 137.14 174.12 133.5 175.54 128.91 177.26 125.19 178.56 124.61 178.62 122.87 179.23 117.7 181.02 115.17 181.94 111.23 183.48 109.08 184.34 109.09 184.48 109.57 184.97"/><polygon class="cls-14" points="99.51 199.17 100.76 198.51 107.69 194.94 112.9 192.23 113.58 191.87 113.3 191.27 112.42 189.13 111.85 187.77 111.24 186.63 110.36 185.71 109.57 184.97 109.09 184.48 109.08 184.34 108.46 184.59 105.53 185.58 102.53 186.56 99.67 187.42 97.3 187.98 94.89 188.53 93.21 188.78 92.03 188.66 91.47 188.29 91.54 188.07 91.67 187.67 92.65 186.75 95.13 185.27 96.76 184.34 99.22 182.93 102.56 181.08 106.87 178.93 108.72 178.07 108.74 176.82 108.92 174.8 108.87 172.92 109.14 171.43 109.22 170.29 107.29 171.93 105.7 173.03 103.11 174.4 100.59 175.94 98.06 176.93 95.64 177.81 93.6 178.58 91.62 179.13 89.42 179.79 87.23 180.29 84.53 180.84 82.72 181.11 81.89 181.22 81.45 182.1 80.41 182.93 79.53 183.15 74.75 183.2 72.99 183.37 71.78 182.98 71.39 182.71 70.9 182.54 70.07 181.77 69.96 181.28 69.8 180.89 69.41 180.07 69.19 179.52 67.87 178.64 66.88 177.48 66 175.94 65.51 174.84 65.06 173.44 64.06 175.06 63.05 176.73 62.13 178.39 61.21 180.06 60.73 181.46 60.55 182.77 60.59 184.13 60.9 185.45 61.56 186.76 62.48 188.07 63.7 189.25 64.85 190.35 66.33 191.39 67.49 191.78 68.37 191.94 69.25 192.44 70.68 192.82 72.16 192.93 73.32 192.93 74.69 192.71 76.06 192.49 77.39 191.94 78.81 191.12 80.08 190.29 81.34 188.92 82.22 187.82 82.72 186.39 82.85 184.57 82.98 183.26 84.65 183.65 86.35 184.04 87.63 184.61 88.37 185.23 89.07 186.45 89.55 187.94 90.3 190.35 91.13 192.76 91.7 194.21 92.44 195.48 93.45 196.88 94.5 197.84 95.77 198.59 96.52 199.07 96.96 199.73 97.49 200.24 99.51 199.17"/><polygon class="cls-14" points="107.69 194.94 100.76 198.51 99.51 199.17 97.49 200.24 97.73 200.46 98.55 201.29 99.65 202.06 100.97 202.33 102.4 202.39 104.21 202 106.91 201.29 109.11 200.85 111.36 200.24 113.62 199.75 115.1 199.36 116.31 198.87 116.76 198.41 116.89 197.71 116.93 196.79 116.5 196.09 115.58 195.39 114.87 194.21 114.08 192.94 113.58 191.87 112.9 192.23 107.69 194.94"/><polygon class="cls-14" points="102.56 181.08 99.22 182.93 96.76 184.34 95.13 185.27 92.65 186.75 91.67 187.67 91.54 188.07 91.47 188.29 92.03 188.66 93.21 188.78 94.89 188.53 97.3 187.98 99.67 187.42 102.53 186.56 105.53 185.58 108.46 184.59 109.08 184.34 108.96 182.21 108.7 179.23 108.72 178.07 106.87 178.93 102.56 181.08"/><polygon class="cls-13" points="96.96 199.73 97.24 200.37 97.49 200.24 96.96 199.73"/><polygon class="cls-13" points="114.81 201.04 110.8 202.88 106.01 204.98 102.43 206.46 100.68 207.13 99.31 207.71 99.36 207.96 99.98 209.94 100.42 211.56 101.07 212.91 101.64 214.1 102.48 215.28 103.44 216.33 104.97 217.21 106.72 218.04 108.96 218.61 110.8 218.87 112.95 218.65 114.96 218.22 116.54 217.73 118.42 216.38 119.03 215.76 119.65 215.15 120.13 214.1 117.4 199.8 114.81 201.04"/><polygon class="cls-13" points="121.09 212.56 121.58 211.07 121.75 209.76 121.75 208.01 121.49 206.52 120.53 204.15 119.47 202.14 118.25 200.47 117.28 199.2 116.76 198.41 116.31 198.87 115.1 199.36 113.62 199.75 111.36 200.24 109.11 200.85 106.91 201.29 104.21 202 102.4 202.39 100.97 202.33 99.65 202.06 98.55 201.29 97.73 200.46 97.49 200.24 97.24 200.37 97.66 201.31 98.23 203.5 98.75 205.42 99.31 207.71 100.68 207.13 102.43 206.46 106.01 204.98 110.8 202.88 114.81 201.04 117.4 199.8 120.13 214.1 120.53 213.62 121.09 212.56"/><polygon class="cls-19" points="105.61 138.57 107.23 138.68 108.39 138.57 109.66 138.53 110.71 138.57 111.56 138.68 113.12 139.15 111.67 139.85 110.51 140.72 109.41 141.58 108.37 142.74 107.56 144.13 106.75 145.52 106.4 146.8 106.17 148.07 106.11 149.69 106.11 150.97 106.4 152.12 105.94 152.18 105.24 152.3 104.66 152.36 104.08 152.24 103.56 151.31 103.16 149.75 102.87 147.78 102.87 145.58 103.04 143.73 103.39 141.53 103.97 139.96 104.66 138.98 105.61 138.57"/><polygon class="cls-20" points="109.53 156.88 108.48 157.72 107.91 158.07 107.3 158.72 107 157.36 106.82 156.14 106.36 155.22 105.43 153.65 104.66 152.36 105.24 152.3 105.94 152.18 106.4 152.12 106.81 153.46 107.39 154.27 108.02 155.14 109.59 156.24 109.53 156.88"/><polygon class="cls-2" points="108.37 142.74 107.56 144.13 106.75 145.52 106.4 146.8 106.17 148.07 106.11 149.69 106.11 150.97 106.4 152.12 106.81 153.46 107.39 154.27 108.02 155.14 109.59 156.24 109.53 156.88 109.88 158.42 110.41 159.95 110.97 161.22 111.37 162.23 111.81 163.02 112.2 164.29 112.95 165.95 113.69 167.4 114.7 168.49 115.88 168.93 116.93 168.89 117.59 168.62 118.42 168.01 119.03 167.18 119.43 166.08 119.61 165.16 119.34 164.02 118.95 162.62 118.6 161.48 118.64 160.65 119.12 159.86 120.09 158.72 121.14 157.23 122.32 157.01 123.5 156.75 124.16 156.58 124.18 155.89 125.4 155.43 125.51 156.53 125.92 157.34 126.5 158.38 127.13 158.84 128 159.13 128.87 158.96 129.97 158.44 130.61 157.8 131.07 156.99 131.77 155.6 132.35 154.44 132.46 153.63 133.27 153.22 134.08 152.53 134.66 151.6 135.76 151.43 136.92 150.5 137.35 150 137.83 149.22 138.14 148.6 138.18 147.86 138 146.68 137.83 145.49 137.35 143.83 136.3 142.51 134.94 141.55 133.36 140.72 132.35 140.19 131.17 139.84 129.97 139.56 128.64 139.27 127.48 139.15 126.73 139.15 125.8 138.46 125.05 138.34 124.64 138.36 124.29 138.53 123.87 138.96 123.52 138.99 123.02 139.13 121.65 139.24 120.46 139.34 119.65 139.24 118.73 138.85 117.85 138.68 116.69 138.53 115.26 138.51 114.22 138.69 113.12 139.15 111.67 139.85 110.51 140.72 109.41 141.58 108.37 142.74"/><polygon class="cls-17" points="131.17 139.84 130.5 137.8 129.38 135.02 128.14 132.71 127.13 130.68 125.84 128.27 124.82 126.39 123.48 124.14 122.2 122.06 120.9 122.94 119.39 123.53 118.47 124.12 117.33 124.39 118.66 126.71 119.4 128.09 120.35 129.81 121.37 131.67 122.29 133.47 123.41 135.62 124.64 138.36 125.8 138.46 126.73 139.15 128.64 139.27 129.97 139.56 131.17 139.84"/><polygon class="cls-17" points="123.91 115.79 123.64 114.5 123.32 113.43 122.79 112.84 121.43 111.78 120.51 111.06 119.59 110.21 119.13 111.78 119.06 113.82 119.06 115.59 119.26 117.23 119.66 118.87 120.11 120.18 120.38 121.03 120.84 121.1 121.23 120.38 121.62 119.92 122.61 119 123.27 117.98 123.81 116.81 123.91 115.79"/><polygon class="cls-17" points="116.69 138.53 114.22 138.69 113.12 139.15 112.15 138.68 112.22 136.67 112.15 134.7 111.84 133.64 111.2 132.59 110.29 131.5 109.37 130.65 108.7 129.99 107.69 129.6 106.7 130.02 105.36 130.09 104.24 130.48 103.75 130.55 102.72 130.69 101.88 130.97 101.25 131.32 100.89 131.78 99.88 131.2 101.35 129.42 102.63 126.85 103.25 124.83 103.18 123.06 102.57 120.61 101.35 118.9 100.96 118.41 101.9 117.61 101.79 118.41 102.81 118.25 104.04 118.47 105.65 117.56 106.99 116.59 108 115.89 108.11 115.04 108.43 114.45 108.92 113.97 109.61 113.65 109.67 112.9 109.93 112.47 110.74 111.56 111.65 110.97 112.34 110.54 111.98 112.31 111.91 114.54 112.05 116.51 112.18 118.35 112.57 120.05 113.09 121.5 113.45 122.53 112.61 122.35 111.63 122.03 111.7 123.13 111.7 124.04 111.31 124.85 110.75 126.01 110.25 126.54 111.27 127.42 112.47 128.58 113.28 129.56 114.16 130.9 114.9 132.2 115.5 133.54 115.92 134.74 116.34 135.97 116.55 137.23 116.69 138.53"/><polygon class="cls-21" points="112.34 110.54 112.5 109.74 113.15 108.72 113.9 108.24 114.91 107.7 116.09 107.75 117.75 107.97 119.84 108.56 121.02 109.04 121.77 109.84 122.52 111.66 122.79 112.84 121.43 111.78 120.51 111.06 119.59 110.21 119.13 111.78 119.06 113.82 119.06 115.59 119.26 117.23 119.66 118.87 120.11 120.18 120.38 121.03 120.84 121.1 121.23 120.38 121.62 119.92 122.61 119 123.27 117.98 123.22 119.06 123.11 120.29 122.68 121.36 122.2 122.06 120.9 122.94 119.39 123.53 118.47 124.12 117.33 124.39 116.27 124.46 115.36 124.18 114.41 123.79 113.95 123.27 113.45 122.53 113.09 121.5 112.57 120.05 112.18 118.35 112.05 116.51 111.91 114.54 111.98 112.31 112.34 110.54"/><polygon class="cls-13" points="137.35 150 137.44 150.75 137.57 163.67 137.61 165.65 137.57 167.4 137.35 168.62 136.95 169.89 136.43 171.08 135.64 172.17 134.72 173.14 133.67 173.79 132.4 174.28 130.86 174.45 129.59 174.19 128.37 173.66 127.4 173.05 126.48 172.09 125.52 171.03 124.73 169.46 124.38 168.27 123.99 166.52 123.99 164.77 124.2 163.15 124.69 161.88 124.64 160.91 124.6 159.47 124.38 157.76 124.16 156.58 124.18 155.89 125.4 155.43 125.51 156.53 125.92 157.34 126.5 158.38 127.13 158.84 128 159.13 128.87 158.96 129.97 158.44 130.61 157.8 131.07 156.99 131.77 155.6 132.35 154.44 132.46 153.63 133.27 153.22 134.08 152.53 134.66 151.6 135.76 151.43 136.92 150.5 137.35 150"/><polygon class="cls-17" points="93.76 92.14 93.06 89.11 92.47 86.49 91.94 83.81 91.61 82.42 91.83 81.61 92.31 80.33 92.42 78.78 92.58 77.28 92.63 75.56 92.58 73.69 90.44 75.01 88.52 76.04 86.87 76.45 85.15 76.86 83.44 77.14 81.45 77.34 79.94 77.27 78.65 77.01 79.67 79.04 80.85 81.03 81.6 82.42 82.13 83.06 83.2 84.13 83.9 87.29 84.22 89.06 84.76 91.1 85.5 94.02 86.71 93.95 88.25 93.75 89.73 93.41 91.75 92.94 92.89 92.54 93.76 92.14"/><polygon class="cls-21" points="98.84 98.7 97.46 99.53 96.05 100.2 93.97 100.87 92.28 101.34 90.2 101.88 88.92 102.08 88.05 102.22 86.71 101.01 85.16 99.53 83.88 98.39 82.88 97.38 81.67 96.5 80.63 95.86 81.17 93.94 81.92 92.81 83.04 91.79 84.76 91.1 85.5 94.02 86.71 93.95 88.25 93.75 89.73 93.41 91.75 92.94 92.89 92.54 93.76 92.14 93.06 89.11 94.35 89.17 95.42 89.22 96.49 89.49 97.51 90.13 98.31 91.2 99.54 92.65 100.45 94.26 101.09 95.49 100.88 95.92 100.45 96.83 99.7 97.84 98.84 98.7"/><polygon class="cls-22" points="100.96 118.41 101.9 117.61 103.34 114.66 104.09 113 104.15 112.2 103.24 111.18 102 109.79 100.99 108.72 100.29 108.02 101.04 105.72 101.58 103.9 101.95 102.77 101.84 102.08 100.4 100.52 99.38 99.4 98.84 98.7 97.46 99.53 96.05 100.2 93.97 100.87 92.28 101.34 90.2 101.88 88.92 102.08 88.05 102.22 89.46 103.29 90.74 104.23 92.15 105.11 93.9 105.91 95.38 106.52 96.59 107.26 97.53 108.27 98.53 109.54 98.94 111.16 99.27 112.57 99.27 114.18 98.87 115.66 98.4 116.67 97.73 117.61 98.66 117.68 100.25 118.17 100.96 118.41"/><polygon class="cls-21" points="92.58 73.69 90.44 75.01 88.52 76.04 86.87 76.45 85.15 76.86 83.44 77.14 81.45 77.34 79.94 77.27 78.65 77.01 77.74 76.58 76.35 76.05 75.01 75.13 73.78 74.17 72.6 73.05 71.21 71.06 71.13 69.7 72.26 69.2 73.25 68.71 74.38 68.22 75.08 67.44 75.58 66.38 75.79 65.11 75.65 63.98 75.22 62.78 74.52 61.8 73.46 61.37 72.05 61.09 70.57 60.6 70.03 59.23 70.56 57.73 71.53 56.28 72.92 54.35 74.9 52.58 77.26 51.35 78.81 50.71 81.01 50.12 83.15 50.07 86.15 50.39 88.72 51.19 90.92 52.42 93.06 54.08 94.72 56.17 95.74 58.53 96.53 60.6 96.74 62.29 96.88 64.34 96.65 66.19 96.38 67.42 96.06 68.44 95.47 69.72 94.72 71.12 93.92 72.35 92.58 73.69"/><polygon class="cls-17" points="85.88 69.28 84.04 67.02 82.63 63.84 82.35 61.3 82.28 58.83 82.7 56.72 83.62 55.38 84.68 54.67 86.09 54.11 87.85 54.11 89.83 54.67 91.59 55.8 92.86 56.93 93.92 58.27 94.7 59.89 95.12 61.37 95.33 63.49 94.91 65.04 94.48 66.52 93.71 68.01 92.58 69.13 91.03 70.05 89.33 70.47 87.29 70.26 85.88 69.28"/><polygon class="cls-17" points="95.74 58.53 97.35 59.55 99.38 60.89 100.93 62.01 99.49 63.4 97.88 65.22 96.65 66.19 96.88 64.34 96.74 62.29 96.53 60.6 95.74 58.53"/><polygon class="cls-23" points="87.85 60.1 86.23 60.39 84.89 60.74 84.61 61.73 84.82 62.72 85.38 63.49 86.16 63.63 87.57 63.42 89.05 63.28 90.11 63.21 90.82 63.63 90.82 64.69 90.75 66.17 90.53 67.58 90.32 68.29 90.89 68.92 91.52 68.85 92.37 68.43 93.07 67.3 93.36 66.31 93.5 64.97 93.57 63.91 93.57 63.21 93.99 62.72 94.98 62.78 95.12 61.37 94.7 59.89 93.71 59.33 92.58 59.33 92.09 59.47 91.73 58.34 91.03 56.72 90.25 55.59 89.33 54.95 88.49 54.81 87.85 55.02 87.57 55.59 88.28 55.94 88.7 56.93 89.19 58.06 89.76 59.82 87.85 60.1"/><polygon class="cls-17" points="74.52 61.8 73.46 61.37 72.05 61.09 70.57 60.6 70.03 59.23 68.64 56.55 67.14 54.57 65.64 53.17 63.71 51.73 61.3 50.71 58.78 50.39 56.32 50.76 53.75 51.99 52.25 53.17 50.59 54.94 49.41 56.87 48.44 59.17 47.85 61.53 47.59 63.56 47.48 66.14 47.75 69.14 48.5 72.24 49.67 75.19 51.34 77.49 52.89 79.37 54.71 80.65 57.17 81.99 59.69 82.42 61.83 82.26 63.87 81.51 65.85 80.44 67.62 78.67 69.12 76.74 70.03 74.81 70.83 72.56 71.21 71.06 71.13 69.7 72.26 69.2 73.25 68.71 74.38 68.22 75.08 67.44 75.58 66.38 75.79 65.11 75.65 63.98 75.22 62.78 74.52 61.8"/><polygon class="cls-23" points="60.27 55.8 58.93 55.45 57.45 55.66 55.47 56.37 53.85 57.49 52.86 59.19 51.73 62.43 51.31 64.97 51.38 67.44 52.44 70.83 54.41 73.79 56.18 75.69 58.01 77.11 59.85 77.46 61.33 77.25 62.53 76.54 64.01 75.27 65.14 73.37 65.98 70.83 66.41 68.15 66.27 65.75 66.13 63.77 65.28 61.37 64.5 59.47 63.73 58.2 62.53 56.79 61.4 56.15 60.27 55.8"/></g></g></svg>