<svg xmlns="http://www.w3.org/2000/svg" viewBox="0 0 810 810"><defs><style>.cls-1{fill:#fff;}.cls-2{fill:#231f20;}.cls-3{fill:#f0c995;}.cls-4{fill:#b58c5a;}.cls-5{fill:#d6af83;}.cls-6{fill:#3e60aa;}.cls-7{fill:#394177;}.cls-8{fill:#24447b;}.cls-9{fill:#69717f;}.cls-10{fill:#e69c9d;}.cls-11{fill:#931b1e;}.cls-12{fill:#d32929;}.cls-13{fill:#1b203e;}</style></defs><title>walk_square</title><g id="Layer_2" data-name="Layer 2"><g id="Layer_3" data-name="Layer 3"><rect class="cls-1" width="810" height="810"/><path class="cls-2" d="M183,78.17l-33,125.9H118L69.17,33.39h33.52L136,164.92,171.27,33.39h23.8l35.31,131.53,33-131.53h33.52L248.29,204.07h-32Z"/><path class="cls-2" d="M413.59,171.32H332.73l-12.54,32.75H287.44l67-170.68h37.36l67,170.68H426.13ZM341.18,145h64l-32-86.23Z"/><path class="cls-2" d="M477.56,33.39H507.5V177.71h75.23v26.36H477.56Z"/><path class="cls-2" d="M654.63,132.17l-14.84,17.4v54.5H609.85V33.39h29.94v81.37l66.79-81.37h37.1L674.34,114l74.46,90.07H712Z"/><path class="cls-2" d="M167.69,264.18c33.26,0,55,15.86,68.83,35.57L212,313.57a54.34,54.34,0,0,0-44.27-22.77c-33.78,0-58.85,25.84-58.85,61.67s25.08,61.92,58.85,61.92c17.4,0,32.75-8.19,40.43-15.35V372.42H157.19V346.07h80.86v64c-16.89,18.68-40.69,31-70.37,31-49.39,0-89.56-35.06-89.56-88.54S118.3,264.18,167.69,264.18Z"/><path class="cls-2" d="M269.27,267h29.94V437.67H269.27Z"/><path class="cls-2" d="M335.54,267H452.48v26.36h-87v44.27h85.21V364H365.48v73.7H335.54Z"/><rect class="cls-3" x="109" y="519" width="80" height="8"/><rect class="cls-3" x="109" y="583" width="80" height="8"/><rect class="cls-4" x="101" y="527" width="96" height="8"/><rect class="cls-4" x="101" y="535" width="96" height="8"/><rect class="cls-4" x="101" y="543" width="96" height="8"/><rect class="cls-4" x="101" y="551" width="96" height="8"/><rect class="cls-4" x="101" y="559" width="96" height="8"/><rect class="cls-3" x="101" y="567" width="96" height="8"/><rect class="cls-3" x="101" y="575" width="96" height="8"/><rect class="cls-3" x="157" y="591" width="8" height="8"/><rect class="cls-4" x="125" y="591" width="24" height="8"/><rect class="cls-5" x="149" y="591" width="8" height="8"/><rect class="cls-6" x="117" y="599" width="64" height="8"/><rect class="cls-6" x="189" y="607" width="8" height="24"/><rect class="cls-6" x="197" y="615" width="8" height="16"/><rect class="cls-6" x="117" y="607" width="72" height="24"/><rect class="cls-6" x="101" y="607" width="16" height="8"/><rect class="cls-6" x="93" y="615" width="24" height="8"/><rect class="cls-6" x="93" y="623" width="24" height="8"/><rect class="cls-7" x="117" y="687" width="16" height="16"/><rect class="cls-7" x="157" y="687" width="24" height="16"/><rect class="cls-7" x="165" y="703" width="16" height="16"/><rect class="cls-7" x="117" y="703" width="16" height="16"/><rect class="cls-7" x="165" y="719" width="16" height="16"/><rect class="cls-7" x="157" y="735" width="16" height="24"/><rect class="cls-7" x="117" y="719" width="16" height="40"/><rect class="cls-7" x="141" y="687" width="16" height="8"/><rect class="cls-6" x="189" y="631" width="16" height="40"/><rect class="cls-6" x="101" y="631" width="8" height="40"/><rect class="cls-8" x="181" y="631" width="8" height="32"/><rect class="cls-8" x="109" y="631" width="8" height="32"/><rect class="cls-8" x="93" y="615" width="8" height="56"/><rect class="cls-6" x="117" y="631" width="64" height="56"/><rect class="cls-9" x="141" y="631" width="16" height="8"/><rect class="cls-9" x="133" y="639" width="8" height="16"/><rect class="cls-9" x="157" y="639" width="8" height="16"/><rect class="cls-9" x="141" y="655" width="16" height="8"/><rect class="cls-9" x="149" y="647" width="8" height="8"/><rect class="cls-10" x="165" y="767" width="16" height="8"/><rect class="cls-11" x="157" y="775" width="24" height="8"/><rect class="cls-12" x="149" y="767" width="16" height="8"/><rect class="cls-12" x="149" y="775" width="8" height="8"/><rect class="cls-10" x="125" y="767" width="16" height="8"/><rect class="cls-11" x="117" y="775" width="24" height="8"/><rect class="cls-12" x="109" y="767" width="16" height="8"/><rect class="cls-12" x="109" y="775" width="8" height="8"/><rect class="cls-8" x="101" y="607" width="8" height="8"/><rect class="cls-8" x="117" y="599" width="8" height="8"/><rect class="cls-6" x="117" y="583" width="8" height="16"/><rect class="cls-6" x="109" y="575" width="8" height="16"/><rect class="cls-6" x="101" y="527" width="8" height="56"/><rect class="cls-8" x="109" y="551" width="8" height="32"/><rect class="cls-6" x="109" y="511" width="80" height="8"/><rect class="cls-6" x="101" y="519" width="8" height="8"/><rect class="cls-6" x="109" y="519" width="88" height="8"/><rect class="cls-6" x="109" y="527" width="88" height="8"/><rect class="cls-6" x="197" y="527" width="8" height="56"/><rect class="cls-6" x="173" y="583" width="24" height="8"/><rect class="cls-6" x="189" y="575" width="8" height="8"/><rect class="cls-6" x="165" y="591" width="8" height="16"/><rect class="cls-6" x="109" y="535" width="88" height="16"/><rect class="cls-4" x="173" y="567" width="24" height="8"/><rect class="cls-4" x="165" y="575" width="24" height="8"/><rect class="cls-4" x="149" y="583" width="16" height="16"/><rect class="cls-4" x="141" y="583" width="8" height="8"/><rect class="cls-8" x="101" y="519" width="8" height="64"/><rect class="cls-8" x="109" y="511" width="8" height="8"/><rect class="cls-8" x="109" y="583" width="8" height="8"/><rect class="cls-8" x="189" y="551" width="8" height="24"/><rect class="cls-8" x="181" y="575" width="8" height="8"/><rect class="cls-8" x="165" y="583" width="8" height="8"/><rect class="cls-6" x="157" y="591" width="8" height="8"/><rect class="cls-6" x="125" y="591" width="8" height="8"/><rect class="cls-13" x="149" y="695" width="8" height="8"/><rect class="cls-13" x="157" y="703" width="8" height="32"/><rect class="cls-13" x="109" y="687" width="8" height="72"/><rect class="cls-7" x="133" y="687" width="8" height="8"/><rect class="cls-7" x="133" y="695" width="8" height="8"/><rect class="cls-13" x="149" y="735" width="8" height="24"/><rect class="cls-6" x="109" y="551" width="88" height="8"/><rect class="cls-6" x="189" y="671" width="8" height="8" transform="translate(40.33 -10.25) rotate(3.4)"/><rect class="cls-6" x="181" y="663" width="8" height="24"/><rect class="cls-8" x="173" y="663" width="8" height="8"/><rect class="cls-6" x="109" y="663" width="8" height="16"/><rect class="cls-8" x="117" y="663" width="8" height="8"/><rect class="cls-8" x="101" y="671" width="8" height="8"/><rect class="cls-8" x="109" y="679" width="8" height="16"/><rect class="cls-6" x="117" y="687" width="64" height="8"/><rect class="cls-3" x="237" y="519" width="80" height="8"/><rect class="cls-3" x="237" y="583" width="80" height="8"/><rect class="cls-4" x="229" y="527" width="96" height="8"/><rect class="cls-4" x="229" y="535" width="96" height="8"/><rect class="cls-4" x="229" y="543" width="96" height="8"/><rect class="cls-4" x="229" y="551" width="96" height="8"/><rect class="cls-4" x="229" y="559" width="96" height="8"/><rect class="cls-3" x="229" y="567" width="96" height="8"/><rect class="cls-3" x="229" y="575" width="96" height="8"/><rect class="cls-3" x="285" y="591" width="8" height="8"/><rect class="cls-4" x="253" y="591" width="24" height="8"/><rect class="cls-5" x="277" y="591" width="8" height="8"/><rect class="cls-6" x="245" y="599" width="64" height="8"/><rect class="cls-6" x="317" y="607" width="8" height="24"/><rect class="cls-6" x="325" y="615" width="8" height="16"/><rect class="cls-6" x="245" y="607" width="72" height="24"/><rect class="cls-6" x="229" y="607" width="16" height="8"/><rect class="cls-6" x="221" y="615" width="24" height="8"/><rect class="cls-6" x="221" y="623" width="24" height="8"/><rect class="cls-7" x="245" y="687" width="16" height="16"/><rect class="cls-7" x="285" y="687" width="24" height="16"/><rect class="cls-7" x="293" y="703" width="16" height="16"/><rect class="cls-7" x="245" y="703" width="16" height="16"/><rect class="cls-7" x="285" y="719" width="16" height="16"/><rect class="cls-7" x="277" y="735" width="16" height="24"/><rect class="cls-7" x="245" y="719" width="16" height="24"/><rect class="cls-7" x="269" y="687" width="16" height="8"/><rect class="cls-6" x="317" y="631" width="16" height="40"/><rect class="cls-6" x="229" y="631" width="8" height="40"/><rect class="cls-8" x="309" y="631" width="8" height="32"/><rect class="cls-8" x="237" y="631" width="8" height="32"/><rect class="cls-8" x="221" y="615" width="8" height="56"/><rect class="cls-6" x="245" y="631" width="64" height="56"/><rect class="cls-9" x="269" y="631" width="16" height="8"/><rect class="cls-9" x="261" y="639" width="8" height="16"/><rect class="cls-9" x="285" y="639" width="8" height="16"/><rect class="cls-9" x="269" y="655" width="16" height="8"/><rect class="cls-9" x="277" y="647" width="8" height="8"/><rect class="cls-10" x="293" y="767" width="16" height="8"/><rect class="cls-11" x="285" y="775" width="24" height="8"/><rect class="cls-12" x="277" y="767" width="16" height="8"/><rect class="cls-12" x="277" y="775" width="8" height="8"/><rect class="cls-10" x="261" y="759" width="16" height="8"/><rect class="cls-11" x="253" y="767" width="24" height="8"/><rect class="cls-12" x="245" y="759" width="16" height="8"/><rect class="cls-12" x="245" y="767" width="8" height="8"/><rect class="cls-8" x="229" y="607" width="8" height="8"/><rect class="cls-8" x="245" y="599" width="8" height="8"/><rect class="cls-6" x="245" y="583" width="8" height="16"/><rect class="cls-6" x="237" y="575" width="8" height="16"/><rect class="cls-6" x="229" y="527" width="8" height="56"/><rect class="cls-8" x="237" y="551" width="8" height="32"/><rect class="cls-6" x="237" y="511" width="80" height="8"/><rect class="cls-6" x="229" y="519" width="8" height="8"/><rect class="cls-6" x="237" y="519" width="88" height="8"/><rect class="cls-6" x="237" y="527" width="88" height="8"/><rect class="cls-6" x="325" y="527" width="8" height="56"/><rect class="cls-6" x="301" y="583" width="24" height="8"/><rect class="cls-6" x="317" y="575" width="8" height="8"/><rect class="cls-6" x="293" y="591" width="8" height="16"/><rect class="cls-6" x="237" y="535" width="88" height="16"/><rect class="cls-4" x="301" y="567" width="24" height="8"/><rect class="cls-4" x="293" y="575" width="24" height="8"/><rect class="cls-4" x="277" y="583" width="16" height="16"/><rect class="cls-4" x="269" y="583" width="8" height="8"/><rect class="cls-8" x="229" y="519" width="8" height="64"/><rect class="cls-8" x="237" y="511" width="8" height="8"/><rect class="cls-8" x="237" y="583" width="8" height="8"/><rect class="cls-8" x="317" y="551" width="8" height="24"/><rect class="cls-8" x="309" y="575" width="8" height="8"/><rect class="cls-8" x="293" y="583" width="8" height="8"/><rect class="cls-6" x="285" y="591" width="8" height="8"/><rect class="cls-6" x="253" y="591" width="8" height="8"/><rect class="cls-13" x="277" y="695" width="8" height="8"/><rect class="cls-13" x="285" y="703" width="8" height="16"/><rect class="cls-13" x="277" y="719" width="8" height="16"/><rect class="cls-13" x="237" y="695" width="8" height="48"/><rect class="cls-7" x="261" y="687" width="8" height="8"/><rect class="cls-7" x="261" y="695" width="8" height="8"/><rect class="cls-13" x="269" y="735" width="8" height="24"/><rect class="cls-6" x="237" y="551" width="88" height="8"/><rect class="cls-6" x="317" y="671" width="8" height="8" transform="translate(40.55 -17.83) rotate(3.4)"/><rect class="cls-6" x="309" y="663" width="8" height="24"/><rect class="cls-8" x="301" y="663" width="8" height="8"/><rect class="cls-6" x="237" y="663" width="8" height="16"/><rect class="cls-8" x="245" y="663" width="8" height="8"/><rect class="cls-8" x="229" y="671" width="8" height="8"/><rect class="cls-8" x="237" y="679" width="8" height="16"/><rect class="cls-6" x="245" y="687" width="64" height="8"/><rect class="cls-7" x="253" y="743" width="16" height="8"/><rect class="cls-13" x="245" y="743" width="8" height="8"/><rect class="cls-3" x="365" y="511" width="80" height="8"/><rect class="cls-3" x="365" y="575" width="80" height="8"/><rect class="cls-4" x="357" y="519" width="96" height="8"/><rect class="cls-4" x="357" y="527" width="96" height="8"/><rect class="cls-4" x="357" y="535" width="96" height="8"/><rect class="cls-4" x="357" y="543" width="96" height="8"/><rect class="cls-4" x="357" y="551" width="96" height="8"/><rect class="cls-3" x="357" y="559" width="96" height="8"/><rect class="cls-3" x="357" y="567" width="96" height="8"/><rect class="cls-3" x="413" y="583" width="8" height="8"/><rect class="cls-4" x="381" y="583" width="24" height="8"/><rect class="cls-5" x="405" y="583" width="8" height="8"/><rect class="cls-6" x="373" y="591" width="64" height="8"/><rect class="cls-6" x="445" y="599" width="8" height="24"/><rect class="cls-6" x="453" y="607" width="8" height="16"/><rect class="cls-6" x="373" y="599" width="72" height="24"/><rect class="cls-6" x="357" y="599" width="16" height="8"/><rect class="cls-6" x="349" y="607" width="24" height="8"/><rect class="cls-6" x="349" y="615" width="24" height="8"/><rect class="cls-7" x="373" y="679" width="16" height="24"/><rect class="cls-7" x="413" y="679" width="24" height="16"/><rect class="cls-7" x="413" y="695" width="16" height="24"/><rect class="cls-7" x="373" y="703" width="16" height="16"/><rect class="cls-7" x="413" y="719" width="16" height="16"/><rect class="cls-7" x="397" y="735" width="16" height="24"/><rect class="cls-7" x="381" y="719" width="16" height="16"/><rect class="cls-7" x="397" y="679" width="16" height="8"/><rect class="cls-6" x="445" y="623" width="16" height="40"/><rect class="cls-6" x="357" y="623" width="8" height="40"/><rect class="cls-8" x="437" y="623" width="8" height="32"/><rect class="cls-8" x="365" y="623" width="8" height="32"/><rect class="cls-8" x="349" y="607" width="8" height="56"/><rect class="cls-6" x="373" y="623" width="64" height="56"/><rect class="cls-9" x="397" y="623" width="16" height="8"/><rect class="cls-9" x="389" y="631" width="8" height="16"/><rect class="cls-9" x="413" y="631" width="8" height="16"/><rect class="cls-9" x="397" y="647" width="16" height="8"/><rect class="cls-9" x="405" y="639" width="8" height="8"/><rect class="cls-10" x="413" y="767" width="16" height="8"/><rect class="cls-11" x="405" y="775" width="24" height="8"/><rect class="cls-12" x="397" y="767" width="16" height="8"/><rect class="cls-12" x="397" y="775" width="8" height="8"/><rect class="cls-8" x="357" y="599" width="8" height="8"/><rect class="cls-8" x="373" y="591" width="8" height="8"/><rect class="cls-6" x="373" y="575" width="8" height="16"/><rect class="cls-6" x="365" y="567" width="8" height="16"/><rect class="cls-6" x="357" y="519" width="8" height="56"/><rect class="cls-8" x="365" y="543" width="8" height="32"/><rect class="cls-6" x="365" y="503" width="80" height="8"/><rect class="cls-6" x="357" y="511" width="8" height="8"/><rect class="cls-6" x="365" y="511" width="88" height="8"/><rect class="cls-6" x="365" y="519" width="88" height="8"/><rect class="cls-6" x="453" y="519" width="8" height="56"/><rect class="cls-6" x="429" y="575" width="24" height="8"/><rect class="cls-6" x="445" y="567" width="8" height="8"/><rect class="cls-6" x="421" y="583" width="8" height="16"/><rect class="cls-6" x="365" y="527" width="88" height="16"/><rect class="cls-4" x="429" y="559" width="24" height="8"/><rect class="cls-4" x="421" y="567" width="24" height="8"/><rect class="cls-4" x="405" y="575" width="16" height="16"/><rect class="cls-4" x="397" y="575" width="8" height="8"/><rect class="cls-8" x="357" y="511" width="8" height="64"/><rect class="cls-8" x="365" y="503" width="8" height="8"/><rect class="cls-8" x="365" y="575" width="8" height="8"/><rect class="cls-8" x="445" y="543" width="8" height="24"/><rect class="cls-8" x="437" y="567" width="8" height="8"/><rect class="cls-8" x="421" y="575" width="8" height="8"/><rect class="cls-6" x="413" y="583" width="8" height="8"/><rect class="cls-6" x="381" y="583" width="8" height="8"/><rect class="cls-13" x="405" y="687" width="8" height="16"/><rect class="cls-13" x="405" y="703" width="8" height="16"/><rect class="cls-13" x="405" y="719" width="8" height="16"/><rect class="cls-13" x="365" y="687" width="8" height="32"/><rect class="cls-7" x="389" y="679" width="8" height="8"/><rect class="cls-7" x="389" y="687" width="8" height="8"/><rect class="cls-13" x="397" y="735" width="8" height="24"/><rect class="cls-6" x="365" y="543" width="88" height="8"/><rect class="cls-6" x="445" y="663" width="8" height="8" transform="translate(40.3 -25.43) rotate(3.4)"/><rect class="cls-6" x="437" y="655" width="8" height="24"/><rect class="cls-8" x="429" y="655" width="8" height="8"/><rect class="cls-6" x="365" y="655" width="8" height="16"/><rect class="cls-8" x="373" y="655" width="8" height="8"/><rect class="cls-8" x="357" y="663" width="8" height="8"/><rect class="cls-8" x="365" y="671" width="8" height="16"/><rect class="cls-6" x="373" y="679" width="64" height="8"/><rect class="cls-7" x="389" y="735" width="16" height="8"/><rect class="cls-13" x="381" y="735" width="8" height="8"/><rect class="cls-10" x="397" y="751" width="16" height="8"/><rect class="cls-11" x="389" y="759" width="24" height="8"/><rect class="cls-12" x="381" y="751" width="16" height="8"/><rect class="cls-12" x="381" y="759" width="8" height="8"/><rect class="cls-13" x="373" y="719" width="8" height="16"/><rect class="cls-7" x="397" y="719" width="16" height="16"/><rect class="cls-3" x="493" y="503" width="80" height="8"/><rect class="cls-3" x="493" y="567" width="80" height="8"/><rect class="cls-4" x="485" y="511" width="96" height="8"/><rect class="cls-4" x="485" y="519" width="96" height="8"/><rect class="cls-4" x="485" y="527" width="96" height="8"/><rect class="cls-4" x="485" y="535" width="96" height="8"/><rect class="cls-4" x="485" y="543" width="96" height="8"/><rect class="cls-3" x="485" y="551" width="96" height="8"/><rect class="cls-3" x="485" y="559" width="96" height="8"/><rect class="cls-3" x="541" y="575" width="8" height="8"/><rect class="cls-4" x="509" y="575" width="24" height="8"/><rect class="cls-5" x="533" y="575" width="8" height="8"/><rect class="cls-6" x="501" y="583" width="64" height="8"/><rect class="cls-6" x="573" y="591" width="8" height="24"/><rect class="cls-6" x="581" y="599" width="8" height="16"/><rect class="cls-6" x="501" y="591" width="72" height="24"/><rect class="cls-6" x="485" y="591" width="16" height="8"/><rect class="cls-6" x="477" y="599" width="24" height="8"/><rect class="cls-6" x="477" y="607" width="24" height="8"/><rect class="cls-7" x="501" y="679" width="24" height="24"/><rect class="cls-7" x="533" y="687" width="32" height="16"/><rect class="cls-7" x="541" y="679" width="24" height="16"/><rect class="cls-7" x="533" y="703" width="24" height="16"/><rect class="cls-7" x="501" y="703" width="24" height="16"/><rect class="cls-7" x="541" y="719" width="16" height="16"/><rect class="cls-7" x="525" y="735" width="16" height="24"/><rect class="cls-7" x="517" y="719" width="16" height="16"/><rect class="cls-7" x="525" y="671" width="16" height="8"/><rect class="cls-6" x="573" y="615" width="16" height="40"/><rect class="cls-6" x="485" y="615" width="8" height="40"/><rect class="cls-8" x="565" y="615" width="8" height="32"/><rect class="cls-8" x="493" y="615" width="8" height="32"/><rect class="cls-8" x="477" y="599" width="8" height="56"/><rect class="cls-6" x="501" y="615" width="64" height="56"/><rect class="cls-9" x="525" y="615" width="16" height="8"/><rect class="cls-9" x="517" y="623" width="8" height="16"/><rect class="cls-9" x="541" y="623" width="8" height="16"/><rect class="cls-9" x="525" y="639" width="16" height="8"/><rect class="cls-9" x="533" y="631" width="8" height="8"/><rect class="cls-10" x="533" y="767" width="16" height="8"/><rect class="cls-11" x="525" y="775" width="24" height="8"/><rect class="cls-12" x="517" y="767" width="16" height="8"/><rect class="cls-12" x="517" y="775" width="8" height="8"/><rect class="cls-8" x="485" y="591" width="8" height="8"/><rect class="cls-8" x="501" y="583" width="8" height="8"/><rect class="cls-6" x="501" y="567" width="8" height="16"/><rect class="cls-6" x="493" y="559" width="8" height="16"/><rect class="cls-6" x="485" y="511" width="8" height="56"/><rect class="cls-8" x="493" y="535" width="8" height="32"/><rect class="cls-6" x="493" y="495" width="80" height="8"/><rect class="cls-6" x="485" y="503" width="8" height="8"/><rect class="cls-6" x="493" y="503" width="88" height="8"/><rect class="cls-6" x="493" y="511" width="88" height="8"/><rect class="cls-6" x="581" y="511" width="8" height="56"/><rect class="cls-6" x="557" y="567" width="24" height="8"/><rect class="cls-6" x="573" y="559" width="8" height="8"/><rect class="cls-6" x="549" y="575" width="8" height="16"/><rect class="cls-6" x="493" y="519" width="88" height="16"/><rect class="cls-4" x="557" y="551" width="24" height="8"/><rect class="cls-4" x="549" y="559" width="24" height="8"/><rect class="cls-4" x="533" y="567" width="16" height="16"/><rect class="cls-4" x="525" y="567" width="8" height="8"/><rect class="cls-8" x="485" y="503" width="8" height="64"/><rect class="cls-8" x="493" y="495" width="8" height="8"/><rect class="cls-8" x="493" y="567" width="8" height="8"/><rect class="cls-8" x="573" y="535" width="8" height="24"/><rect class="cls-8" x="565" y="559" width="8" height="8"/><rect class="cls-8" x="549" y="567" width="8" height="8"/><rect class="cls-6" x="541" y="575" width="8" height="8"/><rect class="cls-6" x="509" y="575" width="8" height="8"/><rect class="cls-13" x="525" y="687" width="8" height="16"/><rect class="cls-13" x="533" y="679" width="8" height="8"/><rect class="cls-13" x="525" y="703" width="8" height="8"/><rect class="cls-13" x="533" y="719" width="8" height="16"/><rect class="cls-13" x="493" y="679" width="8" height="40"/><rect class="cls-7" x="517" y="671" width="8" height="8"/><rect class="cls-7" x="517" y="687" width="8" height="16"/><rect class="cls-13" x="525" y="735" width="8" height="24"/><rect class="cls-6" x="493" y="535" width="88" height="8"/><rect class="cls-6" x="573" y="655" width="8" height="8" transform="translate(40.05 -33.02) rotate(3.4)"/><rect class="cls-6" x="565" y="647" width="8" height="24"/><rect class="cls-8" x="557" y="647" width="8" height="8"/><rect class="cls-6" x="493" y="647" width="8" height="16"/><rect class="cls-8" x="501" y="647" width="8" height="8"/><rect class="cls-8" x="485" y="655" width="8" height="8"/><rect class="cls-8" x="493" y="663" width="8" height="16"/><rect class="cls-6" x="501" y="671" width="64" height="8"/><rect class="cls-7" x="517" y="735" width="16" height="8"/><rect class="cls-10" x="533" y="743" width="16" height="8"/><rect class="cls-11" x="525" y="751" width="24" height="8"/><rect class="cls-12" x="517" y="743" width="16" height="8"/><rect class="cls-12" x="517" y="751" width="8" height="8"/><rect class="cls-13" x="509" y="719" width="8" height="16"/><rect class="cls-7" x="525" y="711" width="16" height="24"/><rect class="cls-13" x="397" y="719" width="8" height="8"/><rect class="cls-3" x="621" y="511" width="80" height="8"/><rect class="cls-3" x="621" y="575" width="80" height="8"/><rect class="cls-4" x="613" y="519" width="96" height="8"/><rect class="cls-4" x="613" y="527" width="96" height="8"/><rect class="cls-4" x="613" y="535" width="96" height="8"/><rect class="cls-4" x="613" y="543" width="96" height="8"/><rect class="cls-4" x="613" y="551" width="96" height="8"/><rect class="cls-3" x="613" y="559" width="96" height="8"/><rect class="cls-3" x="613" y="567" width="96" height="8"/><rect class="cls-3" x="669" y="583" width="8" height="8"/><rect class="cls-4" x="637" y="583" width="24" height="8"/><rect class="cls-5" x="661" y="583" width="8" height="8"/><rect class="cls-6" x="629" y="591" width="64" height="8"/><rect class="cls-6" x="701" y="599" width="8" height="24"/><rect class="cls-6" x="709" y="607" width="8" height="16"/><rect class="cls-6" x="629" y="599" width="72" height="24"/><rect class="cls-6" x="613" y="599" width="16" height="8"/><rect class="cls-6" x="605" y="607" width="24" height="8"/><rect class="cls-6" x="605" y="615" width="24" height="8"/><rect class="cls-7" x="629" y="679" width="16" height="16"/><rect class="cls-7" x="669" y="679" width="24" height="24"/><rect class="cls-7" x="661" y="703" width="24" height="16"/><rect class="cls-7" x="629" y="687" width="16" height="32"/><rect class="cls-7" x="645" y="695" width="8" height="24"/><rect class="cls-7" x="669" y="719" width="8" height="16"/><rect class="cls-7" x="653" y="735" width="16" height="24"/><rect class="cls-7" x="645" y="719" width="16" height="40"/><rect class="cls-7" x="653" y="679" width="16" height="8"/><rect class="cls-6" x="701" y="623" width="16" height="40"/><rect class="cls-6" x="613" y="623" width="8" height="40"/><rect class="cls-8" x="693" y="623" width="8" height="32"/><rect class="cls-8" x="621" y="623" width="8" height="32"/><rect class="cls-8" x="605" y="607" width="8" height="56"/><rect class="cls-6" x="629" y="623" width="64" height="56"/><rect class="cls-9" x="653" y="623" width="16" height="8"/><rect class="cls-9" x="645" y="631" width="8" height="16"/><rect class="cls-9" x="669" y="631" width="8" height="16"/><rect class="cls-9" x="653" y="647" width="16" height="8"/><rect class="cls-9" x="661" y="639" width="8" height="8"/><rect class="cls-10" x="653" y="767" width="16" height="8"/><rect class="cls-11" x="645" y="775" width="24" height="8"/><rect class="cls-12" x="637" y="767" width="16" height="8"/><rect class="cls-12" x="637" y="775" width="8" height="8"/><rect class="cls-8" x="613" y="599" width="8" height="8"/><rect class="cls-8" x="629" y="591" width="8" height="8"/><rect class="cls-6" x="629" y="575" width="8" height="16"/><rect class="cls-6" x="621" y="567" width="8" height="16"/><rect class="cls-6" x="613" y="519" width="8" height="56"/><rect class="cls-8" x="621" y="543" width="8" height="32"/><rect class="cls-6" x="621" y="503" width="80" height="8"/><rect class="cls-6" x="613" y="511" width="8" height="8"/><rect class="cls-6" x="621" y="511" width="88" height="8"/><rect class="cls-6" x="621" y="519" width="88" height="8"/><rect class="cls-6" x="709" y="519" width="8" height="56"/><rect class="cls-6" x="685" y="575" width="24" height="8"/><rect class="cls-6" x="701" y="567" width="8" height="8"/><rect class="cls-6" x="677" y="583" width="8" height="16"/><rect class="cls-6" x="621" y="527" width="88" height="16"/><rect class="cls-4" x="685" y="559" width="24" height="8"/><rect class="cls-4" x="677" y="567" width="24" height="8"/><rect class="cls-4" x="661" y="575" width="16" height="16"/><rect class="cls-4" x="653" y="575" width="8" height="8"/><rect class="cls-8" x="613" y="511" width="8" height="64"/><rect class="cls-8" x="621" y="503" width="8" height="8"/><rect class="cls-8" x="621" y="575" width="8" height="8"/><rect class="cls-8" x="701" y="543" width="8" height="24"/><rect class="cls-8" x="693" y="567" width="8" height="8"/><rect class="cls-8" x="677" y="575" width="8" height="8"/><rect class="cls-6" x="669" y="583" width="8" height="8"/><rect class="cls-6" x="637" y="583" width="8" height="8"/><rect class="cls-13" x="661" y="679" width="8" height="24"/><rect class="cls-13" x="653" y="703" width="8" height="8"/><rect class="cls-13" x="661" y="719" width="8" height="16"/><rect class="cls-13" x="621" y="679" width="8" height="24"/><rect class="cls-7" x="645" y="679" width="8" height="8"/><rect class="cls-13" x="653" y="735" width="8" height="24"/><rect class="cls-6" x="621" y="543" width="88" height="8"/><rect class="cls-6" x="701" y="663" width="8" height="8" transform="translate(40.75 -40.59) rotate(3.4)"/><rect class="cls-6" x="693" y="655" width="8" height="24"/><rect class="cls-8" x="685" y="655" width="8" height="8"/><rect class="cls-6" x="621" y="655" width="8" height="16"/><rect class="cls-8" x="629" y="655" width="8" height="8"/><rect class="cls-8" x="613" y="663" width="8" height="8"/><rect class="cls-8" x="621" y="671" width="8" height="16"/><rect class="cls-6" x="629" y="679" width="64" height="8"/><rect class="cls-7" x="645" y="735" width="16" height="8"/><rect class="cls-10" x="669" y="743" width="16" height="8"/><rect class="cls-11" x="661" y="751" width="24" height="8"/><rect class="cls-12" x="653" y="743" width="16" height="8"/><rect class="cls-12" x="653" y="751" width="8" height="8"/><rect class="cls-13" x="637" y="727" width="8" height="32"/><rect class="cls-7" x="653" y="711" width="16" height="24"/><rect class="cls-7" x="637" y="719" width="8" height="8"/><rect class="cls-13" x="629" y="703" width="8" height="24"/></g></g></svg>